<?xml version="1.0" encoding="utf-8"?>
<!-- Generator: Adobe Illustrator 24.0.1, SVG Export Plug-In . SVG Version: 6.00 Build 0)  -->
<svg version="1.1" id="Livello_1" xmlns="http://www.w3.org/2000/svg" xmlns:xlink="http://www.w3.org/1999/xlink" x="0px" y="0px"
	 viewBox="0 0 64 64" style="enable-background:new 0 0 64 64;" xml:space="preserve">
<style type="text/css">
	.st0{fill:#FFFFFF;}
	.st1{fill:none;stroke:#000000;stroke-miterlimit:10;}
</style>
<g>
	<rect x="0.5" y="0.5" class="st0" width="63" height="63"/>
	<path d="M63,1v62H1V1H63 M64,0H0v64h64V0L64,0z"/>
</g>
<g>
	<circle class="st0" cx="32" cy="32" r="31.5"/>
	<path d="M32,1c17.0935,0,31,13.9065,31,31S49.0935,63,32,63S1,49.0935,1,32S14.9065,1,32,1 M32,0C14.3269,0,0,14.3269,0,32
		s14.3269,32,32,32s32-14.3269,32-32S49.6731,0,32,0L32,0z"/>
</g>
<g>
	<line class="st1" x1="64" y1="32" x2="0" y2="32"/>
</g>
<line class="st1" x1="32" y1="0" x2="32" y2="64"/>
</svg>
