<?xml version="1.0" encoding="utf-8"?>
<!-- Generator: Adobe Illustrator 17.0.0, SVG Export Plug-In . SVG Version: 6.00 Build 0)  -->
<!DOCTYPE svg PUBLIC "-//W3C//DTD SVG 1.1//EN" "http://www.w3.org/Graphics/SVG/1.1/DTD/svg11.dtd">
<svg version="1.1" id="Capa_1" xmlns="http://www.w3.org/2000/svg" xmlns:xlink="http://www.w3.org/1999/xlink" x="0px" y="0px"
	 width="42.103px" height="41.975px" viewBox="0 0 42.103 41.975" enable-background="new 0 0 42.103 41.975" xml:space="preserve">
<g>
	<path fill="#FFFFFF" d="M21.1,0c0.019,0.009,0.038,0.021,0.058,0.026c0.477,0.11,0.785,0.483,0.801,0.973
		c0.002,0.059,0,0.118,0,0.177c0,9.719,0,19.438,0,29.158c0,0.075,0,0.149,0,0.218c0.038,0.029,0.057,0.005,0.075-0.013
		c0.138-0.134,0.276-0.268,0.413-0.404c1.139-1.124,2.277-2.249,3.416-3.373c0.887-0.876,1.775-1.751,2.663-2.627
		c0.781-0.77,1.562-1.541,2.343-2.311c0.503-0.496,1.007-0.991,1.509-1.488c0.147-0.146,0.313-0.258,0.518-0.304
		c0.585-0.133,1.083,0.229,1.208,0.716c0.097,0.378,0.001,0.71-0.273,0.987c-0.203,0.206-0.411,0.406-0.617,0.609
		c-0.461,0.455-0.922,0.909-1.383,1.364c-0.945,0.932-1.89,1.863-2.835,2.795c-0.621,0.613-1.241,1.226-1.862,1.838
		c-0.853,0.842-1.707,1.683-2.561,2.525c-0.632,0.624-1.265,1.248-1.897,1.872c-0.328,0.323-0.655,0.646-0.982,0.97
		c-0.164,0.162-0.353,0.272-0.584,0.31c-0.274,0.045-0.519-0.02-0.745-0.174c-0.048-0.033-0.091-0.074-0.135-0.113
		c-0.028-0.025-0.053-0.052-0.08-0.079c-1.651-1.649-3.301-3.299-4.952-4.948c-1.018-1.018-2.037-2.035-3.056-3.052
		c-0.928-0.927-1.856-1.853-2.784-2.779c-0.413-0.412-0.826-0.824-1.24-1.235c-0.092-0.091-0.172-0.19-0.23-0.307
		c-0.283-0.577,0.037-1.268,0.661-1.419c0.354-0.086,0.669-0.002,0.934,0.247c0.18,0.168,0.351,0.345,0.525,0.519
		c0.428,0.427,0.855,0.855,1.283,1.283c1.367,1.365,2.734,2.731,4.101,4.096c0.928,0.927,1.856,1.853,2.784,2.779
		c0.542,0.541,1.084,1.081,1.626,1.621c0.036,0.036,0.076,0.07,0.122,0.112c0.009-0.029,0.017-0.043,0.017-0.056
		c0.002-0.059,0.001-0.118,0.001-0.177c0-9.735,0-19.47,0-29.206c0-0.117-0.005-0.235,0.026-0.351
		c0.107-0.397,0.355-0.648,0.754-0.749C20.743,0.024,20.76,0.01,20.779,0C20.886,0,20.993,0,21.1,0z"/>
	<path fill="#FFFFFF" d="M0,32.886c0.046-0.028,0.052-0.076,0.066-0.123c0.117-0.386,0.369-0.63,0.764-0.721
		c0.531-0.122,1.095,0.229,1.195,0.796c0.016,0.094,0.022,0.191,0.022,0.287c0.001,2.2,0.001,4.399,0.001,6.599
		c0,0.069,0,0.138,0,0.214c0.04,0.006,0.07,0.013,0.101,0.014c0.048,0.002,0.096,0.001,0.144,0.001c12.524,0,25.048,0,37.572-0.001
		c0.074,0,0.149,0.011,0.229-0.013c0.004-0.032,0.01-0.062,0.011-0.093c0.002-0.053,0.001-0.107,0.001-0.161
		c0-2.371,0-4.742,0-7.113c0-0.128-0.004-0.257,0.035-0.382c0.127-0.405,0.396-0.647,0.816-0.724
		c0.439-0.081,0.892,0.176,1.067,0.568c0.021,0.048,0.033,0.101,0.048,0.152c0.012,0.04,0.021,0.08,0.032,0.12
		c0,3.222,0,6.444,0,9.667c-14.034,0-28.069,0-42.103,0C0,38.945,0,35.916,0,32.886z"/>
</g>
<g>
</g>
<g>
</g>
<g>
</g>
<g>
</g>
<g>
</g>
<g>
</g>
</svg>
