<?xml version="1.0" encoding="utf-8"?>
<!-- Generator: Adobe Illustrator 24.0.1, SVG Export Plug-In . SVG Version: 6.00 Build 0)  -->
<svg version="1.1" id="Livello_1" xmlns="http://www.w3.org/2000/svg" xmlns:xlink="http://www.w3.org/1999/xlink" x="0px" y="0px"
	 viewBox="0 0 65.1704 11.3164" style="enable-background:new 0 0 65.1704 11.3164;" xml:space="preserve">
<style type="text/css">
	.st0{fill:#FFFFFF;}
</style>
<g>
	<path class="st0" d="M6.7202,0.2397v8.52H5.8921V4.7759H0.8403v3.9839H0v-8.52h0.8403v3.792h5.0518v-3.792H6.7202z"/>
	<path class="st0" d="M8.688,1.1997V0h0.8159v1.1997H8.688z M8.688,8.7598v-6.252h0.8159v6.252H8.688z"/>
	<path class="st0" d="M11.5078,6.0239V0.1558h0.8159v5.8682H11.5078z M11.5078,8.7598V7.416h0.8159v1.3438H11.5078z"/>
	<path class="st0" d="M17.5557,8.7598v-8.52h0.8403v8.52H17.5557z"/>
	<path class="st0" d="M24.9956,8.8799c-0.2964,0-0.5703-0.0498-0.8223-0.1494c-0.252-0.1006-0.4722-0.2383-0.6597-0.4141
		c-0.1885-0.1768-0.3345-0.3828-0.4385-0.6182c-0.104-0.2363-0.1558-0.4902-0.1558-0.7627c0-0.2715,0.064-0.5234,0.1919-0.7559
		c0.1279-0.2319,0.3081-0.4321,0.54-0.6001s0.5078-0.2979,0.8281-0.3896c0.3198-0.0923,0.6719-0.1382,1.0562-0.1382
		c0.3198,0,0.6436,0.0283,0.9717,0.084c0.3281,0.0562,0.6201,0.1362,0.876,0.2402V4.8115c0-0.5518-0.1558-0.9897-0.4678-1.314
		c-0.312-0.3237-0.7441-0.4858-1.2959-0.4858c-0.3203,0-0.6479,0.064-0.9844,0.1919c-0.3359,0.1284-0.6758,0.312-1.02,0.5522
		l-0.2876-0.54c0.8076-0.5439,1.5918-0.8159,2.3516-0.8159c0.7842,0,1.3999,0.2202,1.8481,0.6597
		c0.4482,0.4404,0.6719,1.0483,0.6719,1.8242v2.8203c0,0.2236,0.1001,0.3359,0.3003,0.3359v0.7197
		c-0.1362,0.0244-0.2402,0.0361-0.312,0.0361c-0.208,0-0.3701-0.0518-0.4858-0.1563c-0.1162-0.1035-0.1782-0.2471-0.186-0.4316
		l-0.0244-0.4922c-0.2876,0.376-0.6499,0.6641-1.0859,0.8643S25.4995,8.8799,24.9956,8.8799z M25.1875,8.2559
		c0.4238,0,0.814-0.0801,1.1699-0.2402c0.356-0.1592,0.626-0.3721,0.8101-0.6357c0.0718-0.0723,0.126-0.1494,0.1621-0.2334
		c0.0356-0.085,0.0537-0.1621,0.0537-0.2344V5.8916c-0.272-0.1035-0.5537-0.1836-0.8457-0.2397
		c-0.2925-0.0562-0.5903-0.084-0.894-0.084c-0.5762,0-1.0439,0.1201-1.4043,0.3599c-0.3599,0.2402-0.54,0.5566-0.54,0.9482
		c0,0.1924,0.0381,0.3721,0.1143,0.54c0.0757,0.168,0.1802,0.3145,0.312,0.4385s0.29,0.2217,0.4741,0.2939
		C24.7832,8.2197,24.9795,8.2559,25.1875,8.2559z"/>
	<path class="st0" d="M39.2637,8.7598h-0.8164V5.2676c0-0.7275-0.1157-1.2637-0.3477-1.6079
		c-0.2324-0.3438-0.5762-0.5161-1.0322-0.5161c-0.2397,0-0.4658,0.0444-0.6777,0.1323c-0.2124,0.0879-0.4082,0.2119-0.5884,0.3721
		c-0.1797,0.1602-0.3379,0.3501-0.4736,0.5698c-0.1362,0.2202-0.2402,0.4619-0.312,0.7261v3.8159h-0.8159V5.2676
		c0-0.7437-0.1123-1.2837-0.3364-1.6196c-0.2236-0.3364-0.5679-0.5044-1.0317-0.5044c-0.4722,0-0.8921,0.1641-1.2603,0.4922
		c-0.3677,0.3281-0.6318,0.7603-0.792,1.2959v3.8281h-0.8159v-6.252h0.7441v1.416c0.2559-0.48,0.5918-0.854,1.0078-1.1221
		s0.876-0.4019,1.3804-0.4019c0.5278,0,0.9497,0.1479,1.2656,0.4438s0.5103,0.6841,0.582,1.1641
		c0.584-1.0718,1.3882-1.6079,2.4121-1.6079c0.3521,0,0.6499,0.064,0.894,0.1919s0.4399,0.3101,0.5879,0.5459
		c0.1479,0.2363,0.2559,0.52,0.3242,0.8521c0.0679,0.332,0.1021,0.7021,0.1021,1.1099V8.7598z"/>
	<path class="st0" d="M44.2192,8.7598v-8.52h3.5283c0.3682,0,0.7061,0.0781,1.0137,0.2339
		c0.3086,0.1563,0.5742,0.3604,0.7988,0.6123c0.2236,0.252,0.3994,0.5381,0.5273,0.8579s0.1924,0.644,0.1924,0.9717
		c0,0.3525-0.0605,0.6904-0.1797,1.0142C49.98,4.2539,49.812,4.54,49.5952,4.7876c-0.2158,0.248-0.4736,0.4482-0.7734,0.6001
		c-0.2998,0.1523-0.6348,0.228-1.002,0.228h-2.7598v3.144H44.2192z M45.0601,4.8716h2.7236c0.248,0,0.4736-0.0537,0.6777-0.1616
		c0.2041-0.1084,0.3779-0.252,0.5225-0.4321c0.1436-0.1802,0.2559-0.3882,0.3359-0.624s0.1201-0.4819,0.1201-0.7383
		c0-0.2637-0.0469-0.5137-0.1387-0.75c-0.0918-0.2358-0.2158-0.4419-0.3721-0.6177c-0.1553-0.1758-0.3398-0.314-0.5518-0.4141
		s-0.4336-0.1499-0.666-0.1499h-2.6514V4.8716z"/>
	<path class="st0" d="M51.5151,1.1997V0h0.8164v1.1997H51.5151z M51.5151,8.7598v-6.252h0.8164v6.252H51.5151z"/>
	<path class="st0" d="M57.3228,8.8799c-0.5273,0-0.9941-0.1338-1.3975-0.4023C55.521,8.21,55.1948,7.8721,54.9468,7.4639v3.8525
		h-0.8154V2.5078h0.7314v1.2119c0.2559-0.3916,0.5889-0.71,0.9961-0.9541c0.4082-0.2437,0.8525-0.3657,1.332-0.3657
		c0.4326,0,0.8281,0.0898,1.1885,0.27c0.3594,0.1797,0.6719,0.4199,0.9355,0.7197c0.2646,0.3003,0.4697,0.6465,0.6182,1.0381
		c0.1484,0.3921,0.2217,0.7964,0.2217,1.2119c0,0.4399-0.0674,0.8564-0.2031,1.248c-0.1367,0.3926-0.3301,0.7363-0.582,1.0322
		s-0.5527,0.5303-0.9004,0.7021S57.7388,8.8799,57.3228,8.8799z M57.0952,8.1602c0.3359,0,0.6416-0.0723,0.918-0.2158
		c0.2764-0.1445,0.5117-0.334,0.708-0.5703s0.3457-0.5039,0.4502-0.8037c0.1035-0.3008,0.1563-0.6104,0.1563-0.9307
		c0-0.3359-0.0605-0.6558-0.1807-0.96c-0.1201-0.3037-0.2842-0.5718-0.4922-0.8037s-0.4541-0.416-0.7373-0.5522
		c-0.2842-0.1357-0.5908-0.2041-0.918-0.2041c-0.208,0-0.4268,0.042-0.6543,0.126s-0.4404,0.1963-0.6357,0.3359
		c-0.1963,0.1401-0.3643,0.3042-0.5039,0.4922C55.0649,4.2617,54.979,4.46,54.9468,4.668v1.9199
		c0.0967,0.2246,0.2188,0.4316,0.3662,0.624c0.1484,0.1924,0.3164,0.3584,0.5039,0.498c0.1885,0.1396,0.3906,0.25,0.6064,0.3301
		S56.8628,8.1602,57.0952,8.1602z"/>
	<path class="st0" d="M61.5347,1.1997V0h0.8164v1.1997H61.5347z M61.5347,8.7598v-6.252h0.8164v6.252H61.5347z"/>
	<path class="st0" d="M64.355,6.0239V0.1558h0.8154v5.8682H64.355z M64.355,8.7598V7.416h0.8154v1.3438H64.355z"/>
</g>
</svg>
