<svg xmlns="http://www.w3.org/2000/svg" viewBox="0 0 493.18 476.57"><defs><style>.cls-1{fill:none;stroke:#000;stroke-miterlimit:10;stroke-width:0.5px;}.cls-2{font-size:11.28px;font-family:ArialNarrow, Arial Narrow;}</style></defs><title>Griglia</title><g id="Layer_2" data-name="Layer 2"><g id="Livello_1" data-name="Livello 1"><rect class="cls-1" x="0.25" y="0.25" width="463.18" height="64.04"/><rect class="cls-1" x="0.25" y="64.29" width="463.18" height="63.18"/><rect class="cls-1" x="0.25" y="127.47" width="463.18" height="63.18"/><rect class="cls-1" x="0.25" y="190.64" width="463.18" height="63.18"/><rect class="cls-1" x="0.25" y="253.82" width="463.18" height="63.18"/><rect class="cls-1" x="0.25" y="317" width="463.18" height="63.18"/><rect class="cls-1" x="0.25" y="380.17" width="463.18" height="63.18"/><rect class="cls-1" x="216.14" y="196.06" width="443.1" height="51.49" transform="translate(215.89 659.49) rotate(-90)"/><rect class="cls-1" x="164.65" y="196.06" width="443.1" height="51.49" transform="translate(164.4 608) rotate(-90)"/><rect class="cls-1" x="113.16" y="196.06" width="443.1" height="51.49" transform="translate(112.91 556.51) rotate(-90)"/><rect class="cls-1" x="61.68" y="196.06" width="443.1" height="51.49" transform="translate(61.43 505.03) rotate(-90)"/><rect class="cls-1" x="10.19" y="196.06" width="443.1" height="51.49" transform="translate(9.94 453.54) rotate(-90)"/><rect class="cls-1" x="-41.3" y="196.06" width="443.1" height="51.49" transform="translate(-41.55 402.05) rotate(-90)"/><rect class="cls-1" x="-92.78" y="196.06" width="443.1" height="51.49" transform="translate(-93.03 350.57) rotate(-90)"/><rect class="cls-1" x="-144.27" y="196.06" width="443.1" height="51.49" transform="translate(-144.52 299.08) rotate(-90)"/><rect class="cls-1" x="-195.56" y="196.06" width="443.1" height="51.49" transform="translate(-195.81 247.79) rotate(-90)"/><text class="cls-2" transform="translate(472.61 10.36)">2020</text><text class="cls-2" transform="translate(472.61 73.4)">2019</text><text class="cls-2" transform="translate(472.61 136.44)">2018</text><text class="cls-2" transform="translate(472.61 199.48)">2017</text><text class="cls-2" transform="translate(472.61 262.51)">2016</text><text class="cls-2" transform="translate(472.61 325.55)">2015</text><text class="cls-2" transform="translate(472.61 388.59)">2014</text><text class="cls-2" transform="translate(51.54 473.11)">50K</text><text class="cls-2" transform="translate(0.25 473.11)">0</text><text class="cls-2" transform="translate(103.02 473.12)">50K</text><text class="cls-2" transform="translate(206 473.12)">150K</text><text class="cls-2" transform="translate(154.51 473.12)">100K</text><text class="cls-2" transform="translate(257.48 473.12)">200K</text><text class="cls-2" transform="translate(308.97 473.12)">250K</text><text class="cls-2" transform="translate(360.46 473.12)">300K</text><text class="cls-2" transform="translate(411.94 473.12)">350K</text><text class="cls-2" transform="translate(463.43 473.11)">400K</text></g><g id="Livello_2" data-name="Livello 2"><rect x="0.25" y="380.17" width="5.8" height="63.18"/><rect x="0.25" y="317" width="9.89" height="63.18"/><rect x="0.25" y="253.82" width="17.3" height="63.18"/><rect x="0.25" y="190.64" width="34.83" height="63.18"/><rect x="0.25" y="127.47" width="47.22" height="63.18"/><rect x="0.25" y="64.29" width="63.18" height="63.18"/><rect x="0.25" y="0.25" width="446.81" height="64.04"/></g></g></svg>