<?xml version="1.0" encoding="utf-8"?>
<!-- Generator: Adobe Illustrator 17.0.0, SVG Export Plug-In . SVG Version: 6.00 Build 0)  -->
<!DOCTYPE svg PUBLIC "-//W3C//DTD SVG 1.1//EN" "http://www.w3.org/Graphics/SVG/1.1/DTD/svg11.dtd">
<svg version="1.1" id="Capa_1" xmlns="http://www.w3.org/2000/svg" xmlns:xlink="http://www.w3.org/1999/xlink" x="0px" y="0px"
	 width="214.527px" height="214.527px" viewBox="0 0 214.527 214.527" enable-background="new 0 0 214.527 214.527"
	 xml:space="preserve">
<g>
	<path fill="#FFFFFF" d="M107.632,26.853c0.129,0.053,0.253,0.137,0.386,0.155c1.671,0.22,3.372,1.816,3.114,4.116
		c-0.247,2.21-2.137,3.325-3.596,3.307c-0.798-0.01-1.596-0.003-2.393,0.019c-1.042,0.028-2.085,0.063-3.126,0.123
		c-1.081,0.062-2.162,0.134-3.238,0.243c-1.218,0.124-2.43,0.301-3.646,0.444c-1.744,0.206-3.47,0.525-5.186,0.892
		c-5.771,1.233-11.28,3.174-16.396,6.152c-6.756,3.932-12.117,9.272-16.096,16.001c-2.366,4.002-4.112,8.264-5.353,12.738
		c-0.639,2.305-1.143,4.64-1.495,7.008c-0.204,1.375-0.369,2.752-0.49,4.137c-0.157,1.795-0.227,3.591-0.224,5.392
		c0.007,4.133,0.006,8.265,0.001,12.398c-0.002,1.535,0.068,3.066,0.226,4.593c0.135,1.3,0.241,2.605,0.411,3.901
		c0.295,2.248,0.672,4.485,1.116,6.709c0.676,3.387,1.479,6.744,2.421,10.067c2.096,7.392,4.773,14.562,8.23,21.431
		c2.368,4.706,5.073,9.204,8.262,13.403c2.769,3.646,5.854,6.994,9.377,9.928c3.609,3.005,7.555,5.453,11.923,7.204
		c2.531,1.015,5.138,1.769,7.82,2.252c1.447,0.261,2.908,0.425,4.375,0.549c1.493,0.126,2.984,0.086,4.476,0.106
		c0.823,0.011,1.577,0.241,2.231,0.739c1.222,0.929,1.71,2.194,1.454,3.678c-0.249,1.441-1.13,2.422-2.531,2.894
		c-0.465,0.157-0.95,0.241-1.445,0.24c-1.125-0.003-2.251,0.038-3.37-0.116c-0.101-0.014-0.204-0.018-0.306-0.02
		c-1.35-0.032-2.686-0.194-4.024-0.366c-3.149-0.406-6.221-1.137-9.222-2.167c-5.549-1.904-10.572-4.762-15.157-8.406
		c-4.057-3.224-7.618-6.937-10.811-11.009c-3.788-4.83-6.974-10.038-9.73-15.515c-3.325-6.61-5.973-13.488-8.107-20.567
		c-1.257-4.169-2.305-8.391-3.167-12.658c-0.433-2.142-0.805-4.297-1.103-6.462c-0.214-1.558-0.413-3.118-0.541-4.688
		c-0.103-1.264-0.208-2.526-0.247-3.794c-0.006-0.184-0.025-0.367-0.04-0.551c-0.012-0.154-0.089-0.268-0.219-0.349
		c0-4.993,0-9.985,0-14.978c0.233-0.069,0.221-0.269,0.232-0.45c0.057-1.021,0.097-2.042,0.169-3.062
		c0.076-1.08,0.151-2.162,0.283-3.236c0.155-1.256,0.362-2.506,0.565-3.756c0.413-2.544,1.012-5.046,1.74-7.517
		c1.363-4.628,3.22-9.046,5.649-13.218c2.885-4.956,6.463-9.344,10.786-13.117c4.115-3.592,8.698-6.446,13.686-8.659
		c3.974-1.763,8.096-3.074,12.334-4.022c1.555-0.348,3.117-0.661,4.694-0.889c0.889-0.129,1.777-0.268,2.668-0.38
		c1.013-0.127,2.028-0.234,3.044-0.337c0.63-0.064,1.262-0.11,1.894-0.153c1.06-0.072,2.121-0.148,3.182-0.197
		c0.837-0.038,1.677-0.036,2.515-0.054c0.181-0.004,0.373,0.02,0.52-0.126C106.649,26.853,107.141,26.853,107.632,26.853z"/>
	<path fill="#FFFFFF" d="M172.33,102.232c-0.053,0.081-0.131,0.156-0.157,0.245c-0.402,1.409-1.34,2.308-2.741,2.6
		c-2.787,0.582-4.575-1.598-4.558-3.534c0.004-0.47,0.006-0.94,0.005-1.41c-0.005-1.832,1.394-3.337,3.094-3.667
		c1.501-0.291,3.663,0.615,4.198,2.58c0.024,0.088,0.105,0.16,0.159,0.24C172.33,100.268,172.33,101.25,172.33,102.232z"/>
	<path fill="#FFFFFF" d="M172.33,88.236c-0.054,0.081-0.13,0.154-0.159,0.243c-0.451,1.412-1.416,2.229-2.851,2.562
		c-1.797,0.417-4.067-0.794-4.404-3.14c-0.086-0.601-0.046-1.224-0.033-1.836c0.007-0.323,0.046-0.654,0.127-0.966
		c0.414-1.597,1.856-2.707,3.505-2.729c1.59-0.021,2.73,0.7,3.456,2.096c0.093,0.178,0.128,0.385,0.203,0.573
		c0.036,0.09,0.103,0.167,0.155,0.25C172.33,86.272,172.33,87.254,172.33,88.236z"/>
	<path fill="#FFFFFF" d="M107.503,142.113c-5.171-0.041-9.729-1.735-13.609-5.155c-3.489-3.076-5.659-6.938-6.576-11.497
		c-0.254-1.264-0.36-2.549-0.377-3.837c-0.01-0.728,0.172-1.418,0.564-2.04c0.791-1.257,2.151-2.015,3.968-1.699
		c1.444,0.251,2.61,1.476,2.883,2.989c0.054,0.3,0.089,0.608,0.09,0.912c0.023,5.282,3.519,10.417,9.068,12.22
		c0.974,0.316,1.974,0.494,2.999,0.583c1.028,0.089,2.036,0.005,3.053-0.119c2.03-0.248,3.667,1.037,4.089,2.679
		c0.683,2.656-1.176,4.448-2.913,4.713C109.801,142.007,108.796,142.104,107.503,142.113z"/>
	<path fill="#FFFFFF" d="M84.563,77.2c4.004-0.069,7.594,3.268,7.559,7.632c-0.032,3.989-3.184,7.545-7.628,7.512
		c-4.656-0.034-7.583-3.889-7.531-7.673C77.02,80.509,80.489,77.116,84.563,77.2z"/>
	<path fill="#FFFFFF" d="M120.813,135.592c-1.807-0.006-3.354-1.261-3.657-3.02c-0.173-0.999-0.029-1.966,0.576-2.81
		c0.489-0.682,0.924-1.398,1.39-2.093c0.847-1.265,2.082-1.848,3.586-1.648c1.58,0.211,2.638,1.14,3.115,2.673
		c0.285,0.917,0.196,1.824-0.236,2.68c-0.527,1.044-1.17,2.018-1.92,2.914C122.931,135.168,121.963,135.593,120.813,135.592z"/>
	<path fill="#FFFFFF" d="M121.092,185.579c-1.878-0.019-3.459-1.352-3.7-3.193c-0.245-1.871,0.753-3.315,2.105-3.926
		c0.704-0.318,1.441-0.571,2.209-0.704c1.311-0.226,2.43,0.177,3.329,1.126c1.724,1.82,1.199,4.943-1.242,5.982
		c-0.616,0.263-1.269,0.443-1.914,0.63C121.63,185.567,121.355,185.554,121.092,185.579z"/>
	<path fill="#FFFFFF" d="M161.981,55.231c1.414,0.055,2.497,0.646,3.212,1.846c0.302,0.507,0.577,1.037,0.801,1.583
		c0.968,2.357-0.56,4.706-2.738,5.143c-1.343,0.269-3.195-0.401-3.953-1.831c-0.248-0.469-0.492-0.941-0.715-1.422
		c-0.977-2.107,0.161-4.7,2.626-5.237C161.47,55.256,161.738,55.255,161.981,55.231z"/>
	<path fill="#FFFFFF" d="M144.85,161.542c1.62-0.076,3.399,1.083,3.721,3.176c0.155,1.009-0.072,1.961-0.707,2.779
		c-0.376,0.484-0.767,0.963-1.204,1.39c-1.055,1.034-2.336,1.338-3.733,0.913c-1.408-0.428-2.281-1.43-2.559-2.871
		c-0.21-1.088,0.018-2.12,0.725-3.007c0.332-0.415,0.676-0.823,1.04-1.21C142.869,161.927,143.778,161.52,144.85,161.542z"/>
	<path fill="#FFFFFF" d="M117.07,34.946c-0.545-0.073-1.246-0.101-1.912-0.269c-1.48-0.375-2.347-1.366-2.724-2.842
		c-0.38-1.491,0.441-3.789,2.717-4.378c0.215-0.056,0.442-0.082,0.664-0.092c0.778-0.035,1.553,0.026,2.316,0.168
		c1.681,0.313,2.948,1.856,2.967,3.575c0.021,1.868-1.212,3.411-3.03,3.771C117.792,34.933,117.501,34.919,117.07,34.946z"/>
	<path fill="#FFFFFF" d="M153.885,43.792c1.042,0.006,1.922,0.381,2.648,1.113c0.388,0.392,0.771,0.793,1.122,1.218
		c1.488,1.802,0.977,4.966-1.692,5.884c-1.399,0.481-2.668,0.185-3.758-0.795c-0.454-0.409-0.872-0.868-1.251-1.348
		c-1.693-2.139-0.63-5.295,2.023-5.955C153.271,43.837,153.582,43.83,153.885,43.792z"/>
	<path fill="#FFFFFF" d="M163.48,132.824c-1.805,0.035-3.57-1.348-3.744-3.567c-0.031-0.394,0.043-0.776,0.14-1.15
		c0.133-0.513,0.292-1.02,0.463-1.522c0.476-1.403,1.929-2.551,3.707-2.469c1.54,0.071,2.924,1.13,3.389,2.657
		c0.214,0.704,0.215,1.407,0.014,2.111c-0.134,0.471-0.268,0.942-0.43,1.404c-0.437,1.246-1.302,2.052-2.573,2.401
		C164.135,132.775,163.803,132.781,163.48,132.824z"/>
	<path fill="#FFFFFF" d="M130.032,29.803c0.25,0.042,0.636,0.086,1.011,0.175c0.417,0.099,0.83,0.222,1.234,0.364
		c1.366,0.477,2.242,1.424,2.515,2.844c0.399,2.073-0.872,4.003-3.009,4.404c-0.536,0.101-1.099,0.09-1.641-0.077
		c-0.448-0.139-0.907-0.246-1.352-0.394c-1.276-0.424-2.141-1.274-2.48-2.581c-0.587-2.266,0.806-4.222,2.85-4.663
		C129.398,29.823,129.648,29.833,130.032,29.803z"/>
	<path fill="#FFFFFF" d="M138.393,174.913c-0.006,1.096-0.386,2.046-1.224,2.759c-0.526,0.448-1.089,0.871-1.688,1.213
		c-2.292,1.31-4.991-0.091-5.484-2.414c-0.318-1.496,0.125-2.746,1.278-3.729c0.449-0.383,0.942-0.72,1.444-1.032
		c2.225-1.38,5.247-0.119,5.67,2.713C138.414,174.584,138.393,174.75,138.393,174.913z"/>
	<path fill="#FFFFFF" d="M162.901,141.127c-0.027,0.498-0.098,0.979-0.296,1.437c-0.186,0.431-0.35,0.871-0.55,1.295
		c-0.51,1.078-1.338,1.789-2.505,2.068c-2.101,0.503-3.938-0.741-4.477-2.544c-0.241-0.804-0.219-1.614,0.088-2.401
		c0.192-0.494,0.393-0.986,0.623-1.463c0.705-1.469,2.193-2.314,3.805-2.114c1.843,0.228,2.882,1.543,3.17,2.759
		C162.832,140.478,162.855,140.806,162.901,141.127z"/>
	<path fill="#FFFFFF" d="M170.833,73.448c0.051,1.598-1.162,3.202-2.914,3.608c-1.664,0.386-3.819-0.568-4.388-2.619
		c-0.131-0.471-0.258-0.946-0.342-1.427c-0.231-1.322,0.008-2.526,0.994-3.501c2.053-2.031,5.301-1.104,6.156,1.369
		c0.253,0.732,0.426,1.489,0.492,2.265C170.841,73.244,170.833,73.346,170.833,73.448z"/>
	<path fill="#FFFFFF" d="M170.865,114.076c-0.048,0.952-0.183,1.781-0.443,2.575c-0.494,1.507-1.905,2.457-3.499,2.5
		c-1.465,0.04-3.33-0.931-3.725-3.156c-0.063-0.356-0.057-0.738-0.008-1.098c0.076-0.565,0.184-1.129,0.335-1.678
		c0.411-1.496,1.4-2.379,2.909-2.737c1.559-0.37,3.762,0.564,4.311,2.735C170.824,113.531,170.836,113.861,170.865,114.076z"/>
	<path fill="#FFFFFF" d="M143.905,43.278c-0.659,0.038-1.314-0.164-1.925-0.529c-0.369-0.22-0.746-0.426-1.106-0.66
		c-1.173-0.76-1.786-1.852-1.762-3.243c0.038-2.193,1.752-3.469,3.197-3.634c0.756-0.087,1.478-0.017,2.149,0.323
		c0.582,0.295,1.153,0.626,1.686,1.001c1.959,1.378,2.045,4.336,0.24,5.865C145.686,42.993,144.885,43.304,143.905,43.278z"/>
	<path fill="#FFFFFF" d="M152.259,158.587c-1.494,0.049-3.292-1.002-3.674-3.095c-0.157-0.863-0.027-1.714,0.423-2.491
		c0.236-0.407,0.47-0.815,0.719-1.214c0.533-0.852,1.279-1.433,2.262-1.667c2.531-0.603,4.398,1.231,4.618,3.062
		c0.107,0.889-0.031,1.708-0.476,2.478c-0.225,0.39-0.45,0.78-0.69,1.16c-0.537,0.852-1.295,1.411-2.276,1.646
		C152.871,158.537,152.562,158.549,152.259,158.587z"/>
	<path fill="#FFFFFF" d="M130.484,88.34c-1.891,0.086-3.58-1.6-3.577-3.579c0.003-1.936,1.61-3.601,3.58-3.603
		c1.862-0.002,3.621,1.465,3.61,3.638C134.087,86.917,132.289,88.436,130.484,88.34z"/>
</g>
</svg>
