<?xml version="1.0" encoding="utf-8"?>
<!-- Generator: Adobe Illustrator 17.0.0, SVG Export Plug-In . SVG Version: 6.00 Build 0)  -->
<!DOCTYPE svg PUBLIC "-//W3C//DTD SVG 1.1//EN" "http://www.w3.org/Graphics/SVG/1.1/DTD/svg11.dtd">
<svg version="1.1" id="Capa_1" xmlns="http://www.w3.org/2000/svg" xmlns:xlink="http://www.w3.org/1999/xlink" x="0px" y="0px"
	 width="214.527px" height="214.527px" viewBox="0 0 214.527 214.527" enable-background="new 0 0 214.527 214.527"
	 xml:space="preserve">
<g>
	<g>
		<path fill="#FFFFFF" d="M108.962,188.818c-1.046,0-2.091,0-3.137,0c-0.258-0.153-0.548-0.127-0.828-0.135
			c-1.175-0.034-2.344-0.14-3.512-0.272c-1.384-0.157-2.755-0.381-4.12-0.658c-5.012-1.02-9.718-2.841-14.148-5.387
			c-4.351-2.5-8.24-5.6-11.779-9.146c-2.311-2.315-4.439-4.79-6.414-7.397c-3.614-4.77-6.68-9.876-9.341-15.23
			c-4.424-8.902-7.696-18.222-10.079-27.863c-0.678-2.745-1.275-5.507-1.775-8.29c-0.265-1.476-0.482-2.96-0.708-4.443
			c-0.118-0.774-0.219-1.55-0.307-2.328c-0.12-1.059-0.237-2.118-0.326-3.18c-0.076-0.91-0.111-1.824-0.167-2.737
			c-0.009-0.152-0.012-0.31-0.06-0.451c-0.039-0.115-0.141-0.209-0.215-0.312c0-5.576,0-11.153,0-16.729
			c0.137-0.049,0.212-0.151,0.228-0.29c0.022-0.195,0.038-0.39,0.051-0.585c0.089-1.281,0.174-2.562,0.264-3.842
			c0.1-1.411,0.308-2.809,0.518-4.208c0.331-2.196,0.781-4.367,1.337-6.515c1.381-5.338,3.377-10.428,6.142-15.208
			c4.362-7.539,10.229-13.619,17.65-18.189c4.873-3.002,10.111-5.151,15.618-6.67c2.245-0.619,4.517-1.123,6.81-1.528
			c1.263-0.223,2.535-0.394,3.806-0.568c0.862-0.118,1.728-0.205,2.593-0.299c0.692-0.075,1.384-0.157,2.078-0.204
			c1.108-0.075,2.217-0.124,3.326-0.182c0.804-0.042,1.609-0.08,2.413-0.124c0.192-0.01,0.397,0.019,0.554-0.139
			c1.307,0,2.614,0,3.921,0c0.162,0.142,0.362,0.128,0.557,0.138c1.804,0.095,3.608,0.177,5.411,0.29
			c1.194,0.075,2.388,0.161,3.576,0.299c1.468,0.17,2.931,0.387,4.393,0.606c2.906,0.435,5.773,1.06,8.603,1.848
			c4.926,1.371,9.643,3.25,14.084,5.8c5.674,3.259,10.567,7.425,14.608,12.579c3.564,4.546,6.252,9.573,8.202,15.001
			c1.238,3.446,2.165,6.975,2.767,10.588c0.365,2.189,0.709,4.379,0.759,6.604c0.005,0.217,0.011,0.438,0.166,0.617
			c0,7.145,0,14.29,0,21.434c-0.184,0.22-0.172,0.489-0.17,0.747c0.011,1.201-0.156,2.389-0.295,3.576
			c-0.2,1.705-0.475,3.402-0.729,5.101c-0.359,2.41-0.836,4.799-1.358,7.177c-0.942,4.293-2.065,8.54-3.383,12.734
			c-2.38,7.573-5.31,14.921-9.007,21.954c-2.518,4.79-5.366,9.37-8.671,13.66c-3.228,4.192-6.831,8.023-10.957,11.348
			c-4.132,3.331-8.642,6.012-13.609,7.908c-2.855,1.09-5.792,1.876-8.803,2.384c-0.986,0.167-1.979,0.299-2.974,0.398
			c-0.952,0.095-1.911,0.121-2.866,0.191C109.426,188.708,109.195,188.774,108.962,188.818z M164.546,90.139
			c-0.073-2.822,0.135-6.287-0.124-9.746c-0.085-1.128-0.165-2.258-0.304-3.38c-0.184-1.489-0.431-2.969-0.73-4.441
			c-0.825-4.046-2.058-7.959-3.803-11.704c-4.361-9.362-11.214-16.27-20.49-20.787c-3.397-1.654-6.941-2.904-10.601-3.836
			c-2.13-0.542-4.276-1.006-6.452-1.321c-0.968-0.14-1.936-0.29-2.907-0.412c-1.014-0.127-2.031-0.243-3.049-0.333
			c-0.867-0.077-1.737-0.121-2.606-0.163c-1.565-0.074-3.131-0.17-4.697-0.195c-2.46-0.038-4.919,0.031-7.377,0.188
			c-1.521,0.097-3.039,0.204-4.551,0.399c-1.143,0.147-2.291,0.265-3.429,0.445c-2.256,0.358-4.493,0.816-6.703,1.398
			c-4.227,1.112-8.291,2.639-12.136,4.728c-5.154,2.801-9.601,6.454-13.27,11.041c-3.059,3.824-5.399,8.056-7.163,12.616
			c-1.18,3.051-2.074,6.186-2.714,9.393c-0.251,1.258-0.461,2.525-0.642,3.794c-0.144,1.011-0.215,2.033-0.317,3.05
			c-0.159,1.583-0.232,3.169-0.23,4.76c0.003,3.834-0.007,7.667,0.004,11.501c0.005,1.807-0.067,3.615,0.102,5.42
			c0.116,1.235,0.179,2.475,0.313,3.707c0.125,1.145,0.291,2.287,0.476,3.424c0.305,1.867,0.603,3.736,0.971,5.591
			c0.706,3.564,1.572,7.091,2.58,10.582c2.202,7.629,4.994,15.03,8.609,22.108c2.183,4.273,4.643,8.378,7.496,12.242
			c2.713,3.674,5.728,7.072,9.187,10.066c2.945,2.549,6.137,4.728,9.634,6.454c4.869,2.404,10.03,3.7,15.439,3.989
			c2.654,0.142,5.307,0.056,7.949-0.323c2.159-0.31,4.28-0.768,6.359-1.419c4.302-1.348,8.224-3.437,11.849-6.098
			c3.424-2.513,6.453-5.446,9.204-8.675c2.989-3.509,5.587-7.292,7.91-11.267c2.673-4.576,4.956-9.343,6.942-14.254
			c2.131-5.271,3.904-10.661,5.366-16.155c0.772-2.902,1.458-5.824,2.036-8.769c0.343-1.75,0.637-3.509,0.93-5.268
			c0.161-0.965,0.288-1.936,0.402-2.908c0.119-1.015,0.201-2.035,0.303-3.052c0.142-1.409,0.236-2.819,0.234-4.236
			C164.543,95.788,164.546,93.283,164.546,90.139z"/>
		<path fill="#FFFFFF" d="M107.373,145.689c-9.676-0.017-18.363-6.443-21.069-16.026c-0.385-1.363-0.644-2.752-0.718-4.171
			c-0.031-0.587-0.101-1.174-0.09-1.759c0.019-0.988,0.341-1.88,1.012-2.622c0.876-0.968,1.974-1.368,3.274-1.308
			c1.505,0.069,3.025,1.158,3.502,2.786c0.135,0.461,0.197,0.935,0.199,1.417c0.022,5.629,3.718,10.911,9.217,12.87
			c1.194,0.425,2.42,0.683,3.69,0.774c3.323,0.237,6.349-0.601,9.052-2.524c3.086-2.195,4.963-5.191,5.687-8.908
			c0.171-0.879,0.181-1.774,0.231-2.664c0.038-0.665,0.192-1.292,0.552-1.856c0.877-1.372,2.133-1.978,3.759-1.891
			c1.373,0.073,2.915,1.073,3.429,2.706c0.131,0.416,0.21,0.841,0.207,1.283c-0.021,3.361-0.722,6.573-2.228,9.578
			c-2.792,5.57-7.166,9.333-13.093,11.271c-1.451,0.475-2.941,0.784-4.467,0.895C108.805,145.592,108.089,145.639,107.373,145.689z"
			/>
		<path fill="#FFFFFF" d="M131.886,92.642c-4.234,0.043-8.089-3.509-7.975-8.247c0.109-4.557,3.903-7.888,8.12-7.86
			c4.418,0.028,8.136,3.723,8.008,8.3C139.918,89.154,136.299,92.76,131.886,92.642z"/>
		<path fill="#FFFFFF" d="M83.015,92.642c-4.473,0.052-8.04-3.718-8.031-8.066c0.009-4.301,3.554-8.037,8.072-8.042
			c4.1-0.005,8.087,3.242,8.06,8.116C91.089,89.464,87.11,92.748,83.015,92.642z"/>
	</g>
	<g>
		<path fill="#FFFFFF" d="M157.825,87.217c0,2.58,0.017,5.16-0.009,7.74c-0.009,0.894-0.114,1.787-0.199,2.678
			c-0.084,0.891-0.188,1.781-0.301,2.669c-0.132,1.039-0.251,2.082-0.434,3.113c-0.351,1.977-0.72,3.952-1.122,5.92
			c-0.778,3.811-1.776,7.566-2.921,11.282c-1.611,5.227-3.541,10.331-5.896,15.27c-2.274,4.767-4.908,9.32-8.101,13.537
			c-2.478,3.273-5.245,6.271-8.427,8.874c-3.674,3.006-7.725,5.334-12.262,6.783c-1.834,0.586-3.704,1.004-5.61,1.292
			c-2.41,0.363-4.834,0.456-7.258,0.337c-7.079-0.347-13.511-2.605-19.308-6.677c-3.75-2.635-6.978-5.819-9.846-9.38
			c-2.71-3.365-5.032-6.985-7.081-10.785c-3.289-6.1-5.82-12.512-7.843-19.131c-1.194-3.908-2.185-7.868-2.982-11.875
			c-0.383-1.927-0.728-3.862-0.974-5.812c-0.166-1.322-0.352-2.641-0.478-3.967c-0.097-1.021-0.155-2.05-0.158-3.076
			c-0.014-4.701-0.059-9.403,0.018-14.104c0.06-3.656,0.776-7.203,2.277-10.564c1.648-3.691,4.125-6.728,7.293-9.215
			c2.529-1.985,5.323-3.509,8.286-4.735c3.036-1.257,6.177-2.176,9.381-2.886c1.855-0.411,3.725-0.75,5.604-1.025
			c1.188-0.174,2.382-0.303,3.576-0.435c1.172-0.13,2.345-0.253,3.52-0.352c0.892-0.075,1.789-0.106,2.683-0.161
			c1.79-0.11,3.582-0.165,5.374-0.168c2.427-0.004,4.854,0.002,7.281,0.035c1.486,0.02,2.972,0.073,4.456,0.157
			c1.461,0.083,2.919,0.219,4.377,0.343c1.044,0.089,2.09,0.177,3.13,0.305c1.322,0.162,2.642,0.343,3.957,0.552
			c2.113,0.336,4.212,0.751,6.289,1.271c3.378,0.846,6.671,1.932,9.801,3.474c2.304,1.135,4.462,2.496,6.398,4.195
			c3.569,3.131,5.861,7.013,6.867,11.654c0.259,1.197,0.428,2.404,0.546,3.624c0.114,1.179,0.108,2.358,0.118,3.538
			c0.015,1.902,0.004,3.805,0.004,5.707C157.844,87.217,157.834,87.217,157.825,87.217z M64.596,89.268
			c0,1.531,0.004,3.062-0.001,4.592c-0.006,1.947,0.058,3.889,0.317,5.822c0.195,1.45,0.34,2.908,0.588,4.348
			c0.33,1.914,0.706,3.821,1.12,5.719c1.427,6.547,3.423,12.917,6.035,19.091c1.835,4.337,3.977,8.513,6.57,12.451
			c2.16,3.281,4.605,6.327,7.481,9.015c2.102,1.965,4.391,3.676,6.926,5.046c2.95,1.596,6.08,2.635,9.409,3.1
			c1.412,0.197,2.828,0.292,4.246,0.29c1.353-0.002,2.704-0.092,4.049-0.293c1.801-0.269,3.556-0.693,5.267-1.31
			c3.521-1.268,6.632-3.225,9.456-5.658c2.732-2.354,5.083-5.053,7.186-7.973c3.067-4.259,5.531-8.856,7.638-13.651
			c2.379-5.412,4.248-10.999,5.748-16.713c0.749-2.853,1.39-5.729,1.927-8.629c0.25-1.352,0.477-2.71,0.666-4.072
			c0.18-1.297,0.322-2.601,0.435-3.906c0.1-1.153,0.185-2.311,0.193-3.467c0.024-3.608,0.014-7.217,0.006-10.825
			c-0.002-0.961-0.049-1.922-0.07-2.884c-0.024-1.075-0.187-2.131-0.408-3.18c-0.488-2.312-1.469-4.382-3.044-6.158
			c-0.67-0.755-1.416-1.428-2.218-2.039c-1.858-1.416-3.918-2.465-6.08-3.323c-4.045-1.604-8.265-2.514-12.552-3.154
			c-0.799-0.119-1.601-0.22-2.403-0.315c-1.019-0.12-2.039-0.237-3.061-0.334c-0.761-0.072-1.525-0.11-2.288-0.162
			c-1.046-0.072-2.092-0.171-3.139-0.211c-1.791-0.07-3.583-0.117-5.376-0.149c-2.974-0.054-5.947,0.021-8.918,0.145
			c-0.109,0.005-0.218,0.01-0.327,0.019c-1.438,0.112-2.876,0.209-4.312,0.341c-1.37,0.126-2.741,0.256-4.103,0.441
			c-1.947,0.264-3.885,0.593-5.805,1.017c-2.563,0.566-5.085,1.271-7.529,2.235c-2.265,0.894-4.43,1.977-6.408,3.41
			c-1.661,1.203-3.113,2.612-4.269,4.314c-1.847,2.72-2.648,5.778-2.866,9.01c-0.083,1.242-0.071,2.491-0.082,3.737
			C64.586,86.425,64.596,87.846,64.596,89.268z"/>
	</g>
</g>
</svg>
