<?xml version="1.0" encoding="utf-8"?>
<!-- Generator: Adobe Illustrator 17.0.0, SVG Export Plug-In . SVG Version: 6.00 Build 0)  -->
<!DOCTYPE svg PUBLIC "-//W3C//DTD SVG 1.1//EN" "http://www.w3.org/Graphics/SVG/1.1/DTD/svg11.dtd">
<svg version="1.1" id="Capa_1" xmlns="http://www.w3.org/2000/svg" xmlns:xlink="http://www.w3.org/1999/xlink" x="0px" y="0px"
	 width="214.527px" height="214.527px" viewBox="0 0 214.527 214.527" enable-background="new 0 0 214.527 214.527"
	 xml:space="preserve">
<g>
	<path fill="#FFFFFF" d="M108.957,188.567c-1.042,0-2.085,0-3.127,0c-0.257-0.153-0.547-0.127-0.825-0.135
		c-1.172-0.034-2.337-0.139-3.502-0.272c-1.38-0.157-2.747-0.38-4.107-0.656c-4.997-1.016-9.688-2.832-14.105-5.37
		c-4.338-2.493-8.215-5.583-11.743-9.118c-2.304-2.308-4.425-4.776-6.394-7.375c-3.603-4.755-6.66-9.846-9.312-15.183
		c-4.411-8.874-7.673-18.166-10.048-27.777c-0.676-2.736-1.271-5.49-1.77-8.264c-0.264-1.471-0.481-2.951-0.706-4.429
		c-0.118-0.771-0.218-1.545-0.306-2.321c-0.12-1.055-0.236-2.112-0.325-3.17c-0.076-0.908-0.11-1.819-0.166-2.728
		c-0.009-0.151-0.012-0.309-0.06-0.45c-0.039-0.115-0.141-0.208-0.215-0.311c0-5.559,0-11.118,0-16.678
		c0.137-0.049,0.211-0.15,0.228-0.289c0.022-0.194,0.038-0.389,0.051-0.584c0.088-1.277,0.173-2.554,0.264-3.83
		c0.1-1.407,0.307-2.801,0.517-4.195c0.33-2.189,0.779-4.353,1.333-6.495c1.377-5.321,3.366-10.396,6.123-15.161
		C55.109,46.26,60.959,40.2,68.356,35.644c4.858-2.992,10.08-5.135,15.57-6.65c2.238-0.617,4.503-1.119,6.789-1.523
		c1.259-0.223,2.528-0.392,3.794-0.566c0.859-0.118,1.722-0.205,2.585-0.298c0.69-0.075,1.38-0.157,2.072-0.204
		c1.104-0.075,2.21-0.124,3.315-0.182c0.802-0.042,1.604-0.08,2.406-0.123c0.192-0.01,0.396,0.018,0.552-0.139
		c1.303,0,2.606,0,3.909,0c0.161,0.142,0.361,0.127,0.555,0.138c1.798,0.095,3.597,0.177,5.394,0.289
		c1.19,0.074,2.381,0.16,3.565,0.298c1.464,0.17,2.922,0.386,4.38,0.604c2.897,0.434,5.755,1.057,8.577,1.842
		c4.911,1.366,9.614,3.24,14.04,5.783c5.656,3.249,10.534,7.402,14.563,12.54c3.553,4.532,6.233,9.544,8.177,14.955
		c1.234,3.436,2.158,6.954,2.759,10.556c0.364,2.182,0.707,4.366,0.757,6.584c0.005,0.216,0.011,0.437,0.166,0.615
		c0,7.123,0,14.246,0,21.368c-0.184,0.219-0.172,0.488-0.169,0.745c0.011,1.197-0.156,2.382-0.294,3.565
		c-0.199,1.7-0.474,3.392-0.726,5.085c-0.358,2.402-0.833,4.784-1.354,7.155c-0.939,4.28-2.059,8.513-3.373,12.694
		c-2.372,7.55-5.293,14.875-8.979,21.886c-2.51,4.775-5.35,9.341-8.644,13.618c-3.219,4.179-6.81,7.998-10.923,11.313
		c-4.12,3.321-8.616,5.993-13.567,7.883c-2.846,1.086-5.774,1.87-8.776,2.377c-0.983,0.166-1.973,0.298-2.965,0.397
		c-0.949,0.095-1.905,0.121-2.857,0.19C109.419,188.457,109.189,188.524,108.957,188.567z M164.37,90.871
		c0-1.694,0.008-3.388-0.002-5.081c-0.01-1.693,0.019-3.384-0.099-5.078c-0.106-1.516-0.244-3.027-0.448-4.531
		c-0.244-1.805-0.588-3.594-1.014-5.367c-1.019-4.238-2.492-8.306-4.555-12.153c-4.37-8.15-10.765-14.192-19.041-18.269
		c-3.477-1.713-7.11-3-10.867-3.948c-2.083-0.526-4.18-0.977-6.305-1.291c-0.987-0.146-1.973-0.297-2.962-0.421
		c-1.011-0.127-2.025-0.239-3.04-0.329c-0.864-0.076-1.733-0.097-2.598-0.167c-1.776-0.145-3.556-0.165-5.335-0.189
		c-1.171-0.015-2.343,0.049-3.515,0.06c-2.172,0.021-4.335,0.175-6.496,0.392c-1.381,0.138-2.757,0.311-4.13,0.513
		c-2.083,0.305-4.146,0.707-6.19,1.209c-4.272,1.048-8.391,2.515-12.3,4.547c-7.306,3.798-13.116,9.194-17.373,16.249
		c-1.982,3.284-3.53,6.765-4.726,10.408c-0.942,2.871-1.645,5.798-2.142,8.775c-0.261,1.561-0.459,3.131-0.579,4.712
		c-0.116,1.515-0.227,3.029-0.226,4.55c0.003,2.866-0.015,5.733,0.005,8.599c0.021,2.908-0.106,5.819,0.109,8.725
		c0.056,0.757,0.088,1.517,0.173,2.271c0.138,1.228,0.313,2.452,0.465,3.678c0.242,1.959,0.594,3.901,0.972,5.837
		c0.644,3.299,1.413,6.57,2.311,9.81c1.903,6.87,4.289,13.564,7.306,20.028c2.17,4.65,4.645,9.129,7.541,13.369
		c2.579,3.776,5.456,7.303,8.761,10.472c2.39,2.291,4.962,4.349,7.766,6.113c3.534,2.223,7.308,3.897,11.358,4.927
		c1.83,0.466,3.681,0.828,5.566,0.991c0.951,0.082,1.901,0.206,2.853,0.227c1.67,0.038,3.34,0.053,5.011-0.087
		c1.711-0.143,3.407-0.367,5.085-0.718c4.134-0.866,8.013-2.394,11.653-4.535c4.017-2.363,7.559-5.313,10.757-8.689
		c3.403-3.593,6.329-7.549,8.926-11.754c3.237-5.24,5.918-10.757,8.214-16.466c2.115-5.259,3.866-10.639,5.312-16.118
		c0.764-2.894,1.449-5.807,1.994-8.751c0.296-1.599,0.586-3.199,0.853-4.802c0.167-1.005,0.301-2.016,0.421-3.028
		c0.12-1.012,0.204-2.028,0.303-3.043c0.131-1.34,0.233-2.68,0.231-4.028C164.367,95.952,164.37,93.412,164.37,90.871z"/>
	<path fill="#FFFFFF" d="M129.265,139.84c-0.035,0.282-0.058,0.74-0.154,1.181c-0.371,1.709-1.934,2.91-3.51,2.997
		c-1.948,0.108-3.579-0.974-4.128-2.793c-0.056-0.185-0.094-0.379-0.112-0.572c-0.042-0.432-0.08-0.865-0.097-1.298
		c-0.222-5.736-4.288-11.111-10.311-12.711c-1.697-0.451-3.427-0.592-5.162-0.367c-4.088,0.53-7.357,2.48-9.759,5.836
		c-1.297,1.813-2.083,3.838-2.389,6.053c-0.081,0.584-0.082,1.167-0.124,1.751c-0.031,0.43-0.068,0.869-0.181,1.283
		c-0.43,1.579-1.923,2.781-3.65,2.832c-2.096,0.062-3.52-1.343-3.947-2.792c-0.187-0.634-0.224-1.282-0.174-1.934
		c0.098-1.276,0.209-2.548,0.483-3.804c0.886-4.068,2.765-7.606,5.655-10.597c3.12-3.229,6.9-5.284,11.288-6.215
		c1.834-0.389,3.697-0.535,5.566-0.419c5.09,0.315,9.584,2.123,13.393,5.531c3.52,3.149,5.778,7.053,6.793,11.672
		C129.05,136.856,129.17,138.257,129.265,139.84z"/>
	<path fill="#FFFFFF" d="M83.294,75.089c4.356-0.074,8.065,3.584,8.039,8.079c-0.023,3.906-3.026,7.958-8.02,7.98
		c-4.961,0.022-8.085-4.017-8.071-8.059C75.256,78.632,78.949,75.007,83.294,75.089z"/>
	<path fill="#FFFFFF" d="M132.074,75.089c4.451-0.068,8.025,3.699,8.03,8.02c0.005,3.876-3.014,8.063-8.09,8.04
		c-4.579-0.021-7.988-3.598-7.993-8.003C124.016,78.123,128.149,74.98,132.074,75.089z"/>
</g>
</svg>
