<?xml version="1.0" encoding="utf-8"?>
<!-- Generator: Adobe Illustrator 17.0.0, SVG Export Plug-In . SVG Version: 6.00 Build 0)  -->
<!DOCTYPE svg PUBLIC "-//W3C//DTD SVG 1.1//EN" "http://www.w3.org/Graphics/SVG/1.1/DTD/svg11.dtd">
<svg version="1.1" id="Capa_1" xmlns="http://www.w3.org/2000/svg" xmlns:xlink="http://www.w3.org/1999/xlink" x="0px" y="0px"
	 width="214.527px" height="214.527px" viewBox="0 0 214.527 214.527" enable-background="new 0 0 214.527 214.527"
	 xml:space="preserve">
<g>
	<path fill="#FFFFFF" d="M32.084,124.332c0-0.174,0-0.347,0-0.521c0.087-0.09,0.2-0.167,0.254-0.274
		c0.056-0.112,0.045-0.255,0.079-0.38c0.448-1.635,1.482-2.668,3.152-3.018c0.335-0.07,0.69-0.067,1.036-0.067
		c5.059-0.004,10.118-0.003,15.177-0.003c0.955,0,1.911-0.004,2.866,0.001c0.536,0.003,0.757-0.044,0.557-0.663
		c-0.02-0.061-0.019-0.129-0.033-0.192c-0.687-3.135-1.268-6.289-1.712-9.469c-0.24-1.719-0.444-3.441-0.591-5.169
		c-0.12-1.405-0.189-2.814-0.186-4.227c0.009-5.102,0.01-10.205,0-15.307c-0.004-1.978,0.12-3.949,0.319-5.913
		c0.148-1.465,0.381-2.923,0.605-4.38c0.432-2.812,1.09-5.574,1.911-8.297c0.282-0.934,0.603-1.856,0.9-2.785
		c0.064-0.198,0.198-0.393,0.07-0.641c-0.278-0.124-0.586-0.078-0.885-0.078c-6.232-0.002-12.463-0.002-18.695-0.002
		c-0.261,0-0.522,0.009-0.782-0.004c-1.658-0.083-2.809-0.913-3.487-2.409c-0.124-0.273-0.188-0.576-0.256-0.87
		c-0.046-0.201-0.117-0.371-0.3-0.478c0-0.13,0-0.261,0-0.391c0.251-0.124,0.261-0.368,0.32-0.602
		c0.415-1.642,1.435-2.696,3.097-3.072c0.396-0.089,0.819-0.074,1.23-0.074c7.425-0.004,14.85-0.003,22.275-0.003
		c0.195,0,0.392-0.015,0.586,0.003c0.438,0.041,0.756-0.094,0.933-0.526c0.09-0.219,0.231-0.417,0.35-0.624
		c4.018-6.989,9.35-12.754,16.063-17.228c4.638-3.091,9.657-5.375,14.972-7.027c2.84-0.883,5.724-1.58,8.652-2.102
		c2.157-0.385,4.32-0.713,6.503-0.91c0.54-0.049,1.079-0.11,1.619-0.154c0.951-0.076,1.902-0.155,2.855-0.21
		c1.17-0.068,2.341-0.11,3.512-0.167c0.191-0.009,0.396,0.019,0.552-0.139c1.303,0,2.606,0,3.909,0
		c0.163,0.136,0.362,0.129,0.557,0.137c1.301,0.056,2.602,0.113,3.903,0.169c0.152,0.007,0.304,0.005,0.456,0.018
		c1.318,0.115,2.637,0.22,3.953,0.354c1.251,0.128,2.503,0.258,3.747,0.438c1.845,0.268,3.68,0.596,5.505,0.984
		c4.834,1.03,9.518,2.511,14.01,4.582c5.268,2.429,10.046,5.588,14.244,9.603c4.719,4.513,8.366,9.783,11.082,15.71
		c1.842,4.02,3.18,8.207,4.105,12.526c0.345,1.611,0.636,3.234,0.832,4.872c0.113,0.947,0.245,1.893,0.344,2.842
		c0.069,0.669,0.127,1.341,0.137,2.013c0.031,2.106,0.042,4.212,0.051,6.318c0.008,1.911,0.007,3.822,0,5.733
		c-0.011,3.04-0.029,6.08-0.045,9.119c-0.001,0.174,0.004,0.348-0.014,0.521c-0.155,1.532-0.291,3.066-0.479,4.594
		c-0.204,1.656-0.426,3.312-0.699,4.958c-0.471,2.845-1.04,5.673-1.698,8.481c-1.113,4.753-2.439,9.448-4.009,14.072
		c-2.448,7.207-5.41,14.188-9.11,20.847c-2.387,4.296-5.057,8.407-8.111,12.262c-3.112,3.929-6.565,7.523-10.488,10.653
		c-3.755,2.996-7.828,5.458-12.278,7.284c-3.163,1.298-6.433,2.223-9.802,2.793c-0.983,0.166-1.973,0.302-2.965,0.403
		c-0.949,0.096-1.905,0.127-2.857,0.188c-0.258,0.017-0.524-0.01-0.761,0.132c-1.042,0-2.085,0-3.127,0
		c-0.257-0.153-0.547-0.127-0.826-0.136c-1.172-0.035-2.337-0.142-3.503-0.272c-1.684-0.187-3.35-0.471-4.999-0.846
		c-5.472-1.242-10.554-3.416-15.274-6.445c-4.434-2.845-8.346-6.297-11.881-10.19c-3.265-3.596-6.123-7.496-8.691-11.614
		c-2.773-4.447-5.163-9.094-7.27-13.89c-0.096-0.218-0.192-0.437-0.293-0.653c-0.08-0.172-0.219-0.266-0.411-0.271
		c-0.239-0.006-0.478-0.011-0.716-0.011c-8.404-0.001-16.807,0-25.211,0c-0.239,0-0.478,0.002-0.717-0.001
		c-1.695-0.024-3.148-1.093-3.677-2.708c-0.067-0.205-0.109-0.419-0.153-0.631c-0.037-0.181-0.12-0.323-0.288-0.41
		c0-0.13,0-0.261,0-0.391c0.167-0.086,0.25-0.229,0.287-0.41c0.044-0.212,0.086-0.425,0.154-0.63
		c0.522-1.594,1.932-2.652,3.607-2.711c0.325-0.011,0.651-0.011,0.976-0.011c7.269-0.001,14.539,0,21.808-0.001
		c0.239,0,0.478,0.002,0.715-0.017c0.098-0.008,0.193-0.066,0.302-0.106c0.002-0.299-0.112-0.534-0.19-0.777
		c-0.69-2.146-1.383-4.29-2.066-6.438c-0.335-1.054-0.122-1.015-1.36-1.015c-6.467-0.001-12.933,0-19.4-0.001
		c-0.282,0-0.564-0.003-0.846-0.007c-1.554-0.019-3.084-1.149-3.563-2.764c-0.061-0.207-0.099-0.422-0.155-0.631
		C32.317,124.445,32.231,124.352,32.084,124.332z M69.766,54.949c0.356,0.145,0.685,0.092,1.005,0.092
		c15.265,0.003,30.53,0.002,45.795,0.003c0.326,0,0.651,0.003,0.977,0.005c0.785,0.005,1.499,0.247,2.13,0.701
		c1.274,0.919,1.793,2.179,1.652,3.735c-0.173,1.921-1.91,3.429-3.642,3.455c-0.304,0.005-0.608,0.007-0.912,0.007
		c-16.785,0-33.57,0-50.355,0c-0.239,0-0.478,0.008-0.717,0.002c-0.321-0.008-0.529,0.123-0.645,0.433
		c-0.197,0.528-0.421,1.046-0.623,1.573c-1.53,3.985-2.555,8.103-3.183,12.32c-0.195,1.308-0.344,2.622-0.438,3.943
		c-0.104,1.473-0.206,2.944-0.206,4.421c-0.001,4.408,0.006,8.816-0.003,13.224c-0.004,2.173,0.093,4.339,0.351,6.496
		c0.182,1.528,0.342,3.06,0.572,4.582c0.422,2.787,0.961,5.554,1.58,8.305c0.11,0.486,0.222,0.972,0.348,1.455
		c0.076,0.293,0.153,0.347,0.458,0.362c0.26,0.013,0.521,0.007,0.782,0.007c17.328,0,34.656,0,51.984,0
		c0.282,0,0.565,0.006,0.847,0.001c0.397-0.007,0.775,0.083,1.148,0.203c1.437,0.461,2.879,1.956,2.663,4.221
		c-0.184,1.923-1.897,3.41-3.565,3.468c-0.347,0.012-0.695,0.017-1.042,0.017c-16.568,0.001-33.136,0.001-49.704,0.001
		c-0.282,0-0.565-0.002-0.846,0.017c-0.12,0.008-0.237,0.069-0.331,0.098c-0.098,0.297,0.038,0.515,0.107,0.735
		c0.72,2.298,1.495,4.577,2.337,6.834c0.038,0.102,0.081,0.201,0.118,0.304c0.082,0.23,0.242,0.353,0.488,0.357
		c0.26,0.004,0.521,0.009,0.782,0.009c15.634,0,31.268,0,46.903,0.001c0.391,0,0.782,0.003,1.172,0.02
		c0.193,0.008,0.388,0.041,0.577,0.083c1.601,0.35,3.106,1.873,3.027,4.025c-0.067,1.827-1.392,3.268-2.916,3.66
		c-0.452,0.116-0.902,0.114-1.357,0.114c-14.657,0.001-29.314,0.001-43.971,0.002c-0.261,0-0.521-0.003-0.781,0.011
		c-0.098,0.005-0.193,0.057-0.28,0.085c-0.056,0.301,0.103,0.498,0.202,0.707c1.448,3.064,3.037,6.051,4.797,8.947
		c2.52,4.149,5.351,8.068,8.642,11.645c2.863,3.113,6.009,5.899,9.548,8.229c3.339,2.198,6.905,3.912,10.743,5.043
		c1.937,0.571,3.905,0.994,5.91,1.258c1.249,0.164,2.5,0.31,3.757,0.343c1.713,0.045,3.427,0.069,5.141-0.085
		c1.362-0.122,2.715-0.286,4.062-0.524c3.746-0.662,7.3-1.887,10.68-3.624c4.504-2.316,8.443-5.389,11.988-8.984
		c2.537-2.573,4.812-5.364,6.897-8.312c2.966-4.193,5.5-8.639,7.733-13.259c2.97-6.148,5.372-12.513,7.328-19.052
		c1.206-4.033,2.236-8.11,3.072-12.234c0.387-1.912,0.71-3.837,1.038-5.761c0.167-0.983,0.295-1.973,0.414-2.963
		c0.119-0.99,0.205-1.984,0.306-2.977c0.131-1.296,0.233-2.594,0.233-3.897c0.001-4.343,0.01-8.686,0.002-13.028
		c-0.003-1.823,0.059-3.648-0.124-5.467c-0.113-1.122-0.169-2.251-0.31-3.369c-0.214-1.699-0.503-3.388-0.871-5.062
		c-0.915-4.171-2.264-8.191-4.17-12.017c-3.467-6.96-8.423-12.598-14.96-16.83c-3.685-2.385-7.647-4.181-11.815-5.536
		c-3.161-1.028-6.392-1.775-9.668-2.324c-1.09-0.183-2.189-0.317-3.286-0.454c-1.033-0.129-2.067-0.25-3.104-0.343
		c-0.864-0.078-1.732-0.12-2.598-0.162c-1.517-0.074-3.034-0.153-4.553-0.197c-2.15-0.061-4.297,0.058-6.446,0.108
		c-0.108,0.003-0.217,0.009-0.325,0.018c-1.362,0.111-2.726,0.199-4.085,0.342c-1.531,0.16-3.062,0.333-4.582,0.566
		c-2.251,0.345-4.478,0.813-6.682,1.392c-4.044,1.063-7.941,2.508-11.639,4.467c-4.77,2.526-8.966,5.781-12.518,9.855
		c-0.986,1.13-1.909,2.309-2.772,3.535C69.916,54.5,69.758,54.66,69.766,54.949z"/>
	<path fill="#FFFFFF" d="M93.188,75.089c4.357-0.08,8.035,3.547,8.054,7.997c0.017,4.003-3.075,8.08-8.068,8.062
		c-5.025-0.019-8.041-4.116-8.022-8.042C85.175,78.486,88.984,75.008,93.188,75.089z"/>
	<path fill="#FFFFFF" d="M142.012,75.09c4.321-0.063,8.004,3.575,8,8.048c-0.003,3.969-3.115,8.021-8.051,8.012
		c-4.657-0.009-8.076-3.659-8.029-8.096C133.985,78.049,138.119,74.968,142.012,75.09z"/>
</g>
</svg>
