<?xml version="1.0" encoding="utf-8"?>
<!-- Generator: Adobe Illustrator 17.0.0, SVG Export Plug-In . SVG Version: 6.00 Build 0)  -->
<!DOCTYPE svg PUBLIC "-//W3C//DTD SVG 1.1//EN" "http://www.w3.org/Graphics/SVG/1.1/DTD/svg11.dtd">
<svg version="1.1" id="Capa_1" xmlns="http://www.w3.org/2000/svg" xmlns:xlink="http://www.w3.org/1999/xlink" x="0px" y="0px"
	 width="214.527px" height="214.527px" viewBox="0 0 214.527 214.527" enable-background="new 0 0 214.527 214.527"
	 xml:space="preserve">
<g>
	<path fill="#FFFFFF" d="M98.311,25.708c1.263,0,2.527,0,3.79,0c0.184,0.153,0.408,0.128,0.624,0.139
		c1.739,0.092,3.477,0.187,5.216,0.276c1.413,0.073,2.818,0.226,4.224,0.382c1.557,0.172,3.104,0.399,4.65,0.653
		c2.664,0.438,5.296,1.015,7.895,1.74c5.011,1.398,9.804,3.323,14.307,5.943c5.754,3.348,10.686,7.632,14.731,12.927
		c3.52,4.608,6.154,9.688,8.048,15.159c1.277,3.688,2.186,7.465,2.767,11.325c0.269,1.787,0.459,3.581,0.598,5.38
		c0.097,1.258,0.126,2.522,0.144,3.784c0.023,1.611,0.003,3.223,0.009,4.834c0.001,0.232-0.063,0.484,0.139,0.696
		c0.072,0.017,0.155,0.04,0.24,0.055c0.641,0.115,1.293,0.19,1.923,0.348c1.756,0.441,3.323,1.279,4.766,2.359
		c1.724,1.29,3.176,2.847,4.417,4.599c2.351,3.32,4.005,6.973,5.111,10.877c0.338,1.192,0.63,2.398,0.665,3.648
		c0.005,0.176,0.033,0.348,0.167,0.481c0,1.002,0,2.004,0,3.006c-0.139,0.13-0.154,0.303-0.173,0.478
		c-0.038,0.345-0.06,0.695-0.132,1.033c-0.761,3.537-2.652,6.185-6.006,7.723c-5.578,2.558-11.14,5.152-16.718,7.712
		c-0.464,0.213-0.704,0.507-0.844,0.98c-0.266,0.896-0.577,1.779-0.883,2.662c-2.253,6.51-4.934,12.834-8.207,18.901
		c-2.58,4.782-5.494,9.345-8.877,13.602c-3.101,3.901-6.539,7.469-10.44,10.58c-3.68,2.935-7.666,5.361-12.014,7.179
		c-3.265,1.365-6.646,2.334-10.134,2.923c-1.007,0.17-2.022,0.305-3.039,0.407c-0.952,0.096-1.911,0.122-2.866,0.191
		c-0.235,0.017-0.466,0.083-0.698,0.126c-1.046,0-2.091,0-3.137,0c-0.237-0.142-0.504-0.126-0.763-0.133
		c-1.197-0.036-2.387-0.141-3.577-0.276c-1.687-0.191-3.359-0.473-5.012-0.848c-5.661-1.286-10.9-3.565-15.751-6.746
		c-2.554-1.675-4.944-3.56-7.199-5.619c-0.536-0.49-0.483-0.485-1.129-0.186c-2.429,1.122-4.858,2.245-7.287,3.368
		c-1.521,0.703-3.035,1.418-4.563,2.105c-1.947,0.875-3.973,1.06-6.06,0.631c-2.026-0.417-3.805-1.341-5.406-2.629
		c-1.556-1.252-2.857-2.738-3.994-4.373c-1.422-2.045-2.576-4.237-3.551-6.525c-1.192-2.8-2.028-5.691-2.215-8.746
		c-0.008-0.13-0.018-0.267-0.067-0.383c-0.037-0.088-0.139-0.149-0.213-0.222c0-0.349,0-0.697,0-1.046
		c0.073-0.074,0.186-0.136,0.211-0.224c0.052-0.186,0.069-0.385,0.083-0.579c0.084-1.222,0.304-2.419,0.703-3.575
		c0.999-2.895,2.778-5.077,5.66-6.309c2.02-0.864,3.997-1.83,5.991-2.754c0.213-0.099,0.418-0.216,0.605-0.314
		c0.056-0.283-0.059-0.474-0.139-0.673c-0.308-0.767-0.625-1.531-0.925-2.302c-2.347-6.029-4.271-12.189-5.779-18.481
		c-0.563-2.348-1.073-4.707-1.512-7.08c-0.289-1.561-0.53-3.13-0.778-4.698c-0.112-0.709-0.203-1.421-0.281-2.134
		c-0.115-1.038-0.219-2.077-0.311-3.117c-0.084-0.953-0.171-1.908-0.208-2.864c-0.041-1.088-0.035-2.177-0.036-3.266
		c-0.003-4.007-0.005-8.014,0-12.022c0.002-1.763,0.002-3.525,0.125-5.288c0.107-1.542,0.246-3.08,0.45-4.61
		c0.253-1.896,0.588-3.78,0.998-5.651c1.198-5.47,3.031-10.71,5.635-15.673c2.641-5.036,5.98-9.55,10.087-13.489
		c4.431-4.249,9.492-7.556,15.084-10.062c3.624-1.624,7.377-2.867,11.234-3.802c2.242-0.543,4.501-0.996,6.785-1.319
		c1.033-0.146,2.067-0.29,3.104-0.411c1.102-0.129,2.205-0.251,3.31-0.337c1.085-0.085,2.173-0.122,3.26-0.179
		c0.848-0.044,1.696-0.087,2.543-0.129C97.903,25.837,98.125,25.855,98.311,25.708z M52.524,139.985
		c0.297-0.13,0.576-0.248,0.85-0.374c7.191-3.324,14.382-6.648,21.572-9.973c7.329-3.389,14.657-6.778,21.986-10.167
		c6.045-2.795,12.089-5.59,18.134-8.385c5.511-2.548,11.023-5.097,16.535-7.645c6.084-2.813,12.169-5.626,18.253-8.44
		c2.272-1.05,4.544-2.1,6.814-3.154c0.213-0.099,0.453-0.165,0.636-0.441c0-0.181,0-0.418,0-0.656c0-1.677,0.009-3.354-0.002-5.031
		c-0.013-1.872,0.033-3.743-0.116-5.615c-0.114-1.432-0.257-2.861-0.455-4.282c-0.216-1.551-0.514-3.088-0.864-4.616
		c-0.982-4.284-2.432-8.397-4.473-12.295c-3.467-6.623-8.312-11.997-14.597-16.059c-3.697-2.389-7.67-4.195-11.853-5.546
		c-3.297-1.065-6.66-1.859-10.085-2.379c-0.967-0.147-1.936-0.286-2.907-0.407c-1.036-0.129-2.073-0.25-3.113-0.343
		c-0.867-0.078-1.737-0.121-2.606-0.163c-1.522-0.074-3.044-0.153-4.566-0.196c-2.156-0.061-4.31,0.058-6.465,0.109
		c-0.109,0.003-0.218,0.01-0.326,0.019c-1.366,0.112-2.735,0.2-4.098,0.343c-1.535,0.161-3.07,0.337-4.596,0.57
		c-2.085,0.318-4.151,0.745-6.197,1.266c-4.298,1.095-8.435,2.611-12.351,4.708c-5.631,3.015-10.417,7.025-14.274,12.128
		c-2.804,3.709-4.963,7.769-6.599,12.116c-1.106,2.939-1.95,5.952-2.561,9.029c-0.262,1.322-0.476,2.655-0.662,3.989
		c-0.144,1.033-0.227,2.076-0.305,3.117c-0.087,1.172-0.181,2.345-0.196,3.519c-0.034,2.526-0.038,5.053-0.022,7.579
		c0.021,3.309-0.105,6.621,0.1,9.928c0.079,1.281,0.168,2.563,0.312,3.838c0.161,1.425,0.391,2.843,0.59,4.264
		c0.287,2.047,0.689,4.073,1.112,6.095c0.779,3.727,1.728,7.412,2.824,11.059c1.191,3.961,2.559,7.86,4.116,11.692
		C52.173,139.442,52.235,139.728,52.524,139.985z M174.79,112.765c-0.033-0.812-0.132-1.654-0.323-2.483
		c-0.716-3.108-1.986-5.981-3.696-8.664c-0.634-0.995-1.371-1.911-2.227-2.726c-0.731-0.695-1.53-1.293-2.471-1.68
		c-0.713-0.293-1.424-0.41-2.119,0.052c-4.425,2.047-8.85,4.094-13.276,6.14c-8.516,3.936-17.033,7.87-25.548,11.807
		c-12.467,5.764-24.932,11.531-37.399,17.296c-6.776,3.134-13.553,6.267-20.33,9.4c-7.35,3.398-14.7,6.796-22.049,10.194
		c-1.264,0.585-2.521,1.187-3.795,1.75c-0.494,0.218-0.819,0.562-1.03,1.035c-0.106,0.238-0.204,0.483-0.271,0.734
		c-0.164,0.611-0.261,1.233-0.273,1.868c-0.023,1.207,0.162,2.388,0.464,3.549c0.801,3.087,2.165,5.919,3.953,8.551
		c0.527,0.776,1.127,1.495,1.808,2.144c0.507,0.483,1.055,0.911,1.677,1.236c0.84,0.439,1.66,0.492,2.558,0.072
		c6.451-3.008,12.914-5.989,19.374-8.977c10.016-4.633,20.033-9.265,30.05-13.896c7.863-3.635,15.728-7.268,23.592-10.904
		c8.97-4.148,17.938-8.298,26.907-12.447c7.547-3.491,15.091-6.988,22.646-10.46c0.828-0.38,1.312-0.965,1.543-1.812
		C174.711,113.974,174.773,113.392,174.79,112.765z M148.811,136.425c-0.242-0.018-0.408,0.087-0.582,0.167
		c-0.731,0.337-1.462,0.674-2.193,1.012c-6.124,2.83-12.248,5.66-18.371,8.492c-8.493,3.928-16.986,7.857-25.48,11.784
		c-8.276,3.827-16.553,7.652-24.83,11.478c-1.007,0.466-2.016,0.93-3.019,1.405c-0.168,0.079-0.388,0.111-0.457,0.374
		c0.073,0.08,0.149,0.185,0.245,0.267c0.215,0.184,0.438,0.358,0.662,0.532c3.672,2.854,7.665,5.127,12.069,6.653
		c2.183,0.756,4.416,1.309,6.7,1.669c1.615,0.254,3.236,0.438,4.867,0.485c2.133,0.06,4.264,0.037,6.39-0.225
		c1.47-0.181,2.929-0.407,4.371-0.735c4.089-0.93,7.91-2.519,11.495-4.686c3.695-2.234,6.98-4.975,9.971-8.078
		c2.864-2.973,5.397-6.211,7.686-9.641c2.457-3.682,4.609-7.537,6.537-11.52c1.366-2.822,2.61-5.697,3.75-8.617
		C148.714,137.001,148.86,136.771,148.811,136.425z"/>
	<path fill="#FFFFFF" d="M75.926,92.587c-4.386,0.039-8.046-3.619-8.039-8.07c0.006-4.297,3.49-8.085,8.13-8.053
		c4.484,0.031,8.032,3.686,8.005,8.112C83.994,89.152,80.218,92.661,75.926,92.587z"/>
	<path fill="#FFFFFF" d="M132.928,84.525c0.083,4.337-3.551,8.054-8.029,8.076c-3.965,0.019-8.09-3.083-8.084-8.098
		c0.006-4.693,3.8-8.051,8.074-8.039C129.512,76.476,133.004,80.282,132.928,84.525z"/>
</g>
</svg>
