<?xml version="1.0" encoding="utf-8"?>
<!-- Generator: Adobe Illustrator 17.0.0, SVG Export Plug-In . SVG Version: 6.00 Build 0)  -->
<!DOCTYPE svg PUBLIC "-//W3C//DTD SVG 1.1//EN" "http://www.w3.org/Graphics/SVG/1.1/DTD/svg11.dtd">
<svg version="1.1" id="Capa_1" xmlns="http://www.w3.org/2000/svg" xmlns:xlink="http://www.w3.org/1999/xlink" x="0px" y="0px"
	 width="214.527px" height="214.527px" viewBox="0 0 214.527 214.527" enable-background="new 0 0 214.527 214.527"
	 xml:space="preserve">
<g>
	<path fill="#FFFFFF" d="M108.962,188.818c-1.046,0-2.091,0-3.137,0c-0.258-0.153-0.548-0.127-0.828-0.135
		c-1.175-0.034-2.344-0.14-3.512-0.272c-1.384-0.157-2.755-0.381-4.12-0.658c-5.012-1.02-9.718-2.841-14.148-5.387
		c-4.351-2.5-8.24-5.6-11.779-9.146c-2.311-2.315-4.438-4.79-6.414-7.397c-3.614-4.77-6.68-9.876-9.341-15.23
		c-4.424-8.902-7.696-18.222-10.079-27.863c-0.678-2.745-1.275-5.507-1.775-8.29c-0.265-1.476-0.482-2.96-0.708-4.443
		c-0.118-0.774-0.219-1.55-0.307-2.328c-0.12-1.059-0.237-2.118-0.326-3.18c-0.076-0.91-0.111-1.824-0.167-2.737
		c-0.009-0.152-0.012-0.31-0.06-0.451c-0.039-0.115-0.141-0.209-0.215-0.312c0-5.576,0-11.153,0-16.729
		c0.137-0.049,0.212-0.151,0.228-0.29c0.022-0.195,0.038-0.39,0.051-0.585c0.089-1.281,0.174-2.562,0.264-3.842
		c0.1-1.411,0.308-2.809,0.518-4.208c0.331-2.196,0.781-4.367,1.337-6.515c1.381-5.338,3.377-10.428,6.142-15.208
		c4.362-7.539,10.229-13.619,17.65-18.189c4.873-3.002,10.111-5.151,15.618-6.67c2.245-0.619,4.517-1.123,6.81-1.528
		c1.263-0.223,2.535-0.394,3.806-0.568c0.862-0.118,1.728-0.205,2.593-0.299c0.692-0.075,1.384-0.157,2.078-0.204
		c1.108-0.075,2.217-0.124,3.326-0.182c0.804-0.042,1.609-0.08,2.413-0.124c0.192-0.01,0.397,0.019,0.554-0.139
		c1.307,0,2.614,0,3.921,0c0.162,0.142,0.362,0.128,0.557,0.138c1.804,0.095,3.608,0.177,5.411,0.29
		c1.194,0.075,2.388,0.161,3.576,0.299c1.468,0.17,2.931,0.387,4.393,0.606c2.906,0.435,5.773,1.06,8.603,1.848
		c5.395,1.501,10.531,3.61,15.32,6.532c5.644,3.445,10.447,7.81,14.358,13.148c3.084,4.209,5.455,8.795,7.216,13.7
		c1.237,3.447,2.165,6.975,2.767,10.589c0.365,2.189,0.709,4.379,0.759,6.604c0.005,0.217,0.011,0.438,0.166,0.617
		c0,7.145,0,14.29,0,21.434c-0.184,0.22-0.172,0.489-0.17,0.747c0.011,1.201-0.156,2.389-0.295,3.576
		c-0.2,1.705-0.475,3.402-0.728,5.101c-0.359,2.41-0.836,4.799-1.358,7.177c-0.942,4.293-2.065,8.54-3.383,12.734
		c-2.38,7.573-5.31,14.921-9.007,21.954c-2.518,4.79-5.366,9.37-8.671,13.66c-3.229,4.192-6.831,8.023-10.957,11.348
		c-4.132,3.331-8.642,6.012-13.609,7.908c-2.855,1.09-5.792,1.876-8.803,2.384c-0.986,0.167-1.979,0.299-2.974,0.398
		c-0.952,0.095-1.911,0.121-2.866,0.191C109.426,188.708,109.195,188.774,108.962,188.818z M164.546,90.771
		c0-1.808-0.007-3.616,0.002-5.424c0.011-2.156-0.005-4.311-0.247-6.458c-0.107-0.951-0.178-1.907-0.312-2.854
		c-0.252-1.788-0.587-3.562-1.008-5.319c-1.024-4.274-2.511-8.374-4.595-12.25c-4.382-8.149-10.784-14.193-19.062-18.276
		c-5.134-2.533-10.571-4.117-16.193-5.101c-2.057-0.36-4.124-0.654-6.208-0.816c-1.454-0.113-2.905-0.251-4.36-0.338
		c-1.195-0.071-2.393-0.092-3.591-0.12c-2.2-0.051-4.398,0.053-6.597,0.116c-0.718,0.021-1.435,0.071-2.151,0.135
		c-1.127,0.101-2.252,0.214-3.376,0.344c-1.145,0.132-2.291,0.263-3.429,0.443c-1.912,0.303-3.811,0.677-5.692,1.14
		c-4.306,1.06-8.459,2.535-12.397,4.588c-6.702,3.495-12.185,8.349-16.362,14.664c-3.056,4.619-5.198,9.644-6.634,14.978
		c-0.941,3.494-1.574,7.043-1.859,10.654c-0.124,1.563-0.225,3.126-0.224,4.695c0.002,4.487,0.01,8.974-0.003,13.461
		c-0.006,2.18,0.13,4.349,0.358,6.516c0.173,1.645,0.403,3.28,0.652,4.915c0.403,2.646,0.923,5.27,1.513,7.879
		c1.113,4.927,2.499,9.777,4.156,14.549c1.952,5.622,4.261,11.09,7.047,16.353c2.307,4.358,4.907,8.53,7.938,12.425
		c2.873,3.693,6.071,7.07,9.743,9.983c3.784,3.001,7.916,5.381,12.492,6.958c2.433,0.839,4.926,1.429,7.48,1.77
		c1.252,0.167,2.508,0.314,3.768,0.349c1.74,0.049,3.481,0.073,5.223-0.083c1.367-0.122,2.724-0.285,4.075-0.525
		c4.042-0.719,7.856-2.08,11.464-4.031c4.134-2.235,7.786-5.107,11.09-8.431c2.849-2.866,5.375-5.999,7.664-9.327
		c3.578-5.203,6.523-10.754,9.051-16.531c2.525-5.771,4.588-11.705,6.272-17.773c0.914-3.292,1.73-6.607,2.37-9.963
		c0.35-1.837,0.681-3.678,0.994-5.521c0.168-0.986,0.296-1.979,0.413-2.972c0.12-1.015,0.201-2.035,0.304-3.052
		c0.14-1.387,0.235-2.776,0.233-4.171C164.544,95.825,164.546,93.298,164.546,90.771z"/>
	<path fill="#FFFFFF" d="M156.028,94.235c-0.021,1.25-0.022,2.514-0.07,3.776c-0.036,0.934-0.122,1.867-0.205,2.799
		c-0.079,0.888-0.182,1.774-0.278,2.661c-0.149,1.385-0.392,2.754-0.658,4.121c-0.448,2.311-1.057,4.578-1.853,6.792
		c-1.119,3.11-2.586,6.039-4.566,8.699c-3.418,4.592-7.892,7.676-13.349,9.36c-1.605,0.495-3.243,0.854-4.912,1.016
		c-1.45,0.141-2.903,0.188-4.368,0.093c-4.676-0.304-8.981-1.781-13.058-4.009c-3.574-1.954-6.798-4.394-9.796-7.139
		c-4.146-3.795-7.776-8.043-11.028-12.62c-2.361-3.324-4.514-6.775-6.331-10.43c-0.64-1.288-1.194-2.61-1.69-3.96
		c-0.909-2.471-1.844-4.932-2.769-7.396c-0.552-1.471-0.952-2.984-1.208-4.533c-0.195-1.185-0.229-2.382-0.197-3.581
		c0.092-3.481,1.269-6.594,3.205-9.448c1.392-2.051,3.097-3.818,4.978-5.422c2.228-1.901,4.656-3.512,7.195-4.963
		c3.713-2.122,7.606-3.86,11.592-5.392c3.616-1.39,7.283-2.628,11.03-3.622c2.272-0.603,4.566-1.109,6.888-1.47
		c1.397-0.217,2.802-0.37,4.215-0.458c0.979-0.061,1.958-0.114,2.936-0.082c2.422,0.078,4.812,0.365,7.125,1.143
		c3.8,1.278,6.674,3.673,8.69,7.123c0.694,1.188,1.251,2.439,1.734,3.725c1.01,2.688,2.015,5.379,3.022,8.069
		c0.673,1.797,1.149,3.65,1.58,5.516c0.465,2.014,0.823,4.049,1.136,6.09c0.181,1.182,0.309,2.372,0.442,3.56
		c0.13,1.167,0.249,2.336,0.348,3.507c0.073,0.867,0.124,1.738,0.15,2.608C155.998,91.653,156.006,92.938,156.028,94.235z
		 M148.105,94.205c-0.06-1.634-0.094-3.245-0.188-4.853c-0.074-1.259-0.209-2.515-0.343-3.77c-0.131-1.233-0.257-2.468-0.452-3.691
		c-0.256-1.61-0.554-3.215-0.878-4.813c-0.329-1.62-0.708-3.232-1.281-4.787c-1.091-2.96-2.202-5.914-3.316-8.865
		c-0.37-0.98-0.833-1.916-1.432-2.78c-0.868-1.251-2.002-2.16-3.425-2.721c-1.374-0.542-2.806-0.794-4.266-0.873
		c-1.961-0.106-3.918-0.003-5.863,0.273c-1.875,0.265-3.731,0.632-5.569,1.086c-2.853,0.705-5.658,1.573-8.428,2.553
		c-3.82,1.351-7.573,2.863-11.185,4.706c-2.604,1.328-5.113,2.812-7.423,4.614c-1.257,0.98-2.438,2.041-3.475,3.256
		c-0.838,0.981-1.577,2.029-2.106,3.212c-0.652,1.457-0.951,2.982-0.805,4.579c0.123,1.351,0.457,2.656,0.932,3.925
		c0.885,2.364,1.796,4.718,2.652,7.092c0.771,2.139,1.763,4.167,2.888,6.135c3.181,5.566,6.96,10.69,11.394,15.323
		c2.233,2.334,4.637,4.478,7.267,6.36c2.204,1.576,4.53,2.933,7.057,3.931c1.934,0.764,3.93,1.29,6.002,1.465
		c1.499,0.126,2.998,0.072,4.49-0.193c2.142-0.381,4.166-1.083,6.068-2.133c2.775-1.532,4.913-3.721,6.576-6.399
		c1.318-2.122,2.275-4.405,3-6.789c0.589-1.938,1.018-3.912,1.337-5.913c0.278-1.743,0.469-3.494,0.588-5.251
		C148.023,97.319,148.046,95.75,148.105,94.205z"/>
	<path fill="#FFFFFF" d="M138.761,98.91c0.073,6.086-3.997,12.137-10.889,13.629c-6.816,1.475-13.553-2.343-15.879-8.746
		c-0.416-1.144-0.39-2.271,0.184-3.347c0.61-1.143,1.57-1.82,2.86-2.054c1.883-0.341,3.737,0.801,4.355,2.459
		c0.061,0.163,0.123,0.326,0.196,0.484c0.945,2.038,2.521,3.223,4.759,3.505c2.831,0.357,5.74-1.583,6.361-4.686
		c0.202-1.012,0.133-1.995-0.194-2.959c-0.185-0.547-0.248-1.1-0.23-1.67c0.055-1.732,1.344-3.246,3.028-3.649
		c1.881-0.45,4,0.572,4.694,2.587C138.522,95.957,138.8,97.49,138.761,98.91z"/>
	<path fill="#FFFFFF" d="M126.218,74.19c-0.044-2.167,1.668-4.395,4.405-4.366c2.866,0.03,4.37,2.408,4.35,4.436
		c-0.022,2.195-1.835,4.373-4.452,4.337C128.18,78.565,126.175,76.661,126.218,74.19z"/>
	<path fill="#FFFFFF" d="M105.184,87.525c-2.419,0.018-4.392-2.105-4.298-4.535c0.085-2.211,1.943-4.26,4.502-4.215
		c2.05,0.036,4.304,1.727,4.262,4.451C109.609,85.862,107.418,87.625,105.184,87.525z"/>
</g>
</svg>
