<?xml version="1.0" encoding="utf-8"?>
<!-- Generator: Adobe Illustrator 17.0.0, SVG Export Plug-In . SVG Version: 6.00 Build 0)  -->
<!DOCTYPE svg PUBLIC "-//W3C//DTD SVG 1.1//EN" "http://www.w3.org/Graphics/SVG/1.1/DTD/svg11.dtd">
<svg version="1.1" id="Capa_1" xmlns="http://www.w3.org/2000/svg" xmlns:xlink="http://www.w3.org/1999/xlink" x="0px" y="0px"
	 width="214.527px" height="214.527px" viewBox="0 0 214.527 214.527" enable-background="new 0 0 214.527 214.527"
	 xml:space="preserve">
<g>
	<path fill="#FFFFFF" d="M108.962,188.818c-1.046,0-2.091,0-3.137,0c-0.258-0.153-0.548-0.127-0.828-0.135
		c-1.175-0.034-2.344-0.14-3.512-0.272c-1.384-0.157-2.755-0.381-4.12-0.658c-5.012-1.02-9.718-2.841-14.148-5.387
		c-4.351-2.5-8.24-5.6-11.779-9.146c-2.311-2.315-4.438-4.79-6.414-7.397c-3.614-4.77-6.68-9.876-9.341-15.23
		c-4.424-8.902-7.696-18.222-10.079-27.863c-0.678-2.745-1.275-5.507-1.775-8.29c-0.265-1.476-0.482-2.96-0.708-4.443
		c-0.118-0.774-0.219-1.55-0.307-2.328c-0.12-1.059-0.237-2.118-0.326-3.18c-0.076-0.91-0.111-1.824-0.167-2.737
		c-0.009-0.152-0.012-0.31-0.06-0.451c-0.039-0.115-0.141-0.209-0.215-0.312c0-5.576,0-11.153,0-16.729
		c0.137-0.049,0.212-0.151,0.228-0.29c0.022-0.195,0.038-0.39,0.051-0.585c0.089-1.281,0.174-2.562,0.264-3.842
		c0.1-1.411,0.308-2.809,0.518-4.208c0.331-2.196,0.781-4.367,1.337-6.515c1.381-5.338,3.377-10.428,6.142-15.208
		c4.362-7.539,10.229-13.619,17.65-18.189c4.873-3.002,10.111-5.151,15.618-6.67c2.245-0.619,4.517-1.123,6.81-1.528
		c1.263-0.223,2.535-0.394,3.806-0.568c0.862-0.118,1.728-0.205,2.593-0.299c0.692-0.075,1.384-0.157,2.078-0.204
		c1.108-0.075,2.217-0.124,3.326-0.182c0.804-0.042,1.609-0.08,2.413-0.124c0.192-0.01,0.397,0.019,0.554-0.139
		c1.307,0,2.614,0,3.921,0c0.162,0.142,0.362,0.128,0.557,0.138c1.804,0.095,3.608,0.177,5.411,0.29
		c1.194,0.075,2.388,0.161,3.576,0.299c1.468,0.17,2.931,0.387,4.393,0.606c2.906,0.435,5.773,1.06,8.603,1.848
		c4.926,1.371,9.643,3.25,14.084,5.8c5.674,3.259,10.567,7.425,14.608,12.579c3.564,4.546,6.252,9.573,8.202,15.001
		c1.238,3.446,2.165,6.975,2.767,10.588c0.365,2.189,0.709,4.379,0.759,6.604c0.005,0.217,0.011,0.438,0.166,0.617
		c0,7.145,0,14.29,0,21.434c-0.184,0.22-0.172,0.489-0.17,0.747c0.011,1.201-0.156,2.389-0.295,3.576
		c-0.2,1.705-0.475,3.402-0.728,5.101c-0.36,2.41-0.836,4.799-1.358,7.177c-0.942,4.293-2.065,8.54-3.383,12.734
		c-2.38,7.573-5.31,14.921-9.007,21.954c-2.518,4.79-5.366,9.37-8.671,13.66c-3.229,4.192-6.831,8.023-10.957,11.348
		c-4.132,3.331-8.642,6.012-13.609,7.908c-2.855,1.09-5.792,1.876-8.803,2.384c-0.986,0.167-1.979,0.299-2.974,0.398
		c-0.952,0.095-1.911,0.121-2.866,0.191C109.426,188.708,109.195,188.774,108.962,188.818z M61.279,143.683
		c0.059,0.156,0.116,0.34,0.196,0.513c2.243,4.851,4.814,9.518,7.843,13.926c2.735,3.98,5.8,7.68,9.349,10.967
		c3.475,3.218,7.301,5.92,11.594,7.945c4.727,2.23,9.714,3.426,14.921,3.689c2.633,0.133,5.264,0.045,7.884-0.336
		c2.137-0.31,4.236-0.764,6.295-1.409c4.302-1.348,8.225-3.435,11.851-6.096c3.424-2.513,6.455-5.445,9.205-8.674
		c3.003-3.526,5.612-7.328,7.944-11.324c2.66-4.559,4.932-9.307,6.911-14.197c2.133-5.271,3.908-10.66,5.366-16.155
		c0.803-3.028,1.529-6.075,2.102-9.156c0.298-1.603,0.588-3.209,0.856-4.817c0.164-0.986,0.296-1.979,0.413-2.973
		c0.12-1.015,0.2-2.035,0.303-3.052c0.145-1.43,0.237-2.863,0.235-4.302c-0.004-3.986,0.006-7.972-0.005-11.959
		c-0.005-1.894,0.071-3.79-0.111-5.681c-0.114-1.191-0.171-2.388-0.314-3.575c-0.179-1.49-0.431-2.969-0.73-4.441
		c-0.808-3.983-2.016-7.836-3.718-11.527c-4.344-9.42-11.197-16.387-20.514-20.938c-3.554-1.736-7.267-3.027-11.102-3.98
		c-1.985-0.493-3.985-0.916-6.01-1.207c-0.969-0.139-1.936-0.289-2.907-0.411c-1.014-0.127-2.031-0.243-3.049-0.334
		c-0.867-0.077-1.737-0.12-2.607-0.163c-1.5-0.073-3-0.154-4.502-0.196c-2.2-0.062-4.398,0.057-6.597,0.109
		c-0.087,0.002-0.174,0.008-0.261,0.016c-1.366,0.112-2.735,0.2-4.098,0.343c-1.535,0.161-3.071,0.335-4.597,0.569
		c-2.258,0.346-4.493,0.814-6.704,1.395c-4.227,1.112-8.291,2.638-12.136,4.728c-4.995,2.715-9.332,6.233-12.942,10.635
		c-3.218,3.926-5.664,8.296-7.492,13.022c-1.18,3.051-2.075,6.187-2.714,9.393c-0.251,1.258-0.461,2.525-0.642,3.795
		c-0.144,1.011-0.216,2.033-0.317,3.05c-0.142,1.431-0.229,2.864-0.229,4.303c-0.001,4.77,0.01,9.541-0.005,14.311
		c-0.006,1.832,0.111,3.657,0.288,5.476c0.152,1.558,0.391,3.107,0.601,4.659c0.321,2.372,0.783,4.719,1.276,7.061
		c0.645,3.066,1.407,6.103,2.272,9.115c0.889,3.096,1.876,6.16,2.992,9.182c0.082,0.222,0.126,0.465,0.355,0.66
		c0.161,0,0.356,0.016,0.547-0.004c0.303-0.032,0.605-0.076,0.903-0.136c3.885-0.776,6.951-2.796,9.151-6.092
		c1.319-1.975,2.069-4.159,2.226-6.537c0.03-0.456,0.054-0.913,0.091-1.368c0.019-0.238,0.044-0.477,0.097-0.709
		c0.361-1.586,1.993-3.237,4.339-2.956c0.213,0.026,0.435,0.022,0.649-0.002c1.244-0.137,2.322,0.215,3.229,1.077
		c0.799,0.76,1.196,1.696,1.206,2.797c0.014,1.463-0.11,2.911-0.402,4.347c-1.008,4.958-3.431,9.092-7.262,12.382
		c-3.165,2.717-6.832,4.378-10.964,4.994C61.649,143.464,61.448,143.472,61.279,143.683z"/>
	<path fill="#FFFFFF" d="M75,81.86c-0.06-4.414,3.649-8.045,8.051-8.052c4.008-0.006,8.085,3.155,8.065,8.117
		c-0.018,4.513-3.58,8.039-8.096,8.016C78.133,89.916,74.913,85.894,75,81.86z"/>
</g>
</svg>
