<?xml version="1.0" encoding="utf-8"?>
<!-- Generator: Adobe Illustrator 17.0.0, SVG Export Plug-In . SVG Version: 6.00 Build 0)  -->
<!DOCTYPE svg PUBLIC "-//W3C//DTD SVG 1.1//EN" "http://www.w3.org/Graphics/SVG/1.1/DTD/svg11.dtd">
<svg version="1.1" id="Capa_1" xmlns="http://www.w3.org/2000/svg" xmlns:xlink="http://www.w3.org/1999/xlink" x="0px" y="0px"
	 width="214.527px" height="214.527px" viewBox="0 0 214.527 214.527" enable-background="new 0 0 214.527 214.527"
	 xml:space="preserve">
<g>
	<path fill="#FFFFFF" d="M41.934,106.285c0-9.313,0-18.626,0-27.94c0.312-0.854,0.788-1.685,0.913-2.566
		c3.505-24.87,18.99-41.844,43.526-47.605c3.794-0.891,7.626-1.618,11.441-2.421c6.3,0,12.6,0,18.9,0
		c2.896,0.584,5.789,1.184,8.689,1.749c23.477,4.571,39.107,17.697,44.991,41.37c0.91,3.662,1.475,7.409,2.199,11.117
		c0,7.122,0,14.244,0,21.366c-0.595,3.468-1.149,6.944-1.792,10.403c-3.973,21.36-10.945,41.459-25.261,58.306
		c-20.189,23.758-52.443,25.047-74.373,2.973c-13.104-13.19-20.147-29.689-24.931-47.279
		C44.495,119.35,43.351,112.78,41.934,106.285z M164.331,90.665c0-3.01,0.124-6.026-0.02-9.03
		c-1.158-24.154-15.113-40.995-38.189-45.978c-10.665-2.303-21.419-2.348-32.24-1.02c-21.916,2.691-37.728,16.203-42.194,37.726
		c-3.779,18.211-2.454,36.441,2.973,54.302c4.786,15.75,11.365,30.517,23.505,42.14c11.287,10.806,24.731,14.353,39.746,10.467
		c11.847-3.066,20.263-11.181,26.79-21.138C158.109,137.685,164.337,115.045,164.331,90.665z"/>
	<path fill="#FFFFFF" d="M69.529,146.744c-1.21-1.449-2.115-2.924,0.127-5.154c24.917-24.774,49.735-49.649,74.585-74.49
		c0.286-0.286,0.644-0.498,1.176-0.902c1.035,0.69,2.125,1.418,2.799,1.867C121.967,94.312,95.824,120.453,69.529,146.744z"/>
	<path fill="#FFFFFF" d="M156.592,81.14c1.394,3.301,0.053,5.637-2.458,8.128c-23.301,23.12-46.482,46.359-69.661,69.601
		c-1.052,1.055-1.748,2.464-2.747,3.906c-1.843-1.642-2.823-2.516-3.572-3.184C104.547,133.193,130.52,107.216,156.592,81.14z"/>
	<path fill="#FFFFFF" d="M62.207,129.388c-2.075-2.825-0.876-4.785,1.368-7.011c19.925-19.769,39.772-39.618,59.548-59.536
		c2.353-2.37,4.525-3.317,7.234-1.608C107.662,83.929,84.963,106.63,62.207,129.388z"/>
	<path fill="#FFFFFF" d="M157.53,106.753c-1.313,2.733-2.024,6.058-4.035,8.106c-17.832,18.155-35.923,36.054-53.851,54.116
		c-2.186,2.203-4.08,2.916-6.23,1.019c21.156-21.132,42.286-42.24,63.417-63.347C157.064,106.682,157.297,106.717,157.53,106.753z"
		/>
	<path fill="#FFFFFF" d="M57.288,108.444c-0.94-2.622-0.47-4.828,1.821-7.086C72.466,88.195,85.735,74.94,98.887,61.572
		c2.436-2.476,4.884-3.007,7.657-2.367C90.134,75.61,73.743,91.995,57.288,108.444z"/>
	<path fill="#FFFFFF" d="M146.444,142.334c-6.601,12.986-15.043,23.554-29.714,29.399
		C127.049,161.524,136.603,152.071,146.444,142.334z"/>
	<path fill="#FFFFFF" d="M78.175,63c-7.005,6.984-13.833,13.791-20.438,20.376C57.721,75.043,66.924,65.583,78.175,63z"/>
</g>
</svg>
