<svg xmlns="http://www.w3.org/2000/svg" xmlns:xlink="http://www.w3.org/1999/xlink" viewBox="0 0 199.56 208.69"><defs><style>.cls-1{fill:none;}.cls-2{clip-path:url(#clip-path);}.cls-3{fill:#363357;}.cls-4{fill:#fff000;}</style><clipPath id="clip-path" transform="translate(-6.09 -1.31)"><rect class="cls-1" width="210" height="210"/></clipPath></defs><title>favicon</title><g id="Livello_2" data-name="Livello 2"><g id="Livello_1-2" data-name="Livello 1"><g class="cls-2"><path class="cls-3" d="M186.92,1.31H22.38L6.32,17.36s-4,132.44,21.41,159.2S83.92,210,101.31,210s58.86-9.36,80.26-33.44,24.08-152.51,24.08-159.2-18.73-16-18.73-16M63.57,141.6c-9.47-.82-35-7.41-27.6-39.55,0,0,42.85-10.72,55.21,13.18s-18.13,27.2-27.61,26.37m78,0c-9.48.83-40-2.47-27.61-26.37s55.22-13.18,55.22-13.18c7.41,32.14-18.13,38.73-27.61,39.55" transform="translate(-6.09 -1.31)"/><path class="cls-4" d="M142.2,107.82a19,19,0,0,0-.2-2.61s0-.08,0-.12c0-.23.07-.29.27-.19a24.07,24.07,0,0,1,7,5.13A18.53,18.53,0,0,1,154,119.3a17.14,17.14,0,0,1,.32,3.78,12.89,12.89,0,0,1-11.51,12.42,14.56,14.56,0,0,1-7.44-1,11.58,11.58,0,0,1-6.52-6.86,14.23,14.23,0,0,1-.86-4.28,11.5,11.5,0,0,1,1.84-6.82,12.4,12.4,0,0,1,3.66-3.87l.5-.32c.22-.12.38,0,.4.23a9.62,9.62,0,0,0,1.07,4.07c.09.17.21.32.31.49a.19.19,0,0,0,.25.08,8.37,8.37,0,0,0,5.87-6.42A13,13,0,0,0,142.2,107.82Z" transform="translate(-6.09 -1.31)"/><path class="cls-4" d="M64.74,107.82a17.54,17.54,0,0,0-.2-2.61s0-.08,0-.12c0-.23.07-.29.27-.19a24.07,24.07,0,0,1,7,5.13,18.45,18.45,0,0,1,4.79,9.27,17.14,17.14,0,0,1,.32,3.78A12.89,12.89,0,0,1,65.35,135.5a14.56,14.56,0,0,1-7.44-1,11.58,11.58,0,0,1-6.52-6.86,14.54,14.54,0,0,1-.86-4.28,11.5,11.5,0,0,1,1.84-6.82A12.4,12.4,0,0,1,56,112.67l.5-.32c.22-.12.39,0,.4.23A9.77,9.77,0,0,0,58,116.65c.09.17.21.32.31.49a.19.19,0,0,0,.25.08,8.37,8.37,0,0,0,5.87-6.42A13,13,0,0,0,64.74,107.82Z" transform="translate(-6.09 -1.31)"/></g></g></g></svg>