<svg id="图层_1" data-name="图层 1" xmlns="http://www.w3.org/2000/svg" viewBox="0 0 444.3 160.59"><defs><style>.cls-1{fill:#f0850f;}.cls-2{fill:#f8b877;}.cls-3{fill:#fff;}.cls-4{fill:#939393;}.cls-5,.cls-6{fill:none;stroke-miterlimit:10;}.cls-5{stroke:#ef830d;stroke-width:1.07px;}.cls-6{stroke:#939393;stroke-width:0.66px;}</style></defs><title>08_Yueling</title><path class="cls-1" d="M298.59,114.75v1H293v-1h2.36v-7.12a1.78,1.78,0,0,1-.46.44,5.34,5.34,0,0,1-.71.43,5.73,5.73,0,0,1-.81.33,2.35,2.35,0,0,1-.73.13v-1.09a1.88,1.88,0,0,0,.84-.22,5.77,5.77,0,0,0,.87-.5,6.24,6.24,0,0,0,.68-.53,1.4,1.4,0,0,0,.32-.33h1.16v8.46Z" transform="translate(-0.6 -0.71)"/><path class="cls-1" d="M299.69,115.78a6.27,6.27,0,0,1,.1-1.14,4.28,4.28,0,0,1,.39-1.14,4.1,4.1,0,0,1,.83-1.09,6,6,0,0,1,1.44-1c.32-.16.65-.33,1-.49a6.94,6.94,0,0,0,1-.54,3.1,3.1,0,0,0,.72-.67,1.39,1.39,0,0,0,.28-.87,1.44,1.44,0,0,0-.14-.63,1.62,1.62,0,0,0-.41-.54,2.18,2.18,0,0,0-.69-.39,2.71,2.71,0,0,0-.95-.15,3,3,0,0,0-1,.15,4.14,4.14,0,0,0-.76.38,2.8,2.8,0,0,0-.55.46,4.61,4.61,0,0,0-.35.39l-.75-.82c.07-.07.19-.19.38-.36a4.3,4.3,0,0,1,.74-.54,6.72,6.72,0,0,1,1.07-.47,4.25,4.25,0,0,1,1.38-.21,4,4,0,0,1,1.36.21,3.14,3.14,0,0,1,1,.57,2.51,2.51,0,0,1,.63.84,2.46,2.46,0,0,1,.22,1,2.23,2.23,0,0,1-.3,1.18,3.63,3.63,0,0,1-.74.87,5.65,5.65,0,0,1-.94.62c-.33.17-.63.32-.9.44a11.2,11.2,0,0,0-1,.52,5.75,5.75,0,0,0-.9.64,3.22,3.22,0,0,0-.66.78,1.88,1.88,0,0,0-.26,1h5.92v1Z" transform="translate(-0.6 -0.71)"/><path class="cls-1" d="M316.64,112.5a3,3,0,0,1-.33,1.41,3.55,3.55,0,0,1-.9,1.07,4.15,4.15,0,0,1-1.32.69,5.28,5.28,0,0,1-1.59.24,4.76,4.76,0,0,1-1.63-.27,4.12,4.12,0,0,1-1.28-.75,3.47,3.47,0,0,1-.84-1.11,3.09,3.09,0,0,1-.3-1.34,2.77,2.77,0,0,1,.2-1,3.29,3.29,0,0,1,.54-.86,4.23,4.23,0,0,1,.76-.64,3.64,3.64,0,0,1,.86-.43,3.84,3.84,0,0,1-.75-.4,3.31,3.31,0,0,1-.62-.56,2.89,2.89,0,0,1-.42-.7,2,2,0,0,1-.16-.81,2.48,2.48,0,0,1,.33-1.29,3.35,3.35,0,0,1,.86-.94,3.94,3.94,0,0,1,1.18-.58,4.46,4.46,0,0,1,2.64,0,3.92,3.92,0,0,1,1.18.57,3,3,0,0,1,.86.94,2.49,2.49,0,0,1,.33,1.28,2,2,0,0,1-.16.81,2.59,2.59,0,0,1-.43.71,2.85,2.85,0,0,1-.63.57,4.23,4.23,0,0,1-.76.4,4.17,4.17,0,0,1,.92.46,3.71,3.71,0,0,1,.75.67,3.19,3.19,0,0,1,.52.87A3,3,0,0,1,316.64,112.5Zm-1.15-.08a2.16,2.16,0,0,0-.26-1.06,2.57,2.57,0,0,0-.7-.77,3.26,3.26,0,0,0-1-.48,3.46,3.46,0,0,0-1-.16,3.2,3.2,0,0,0-2,.67,2.53,2.53,0,0,0-.66.79,2.09,2.09,0,0,0-.25,1,2,2,0,0,0,.27,1,2.41,2.41,0,0,0,.69.77,3.09,3.09,0,0,0,.94.48,3.51,3.51,0,0,0,1.06.17,3.22,3.22,0,0,0,1.05-.18,2.93,2.93,0,0,0,.94-.5,2.4,2.4,0,0,0,.67-.78A1.94,1.94,0,0,0,315.49,112.42ZM310,107a1.61,1.61,0,0,0,.23.85,2.25,2.25,0,0,0,.6.63,2.66,2.66,0,0,0,.83.4,3.11,3.11,0,0,0,1.78,0,3,3,0,0,0,.82-.4,2.21,2.21,0,0,0,.61-.65,1.6,1.6,0,0,0,.23-.87,1.69,1.69,0,0,0-.21-.84,2.17,2.17,0,0,0-.58-.63,2.6,2.6,0,0,0-.82-.39,3.42,3.42,0,0,0-1-.13,3.29,3.29,0,0,0-.94.14,2.92,2.92,0,0,0-.81.4,1.92,1.92,0,0,0-.56.64A1.63,1.63,0,0,0,310,107Z" transform="translate(-0.6 -0.71)"/><path class="cls-2" d="M327,104l-7.84,11.8h-1.28l7.84-11.8Z" transform="translate(-0.6 -0.71)"/><path class="cls-2" d="M334,114.75v1h-5.63v-1h2.35v-7.12a1.71,1.71,0,0,1-.45.44,6.23,6.23,0,0,1-.72.43,6.13,6.13,0,0,1-.8.33,2.4,2.4,0,0,1-.73.13v-1.09a1.87,1.87,0,0,0,.83-.22,5.32,5.32,0,0,0,.87-.5,7.65,7.65,0,0,0,.69-.53,1.27,1.27,0,0,0,.31-.33h1.17v8.46Z" transform="translate(-0.6 -0.71)"/><path class="cls-2" d="M335.06,115.78a7.31,7.31,0,0,1,.1-1.14,4,4,0,0,1,1.22-2.23,6,6,0,0,1,1.44-1l1-.49a6.3,6.3,0,0,0,1-.54,2.91,2.91,0,0,0,.72-.67,1.4,1.4,0,0,0,.29-.87,1.6,1.6,0,0,0-.14-.63,1.79,1.79,0,0,0-.42-.54,2.13,2.13,0,0,0-.68-.39,2.76,2.76,0,0,0-1-.15,3,3,0,0,0-1,.15,3.75,3.75,0,0,0-.75.38,2.87,2.87,0,0,0-.56.46,4.61,4.61,0,0,0-.35.39l-.75-.82.39-.36a3.84,3.84,0,0,1,.73-.54,6.85,6.85,0,0,1,1.08-.47,4.25,4.25,0,0,1,1.38-.21,4.09,4.09,0,0,1,1.36.21,3,3,0,0,1,1,.57,2.51,2.51,0,0,1,.63.84,2.3,2.3,0,0,1,.22,1,2.23,2.23,0,0,1-.3,1.18,3.63,3.63,0,0,1-.74.87,5.27,5.27,0,0,1-.94.62c-.33.17-.63.32-.9.44a9.93,9.93,0,0,0-1,.52,6.37,6.37,0,0,0-.91.64,3.46,3.46,0,0,0-.66.78,1.87,1.87,0,0,0-.25,1h5.91v1Z" transform="translate(-0.6 -0.71)"/><path class="cls-2" d="M352,112.5a3,3,0,0,1-.33,1.41,3.41,3.41,0,0,1-.9,1.07,4,4,0,0,1-1.32.69,5.19,5.19,0,0,1-1.59.24,4.71,4.71,0,0,1-1.62-.27,4.29,4.29,0,0,1-1.29-.75,3.47,3.47,0,0,1-.84-1.11,3.09,3.09,0,0,1-.3-1.34,2.59,2.59,0,0,1,.21-1,3.29,3.29,0,0,1,.54-.86,4,4,0,0,1,1.61-1.07,3.84,3.84,0,0,1-.75-.4,3,3,0,0,1-.61-.56,2.64,2.64,0,0,1-.43-.7,2.16,2.16,0,0,1-.15-.81,2.48,2.48,0,0,1,.33-1.29,3.32,3.32,0,0,1,.85-.94,4.06,4.06,0,0,1,1.18-.58,4.49,4.49,0,0,1,2.65,0,3.86,3.86,0,0,1,1.17.57,3,3,0,0,1,.86.94,2.49,2.49,0,0,1,.33,1.28,2.16,2.16,0,0,1-.15.81,2.63,2.63,0,0,1-.44.71,2.85,2.85,0,0,1-.63.57,4.51,4.51,0,0,1-.75.4,4.1,4.1,0,0,1,.91.46,3.76,3.76,0,0,1,.76.67,3.43,3.43,0,0,1,.51.87A2.75,2.75,0,0,1,352,112.5Zm-1.14-.08a2.06,2.06,0,0,0-.27-1.06,2.57,2.57,0,0,0-.7-.77,3.32,3.32,0,0,0-1-.48,3.57,3.57,0,0,0-1.05-.16,3.18,3.18,0,0,0-1.06.17,3,3,0,0,0-.93.5,2.44,2.44,0,0,0-.67.79,2.21,2.21,0,0,0-.25,1,2,2,0,0,0,.27,1,2.67,2.67,0,0,0,.69.77,3.15,3.15,0,0,0,.95.48,3.49,3.49,0,0,0,1.05.17,3.23,3.23,0,0,0,1.06-.18,2.78,2.78,0,0,0,.93-.5,2.43,2.43,0,0,0,.68-.78A2,2,0,0,0,350.87,112.42Zm-5.5-5.38a1.53,1.53,0,0,0,.23.85,2,2,0,0,0,.6.63,2.51,2.51,0,0,0,.82.4,3.48,3.48,0,0,0,.89.13,3.36,3.36,0,0,0,.89-.13,3,3,0,0,0,.83-.4,2.18,2.18,0,0,0,.6-.65,1.6,1.6,0,0,0,.24-.87,1.7,1.7,0,0,0-.22-.84,2,2,0,0,0-.57-.63,2.7,2.7,0,0,0-.82-.39,3.54,3.54,0,0,0-1-.13,3.34,3.34,0,0,0-.94.14,2.86,2.86,0,0,0-.8.4,2,2,0,0,0-.57.64A1.73,1.73,0,0,0,345.37,107Z" transform="translate(-0.6 -0.71)"/><path class="cls-2" d="M362.75,115.94a3.42,3.42,0,0,1-1.94-.55,4.47,4.47,0,0,1-1.36-1.41v5.34h-1.12v-12.2h1v1.68a4.15,4.15,0,0,1,1.38-1.32,3.5,3.5,0,0,1,1.84-.51,3.77,3.77,0,0,1,1.65.37,4.22,4.22,0,0,1,1.29,1,4.75,4.75,0,0,1,.86,1.44,4.81,4.81,0,0,1,.31,1.68,5.13,5.13,0,0,1-.29,1.72,4.17,4.17,0,0,1-.8,1.43,4,4,0,0,1-1.25,1A3.62,3.62,0,0,1,362.75,115.94Zm-.32-1a2.7,2.7,0,0,0,1.27-.3,3.13,3.13,0,0,0,1-.79,3.5,3.5,0,0,0,.62-1.12,3.71,3.71,0,0,0,.22-1.28,3.5,3.5,0,0,0-.25-1.33,3.86,3.86,0,0,0-.68-1.12,3.32,3.32,0,0,0-1-.76,2.91,2.91,0,0,0-1.27-.28,2.8,2.8,0,0,0-.91.17,3.54,3.54,0,0,0-.88.47,3.23,3.23,0,0,0-.7.68,1.93,1.93,0,0,0-.36.82v2.66a4.34,4.34,0,0,0,.51.86,3.51,3.51,0,0,0,.7.69,3.13,3.13,0,0,0,.84.46A2.69,2.69,0,0,0,362.43,115Z" transform="translate(-0.6 -0.71)"/><path class="cls-2" d="M368.43,107.12l2.59,3.39.13.25.14-.25,2.59-3.39h1.21l-3.31,4.35,3.31,4.31h-1.21l-2.59-3.38-.14-.23-.13.23-2.59,3.38h-1.22l3.31-4.31-3.31-4.35Z" transform="translate(-0.6 -0.71)"/><path class="cls-3" d="M50.28,138.23H45.67V150H44.39v-11.8H39.78V137.1h10.5Z" transform="translate(-0.6 -0.71)"/><path class="cls-3" d="M54.69,141.63a3.93,3.93,0,0,0-2.19.7,3.44,3.44,0,0,0-1.31,1.8V150H50v-9.49h1.17v2.28a4.22,4.22,0,0,1,1.42-1.71,3.23,3.23,0,0,1,1.91-.62h.24Z" transform="translate(-0.6 -0.71)"/><path class="cls-3" d="M58.61,150.22a3.39,3.39,0,0,1-1.25-.23,3,3,0,0,1-1-.63,2.84,2.84,0,0,1-.67-.94,2.8,2.8,0,0,1-.24-1.16,2.26,2.26,0,0,1,.3-1.14,2.54,2.54,0,0,1,.82-.91,3.92,3.92,0,0,1,1.25-.6,5.81,5.81,0,0,1,1.61-.21,9.33,9.33,0,0,1,1.47.13,6.56,6.56,0,0,1,1.33.37V144a2.75,2.75,0,0,0-.71-2,2.6,2.6,0,0,0-2-.73,4.06,4.06,0,0,0-1.49.29,6.77,6.77,0,0,0-1.55.84l-.44-.82a6.4,6.4,0,0,1,3.58-1.24,3.81,3.81,0,0,1,2.8,1,3.71,3.71,0,0,1,1,2.77v4.28c0,.34.15.51.46.51V150a2.79,2.79,0,0,1-.48.06,1,1,0,0,1-.73-.24.9.9,0,0,1-.29-.65l0-.75a4.31,4.31,0,0,1-1.65,1.31A5,5,0,0,1,58.61,150.22Zm.29-.95a4.31,4.31,0,0,0,1.77-.36,3,3,0,0,0,1.24-1,1.19,1.19,0,0,0,.24-.36.77.77,0,0,0,.08-.35v-1.55a7.55,7.55,0,0,0-2.64-.49,3.82,3.82,0,0,0-2.13.54,1.67,1.67,0,0,0-.82,1.44,2,2,0,0,0,.65,1.49,2.2,2.2,0,0,0,.72.45A2.35,2.35,0,0,0,58.9,149.27Z" transform="translate(-0.6 -0.71)"/><path class="cls-3" d="M66.15,138.55v-1.82h1.24v1.82Zm0,11.48v-9.49h1.24V150Z" transform="translate(-0.6 -0.71)"/><path class="cls-3" d="M78.11,150H76.87v-5.3a4.56,4.56,0,0,0-.51-2.46,1.69,1.69,0,0,0-1.53-.76,3,3,0,0,0-1.1.2,3.71,3.71,0,0,0-1,.56,4.29,4.29,0,0,0-.83.87,3.4,3.4,0,0,0-.53,1.08V150H70.12v-9.49h1.13v2.15A4.56,4.56,0,0,1,72.92,141a4.61,4.61,0,0,1,2.36-.63,2.72,2.72,0,0,1,1.33.29,2.24,2.24,0,0,1,.88.82,4,4,0,0,1,.47,1.29,8.89,8.89,0,0,1,.15,1.7Z" transform="translate(-0.6 -0.71)"/><path class="cls-3" d="M80.75,138.55v-1.82H82v1.82Zm0,11.48v-9.49H82V150Z" transform="translate(-0.6 -0.71)"/><path class="cls-3" d="M92.7,150H91.46v-5.3a4.57,4.57,0,0,0-.5-2.46,1.71,1.71,0,0,0-1.54-.76,3,3,0,0,0-1.09.2,3.57,3.57,0,0,0-1,.56,4.29,4.29,0,0,0-.83.87,3.2,3.2,0,0,0-.53,1.08V150H84.72v-9.49h1.13v2.15A4.49,4.49,0,0,1,87.52,141a4.61,4.61,0,0,1,2.36-.63,2.75,2.75,0,0,1,1.33.29,2.28,2.28,0,0,1,.87.82,3.77,3.77,0,0,1,.48,1.29,9.82,9.82,0,0,1,.14,1.7Z" transform="translate(-0.6 -0.71)"/><path class="cls-3" d="M99.15,150.16a3.83,3.83,0,0,1-1.79-.41A4.65,4.65,0,0,1,96,148.67a5.13,5.13,0,0,1-.92-1.55,5.29,5.29,0,0,1-.32-1.8,5.68,5.68,0,0,1,.31-1.89,5,5,0,0,1,.91-1.58,4.28,4.28,0,0,1,1.39-1.07,4,4,0,0,1,1.8-.4,3.64,3.64,0,0,1,2.11.61,5.61,5.61,0,0,1,1.53,1.54v-2h1.11v9.53a3.84,3.84,0,0,1-.37,1.74,3.69,3.69,0,0,1-1,1.27,4.24,4.24,0,0,1-1.48.76,6.15,6.15,0,0,1-1.79.26,5.34,5.34,0,0,1-2.65-.58A4.68,4.68,0,0,1,95,152l.77-.6a3.44,3.44,0,0,0,1.49,1.34,4.83,4.83,0,0,0,2,.42,4.37,4.37,0,0,0,1.31-.19,3.09,3.09,0,0,0,1.08-.56,2.68,2.68,0,0,0,.74-1,3.11,3.11,0,0,0,.27-1.34v-1.88a3.89,3.89,0,0,1-1.49,1.44A3.93,3.93,0,0,1,99.15,150.16Zm.35-1a2.86,2.86,0,0,0,1.07-.2,3.49,3.49,0,0,0,1.68-1.29,2.42,2.42,0,0,0,.38-.86v-2.93a3.59,3.59,0,0,0-.54-1,3.87,3.87,0,0,0-1.73-1.24,3.07,3.07,0,0,0-2.44.16,3.35,3.35,0,0,0-1.06.88,3.82,3.82,0,0,0-.67,1.24,4.51,4.51,0,0,0-.23,1.4,3.79,3.79,0,0,0,.28,1.46A3.74,3.74,0,0,0,97,148a3.6,3.6,0,0,0,1.12.82A3.24,3.24,0,0,0,99.5,149.12Z" transform="translate(-0.6 -0.71)"/><path class="cls-3" d="M120.18,138.23h-4.61V150H114.3v-11.8h-4.61V137.1h10.49Z" transform="translate(-0.6 -0.71)"/><path class="cls-3" d="M121.86,138.55v-1.82h1.24v1.82Zm0,11.48v-9.49h1.24V150Z" transform="translate(-0.6 -0.71)"/><path class="cls-3" d="M140,150h-1.24v-5.3a4.47,4.47,0,0,0-.52-2.44,1.79,1.79,0,0,0-1.57-.78,2.52,2.52,0,0,0-1,.2,3.1,3.1,0,0,0-.89.56,3.59,3.59,0,0,0-.72.87,4,4,0,0,0-.48,1.1V150h-1.24v-5.3a4.56,4.56,0,0,0-.51-2.46,1.74,1.74,0,0,0-1.56-.76,2.84,2.84,0,0,0-1.92.74,4.16,4.16,0,0,0-1.2,2V150h-1.24v-9.49H127v2.15a4.44,4.44,0,0,1,1.53-1.7,3.76,3.76,0,0,1,2.1-.61,2.69,2.69,0,0,1,1.92.67,2.94,2.94,0,0,1,.88,1.77,4.06,4.06,0,0,1,3.67-2.44,2.81,2.81,0,0,1,1.35.29,2.31,2.31,0,0,1,.9.83,3.94,3.94,0,0,1,.49,1.29,8.78,8.78,0,0,1,.15,1.69Z" transform="translate(-0.6 -0.71)"/><path class="cls-3" d="M146.68,150.22a4.63,4.63,0,0,1-1.91-.39,4.87,4.87,0,0,1-1.5-1.08,4.8,4.8,0,0,1-1-1.58,5,5,0,0,1-.36-1.91,5,5,0,0,1,.36-1.89,4.76,4.76,0,0,1,1-1.54,4.59,4.59,0,0,1,1.5-1.06,4.65,4.65,0,0,1,1.9-.39,4.55,4.55,0,0,1,1.9.39,4.45,4.45,0,0,1,1.49,1.06,5.27,5.27,0,0,1,1,1.55,5.07,5.07,0,0,1,.34,1.86v.29a.48.48,0,0,1,0,.2h-8.12a3.88,3.88,0,0,0,1.13,2.54,3.52,3.52,0,0,0,1.08.74,3.35,3.35,0,0,0,1.3.26,3.13,3.13,0,0,0,.91-.13,3.52,3.52,0,0,0,.84-.34,3.35,3.35,0,0,0,.7-.54,2.46,2.46,0,0,0,.47-.7l1.07.29a2.94,2.94,0,0,1-.62,1,4,4,0,0,1-.92.75A4.67,4.67,0,0,1,148,150,4.91,4.91,0,0,1,146.68,150.22Zm3.5-5.43a4,4,0,0,0-.36-1.4,3.68,3.68,0,0,0-.76-1.08,3.27,3.27,0,0,0-1.08-.71,3.35,3.35,0,0,0-1.3-.26,3.4,3.4,0,0,0-1.31.26,3.21,3.21,0,0,0-1.09.71,3.53,3.53,0,0,0-.75,1.09,4.23,4.23,0,0,0-.33,1.39Z" transform="translate(-0.6 -0.71)"/><path class="cls-3" d="M6.67,116.45a5.5,5.5,0,0,1-2.47-.56,6.07,6.07,0,0,1-1.92-1.47A6.67,6.67,0,0,1,1,112.31a7,7,0,0,1-.44-2.42,6.75,6.75,0,0,1,.47-2.48,6.64,6.64,0,0,1,1.28-2.09,6.25,6.25,0,0,1,1.93-1.45,5.46,5.46,0,0,1,2.41-.54,5.38,5.38,0,0,1,2.47.57,6.42,6.42,0,0,1,1.91,1.51,6.91,6.91,0,0,1,1.23,2.1,6.84,6.84,0,0,1,.44,2.4A6.91,6.91,0,0,1,11,114.47a6.21,6.21,0,0,1-1.92,1.44A5.49,5.49,0,0,1,6.67,116.45Zm-4.79-6.56a6.05,6.05,0,0,0,.34,2,5.38,5.38,0,0,0,1,1.73,4.78,4.78,0,0,0,1.51,1.21,4.3,4.3,0,0,0,2,.44,4.26,4.26,0,0,0,2-.47,4.92,4.92,0,0,0,1.51-1.24,6,6,0,0,0,1-1.73,6.08,6.08,0,0,0,.33-2,6,6,0,0,0-.35-2,5.44,5.44,0,0,0-1-1.72,4.78,4.78,0,0,0-1.51-1.2,4.15,4.15,0,0,0-1.93-.44,4.26,4.26,0,0,0-2,.46,4.75,4.75,0,0,0-1.51,1.23,6,6,0,0,0-1,1.73A6.08,6.08,0,0,0,1.88,109.89Z" transform="translate(-0.6 -0.71)"/><path class="cls-3" d="M17.86,116.54a2.68,2.68,0,0,1-2.31-1,5.18,5.18,0,0,1-.75-3.07v-5.58H16v5.36c0,2.15.73,3.23,2.2,3.23a3.35,3.35,0,0,0,1.08-.18,3.67,3.67,0,0,0,1-.53,4.15,4.15,0,0,0,.8-.82,4.3,4.3,0,0,0,.58-1.08v-6h1.24v7.9c0,.34.14.51.43.51v1.09a2.88,2.88,0,0,1-.35,0H22.8a1,1,0,0,1-.71-.31,1.09,1.09,0,0,1-.28-.79v-1.09a4.41,4.41,0,0,1-1.68,1.72A4.47,4.47,0,0,1,17.86,116.54Z" transform="translate(-0.6 -0.71)"/><path class="cls-3" d="M30.27,115.9l-.32.15-.48.18a6,6,0,0,1-.62.17,4.3,4.3,0,0,1-.73.07,2.81,2.81,0,0,1-.77-.11,1.75,1.75,0,0,1-.63-.34,1.56,1.56,0,0,1-.44-.57,1.85,1.85,0,0,1-.17-.8v-6.8H24.8v-1h1.31v-3.2h1.24v3.2h2.19v1H27.35v6.45a1,1,0,0,0,.38.77,1.23,1.23,0,0,0,.77.25,2.45,2.45,0,0,0,.93-.17,4,4,0,0,0,.51-.25Z" transform="translate(-0.6 -0.71)"/><path class="cls-3" d="M36.67,116.54a3.75,3.75,0,0,1-2.13-.61,4.83,4.83,0,0,1-1.48-1.54v5.85H31.82V106.86h1.11v1.85a4.55,4.55,0,0,1,1.51-1.45,3.89,3.89,0,0,1,2-.56,4,4,0,0,1,1.81.41,4.61,4.61,0,0,1,1.42,1.09,5.22,5.22,0,0,1,.94,1.58,5.3,5.3,0,0,1,.34,1.84,6,6,0,0,1-.31,1.9,4.81,4.81,0,0,1-.89,1.56,4.28,4.28,0,0,1-1.36,1.07A3.9,3.9,0,0,1,36.67,116.54Zm-.35-1.09a2.94,2.94,0,0,0,1.39-.33,3.51,3.51,0,0,0,1.08-.87,3.73,3.73,0,0,0,.68-1.22,4.18,4.18,0,0,0,.24-1.41,4,4,0,0,0-.27-1.46,4.31,4.31,0,0,0-.75-1.22,3.7,3.7,0,0,0-1.12-.84,3.3,3.3,0,0,0-1.4-.31,2.86,2.86,0,0,0-1,.2,3.6,3.6,0,0,0-1,.51,3.56,3.56,0,0,0-.76.74,2.1,2.1,0,0,0-.39.9v2.92a4.28,4.28,0,0,0,.55,1,3.9,3.9,0,0,0,.77.75,3.6,3.6,0,0,0,.92.51A3,3,0,0,0,36.32,115.45Z" transform="translate(-0.6 -0.71)"/><path class="cls-3" d="M46,116.54a2.65,2.65,0,0,1-2.3-1,5.11,5.11,0,0,1-.76-3.07v-5.58h1.24v5.36c0,2.15.73,3.23,2.2,3.23a3.31,3.31,0,0,0,1.08-.18,3.52,3.52,0,0,0,1-.53,4.5,4.5,0,0,0,.81-.82,4.62,4.62,0,0,0,.57-1.08v-6h1.24v7.9c0,.34.15.51.44.51v1.09a3.25,3.25,0,0,1-.36,0H51a1,1,0,0,1-.71-.31,1.13,1.13,0,0,1-.27-.79v-1.09a4.53,4.53,0,0,1-4,2.33Z" transform="translate(-0.6 -0.71)"/><path class="cls-3" d="M58.44,115.9l-.32.15-.48.18a6,6,0,0,1-.62.17,4.21,4.21,0,0,1-.73.07,2.68,2.68,0,0,1-.76-.11,1.71,1.71,0,0,1-.64-.34,1.68,1.68,0,0,1-.44-.57,1.84,1.84,0,0,1-.16-.8v-6.8H53v-1h1.32v-3.2h1.24v3.2h2.18v1H55.53v6.45a1,1,0,0,0,.37.77,1.23,1.23,0,0,0,.77.25,2.38,2.38,0,0,0,.93-.17,4,4,0,0,0,.51-.25Z" transform="translate(-0.6 -0.71)"/><path class="cls-3" d="M64.89,116.36V103.42h5.47a3.33,3.33,0,0,1,1.54.36,3.81,3.81,0,0,1,1.21.93,4.32,4.32,0,0,1,1.08,2.77,4.35,4.35,0,0,1-.21,1.36,4.29,4.29,0,0,1-.59,1.17,3.54,3.54,0,0,1-.9.87,3.25,3.25,0,0,1-1.18.49l3.17,5H73L70,111.58H66.17v4.78Zm1.28-5.91H70.4a2.23,2.23,0,0,0,1-.24,2.54,2.54,0,0,0,.79-.67,3.17,3.17,0,0,0,.51-.94,3.5,3.5,0,0,0,.18-1.12,3.09,3.09,0,0,0-.21-1.12,3.4,3.4,0,0,0-.56-.94,2.9,2.9,0,0,0-.84-.63,2.24,2.24,0,0,0-1-.24H66.17Z" transform="translate(-0.6 -0.71)"/><path class="cls-3" d="M80.36,116.54a4.58,4.58,0,0,1-1.9-.39,4.5,4.5,0,0,1-1.5-1.08,5,5,0,0,1-1-1.57,5.32,5.32,0,0,1-.35-1.92A5.15,5.15,0,0,1,76,109.7a4.89,4.89,0,0,1,1-1.55,4.74,4.74,0,0,1,1.5-1.06,4.63,4.63,0,0,1,5.29,1.07,4.93,4.93,0,0,1,1,1.55,5,5,0,0,1,.35,1.86v.29a.88.88,0,0,1,0,.2H76.9a4.07,4.07,0,0,0,.36,1.41,3.91,3.91,0,0,0,.77,1.12,3.51,3.51,0,0,0,1.09.74,3.15,3.15,0,0,0,1.3.26,3.56,3.56,0,0,0,.91-.12,3.91,3.91,0,0,0,.84-.35,3.57,3.57,0,0,0,.69-.54,2,2,0,0,0,.47-.7l1.08.29a3.29,3.29,0,0,1-.62,1,4.93,4.93,0,0,1-.93.75,4.73,4.73,0,0,1-1.17.49A5.21,5.21,0,0,1,80.36,116.54Zm3.5-5.43a3.7,3.7,0,0,0-.35-1.39,3.9,3.9,0,0,0-.77-1.09,3.51,3.51,0,0,0-1.07-.71,3.36,3.36,0,0,0-1.31-.25,3.36,3.36,0,0,0-2.39,1,3.57,3.57,0,0,0-.75,1.1,4.12,4.12,0,0,0-.34,1.38Z" transform="translate(-0.6 -0.71)"/><path class="cls-3" d="M90.11,116.54a6.62,6.62,0,0,1-2.16-.36,5.34,5.34,0,0,1-1.83-1.06l.57-.84a6.14,6.14,0,0,0,1.63,1,4.94,4.94,0,0,0,1.78.32,3.22,3.22,0,0,0,1.83-.46,1.51,1.51,0,0,0,.68-1.32,1.17,1.17,0,0,0-.18-.67,1.56,1.56,0,0,0-.54-.46,4.21,4.21,0,0,0-.89-.36c-.36-.1-.78-.21-1.25-.32a14.36,14.36,0,0,1-1.42-.4,4.46,4.46,0,0,1-1-.45,1.66,1.66,0,0,1-.58-.63,2,2,0,0,1-.19-.94,2.72,2.72,0,0,1,.28-1.26,2.68,2.68,0,0,1,.77-.9,3.38,3.38,0,0,1,1.13-.54,5.09,5.09,0,0,1,1.37-.18,5.3,5.3,0,0,1,2,.36,3.86,3.86,0,0,1,1.44.93l-.6.73a3.44,3.44,0,0,0-1.29-.82,4.63,4.63,0,0,0-1.57-.27,3.73,3.73,0,0,0-.91.1,2.16,2.16,0,0,0-.74.32,1.55,1.55,0,0,0-.5.55,1.69,1.69,0,0,0-.19.8,1.39,1.39,0,0,0,.13.62,1.18,1.18,0,0,0,.42.41,3.75,3.75,0,0,0,.74.31c.3.09.66.18,1.08.28.61.15,1.15.29,1.61.44a4.56,4.56,0,0,1,1.15.51,2,2,0,0,1,.71.71,2.13,2.13,0,0,1,.23,1,2.48,2.48,0,0,1-1,2.08A4.35,4.35,0,0,1,90.11,116.54Z" transform="translate(-0.6 -0.71)"/><path class="cls-3" d="M99.88,116.54a4.5,4.5,0,0,1-1.89-.39,4.58,4.58,0,0,1-1.49-1.07,4.82,4.82,0,0,1-1-1.56,5.21,5.21,0,0,1,0-3.78A4.87,4.87,0,0,1,98,107.1a4.37,4.37,0,0,1,1.88-.4,4.42,4.42,0,0,1,1.89.4,4.87,4.87,0,0,1,1.49,1.08,5.06,5.06,0,0,1,1,1.56,5.25,5.25,0,0,1,.35,1.9,5,5,0,0,1-.35,1.88,4.82,4.82,0,0,1-1,1.56,4.68,4.68,0,0,1-1.49,1.07A4.63,4.63,0,0,1,99.88,116.54Zm-3.44-4.88a4,4,0,0,0,.27,1.48,4,4,0,0,0,.74,1.21,3.49,3.49,0,0,0,1.09.81,3.23,3.23,0,0,0,1.34.29,3.06,3.06,0,0,0,1.34-.3,3.56,3.56,0,0,0,1.1-.82,3.85,3.85,0,0,0,.75-1.21,4.12,4.12,0,0,0,.27-1.5,4.05,4.05,0,0,0-.27-1.48,3.83,3.83,0,0,0-.75-1.23,3.38,3.38,0,0,0-1.1-.81,2.93,2.93,0,0,0-1.34-.31,2.89,2.89,0,0,0-1.33.31,3.33,3.33,0,0,0-1.09.82,4.06,4.06,0,0,0-.75,1.23A4.17,4.17,0,0,0,96.44,111.66Z" transform="translate(-0.6 -0.71)"/><path class="cls-3" d="M106.73,103.06H108v11.15a1.16,1.16,0,0,0,.29.83,1.1,1.1,0,0,0,.82.3,2.24,2.24,0,0,0,.48-.06,2.73,2.73,0,0,0,.51-.14l.22,1a4,4,0,0,1-.85.24,5,5,0,0,1-.87.09,1.82,1.82,0,0,1-1.34-.48,1.84,1.84,0,0,1-.5-1.36Z" transform="translate(-0.6 -0.71)"/><path class="cls-3" d="M114.61,116.54a2.66,2.66,0,0,1-2.31-1,5.18,5.18,0,0,1-.76-3.07v-5.58h1.24v5.36c0,2.15.74,3.23,2.21,3.23a3.29,3.29,0,0,0,1.07-.18,3.57,3.57,0,0,0,1-.53,4.45,4.45,0,0,0,.8-.82,4,4,0,0,0,.57-1.08v-6h1.24v7.9c0,.34.15.51.44.51v1.09a3.12,3.12,0,0,1-.35,0h-.2a1.06,1.06,0,0,1-.71-.31,1.13,1.13,0,0,1-.27-.79v-1.09a4.37,4.37,0,0,1-1.69,1.72A4.43,4.43,0,0,1,114.61,116.54Z" transform="translate(-0.6 -0.71)"/><path class="cls-3" d="M127,115.9l-.32.15-.49.18a6,6,0,0,1-.62.17,4.21,4.21,0,0,1-.73.07,2.74,2.74,0,0,1-.76-.11,1.79,1.79,0,0,1-.64-.34,1.68,1.68,0,0,1-.44-.57,2,2,0,0,1-.16-.8v-6.8h-1.31v-1h1.31v-3.2h1.24v3.2h2.19v1H124.1v6.45a1,1,0,0,0,.37.77,1.27,1.27,0,0,0,.78.25,2.45,2.45,0,0,0,.93-.17c.26-.12.43-.2.51-.25Z" transform="translate(-0.6 -0.71)"/><path class="cls-3" d="M128.56,104.88v-1.82h1.24v1.82Zm0,11.48v-9.5h1.24v9.5Z" transform="translate(-0.6 -0.71)"/><path class="cls-3" d="M136.58,116.54a4.5,4.5,0,0,1-1.89-.39,4.68,4.68,0,0,1-1.49-1.07,4.82,4.82,0,0,1-1-1.56,5.23,5.23,0,0,1-.35-1.88,5.06,5.06,0,0,1,.36-1.9,4.85,4.85,0,0,1,1-1.56,4.75,4.75,0,0,1,1.49-1.08,4.3,4.3,0,0,1,1.87-.4,4.42,4.42,0,0,1,1.89.4,4.75,4.75,0,0,1,1.49,1.08,5.06,5.06,0,0,1,1,1.56,5.35,5.35,0,0,1,0,3.78,4.85,4.85,0,0,1-1,1.56,4.68,4.68,0,0,1-1.49,1.07A4.63,4.63,0,0,1,136.58,116.54Zm-3.44-4.88a4,4,0,0,0,.27,1.48,4,4,0,0,0,.74,1.21,3.49,3.49,0,0,0,1.09.81,3.23,3.23,0,0,0,1.34.29,3.06,3.06,0,0,0,1.34-.3,3.56,3.56,0,0,0,1.1-.82,3.85,3.85,0,0,0,.75-1.21,4.12,4.12,0,0,0,.27-1.5,4.05,4.05,0,0,0-.27-1.48,3.83,3.83,0,0,0-.75-1.23,3.38,3.38,0,0,0-1.1-.81,3,3,0,0,0-2.67,0,3.33,3.33,0,0,0-1.09.82,4.06,4.06,0,0,0-.75,1.23A4.17,4.17,0,0,0,133.14,111.66Z" transform="translate(-0.6 -0.71)"/><path class="cls-3" d="M151.36,116.36h-1.24v-5.3a4.57,4.57,0,0,0-.5-2.46,1.71,1.71,0,0,0-1.54-.77,3.22,3.22,0,0,0-1.09.2,3.6,3.6,0,0,0-1,.57,4.24,4.24,0,0,0-.83.86,3.34,3.34,0,0,0-.53,1.09v5.81h-1.24v-9.5h1.13V109a4.35,4.35,0,0,1,1.67-1.68,4.52,4.52,0,0,1,2.36-.64,2.87,2.87,0,0,1,1.33.29,2.36,2.36,0,0,1,.87.82,3.91,3.91,0,0,1,.48,1.3,9.7,9.7,0,0,1,.14,1.69Z" transform="translate(-0.6 -0.71)"/><path class="cls-3" d="M13,84.44V71.5h1.27V84.44Z" transform="translate(-0.6 -0.71)"/><path class="cls-3" d="M21.78,84l-.32.14-.49.18a4.23,4.23,0,0,1-.62.17,3.38,3.38,0,0,1-.72.07,2.76,2.76,0,0,1-.77-.11,1.65,1.65,0,0,1-.64-.34,1.68,1.68,0,0,1-.44-.57,2,2,0,0,1-.16-.8v-6.8H16.31V75h1.31V71.74h1.24V75h2.19v1H18.86v6.45a1,1,0,0,0,.37.78,1.33,1.33,0,0,0,.78.24,2.27,2.27,0,0,0,.93-.17c.26-.12.43-.2.51-.25Z" transform="translate(-0.6 -0.71)"/><path class="cls-3" d="M27.19,84.62a4.63,4.63,0,0,1-1.91-.39,4.77,4.77,0,0,1-2.49-2.65,5,5,0,0,1-.36-1.91,5,5,0,0,1,.36-1.89,4.81,4.81,0,0,1,1-1.55,4.91,4.91,0,0,1,1.5-1.06,4.65,4.65,0,0,1,1.9-.39,4.55,4.55,0,0,1,1.9.39,4.62,4.62,0,0,1,1.49,1.07,5.27,5.27,0,0,1,1,1.55,5,5,0,0,1,.34,1.86v.29a.5.5,0,0,1,0,.2H23.73a3.85,3.85,0,0,0,.35,1.41,3.75,3.75,0,0,0,.78,1.12,3.35,3.35,0,0,0,2.38,1A3.63,3.63,0,0,0,29,83.2a2.58,2.58,0,0,0,.69-.54,2.19,2.19,0,0,0,.48-.7l1.07.29a2.88,2.88,0,0,1-.62,1,3.83,3.83,0,0,1-.93.75,4.45,4.45,0,0,1-1.16.49A4.9,4.9,0,0,1,27.19,84.62Zm3.5-5.43a3.91,3.91,0,0,0-1.12-2.48A3.43,3.43,0,0,0,28.49,76a3.34,3.34,0,0,0-1.3-.25,3.41,3.41,0,0,0-2.4,1,3.57,3.57,0,0,0-.75,1.1,4.17,4.17,0,0,0-.33,1.38Z" transform="translate(-0.6 -0.71)"/><path class="cls-3" d="M38.52,76a4,4,0,0,0-2.18.69A3.54,3.54,0,0,0,35,78.54v5.9H33.78V75H35v2.28a4.4,4.4,0,0,1,1.42-1.72,3.35,3.35,0,0,1,1.92-.62l.23,0Z" transform="translate(-0.6 -0.71)"/><path class="cls-3" d="M42.44,84.62a3.42,3.42,0,0,1-1.25-.22,3.33,3.33,0,0,1-1-.63,2.88,2.88,0,0,1-.9-2.1,2.42,2.42,0,0,1,.29-1.15,2.82,2.82,0,0,1,.82-.91A4.08,4.08,0,0,1,41.66,79a5.74,5.74,0,0,1,1.6-.21,8.3,8.3,0,0,1,1.48.13,6.57,6.57,0,0,1,1.33.36v-.85a2.78,2.78,0,0,0-.71-2,2.62,2.62,0,0,0-2-.74,4.29,4.29,0,0,0-1.5.29,7.58,7.58,0,0,0-1.54.84L39.91,76a6.47,6.47,0,0,1,3.57-1.24,3.84,3.84,0,0,1,2.81,1,3.69,3.69,0,0,1,1,2.77v4.28q0,.51.45.51v1.09a2.59,2.59,0,0,1-.47.06,1.06,1.06,0,0,1-.74-.24.88.88,0,0,1-.28-.66l0-.74a4.41,4.41,0,0,1-1.65,1.31A5.1,5.1,0,0,1,42.44,84.62Zm.29-.94a4.33,4.33,0,0,0,1.78-.37,2.88,2.88,0,0,0,1.23-1A1.23,1.23,0,0,0,46,82a1,1,0,0,0,.08-.36V80.09a8,8,0,0,0-1.29-.37,7.53,7.53,0,0,0-1.35-.13,3.84,3.84,0,0,0-2.14.55,1.69,1.69,0,0,0-.82,1.44,1.89,1.89,0,0,0,.18.82,2,2,0,0,0,.47.67,2.36,2.36,0,0,0,.72.44A2.43,2.43,0,0,0,42.73,83.68Z" transform="translate(-0.6 -0.71)"/><path class="cls-3" d="M54.47,84l-.32.14-.48.18a4.61,4.61,0,0,1-.62.17,3.48,3.48,0,0,1-.73.07,2.81,2.81,0,0,1-.77-.11,1.72,1.72,0,0,1-.64-.34,1.65,1.65,0,0,1-.43-.57,1.85,1.85,0,0,1-.17-.8v-6.8H49V75h1.31V71.74h1.24V75h2.19v1H51.55v6.45a1,1,0,0,0,.38.78,1.28,1.28,0,0,0,.77.24,2.27,2.27,0,0,0,.93-.17,4,4,0,0,0,.51-.25Z" transform="translate(-0.6 -0.71)"/><path class="cls-3" d="M56,73V71.14h1.24V73Zm0,11.48V75h1.24v9.49Z" transform="translate(-0.6 -0.71)"/><path class="cls-3" d="M64,84.62a4.52,4.52,0,0,1-3.38-1.45,4.9,4.9,0,0,1-1-1.57,5.19,5.19,0,0,1-.35-1.88,5.13,5.13,0,0,1,1.34-3.46,4.87,4.87,0,0,1,1.49-1.08,4.46,4.46,0,0,1,1.88-.4,4.53,4.53,0,0,1,1.88.4,4.8,4.8,0,0,1,1.5,1.08,5.15,5.15,0,0,1,1,1.57,5,5,0,0,1,.36,1.89,5.19,5.19,0,0,1-.35,1.88,4.9,4.9,0,0,1-1,1.57,4.45,4.45,0,0,1-1.49,1.06A4.58,4.58,0,0,1,64,84.62Zm-3.45-4.88a4.07,4.07,0,0,0,.27,1.49,4.31,4.31,0,0,0,.74,1.2,3.53,3.53,0,0,0,1.1.81,3.2,3.2,0,0,0,1.34.29,3,3,0,0,0,1.33-.3,3.56,3.56,0,0,0,1.11-.82,4,4,0,0,0,.74-1.21,4.1,4.1,0,0,0,0-3A3.83,3.83,0,0,0,66.48,77a3.56,3.56,0,0,0-1.11-.82,3,3,0,0,0-1.33-.3,3,3,0,0,0-1.33.3,3.4,3.4,0,0,0-1.1.83,4.22,4.22,0,0,0-.75,1.23A4.12,4.12,0,0,0,60.59,79.74Z" transform="translate(-0.6 -0.71)"/><path class="cls-3" d="M78.81,84.44H77.58v-5.3a4.56,4.56,0,0,0-.51-2.46,1.7,1.7,0,0,0-1.54-.77,3.27,3.27,0,0,0-1.09.2,4,4,0,0,0-1,.57,4.24,4.24,0,0,0-.83.86,3.55,3.55,0,0,0-.53,1.09v5.81H70.83V75H72V77.1a4.49,4.49,0,0,1,1.67-1.68A4.62,4.62,0,0,1,76,74.78a2.72,2.72,0,0,1,1.33.3,2.15,2.15,0,0,1,.87.82,3.77,3.77,0,0,1,.48,1.29,8.82,8.82,0,0,1,.14,1.69Z" transform="translate(-0.6 -0.71)"/><path class="cls-3" d="M89.8,71.5h1.08l5.37,12.94H94.91l-1.68-4H87.42l-1.66,4H84.39Zm3.14,7.89L90.33,73l-2.64,6.39Z" transform="translate(-0.6 -0.71)"/><path class="cls-3" d="M112,84.44h-1.24v-5.3a4.44,4.44,0,0,0-.53-2.44,1.74,1.74,0,0,0-1.56-.79,2.7,2.7,0,0,0-1,.2,3.42,3.42,0,0,0-.9.57,4.06,4.06,0,0,0-.72.86,4.58,4.58,0,0,0-.47,1.11v5.79h-1.24v-5.3a4.56,4.56,0,0,0-.51-2.46,1.76,1.76,0,0,0-1.57-.77,2.79,2.79,0,0,0-1.91.75,4.11,4.11,0,0,0-1.2,2v5.81H97.86V75H99V77.1a4.55,4.55,0,0,1,1.53-1.71,3.84,3.84,0,0,1,2.09-.61,2.71,2.71,0,0,1,1.93.68,2.94,2.94,0,0,1,.88,1.77,4.07,4.07,0,0,1,3.66-2.45,2.82,2.82,0,0,1,1.36.3,2.27,2.27,0,0,1,.89.82,3.92,3.92,0,0,1,.5,1.3,8.6,8.6,0,0,1,.15,1.68Z" transform="translate(-0.6 -0.71)"/><path class="cls-3" d="M118.65,84.62a4.52,4.52,0,0,1-3.38-1.45,5.08,5.08,0,0,1-1-1.57,5.32,5.32,0,0,1,0-3.77,5,5,0,0,1,1-1.57,4.83,4.83,0,0,1,1.48-1.08,4.49,4.49,0,0,1,1.88-.4,4.57,4.57,0,0,1,1.89.4A4.87,4.87,0,0,1,122,76.26a4.79,4.79,0,0,1,1,1.57,5,5,0,0,1,.36,1.89A5.19,5.19,0,0,1,123,81.6a4.87,4.87,0,0,1-1,1.57,4.61,4.61,0,0,1-3.4,1.45Zm-3.44-4.88a3.94,3.94,0,0,0,1,2.69,3.49,3.49,0,0,0,1.09.81,3.23,3.23,0,0,0,1.34.29,3.09,3.09,0,0,0,1.34-.3,3.41,3.41,0,0,0,1.1-.82,3.85,3.85,0,0,0,.75-1.21,4.25,4.25,0,0,0,0-3,3.68,3.68,0,0,0-.75-1.22,3.41,3.41,0,0,0-1.1-.82,3.09,3.09,0,0,0-1.34-.3,3,3,0,0,0-1.33.3,3.37,3.37,0,0,0-1.09.83,3.83,3.83,0,0,0-.75,1.23A4.12,4.12,0,0,0,115.21,79.74Z" transform="translate(-0.6 -0.71)"/><path class="cls-3" d="M128.42,84.62a2.67,2.67,0,0,1-2.31-1,5.18,5.18,0,0,1-.75-3.07V75h1.24v5.36c0,2.15.73,3.22,2.2,3.22a3.3,3.3,0,0,0,2-.71,3.89,3.89,0,0,0,.8-.82,4.41,4.41,0,0,0,.58-1.07V75h1.24v7.89c0,.34.14.51.43.51v1.09a1.7,1.7,0,0,1-.35,0h-.19a1,1,0,0,1-.71-.31,1.08,1.08,0,0,1-.28-.78v-1.1A4.35,4.35,0,0,1,130.69,84,4.47,4.47,0,0,1,128.42,84.62Z" transform="translate(-0.6 -0.71)"/><path class="cls-3" d="M144.25,84.44H143v-5.3a4.57,4.57,0,0,0-.5-2.46,1.7,1.7,0,0,0-1.54-.77,3.22,3.22,0,0,0-1.09.2,3.87,3.87,0,0,0-1,.57,4.24,4.24,0,0,0-.83.86,3.55,3.55,0,0,0-.53,1.09v5.81h-1.24V75h1.13V77.1a4.49,4.49,0,0,1,1.67-1.68,4.62,4.62,0,0,1,2.36-.64,2.75,2.75,0,0,1,1.33.3,2.21,2.21,0,0,1,.87.82,3.77,3.77,0,0,1,.48,1.29,9.7,9.7,0,0,1,.14,1.69Z" transform="translate(-0.6 -0.71)"/><path class="cls-3" d="M151.36,84l-.32.14-.48.18a4.23,4.23,0,0,1-.62.17,3.41,3.41,0,0,1-.73.07,2.68,2.68,0,0,1-.76-.11,1.58,1.58,0,0,1-.64-.34,1.56,1.56,0,0,1-.44-.57,1.84,1.84,0,0,1-.16-.8v-6.8h-1.32V75h1.32V71.74h1.24V75h2.18v1h-2.18v6.45a1,1,0,0,0,.37.78,1.28,1.28,0,0,0,.77.24,2.27,2.27,0,0,0,.93-.17A4,4,0,0,0,151,83Z" transform="translate(-0.6 -0.71)"/><path class="cls-3" d="M49.91,50.67V37.74H54.3a6.65,6.65,0,0,1,2.71.51,5.48,5.48,0,0,1,1.93,1.38,5.77,5.77,0,0,1,1.17,2,7.9,7.9,0,0,1,.39,2.51,7.56,7.56,0,0,1-.44,2.67,5.51,5.51,0,0,1-3.19,3.35,6.76,6.76,0,0,1-2.57.46Zm9.32-6.48a6.62,6.62,0,0,0-.33-2.14,4.84,4.84,0,0,0-1-1.69,4.3,4.3,0,0,0-1.54-1.1,5.31,5.31,0,0,0-2.1-.39H51.19V49.54H54.3a5.09,5.09,0,0,0,2.13-.41A4.37,4.37,0,0,0,58,48a5.06,5.06,0,0,0,.94-1.69A6.88,6.88,0,0,0,59.23,44.19Z" transform="translate(-0.6 -0.71)"/><path class="cls-3" d="M65.07,50.86a3.37,3.37,0,0,1-1.24-.23,3.08,3.08,0,0,1-1-.63,3,3,0,0,1-.66-.94,2.8,2.8,0,0,1-.24-1.16,2.36,2.36,0,0,1,.29-1.14,2.74,2.74,0,0,1,.82-.91,4.09,4.09,0,0,1,1.26-.6A5.81,5.81,0,0,1,65.9,45a9.33,9.33,0,0,1,1.47.13,6.56,6.56,0,0,1,1.33.37v-.86a2.79,2.79,0,0,0-.71-2A2.6,2.6,0,0,0,66,42a4.06,4.06,0,0,0-1.49.29,6.77,6.77,0,0,0-1.55.84l-.44-.82A6.4,6.4,0,0,1,66.11,41a3.83,3.83,0,0,1,2.81,1,3.71,3.71,0,0,1,1,2.77v4.28c0,.34.15.51.46.51v1.09a2.79,2.79,0,0,1-.48.06,1.08,1.08,0,0,1-.74-.24.89.89,0,0,1-.28-.65l0-.75a4.31,4.31,0,0,1-1.65,1.31A5.19,5.19,0,0,1,65.07,50.86Zm.3-1a4.16,4.16,0,0,0,1.77-.37,2.88,2.88,0,0,0,1.23-1,1.23,1.23,0,0,0,.25-.36.93.93,0,0,0,.08-.35V46.32A7.84,7.84,0,0,0,67.42,46a7.73,7.73,0,0,0-1.36-.12,3.78,3.78,0,0,0-2.13.54,1.67,1.67,0,0,0-.82,1.44,1.88,1.88,0,0,0,.17.82,2.13,2.13,0,0,0,.47.67,2.18,2.18,0,0,0,.72.44A2.44,2.44,0,0,0,65.37,49.91Z" transform="translate(-0.6 -0.71)"/><path class="cls-3" d="M77.1,50.22l-.32.14a3.69,3.69,0,0,1-.48.19,6.15,6.15,0,0,1-.62.16,3.41,3.41,0,0,1-.73.07,2.37,2.37,0,0,1-.76-.11,1.69,1.69,0,0,1-.64-.33,1.72,1.72,0,0,1-.44-.58A1.81,1.81,0,0,1,73,49v-6.8H71.64v-1H73V38h1.24v3.21h2.18v1H74.19v6.46a1,1,0,0,0,.37.77,1.3,1.3,0,0,0,.77.24,2.21,2.21,0,0,0,.93-.17,3.18,3.18,0,0,0,.51-.24Z" transform="translate(-0.6 -0.71)"/><path class="cls-3" d="M81,50.86a3.39,3.39,0,0,1-1.25-.23,3,3,0,0,1-1-.63,2.84,2.84,0,0,1-.67-.94,3,3,0,0,1-.23-1.16,2.25,2.25,0,0,1,.29-1.14,2.54,2.54,0,0,1,.82-.91,3.88,3.88,0,0,1,1.26-.6,5.74,5.74,0,0,1,1.6-.21,9.23,9.23,0,0,1,1.47.13,6.38,6.38,0,0,1,1.33.37v-.86a2.75,2.75,0,0,0-.71-2A2.59,2.59,0,0,0,82,42a4.07,4.07,0,0,0-1.5.29,7,7,0,0,0-1.55.84l-.43-.82A6.35,6.35,0,0,1,82.08,41a3.81,3.81,0,0,1,2.8,1,3.71,3.71,0,0,1,1,2.77v4.28c0,.34.16.51.46.51v1.09a2.7,2.7,0,0,1-.47.06,1,1,0,0,1-.74-.24.86.86,0,0,1-.28-.65l0-.75a4.31,4.31,0,0,1-1.65,1.31A5.14,5.14,0,0,1,81,50.86Zm.29-1a4.2,4.2,0,0,0,1.78-.37,2.88,2.88,0,0,0,1.23-1,1,1,0,0,0,.24-.36.77.77,0,0,0,.08-.35V46.32A7.84,7.84,0,0,0,83.38,46,7.64,7.64,0,0,0,82,45.83a3.82,3.82,0,0,0-2.13.54,1.67,1.67,0,0,0-.82,1.44,2,2,0,0,0,.17.82,2.1,2.1,0,0,0,1.2,1.11A2.39,2.39,0,0,0,81.33,49.91Z" transform="translate(-0.6 -0.71)"/><path class="cls-3" d="M91.74,50.86a6.64,6.64,0,0,1-2.17-.37,5,5,0,0,1-1.82-1.06l.56-.83a6.36,6.36,0,0,0,1.63,1,4.77,4.77,0,0,0,1.78.33,3.22,3.22,0,0,0,1.83-.47,1.51,1.51,0,0,0,.68-1.32,1.14,1.14,0,0,0-.18-.66,1.58,1.58,0,0,0-.54-.47,4,4,0,0,0-.89-.35c-.36-.11-.77-.21-1.25-.32s-1-.27-1.42-.4a4.6,4.6,0,0,1-1-.46,1.69,1.69,0,0,1-.59-.63,2.15,2.15,0,0,1-.19-.94,2.77,2.77,0,0,1,.28-1.25,2.5,2.5,0,0,1,.77-.9,3.38,3.38,0,0,1,1.13-.54A5.11,5.11,0,0,1,91.74,41a5.25,5.25,0,0,1,2,.35,3.88,3.88,0,0,1,1.44.94l-.6.73a3.24,3.24,0,0,0-1.28-.82A4.68,4.68,0,0,0,91.7,42a3.73,3.73,0,0,0-.91.1,2.14,2.14,0,0,0-.74.31,1.56,1.56,0,0,0-.68,1.35,1.37,1.37,0,0,0,.12.62,1.1,1.1,0,0,0,.42.41,3.23,3.23,0,0,0,.74.31c.3.09.66.19,1.09.28.6.15,1.14.3,1.6.44a5.51,5.51,0,0,1,1.16.51,2.06,2.06,0,0,1,.7.71,2,2,0,0,1,.24,1,2.47,2.47,0,0,1-1,2.08A4.32,4.32,0,0,1,91.74,50.86Z" transform="translate(-0.6 -0.71)"/><path class="cls-3" d="M101.56,50.86a4.48,4.48,0,0,1-1.91-.4,4.68,4.68,0,0,1-1.5-1.07,4.8,4.8,0,0,1-1-1.58,5,5,0,0,1-.36-1.91A5,5,0,0,1,97.16,44a4.81,4.81,0,0,1,1-1.55,4.72,4.72,0,0,1,1.5-1.05,4.65,4.65,0,0,1,1.9-.39,4.55,4.55,0,0,1,1.9.39,4.45,4.45,0,0,1,1.49,1.06,5.27,5.27,0,0,1,1,1.55,5.07,5.07,0,0,1,.34,1.86v.29a.48.48,0,0,1,0,.2H98.1a4,4,0,0,0,.35,1.42,3.88,3.88,0,0,0,.78,1.12,3.33,3.33,0,0,0,1.08.73,3.19,3.19,0,0,0,1.3.27,3.13,3.13,0,0,0,.91-.13,3.16,3.16,0,0,0,.84-.35,2.76,2.76,0,0,0,.69-.53,2.3,2.3,0,0,0,.48-.7l1.07.29a2.94,2.94,0,0,1-.62.95,3.83,3.83,0,0,1-.93.75,4.45,4.45,0,0,1-1.16.49A4.91,4.91,0,0,1,101.56,50.86Zm3.5-5.43a4,4,0,0,0-.36-1.4,3.68,3.68,0,0,0-.76-1.08,3.27,3.27,0,0,0-1.08-.71,3.35,3.35,0,0,0-1.3-.26,3.4,3.4,0,0,0-1.31.26,3.21,3.21,0,0,0-1.09.71A3.53,3.53,0,0,0,98.41,44a4.23,4.23,0,0,0-.33,1.39Z" transform="translate(-0.6 -0.71)"/><path class="cls-3" d="M112.64,50.22l-.32.14a3.69,3.69,0,0,1-.48.19c-.19.06-.39.11-.62.16a3.54,3.54,0,0,1-.73.07,2.43,2.43,0,0,1-.77-.11,1.86,1.86,0,0,1-.64-.33,1.69,1.69,0,0,1-.43-.58,1.81,1.81,0,0,1-.17-.8v-6.8h-1.31v-1h1.31V38h1.24v3.21h2.19v1h-2.19v6.46a1,1,0,0,0,.38.77,1.28,1.28,0,0,0,.77.24,2.27,2.27,0,0,0,.93-.17,3.18,3.18,0,0,0,.51-.24Z" transform="translate(-0.6 -0.71)"/><path class="cls-3" d="M126.65,40.16a3.86,3.86,0,0,0-1.46-1,5.2,5.2,0,0,0-2.07-.39,3.9,3.9,0,0,0-2.5.65,2.17,2.17,0,0,0-.78,1.76,2.07,2.07,0,0,0,.2,1,1.81,1.81,0,0,0,.65.64,4.53,4.53,0,0,0,1.12.48c.46.13,1,.26,1.62.4a16.56,16.56,0,0,1,1.86.49,5.36,5.36,0,0,1,1.42.68,2.76,2.76,0,0,1,1.2,2.45,3.25,3.25,0,0,1-.35,1.55,3.16,3.16,0,0,1-1,1.1,4.43,4.43,0,0,1-1.48.64,7.9,7.9,0,0,1-1.88.21,7.72,7.72,0,0,1-5.19-1.87l.64-1a4.9,4.9,0,0,0,.83.69,5.72,5.72,0,0,0,1.07.57,6.47,6.47,0,0,0,1.27.39,7.21,7.21,0,0,0,1.42.13,4.43,4.43,0,0,0,2.41-.55,2.11,2.11,0,0,0,.62-2.7,2.16,2.16,0,0,0-.73-.71,5.48,5.48,0,0,0-1.23-.52c-.48-.14-1-.29-1.69-.44a17.83,17.83,0,0,1-1.79-.49,4.57,4.57,0,0,1-1.29-.64,2.39,2.39,0,0,1-.79-.92,2.9,2.9,0,0,1-.27-1.32,3.71,3.71,0,0,1,.34-1.59,3.12,3.12,0,0,1,1-1.17,4.42,4.42,0,0,1,1.46-.71,6.62,6.62,0,0,1,1.85-.25,6.35,6.35,0,0,1,2.31.4,6.12,6.12,0,0,1,1.83,1.1Z" transform="translate(-0.6 -0.71)"/><path class="cls-3" d="M129.89,39.19V37.37h1.24v1.82Zm0,11.48V41.18h1.24v9.49Z" transform="translate(-0.6 -0.71)"/><path class="cls-3" d="M133.07,49.84l6.41-7.73h-6.27v-.93h7.62V42l-6.4,7.72h6.38v.93h-7.74Z" transform="translate(-0.6 -0.71)"/><path class="cls-3" d="M146.68,50.86a4.48,4.48,0,0,1-1.91-.4,4.68,4.68,0,0,1-1.5-1.07,4.8,4.8,0,0,1-1-1.58,5,5,0,0,1-.36-1.91,5,5,0,0,1,.36-1.89,4.81,4.81,0,0,1,1-1.55,4.72,4.72,0,0,1,1.5-1.05,4.65,4.65,0,0,1,1.9-.39,4.55,4.55,0,0,1,1.9.39,4.45,4.45,0,0,1,1.49,1.06A5.27,5.27,0,0,1,151,44a5.07,5.07,0,0,1,.34,1.86v.29a.48.48,0,0,1,0,.2h-8.12a4,4,0,0,0,.35,1.42,3.88,3.88,0,0,0,.78,1.12,3.33,3.33,0,0,0,1.08.73,3.19,3.19,0,0,0,1.3.27,3.13,3.13,0,0,0,.91-.13,3.16,3.16,0,0,0,.84-.35,3,3,0,0,0,.7-.53,2.46,2.46,0,0,0,.47-.7l1.07.29a2.94,2.94,0,0,1-.62.95,4,4,0,0,1-.92.75,4.67,4.67,0,0,1-1.17.49A4.91,4.91,0,0,1,146.68,50.86Zm3.5-5.43a4,4,0,0,0-.36-1.4,3.68,3.68,0,0,0-.76-1.08,3.27,3.27,0,0,0-1.08-.71,3.35,3.35,0,0,0-1.3-.26,3.4,3.4,0,0,0-1.31.26,3.21,3.21,0,0,0-1.09.71,3.53,3.53,0,0,0-.75,1.09,4.23,4.23,0,0,0-.33,1.39Z" transform="translate(-0.6 -0.71)"/><path class="cls-3" d="M75,2H76.1L81.48,15H80.13l-1.68-4.05H72.64L71,15H69.61Zm3.13,7.89-2.61-6.4-2.64,6.4Z" transform="translate(-0.6 -0.71)"/><path class="cls-3" d="M83.13,1.66h1.24V12.82a1.18,1.18,0,0,0,.29.83,1.11,1.11,0,0,0,.83.3,2.23,2.23,0,0,0,.47-.06,3.8,3.8,0,0,0,.51-.14l.22,1a4.68,4.68,0,0,1-.85.23,4.22,4.22,0,0,1-.87.1,1.78,1.78,0,0,1-1.34-.49,1.8,1.8,0,0,1-.5-1.36Z" transform="translate(-0.6 -0.71)"/><path class="cls-3" d="M91.85,15.09a3.85,3.85,0,0,1-1.8-.41,4.49,4.49,0,0,1-1.4-1.08,4.94,4.94,0,0,1-.92-1.55,5,5,0,0,1-.33-1.8,5.44,5.44,0,0,1,.32-1.89,4.82,4.82,0,0,1,.9-1.58A4.42,4.42,0,0,1,90,5.71a4,4,0,0,1,1.8-.4,3.62,3.62,0,0,1,2.11.61,5.75,5.75,0,0,1,1.53,1.54v-2h1.11V15a3.84,3.84,0,0,1-.37,1.74,3.69,3.69,0,0,1-1,1.27,4.43,4.43,0,0,1-1.48.77,6.5,6.5,0,0,1-1.79.25,5.17,5.17,0,0,1-2.64-.58,4.71,4.71,0,0,1-1.63-1.57l.77-.6a3.43,3.43,0,0,0,1.49,1.34,4.83,4.83,0,0,0,2,.43,4.33,4.33,0,0,0,1.31-.2,3.09,3.09,0,0,0,1.08-.56,2.6,2.6,0,0,0,.74-.95A3.11,3.11,0,0,0,95.33,15V13.13a4.15,4.15,0,0,1-1.5,1.44A4,4,0,0,1,91.85,15.09Zm.34-1a2.92,2.92,0,0,0,1.08-.21,3.52,3.52,0,0,0,1-.53,3.43,3.43,0,0,0,.72-.76,2.37,2.37,0,0,0,.39-.86V8.77a3.92,3.92,0,0,0-.55-.95A3.63,3.63,0,0,0,94,7.08a4.48,4.48,0,0,0-.94-.5,3,3,0,0,0-1-.18,2.88,2.88,0,0,0-1.43.34,3.39,3.39,0,0,0-1.07.88,4.24,4.24,0,0,0-.67,1.24,4.5,4.5,0,0,0-.22,1.4,4,4,0,0,0,.27,1.46,3.6,3.6,0,0,0,.76,1.21,3.49,3.49,0,0,0,1.12.82A3,3,0,0,0,92.19,14.06Z" transform="translate(-0.6 -0.71)"/><path class="cls-3" d="M103.34,15.15a4.5,4.5,0,0,1-1.89-.39A4.68,4.68,0,0,1,100,13.69a4.77,4.77,0,0,1-1-1.57,5.13,5.13,0,0,1-.35-1.87A5.06,5.06,0,0,1,99,8.35a4.9,4.9,0,0,1,1-1.57,4.84,4.84,0,0,1,1.49-1.07,4.3,4.3,0,0,1,1.87-.4,4.42,4.42,0,0,1,1.89.4,4.62,4.62,0,0,1,1.49,1.07,5.1,5.1,0,0,1,1,1.57,5.25,5.25,0,0,1,.35,1.9,5.12,5.12,0,0,1-.34,1.87,4.79,4.79,0,0,1-1,1.57,4.52,4.52,0,0,1-3.4,1.46ZM99.9,10.26a3.94,3.94,0,0,0,1,2.69,3.3,3.3,0,0,0,1.09.81,3.09,3.09,0,0,0,1.34.3,2.93,2.93,0,0,0,1.34-.31,3.56,3.56,0,0,0,1.11-.82,3.9,3.9,0,0,0,.74-1.21,4.07,4.07,0,0,0,.28-1.49,4.15,4.15,0,0,0-.28-1.49,4.07,4.07,0,0,0-.74-1.22,3.72,3.72,0,0,0-1.11-.82,3.12,3.12,0,0,0-2.67,0,3.63,3.63,0,0,0-1.09.83,4,4,0,0,0-.75,1.23A4.16,4.16,0,0,0,99.9,10.26Z" transform="translate(-0.6 -0.71)"/><path class="cls-3" d="M114.88,6.57a3.85,3.85,0,0,0-2.19.69,3.49,3.49,0,0,0-1.31,1.8V15h-1.24V5.47h1.17V7.75A4.22,4.22,0,0,1,112.73,6a3.23,3.23,0,0,1,1.91-.62.82.82,0,0,1,.24,0Z" transform="translate(-0.6 -0.71)"/><path class="cls-3" d="M116.54,3.49V1.66h1.24V3.49Zm0,11.48V5.47h1.24V15Z" transform="translate(-0.6 -0.71)"/><path class="cls-3" d="M125.07,14.51l-.32.15-.49.18a6.15,6.15,0,0,1-.62.16,3.38,3.38,0,0,1-.72.08,2.76,2.76,0,0,1-.77-.11,2,2,0,0,1-.64-.34,1.68,1.68,0,0,1-.44-.57,2.05,2.05,0,0,1-.16-.81V6.46H119.6v-1h1.31V2.26h1.24V5.47h2.19v1h-2.19v6.45a1,1,0,0,0,.37.77,1.27,1.27,0,0,0,.78.25,2.27,2.27,0,0,0,.93-.18,4.44,4.44,0,0,0,.51-.24Z" transform="translate(-0.6 -0.71)"/><path class="cls-3" d="M134.6,15h-1.24V9.66a4.26,4.26,0,0,0-.56-2.42,1.86,1.86,0,0,0-1.63-.8,2.81,2.81,0,0,0-1,.21,4,4,0,0,0-1,.57,3.86,3.86,0,0,0-.8.86,3.74,3.74,0,0,0-.5,1.07V15h-1.24V1.66h1.24v6a4.33,4.33,0,0,1,1.57-1.69,4,4,0,0,1,2.17-.62,2.87,2.87,0,0,1,1.38.3,2.5,2.5,0,0,1,.93.84,3.58,3.58,0,0,1,.53,1.29,7.87,7.87,0,0,1,.17,1.67Z" transform="translate(-0.6 -0.71)"/><path class="cls-3" d="M151.36,15h-1.24V9.66a4.37,4.37,0,0,0-.53-2.44A1.76,1.76,0,0,0,148,6.44a2.52,2.52,0,0,0-1,.2,3.15,3.15,0,0,0-.9.56,4.12,4.12,0,0,0-.72.87,4.34,4.34,0,0,0-.47,1.1V15h-1.24V9.66a4.56,4.56,0,0,0-.51-2.46,1.75,1.75,0,0,0-1.57-.76,2.79,2.79,0,0,0-1.91.75,4.08,4.08,0,0,0-1.2,2V15h-1.24V5.47h1.13V7.62a4.51,4.51,0,0,1,1.53-1.7A3.76,3.76,0,0,1,142,5.31a2.7,2.7,0,0,1,1.93.67,2.94,2.94,0,0,1,.88,1.77,4.06,4.06,0,0,1,3.66-2.44,2.94,2.94,0,0,1,1.36.29,2.22,2.22,0,0,1,.89.83,4,4,0,0,1,.5,1.29,8.78,8.78,0,0,1,.15,1.69Z" transform="translate(-0.6 -0.71)"/><rect class="cls-4" x="158.32" y="34.29" width="124.58" height="9.12"/><rect class="cls-4" x="158.32" y="43.41" width="124.58" height="9.12"/><rect class="cls-2" x="158.32" y="43.41" width="24.92" height="9.12"/><rect class="cls-1" x="158.32" y="34.29" width="24.92" height="9.12"/><rect class="cls-1" x="158.32" y="101.83" width="124.58" height="9.12"/><rect class="cls-2" x="158.32" y="110.94" width="124.58" height="9.12"/><rect class="cls-4" x="158.32" y="135.59" width="124.58" height="9.12"/><rect class="cls-4" x="158.32" y="144.71" width="124.58" height="9.12"/><rect class="cls-1" x="158.32" y="135.59" width="7.91" height="9.12"/><rect class="cls-2" x="158.32" y="144.71" width="94.9" height="9.12"/><path class="cls-3" d="M170.56,7.25a3,3,0,0,0-1.11-.76,4,4,0,0,0-1.59-.29,3,3,0,0,0-1.9.49,1.65,1.65,0,0,0-.6,1.34,1.44,1.44,0,0,0,.16.73,1.46,1.46,0,0,0,.49.5,4.45,4.45,0,0,0,.86.36q.52.15,1.23.3a13.33,13.33,0,0,1,1.43.38,4,4,0,0,1,1.07.52,2.17,2.17,0,0,1,.69.76,2.41,2.41,0,0,1,.23,1.11,2.57,2.57,0,0,1-.26,1.18,2.38,2.38,0,0,1-.74.84,3.33,3.33,0,0,1-1.13.49,5.8,5.8,0,0,1-1.43.16,5.9,5.9,0,0,1-4-1.43l.48-.79a3.8,3.8,0,0,0,.64.52,4,4,0,0,0,.82.44,4.87,4.87,0,0,0,1,.29,5.52,5.52,0,0,0,1.09.11,3.32,3.32,0,0,0,1.84-.43,1.42,1.42,0,0,0,.66-1.28,1.49,1.49,0,0,0-.18-.77,1.77,1.77,0,0,0-.57-.55,4.07,4.07,0,0,0-.93-.39c-.37-.11-.8-.23-1.29-.34s-1-.24-1.37-.37a3.33,3.33,0,0,1-1-.49,1.94,1.94,0,0,1-.61-.7,2.36,2.36,0,0,1-.2-1A2.7,2.7,0,0,1,164.62,7a2.41,2.41,0,0,1,.73-.89,3.59,3.59,0,0,1,1.11-.54,5.24,5.24,0,0,1,1.42-.19A4.63,4.63,0,0,1,171,6.47Z" transform="translate(-0.6 -0.71)"/><path class="cls-3" d="M176.13,5.4H177l4.1,9.88h-1l-1.28-3.09H174.3L173,15.28h-1Zm2.39,6-2-4.88-2,4.88Z" transform="translate(-0.6 -0.71)"/><path class="cls-3" d="M189.1,14.41v.87h-6.63V5.4H189v.86h-5.54V9.83h4.83v.82h-4.83v3.76Z" transform="translate(-0.6 -0.71)"/><path class="cls-3" d="M198.73,5.4v9.88h-1V10.66h-5.86v4.62h-1V5.4h1V9.8h5.86V5.4Z" transform="translate(-0.6 -0.71)"/><path class="cls-3" d="M201.2,15.28V5.4h3.35a5.1,5.1,0,0,1,2.07.39,4.09,4.09,0,0,1,1.47,1.06A4.38,4.38,0,0,1,209,8.41a6,6,0,0,1,.3,1.92,5.88,5.88,0,0,1-.33,2,4.39,4.39,0,0,1-.95,1.56,4.25,4.25,0,0,1-1.49,1,5.07,5.07,0,0,1-2,.36Zm7.11-4.95a5.32,5.32,0,0,0-.25-1.64,3.75,3.75,0,0,0-.73-1.28,3.17,3.17,0,0,0-1.18-.85,4,4,0,0,0-1.6-.3h-2.37v8.15h2.37a3.87,3.87,0,0,0,1.62-.31,3.31,3.31,0,0,0,1.18-.86,4.06,4.06,0,0,0,.72-1.29A5.29,5.29,0,0,0,208.31,10.33Z" transform="translate(-0.6 -0.71)"/><rect class="cls-5" x="159.28" y="0.54" width="53.51" height="18.21"/><polyline class="cls-6" points="283.22 160.59 283.22 22.18 401.41 22.18"/><path class="cls-4" d="M291,13.48V1.68h4.88a3.17,3.17,0,0,1,1.41.32,3.69,3.69,0,0,1,1.1.85A3.94,3.94,0,0,1,299.07,4a3.54,3.54,0,0,1,.27,1.35,3.94,3.94,0,0,1-.25,1.4,3.74,3.74,0,0,1-.7,1.19,3.5,3.5,0,0,1-1.07.83,3,3,0,0,1-1.39.31h-3.82v4.36Zm1.16-5.39h3.77a2,2,0,0,0,.94-.22,2.24,2.24,0,0,0,.73-.6,2.84,2.84,0,0,0,.46-.86,3.21,3.21,0,0,0,.17-1,3,3,0,0,0-.19-1,2.86,2.86,0,0,0-.52-.86,2.37,2.37,0,0,0-.76-.57,2.13,2.13,0,0,0-.92-.21h-3.68Z" transform="translate(-0.6 -0.71)"/><path class="cls-4" d="M305.37,5.82a3.51,3.51,0,0,0-2,.63,3.17,3.17,0,0,0-1.2,1.64v5.39h-1.13V4.82h1.07V6.9a3.85,3.85,0,0,1,1.29-1.56,3,3,0,0,1,1.75-.57l.21,0Z" transform="translate(-0.6 -0.71)"/><path class="cls-4" d="M310.14,13.64a4,4,0,0,1-3.08-1.33,4.43,4.43,0,0,1-.89-1.42,4.77,4.77,0,0,1-.32-1.72,4.5,4.5,0,0,1,.33-1.72A4.43,4.43,0,0,1,308.43,5a3.89,3.89,0,0,1,1.71-.37,4,4,0,0,1,1.72.37,4.19,4.19,0,0,1,1.36,1,4.4,4.4,0,0,1,.9,1.43,4.5,4.5,0,0,1,.32,1.72,4.76,4.76,0,0,1-.31,1.72,4.43,4.43,0,0,1-.89,1.42,4.08,4.08,0,0,1-3.1,1.33ZM307,9.19a3.49,3.49,0,0,0,.25,1.35,3.68,3.68,0,0,0,.67,1.1,3.14,3.14,0,0,0,1,.74,2.82,2.82,0,0,0,1.22.27,2.7,2.7,0,0,0,1.22-.28,3.21,3.21,0,0,0,1-.75,3.52,3.52,0,0,0,.68-1.1,3.61,3.61,0,0,0,.25-1.36,3.67,3.67,0,0,0-.93-2.47,3.21,3.21,0,0,0-1-.75,2.82,2.82,0,0,0-1.22-.27,2.75,2.75,0,0,0-1.21.27,3.2,3.2,0,0,0-1,.76,3.61,3.61,0,0,0-.68,1.12A3.66,3.66,0,0,0,307,9.19Z" transform="translate(-0.6 -0.71)"/><path class="cls-4" d="M315,16.48a3.82,3.82,0,0,1-1-.14,2.26,2.26,0,0,1-.86-.5l.55-.77a1.39,1.39,0,0,0,.58.32,2.72,2.72,0,0,0,.63.08,1.39,1.39,0,0,0,.57-.12A1.34,1.34,0,0,0,316,15a1.57,1.57,0,0,0,.35-.49,1.39,1.39,0,0,0,.13-.61V4.82h1.13v9a2.61,2.61,0,0,1-.21,1.06,2.91,2.91,0,0,1-.57.83,2.55,2.55,0,0,1-1.76.73ZM316.45,3V1.35h1.13V3Z" transform="translate(-0.6 -0.71)"/><path class="cls-4" d="M323.81,13.64a4.24,4.24,0,0,1-1.73-.35,4.35,4.35,0,0,1-1.37-1,4.69,4.69,0,0,1-.91-1.44,4.81,4.81,0,0,1-.32-1.75A4.48,4.48,0,0,1,320.7,6a4.34,4.34,0,0,1,1.37-1,4.16,4.16,0,0,1,1.73-.36,4.09,4.09,0,0,1,1.73.36,4.17,4.17,0,0,1,1.36,1,4.47,4.47,0,0,1,.88,1.41,4.58,4.58,0,0,1,.31,1.7v.26a.92.92,0,0,1,0,.19h-7.41a3.6,3.6,0,0,0,.32,1.28,3.44,3.44,0,0,0,.71,1,3.33,3.33,0,0,0,1,.67,2.93,2.93,0,0,0,1.18.24,3,3,0,0,0,.84-.12,3.19,3.19,0,0,0,.76-.31,3.33,3.33,0,0,0,.63-.49,2.18,2.18,0,0,0,.43-.64l1,.26a2.92,2.92,0,0,1-.56.88A4.11,4.11,0,0,1,325,13.49,4.85,4.85,0,0,1,323.81,13.64Zm3.2-5a3.72,3.72,0,0,0-.33-1.27,3.35,3.35,0,0,0-.7-1,3.29,3.29,0,0,0-1-.65,3.11,3.11,0,0,0-1.19-.23A3.08,3.08,0,0,0,321,7.43a3.76,3.76,0,0,0-.31,1.26Z" transform="translate(-0.6 -0.71)"/><path class="cls-4" d="M329.23,9.12a4.69,4.69,0,0,1,.32-1.72A4.22,4.22,0,0,1,331.81,5a4.39,4.39,0,0,1,1.76-.35,4,4,0,0,1,2.14.56,3.56,3.56,0,0,1,1.38,1.5l-1.1.35a2.62,2.62,0,0,0-1-1,2.87,2.87,0,0,0-1.45-.37,3,3,0,0,0-1.24.26,3.22,3.22,0,0,0-1.66,1.81,3.93,3.93,0,0,0-.24,1.38,3.72,3.72,0,0,0,.25,1.38,3.24,3.24,0,0,0,.68,1.12,3.17,3.17,0,0,0,1,.75,2.73,2.73,0,0,0,1.22.28,2.92,2.92,0,0,0,.83-.12,3.6,3.6,0,0,0,.75-.32,2.44,2.44,0,0,0,.6-.48,1.46,1.46,0,0,0,.35-.56l1.11.33a2.86,2.86,0,0,1-.53.86,3.67,3.67,0,0,1-.82.68,4.49,4.49,0,0,1-1.05.45,4.68,4.68,0,0,1-1.19.15,4.33,4.33,0,0,1-1.74-.35,4.39,4.39,0,0,1-1.38-1,4.49,4.49,0,0,1-.9-1.44A4.62,4.62,0,0,1,329.23,9.12Z" transform="translate(-0.6 -0.71)"/><path class="cls-4" d="M343.11,13.06l-.3.13a2.7,2.7,0,0,1-.44.17,3.47,3.47,0,0,1-.56.15,3.53,3.53,0,0,1-.67.07,2.61,2.61,0,0,1-.69-.1,1.62,1.62,0,0,1-.58-.31,1.48,1.48,0,0,1-.4-.52,1.7,1.7,0,0,1-.15-.73V5.72h-1.2v-.9h1.2V1.9h1.13V4.82h2v.9h-2V11.6a.89.89,0,0,0,.34.71,1.14,1.14,0,0,0,.7.22,2,2,0,0,0,.85-.16,4.73,4.73,0,0,0,.47-.22Z" transform="translate(-0.6 -0.71)"/><path class="cls-4" d="M349,13.48V1.68h5a3.17,3.17,0,0,1,1.41.32,3.82,3.82,0,0,1,1.1.85A3.91,3.91,0,0,1,357.2,4a3.72,3.72,0,0,1,.26,1.35,3.86,3.86,0,0,1-.19,1.23,4.11,4.11,0,0,1-.53,1.07,3.24,3.24,0,0,1-.82.79,2.84,2.84,0,0,1-1.08.44l2.89,4.56h-1.32l-2.77-4.36h-3.49v4.36Zm1.16-5.39H354a2,2,0,0,0,.94-.22,2.15,2.15,0,0,0,.73-.61,2.84,2.84,0,0,0,.46-.86,3.1,3.1,0,0,0,.17-1,3,3,0,0,0-.19-1,2.81,2.81,0,0,0-.52-.85,2.27,2.27,0,0,0-.76-.58,2,2,0,0,0-.93-.22h-3.75Z" transform="translate(-0.6 -0.71)"/><path class="cls-4" d="M363.09,13.64a4.12,4.12,0,0,1-3.1-1.33,4.69,4.69,0,0,1-.91-1.44,4.61,4.61,0,0,1-.32-1.75,4.5,4.5,0,0,1,.32-1.72A4.71,4.71,0,0,1,360,6a4.34,4.34,0,0,1,1.37-1,4.16,4.16,0,0,1,1.73-.36,4.09,4.09,0,0,1,1.73.36,4.17,4.17,0,0,1,1.36,1,4.66,4.66,0,0,1,.88,1.41,4.58,4.58,0,0,1,.31,1.7v.26a.92.92,0,0,1,0,.19h-7.41a3.6,3.6,0,0,0,.32,1.28,3.44,3.44,0,0,0,.71,1,3.09,3.09,0,0,0,1,.67,3,3,0,0,0,2,.12,3.1,3.1,0,0,0,.77-.31,3.33,3.33,0,0,0,.63-.49,2.18,2.18,0,0,0,.43-.64l1,.26a2.92,2.92,0,0,1-.56.88,4.38,4.38,0,0,1-.85.68,4.57,4.57,0,0,1-1.06.45A4.91,4.91,0,0,1,363.09,13.64Zm3.19-5A3.49,3.49,0,0,0,366,7.42a3.54,3.54,0,0,0-.7-1,3.29,3.29,0,0,0-1-.65,3.19,3.19,0,0,0-2.38,0,3.07,3.07,0,0,0-1.67,1.65,3.76,3.76,0,0,0-.31,1.26Z" transform="translate(-0.6 -0.71)"/><path class="cls-4" d="M371.28,13.64a3.19,3.19,0,0,1-1.13-.2,2.82,2.82,0,0,1-.92-.58,2.61,2.61,0,0,1-.82-1.91,2.16,2.16,0,0,1,.27-1,2.52,2.52,0,0,1,.74-.83,3.82,3.82,0,0,1,1.15-.54A5.55,5.55,0,0,1,372,8.34a7.87,7.87,0,0,1,1.35.12,6.23,6.23,0,0,1,1.21.33V8a2.49,2.49,0,0,0-.65-1.82,2.36,2.36,0,0,0-1.79-.67,3.94,3.94,0,0,0-1.36.26,6.86,6.86,0,0,0-1.42.77L369,5.8a5.89,5.89,0,0,1,3.26-1.13,3.49,3.49,0,0,1,2.56.92,3.36,3.36,0,0,1,.93,2.52V12c0,.31.14.46.42.46v1a3.25,3.25,0,0,1-.44,0,1,1,0,0,1-.67-.22.8.8,0,0,1-.26-.6l0-.68a4,4,0,0,1-1.5,1.2A4.62,4.62,0,0,1,371.28,13.64Zm.27-.86a3.91,3.91,0,0,0,1.62-.33,2.66,2.66,0,0,0,1.12-.88,1,1,0,0,0,.23-.33.77.77,0,0,0,.07-.32V9.51a6.81,6.81,0,0,0-1.17-.34,7.24,7.24,0,0,0-1.24-.11,3.37,3.37,0,0,0-1.94.5,1.51,1.51,0,0,0-.75,1.31,1.78,1.78,0,0,0,.16.75,1.84,1.84,0,0,0,.43.6,2,2,0,0,0,.66.41A2.16,2.16,0,0,0,371.55,12.78Z" transform="translate(-0.6 -0.71)"/><path class="cls-4" d="M377.56,9.12a4.69,4.69,0,0,1,.32-1.72A4.23,4.23,0,0,1,378.77,6a4,4,0,0,1,1.37-1,4.39,4.39,0,0,1,1.76-.35,4,4,0,0,1,2.14.56,3.56,3.56,0,0,1,1.38,1.5l-1.09.35a2.75,2.75,0,0,0-1-1,2.91,2.91,0,0,0-1.46-.37,3.06,3.06,0,0,0-1.24.26A3.31,3.31,0,0,0,379,7.74a3.93,3.93,0,0,0-.24,1.38A3.72,3.72,0,0,0,379,10.5a3.39,3.39,0,0,0,.68,1.12,3.1,3.1,0,0,0,1,.75,2.7,2.7,0,0,0,1.22.28,2.91,2.91,0,0,0,.82-.12,3.94,3.94,0,0,0,.76-.32,2.58,2.58,0,0,0,.59-.48,1.35,1.35,0,0,0,.35-.56l1.12.33a3.08,3.08,0,0,1-.53.86,4,4,0,0,1-.83.68,4.25,4.25,0,0,1-1,.45,4.73,4.73,0,0,1-1.19.15,4.17,4.17,0,0,1-3.13-1.33,4.67,4.67,0,0,1-.9-1.44A4.62,4.62,0,0,1,377.56,9.12Z" transform="translate(-0.6 -0.71)"/><path class="cls-4" d="M394.56,13.48h-1.13V8.64a4,4,0,0,0-.5-2.21,1.72,1.72,0,0,0-1.49-.73,2.73,2.73,0,0,0-1,.19,3.55,3.55,0,0,0-.89.53,3.84,3.84,0,0,0-.72.78,3.12,3.12,0,0,0-.45,1v5.3h-1.14V1.35h1.14V6.78a3.84,3.84,0,0,1,1.42-1.54,3.68,3.68,0,0,1,2-.57,2.55,2.55,0,0,1,1.26.28,2.22,2.22,0,0,1,.85.76,3.4,3.4,0,0,1,.48,1.18,7.19,7.19,0,0,1,.15,1.52Z" transform="translate(-0.6 -0.71)"/><rect class="cls-4" x="158.32" y="68.06" width="124.58" height="9.12"/><rect class="cls-1" x="158.32" y="68.06" width="9.3" height="9.12"/><rect class="cls-2" x="158.32" y="77.17" width="124.58" height="9.12"/><path class="cls-1" d="M297.77,151.9v-2.76h-5.16v-.93l5.5-7.13h.72v7.1h1.36v1h-1.36v2.76Zm-4-3.72h4.15v-5.44Z" transform="translate(-0.6 -0.71)"/><path class="cls-2" d="M309.65,138.93l-7.32,11h-1.19l7.31-11Z" transform="translate(-0.6 -0.71)"/><path class="cls-2" d="M314.06,151.9v-2.76H308.9v-.93l5.5-7.13h.72v7.1h1.36v1h-1.36v2.76Zm-4-3.72h4.15v-5.44Z" transform="translate(-0.6 -0.71)"/><path class="cls-2" d="M325.42,146.88a2.81,2.81,0,0,1-.3,1.31,3.23,3.23,0,0,1-.84,1,3.78,3.78,0,0,1-1.23.64,4.87,4.87,0,0,1-1.48.23,4.37,4.37,0,0,1-1.52-.26,3.55,3.55,0,0,1-1.2-.7,3.06,3.06,0,0,1-.79-1,3,3,0,0,1-.28-1.25,2.45,2.45,0,0,1,.2-1,3,3,0,0,1,.5-.8,3.42,3.42,0,0,1,.71-.6,4.19,4.19,0,0,1,.79-.4,3.56,3.56,0,0,1-.69-.38,2.88,2.88,0,0,1-.58-.52,2.5,2.5,0,0,1-.39-.65,1.91,1.91,0,0,1-.15-.76,2.28,2.28,0,0,1,.31-1.2,3,3,0,0,1,.8-.87,3.66,3.66,0,0,1,1.1-.55,4.36,4.36,0,0,1,1.23-.18,4.26,4.26,0,0,1,1.23.18,3.89,3.89,0,0,1,1.1.54,2.67,2.67,0,0,1,.8.87,2.31,2.31,0,0,1,.31,1.2,2.14,2.14,0,0,1-.14.76,2.51,2.51,0,0,1-.41.66,2.69,2.69,0,0,1-.59.52,3.64,3.64,0,0,1-.7.38,4,4,0,0,1,.85.43,3.56,3.56,0,0,1,.71.63,2.94,2.94,0,0,1,.48.8A2.62,2.62,0,0,1,325.42,146.88Zm-1.06-.08a2,2,0,0,0-.25-1,2.25,2.25,0,0,0-.65-.72,2.92,2.92,0,0,0-.9-.45,3.09,3.09,0,0,0-1-.16,3,3,0,0,0-1,.17,2.79,2.79,0,0,0-.87.46,2.34,2.34,0,0,0-.62.74,2.06,2.06,0,0,0-.23,1,1.87,1.87,0,0,0,.25,1,2.44,2.44,0,0,0,.64.72,3.32,3.32,0,0,0,.88.45,3.4,3.4,0,0,0,1,.15,3,3,0,0,0,1-.16,2.76,2.76,0,0,0,.88-.47,2.56,2.56,0,0,0,.63-.72A2,2,0,0,0,324.36,146.8Zm-5.14-5a1.52,1.52,0,0,0,.22.8,2.1,2.1,0,0,0,.56.59,2.48,2.48,0,0,0,.77.36,3,3,0,0,0,.83.13,3,3,0,0,0,.83-.13,2.39,2.39,0,0,0,.77-.37,2.32,2.32,0,0,0,.57-.6,1.58,1.58,0,0,0,.21-.81,1.46,1.46,0,0,0-.2-.78,1.76,1.76,0,0,0-.53-.59,2.62,2.62,0,0,0-.77-.37,3.37,3.37,0,0,0-.9-.12,2.93,2.93,0,0,0-.88.13,2.63,2.63,0,0,0-.75.37,1.88,1.88,0,0,0-.52.6A1.53,1.53,0,0,0,319.22,141.78Z" transform="translate(-0.6 -0.71)"/><path class="cls-4" d="M335.13,138.93l-7.32,11h-1.19l7.31-11Z" transform="translate(-0.6 -0.71)"/><path class="cls-4" d="M344,146.31a3.69,3.69,0,0,1-.3,1.48,3.76,3.76,0,0,1-2.07,2,3.9,3.9,0,0,1-1.53.3,4,4,0,0,1-1.6-.32,3.42,3.42,0,0,1-1.25-.91,4.15,4.15,0,0,1-.81-1.45,5.79,5.79,0,0,1-.3-1.93,12.67,12.67,0,0,1,.3-2.92,6.35,6.35,0,0,1,.83-2.07,3.44,3.44,0,0,1,1.28-1.24,3.39,3.39,0,0,1,1.65-.4,3.64,3.64,0,0,1,2,.54,3.52,3.52,0,0,1,1.32,1.51l-.68.62a2.75,2.75,0,0,0-2.61-1.74,2.42,2.42,0,0,0-1.24.33,2.9,2.9,0,0,0-.95.93,5.19,5.19,0,0,0-.62,1.52,8.31,8.31,0,0,0-.22,2,2.85,2.85,0,0,1,1.17-1.46,3.36,3.36,0,0,1,1.88-.54,3.75,3.75,0,0,1,2.68,1.07,3.92,3.92,0,0,1,.81,1.19A3.73,3.73,0,0,1,344,146.31Zm-3.87,2.85a2.79,2.79,0,0,0,1.11-.23,3,3,0,0,0,.91-.61,2.88,2.88,0,0,0,.62-.91,2.7,2.7,0,0,0,.22-1.1,2.57,2.57,0,0,0-.23-1.11,2.75,2.75,0,0,0-.63-.91,2.85,2.85,0,0,0-.91-.61,2.79,2.79,0,0,0-2.22,0,3,3,0,0,0-.91.61,2.88,2.88,0,0,0-.62.91,2.72,2.72,0,0,0-.23,1.11,2.56,2.56,0,0,0,.24,1.1,3,3,0,0,0,.62.9,2.87,2.87,0,0,0,.92.62A2.76,2.76,0,0,0,340.09,149.16Z" transform="translate(-0.6 -0.71)"/><path class="cls-4" d="M350,146.27a2.61,2.61,0,0,1,1.64.94,2.92,2.92,0,0,1,.61,1.87,3.15,3.15,0,0,1-.26,1.28,2.66,2.66,0,0,1-.73,1,3.2,3.2,0,0,1-1.13.64,4.52,4.52,0,0,1-1.46.22,4.35,4.35,0,0,1-2.06-.47,3.2,3.2,0,0,1-1.34-1.31l.73-.67a2.54,2.54,0,0,0,1,1.09,3.22,3.22,0,0,0,1.68.4,2.8,2.8,0,0,0,1.83-.56,2,2,0,0,0,.66-1.62,2.14,2.14,0,0,0-.69-1.69,2.93,2.93,0,0,0-2-.62H348v-.9h.42a2.74,2.74,0,0,0,1.83-.55,1.81,1.81,0,0,0,.64-1.44,1.94,1.94,0,0,0-.17-.82,1.77,1.77,0,0,0-.48-.6,2.07,2.07,0,0,0-.71-.36,3.14,3.14,0,0,0-.89-.12,3.06,3.06,0,0,0-1.56.39,2.53,2.53,0,0,0-1,1.09l-.69-.65a2.48,2.48,0,0,1,.53-.73,3.73,3.73,0,0,1,.78-.57,4.55,4.55,0,0,1,1-.36,4.32,4.32,0,0,1,1.08-.13,3.91,3.91,0,0,1,1.31.2,3.1,3.1,0,0,1,1,.56,2.55,2.55,0,0,1,.92,2,2.91,2.91,0,0,1-.14.89,2.42,2.42,0,0,1-.41.76,2.31,2.31,0,0,1-.64.56A2.18,2.18,0,0,1,350,146.27Z" transform="translate(-0.6 -0.71)"/><path class="cls-4" d="M364.83,149.93h-1.06v-4.51a3.69,3.69,0,0,0-.47-2.06,1.6,1.6,0,0,0-1.39-.68,2.32,2.32,0,0,0-.89.18,3.36,3.36,0,0,0-.83.49,3.28,3.28,0,0,0-.67.72,3.1,3.1,0,0,0-.43.92v4.94h-1V138.62h1v5.07a3.62,3.62,0,0,1,1.33-1.44,3.4,3.4,0,0,1,1.85-.53,2.54,2.54,0,0,1,1.18.25,2.27,2.27,0,0,1,.79.72,3.34,3.34,0,0,1,.45,1.1,6.9,6.9,0,0,1,.14,1.42Z" transform="translate(-0.6 -0.71)"/><path class="cls-4" d="M370.51,150.09a3.86,3.86,0,0,1-1.61-.33,4.23,4.23,0,0,1-1.26-.91,4.15,4.15,0,0,1-.83-1.33,4.38,4.38,0,0,1,0-3.21,4.38,4.38,0,0,1,.83-1.34,4.15,4.15,0,0,1,1.27-.91,3.66,3.66,0,0,1,1.59-.34,3.75,3.75,0,0,1,1.61.34,4.15,4.15,0,0,1,1.27.91,4.4,4.4,0,0,1,.84,1.34,4.44,4.44,0,0,1,0,3.21,4,4,0,0,1-.83,1.33,4,4,0,0,1-1.27.91A3.91,3.91,0,0,1,370.51,150.09Zm-2.93-4.16a3.48,3.48,0,0,0,.86,2.29,2.82,2.82,0,0,0,.93.69,2.63,2.63,0,0,0,1.14.25,2.58,2.58,0,0,0,1.14-.26,3,3,0,0,0,.94-.69,3.43,3.43,0,0,0,.64-1,3.5,3.5,0,0,0,.23-1.27,3.56,3.56,0,0,0-.23-1.26,3.43,3.43,0,0,0-.64-1,3.08,3.08,0,0,0-.94-.7,2.7,2.7,0,0,0-2.27,0,3,3,0,0,0-.93.71,3.27,3.27,0,0,0-.63,1A3.34,3.34,0,0,0,367.58,145.93Z" transform="translate(-0.6 -0.71)"/><path class="cls-4" d="M378.82,150.09a2.26,2.26,0,0,1-2-.88,4.37,4.37,0,0,1-.64-2.61v-4.74h1v4.55c0,1.83.63,2.75,1.88,2.75a2.61,2.61,0,0,0,.91-.16,2.68,2.68,0,0,0,.83-.45,3.43,3.43,0,0,0,.68-.69,3.52,3.52,0,0,0,.49-.92v-5.08h1.06v6.71c0,.29.12.43.37.43v.93l-.31,0H383a.8.8,0,0,1-.6-.26.91.91,0,0,1-.23-.67v-.93a3.84,3.84,0,0,1-1.44,1.47A3.78,3.78,0,0,1,378.82,150.09Z" transform="translate(-0.6 -0.71)"/><path class="cls-4" d="M389.53,142.79a3.27,3.27,0,0,0-1.86.59,2.94,2.94,0,0,0-1.11,1.53v5H385.5v-8.07h1v1.94a3.73,3.73,0,0,1,1.21-1.46,2.83,2.83,0,0,1,1.63-.53l.2,0Z" transform="translate(-0.6 -0.71)"/><path class="cls-4" d="M393.62,150.09a5.78,5.78,0,0,1-1.84-.31,4.49,4.49,0,0,1-1.55-.9l.48-.71a5.06,5.06,0,0,0,1.39.83,4,4,0,0,0,1.51.28,2.77,2.77,0,0,0,1.56-.39,1.31,1.31,0,0,0,.58-1.13.93.93,0,0,0-.16-.56,1.37,1.37,0,0,0-.45-.4,4.3,4.3,0,0,0-.76-.3c-.31-.09-.66-.18-1.07-.27s-.86-.23-1.2-.34a3.57,3.57,0,0,1-.85-.39,1.41,1.41,0,0,1-.5-.53,1.9,1.9,0,0,1-.16-.8,2.28,2.28,0,0,1,.24-1.07,2.21,2.21,0,0,1,.65-.77,3.28,3.28,0,0,1,1-.46,4.47,4.47,0,0,1,1.17-.15,4.54,4.54,0,0,1,1.69.3,3.32,3.32,0,0,1,1.23.8l-.51.62a2.92,2.92,0,0,0-1.1-.7,4,4,0,0,0-1.34-.23,3.71,3.71,0,0,0-.77.08,1.81,1.81,0,0,0-.63.28,1.39,1.39,0,0,0-.43.47,1.41,1.41,0,0,0-.15.67,1.16,1.16,0,0,0,.11.53,1,1,0,0,0,.35.35,3.15,3.15,0,0,0,.63.26c.25.08.56.16.92.24.52.13,1,.25,1.37.37a4.28,4.28,0,0,1,1,.44,1.72,1.72,0,0,1,.6.6,1.8,1.8,0,0,1,.2.87,2.12,2.12,0,0,1-.85,1.77A3.74,3.74,0,0,1,393.62,150.09Z" transform="translate(-0.6 -0.71)"/><path class="cls-1" d="M292.61,83.46a6.41,6.41,0,0,1,.09-1.06,3.94,3.94,0,0,1,.37-1.06,4.15,4.15,0,0,1,.77-1,6.13,6.13,0,0,1,1.34-.92c.3-.16.62-.31.94-.46a6.39,6.39,0,0,0,.9-.5,3,3,0,0,0,.68-.63,1.38,1.38,0,0,0,.13-1.39,1.62,1.62,0,0,0-.39-.52,1.88,1.88,0,0,0-.64-.36,2.64,2.64,0,0,0-.89-.14,2.59,2.59,0,0,0-.91.15,3.35,3.35,0,0,0-.71.35,3.18,3.18,0,0,0-.52.42,3.88,3.88,0,0,0-.32.37l-.7-.76c.06-.06.18-.18.36-.34a3.43,3.43,0,0,1,.69-.5,5.54,5.54,0,0,1,1-.44,4,4,0,0,1,1.28-.19,3.81,3.81,0,0,1,1.27.19,2.9,2.9,0,0,1,.95.53,2.27,2.27,0,0,1,.79,1.71,2.07,2.07,0,0,1-.28,1.1,3,3,0,0,1-.69.81,5.07,5.07,0,0,1-.87.58l-.84.41a9.8,9.8,0,0,0-1,.49,4.82,4.82,0,0,0-.84.59,3,3,0,0,0-.62.73,1.73,1.73,0,0,0-.24.9h5.52v1Z" transform="translate(-0.6 -0.71)"/><path class="cls-1" d="M308.64,78.92a5.66,5.66,0,0,1-.3,1.88,4.46,4.46,0,0,1-.81,1.49,3.86,3.86,0,0,1-1.23,1,3.61,3.61,0,0,1-3.1,0,3.66,3.66,0,0,1-1.23-1,4.66,4.66,0,0,1-.82-1.49,6.24,6.24,0,0,1,0-3.76,4.66,4.66,0,0,1,.82-1.49,3.69,3.69,0,0,1,1.23-1,3.61,3.61,0,0,1,3.1,0,3.9,3.9,0,0,1,1.23,1,4.46,4.46,0,0,1,.81,1.49A5.66,5.66,0,0,1,308.64,78.92Zm-1.07,0a5.12,5.12,0,0,0-.21-1.52,3.77,3.77,0,0,0-.58-1.17,2.68,2.68,0,0,0-.89-.76,2.58,2.58,0,0,0-2.3,0,2.68,2.68,0,0,0-.89.76,3.77,3.77,0,0,0-.58,1.17,5.61,5.61,0,0,0,0,3,3.77,3.77,0,0,0,.58,1.17,2.65,2.65,0,0,0,.89.75,2.47,2.47,0,0,0,1.16.26,2.45,2.45,0,0,0,1.14-.26,2.65,2.65,0,0,0,.89-.75,3.77,3.77,0,0,0,.58-1.17A5.17,5.17,0,0,0,307.57,78.92Z" transform="translate(-0.6 -0.71)"/><path class="cls-1" d="M318.12,78.92a5.66,5.66,0,0,1-.29,1.88,4.84,4.84,0,0,1-.81,1.49,3.8,3.8,0,0,1-1.24,1,3.49,3.49,0,0,1-1.55.35,3.56,3.56,0,0,1-1.55-.35,3.86,3.86,0,0,1-1.23-1,4.64,4.64,0,0,1-.81-1.49,6,6,0,0,1,0-3.76,4.64,4.64,0,0,1,.81-1.49,3.9,3.9,0,0,1,1.23-1,3.56,3.56,0,0,1,1.55-.35,3.49,3.49,0,0,1,1.55.35,3.83,3.83,0,0,1,1.24,1,4.84,4.84,0,0,1,.81,1.49A5.66,5.66,0,0,1,318.12,78.92Zm-1.06,0a5.12,5.12,0,0,0-.21-1.52,4,4,0,0,0-.58-1.17,2.62,2.62,0,0,0-.9-.76,2.4,2.4,0,0,0-1.14-.27,2.47,2.47,0,0,0-1.15.27,2.58,2.58,0,0,0-.89.76,3.77,3.77,0,0,0-.58,1.17,5.61,5.61,0,0,0,0,3,3.77,3.77,0,0,0,.58,1.17,2.55,2.55,0,0,0,.89.75,2.46,2.46,0,0,0,1.15.26,2.39,2.39,0,0,0,1.14-.26,2.59,2.59,0,0,0,.9-.75,4,4,0,0,0,.58-1.17A5.17,5.17,0,0,0,317.06,78.92Z" transform="translate(-0.6 -0.71)"/><path class="cls-1" d="M327.61,78.92a5.93,5.93,0,0,1-.29,1.88,4.66,4.66,0,0,1-.82,1.49,3.66,3.66,0,0,1-1.23,1,3.61,3.61,0,0,1-3.1,0,3.76,3.76,0,0,1-1.23-1,4.66,4.66,0,0,1-.82-1.49,6.24,6.24,0,0,1,0-3.76,4.66,4.66,0,0,1,.82-1.49,3.79,3.79,0,0,1,1.23-1,3.61,3.61,0,0,1,3.1,0,3.69,3.69,0,0,1,1.23,1,4.66,4.66,0,0,1,.82,1.49A5.93,5.93,0,0,1,327.61,78.92Zm-1.07,0a5.12,5.12,0,0,0-.21-1.52,3.77,3.77,0,0,0-.58-1.17,2.58,2.58,0,0,0-.89-.76,2.56,2.56,0,0,0-2.29,0,2.62,2.62,0,0,0-.9.76,4,4,0,0,0-.58,1.17,5.61,5.61,0,0,0,0,3,4,4,0,0,0,.58,1.17,2.59,2.59,0,0,0,.9.75,2.65,2.65,0,0,0,2.29,0,2.55,2.55,0,0,0,.89-.75,3.77,3.77,0,0,0,.58-1.17A5.17,5.17,0,0,0,326.54,78.92Z" transform="translate(-0.6 -0.71)"/><path class="cls-1" d="M337.1,78.92a5.66,5.66,0,0,1-.3,1.88,4.64,4.64,0,0,1-.81,1.49,3.86,3.86,0,0,1-1.23,1,3.56,3.56,0,0,1-1.55.35,3.49,3.49,0,0,1-1.55-.35,3.8,3.8,0,0,1-1.24-1,4.84,4.84,0,0,1-.81-1.49,6.24,6.24,0,0,1,0-3.76,4.84,4.84,0,0,1,.81-1.49,3.83,3.83,0,0,1,1.24-1,3.49,3.49,0,0,1,1.55-.35,3.56,3.56,0,0,1,1.55.35,3.9,3.9,0,0,1,1.23,1A4.64,4.64,0,0,1,336.8,77,5.66,5.66,0,0,1,337.1,78.92Zm-1.07,0a5.12,5.12,0,0,0-.21-1.52,4,4,0,0,0-.58-1.17,2.68,2.68,0,0,0-.89-.76,2.58,2.58,0,0,0-2.3,0,2.58,2.58,0,0,0-.89.76,3.77,3.77,0,0,0-.58,1.17,5.61,5.61,0,0,0,0,3,3.77,3.77,0,0,0,.58,1.17,2.55,2.55,0,0,0,.89.75,2.47,2.47,0,0,0,1.16.26,2.45,2.45,0,0,0,1.14-.26,2.65,2.65,0,0,0,.89-.75,4,4,0,0,0,.58-1.17A5.17,5.17,0,0,0,336,78.92Z" transform="translate(-0.6 -0.71)"/><path class="cls-2" d="M346.88,72.46l-7.32,11h-1.19l7.31-11Z" transform="translate(-0.6 -0.71)"/><path class="cls-2" d="M347.65,83.46a5.51,5.51,0,0,1,.1-1.06,3.6,3.6,0,0,1,.36-1.06,4.15,4.15,0,0,1,.77-1,6,6,0,0,1,1.35-.92c.3-.16.61-.31.93-.46a6.39,6.39,0,0,0,.9-.5,3,3,0,0,0,.68-.63,1.38,1.38,0,0,0,.13-1.39,1.62,1.62,0,0,0-.39-.52,1.93,1.93,0,0,0-.63-.36,2.7,2.7,0,0,0-.9-.14,2.59,2.59,0,0,0-.91.15,3.35,3.35,0,0,0-.71.35,2.72,2.72,0,0,0-.51.42,3,3,0,0,0-.33.37l-.7-.76.36-.34a3.43,3.43,0,0,1,.69-.5,5.87,5.87,0,0,1,1-.44,4,4,0,0,1,1.28-.19,3.91,3.91,0,0,1,1.28.19,3,3,0,0,1,.94.53,2.27,2.27,0,0,1,.79,1.71,2.07,2.07,0,0,1-.28,1.1,3,3,0,0,1-.69.81,5.07,5.07,0,0,1-.87.58l-.84.41a9.8,9.8,0,0,0-1,.49,4.82,4.82,0,0,0-.84.59,3,3,0,0,0-.62.73,1.73,1.73,0,0,0-.24.9h5.52v1Z" transform="translate(-0.6 -0.71)"/><path class="cls-2" d="M363.71,79.83a3.66,3.66,0,0,1-.3,1.48,3.89,3.89,0,0,1-.83,1.21,3.83,3.83,0,0,1-1.24.8,4.11,4.11,0,0,1-3.13,0,3.54,3.54,0,0,1-1.25-.91,4,4,0,0,1-.81-1.45,5.79,5.79,0,0,1-.3-1.93,12.61,12.61,0,0,1,.3-2.92A6.5,6.5,0,0,1,357,74a3.54,3.54,0,0,1,1.27-1.23,3.42,3.42,0,0,1,1.66-.4,3.64,3.64,0,0,1,2,.54,3.44,3.44,0,0,1,1.32,1.5l-.68.62a2.82,2.82,0,0,0-1-1.26,2.77,2.77,0,0,0-1.58-.47,2.49,2.49,0,0,0-1.24.32,2.84,2.84,0,0,0-.95.94,5.12,5.12,0,0,0-.62,1.51,8.4,8.4,0,0,0-.23,2A2.93,2.93,0,0,1,358,76.66a3.35,3.35,0,0,1,1.89-.55,3.83,3.83,0,0,1,1.48.29,3.63,3.63,0,0,1,1.2.79,3.8,3.8,0,0,1,.81,1.19A3.72,3.72,0,0,1,363.71,79.83Zm-3.87,2.86a2.71,2.71,0,0,0,1.1-.23,3,3,0,0,0,.92-.61,2.88,2.88,0,0,0,.62-.91,2.72,2.72,0,0,0,.22-1.11,2.55,2.55,0,0,0-.23-1.1,2.75,2.75,0,0,0-.63-.91,3,3,0,0,0-.91-.61,2.79,2.79,0,0,0-2.22,0,3,3,0,0,0-.91.61,2.86,2.86,0,0,0-.85,2,2.67,2.67,0,0,0,.23,1.1,3.22,3.22,0,0,0,.63.91,3,3,0,0,0,.92.62A2.72,2.72,0,0,0,359.84,82.69Z" transform="translate(-0.6 -0.71)"/><path class="cls-2" d="M372.81,80.41a2.72,2.72,0,0,1-.31,1.31,3.35,3.35,0,0,1-.84,1,3.78,3.78,0,0,1-1.23.64,4.82,4.82,0,0,1-1.48.22,4.41,4.41,0,0,1-1.52-.25,3.65,3.65,0,0,1-1.2-.7,3,3,0,0,1-.78-1,2.82,2.82,0,0,1-.28-1.25,2.41,2.41,0,0,1,.19-1,2.87,2.87,0,0,1,.51-.8,3.36,3.36,0,0,1,.7-.6,3.52,3.52,0,0,1,.8-.4,3.64,3.64,0,0,1-.7-.38,2.58,2.58,0,0,1-.57-.52,2.28,2.28,0,0,1-.4-.65,1.94,1.94,0,0,1-.14-.76,2.28,2.28,0,0,1,.31-1.2,2.89,2.89,0,0,1,.79-.88,4.17,4.17,0,0,1,1.1-.54,4.33,4.33,0,0,1,2.47,0,3.76,3.76,0,0,1,1.1.54,2.9,2.9,0,0,1,.8.87,2.38,2.38,0,0,1,.31,1.2,2,2,0,0,1-.15.76,2.59,2.59,0,0,1-.4.65,2.7,2.7,0,0,1-.59.53,3.72,3.72,0,0,1-.71.38,3.64,3.64,0,0,1,.86.43,3.79,3.79,0,0,1,.7.62,3,3,0,0,1,.48.81A2.63,2.63,0,0,1,372.81,80.41Zm-1.07-.08a1.86,1.86,0,0,0-.25-1,2.27,2.27,0,0,0-.65-.73,3.14,3.14,0,0,0-.9-.44,3,3,0,0,0-2.84.47,2.56,2.56,0,0,0-.62.73,2.07,2.07,0,0,0-.23,1,1.81,1.81,0,0,0,.25,1,2.34,2.34,0,0,0,.64.72,2.87,2.87,0,0,0,.89.45,3,3,0,0,0,1,.16,3.41,3.41,0,0,0,1-.16,3,3,0,0,0,.87-.47,2.33,2.33,0,0,0,.63-.73A1.89,1.89,0,0,0,371.74,80.33Zm-5.13-5a1.46,1.46,0,0,0,.22.8,2,2,0,0,0,.55.58,2.61,2.61,0,0,0,.77.37,3.08,3.08,0,0,0,.83.12,3,3,0,0,0,.84-.12,2.56,2.56,0,0,0,.76-.37,1.94,1.94,0,0,0,.57-.61,1.52,1.52,0,0,0,.22-.8,1.63,1.63,0,0,0-.2-.79,2,2,0,0,0-.54-.59,2.38,2.38,0,0,0-.77-.36,3.37,3.37,0,0,0-.9-.12,2.82,2.82,0,0,0-.87.13,2.5,2.5,0,0,0-.75.37,1.8,1.8,0,0,0-.53.6A1.63,1.63,0,0,0,366.61,75.31Z" transform="translate(-0.6 -0.71)"/><path class="cls-2" d="M382.22,78.92a5.66,5.66,0,0,1-.3,1.88,4.64,4.64,0,0,1-.81,1.49,3.86,3.86,0,0,1-1.23,1,3.56,3.56,0,0,1-1.55.35,3.49,3.49,0,0,1-1.55-.35,3.8,3.8,0,0,1-1.24-1,4.84,4.84,0,0,1-.81-1.49,6.24,6.24,0,0,1,0-3.76,4.84,4.84,0,0,1,.81-1.49,3.83,3.83,0,0,1,1.24-1,3.49,3.49,0,0,1,1.55-.35,3.56,3.56,0,0,1,1.55.35,3.9,3.9,0,0,1,1.23,1,4.64,4.64,0,0,1,.81,1.49A5.66,5.66,0,0,1,382.22,78.92Zm-1.07,0a5.12,5.12,0,0,0-.21-1.52,3.77,3.77,0,0,0-.58-1.17,2.68,2.68,0,0,0-.89-.76,2.58,2.58,0,0,0-2.3,0,2.68,2.68,0,0,0-.89.76,3.77,3.77,0,0,0-.58,1.17,5.61,5.61,0,0,0,0,3,3.77,3.77,0,0,0,.58,1.17,2.65,2.65,0,0,0,.89.75,2.47,2.47,0,0,0,1.16.26,2.45,2.45,0,0,0,1.14-.26,2.65,2.65,0,0,0,.89-.75,3.77,3.77,0,0,0,.58-1.17A5.17,5.17,0,0,0,381.15,78.92Z" transform="translate(-0.6 -0.71)"/><path class="cls-2" d="M391.7,78.92a5.93,5.93,0,0,1-.29,1.88,4.84,4.84,0,0,1-.81,1.49,3.8,3.8,0,0,1-1.24,1,3.61,3.61,0,0,1-3.1,0,3.86,3.86,0,0,1-1.23-1,4.46,4.46,0,0,1-.81-1.49,6,6,0,0,1,0-3.76,4.46,4.46,0,0,1,.81-1.49,3.9,3.9,0,0,1,1.23-1,3.61,3.61,0,0,1,3.1,0,3.83,3.83,0,0,1,1.24,1,4.84,4.84,0,0,1,.81,1.49A5.93,5.93,0,0,1,391.7,78.92Zm-1.07,0a5.12,5.12,0,0,0-.21-1.52,3.56,3.56,0,0,0-.58-1.17,2.5,2.5,0,0,0-.89-.76,2.4,2.4,0,0,0-1.14-.27,2.44,2.44,0,0,0-1.15.27,2.5,2.5,0,0,0-.89.76,3.77,3.77,0,0,0-.58,1.17,5.61,5.61,0,0,0,0,3,3.77,3.77,0,0,0,.58,1.17,2.47,2.47,0,0,0,.89.75,2.43,2.43,0,0,0,1.15.26,2.39,2.39,0,0,0,1.14-.26,2.47,2.47,0,0,0,.89-.75,3.56,3.56,0,0,0,.58-1.17A5.17,5.17,0,0,0,390.63,78.92Z" transform="translate(-0.6 -0.71)"/><path class="cls-2" d="M401.19,78.92a5.66,5.66,0,0,1-.3,1.88,4.46,4.46,0,0,1-.81,1.49,3.86,3.86,0,0,1-1.23,1,3.61,3.61,0,0,1-3.1,0,3.66,3.66,0,0,1-1.23-1,4.66,4.66,0,0,1-.82-1.49,6.24,6.24,0,0,1,0-3.76,4.66,4.66,0,0,1,.82-1.49,3.69,3.69,0,0,1,1.23-1,3.61,3.61,0,0,1,3.1,0,3.9,3.9,0,0,1,1.23,1,4.46,4.46,0,0,1,.81,1.49A5.66,5.66,0,0,1,401.19,78.92Zm-1.07,0a5.12,5.12,0,0,0-.21-1.52,3.77,3.77,0,0,0-.58-1.17,2.68,2.68,0,0,0-.89-.76,2.58,2.58,0,0,0-2.3,0,2.68,2.68,0,0,0-.89.76,3.77,3.77,0,0,0-.58,1.17,5.61,5.61,0,0,0,0,3,3.77,3.77,0,0,0,.58,1.17,2.65,2.65,0,0,0,.89.75,2.47,2.47,0,0,0,1.16.26,2.45,2.45,0,0,0,1.14-.26,2.65,2.65,0,0,0,.89-.75,3.77,3.77,0,0,0,.58-1.17A5.17,5.17,0,0,0,400.12,78.92Z" transform="translate(-0.6 -0.71)"/><path class="cls-2" d="M411,83.07l-.27.13-.41.15a5,5,0,0,1-.53.14,3,3,0,0,1-.62.06,2.37,2.37,0,0,1-.65-.09,1.41,1.41,0,0,1-.54-.29,1.35,1.35,0,0,1-.37-.48,1.52,1.52,0,0,1-.14-.69V76.22h-1.12v-.83h1.12V72.66h1.05v2.73h1.86v.83h-1.86v5.49a.84.84,0,0,0,.32.66,1.08,1.08,0,0,0,.66.21,2,2,0,0,0,.79-.15,3.4,3.4,0,0,0,.43-.21Z" transform="translate(-0.6 -0.71)"/><path class="cls-2" d="M412.35,73.7V72.15h1V73.7Zm0,9.76V75.39h1v8.07Z" transform="translate(-0.6 -0.71)"/><path class="cls-2" d="M427.74,83.46h-1.05V79a3.8,3.8,0,0,0-.45-2.08,1.52,1.52,0,0,0-1.34-.66,2.11,2.11,0,0,0-.87.17,2.44,2.44,0,0,0-.76.48,3.12,3.12,0,0,0-.61.73,3.77,3.77,0,0,0-.41.94v4.93H421.2V79a4,4,0,0,0-.43-2.09,1.49,1.49,0,0,0-1.34-.65,2.4,2.4,0,0,0-1.63.63,3.62,3.62,0,0,0-1,1.68v4.94h-1V75.39h1v1.82a3.71,3.71,0,0,1,1.3-1.44,3.19,3.19,0,0,1,1.78-.52,2.31,2.31,0,0,1,1.64.57,2.45,2.45,0,0,1,.75,1.5,3.45,3.45,0,0,1,3.12-2.07,2.51,2.51,0,0,1,1.15.24,1.92,1.92,0,0,1,.76.71,3.32,3.32,0,0,1,.42,1.1,7,7,0,0,1,.13,1.43Z" transform="translate(-0.6 -0.71)"/><path class="cls-2" d="M433.46,83.62a4,4,0,0,1-2.9-1.25,4.33,4.33,0,0,1-.84-1.34,4.22,4.22,0,0,1-.31-1.63,4.33,4.33,0,0,1,1.14-2.92,4,4,0,0,1,1.28-.9,4,4,0,0,1,1.61-.33,3.91,3.91,0,0,1,1.62.33,3.74,3.74,0,0,1,1.27.91,4.33,4.33,0,0,1,.82,1.31,4.43,4.43,0,0,1,.29,1.58v.25a.67.67,0,0,1,0,.17h-6.92a3.53,3.53,0,0,0,.31,1.2,3.28,3.28,0,0,0,.66,1,2.62,2.62,0,0,0,.92.62,2.72,2.72,0,0,0,1.11.23,3,3,0,0,0,.77-.11,3,3,0,0,0,.71-.29,2.67,2.67,0,0,0,.59-.46,2,2,0,0,0,.41-.6l.91.25a2.52,2.52,0,0,1-.53.81,3.31,3.31,0,0,1-.79.64,4,4,0,0,1-1,.42A4.22,4.22,0,0,1,433.46,83.62Zm3-4.62a3.48,3.48,0,0,0-.31-1.19,3.06,3.06,0,0,0-.65-.92,2.78,2.78,0,0,0-2-.82,3,3,0,0,0-1.12.21,2.9,2.9,0,0,0-.92.61,3.05,3.05,0,0,0-.63.93A3.47,3.47,0,0,0,430.5,79Z" transform="translate(-0.6 -0.71)"/><path class="cls-2" d="M441.75,83.62a5.78,5.78,0,0,1-1.84-.31,4.49,4.49,0,0,1-1.55-.9l.48-.72a5,5,0,0,0,1.39.84,3.94,3.94,0,0,0,1.51.28,2.64,2.64,0,0,0,1.55-.4,1.26,1.26,0,0,0,.58-1.12,1,1,0,0,0-.15-.56,1.31,1.31,0,0,0-.46-.4,3.75,3.75,0,0,0-.76-.3c-.3-.09-.66-.18-1.06-.27s-.87-.23-1.21-.34a4.15,4.15,0,0,1-.84-.39,1.51,1.51,0,0,1-.5-.54,1.7,1.7,0,0,1-.16-.8,2.27,2.27,0,0,1,.24-1.06,2.13,2.13,0,0,1,.65-.77,2.85,2.85,0,0,1,1-.46,4.47,4.47,0,0,1,1.17-.15,4.58,4.58,0,0,1,1.69.3,3.32,3.32,0,0,1,1.23.8l-.52.62a2.77,2.77,0,0,0-1.09-.7,3.78,3.78,0,0,0-1.34-.23,3.09,3.09,0,0,0-.77.08,2,2,0,0,0-.63.27,1.32,1.32,0,0,0-.58,1.15,1,1,0,0,0,.11.53,1,1,0,0,0,.35.35,3.88,3.88,0,0,0,.63.26c.25.08.56.16.92.24.52.12,1,.25,1.37.37a4.28,4.28,0,0,1,1,.44,1.72,1.72,0,0,1,.6.6,1.8,1.8,0,0,1,.2.87,2.11,2.11,0,0,1-.85,1.76A3.68,3.68,0,0,1,441.75,83.62Z" transform="translate(-0.6 -0.71)"/><path class="cls-1" d="M297.27,42.3V39.81h-4.66V39l5-6.44h.65v6.41h1.23v.87h-1.23V42.3Zm-3.65-3.36h3.75V34Z" transform="translate(-0.6 -0.71)"/><path class="cls-1" d="M307.73,36.42a5.41,5.41,0,0,1-.26,1.7,4.39,4.39,0,0,1-.74,1.35,3.38,3.38,0,0,1-1.11.88,3.32,3.32,0,0,1-2.8,0,3.38,3.38,0,0,1-1.11-.88,4.19,4.19,0,0,1-.74-1.35,5.49,5.49,0,0,1,0-3.4,4,4,0,0,1,.74-1.34,3.29,3.29,0,0,1,1.11-.89,3.13,3.13,0,0,1,2.8,0,3.29,3.29,0,0,1,1.11.89,4.22,4.22,0,0,1,.74,1.34A5.46,5.46,0,0,1,307.73,36.42Zm-1,0a4.88,4.88,0,0,0-.19-1.37,3.4,3.4,0,0,0-.53-1.06,2.36,2.36,0,0,0-.8-.68,2.27,2.27,0,0,0-2.07,0,2.31,2.31,0,0,0-.81.68,3.38,3.38,0,0,0-.52,1.06,5,5,0,0,0,0,2.74,3.28,3.28,0,0,0,.52,1.06,2.31,2.31,0,0,0,.81.68,2.35,2.35,0,0,0,2.07,0,2.36,2.36,0,0,0,.8-.68,3.29,3.29,0,0,0,.53-1.06A4.88,4.88,0,0,0,306.77,36.42Z" transform="translate(-0.6 -0.71)"/><path class="cls-1" d="M316.3,36.42a5.14,5.14,0,0,1-.27,1.7,4.17,4.17,0,0,1-.73,1.35,3.38,3.38,0,0,1-1.11.88,3.32,3.32,0,0,1-2.8,0,3.53,3.53,0,0,1-1.12-.88,4.37,4.37,0,0,1-.73-1.35,5.49,5.49,0,0,1,0-3.4,4.2,4.2,0,0,1,.73-1.34,3.42,3.42,0,0,1,1.12-.89,3.13,3.13,0,0,1,2.8,0,3.29,3.29,0,0,1,1.11.89,4,4,0,0,1,.73,1.34A5.18,5.18,0,0,1,316.3,36.42Zm-1,0a4.89,4.89,0,0,0-.18-1.37,3.63,3.63,0,0,0-.53-1.06,2.36,2.36,0,0,0-.8-.68,2.15,2.15,0,0,0-1-.25,2.17,2.17,0,0,0-1.05.25,2.36,2.36,0,0,0-.8.68,3.4,3.4,0,0,0-.53,1.06,5,5,0,0,0,0,2.74,3.29,3.29,0,0,0,.53,1.06,2.36,2.36,0,0,0,.8.68,2.28,2.28,0,0,0,1.05.24,2.26,2.26,0,0,0,1-.24,2.36,2.36,0,0,0,.8-.68,3.51,3.51,0,0,0,.53-1.06A4.89,4.89,0,0,0,315.33,36.42Z" transform="translate(-0.6 -0.71)"/><path class="cls-2" d="M325.13,30.58l-6.6,9.94h-1.08l6.61-9.94Z" transform="translate(-0.6 -0.71)"/><path class="cls-2" d="M329.12,42.3V39.81h-4.66V39l5-6.44h.65v6.41h1.23v.87h-1.23V42.3Zm-3.65-3.36h3.75V34Z" transform="translate(-0.6 -0.71)"/><path class="cls-2" d="M339.58,36.42a5.41,5.41,0,0,1-.26,1.7,4.39,4.39,0,0,1-.74,1.35,3.38,3.38,0,0,1-1.11.88,3.32,3.32,0,0,1-2.8,0,3.38,3.38,0,0,1-1.11-.88,4.19,4.19,0,0,1-.74-1.35,5.49,5.49,0,0,1,0-3.4,4,4,0,0,1,.74-1.34,3.29,3.29,0,0,1,1.11-.89,3.13,3.13,0,0,1,2.8,0,3.29,3.29,0,0,1,1.11.89,4.22,4.22,0,0,1,.74,1.34A5.46,5.46,0,0,1,339.58,36.42Zm-1,0a4.88,4.88,0,0,0-.19-1.37A3.4,3.4,0,0,0,337.9,34a2.36,2.36,0,0,0-.8-.68,2.27,2.27,0,0,0-2.07,0,2.31,2.31,0,0,0-.81.68,3.38,3.38,0,0,0-.52,1.06,5,5,0,0,0,0,2.74,3.28,3.28,0,0,0,.52,1.06,2.31,2.31,0,0,0,.81.68,2.35,2.35,0,0,0,2.07,0,2.36,2.36,0,0,0,.8-.68,3.29,3.29,0,0,0,.53-1.06A4.88,4.88,0,0,0,338.62,36.42Z" transform="translate(-0.6 -0.71)"/><path class="cls-2" d="M348.15,36.42a5.14,5.14,0,0,1-.27,1.7,4.17,4.17,0,0,1-.73,1.35,3.38,3.38,0,0,1-1.11.88,3.15,3.15,0,0,1-1.4.31,3.09,3.09,0,0,1-1.4-.31,3.53,3.53,0,0,1-1.12-.88,4.37,4.37,0,0,1-.73-1.35,5.49,5.49,0,0,1,0-3.4,4.2,4.2,0,0,1,.73-1.34,3.42,3.42,0,0,1,1.12-.89,3,3,0,0,1,1.4-.33,3,3,0,0,1,1.4.33,3.29,3.29,0,0,1,1.11.89,4,4,0,0,1,.73,1.34A5.18,5.18,0,0,1,348.15,36.42Zm-1,0a4.89,4.89,0,0,0-.18-1.37,3.63,3.63,0,0,0-.53-1.06,2.31,2.31,0,0,0-.81-.68,2.08,2.08,0,0,0-1-.25,2.17,2.17,0,0,0-1.05.25,2.36,2.36,0,0,0-.8.68,3.4,3.4,0,0,0-.53,1.06,5,5,0,0,0,0,2.74,3.29,3.29,0,0,0,.53,1.06,2.36,2.36,0,0,0,.8.68,2.28,2.28,0,0,0,1.05.24,2.19,2.19,0,0,0,1-.24,2.31,2.31,0,0,0,.81-.68,3.51,3.51,0,0,0,.53-1.06A4.89,4.89,0,0,0,347.18,36.42Z" transform="translate(-0.6 -0.71)"/><path class="cls-4" d="M300.35,44.58l-6.6,9.94h-1.08l6.61-9.94Z" transform="translate(-0.6 -0.71)"/><path class="cls-4" d="M301.05,54.52a5.36,5.36,0,0,1,.09-1,3,3,0,0,1,.33-1,3.37,3.37,0,0,1,.7-.91,5,5,0,0,1,1.21-.84l.85-.41A6.28,6.28,0,0,0,305,50a2.78,2.78,0,0,0,.61-.57,1.18,1.18,0,0,0,.23-.73,1.27,1.27,0,0,0-.46-1,1.72,1.72,0,0,0-.58-.33,2.2,2.2,0,0,0-.8-.13,2.37,2.37,0,0,0-.83.14,2.92,2.92,0,0,0-.64.31,2.63,2.63,0,0,0-.47.39c-.13.13-.22.24-.29.32l-.63-.68.32-.31a3.43,3.43,0,0,1,.63-.45,4.75,4.75,0,0,1,.9-.4,3.77,3.77,0,0,1,1.16-.17,3.71,3.71,0,0,1,1.15.17,2.53,2.53,0,0,1,.85.49,2,2,0,0,1,.53.7,1.91,1.91,0,0,1,.19.84,1.87,1.87,0,0,1-.26,1,2.71,2.71,0,0,1-.62.73,4.49,4.49,0,0,1-.79.52c-.28.15-.53.27-.76.37s-.59.28-.87.45a4,4,0,0,0-.76.54,2.65,2.65,0,0,0-.56.65,1.63,1.63,0,0,0-.21.81h5v.87Z" transform="translate(-0.6 -0.71)"/><path class="cls-4" d="M315.53,50.42a5.14,5.14,0,0,1-.27,1.7,4.17,4.17,0,0,1-.73,1.35,3.38,3.38,0,0,1-1.11.88,3.32,3.32,0,0,1-2.8,0,3.53,3.53,0,0,1-1.12-.88,4.37,4.37,0,0,1-.73-1.35,5.49,5.49,0,0,1,0-3.4,4.2,4.2,0,0,1,.73-1.34,3.42,3.42,0,0,1,1.12-.89,3.13,3.13,0,0,1,2.8,0,3.29,3.29,0,0,1,1.11.89,4,4,0,0,1,.73,1.34A5.18,5.18,0,0,1,315.53,50.42Zm-1,0a4.89,4.89,0,0,0-.18-1.37,3.63,3.63,0,0,0-.53-1.06,2.36,2.36,0,0,0-.8-.68,2.15,2.15,0,0,0-1-.25,2.17,2.17,0,0,0-1,.25,2.36,2.36,0,0,0-.8.68,3.4,3.4,0,0,0-.53,1.06,5,5,0,0,0,0,2.74,3.29,3.29,0,0,0,.53,1.06,2.36,2.36,0,0,0,.8.68,2.28,2.28,0,0,0,1,.24,2.26,2.26,0,0,0,1-.24,2.36,2.36,0,0,0,.8-.68,3.51,3.51,0,0,0,.53-1.06A4.89,4.89,0,0,0,314.56,50.42Z" transform="translate(-0.6 -0.71)"/><path class="cls-4" d="M324.1,50.42a5.14,5.14,0,0,1-.27,1.7,4.37,4.37,0,0,1-.73,1.35,3.53,3.53,0,0,1-1.12.88,3.32,3.32,0,0,1-2.8,0,3.38,3.38,0,0,1-1.11-.88,4.17,4.17,0,0,1-.73-1.35,5.49,5.49,0,0,1,0-3.4,4,4,0,0,1,.73-1.34,3.29,3.29,0,0,1,1.11-.89,3.13,3.13,0,0,1,2.8,0,3.42,3.42,0,0,1,1.12.89,4.2,4.2,0,0,1,.73,1.34A5.18,5.18,0,0,1,324.1,50.42Zm-1,0a4.54,4.54,0,0,0-.19-1.37,3.38,3.38,0,0,0-.52-1.06,2.4,2.4,0,0,0-.81-.68,2.09,2.09,0,0,0-1-.25,2.13,2.13,0,0,0-1,.25,2.36,2.36,0,0,0-.8.68,3.4,3.4,0,0,0-.53,1.06,5,5,0,0,0,0,2.74,3.29,3.29,0,0,0,.53,1.06,2.36,2.36,0,0,0,.8.68,2.24,2.24,0,0,0,1,.24,2.2,2.2,0,0,0,1-.24,2.4,2.4,0,0,0,.81-.68,3.28,3.28,0,0,0,.52-1.06A4.54,4.54,0,0,0,323.13,50.42Z" transform="translate(-0.6 -0.71)"/><path class="cls-4" d="M332.67,50.42a5.14,5.14,0,0,1-.27,1.7,4.37,4.37,0,0,1-.73,1.35,3.53,3.53,0,0,1-1.12.88,3.32,3.32,0,0,1-2.8,0,3.38,3.38,0,0,1-1.11-.88,4.39,4.39,0,0,1-.74-1.35,5.69,5.69,0,0,1,0-3.4,4.22,4.22,0,0,1,.74-1.34,3.29,3.29,0,0,1,1.11-.89,3.13,3.13,0,0,1,2.8,0,3.42,3.42,0,0,1,1.12.89,4.2,4.2,0,0,1,.73,1.34A5.18,5.18,0,0,1,332.67,50.42Zm-1,0a4.54,4.54,0,0,0-.19-1.37A3.38,3.38,0,0,0,331,48a2.5,2.5,0,0,0-.81-.68,2.09,2.09,0,0,0-1-.25,2.13,2.13,0,0,0-1,.25,2.5,2.5,0,0,0-.81.68,3.61,3.61,0,0,0-.52,1.06,5,5,0,0,0,0,2.74,3.5,3.5,0,0,0,.52,1.06,2.5,2.5,0,0,0,.81.68,2.24,2.24,0,0,0,1,.24,2.2,2.2,0,0,0,1-.24,2.5,2.5,0,0,0,.81-.68,3.28,3.28,0,0,0,.52-1.06A4.54,4.54,0,0,0,331.7,50.42Z" transform="translate(-0.6 -0.71)"/><path class="cls-4" d="M338.06,45.7V44.3H339v1.4Zm0,8.82V47.23H339v7.29Z" transform="translate(-0.6 -0.71)"/><path class="cls-4" d="M352,54.52H351V50.45a3.43,3.43,0,0,0-.41-1.88,1.35,1.35,0,0,0-1.2-.6,2.15,2.15,0,0,0-.8.15,2.63,2.63,0,0,0-.68.44,2.93,2.93,0,0,0-.55.66,3.42,3.42,0,0,0-.37.85v4.45h-.95V50.45a3.51,3.51,0,0,0-.39-1.89,1.35,1.35,0,0,0-1.21-.59,2.16,2.16,0,0,0-1.47.57,3.25,3.25,0,0,0-.92,1.52v4.46h-.95V47.23H342v1.65a3.39,3.39,0,0,1,1.17-1.31,2.94,2.94,0,0,1,1.61-.47,2.1,2.1,0,0,1,1.48.52,2.3,2.3,0,0,1,.68,1.36,3.12,3.12,0,0,1,2.81-1.88,2.19,2.19,0,0,1,1,.23,1.75,1.75,0,0,1,.69.63,3.11,3.11,0,0,1,.38,1,6.43,6.43,0,0,1,.12,1.29Z" transform="translate(-0.6 -0.71)"/><path class="cls-4" d="M355.81,54.66a2.69,2.69,0,0,1-1-.17,2.36,2.36,0,0,1-.77-.49,2.05,2.05,0,0,1-.51-.72,2.18,2.18,0,0,1-.18-.89,1.8,1.8,0,0,1,.22-.88,2.2,2.2,0,0,1,.63-.7,3.22,3.22,0,0,1,1-.45,4.31,4.31,0,0,1,1.23-.16,7.27,7.27,0,0,1,1.13.09,5.38,5.38,0,0,1,1,.28v-.65a2.14,2.14,0,0,0-.54-1.54,2,2,0,0,0-1.51-.56,3.17,3.17,0,0,0-1.15.22,5.2,5.2,0,0,0-1.19.65l-.34-.63a4.9,4.9,0,0,1,2.75-1,3,3,0,0,1,2.15.77,2.88,2.88,0,0,1,.79,2.13v3.29c0,.26.11.39.35.39v.84a2,2,0,0,1-.37,0,.85.85,0,0,1-.57-.18.7.7,0,0,1-.21-.5l0-.57a3.37,3.37,0,0,1-1.27,1A3.77,3.77,0,0,1,355.81,54.66Zm.22-.72a3.27,3.27,0,0,0,1.37-.29,2.15,2.15,0,0,0,.94-.74.7.7,0,0,0,.19-.27.74.74,0,0,0,.06-.27V51.18a5.26,5.26,0,0,0-1-.28,5.19,5.19,0,0,0-1.05-.1,2.88,2.88,0,0,0-1.63.42,1.28,1.28,0,0,0-.63,1.1,1.45,1.45,0,0,0,.13.63,1.73,1.73,0,0,0,.36.52,1.75,1.75,0,0,0,.56.34A1.91,1.91,0,0,0,356,53.94Z" transform="translate(-0.6 -0.71)"/><path class="cls-4" d="M364.53,54.62a3,3,0,0,1-1.38-.31,3.66,3.66,0,0,1-1.78-2,3.88,3.88,0,0,1-.26-1.38,4.37,4.37,0,0,1,.25-1.45,3.6,3.6,0,0,1,.69-1.21,3.47,3.47,0,0,1,1.07-.83,3.17,3.17,0,0,1,1.38-.31,2.84,2.84,0,0,1,1.63.47,4.53,4.53,0,0,1,1.17,1.18V47.23h.86v7.32a3,3,0,0,1-.29,1.34,2.93,2.93,0,0,1-.77,1,3.29,3.29,0,0,1-1.13.59,4.84,4.84,0,0,1-1.38.19,4,4,0,0,1-2-.44A3.53,3.53,0,0,1,361.31,56l.59-.46a2.6,2.6,0,0,0,1.15,1,3.61,3.61,0,0,0,1.54.33,3.27,3.27,0,0,0,1-.15,2.57,2.57,0,0,0,.84-.43,2.16,2.16,0,0,0,.56-.73,2.37,2.37,0,0,0,.21-1V53.11a3.17,3.17,0,0,1-2.67,1.51Zm.27-.8a2.33,2.33,0,0,0,.82-.15,2.81,2.81,0,0,0,.74-.41,2.78,2.78,0,0,0,.55-.59,1.63,1.63,0,0,0,.29-.65V49.76a2.82,2.82,0,0,0-.42-.73,2.71,2.71,0,0,0-.6-.57,3.09,3.09,0,0,0-.72-.38,2.36,2.36,0,0,0-1.88.12,2.54,2.54,0,0,0-.81.68,2.82,2.82,0,0,0-.51.95,3.4,3.4,0,0,0-.18,1.08,3,3,0,0,0,.21,1.12,2.86,2.86,0,0,0,1.44,1.56A2.39,2.39,0,0,0,364.8,53.82Z" transform="translate(-0.6 -0.71)"/><path class="cls-4" d="M373.41,54.66a3.54,3.54,0,0,1-1.47-.3,3.5,3.5,0,0,1-1.15-.82,3.87,3.87,0,0,1-1-2.69,3.78,3.78,0,0,1,1-2.63,3.59,3.59,0,0,1,1.16-.82,3.68,3.68,0,0,1,2.91,0,3.54,3.54,0,0,1,1.15.82,3.81,3.81,0,0,1,1,2.62v.22a.62.62,0,0,1,0,.16h-6.24A3,3,0,0,0,371,52.3a2.8,2.8,0,0,0,.59.86,2.5,2.5,0,0,0,.84.57,2.39,2.39,0,0,0,1,.21,2.88,2.88,0,0,0,.7-.1,3.08,3.08,0,0,0,.64-.27,2.35,2.35,0,0,0,.53-.41,2.08,2.08,0,0,0,.37-.54l.82.22a2.51,2.51,0,0,1-.47.74,3.35,3.35,0,0,1-.72.57,3.73,3.73,0,0,1-.89.38A3.86,3.86,0,0,1,373.41,54.66Zm2.68-4.17a2.68,2.68,0,0,0-.27-1.07,2.78,2.78,0,0,0-.59-.83,2.42,2.42,0,0,0-.82-.55,2.63,2.63,0,0,0-2,0,2.5,2.5,0,0,0-.84.55,2.83,2.83,0,0,0-.57.84,3.3,3.3,0,0,0-.26,1.06Z" transform="translate(-0.6 -0.71)"/><path class="cls-4" d="M380.9,54.66a5,5,0,0,1-1.67-.28,3.82,3.82,0,0,1-1.4-.81l.43-.64a4.61,4.61,0,0,0,1.26.75,3.62,3.62,0,0,0,1.36.26,2.45,2.45,0,0,0,1.41-.36,1.16,1.16,0,0,0,.52-1,.85.85,0,0,0-.14-.51,1.34,1.34,0,0,0-.41-.36,3.31,3.31,0,0,0-.69-.27c-.27-.08-.59-.16-.95-.24s-.79-.21-1.1-.31a3.37,3.37,0,0,1-.76-.35,1.29,1.29,0,0,1-.45-.48,1.61,1.61,0,0,1-.14-.73,2.12,2.12,0,0,1,.21-1,2,2,0,0,1,.59-.69,2.71,2.71,0,0,1,.87-.42,4,4,0,0,1,1.06-.14,3.92,3.92,0,0,1,1.52.28,3,3,0,0,1,1.11.72l-.46.56a2.62,2.62,0,0,0-1-.63,3.54,3.54,0,0,0-1.21-.21,3.08,3.08,0,0,0-.7.07,1.65,1.65,0,0,0-.57.25,1.13,1.13,0,0,0-.38.43,1.16,1.16,0,0,0-.14.6,1.08,1.08,0,0,0,.09.48.92.92,0,0,0,.33.32,2.79,2.79,0,0,0,.56.23c.23.07.51.15.84.22s.87.22,1.23.34a3.89,3.89,0,0,1,.89.39,1.74,1.74,0,0,1,.54.54,1.62,1.62,0,0,1,.18.79,1.9,1.9,0,0,1-.77,1.59A3.3,3.3,0,0,1,380.9,54.66Z" transform="translate(-0.6 -0.71)"/></svg>