<svg id="图层_1" data-name="图层 1" xmlns="http://www.w3.org/2000/svg" viewBox="0 0 452.35 159.85"><defs><style>.cls-1{fill:#f0850f;}.cls-2{fill:#939393;}.cls-3{fill:#fff;}.cls-4,.cls-5{fill:none;stroke-miterlimit:10;}.cls-4{stroke:#ef830d;stroke-width:1.07px;}.cls-5{stroke:#939393;stroke-width:0.65px;}</style></defs><title>04_Ivana-anne</title><path class="cls-1" d="M292.32,154.56V151.8h-5.17v-.93l5.51-7.13h.71v7.1h1.36v1h-1.36v2.76Zm-4.05-3.72h4.15V145.4Z" transform="translate(3.43 -1.08)"/><path class="cls-1" d="M303.68,149.54a2.81,2.81,0,0,1-.31,1.31,3.23,3.23,0,0,1-.84,1,3.78,3.78,0,0,1-1.23.64,4.87,4.87,0,0,1-1.48.23,4.37,4.37,0,0,1-1.52-.26,3.55,3.55,0,0,1-1.2-.7,2.91,2.91,0,0,1-.78-1,2.82,2.82,0,0,1-.28-1.25,2.45,2.45,0,0,1,.19-1,3.27,3.27,0,0,1,.5-.8,3.7,3.7,0,0,1,.71-.6,4,4,0,0,1,.8-.4,3.64,3.64,0,0,1-.7-.38,2.58,2.58,0,0,1-.57-.52,2.28,2.28,0,0,1-.4-.65,1.91,1.91,0,0,1-.15-.76,2.38,2.38,0,0,1,.31-1.2,3,3,0,0,1,.8-.87,3.78,3.78,0,0,1,1.1-.55,4.33,4.33,0,0,1,2.47,0,4.17,4.17,0,0,1,1.1.54,2.9,2.9,0,0,1,.8.87,2.41,2.41,0,0,1,.31,1.2,1.94,1.94,0,0,1-.15.76,2.84,2.84,0,0,1-.4.66,3.24,3.24,0,0,1-.59.52,4,4,0,0,1-.71.38,4,4,0,0,1,.85.43,3.3,3.3,0,0,1,.71.63,2.94,2.94,0,0,1,.48.8A2.63,2.63,0,0,1,303.68,149.54Zm-1.07-.08a1.86,1.86,0,0,0-.25-1,2.25,2.25,0,0,0-.65-.72,2.92,2.92,0,0,0-.9-.45,3.09,3.09,0,0,0-1-.16,3,3,0,0,0-1,.17,2.79,2.79,0,0,0-.87.46,2.47,2.47,0,0,0-.62.74,2.06,2.06,0,0,0-.23,1,1.87,1.87,0,0,0,.25,1,2.44,2.44,0,0,0,.64.72,3.38,3.38,0,0,0,.89.45,3.28,3.28,0,0,0,1,.15,3,3,0,0,0,1-.16,2.76,2.76,0,0,0,.88-.47,2.41,2.41,0,0,0,.63-.72A2,2,0,0,0,302.61,149.46Zm-5.13-5a1.52,1.52,0,0,0,.21.8,2.25,2.25,0,0,0,.56.59,2.59,2.59,0,0,0,.77.36,2.75,2.75,0,0,0,1.67,0,2.34,2.34,0,0,0,.76-.37,2.07,2.07,0,0,0,.57-.61,1.52,1.52,0,0,0,.22-.8,1.47,1.47,0,0,0-.21-.78,1.76,1.76,0,0,0-.53-.59,2.62,2.62,0,0,0-.77-.37,3.37,3.37,0,0,0-.9-.12,2.82,2.82,0,0,0-.87.13,2.39,2.39,0,0,0-.75.37,1.8,1.8,0,0,0-.53.6A1.52,1.52,0,0,0,297.48,144.44Z" transform="translate(3.43 -1.08)"/><path class="cls-2" d="M313.38,141.59l-7.32,11h-1.19l7.32-11Z" transform="translate(3.43 -1.08)"/><path class="cls-2" d="M322.22,149a3.76,3.76,0,0,1-2.38,3.48,3.87,3.87,0,0,1-1.53.3,4,4,0,0,1-1.6-.32,3.51,3.51,0,0,1-1.25-.91,4.31,4.31,0,0,1-.81-1.45,5.8,5.8,0,0,1-.29-1.93,12.65,12.65,0,0,1,.29-2.92,6.58,6.58,0,0,1,.83-2.07,3.51,3.51,0,0,1,1.28-1.24,3.42,3.42,0,0,1,1.66-.4,3.67,3.67,0,0,1,2,.54,3.57,3.57,0,0,1,1.31,1.51l-.68.62a2.84,2.84,0,0,0-1-1.27,2.8,2.8,0,0,0-1.58-.47,2.37,2.37,0,0,0-1.24.33,2.93,2.93,0,0,0-1,.93,5.24,5.24,0,0,0-.62,1.51,8.45,8.45,0,0,0-.22,2,3,3,0,0,1,1.17-1.46,3.36,3.36,0,0,1,1.88-.54,3.75,3.75,0,0,1,2.68,1.07,3.64,3.64,0,0,1,.81,1.19A3.57,3.57,0,0,1,322.22,149Zm-3.88,2.85a2.79,2.79,0,0,0,1.11-.23,3,3,0,0,0,.91-.61,2.86,2.86,0,0,0,.85-2,2.57,2.57,0,0,0-.24-1.11,2.88,2.88,0,0,0-.62-.91,3,3,0,0,0-.92-.61,2.77,2.77,0,0,0-2.21,0,3,3,0,0,0-.92.61,2.88,2.88,0,0,0-.62.91,2.72,2.72,0,0,0-.22,1.11,2.55,2.55,0,0,0,.23,1.1,2.92,2.92,0,0,0,2.65,1.75Z" transform="translate(3.43 -1.08)"/><path class="cls-2" d="M328.21,148.93a2.58,2.58,0,0,1,1.64.94,2.86,2.86,0,0,1,.61,1.87,3.14,3.14,0,0,1-.25,1.28,2.9,2.9,0,0,1-.73,1,3.39,3.39,0,0,1-1.13.64,4.54,4.54,0,0,1-1.47.22,4.38,4.38,0,0,1-2.06-.47,3.17,3.17,0,0,1-1.33-1.31l.72-.67a2.5,2.5,0,0,0,1,1.09,3.15,3.15,0,0,0,1.67.4,2.71,2.71,0,0,0,1.83-.57,2,2,0,0,0,.67-1.62,2.14,2.14,0,0,0-.7-1.68,2.93,2.93,0,0,0-2-.62h-.38v-.9h.41a2.74,2.74,0,0,0,1.83-.55,1.81,1.81,0,0,0,.64-1.44,1.94,1.94,0,0,0-.17-.82,1.74,1.74,0,0,0-.47-.6,2.12,2.12,0,0,0-.72-.36,3.14,3.14,0,0,0-.89-.12,3.06,3.06,0,0,0-1.56.39,2.59,2.59,0,0,0-1,1.09l-.68-.65a2.44,2.44,0,0,1,.52-.73,3.4,3.4,0,0,1,.78-.57,4.06,4.06,0,0,1,1-.36,4.32,4.32,0,0,1,1.08-.13,3.87,3.87,0,0,1,1.31.2,3.15,3.15,0,0,1,1,.56,2.58,2.58,0,0,1,.91,2,2.91,2.91,0,0,1-.14.89,2.4,2.4,0,0,1-.4.76,2.35,2.35,0,0,1-.65.56A2.18,2.18,0,0,1,328.21,148.93Z" transform="translate(3.43 -1.08)"/><path class="cls-2" d="M343.08,152.59H342v-4.51a3.61,3.61,0,0,0-.47-2.06,1.59,1.59,0,0,0-1.39-.68,2.36,2.36,0,0,0-.89.18,3.36,3.36,0,0,0-.83.49,3.28,3.28,0,0,0-.67.72,3.37,3.37,0,0,0-.43.92v4.94h-1V141.28h1v5.07a3.65,3.65,0,0,1,1.34-1.44,3.34,3.34,0,0,1,1.84-.53,2.48,2.48,0,0,1,1.18.25,2.18,2.18,0,0,1,.79.72,3,3,0,0,1,.45,1.1,6.9,6.9,0,0,1,.14,1.42Z" transform="translate(3.43 -1.08)"/><path class="cls-2" d="M348.77,152.75a3.91,3.91,0,0,1-1.62-.33,4.23,4.23,0,0,1-1.26-.91,4.09,4.09,0,0,1-.83-1.34,4.44,4.44,0,0,1-.29-1.59,4.31,4.31,0,0,1,.3-1.61,4.22,4.22,0,0,1,.84-1.34,4,4,0,0,1,1.26-.91,3.93,3.93,0,0,1,3.2,0,4.15,4.15,0,0,1,1.27.91,4.22,4.22,0,0,1,.84,1.34,4.31,4.31,0,0,1,.3,1.61,4.44,4.44,0,0,1-.29,1.59,4.26,4.26,0,0,1-.83,1.34,4.15,4.15,0,0,1-1.27.91A3.91,3.91,0,0,1,348.77,152.75Zm-2.93-4.16a3.3,3.3,0,0,0,.23,1.27,3.13,3.13,0,0,0,.63,1,2.76,2.76,0,0,0,.93.69,2.57,2.57,0,0,0,1.14.25,2.64,2.64,0,0,0,1.14-.26,3.13,3.13,0,0,0,.93-.69,3.43,3.43,0,0,0,.64-1,3.5,3.5,0,0,0,.23-1.27,3.56,3.56,0,0,0-.23-1.26,3.43,3.43,0,0,0-.64-1,3.16,3.16,0,0,0-.93-.7,2.63,2.63,0,0,0-1.14-.25,2.53,2.53,0,0,0-1.13.25,3,3,0,0,0-.94.71,3.45,3.45,0,0,0-.63,1A3.33,3.33,0,0,0,345.84,148.59Z" transform="translate(3.43 -1.08)"/><path class="cls-2" d="M357.07,152.75a2.27,2.27,0,0,1-2-.88,4.37,4.37,0,0,1-.64-2.61v-4.74h1v4.55c0,1.83.63,2.75,1.88,2.75a2.61,2.61,0,0,0,.91-.16,2.68,2.68,0,0,0,.83-.45,3.32,3.32,0,0,0,1.17-1.61v-5.08h1.06v6.71c0,.29.12.43.37.43v.93l-.3,0h-.17a.81.81,0,0,1-.6-.26.91.91,0,0,1-.23-.67v-.93a3.85,3.85,0,0,1-3.37,2Z" transform="translate(3.43 -1.08)"/><path class="cls-2" d="M367.78,145.45a3.27,3.27,0,0,0-1.86.59,3,3,0,0,0-1.11,1.53v5h-1.06v-8.07h1v1.94A3.58,3.58,0,0,1,366,145a2.78,2.78,0,0,1,1.62-.53l.2,0Z" transform="translate(3.43 -1.08)"/><path class="cls-2" d="M371.88,152.75a5.84,5.84,0,0,1-1.85-.31,4.58,4.58,0,0,1-1.55-.9l.48-.71a5.22,5.22,0,0,0,1.39.83,4,4,0,0,0,1.51.28,2.77,2.77,0,0,0,1.56-.39,1.29,1.29,0,0,0,.58-1.13,1,1,0,0,0-.15-.56,1.53,1.53,0,0,0-.46-.4,4,4,0,0,0-.76-.3c-.31-.09-.66-.18-1.06-.27s-.87-.23-1.21-.34a4.26,4.26,0,0,1-.85-.39,1.34,1.34,0,0,1-.49-.54,1.68,1.68,0,0,1-.17-.79,2.28,2.28,0,0,1,.24-1.07,2.14,2.14,0,0,1,.66-.77,3.06,3.06,0,0,1,1-.46,4.36,4.36,0,0,1,1.17-.15,4.58,4.58,0,0,1,1.69.3,3.37,3.37,0,0,1,1.22.8l-.51.62a2.88,2.88,0,0,0-1.09-.7,4.06,4.06,0,0,0-1.34-.23,3.81,3.81,0,0,0-.78.08,1.81,1.81,0,0,0-.63.28,1.27,1.27,0,0,0-.42.47,1.3,1.3,0,0,0-.16.67,1.16,1.16,0,0,0,.11.53.93.93,0,0,0,.36.35,2.82,2.82,0,0,0,.62.26c.26.08.56.16.93.24s1,.25,1.36.37a4.28,4.28,0,0,1,1,.44,1.57,1.57,0,0,1,.6.6,1.7,1.7,0,0,1,.2.87,2.12,2.12,0,0,1-.85,1.77A3.71,3.71,0,0,1,371.88,152.75Z" transform="translate(3.43 -1.08)"/><path class="cls-1" d="M292.73,116.63v1h-5.25v-1h2.2V110a1.64,1.64,0,0,1-.42.41c-.21.14-.43.27-.67.4a4.93,4.93,0,0,1-.75.31,2.38,2.38,0,0,1-.69.12v-1a2,2,0,0,0,.79-.2,5.78,5.78,0,0,0,.8-.47,6.83,6.83,0,0,0,.65-.49,1.57,1.57,0,0,0,.29-.31h1.09v7.89Z" transform="translate(3.43 -1.08)"/><path class="cls-1" d="M293.76,117.59a6.32,6.32,0,0,1,.09-1.06,3.75,3.75,0,0,1,.36-1.07,4,4,0,0,1,.78-1,5.59,5.59,0,0,1,1.34-.92c.3-.16.61-.31.94-.46a7.75,7.75,0,0,0,.9-.5,2.9,2.9,0,0,0,.67-.63,1.32,1.32,0,0,0,.26-.82,1.36,1.36,0,0,0-.13-.58,1.42,1.42,0,0,0-.38-.51,2,2,0,0,0-.64-.36,2.41,2.41,0,0,0-.89-.14,2.91,2.91,0,0,0-.92.14,3.81,3.81,0,0,0-.7.35,3.31,3.31,0,0,0-.52.43l-.33.36-.69-.76.35-.34a4.11,4.11,0,0,1,.69-.49,4.86,4.86,0,0,1,1-.44,4,4,0,0,1,1.29-.2,3.85,3.85,0,0,1,1.27.2,2.66,2.66,0,0,1,.95.53,2.41,2.41,0,0,1,.58.78,2.14,2.14,0,0,1,.21.93,2.1,2.1,0,0,1-.28,1.09,3.19,3.19,0,0,1-.69.81,5,5,0,0,1-.88.58c-.31.16-.59.3-.84.41s-.65.31-1,.49a5,5,0,0,0-.85.6,3,3,0,0,0-.61.73,1.73,1.73,0,0,0-.24.9h5.52v1Z" transform="translate(3.43 -1.08)"/><path class="cls-1" d="M309.57,114.53a2.78,2.78,0,0,1-.31,1.31,3.23,3.23,0,0,1-.84,1,3.8,3.8,0,0,1-1.23.65,4.87,4.87,0,0,1-1.48.22,4.15,4.15,0,0,1-1.52-.26,3.7,3.7,0,0,1-1.2-.69,3.09,3.09,0,0,1-.78-1,2.87,2.87,0,0,1-.28-1.26,2.45,2.45,0,0,1,.19-1,3,3,0,0,1,.5-.79,3.42,3.42,0,0,1,.71-.61,3.47,3.47,0,0,1,.8-.39,4.28,4.28,0,0,1-.7-.38,2.85,2.85,0,0,1-.57-.52,2.59,2.59,0,0,1-.4-.65,1.94,1.94,0,0,1-.15-.76,2.33,2.33,0,0,1,.31-1.2,3.06,3.06,0,0,1,.8-.88,3.53,3.53,0,0,1,1.1-.54,4.11,4.11,0,0,1,2.47,0,3.86,3.86,0,0,1,1.1.53,2.94,2.94,0,0,1,.8.88,2.37,2.37,0,0,1,.31,1.19,1.94,1.94,0,0,1-.15.76,2.48,2.48,0,0,1-.4.66,3.29,3.29,0,0,1-.59.53,4.84,4.84,0,0,1-.71.38,3.54,3.54,0,0,1,.85.42,3.3,3.3,0,0,1,.71.63,3,3,0,0,1,.48.81A2.58,2.58,0,0,1,309.57,114.53Zm-1.07-.07a1.89,1.89,0,0,0-.25-1,2.48,2.48,0,0,0-.65-.72,2.92,2.92,0,0,0-.9-.45,3.38,3.38,0,0,0-1-.15,3.06,3.06,0,0,0-1.86.62,2.6,2.6,0,0,0-.62.74,2.06,2.06,0,0,0-.23,1,1.85,1.85,0,0,0,.25,1,2.44,2.44,0,0,0,.64.72,2.87,2.87,0,0,0,.89.45,3.3,3.3,0,0,0,1,.16,3,3,0,0,0,1-.17,3,3,0,0,0,.88-.46,2.45,2.45,0,0,0,.63-.73A1.92,1.92,0,0,0,308.5,114.46Zm-5.13-5a1.52,1.52,0,0,0,.21.8,2.25,2.25,0,0,0,.56.59,2.89,2.89,0,0,0,.77.37,3,3,0,0,0,1.67,0,2.58,2.58,0,0,0,.76-.38,1.92,1.92,0,0,0,.57-.6,1.58,1.58,0,0,0,.22-.81,1.47,1.47,0,0,0-.21-.78,1.86,1.86,0,0,0-.53-.59,2.38,2.38,0,0,0-.77-.36,3,3,0,0,0-.9-.13,3.16,3.16,0,0,0-.87.13,2.41,2.41,0,0,0-.75.38,1.86,1.86,0,0,0-.53.59A1.52,1.52,0,0,0,303.37,109.43Z" transform="translate(3.43 -1.08)"/><path class="cls-2" d="M319.27,106.58l-7.32,11h-1.19l7.32-11Z" transform="translate(3.43 -1.08)"/><path class="cls-2" d="M325.73,116.63v1h-5.25v-1h2.2V110a1.55,1.55,0,0,1-.43.41,6.78,6.78,0,0,1-.66.4,5.94,5.94,0,0,1-.75.31,2.38,2.38,0,0,1-.69.12v-1a2,2,0,0,0,.79-.2,5.78,5.78,0,0,0,.8-.47,6.83,6.83,0,0,0,.65-.49,1.57,1.57,0,0,0,.29-.31h1.09v7.89Z" transform="translate(3.43 -1.08)"/><path class="cls-2" d="M326.76,117.59a6.32,6.32,0,0,1,.09-1.06,3.63,3.63,0,0,1,1.14-2.08,5.4,5.4,0,0,1,1.34-.92c.3-.16.61-.31.94-.46a7.75,7.75,0,0,0,.9-.5,3.12,3.12,0,0,0,.67-.63,1.32,1.32,0,0,0,.26-.82,1.36,1.36,0,0,0-.13-.58,1.45,1.45,0,0,0-.39-.51,1.93,1.93,0,0,0-.63-.36,2.41,2.41,0,0,0-.89-.14,2.91,2.91,0,0,0-.92.14,3.51,3.51,0,0,0-.7.35,3.31,3.31,0,0,0-.52.43c-.15.15-.25.27-.33.36l-.69-.76.35-.34a4.11,4.11,0,0,1,.69-.49,4.86,4.86,0,0,1,1-.44,4,4,0,0,1,1.29-.2,3.85,3.85,0,0,1,1.27.2,2.66,2.66,0,0,1,.95.53,2.41,2.41,0,0,1,.58.78,2.14,2.14,0,0,1,.21.93,2.1,2.1,0,0,1-.28,1.09,3.19,3.19,0,0,1-.69.81,5,5,0,0,1-.88.58c-.31.16-.59.3-.84.41s-.65.31-1,.49a5,5,0,0,0-.85.6,3,3,0,0,0-.61.73,1.73,1.73,0,0,0-.24.9h5.52v1Z" transform="translate(3.43 -1.08)"/><path class="cls-2" d="M342.57,114.53a2.78,2.78,0,0,1-.31,1.31,3.23,3.23,0,0,1-.84,1,3.8,3.8,0,0,1-1.23.65,4.87,4.87,0,0,1-1.48.22,4.15,4.15,0,0,1-1.52-.26,3.7,3.7,0,0,1-1.2-.69,3.26,3.26,0,0,1-.79-1,3,3,0,0,1-.27-1.26,2.45,2.45,0,0,1,.19-1,3,3,0,0,1,.5-.79,3.19,3.19,0,0,1,.71-.61,3.47,3.47,0,0,1,.8-.39,4.28,4.28,0,0,1-.7-.38,2.85,2.85,0,0,1-.57-.52,2.59,2.59,0,0,1-.4-.65,1.94,1.94,0,0,1-.15-.76,2.33,2.33,0,0,1,.31-1.2,3.06,3.06,0,0,1,.8-.88,3.53,3.53,0,0,1,1.1-.54,4.11,4.11,0,0,1,2.47,0,3.86,3.86,0,0,1,1.1.53,2.78,2.78,0,0,1,.79.88,2.27,2.27,0,0,1,.31,1.19,1.94,1.94,0,0,1-.14.76,2.51,2.51,0,0,1-.41.66,2.93,2.93,0,0,1-.58.53,4.84,4.84,0,0,1-.71.38,3.54,3.54,0,0,1,.85.42,3.3,3.3,0,0,1,.71.63,3,3,0,0,1,.48.81A2.58,2.58,0,0,1,342.57,114.53Zm-1.07-.07a2,2,0,0,0-.25-1,2.48,2.48,0,0,0-.65-.72,2.92,2.92,0,0,0-.9-.45,3.38,3.38,0,0,0-1-.15,3.06,3.06,0,0,0-1.86.62,2.45,2.45,0,0,0-.62.74,2.06,2.06,0,0,0-.23,1,1.85,1.85,0,0,0,.25,1,2.44,2.44,0,0,0,.64.72,2.82,2.82,0,0,0,.88.45,3.41,3.41,0,0,0,1,.16,3,3,0,0,0,1-.17,3,3,0,0,0,.88-.46,2.45,2.45,0,0,0,.63-.73A1.92,1.92,0,0,0,341.5,114.46Zm-5.13-5a1.52,1.52,0,0,0,.21.8,2.1,2.1,0,0,0,.56.59,2.75,2.75,0,0,0,.77.37,3,3,0,0,0,.83.12,2.92,2.92,0,0,0,.83-.12,2.64,2.64,0,0,0,.77-.38,2,2,0,0,0,.57-.6,1.58,1.58,0,0,0,.22-.81,1.47,1.47,0,0,0-.21-.78,1.86,1.86,0,0,0-.53-.59,2.38,2.38,0,0,0-.77-.36,3,3,0,0,0-.9-.13,3.16,3.16,0,0,0-.87.13,2.41,2.41,0,0,0-.75.38,1.86,1.86,0,0,0-.53.59A1.52,1.52,0,0,0,336.37,109.43Z" transform="translate(3.43 -1.08)"/><path class="cls-2" d="M352.58,117.74a3.2,3.2,0,0,1-1.81-.52,4,4,0,0,1-1.26-1.31v5h-1.05V109.51h.94v1.57a3.92,3.92,0,0,1,1.29-1.24,3.44,3.44,0,0,1,3.25-.12,3.81,3.81,0,0,1,1.21.93A4.3,4.3,0,0,1,356,112a4.45,4.45,0,0,1,.29,1.57,4.77,4.77,0,0,1-.27,1.61,3.86,3.86,0,0,1-.75,1.33,3.55,3.55,0,0,1-1.16.91A3.31,3.31,0,0,1,352.58,117.74Zm-.3-.93a2.49,2.49,0,0,0,1.19-.28,3,3,0,0,0,.92-.73,3.53,3.53,0,0,0,.58-1,3.78,3.78,0,0,0,.2-1.2,3.39,3.39,0,0,0-.87-2.28,3,3,0,0,0-.95-.71,2.69,2.69,0,0,0-1.19-.27,2.59,2.59,0,0,0-.84.16,3.67,3.67,0,0,0-.83.44,3,3,0,0,0-.65.63,1.74,1.74,0,0,0-.33.77v2.48a3.64,3.64,0,0,0,.47.81,3.28,3.28,0,0,0,.65.64,3.57,3.57,0,0,0,.79.43A2.55,2.55,0,0,0,352.28,116.81Z" transform="translate(3.43 -1.08)"/><path class="cls-2" d="M357.88,109.51l2.42,3.16.12.24.13-.24,2.41-3.16h1.14L361,113.57l3.09,4H363l-2.41-3.15-.13-.22-.12.22-2.42,3.15h-1.13l3.08-4-3.08-4.06Z" transform="translate(3.43 -1.08)"/><path class="cls-1" d="M293.09,40.92h-5.94V40h7.62L289.2,51H288Z" transform="translate(3.43 -1.08)"/><path class="cls-1" d="M298.92,44.15a3.61,3.61,0,0,1,1.41.26,3.56,3.56,0,0,1,1.14.72,3.41,3.41,0,0,1,.77,1.1,3.76,3.76,0,0,1,0,2.92,3.27,3.27,0,0,1-.82,1.14,3.55,3.55,0,0,1-1.21.74,4.5,4.5,0,0,1-2.62.12,3.74,3.74,0,0,1-1-.43,4,4,0,0,1-.82-.67,3.21,3.21,0,0,1-.59-.86l.7-.53a3.37,3.37,0,0,0,1.18,1.22,3.07,3.07,0,0,0,1.65.47,3.12,3.12,0,0,0,1.07-.19,2.8,2.8,0,0,0,.87-.55,2.56,2.56,0,0,0,.58-.86,2.74,2.74,0,0,0,.21-1.08,2.77,2.77,0,0,0-.2-1.05,2.4,2.4,0,0,0-.56-.81,2.45,2.45,0,0,0-.84-.53,2.9,2.9,0,0,0-1-.19,3.11,3.11,0,0,0-1.38.32,2.63,2.63,0,0,0-1,.92h-1l.08-.41q.06-.33.15-.78c.07-.3.13-.63.21-1s.14-.73.21-1.11c.18-.86.37-1.83.58-2.9h5.31v1h-4.52l-.76,4a2.72,2.72,0,0,1,1-.67A3.32,3.32,0,0,1,298.92,44.15Z" transform="translate(3.43 -1.08)"/><path class="cls-1" d="M311.71,44.44a5.72,5.72,0,0,1-.3,1.89,4.59,4.59,0,0,1-.81,1.48,3.73,3.73,0,0,1-1.23,1,3.56,3.56,0,0,1-1.55.35,3.49,3.49,0,0,1-1.55-.35,3.67,3.67,0,0,1-1.24-1,4.79,4.79,0,0,1-.81-1.48,5.72,5.72,0,0,1-.29-1.89,5.66,5.66,0,0,1,.29-1.88,5,5,0,0,1,.81-1.49,3.8,3.8,0,0,1,1.24-1,3.37,3.37,0,0,1,1.55-.36,3.43,3.43,0,0,1,1.55.36,3.86,3.86,0,0,1,1.23,1,4.75,4.75,0,0,1,.81,1.49A5.66,5.66,0,0,1,311.71,44.44Zm-1.07,0a5.22,5.22,0,0,0-.21-1.52,3.77,3.77,0,0,0-.58-1.17A2.77,2.77,0,0,0,309,41a2.5,2.5,0,0,0-2.3,0,2.66,2.66,0,0,0-.89.75,3.77,3.77,0,0,0-.58,1.17,5.22,5.22,0,0,0-.21,1.52,5.12,5.12,0,0,0,.21,1.52,3.56,3.56,0,0,0,.58,1.17,2.45,2.45,0,0,0,.89.75,2.58,2.58,0,0,0,2.3,0,2.54,2.54,0,0,0,.89-.75,3.56,3.56,0,0,0,.58-1.17A5.12,5.12,0,0,0,310.64,44.44Z" transform="translate(3.43 -1.08)"/><path class="cls-2" d="M321.49,38l-7.32,11H313l7.31-11Z" transform="translate(3.43 -1.08)"/><path class="cls-2" d="M322.26,49a6.44,6.44,0,0,1,.09-1.07,4.06,4.06,0,0,1,.37-1.06,3.93,3.93,0,0,1,.77-1,5.68,5.68,0,0,1,1.35-.93l.93-.45a5.55,5.55,0,0,0,.9-.51,2.58,2.58,0,0,0,.68-.63,1.33,1.33,0,0,0,.26-.81,1.36,1.36,0,0,0-.13-.58,1.58,1.58,0,0,0-.39-.51,2.07,2.07,0,0,0-.64-.37,2.64,2.64,0,0,0-.89-.14,2.59,2.59,0,0,0-.91.15,3.91,3.91,0,0,0-.71.35,3.2,3.2,0,0,0-.51.43,4.22,4.22,0,0,0-.33.36l-.7-.76.36-.34a3.42,3.42,0,0,1,.69-.49,4.91,4.91,0,0,1,1-.45,4,4,0,0,1,1.28-.19,3.91,3.91,0,0,1,1.28.19,2.79,2.79,0,0,1,.94.54,2.3,2.3,0,0,1,.59.78,2.28,2.28,0,0,1,.2.92,2,2,0,0,1-.28,1.1,3,3,0,0,1-.69.81,4.55,4.55,0,0,1-.87.58c-.31.16-.59.3-.84.41s-.65.31-1,.49a4.86,4.86,0,0,0-.84.6,3,3,0,0,0-.62.72,1.73,1.73,0,0,0-.24.9h5.52v1Z" transform="translate(3.43 -1.08)"/><path class="cls-2" d="M338.29,44.44a5.72,5.72,0,0,1-.3,1.89,4.41,4.41,0,0,1-.81,1.48,3.73,3.73,0,0,1-1.23,1,3.56,3.56,0,0,1-4.33-1,4.61,4.61,0,0,1-.82-1.48,6,6,0,0,1-.29-1.89,5.93,5.93,0,0,1,.29-1.88,4.77,4.77,0,0,1,.82-1.49,3.66,3.66,0,0,1,1.23-1,3.52,3.52,0,0,1,3.1,0,3.86,3.86,0,0,1,1.23,1,4.55,4.55,0,0,1,.81,1.49A5.66,5.66,0,0,1,338.29,44.44Zm-1.07,0a5.22,5.22,0,0,0-.21-1.52,3.77,3.77,0,0,0-.58-1.17,2.77,2.77,0,0,0-.89-.75,2.5,2.5,0,0,0-2.3,0,2.77,2.77,0,0,0-.89.75,3.77,3.77,0,0,0-.58,1.17,5.22,5.22,0,0,0-.21,1.52,5.12,5.12,0,0,0,.21,1.52,3.56,3.56,0,0,0,.58,1.17,2.54,2.54,0,0,0,.89.75,2.58,2.58,0,0,0,2.3,0,2.54,2.54,0,0,0,.89-.75A3.56,3.56,0,0,0,337,46,5.12,5.12,0,0,0,337.22,44.44Z" transform="translate(3.43 -1.08)"/><path class="cls-2" d="M347.77,44.44a5.72,5.72,0,0,1-.29,1.89,4.79,4.79,0,0,1-.81,1.48,3.67,3.67,0,0,1-1.24,1,3.48,3.48,0,0,1-1.54.35,3.57,3.57,0,0,1-1.56-.35,3.73,3.73,0,0,1-1.23-1,4.59,4.59,0,0,1-.81-1.48,5.72,5.72,0,0,1-.3-1.89,5.66,5.66,0,0,1,.3-1.88,4.75,4.75,0,0,1,.81-1.49,3.86,3.86,0,0,1,1.23-1,3.44,3.44,0,0,1,1.56-.36,3.36,3.36,0,0,1,1.54.36,3.8,3.8,0,0,1,1.24,1,5,5,0,0,1,.81,1.49A5.66,5.66,0,0,1,347.77,44.44Zm-1.06,0a5.22,5.22,0,0,0-.21-1.52,4,4,0,0,0-.58-1.17A2.7,2.7,0,0,0,345,41a2.28,2.28,0,0,0-1.13-.28,2.37,2.37,0,0,0-1.16.28,2.66,2.66,0,0,0-.89.75,3.77,3.77,0,0,0-.58,1.17,5.22,5.22,0,0,0-.21,1.52,5.12,5.12,0,0,0,.21,1.52,3.56,3.56,0,0,0,.58,1.17,2.45,2.45,0,0,0,.89.75,2.48,2.48,0,0,0,1.16.27,2.39,2.39,0,0,0,1.13-.27,2.48,2.48,0,0,0,.9-.75A3.77,3.77,0,0,0,346.5,46,5.12,5.12,0,0,0,346.71,44.44Z" transform="translate(3.43 -1.08)"/><path class="cls-2" d="M357.26,44.44a6,6,0,0,1-.29,1.89,4.61,4.61,0,0,1-.82,1.48,3.58,3.58,0,0,1-4.33,1,3.63,3.63,0,0,1-1.23-1,4.61,4.61,0,0,1-.82-1.48,6,6,0,0,1-.29-1.89,5.93,5.93,0,0,1,.29-1.88,4.77,4.77,0,0,1,.82-1.49,3.76,3.76,0,0,1,1.23-1,3.52,3.52,0,0,1,3.1,0,3.66,3.66,0,0,1,1.23,1,4.77,4.77,0,0,1,.82,1.49A5.93,5.93,0,0,1,357.26,44.44Zm-1.07,0a5.22,5.22,0,0,0-.21-1.52,3.77,3.77,0,0,0-.58-1.17,2.66,2.66,0,0,0-.89-.75,2.48,2.48,0,0,0-2.29,0,2.7,2.7,0,0,0-.9.75,4,4,0,0,0-.58,1.17,5.22,5.22,0,0,0-.21,1.52,5.12,5.12,0,0,0,.21,1.52,3.77,3.77,0,0,0,.58,1.17,2.48,2.48,0,0,0,.9.75,2.54,2.54,0,0,0,3.18-.75A3.56,3.56,0,0,0,356,46,5.12,5.12,0,0,0,356.19,44.44Z" transform="translate(3.43 -1.08)"/><path class="cls-2" d="M363.23,39.22V37.67h1v1.55Zm0,9.77V40.91h1V49Z" transform="translate(3.43 -1.08)"/><path class="cls-2" d="M378.62,49h-1.05V44.47a3.74,3.74,0,0,0-.45-2.07,1.5,1.5,0,0,0-1.34-.67,2.29,2.29,0,0,0-.87.17,2.87,2.87,0,0,0-.76.48,3.17,3.17,0,0,0-.61.74,3.48,3.48,0,0,0-.41.94V49h-1.05V44.47a3.87,3.87,0,0,0-.44-2.09,1.48,1.48,0,0,0-1.33-.65,2.37,2.37,0,0,0-1.63.64,3.58,3.58,0,0,0-1,1.67v5h-1.05V40.91h1v1.83a3.82,3.82,0,0,1,1.3-1.45,3.19,3.19,0,0,1,1.78-.52,2.31,2.31,0,0,1,1.64.57,2.51,2.51,0,0,1,.75,1.51,3.44,3.44,0,0,1,3.12-2.08,2.41,2.41,0,0,1,1.15.25,1.9,1.9,0,0,1,.76.7,3.5,3.5,0,0,1,.42,1.1,7.07,7.07,0,0,1,.13,1.44Z" transform="translate(3.43 -1.08)"/><path class="cls-2" d="M382.88,49.14a2.85,2.85,0,0,1-1.06-.19,2.57,2.57,0,0,1-.85-.54,2.39,2.39,0,0,1-.57-.8,2.45,2.45,0,0,1-.2-1,2,2,0,0,1,.25-1,2.23,2.23,0,0,1,.7-.77,3.32,3.32,0,0,1,1.07-.51,4.82,4.82,0,0,1,1.36-.17,7.82,7.82,0,0,1,1.26.1,6.35,6.35,0,0,1,1.13.31v-.72a2.36,2.36,0,0,0-.61-1.7,2.2,2.2,0,0,0-1.67-.63,3.42,3.42,0,0,0-1.27.25,5.69,5.69,0,0,0-1.32.71l-.37-.7a5.44,5.44,0,0,1,3-1,3.24,3.24,0,0,1,2.38.85A3.16,3.16,0,0,1,387,44v3.64c0,.29.13.43.39.43V49a2.51,2.51,0,0,1-.4,0,.93.93,0,0,1-.63-.2.75.75,0,0,1-.24-.56l0-.63a3.75,3.75,0,0,1-1.41,1.11A4.28,4.28,0,0,1,382.88,49.14Zm.25-.81a3.58,3.58,0,0,0,1.51-.31,2.45,2.45,0,0,0,1.05-.82,1,1,0,0,0,.21-.3.92.92,0,0,0,.07-.3V45.28a6.62,6.62,0,0,0-1.1-.31,6.23,6.23,0,0,0-1.15-.11,3.18,3.18,0,0,0-1.81.47,1.41,1.41,0,0,0-.7,1.22,1.82,1.82,0,0,0,.14.7,1.76,1.76,0,0,0,.41.56,1.66,1.66,0,0,0,.61.38A1.94,1.94,0,0,0,383.13,48.33Z" transform="translate(3.43 -1.08)"/><path class="cls-2" d="M392.54,49.09a3.37,3.37,0,0,1-1.53-.34,3.87,3.87,0,0,1-1.19-.93A4,4,0,0,1,389,46.5a4.19,4.19,0,0,1-.28-1.53,4.76,4.76,0,0,1,.27-1.6A3.86,3.86,0,0,1,389.8,42a3.66,3.66,0,0,1,1.18-.92,3.37,3.37,0,0,1,1.53-.34,3.1,3.1,0,0,1,1.8.52,5.06,5.06,0,0,1,1.3,1.31V40.91h.94V49a3.09,3.09,0,0,1-1.17,2.55,3.46,3.46,0,0,1-1.25.65,5.1,5.1,0,0,1-1.53.22,4.47,4.47,0,0,1-2.25-.49A3.93,3.93,0,0,1,389,50.61l.65-.51a2.87,2.87,0,0,0,1.28,1.14,4,4,0,0,0,1.7.36,3.75,3.75,0,0,0,1.12-.16,2.78,2.78,0,0,0,.92-.48,2.38,2.38,0,0,0,.63-.8A2.73,2.73,0,0,0,395.5,49v-1.6a3.31,3.31,0,0,1-1.27,1.22A3.42,3.42,0,0,1,392.54,49.09Zm.29-.88a2.67,2.67,0,0,0,.92-.17,2.93,2.93,0,0,0,.81-.46,2.84,2.84,0,0,0,.61-.64,1.9,1.9,0,0,0,.33-.73v-2.5a3.44,3.44,0,0,0-1.13-1.44,3.56,3.56,0,0,0-.8-.41,2.34,2.34,0,0,0-.86-.16,2.56,2.56,0,0,0-1.22.29,2.84,2.84,0,0,0-.9.75,3.34,3.34,0,0,0-.57,1,3.81,3.81,0,0,0-.19,1.2,3.34,3.34,0,0,0,.87,2.27,3.13,3.13,0,0,0,1,.69A2.71,2.71,0,0,0,392.83,48.21Z" transform="translate(3.43 -1.08)"/><path class="cls-2" d="M402.37,49.14a3.91,3.91,0,0,1-1.62-.33,4.16,4.16,0,0,1-2.13-2.26,4.37,4.37,0,0,1-.3-1.63,4.29,4.29,0,0,1,.3-1.6,4.13,4.13,0,0,1,.84-1.32,4.05,4.05,0,0,1,1.28-.9,4.12,4.12,0,0,1,3.23,0,4,4,0,0,1,1.26.91,4.08,4.08,0,0,1,.82,1.32,4.15,4.15,0,0,1,.3,1.58v.25a.59.59,0,0,1,0,.17h-6.91a3.42,3.42,0,0,0,.3,1.2,3.23,3.23,0,0,0,.66.95,3,3,0,0,0,.92.63,2.78,2.78,0,0,0,1.11.22,3,3,0,0,0,.78-.1,4.09,4.09,0,0,0,.71-.3,2.61,2.61,0,0,0,.59-.46,2.05,2.05,0,0,0,.4-.59l.92.24a2.75,2.75,0,0,1-.53.82,3.77,3.77,0,0,1-.79.63,4,4,0,0,1-1,.42A4.22,4.22,0,0,1,402.37,49.14Zm3-4.62a3.31,3.31,0,0,0-.3-1.19,3.39,3.39,0,0,0-.65-.92,3,3,0,0,0-.92-.6,2.7,2.7,0,0,0-1.1-.22,2.8,2.8,0,0,0-1.12.22,2.87,2.87,0,0,0-.92.6,2.91,2.91,0,0,0-.64.93,3.85,3.85,0,0,0-.29,1.18Z" transform="translate(3.43 -1.08)"/><path class="cls-2" d="M410.66,49.14a5.57,5.57,0,0,1-1.85-.31,4.58,4.58,0,0,1-1.55-.9l.48-.71a5.22,5.22,0,0,0,1.39.83,4,4,0,0,0,1.51.28,2.77,2.77,0,0,0,1.56-.39,1.27,1.27,0,0,0,.58-1.12,1,1,0,0,0-.15-.57,1.53,1.53,0,0,0-.46-.4,4,4,0,0,0-.76-.3c-.31-.09-.66-.18-1.06-.27s-.87-.23-1.21-.34a3.55,3.55,0,0,1-.85-.39,1.38,1.38,0,0,1-.49-.53,1.73,1.73,0,0,1-.16-.8,2.31,2.31,0,0,1,.24-1.07,2.11,2.11,0,0,1,.65-.77,3.06,3.06,0,0,1,1-.46,4.36,4.36,0,0,1,1.17-.15,4.58,4.58,0,0,1,1.69.3,3.37,3.37,0,0,1,1.22.8l-.51.62a2.88,2.88,0,0,0-1.09-.7,4.06,4.06,0,0,0-1.34-.23,3.21,3.21,0,0,0-.78.09,1.63,1.63,0,0,0-.63.27,1.27,1.27,0,0,0-.42.47,1.33,1.33,0,0,0-.16.67,1.13,1.13,0,0,0,.11.53.87.87,0,0,0,.36.35,2.34,2.34,0,0,0,.63.26c.25.08.56.16.92.24s1,.25,1.36.38a4.15,4.15,0,0,1,1,.43,1.77,1.77,0,0,1,.59.6,1.7,1.7,0,0,1,.2.87,2.1,2.1,0,0,1-.85,1.77A3.71,3.71,0,0,1,410.66,49.14Z" transform="translate(3.43 -1.08)"/><path class="cls-1" d="M287.15,85a6.46,6.46,0,0,1,.1-1.07,3.7,3.7,0,0,1,.36-1.06,3.76,3.76,0,0,1,.78-1,5.41,5.41,0,0,1,1.34-.93l.94-.45a5.9,5.9,0,0,0,.89-.51,2.72,2.72,0,0,0,.68-.62,1.38,1.38,0,0,0,.26-.82,1.36,1.36,0,0,0-.13-.58,1.58,1.58,0,0,0-.39-.51,2.14,2.14,0,0,0-.63-.37,2.69,2.69,0,0,0-.89-.13,2.91,2.91,0,0,0-.92.14,3.51,3.51,0,0,0-.7.35,2.9,2.9,0,0,0-.52.43,4.22,4.22,0,0,0-.33.36l-.7-.76.36-.34a4.11,4.11,0,0,1,.69-.49,5.17,5.17,0,0,1,1-.45,4,4,0,0,1,1.29-.19,3.85,3.85,0,0,1,1.27.19,2.79,2.79,0,0,1,.94.54,2.3,2.3,0,0,1,.59.78,2.12,2.12,0,0,1,.2.92,2,2,0,0,1-.28,1.1,3,3,0,0,1-.69.81,4.55,4.55,0,0,1-.87.58c-.31.16-.59.3-.84.41s-.65.31-1,.49a5.28,5.28,0,0,0-.84.6,2.83,2.83,0,0,0-.61.73,1.67,1.67,0,0,0-.24.89h5.51v1Z" transform="translate(3.43 -1.08)"/><path class="cls-1" d="M303.18,80.43a6,6,0,0,1-.29,1.89,4.61,4.61,0,0,1-.82,1.48,3.54,3.54,0,0,1-1.23,1,3.61,3.61,0,0,1-3.1,0,3.63,3.63,0,0,1-1.23-1,4.61,4.61,0,0,1-.82-1.48,6,6,0,0,1-.29-1.89,5.93,5.93,0,0,1,.29-1.88,4.77,4.77,0,0,1,.82-1.49,3.76,3.76,0,0,1,1.23-1,3.52,3.52,0,0,1,3.1,0,3.66,3.66,0,0,1,1.23,1,4.77,4.77,0,0,1,.82,1.49A5.93,5.93,0,0,1,303.18,80.43Zm-1.07,0a5.1,5.1,0,0,0-.21-1.51,3.72,3.72,0,0,0-.58-1.18,2.66,2.66,0,0,0-.89-.75,2.48,2.48,0,0,0-2.29,0,2.7,2.7,0,0,0-.9.75,3.94,3.94,0,0,0-.58,1.18,5.57,5.57,0,0,0,0,3,3.77,3.77,0,0,0,.58,1.17,2.62,2.62,0,0,0,.9.76,2.52,2.52,0,0,0,3.18-.76A3.56,3.56,0,0,0,301.9,82,5.12,5.12,0,0,0,302.11,80.43Z" transform="translate(3.43 -1.08)"/><path class="cls-1" d="M312.67,80.43a5.72,5.72,0,0,1-.3,1.89,4.41,4.41,0,0,1-.81,1.48,3.73,3.73,0,0,1-1.23,1,3.56,3.56,0,0,1-1.55.35,3.49,3.49,0,0,1-1.55-.35,3.67,3.67,0,0,1-1.24-1,4.79,4.79,0,0,1-.81-1.48,5.72,5.72,0,0,1-.29-1.89,5.66,5.66,0,0,1,.29-1.88,5,5,0,0,1,.81-1.49,3.8,3.8,0,0,1,1.24-1,3.37,3.37,0,0,1,1.55-.36,3.43,3.43,0,0,1,1.55.36,3.86,3.86,0,0,1,1.23,1,4.55,4.55,0,0,1,.81,1.49A5.66,5.66,0,0,1,312.67,80.43Zm-1.07,0a5.1,5.1,0,0,0-.21-1.51,3.72,3.72,0,0,0-.58-1.18,2.77,2.77,0,0,0-.89-.75,2.5,2.5,0,0,0-2.3,0,2.77,2.77,0,0,0-.89.75,3.72,3.72,0,0,0-.58,1.18,5.57,5.57,0,0,0,0,3,3.56,3.56,0,0,0,.58,1.17,2.68,2.68,0,0,0,.89.76,2.67,2.67,0,0,0,2.3,0,2.68,2.68,0,0,0,.89-.76,3.56,3.56,0,0,0,.58-1.17A5.12,5.12,0,0,0,311.6,80.43Z" transform="translate(3.43 -1.08)"/><path class="cls-1" d="M322.15,80.43a6,6,0,0,1-.29,1.89,4.79,4.79,0,0,1-.81,1.48,3.67,3.67,0,0,1-1.24,1,3.61,3.61,0,0,1-3.1,0,3.73,3.73,0,0,1-1.23-1,4.41,4.41,0,0,1-.81-1.48,5.72,5.72,0,0,1-.3-1.89,5.66,5.66,0,0,1,.3-1.88,4.55,4.55,0,0,1,.81-1.49,3.86,3.86,0,0,1,1.23-1,3.52,3.52,0,0,1,3.1,0,3.8,3.8,0,0,1,1.24,1,5,5,0,0,1,.81,1.49A5.93,5.93,0,0,1,322.15,80.43Zm-1.07,0a5.1,5.1,0,0,0-.21-1.51,3.52,3.52,0,0,0-.58-1.18,2.57,2.57,0,0,0-.89-.75,2.29,2.29,0,0,0-1.14-.28,2.33,2.33,0,0,0-1.15.28,2.57,2.57,0,0,0-.89.75,3.72,3.72,0,0,0-.58,1.18,5.57,5.57,0,0,0,0,3,3.56,3.56,0,0,0,.58,1.17,2.5,2.5,0,0,0,.89.76,2.56,2.56,0,0,0,1.15.26,2.45,2.45,0,0,0,2-1,3.38,3.38,0,0,0,.58-1.17A5.12,5.12,0,0,0,321.08,80.43Z" transform="translate(3.43 -1.08)"/><path class="cls-1" d="M331.64,80.43a5.72,5.72,0,0,1-.3,1.89,4.41,4.41,0,0,1-.81,1.48,3.73,3.73,0,0,1-1.23,1,3.56,3.56,0,0,1-4.33-1,4.61,4.61,0,0,1-.82-1.48,6,6,0,0,1-.29-1.89,5.93,5.93,0,0,1,.29-1.88,4.77,4.77,0,0,1,.82-1.49,3.66,3.66,0,0,1,1.23-1,3.52,3.52,0,0,1,3.1,0,3.86,3.86,0,0,1,1.23,1,4.55,4.55,0,0,1,.81,1.49A5.66,5.66,0,0,1,331.64,80.43Zm-1.07,0a5.1,5.1,0,0,0-.21-1.51,3.72,3.72,0,0,0-.58-1.18,2.77,2.77,0,0,0-.89-.75,2.5,2.5,0,0,0-2.3,0,2.77,2.77,0,0,0-.89.75,3.72,3.72,0,0,0-.58,1.18,5.57,5.57,0,0,0,0,3,3.56,3.56,0,0,0,.58,1.17,2.68,2.68,0,0,0,.89.76,2.67,2.67,0,0,0,2.3,0,2.68,2.68,0,0,0,.89-.76,3.56,3.56,0,0,0,.58-1.17A5.12,5.12,0,0,0,330.57,80.43Z" transform="translate(3.43 -1.08)"/><path class="cls-1" d="M341.13,80.43a5.72,5.72,0,0,1-.3,1.89A4.79,4.79,0,0,1,340,83.8a3.67,3.67,0,0,1-1.24,1,3.48,3.48,0,0,1-1.54.35,3.57,3.57,0,0,1-1.56-.35,3.73,3.73,0,0,1-1.23-1,4.79,4.79,0,0,1-.81-1.48,5.72,5.72,0,0,1-.3-1.89,5.66,5.66,0,0,1,.3-1.88,5,5,0,0,1,.81-1.49,3.86,3.86,0,0,1,1.23-1,3.44,3.44,0,0,1,1.56-.36,3.36,3.36,0,0,1,1.54.36,3.8,3.8,0,0,1,1.24,1,5,5,0,0,1,.81,1.49A5.66,5.66,0,0,1,341.13,80.43Zm-1.07,0a5.1,5.1,0,0,0-.21-1.51,3.94,3.94,0,0,0-.58-1.18,2.7,2.7,0,0,0-.9-.75,2.28,2.28,0,0,0-1.13-.28,2.37,2.37,0,0,0-1.16.28,2.66,2.66,0,0,0-.89.75,3.72,3.72,0,0,0-.58,1.18,5.57,5.57,0,0,0,0,3,3.56,3.56,0,0,0,.58,1.17,2.45,2.45,0,0,0,2.05,1,2.5,2.5,0,0,0,1.13-.26,2.62,2.62,0,0,0,.9-.76,3.77,3.77,0,0,0,.58-1.17A5.12,5.12,0,0,0,340.06,80.43Z" transform="translate(3.43 -1.08)"/><path class="cls-2" d="M350.91,74l-7.32,11H342.4l7.31-11Z" transform="translate(3.43 -1.08)"/><path class="cls-2" d="M351.68,85a6.44,6.44,0,0,1,.09-1.07,4.06,4.06,0,0,1,.37-1.06,3.93,3.93,0,0,1,.77-1,5.81,5.81,0,0,1,1.34-.93l.94-.45a5.55,5.55,0,0,0,.9-.51,2.67,2.67,0,0,0,.67-.62,1.32,1.32,0,0,0,.27-.82,1.52,1.52,0,0,0-.13-.58,1.58,1.58,0,0,0-.39-.51,2.07,2.07,0,0,0-.64-.37,2.65,2.65,0,0,0-.89-.13,2.85,2.85,0,0,0-.91.14,3.61,3.61,0,0,0-.71.35,3.84,3.84,0,0,0-.52.43c-.14.15-.25.27-.32.36l-.7-.76.36-.34a3.42,3.42,0,0,1,.69-.49,4.91,4.91,0,0,1,1-.45,4,4,0,0,1,1.28-.19,3.81,3.81,0,0,1,1.27.19,2.75,2.75,0,0,1,.95.54,2.44,2.44,0,0,1,.59.78,2.28,2.28,0,0,1,.2.92,2,2,0,0,1-.28,1.1,3.37,3.37,0,0,1-.69.81,4.55,4.55,0,0,1-.87.58c-.31.16-.59.3-.84.41s-.66.31-1,.49a5,5,0,0,0-.85.6,3,3,0,0,0-.61.73,1.67,1.67,0,0,0-.24.89h5.52v1Z" transform="translate(3.43 -1.08)"/><path class="cls-2" d="M367.74,81.35a3.66,3.66,0,0,1-.3,1.48,3.74,3.74,0,0,1-.83,1.2,4,4,0,0,1-1.24.81,4.14,4.14,0,0,1-1.54.29,3.93,3.93,0,0,1-1.59-.32,3.43,3.43,0,0,1-1.25-.9,4.17,4.17,0,0,1-.81-1.45,5.88,5.88,0,0,1-.3-1.93,12.55,12.55,0,0,1,.3-2.92,6.54,6.54,0,0,1,.82-2.08,3.56,3.56,0,0,1,1.28-1.23,3.43,3.43,0,0,1,1.66-.41,3.56,3.56,0,0,1,2,.55,3.44,3.44,0,0,1,1.32,1.5l-.68.62a2.82,2.82,0,0,0-2.61-1.74,2.4,2.4,0,0,0-1.24.33,2.84,2.84,0,0,0-.95.94,4.77,4.77,0,0,0-.62,1.51,8.34,8.34,0,0,0-.23,2,3,3,0,0,1,1.17-1.46,3.4,3.4,0,0,1,1.89-.54,3.69,3.69,0,0,1,1.48.29,3.63,3.63,0,0,1,1.2.79,3.73,3.73,0,0,1,1.1,2.64Zm-3.88,2.85A2.72,2.72,0,0,0,365,84a3,3,0,0,0,.92-.62,2.84,2.84,0,0,0,.62-.9,2.85,2.85,0,0,0,0-2.22,3.08,3.08,0,0,0-.63-.91,3.16,3.16,0,0,0-.91-.61,2.91,2.91,0,0,0-2.22,0,3,3,0,0,0-.91.61,2.73,2.73,0,0,0-.62.91,2.79,2.79,0,0,0-.23,1.11,2.71,2.71,0,0,0,.23,1.1,3.37,3.37,0,0,0,.63.91,2.93,2.93,0,0,0,.92.62A2.7,2.7,0,0,0,363.86,84.2Z" transform="translate(3.43 -1.08)"/><path class="cls-2" d="M376.84,81.92a2.81,2.81,0,0,1-.31,1.31,3.23,3.23,0,0,1-.84,1,4,4,0,0,1-1.23.65,5.2,5.2,0,0,1-1.48.22,4.37,4.37,0,0,1-1.52-.26,3.7,3.7,0,0,1-1.2-.69,3.26,3.26,0,0,1-.79-1,3,3,0,0,1-.27-1.26,2.45,2.45,0,0,1,.19-1,3,3,0,0,1,.5-.79,3.19,3.19,0,0,1,.71-.61,3.47,3.47,0,0,1,.8-.39,4.28,4.28,0,0,1-.7-.38,2.85,2.85,0,0,1-.57-.52,2.59,2.59,0,0,1-.4-.65,1.94,1.94,0,0,1-.15-.76,2.39,2.39,0,0,1,.31-1.21,3.16,3.16,0,0,1,.8-.87,3.53,3.53,0,0,1,1.1-.54,4.11,4.11,0,0,1,2.47,0,3.86,3.86,0,0,1,1.1.53,2.94,2.94,0,0,1,.8.88,2.37,2.37,0,0,1,.31,1.19,1.94,1.94,0,0,1-.15.76,2.28,2.28,0,0,1-.41.66,2.93,2.93,0,0,1-.58.53,4.84,4.84,0,0,1-.71.38,3.54,3.54,0,0,1,.85.42,3.3,3.3,0,0,1,.71.63,3,3,0,0,1,.48.81A2.58,2.58,0,0,1,376.84,81.92Zm-1.07-.07a2,2,0,0,0-.25-1,2.48,2.48,0,0,0-.65-.72,2.92,2.92,0,0,0-.9-.45,3.38,3.38,0,0,0-1-.15,3.06,3.06,0,0,0-1.86.62,2.34,2.34,0,0,0-.62.74,2.06,2.06,0,0,0-.23,1,1.85,1.85,0,0,0,.25,1,2.44,2.44,0,0,0,.64.72,2.87,2.87,0,0,0,.89.45,3.28,3.28,0,0,0,1,.15,3,3,0,0,0,1-.16,3,3,0,0,0,.88-.46,2.57,2.57,0,0,0,.63-.73A1.92,1.92,0,0,0,375.77,81.85Zm-5.13-5a1.52,1.52,0,0,0,.21.8,2.1,2.1,0,0,0,.56.59,2.59,2.59,0,0,0,.77.36,2.75,2.75,0,0,0,1.67,0,2.44,2.44,0,0,0,.76-.37,1.92,1.92,0,0,0,.57-.6,1.58,1.58,0,0,0,.22-.81,1.47,1.47,0,0,0-.21-.78,1.86,1.86,0,0,0-.53-.59,2.38,2.38,0,0,0-.77-.36,3,3,0,0,0-.9-.13,3.16,3.16,0,0,0-.87.13,2.41,2.41,0,0,0-.75.38,1.76,1.76,0,0,0-.53.59A1.52,1.52,0,0,0,370.64,76.82Z" transform="translate(3.43 -1.08)"/><path class="cls-2" d="M386.25,80.43a5.72,5.72,0,0,1-.3,1.89,4.79,4.79,0,0,1-.81,1.48,3.73,3.73,0,0,1-1.23,1,3.63,3.63,0,0,1-3.11,0,3.73,3.73,0,0,1-1.23-1,4.79,4.79,0,0,1-.81-1.48,5.72,5.72,0,0,1-.3-1.89,5.66,5.66,0,0,1,.3-1.88,5,5,0,0,1,.81-1.49,3.86,3.86,0,0,1,1.23-1,3.54,3.54,0,0,1,3.11,0,3.86,3.86,0,0,1,1.23,1,5,5,0,0,1,.81,1.49A5.66,5.66,0,0,1,386.25,80.43Zm-1.07,0a5.1,5.1,0,0,0-.21-1.51,3.94,3.94,0,0,0-.58-1.18,2.7,2.7,0,0,0-.9-.75,2.28,2.28,0,0,0-1.13-.28,2.37,2.37,0,0,0-1.16.28,2.66,2.66,0,0,0-.89.75,3.72,3.72,0,0,0-.58,1.18,5.57,5.57,0,0,0,0,3,3.56,3.56,0,0,0,.58,1.17,2.45,2.45,0,0,0,2.05,1,2.5,2.5,0,0,0,1.13-.26,2.62,2.62,0,0,0,.9-.76A3.77,3.77,0,0,0,385,82,5.12,5.12,0,0,0,385.18,80.43Z" transform="translate(3.43 -1.08)"/><path class="cls-2" d="M395.73,80.43a6,6,0,0,1-.29,1.89,4.61,4.61,0,0,1-.82,1.48,3.54,3.54,0,0,1-1.23,1,3.61,3.61,0,0,1-3.1,0,3.63,3.63,0,0,1-1.23-1,4.61,4.61,0,0,1-.82-1.48,6,6,0,0,1-.29-1.89,5.93,5.93,0,0,1,.29-1.88,4.77,4.77,0,0,1,.82-1.49,3.76,3.76,0,0,1,1.23-1,3.52,3.52,0,0,1,3.1,0,3.66,3.66,0,0,1,1.23,1,4.77,4.77,0,0,1,.82,1.49A5.93,5.93,0,0,1,395.73,80.43Zm-1.07,0a5.1,5.1,0,0,0-.21-1.51,3.72,3.72,0,0,0-.58-1.18A2.66,2.66,0,0,0,393,77a2.48,2.48,0,0,0-2.29,0,2.7,2.7,0,0,0-.9.75,3.94,3.94,0,0,0-.58,1.18,5.57,5.57,0,0,0,0,3,3.77,3.77,0,0,0,.58,1.17,2.62,2.62,0,0,0,.9.76,2.52,2.52,0,0,0,3.18-.76,3.56,3.56,0,0,0,.58-1.17A5.12,5.12,0,0,0,394.66,80.43Z" transform="translate(3.43 -1.08)"/><path class="cls-2" d="M405.22,80.43a5.72,5.72,0,0,1-.3,1.89,4.41,4.41,0,0,1-.81,1.48,3.73,3.73,0,0,1-1.23,1,3.56,3.56,0,0,1-4.33-1,4.61,4.61,0,0,1-.82-1.48,5.72,5.72,0,0,1-.29-1.89,5.66,5.66,0,0,1,.29-1.88,4.77,4.77,0,0,1,.82-1.49,3.66,3.66,0,0,1,1.23-1,3.52,3.52,0,0,1,3.1,0,3.86,3.86,0,0,1,1.23,1,4.55,4.55,0,0,1,.81,1.49A5.66,5.66,0,0,1,405.22,80.43Zm-1.07,0a5.1,5.1,0,0,0-.21-1.51,3.72,3.72,0,0,0-.58-1.18,2.77,2.77,0,0,0-.89-.75,2.5,2.5,0,0,0-2.3,0,2.77,2.77,0,0,0-.89.75,3.72,3.72,0,0,0-.58,1.18,5.57,5.57,0,0,0,0,3,3.56,3.56,0,0,0,.58,1.17,2.68,2.68,0,0,0,.89.76,2.67,2.67,0,0,0,2.3,0,2.68,2.68,0,0,0,.89-.76,3.56,3.56,0,0,0,.58-1.17A5.12,5.12,0,0,0,404.15,80.43Z" transform="translate(3.43 -1.08)"/><path class="cls-2" d="M415.06,84.59l-.27.12-.41.16a5,5,0,0,1-.53.14,3.11,3.11,0,0,1-.62.06,2.32,2.32,0,0,1-.65-.09,1.56,1.56,0,0,1-.54-.29,1.3,1.3,0,0,1-.37-.49,1.48,1.48,0,0,1-.14-.68V77.74h-1.12V76.9h1.12V74.17h1.05V76.9h1.86v.84h-1.86v5.48a.84.84,0,0,0,.32.66,1.08,1.08,0,0,0,.66.21,2,2,0,0,0,.79-.15,3.16,3.16,0,0,0,.43-.2Z" transform="translate(3.43 -1.08)"/><path class="cls-2" d="M416.38,75.21V73.66h1.05v1.55Zm0,9.77V76.9h1.05V85Z" transform="translate(3.43 -1.08)"/><path class="cls-2" d="M431.77,85h-1.06V80.47a3.75,3.75,0,0,0-.45-2.08,1.48,1.48,0,0,0-1.33-.67,2.29,2.29,0,0,0-.87.17,2.87,2.87,0,0,0-.76.48,3.21,3.21,0,0,0-.62.74,3.6,3.6,0,0,0-.4.94V85h-1V80.47a3.89,3.89,0,0,0-.44-2.1,1.49,1.49,0,0,0-1.33-.65,2.37,2.37,0,0,0-1.63.64,3.58,3.58,0,0,0-1,1.67v5h-1.05V76.9h1v1.83a3.82,3.82,0,0,1,1.3-1.45,3.19,3.19,0,0,1,1.78-.52,2.32,2.32,0,0,1,1.64.57,2.51,2.51,0,0,1,.75,1.51,3.44,3.44,0,0,1,3.11-2.08,2.43,2.43,0,0,1,1.16.25,2,2,0,0,1,.76.7,3.5,3.5,0,0,1,.42,1.1,7.86,7.86,0,0,1,.13,1.44Z" transform="translate(3.43 -1.08)"/><path class="cls-2" d="M437.49,85.13a3.85,3.85,0,0,1-2.9-1.25,4.31,4.31,0,0,1-.85-1.34,4.37,4.37,0,0,1-.3-1.63A4.21,4.21,0,0,1,434.58,78a4.22,4.22,0,0,1,1.28-.9,4.12,4.12,0,0,1,3.23,0,4.15,4.15,0,0,1,1.27.91,4.26,4.26,0,0,1,.82,1.32,4.35,4.35,0,0,1,.29,1.58v.25a.72.72,0,0,1,0,.17h-6.92a3.46,3.46,0,0,0,1,2.15,2.94,2.94,0,0,0,.93.63,2.7,2.7,0,0,0,1.1.22,3,3,0,0,0,.78-.1,3.22,3.22,0,0,0,.71-.3,2.4,2.4,0,0,0,.59-.46,1.87,1.87,0,0,0,.4-.59l.92.25a2.7,2.7,0,0,1-.53.81,3.77,3.77,0,0,1-.79.63,3.36,3.36,0,0,1-1,.42A4.22,4.22,0,0,1,437.49,85.13Zm3-4.62a3.21,3.21,0,0,0-.3-1.18,3.3,3.3,0,0,0-.65-.93,2.94,2.94,0,0,0-.91-.6,2.78,2.78,0,0,0-1.11-.22,2.83,2.83,0,0,0-1.12.22,2.87,2.87,0,0,0-.92.6,3.08,3.08,0,0,0-.64.93,3.58,3.58,0,0,0-.28,1.18Z" transform="translate(3.43 -1.08)"/><path class="cls-2" d="M445.78,85.13a5.47,5.47,0,0,1-1.84-.31,4.49,4.49,0,0,1-1.55-.9l.48-.71a5.32,5.32,0,0,0,1.38.84,4.21,4.21,0,0,0,1.51.27,2.75,2.75,0,0,0,1.56-.39,1.27,1.27,0,0,0,.58-1.12,1,1,0,0,0-.15-.57,1.29,1.29,0,0,0-.46-.39,3.23,3.23,0,0,0-.76-.31c-.3-.09-.66-.18-1.06-.27s-.87-.23-1.21-.34a3.29,3.29,0,0,1-.84-.39,1.33,1.33,0,0,1-.5-.53,1.73,1.73,0,0,1-.16-.8,2.31,2.31,0,0,1,.24-1.07,2.21,2.21,0,0,1,.65-.77,2.84,2.84,0,0,1,1-.45,4.08,4.08,0,0,1,1.17-.16,4.58,4.58,0,0,1,1.69.3,3.28,3.28,0,0,1,1.22.8l-.51.62a2.88,2.88,0,0,0-1.09-.7,4.06,4.06,0,0,0-1.34-.23,3.21,3.21,0,0,0-.78.09,1.65,1.65,0,0,0-.62.27,1.29,1.29,0,0,0-.43.47,1.44,1.44,0,0,0-.15.67,1.14,1.14,0,0,0,.1.53.93.93,0,0,0,.36.35,2.49,2.49,0,0,0,.63.26c.25.08.56.16.92.24.52.13,1,.25,1.36.38a3.82,3.82,0,0,1,1,.43,1.84,1.84,0,0,1,.6.61,1.74,1.74,0,0,1,.2.86,2.1,2.1,0,0,1-.86,1.77A3.69,3.69,0,0,1,445.78,85.13Z" transform="translate(3.43 -1.08)"/><path class="cls-3" d="M165.33,7.62a3,3,0,0,0-1.11-.76,4,4,0,0,0-1.59-.3,3,3,0,0,0-1.9.5,1.65,1.65,0,0,0-.6,1.34,1.44,1.44,0,0,0,.16.73,1.35,1.35,0,0,0,.49.49,3.89,3.89,0,0,0,.86.37q.53.15,1.23.3a12.52,12.52,0,0,1,1.42.38,3.88,3.88,0,0,1,1.08.52,2,2,0,0,1,.68.76,2.28,2.28,0,0,1,.24,1.11,2.57,2.57,0,0,1-.26,1.18,2.49,2.49,0,0,1-.74.84,3.42,3.42,0,0,1-1.13.49,5.8,5.8,0,0,1-1.43.16,5.9,5.9,0,0,1-4-1.43l.48-.8a3.41,3.41,0,0,0,.64.53,3.75,3.75,0,0,0,.82.44,4.87,4.87,0,0,0,1,.29,5.52,5.52,0,0,0,1.09.11,3.32,3.32,0,0,0,1.84-.43,1.42,1.42,0,0,0,.66-1.28,1.4,1.4,0,0,0-.19-.77,1.64,1.64,0,0,0-.56-.55,4.07,4.07,0,0,0-.93-.39c-.37-.12-.8-.23-1.3-.34s-1-.24-1.36-.37a3.52,3.52,0,0,1-1-.49,1.91,1.91,0,0,1-.6-.7,2.22,2.22,0,0,1-.2-1,2.83,2.83,0,0,1,.25-1.22,2.63,2.63,0,0,1,.73-.89,3.76,3.76,0,0,1,1.12-.54,5.19,5.19,0,0,1,1.42-.19,4.89,4.89,0,0,1,1.76.3,4.7,4.7,0,0,1,1.39.84Z" transform="translate(3.43 -1.08)"/><path class="cls-3" d="M170.89,5.77h.82l4.11,9.88h-1l-1.28-3.09h-4.44l-1.26,3.09h-1.05Zm2.4,6-2-4.88-2,4.88Z" transform="translate(3.43 -1.08)"/><path class="cls-3" d="M183.87,14.78v.87h-6.63V5.77h6.5v.86h-5.53v3.56H183V11h-4.83v3.76Z" transform="translate(3.43 -1.08)"/><path class="cls-3" d="M193.49,5.77v9.88h-1V11h-5.85v4.62h-1V5.77h1v4.4h5.85V5.77Z" transform="translate(3.43 -1.08)"/><path class="cls-3" d="M196,15.65V5.77h3.35a5.1,5.1,0,0,1,2.07.39,4.09,4.09,0,0,1,1.47,1.06,4.45,4.45,0,0,1,.89,1.56,6,6,0,0,1,.3,1.92,5.88,5.88,0,0,1-.33,2,4.41,4.41,0,0,1-1,1.56,4.21,4.21,0,0,1-1.48,1,5.11,5.11,0,0,1-2,.36Zm7.11-5a5.32,5.32,0,0,0-.25-1.64,3.9,3.9,0,0,0-.73-1.29,3.35,3.35,0,0,0-1.18-.84,4,4,0,0,0-1.6-.3h-2.38v8.15h2.38a3.94,3.94,0,0,0,1.62-.31,3.31,3.31,0,0,0,1.18-.86,3.85,3.85,0,0,0,.71-1.29A5,5,0,0,0,203.08,10.7Z" transform="translate(3.43 -1.08)"/><rect class="cls-4" x="158.08" y="0.54" width="53.51" height="18.21"/><path class="cls-3" d="M46,140.92H41.42v11.75H40.15V140.92H35.56V139.8H46Z" transform="translate(3.43 -1.08)"/><path class="cls-3" d="M50.39,144.31a4,4,0,0,0-2.17.69,3.49,3.49,0,0,0-1.31,1.8v5.87H45.68v-9.45h1.16v2.27a4.26,4.26,0,0,1,1.42-1.7,3.27,3.27,0,0,1,1.9-.62l.23,0Z" transform="translate(3.43 -1.08)"/><path class="cls-3" d="M54.29,152.85a3.37,3.37,0,0,1-1.24-.22,3.14,3.14,0,0,1-1-.63,2.92,2.92,0,0,1-.66-.93,3,3,0,0,1-.23-1.15,2.26,2.26,0,0,1,.29-1.15,2.66,2.66,0,0,1,.81-.9,3.91,3.91,0,0,1,1.25-.59,5.79,5.79,0,0,1,1.6-.21,8.27,8.27,0,0,1,1.47.13,5.89,5.89,0,0,1,1.32.36v-.85a2.75,2.75,0,0,0-.7-2,2.61,2.61,0,0,0-2-.73,4,4,0,0,0-1.49.29,7.06,7.06,0,0,0-1.54.83l-.44-.82a6.4,6.4,0,0,1,3.56-1.23,3.8,3.8,0,0,1,2.79,1,3.66,3.66,0,0,1,1,2.75v4.27c0,.33.15.5.45.5v1.09a2.7,2.7,0,0,1-.47.06,1.06,1.06,0,0,1-.74-.24.89.89,0,0,1-.28-.65l0-.75a4.31,4.31,0,0,1-1.65,1.31A5,5,0,0,1,54.29,152.85Zm.29-.94a4.31,4.31,0,0,0,1.77-.36,2.88,2.88,0,0,0,1.23-1,1,1,0,0,0,.24-.36.77.77,0,0,0,.08-.35v-1.54a7.55,7.55,0,0,0-2.63-.49,3.79,3.79,0,0,0-2.12.54,1.65,1.65,0,0,0-.81,1.43,1.85,1.85,0,0,0,.17.82,1.94,1.94,0,0,0,.47.66,2.2,2.2,0,0,0,.72.45A2.33,2.33,0,0,0,54.58,151.91Z" transform="translate(3.43 -1.08)"/><path class="cls-3" d="M61.8,141.25v-1.82H63v1.82Zm0,11.42v-9.45H63v9.45Z" transform="translate(3.43 -1.08)"/><path class="cls-3" d="M73.7,152.67H72.46V147.4A4.61,4.61,0,0,0,72,145a1.73,1.73,0,0,0-1.54-.77,3.17,3.17,0,0,0-1.08.2,3.6,3.6,0,0,0-1,.57,4.24,4.24,0,0,0-.83.86,3.37,3.37,0,0,0-.52,1.08v5.78H65.75v-9.45h1.13v2.14a4.41,4.41,0,0,1,1.66-1.66,4.49,4.49,0,0,1,2.35-.64,2.8,2.8,0,0,1,1.32.29,2.28,2.28,0,0,1,.87.82,3.59,3.59,0,0,1,.47,1.28,8.78,8.78,0,0,1,.15,1.69Z" transform="translate(3.43 -1.08)"/><path class="cls-3" d="M76.33,141.25v-1.82h1.23v1.82Zm0,11.42v-9.45h1.23v9.45Z" transform="translate(3.43 -1.08)"/><path class="cls-3" d="M88.22,152.67H87V147.4a4.6,4.6,0,0,0-.5-2.45,1.7,1.7,0,0,0-1.53-.77,3.22,3.22,0,0,0-1.09.2,3.75,3.75,0,0,0-1,.57,4.48,4.48,0,0,0-.82.86,3.4,3.4,0,0,0-.53,1.08v5.78H80.28v-9.45H81.4v2.14a4.41,4.41,0,0,1,1.66-1.66,4.51,4.51,0,0,1,2.35-.64,2.87,2.87,0,0,1,1.33.29,2.28,2.28,0,0,1,.87.82,4,4,0,0,1,.47,1.28,9.7,9.7,0,0,1,.14,1.69Z" transform="translate(3.43 -1.08)"/><path class="cls-3" d="M94.64,152.8a3.89,3.89,0,0,1-1.78-.41,4.49,4.49,0,0,1-1.4-1.08,5.08,5.08,0,0,1-.92-1.54,5.24,5.24,0,0,1-.32-1.79,5.62,5.62,0,0,1,.31-1.88,5,5,0,0,1,.9-1.57,4.42,4.42,0,0,1,1.39-1.07,3.92,3.92,0,0,1,1.79-.4,3.58,3.58,0,0,1,2.1.61,5.68,5.68,0,0,1,1.52,1.53v-2h1.11v9.49a4,4,0,0,1-.37,1.73,3.75,3.75,0,0,1-1,1.26,4.28,4.28,0,0,1-1.47.76,6.15,6.15,0,0,1-1.79.26,5.31,5.31,0,0,1-2.63-.58,4.71,4.71,0,0,1-1.61-1.56l.76-.6a3.41,3.41,0,0,0,1.49,1.33,4.77,4.77,0,0,0,2,.43,4.66,4.66,0,0,0,1.31-.19A3.28,3.28,0,0,0,97.1,155a2.54,2.54,0,0,0,.73-.94,3.07,3.07,0,0,0,.28-1.33v-1.87a4.13,4.13,0,0,1-3.47,2Zm.35-1a3.07,3.07,0,0,0,1.07-.2,3.71,3.71,0,0,0,1-.54,3.35,3.35,0,0,0,.71-.75,2.4,2.4,0,0,0,.39-.85v-2.92a3.8,3.8,0,0,0-1.33-1.69,3.77,3.77,0,0,0-.93-.49,3.09,3.09,0,0,0-2.43.15,3.49,3.49,0,0,0-1.06.88,4.24,4.24,0,0,0-.67,1.24,4.44,4.44,0,0,0-.22,1.39,3.89,3.89,0,0,0,.27,1.45,3.74,3.74,0,0,0,.75,1.21,3.64,3.64,0,0,0,1.12.82A3.17,3.17,0,0,0,95,151.77Z" transform="translate(3.43 -1.08)"/><path class="cls-3" d="M115.57,140.92H111v11.75h-1.27V140.92h-4.59V139.8h10.45Z" transform="translate(3.43 -1.08)"/><path class="cls-3" d="M117.24,141.25v-1.82h1.23v1.82Zm0,11.42v-9.45h1.23v9.45Z" transform="translate(3.43 -1.08)"/><path class="cls-3" d="M135.24,152.67H134V147.4a4.4,4.4,0,0,0-.53-2.43,1.77,1.77,0,0,0-1.56-.79,2.69,2.69,0,0,0-1,.2,3.14,3.14,0,0,0-.89.57,3.75,3.75,0,0,0-.71.86,4,4,0,0,0-.48,1.1v5.76h-1.23V147.4a4.5,4.5,0,0,0-.51-2.45,1.75,1.75,0,0,0-1.56-.77,2.77,2.77,0,0,0-1.9.75,4.08,4.08,0,0,0-1.2,2v5.78h-1.23v-9.45h1.12v2.14a4.48,4.48,0,0,1,1.53-1.69,3.72,3.72,0,0,1,2.08-.61,2.69,2.69,0,0,1,1.92.67,3,3,0,0,1,.88,1.76,4,4,0,0,1,3.64-2.43,2.93,2.93,0,0,1,1.35.29,2.22,2.22,0,0,1,.89.83,3.8,3.8,0,0,1,.49,1.28,8.67,8.67,0,0,1,.15,1.68Z" transform="translate(3.43 -1.08)"/><path class="cls-3" d="M141.93,152.85a4.53,4.53,0,0,1-1.89-.39,4.68,4.68,0,0,1-1.5-1.07,4.79,4.79,0,0,1-1-1.57,5.14,5.14,0,0,1,0-3.78,4.91,4.91,0,0,1,1-1.54,4.72,4.72,0,0,1,1.5-1.05,4.57,4.57,0,0,1,1.89-.39,4.5,4.5,0,0,1,1.89.39,4.41,4.41,0,0,1,1.48,1.06,5,5,0,0,1,1.31,3.39v.29a.75.75,0,0,1,0,.2h-8.09a4.06,4.06,0,0,0,.35,1.41,3.86,3.86,0,0,0,.77,1.11,3.59,3.59,0,0,0,1.08.74,3.35,3.35,0,0,0,1.3.26,3.23,3.23,0,0,0,.91-.13,3.61,3.61,0,0,0,.83-.34,3.22,3.22,0,0,0,.69-.54,2.42,2.42,0,0,0,.47-.69l1.07.29a3.24,3.24,0,0,1-.62.95,4.21,4.21,0,0,1-.92.74,4.45,4.45,0,0,1-1.16.49A4.85,4.85,0,0,1,141.93,152.85Zm3.49-5.4a3.9,3.9,0,0,0-.36-1.39,3.82,3.82,0,0,0-.76-1.08,3.36,3.36,0,0,0-1.07-.7,3.32,3.32,0,0,0-1.3-.26,3.48,3.48,0,0,0-2.38,1,3.34,3.34,0,0,0-.74,1.09,4.12,4.12,0,0,0-.34,1.38Z" transform="translate(3.43 -1.08)"/><path class="cls-3" d="M2.61,118.51A5.48,5.48,0,0,1,.15,118a6.14,6.14,0,0,1-1.91-1.47A6.74,6.74,0,0,1-3,114.4,7,7,0,0,1-3.43,112,6.64,6.64,0,0,1-3,109.52a6.73,6.73,0,0,1,1.27-2.09A6.37,6.37,0,0,1,.24,106a5.47,5.47,0,0,1,2.39-.53,5.36,5.36,0,0,1,2.46.57A6.19,6.19,0,0,1,7,107.52a6.91,6.91,0,0,1,1.23,2.1A6.76,6.76,0,0,1,8.65,112a6.69,6.69,0,0,1-.46,2.47,6.76,6.76,0,0,1-1.27,2.08A6.42,6.42,0,0,1,5,118,5.41,5.41,0,0,1,2.61,118.51ZM-2.16,112a6,6,0,0,0,.35,2,5.42,5.42,0,0,0,1,1.72,4.85,4.85,0,0,0,1.5,1.2,4.29,4.29,0,0,0,1.94.44,4.19,4.19,0,0,0,2-.47,4.85,4.85,0,0,0,1.5-1.23,5.83,5.83,0,0,0,1-1.73,6,6,0,0,0,.33-2A6,6,0,0,0,7,110a5.8,5.8,0,0,0-1-1.71,4.86,4.86,0,0,0-1.51-1.19,4.24,4.24,0,0,0-1.92-.44,4.18,4.18,0,0,0-2,.46A4.75,4.75,0,0,0-.87,108.3,6,6,0,0,0-2.16,112Z" transform="translate(3.43 -1.08)"/><path class="cls-3" d="M13.75,118.6a2.67,2.67,0,0,1-2.3-1,5.15,5.15,0,0,1-.75-3.06V109h1.23v5.33c0,2.14.73,3.21,2.2,3.21a3.29,3.29,0,0,0,1.07-.18,3.67,3.67,0,0,0,1-.53A4.45,4.45,0,0,0,17,116a4.36,4.36,0,0,0,.57-1.07V109h1.23v7.85c0,.34.14.51.43.51v1.08a1.7,1.7,0,0,1-.35,0h-.19a1,1,0,0,1-.71-.31,1.09,1.09,0,0,1-.27-.78v-1.09A4.41,4.41,0,0,1,16,118,4.49,4.49,0,0,1,13.75,118.6Z" transform="translate(3.43 -1.08)"/><path class="cls-3" d="M26.1,118l-.32.14a3.69,3.69,0,0,1-.48.19,6.15,6.15,0,0,1-.62.16,3.38,3.38,0,0,1-.72.07,2.47,2.47,0,0,1-.77-.11,1.73,1.73,0,0,1-.63-.33,1.68,1.68,0,0,1-.44-.57,2,2,0,0,1-.16-.8V110H20.65v-1H22v-3.2h1.23V109h2.18v1H23.19v6.42a1,1,0,0,0,.38.77,1.23,1.23,0,0,0,.77.25,2.36,2.36,0,0,0,.92-.17,4,4,0,0,0,.51-.25Z" transform="translate(3.43 -1.08)"/><path class="cls-3" d="M32.46,118.6a3.75,3.75,0,0,1-2.11-.6,4.83,4.83,0,0,1-1.48-1.54v5.83H27.64V109h1.1v1.83a4.55,4.55,0,0,1,1.51-1.45,3.92,3.92,0,0,1,2-.55,4,4,0,0,1,1.8.41,4.53,4.53,0,0,1,1.41,1.09,4.84,4.84,0,0,1,.93,1.57,5,5,0,0,1,.34,1.83,5.58,5.58,0,0,1-.31,1.88,4.58,4.58,0,0,1-.88,1.56,4.14,4.14,0,0,1-1.36,1.06A3.82,3.82,0,0,1,32.46,118.6Zm-.34-1.08a2.9,2.9,0,0,0,1.38-.33,3.33,3.33,0,0,0,1.07-.86,3.65,3.65,0,0,0,.68-1.22,4.16,4.16,0,0,0,.24-1.4,4,4,0,0,0-1-2.67,3.37,3.37,0,0,0-1.11-.83A3.11,3.11,0,0,0,32,109.9a2.84,2.84,0,0,0-1,.19,4.42,4.42,0,0,0-1,.51,3.34,3.34,0,0,0-.76.74,2,2,0,0,0-.39.9v2.9a4.21,4.21,0,0,0,.55.94,4.55,4.55,0,0,0,.76.76,4.11,4.11,0,0,0,.92.5A2.92,2.92,0,0,0,32.12,117.52Z" transform="translate(3.43 -1.08)"/><path class="cls-3" d="M41.78,118.6a2.65,2.65,0,0,1-2.29-1,5.15,5.15,0,0,1-.76-3.06V109H40v5.33q0,3.21,2.19,3.21a3.29,3.29,0,0,0,1.07-.18,3.52,3.52,0,0,0,1-.53A4.15,4.15,0,0,0,45,116a3.78,3.78,0,0,0,.57-1.07V109H46.8v7.85c0,.34.15.51.44.51v1.08a1.77,1.77,0,0,1-.35,0H46.7a1,1,0,0,1-.71-.31,1.09,1.09,0,0,1-.27-.78v-1.09a4.46,4.46,0,0,1-3.94,2.32Z" transform="translate(3.43 -1.08)"/><path class="cls-3" d="M54.13,118l-.32.14a3.69,3.69,0,0,1-.48.19,5.92,5.92,0,0,1-.61.16,3.48,3.48,0,0,1-.73.07,2.37,2.37,0,0,1-.76-.11,1.86,1.86,0,0,1-.64-.33,1.65,1.65,0,0,1-.43-.57,1.84,1.84,0,0,1-.16-.8V110H48.69v-1H50v-3.2h1.23V109h2.18v1H51.23v6.42a1,1,0,0,0,.37.77,1.23,1.23,0,0,0,.77.25,2.45,2.45,0,0,0,.93-.17,4.32,4.32,0,0,0,.5-.25Z" transform="translate(3.43 -1.08)"/><path class="cls-3" d="M60.55,118.42V105.55H66a3.38,3.38,0,0,1,1.53.35,4.12,4.12,0,0,1,1.21.93,4.19,4.19,0,0,1,1.07,2.76,4.33,4.33,0,0,1-.21,1.35A4.07,4.07,0,0,1,69,112.1a3.38,3.38,0,0,1-.9.87,3,3,0,0,1-1.18.48l3.16,5H68.65l-3-4.75H61.82v4.75Zm1.27-5.87H66a2.08,2.08,0,0,0,1-.25,2.39,2.39,0,0,0,.79-.66,3.17,3.17,0,0,0,.51-.94,3.4,3.4,0,0,0,.18-1.11,3,3,0,0,0-.21-1.11,3.26,3.26,0,0,0-.56-.94,2.73,2.73,0,0,0-.84-.63,2.2,2.2,0,0,0-1-.24h-4.1Z" transform="translate(3.43 -1.08)"/><path class="cls-3" d="M76,118.6a4.55,4.55,0,0,1-1.9-.39,4.68,4.68,0,0,1-1.5-1.07,4.85,4.85,0,0,1-1-1.56,5.07,5.07,0,0,1-.36-1.91,4.87,4.87,0,0,1,.36-1.87,4.81,4.81,0,0,1,1-1.55,4.6,4.6,0,0,1,3.38-1.44,4.5,4.5,0,0,1,1.89.39,4.55,4.55,0,0,1,1.48,1.06,5,5,0,0,1,1.31,3.39v.29a.75.75,0,0,1,0,.2H72.5a4.06,4.06,0,0,0,.35,1.41,3.86,3.86,0,0,0,.77,1.11,3.59,3.59,0,0,0,1.08.74,3.35,3.35,0,0,0,1.3.26,3.38,3.38,0,0,0,2.43-1,2.23,2.23,0,0,0,.47-.69l1.07.29a2.94,2.94,0,0,1-.62,1,4.21,4.21,0,0,1-.92.74,4.45,4.45,0,0,1-1.16.49A4.83,4.83,0,0,1,76,118.6Zm3.48-5.4a3.9,3.9,0,0,0-.36-1.39,4,4,0,0,0-.76-1.08,3.36,3.36,0,0,0-1.07-.7,3.3,3.3,0,0,0-1.29-.26,3.48,3.48,0,0,0-2.39,1,3.45,3.45,0,0,0-.74,1.09,4.18,4.18,0,0,0-.34,1.38Z" transform="translate(3.43 -1.08)"/><path class="cls-3" d="M85.65,118.6a6.62,6.62,0,0,1-2.16-.36,5.07,5.07,0,0,1-1.81-1l.56-.83a6.32,6.32,0,0,0,1.62,1,4.92,4.92,0,0,0,1.77.32,3.17,3.17,0,0,0,1.82-.46,1.51,1.51,0,0,0,.68-1.32,1.16,1.16,0,0,0-.18-.66,1.62,1.62,0,0,0-.53-.46,4.46,4.46,0,0,0-.89-.35c-.36-.11-.77-.21-1.25-.32s-1-.27-1.41-.4a4.17,4.17,0,0,1-1-.45,1.66,1.66,0,0,1-.58-.63,2,2,0,0,1-.19-.93,2.65,2.65,0,0,1,.28-1.25,2.47,2.47,0,0,1,.76-.9,3.38,3.38,0,0,1,1.13-.54,5,5,0,0,1,1.37-.18,5.4,5.4,0,0,1,2,.35,4,4,0,0,1,1.44.94l-.6.72a3.34,3.34,0,0,0-1.28-.81,4.63,4.63,0,0,0-1.57-.27,3.73,3.73,0,0,0-.91.1,2.18,2.18,0,0,0-.73.31,1.58,1.58,0,0,0-.5.56,1.62,1.62,0,0,0-.18.79,1.2,1.2,0,0,0,.13.61,1,1,0,0,0,.41.41,3.75,3.75,0,0,0,.74.31c.29.09.65.18,1.08.28.6.14,1.13.29,1.59.43a5.19,5.19,0,0,1,1.15.51,2,2,0,0,1,.7.71,2,2,0,0,1,.24,1,2.43,2.43,0,0,1-1,2.06A4.29,4.29,0,0,1,85.65,118.6Z" transform="translate(3.43 -1.08)"/><path class="cls-3" d="M95.37,118.6a4.5,4.5,0,0,1-1.89-.39A4.61,4.61,0,0,1,92,117.15a4.78,4.78,0,0,1-1-1.56,5.07,5.07,0,0,1-.34-1.86,5.16,5.16,0,0,1,.35-1.89,5,5,0,0,1,1-1.56,4.8,4.8,0,0,1,1.48-1.07,4.57,4.57,0,0,1,3.74,0,4.73,4.73,0,0,1,1.49,1.07,5,5,0,0,1,1,1.56,5,5,0,0,1,.35,1.89,5.07,5.07,0,0,1-.34,1.86,4.62,4.62,0,0,1-1,1.56,4.55,4.55,0,0,1-1.49,1.06A4.5,4.5,0,0,1,95.37,118.6Zm-3.43-4.86a3.94,3.94,0,0,0,1,2.68,3.45,3.45,0,0,0,1.08.81,3.23,3.23,0,0,0,1.34.29,3,3,0,0,0,1.33-.3,3.52,3.52,0,0,0,1.1-.82,4,4,0,0,0,.74-1.2,4.22,4.22,0,0,0,0-3A3.9,3.9,0,0,0,97.8,111a3.52,3.52,0,0,0-1.1-.82,3,3,0,0,0-1.33-.3,3,3,0,0,0-1.33.3A3.44,3.44,0,0,0,93,111a4,4,0,0,0-.75,1.23A4.07,4.07,0,0,0,91.94,113.74Z" transform="translate(3.43 -1.08)"/><path class="cls-3" d="M102.19,105.18h1.23v11.1a1.12,1.12,0,0,0,.29.83,1.06,1.06,0,0,0,.81.3,2.32,2.32,0,0,0,.48-.06,2.44,2.44,0,0,0,.5-.14l.22,1a3.85,3.85,0,0,1-.84.24,4.93,4.93,0,0,1-.86.09,1.86,1.86,0,0,1-1.35-.48,1.83,1.83,0,0,1-.48-1.35Z" transform="translate(3.43 -1.08)"/><path class="cls-3" d="M110,118.6a2.65,2.65,0,0,1-2.29-1,5.07,5.07,0,0,1-.76-3.06V109h1.24v5.33q0,3.21,2.19,3.21a3.29,3.29,0,0,0,1.07-.18,3.67,3.67,0,0,0,1-.53,4.15,4.15,0,0,0,.8-.82,4.36,4.36,0,0,0,.57-1.07V109H115v7.85c0,.34.15.51.44.51v1.08a1.86,1.86,0,0,1-.36,0h-.19a1,1,0,0,1-.7-.31,1.05,1.05,0,0,1-.28-.78v-1.09a4.46,4.46,0,0,1-1.67,1.72A4.53,4.53,0,0,1,110,118.6Z" transform="translate(3.43 -1.08)"/><path class="cls-3" d="M122.37,118l-.32.14a3.69,3.69,0,0,1-.48.19,6.15,6.15,0,0,1-.62.16,3.38,3.38,0,0,1-.72.07,2.37,2.37,0,0,1-.76-.11,1.69,1.69,0,0,1-.64-.33,1.65,1.65,0,0,1-.43-.57,1.85,1.85,0,0,1-.17-.8V110h-1.3v-1h1.3v-3.2h1.24V109h2.17v1h-2.17v6.42a.94.94,0,0,0,.37.77,1.23,1.23,0,0,0,.77.25,2.36,2.36,0,0,0,.92-.17A4,4,0,0,0,122,117Z" transform="translate(3.43 -1.08)"/><path class="cls-3" d="M123.91,107v-1.82h1.23V107Zm0,11.42V109h1.23v9.44Z" transform="translate(3.43 -1.08)"/><path class="cls-3" d="M131.89,118.6a4.5,4.5,0,0,1-1.89-.39,4.61,4.61,0,0,1-1.48-1.06,4.78,4.78,0,0,1-1-1.56,5.07,5.07,0,0,1-.34-1.86,5.16,5.16,0,0,1,.35-1.89,5.22,5.22,0,0,1,1-1.56,4.8,4.8,0,0,1,1.48-1.07,4.45,4.45,0,0,1,1.87-.4,4.53,4.53,0,0,1,1.88.4,4.68,4.68,0,0,1,1.48,1.07,4.85,4.85,0,0,1,1,1.56,5,5,0,0,1,.36,1.89,5.08,5.08,0,0,1-.35,1.86,4.62,4.62,0,0,1-1,1.56,4.55,4.55,0,0,1-1.49,1.06A4.5,4.5,0,0,1,131.89,118.6Zm-3.43-4.86a3.94,3.94,0,0,0,1,2.68,3.49,3.49,0,0,0,1.09.81,3.15,3.15,0,0,0,1.33.29,3,3,0,0,0,1.33-.3,3.52,3.52,0,0,0,1.1-.82,4,4,0,0,0,.74-1.2,4.22,4.22,0,0,0,0-3,3.9,3.9,0,0,0-.74-1.21,3.52,3.52,0,0,0-1.1-.82,3.1,3.1,0,0,0-2.66,0,3.44,3.44,0,0,0-1.08.82,4,4,0,0,0-.75,1.23A4.07,4.07,0,0,0,128.46,113.74Z" transform="translate(3.43 -1.08)"/><path class="cls-3" d="M146.6,118.42h-1.24v-5.27a4.53,4.53,0,0,0-.5-2.45,1.69,1.69,0,0,0-1.53-.76,3,3,0,0,0-1.09.2,3.52,3.52,0,0,0-1,.56,4.24,4.24,0,0,0-.83.86,3.18,3.18,0,0,0-.52,1.08v5.78h-1.24V109h1.13v2.14a4.36,4.36,0,0,1,1.66-1.67,4.45,4.45,0,0,1,2.34-.64,2.87,2.87,0,0,1,1.33.29,2.36,2.36,0,0,1,.87.82,3.77,3.77,0,0,1,.47,1.29,8.67,8.67,0,0,1,.15,1.68Z" transform="translate(3.43 -1.08)"/><path class="cls-3" d="M8.87,85.92V73.05h1.27V85.92Z" transform="translate(3.43 -1.08)"/><path class="cls-3" d="M17.64,85.47l-.31.15-.48.18c-.19.06-.39.11-.62.16a3.41,3.41,0,0,1-.73.07,2.41,2.41,0,0,1-.76-.11,1.73,1.73,0,0,1-.63-.33,1.68,1.68,0,0,1-.44-.57,1.84,1.84,0,0,1-.16-.8V77.46H12.2v-1h1.31v-3.2h1.23v3.2h2.18v1H14.74v6.41a1,1,0,0,0,.37.78,1.3,1.3,0,0,0,.77.24,2.45,2.45,0,0,0,.93-.17c.26-.12.43-.2.51-.25Z" transform="translate(3.43 -1.08)"/><path class="cls-3" d="M23,86.1a4.74,4.74,0,0,1-1.9-.38,4.68,4.68,0,0,1-1.49-1.07,5,5,0,0,1-1.34-3.48,4.86,4.86,0,0,1,.35-1.87,5,5,0,0,1,1-1.55,4.61,4.61,0,0,1,1.5-1A4.52,4.52,0,0,1,23,76.31a4.48,4.48,0,0,1,3.37,1.45,4.84,4.84,0,0,1,1,1.54,5.19,5.19,0,0,1,.34,1.85v.29a.75.75,0,0,1,0,.2H19.58a4.07,4.07,0,0,0,.36,1.41,3.85,3.85,0,0,0,.77,1.12,3.49,3.49,0,0,0,1.08.73,3.27,3.27,0,0,0,1.29.26A3.5,3.5,0,0,0,24,85a3.63,3.63,0,0,0,.83-.35,2.76,2.76,0,0,0,.69-.53,2.43,2.43,0,0,0,.48-.7l1.07.29a3.31,3.31,0,0,1-.62,1,4.52,4.52,0,0,1-.93.74,4.31,4.31,0,0,1-1.16.49A4.78,4.78,0,0,1,23,86.1Zm3.48-5.4a3.9,3.9,0,0,0-.35-1.39,4.2,4.2,0,0,0-.76-1.08,3.48,3.48,0,0,0-1.07-.7,3.35,3.35,0,0,0-1.3-.26,3.48,3.48,0,0,0-2.39,1,3.81,3.81,0,0,0-.74,1.09,4,4,0,0,0-.33,1.38Z" transform="translate(3.43 -1.08)"/><path class="cls-3" d="M34.31,77.56a4,4,0,0,0-2.18.69,3.52,3.52,0,0,0-1.3,1.8v5.87H29.59V76.48h1.16v2.26A4.34,4.34,0,0,1,32.17,77a3.29,3.29,0,0,1,1.9-.62l.24,0Z" transform="translate(3.43 -1.08)"/><path class="cls-3" d="M38.21,86.1A3.33,3.33,0,0,1,37,85.88a2.94,2.94,0,0,1-1-.63,2.55,2.55,0,0,1-.66-.93,2.79,2.79,0,0,1-.24-1.15A2.36,2.36,0,0,1,35.36,82a2.63,2.63,0,0,1,.82-.91,3.81,3.81,0,0,1,1.25-.59A5.67,5.67,0,0,1,39,80.32a8.11,8.11,0,0,1,1.47.13,6,6,0,0,1,1.33.36V80a2.75,2.75,0,0,0-.71-2,2.59,2.59,0,0,0-2-.73,4.06,4.06,0,0,0-1.49.29,7.29,7.29,0,0,0-1.54.83l-.43-.81a6.31,6.31,0,0,1,3.55-1.24,3.81,3.81,0,0,1,2.79,1,3.68,3.68,0,0,1,1,2.76v4.26q0,.51.45.51v1.08A2.59,2.59,0,0,1,43,86a1,1,0,0,1-.73-.24.84.84,0,0,1-.28-.65l0-.74a4.35,4.35,0,0,1-1.64,1.3A5.09,5.09,0,0,1,38.21,86.1Zm.29-.94a4.31,4.31,0,0,0,1.77-.36,2.91,2.91,0,0,0,1.22-1,1.1,1.1,0,0,0,.24-.35.87.87,0,0,0,.09-.36V81.59a6.94,6.94,0,0,0-1.28-.36,6.72,6.72,0,0,0-1.35-.13,3.77,3.77,0,0,0-2.12.54,1.67,1.67,0,0,0-.82,1.44,2,2,0,0,0,.64,1.47,2.2,2.2,0,0,0,.72.45A2.38,2.38,0,0,0,38.5,85.16Z" transform="translate(3.43 -1.08)"/><path class="cls-3" d="M50.18,85.47l-.32.15-.48.18a6.15,6.15,0,0,1-.62.16A3.38,3.38,0,0,1,48,86a2.47,2.47,0,0,1-.77-.11,1.73,1.73,0,0,1-.63-.33A1.68,1.68,0,0,1,46.2,85a2,2,0,0,1-.16-.8V77.46h-1.3v-1H46v-3.2h1.23v3.2h2.18v1H47.27v6.41a1,1,0,0,0,.38.78,1.28,1.28,0,0,0,.77.24,2.36,2.36,0,0,0,.92-.17,4,4,0,0,0,.51-.25Z" transform="translate(3.43 -1.08)"/><path class="cls-3" d="M51.72,74.5V72.69H53V74.5Zm0,11.42V76.48H53v9.44Z" transform="translate(3.43 -1.08)"/><path class="cls-3" d="M59.7,86.1a4.42,4.42,0,0,1-3.37-1.45,4.84,4.84,0,0,1-1-1.55,5.3,5.3,0,0,1,0-3.76,5,5,0,0,1,1-1.56,4.8,4.8,0,0,1,1.48-1.07,4.57,4.57,0,0,1,3.74,0,4.73,4.73,0,0,1,1.49,1.07,5,5,0,0,1,1,1.56,5,5,0,0,1,.35,1.89,5.16,5.16,0,0,1-.34,1.87,4.68,4.68,0,0,1-1,1.55,4.58,4.58,0,0,1-1.49,1.07A4.66,4.66,0,0,1,59.7,86.1Zm-3.43-4.85a3.92,3.92,0,0,0,.27,1.47,3.85,3.85,0,0,0,.74,1.2,3.45,3.45,0,0,0,1.08.81A3.2,3.2,0,0,0,59.7,85a3,3,0,0,0,1.33-.3,3.52,3.52,0,0,0,1.1-.82,3.85,3.85,0,0,0,.74-1.2,4.22,4.22,0,0,0,0-3,3.9,3.9,0,0,0-.74-1.21A3.52,3.52,0,0,0,61,77.7a3,3,0,0,0-1.33-.3,3,3,0,0,0-1.33.3,3.47,3.47,0,0,0-1.09.83,4,4,0,0,0-.74,1.22A4.12,4.12,0,0,0,56.27,81.25Z" transform="translate(3.43 -1.08)"/><path class="cls-3" d="M74.4,85.92H73.17V80.65a4.62,4.62,0,0,0-.5-2.45,1.69,1.69,0,0,0-1.53-.76,3,3,0,0,0-1.09.2,3.71,3.71,0,0,0-1,.56,4.48,4.48,0,0,0-.82.86,3.4,3.4,0,0,0-.53,1.08v5.78H66.46V76.48h1.12v2.14A4.43,4.43,0,0,1,69.24,77a4.51,4.51,0,0,1,2.35-.64,2.87,2.87,0,0,1,1.33.29,2.36,2.36,0,0,1,.87.82,4,4,0,0,1,.47,1.29,9.58,9.58,0,0,1,.14,1.68Z" transform="translate(3.43 -1.08)"/><path class="cls-3" d="M85.34,73.05h1.07l5.35,12.87H90.42l-1.67-4H83l-1.65,4H80Zm3.12,7.85-2.6-6.36L83.23,80.9Z" transform="translate(3.43 -1.08)"/><path class="cls-3" d="M107.41,85.92h-1.24V80.65a4.43,4.43,0,0,0-.52-2.43,1.76,1.76,0,0,0-1.56-.78,2.56,2.56,0,0,0-1,.2,3.24,3.24,0,0,0-.89.56,3.75,3.75,0,0,0-.71.86,4,4,0,0,0-.47,1.1v5.76H99.75V80.65a4.62,4.62,0,0,0-.5-2.45,1.74,1.74,0,0,0-1.56-.76,2.77,2.77,0,0,0-1.91.74,4.19,4.19,0,0,0-1.19,2v5.78H93.35V76.48h1.13v2.14A4.41,4.41,0,0,1,96,76.92a3.73,3.73,0,0,1,2.09-.61A2.73,2.73,0,0,1,100,77a2.94,2.94,0,0,1,.88,1.76,4,4,0,0,1,3.64-2.43,2.87,2.87,0,0,1,1.35.29,2.29,2.29,0,0,1,.89.83,3.58,3.58,0,0,1,.49,1.29,7.83,7.83,0,0,1,.16,1.67Z" transform="translate(3.43 -1.08)"/><path class="cls-3" d="M114,86.1a4.42,4.42,0,0,1-3.36-1.45,4.68,4.68,0,0,1-1-1.55,5.16,5.16,0,0,1-.34-1.87,5,5,0,0,1,.35-1.89,4.85,4.85,0,0,1,1-1.56,4.8,4.8,0,0,1,1.48-1.07,4.4,4.4,0,0,1,1.86-.4,4.49,4.49,0,0,1,1.88.4,4.84,4.84,0,0,1,1.49,1.07,5.22,5.22,0,0,1,1,1.56,5.3,5.3,0,0,1,0,3.76,4.84,4.84,0,0,1-1,1.55,4.68,4.68,0,0,1-1.49,1.07A4.74,4.74,0,0,1,114,86.1Zm-3.42-4.85a3.92,3.92,0,0,0,.27,1.47,3.82,3.82,0,0,0,.73,1.2,3.49,3.49,0,0,0,1.09.81A3.18,3.18,0,0,0,114,85a3.06,3.06,0,0,0,1.34-.3,3.48,3.48,0,0,0,1.09-.82,3.69,3.69,0,0,0,.75-1.2,4.22,4.22,0,0,0,0-3,3.74,3.74,0,0,0-.75-1.21,3.48,3.48,0,0,0-1.09-.82,3.06,3.06,0,0,0-1.34-.3,3,3,0,0,0-1.32.3,3.47,3.47,0,0,0-1.09.83,4,4,0,0,0-.74,1.22A4.12,4.12,0,0,0,110.62,81.25Z" transform="translate(3.43 -1.08)"/><path class="cls-3" d="M123.76,86.1a2.66,2.66,0,0,1-2.29-1,5.14,5.14,0,0,1-.75-3V76.48H122v5.33Q122,85,124.14,85a3.3,3.3,0,0,0,2-.71,3.89,3.89,0,0,0,.8-.82,3.78,3.78,0,0,0,.57-1.07V76.48h1.24v7.85c0,.34.14.51.43.51v1.08a1.7,1.7,0,0,1-.35,0h-.19a1,1,0,0,1-.71-.31,1.09,1.09,0,0,1-.27-.78V83.78A4.41,4.41,0,0,1,126,85.5,4.53,4.53,0,0,1,123.76,86.1Z" transform="translate(3.43 -1.08)"/><path class="cls-3" d="M139.52,85.92h-1.23V80.65a4.62,4.62,0,0,0-.5-2.45,1.69,1.69,0,0,0-1.53-.76,3,3,0,0,0-1.09.2,3.71,3.71,0,0,0-1,.56,4.19,4.19,0,0,0-.82.86,3.4,3.4,0,0,0-.53,1.08v5.78h-1.23V76.48h1.12v2.14A4.43,4.43,0,0,1,134.36,77a4.49,4.49,0,0,1,2.35-.64,2.8,2.8,0,0,1,1.32.29,2.31,2.31,0,0,1,.88.82,4,4,0,0,1,.47,1.29,9.58,9.58,0,0,1,.14,1.68Z" transform="translate(3.43 -1.08)"/><path class="cls-3" d="M146.6,85.47l-.32.15-.48.18a6.15,6.15,0,0,1-.62.16,3.41,3.41,0,0,1-.73.07,2.41,2.41,0,0,1-.76-.11,1.73,1.73,0,0,1-.63-.33,1.68,1.68,0,0,1-.44-.57,1.84,1.84,0,0,1-.16-.8V77.46h-1.31v-1h1.31v-3.2h1.23v3.2h2.18v1h-2.18v6.41a1,1,0,0,0,.37.78,1.31,1.31,0,0,0,.78.24,2.43,2.43,0,0,0,.92-.17,4,4,0,0,0,.51-.25Z" transform="translate(3.43 -1.08)"/><path class="cls-3" d="M45.64,51.58V38.71H50a6.64,6.64,0,0,1,2.7.51,5.5,5.5,0,0,1,1.92,1.38,5.82,5.82,0,0,1,1.16,2,7.89,7.89,0,0,1,.39,2.5,7.63,7.63,0,0,1-.44,2.65,5.76,5.76,0,0,1-1.24,2,5.57,5.57,0,0,1-1.94,1.3,6.62,6.62,0,0,1-2.55.46Zm9.27-6.45A6.52,6.52,0,0,0,54.58,43a4.62,4.62,0,0,0-.95-1.68,4.35,4.35,0,0,0-1.53-1.1A5.26,5.26,0,0,0,50,39.83h-3.1V50.46H50a5.21,5.21,0,0,0,2.12-.41,4.34,4.34,0,0,0,1.53-1.12,4.87,4.87,0,0,0,.93-1.69A6.81,6.81,0,0,0,54.91,45.13Z" transform="translate(3.43 -1.08)"/><path class="cls-3" d="M60.73,51.77a3.34,3.34,0,0,1-1.24-.23,3,3,0,0,1-1-.63,2.83,2.83,0,0,1-.9-2.08,2.42,2.42,0,0,1,.29-1.15,2.81,2.81,0,0,1,.82-.9A3.91,3.91,0,0,1,60,46.19a5.74,5.74,0,0,1,1.6-.21,8.27,8.27,0,0,1,1.47.13,6,6,0,0,1,1.32.36v-.85a2.75,2.75,0,0,0-.71-2,2.58,2.58,0,0,0-2-.73,4,4,0,0,0-1.48.29,6.84,6.84,0,0,0-1.54.83l-.44-.81A6.34,6.34,0,0,1,61.76,42a3.85,3.85,0,0,1,2.8,1,3.72,3.72,0,0,1,1,2.76V50c0,.34.15.51.46.51v1.08a2.79,2.79,0,0,1-.48.06,1,1,0,0,1-.73-.24.84.84,0,0,1-.28-.65l0-.74a4.28,4.28,0,0,1-1.64,1.3A5.09,5.09,0,0,1,60.73,51.77Zm.29-1a4.31,4.31,0,0,0,1.77-.36,2.85,2.85,0,0,0,1.22-1,1.23,1.23,0,0,0,.25-.36.93.93,0,0,0,.08-.35V47.25a6.94,6.94,0,0,0-1.28-.36,6.72,6.72,0,0,0-1.35-.13,3.77,3.77,0,0,0-2.12.54,1.66,1.66,0,0,0-.82,1.44,2,2,0,0,0,.65,1.47,2.15,2.15,0,0,0,.71.45A2.42,2.42,0,0,0,61,50.82Z" transform="translate(3.43 -1.08)"/><path class="cls-3" d="M72.7,51.13l-.32.15-.48.18c-.18.06-.39.11-.61.16a3.48,3.48,0,0,1-.73.07,2.37,2.37,0,0,1-.76-.11,1.77,1.77,0,0,1-.64-.33,1.65,1.65,0,0,1-.43-.57,1.85,1.85,0,0,1-.17-.8V43.12h-1.3v-1h1.3v-3.2H69.8v3.2H72v1H69.8v6.42a1,1,0,0,0,.37.76,1.23,1.23,0,0,0,.77.25,2.45,2.45,0,0,0,.93-.17,4.32,4.32,0,0,0,.5-.25Z" transform="translate(3.43 -1.08)"/><path class="cls-3" d="M76.62,51.77a3.39,3.39,0,0,1-1.25-.23,3,3,0,0,1-1-.63,2.55,2.55,0,0,1-.66-.93,2.79,2.79,0,0,1-.24-1.15,2.42,2.42,0,0,1,.29-1.15,2.59,2.59,0,0,1,.82-.9,3.81,3.81,0,0,1,1.25-.59A5.67,5.67,0,0,1,77.43,46a8.11,8.11,0,0,1,1.47.13,5.74,5.74,0,0,1,1.32.36v-.85a2.75,2.75,0,0,0-.7-2,2.59,2.59,0,0,0-2-.73,4.06,4.06,0,0,0-1.49.29,7.06,7.06,0,0,0-1.54.83l-.43-.81A6.31,6.31,0,0,1,77.65,42a3.82,3.82,0,0,1,2.79,1,3.68,3.68,0,0,1,1,2.76V50q0,.51.45.51v1.08a2.59,2.59,0,0,1-.47.06,1,1,0,0,1-.73-.24.88.88,0,0,1-.29-.65l0-.74a4.35,4.35,0,0,1-1.64,1.3A5.09,5.09,0,0,1,76.62,51.77Zm.29-1a4.23,4.23,0,0,0,1.76-.36,2.88,2.88,0,0,0,1.23-1,1,1,0,0,0,.24-.36.77.77,0,0,0,.08-.35V47.25a7.44,7.44,0,0,0-2.62-.49,3.82,3.82,0,0,0-2.13.54,1.67,1.67,0,0,0-.81,1.44,2,2,0,0,0,.17.81,1.85,1.85,0,0,0,.47.66,2.2,2.2,0,0,0,.72.45A2.38,2.38,0,0,0,76.91,50.82Z" transform="translate(3.43 -1.08)"/><path class="cls-3" d="M87.26,51.77a6.63,6.63,0,0,1-2.16-.37,5.16,5.16,0,0,1-1.81-1l.56-.83a6.2,6.2,0,0,0,1.63,1,4.87,4.87,0,0,0,1.76.32,3.22,3.22,0,0,0,1.83-.46,1.51,1.51,0,0,0,.68-1.31,1.11,1.11,0,0,0-.19-.67,1.52,1.52,0,0,0-.53-.46,4.23,4.23,0,0,0-.89-.35c-.36-.11-.77-.21-1.24-.32s-1-.27-1.42-.4a4.08,4.08,0,0,1-1-.45,1.58,1.58,0,0,1-.58-.63,2,2,0,0,1-.2-.93A2.65,2.65,0,0,1,84,43.59a2.38,2.38,0,0,1,.76-.9,3.53,3.53,0,0,1,1.12-.54A5.09,5.09,0,0,1,87.26,42a5.21,5.21,0,0,1,2,.36,3.78,3.78,0,0,1,1.43.93l-.6.73a3.24,3.24,0,0,0-1.28-.82,4.57,4.57,0,0,0-1.56-.27,3.73,3.73,0,0,0-.91.1,2.23,2.23,0,0,0-.74.31,1.68,1.68,0,0,0-.5.56,1.62,1.62,0,0,0-.18.79,1.32,1.32,0,0,0,.13.61,1,1,0,0,0,.42.41,3.14,3.14,0,0,0,.73.31c.3.09.66.18,1.08.28.61.15,1.14.29,1.6.44a5,5,0,0,1,1.15.5,2.06,2.06,0,0,1,.7.71,2.13,2.13,0,0,1,.23,1A2.45,2.45,0,0,1,90,51,4.32,4.32,0,0,1,87.26,51.77Z" transform="translate(3.43 -1.08)"/><path class="cls-3" d="M97,51.77a4.55,4.55,0,0,1-1.9-.39,4.71,4.71,0,0,1-1.5-1.08,4.85,4.85,0,0,1-1-1.56,5.07,5.07,0,0,1-.36-1.91A4.87,4.87,0,0,1,92.66,45a4.81,4.81,0,0,1,1-1.55A4.6,4.6,0,0,1,97,42a4.5,4.5,0,0,1,1.89.39,4.55,4.55,0,0,1,1.48,1.06,5,5,0,0,1,1.31,3.39v.29a.75.75,0,0,1,0,.2H93.59a4.06,4.06,0,0,0,.35,1.41,3.86,3.86,0,0,0,.77,1.11,3.59,3.59,0,0,0,1.08.74,3.18,3.18,0,0,0,1.3.26,3.4,3.4,0,0,0,1.74-.47,3.17,3.17,0,0,0,.69-.53,2.39,2.39,0,0,0,.47-.7l1.07.29a2.94,2.94,0,0,1-.62,1,4.21,4.21,0,0,1-.92.74,4.13,4.13,0,0,1-1.16.49A4.83,4.83,0,0,1,97,51.77Zm3.48-5.41a3.9,3.9,0,0,0-.36-1.39,3.77,3.77,0,0,0-.76-1.07,3.23,3.23,0,0,0-1.07-.71A3.3,3.3,0,0,0,97,42.93a3.4,3.4,0,0,0-1.31.26A3.37,3.37,0,0,0,93.91,45a4.24,4.24,0,0,0-.34,1.38Z" transform="translate(3.43 -1.08)"/><path class="cls-3" d="M108.06,51.13l-.32.15-.48.18a5.92,5.92,0,0,1-.61.16,3.48,3.48,0,0,1-.73.07,2.37,2.37,0,0,1-.76-.11,1.86,1.86,0,0,1-.64-.33,1.65,1.65,0,0,1-.43-.57,1.84,1.84,0,0,1-.16-.8V43.12h-1.31v-1h1.31v-3.2h1.23v3.2h2.18v1h-2.18v6.42a1,1,0,0,0,.37.76,1.23,1.23,0,0,0,.77.25,2.45,2.45,0,0,0,.93-.17,4.32,4.32,0,0,0,.5-.25Z" transform="translate(3.43 -1.08)"/><path class="cls-3" d="M122,41.12a4.06,4.06,0,0,0-1.46-1,5.33,5.33,0,0,0-2.06-.38,3.89,3.89,0,0,0-2.49.65,2.15,2.15,0,0,0-.78,1.75,1.94,1.94,0,0,0,.21,1,1.81,1.81,0,0,0,.65.64,4.46,4.46,0,0,0,1.11.47c.45.14,1,.27,1.61.4s1.3.31,1.85.49a5.44,5.44,0,0,1,1.41.68,2.8,2.8,0,0,1,.89,1,3.14,3.14,0,0,1,.31,1.45,3.24,3.24,0,0,1-.35,1.54,3,3,0,0,1-1,1.09,4.1,4.1,0,0,1-1.47.64,7.81,7.81,0,0,1-1.87.21,7.64,7.64,0,0,1-5.16-1.87l.63-1a5.33,5.33,0,0,0,.83.69,5.42,5.42,0,0,0,1.07.57,6.86,6.86,0,0,0,1.26.38,7,7,0,0,0,1.41.14,4.49,4.49,0,0,0,2.4-.55,1.85,1.85,0,0,0,.86-1.68,2,2,0,0,0-.24-1,2.16,2.16,0,0,0-.73-.71,5.15,5.15,0,0,0-1.22-.51c-.48-.15-1-.29-1.69-.44a17.34,17.34,0,0,1-1.77-.49,4.85,4.85,0,0,1-1.29-.63,2.56,2.56,0,0,1-.79-.92,3,3,0,0,1-.26-1.31,3.71,3.71,0,0,1,.33-1.59,3.17,3.17,0,0,1,1-1.16,4.56,4.56,0,0,1,1.45-.71,6.63,6.63,0,0,1,1.85-.24,6.32,6.32,0,0,1,2.29.39,6.12,6.12,0,0,1,1.82,1.09Z" transform="translate(3.43 -1.08)"/><path class="cls-3" d="M125.23,40.16V38.35h1.24v1.81Zm0,11.42V42.14h1.24v9.44Z" transform="translate(3.43 -1.08)"/><path class="cls-3" d="M128.39,50.75l6.38-7.69h-6.24v-.92h7.58V43l-6.36,7.69h6.35v.92h-7.71Z" transform="translate(3.43 -1.08)"/><path class="cls-3" d="M141.93,51.77a4.53,4.53,0,0,1-1.89-.39,4.71,4.71,0,0,1-1.5-1.08,4.85,4.85,0,0,1-1-1.56,5.07,5.07,0,0,1-.36-1.91,4.87,4.87,0,0,1,.36-1.87,5,5,0,0,1,1-1.55,4.72,4.72,0,0,1,1.5-1,4.57,4.57,0,0,1,1.89-.39,4.5,4.5,0,0,1,1.89.39,4.55,4.55,0,0,1,1.48,1.06,5,5,0,0,1,1.31,3.39v.29a.75.75,0,0,1,0,.2h-8.09a4.06,4.06,0,0,0,.35,1.41,3.86,3.86,0,0,0,.77,1.11,3.59,3.59,0,0,0,1.08.74,3.18,3.18,0,0,0,1.3.26,3.4,3.4,0,0,0,1.74-.47,3.17,3.17,0,0,0,.69-.53,2.61,2.61,0,0,0,.47-.7l1.07.29a3.12,3.12,0,0,1-.62,1,4.21,4.21,0,0,1-.92.74,4.13,4.13,0,0,1-1.16.49A4.85,4.85,0,0,1,141.93,51.77Zm3.49-5.41a3.9,3.9,0,0,0-.36-1.39,3.77,3.77,0,0,0-.76-1.07,3.23,3.23,0,0,0-1.07-.71,3.32,3.32,0,0,0-1.3-.26,3.39,3.39,0,0,0-1.3.26A3.37,3.37,0,0,0,138.81,45a4.24,4.24,0,0,0-.34,1.38Z" transform="translate(3.43 -1.08)"/><path class="cls-3" d="M70.63,2.44H71.7l5.35,12.87H75.71l-1.67-4H68.26l-1.65,4H65.25Zm3.12,7.85L71.16,3.93l-2.63,6.36Z" transform="translate(3.43 -1.08)"/><path class="cls-3" d="M78.7,2.07h1.23v11.1a1.16,1.16,0,0,0,.29.83,1.1,1.1,0,0,0,.82.3,2.23,2.23,0,0,0,.47-.06A2.73,2.73,0,0,0,82,14.1l.22,1a4.46,4.46,0,0,1-.85.23,4.93,4.93,0,0,1-.86.09,1.83,1.83,0,0,1-1.34-.48,1.79,1.79,0,0,1-.49-1.35Z" transform="translate(3.43 -1.08)"/><path class="cls-3" d="M87.37,15.44A4,4,0,0,1,85.58,15,4.57,4.57,0,0,1,84.19,14a4.78,4.78,0,0,1-.92-1.54A5,5,0,0,1,83,10.62a5.62,5.62,0,0,1,.31-1.88,4.77,4.77,0,0,1,.9-1.57A4.42,4.42,0,0,1,85.55,6.1a3.88,3.88,0,0,1,1.78-.4,3.64,3.64,0,0,1,2.11.61A5.82,5.82,0,0,1,91,7.84v-2h1.11v9.48a3.83,3.83,0,0,1-.38,1.73,3.72,3.72,0,0,1-1,1.26,4.28,4.28,0,0,1-1.47.76,6.15,6.15,0,0,1-1.79.26,5.28,5.28,0,0,1-2.63-.58,4.71,4.71,0,0,1-1.61-1.56l.76-.6A3.41,3.41,0,0,0,85.45,18a4.59,4.59,0,0,0,2,.43,4.66,4.66,0,0,0,1.31-.19,3.46,3.46,0,0,0,1.08-.56,2.66,2.66,0,0,0,.73-.95,3.07,3.07,0,0,0,.27-1.33V13.48a4.1,4.1,0,0,1-3.46,2Zm.34-1a3,3,0,0,0,1.07-.2,3.77,3.77,0,0,0,1-.54,3.35,3.35,0,0,0,.71-.75,2.21,2.21,0,0,0,.38-.85V9.15a3.59,3.59,0,0,0-.54-1,3.9,3.9,0,0,0-.78-.74A4.14,4.14,0,0,0,88.58,7a3,3,0,0,0-1-.18,2.87,2.87,0,0,0-1.42.34A3.47,3.47,0,0,0,85.08,8a4,4,0,0,0-.66,1.24,4.44,4.44,0,0,0-.22,1.39,4,4,0,0,0,.27,1.46,3.8,3.8,0,0,0,.75,1.2,3.49,3.49,0,0,0,1.12.82A3.16,3.16,0,0,0,87.71,14.41Z" transform="translate(3.43 -1.08)"/><path class="cls-3" d="M98.81,15.49a4.42,4.42,0,0,1-1.88-.39,4.68,4.68,0,0,1-2.45-2.62,5.08,5.08,0,0,1-.35-1.86,5,5,0,0,1,.36-1.89,4.85,4.85,0,0,1,1-1.56A4.76,4.76,0,0,1,96.94,6.1a4.3,4.3,0,0,1,1.87-.4,4.37,4.37,0,0,1,1.88.4,4.84,4.84,0,0,1,1.49,1.07,5.22,5.22,0,0,1,1,1.56,5.16,5.16,0,0,1,.35,1.89,5.08,5.08,0,0,1-.35,1.86,4.62,4.62,0,0,1-1,1.56,4.51,4.51,0,0,1-1.48,1.06A4.58,4.58,0,0,1,98.81,15.49Zm-3.43-4.86a4.07,4.07,0,0,0,1,2.68,3.49,3.49,0,0,0,1.09.81,3.18,3.18,0,0,0,1.33.29,3,3,0,0,0,1.33-.3,3.41,3.41,0,0,0,1.1-.82,4,4,0,0,0,.75-1.2,4.22,4.22,0,0,0,0-3,3.81,3.81,0,0,0-.75-1.21,3.41,3.41,0,0,0-1.1-.82,3,3,0,0,0-1.33-.3,3,3,0,0,0-1.32.3,3.48,3.48,0,0,0-1.09.82,4.12,4.12,0,0,0-.74,1.23A4.07,4.07,0,0,0,95.38,10.63Z" transform="translate(3.43 -1.08)"/><path class="cls-3" d="M110.29,7a4,4,0,0,0-2.18.69,3.52,3.52,0,0,0-1.3,1.8v5.87h-1.23V5.87h1.16V8.13a4.32,4.32,0,0,1,1.41-1.7,3.3,3.3,0,0,1,1.91-.62l.23,0Z" transform="translate(3.43 -1.08)"/><path class="cls-3" d="M111.94,3.89V2.07h1.23V3.89Zm0,11.42V5.87h1.23v9.44Z" transform="translate(3.43 -1.08)"/><path class="cls-3" d="M120.43,14.86l-.32.14a3.69,3.69,0,0,1-.48.19,6.15,6.15,0,0,1-.62.16,3.38,3.38,0,0,1-.72.07,2.37,2.37,0,0,1-.76-.11,1.69,1.69,0,0,1-.64-.33,1.65,1.65,0,0,1-.43-.57,1.85,1.85,0,0,1-.17-.8V6.84H115v-1h1.3V2.67h1.24v3.2h2.17v1h-2.17v6.42a.94.94,0,0,0,.37.77,1.23,1.23,0,0,0,.77.25,2.36,2.36,0,0,0,.92-.17,4,4,0,0,0,.51-.25Z" transform="translate(3.43 -1.08)"/><path class="cls-3" d="M129.91,15.31h-1.23V10a4.37,4.37,0,0,0-.55-2.42,1.85,1.85,0,0,0-1.63-.79,2.91,2.91,0,0,0-1,.2,3.73,3.73,0,0,0-1,.58,3.77,3.77,0,0,0-.79.85,3.62,3.62,0,0,0-.5,1.07v5.78H122V2.07h1.23V8a4.36,4.36,0,0,1,1.56-1.68,4.07,4.07,0,0,1,2.16-.62,2.93,2.93,0,0,1,1.38.3,2.55,2.55,0,0,1,.92.84,3.63,3.63,0,0,1,.53,1.28,7.79,7.79,0,0,1,.16,1.66Z" transform="translate(3.43 -1.08)"/><path class="cls-3" d="M146.6,15.31h-1.24V10a4.43,4.43,0,0,0-.52-2.43,1.76,1.76,0,0,0-1.56-.78,2.52,2.52,0,0,0-1,.2,3.1,3.1,0,0,0-.89.56,4,4,0,0,0-1.18,2v5.76h-1.24V10a4.52,4.52,0,0,0-.51-2.45,1.72,1.72,0,0,0-1.56-.76,2.76,2.76,0,0,0-1.9.74,4.21,4.21,0,0,0-1.2,2v5.78h-1.23V5.87h1.13V8a4.38,4.38,0,0,1,1.52-1.69,3.72,3.72,0,0,1,2.08-.61,2.74,2.74,0,0,1,1.92.67,3,3,0,0,1,.88,1.76,4,4,0,0,1,3.64-2.43,2.93,2.93,0,0,1,1.35.29,2.29,2.29,0,0,1,.89.83,3.8,3.8,0,0,1,.49,1.28,8.71,8.71,0,0,1,.16,1.68Z" transform="translate(3.43 -1.08)"/><rect class="cls-2" x="157.54" y="140.95" width="123.97" height="12.1"/><rect class="cls-1" x="157.54" y="140.95" width="94.45" height="12.1"/><rect class="cls-1" x="157.54" y="106.61" width="123.97" height="12.1"/><rect class="cls-2" x="157.54" y="72.27" width="123.97" height="12.1"/><rect class="cls-1" x="157.54" y="72.27" width="92.52" height="12.1"/><rect class="cls-2" x="157.54" y="37.93" width="123.97" height="12.1"/><rect class="cls-1" x="157.54" y="37.93" width="46.49" height="12.1"/><polyline class="cls-5" points="281.84 159.85 281.84 22.12 399.45 22.12"/><path class="cls-2" d="M285.5,13.83V2.09h4.86a3.13,3.13,0,0,1,1.4.32,3.82,3.82,0,0,1,1.1.85,4,4,0,0,1,.73,1.18,3.71,3.71,0,0,1,.26,1.34,3.94,3.94,0,0,1-.25,1.4,3.67,3.67,0,0,1-.69,1.18,3.62,3.62,0,0,1-1.07.83,3.11,3.11,0,0,1-1.38.31h-3.8v4.33Zm1.16-5.36h3.75a2,2,0,0,0,.94-.22,2.26,2.26,0,0,0,.71-.59,2.87,2.87,0,0,0,.47-.86,3.2,3.2,0,0,0,.16-1,2.73,2.73,0,0,0-.19-1,2.84,2.84,0,0,0-.51-.86,2.37,2.37,0,0,0-.76-.57,2.24,2.24,0,0,0-.92-.2h-3.65Z" transform="translate(3.43 -1.08)"/><path class="cls-2" d="M299.85,6.21a3.48,3.48,0,0,0-2,.63,3.14,3.14,0,0,0-1.19,1.63v5.36h-1.13V5.22h1.06V7.28a3.89,3.89,0,0,1,1.29-1.55,3,3,0,0,1,1.74-.56h.21Z" transform="translate(3.43 -1.08)"/><path class="cls-2" d="M304.6,14a4,4,0,0,1-1.72-.36,4.23,4.23,0,0,1-1.35-1,4.3,4.3,0,0,1-.88-1.42,4.6,4.6,0,0,1,.9-4.84,4.33,4.33,0,0,1,1.34-1,4.24,4.24,0,0,1,3.42,0,4.26,4.26,0,0,1,1.35,1,4.46,4.46,0,0,1,.9,1.42,4.69,4.69,0,0,1,.32,1.72,4.88,4.88,0,0,1-.31,1.7,4.33,4.33,0,0,1-.89,1.42,4.23,4.23,0,0,1-1.35,1A4.12,4.12,0,0,1,304.6,14Zm-3.13-4.43a3.67,3.67,0,0,0,.25,1.34,3.63,3.63,0,0,0,.67,1.09,3,3,0,0,0,1,.74,2.82,2.82,0,0,0,1.22.26,2.78,2.78,0,0,0,1.21-.27,3.18,3.18,0,0,0,1-.74,3.45,3.45,0,0,0,.68-1.1,3.58,3.58,0,0,0,.25-1.36,3.63,3.63,0,0,0-.25-1.35,3.34,3.34,0,0,0-.68-1.1,3.06,3.06,0,0,0-1-.75,2.85,2.85,0,0,0-2.42,0,3.28,3.28,0,0,0-1,.76,3.56,3.56,0,0,0-.68,1.11A3.87,3.87,0,0,0,301.47,9.57Z" transform="translate(3.43 -1.08)"/><path class="cls-2" d="M309.47,16.82a3.75,3.75,0,0,1-1-.14,2.26,2.26,0,0,1-.86-.5l.55-.76a1.39,1.39,0,0,0,.57.31,2.28,2.28,0,0,0,.63.09,1.39,1.39,0,0,0,.57-.12,1.8,1.8,0,0,0,.49-.32,1.75,1.75,0,0,0,.35-.49,1.39,1.39,0,0,0,.13-.61V5.22H312v9a2.61,2.61,0,0,1-.21,1.06,2.56,2.56,0,0,1-.57.83,2.52,2.52,0,0,1-.81.53A2.36,2.36,0,0,1,309.47,16.82Zm1.41-13.41V1.76H312V3.41Z" transform="translate(3.43 -1.08)"/><path class="cls-2" d="M318.2,14a4.08,4.08,0,0,1-1.72-.36,4.32,4.32,0,0,1-1.37-1,4.81,4.81,0,0,1-.9-1.43,4.76,4.76,0,0,1-.32-1.74,4.53,4.53,0,0,1,1.21-3.12,4.34,4.34,0,0,1,1.37-1,4.43,4.43,0,0,1,3.45,0,4.08,4.08,0,0,1,1.34,1,4.51,4.51,0,0,1,1.19,3.09v.27a.77.77,0,0,1,0,.18h-7.38a3.61,3.61,0,0,0,.33,1.28,3.49,3.49,0,0,0,.7,1,3.16,3.16,0,0,0,1,.67,3,3,0,0,0,1.18.24,2.92,2.92,0,0,0,.83-.12,3.46,3.46,0,0,0,.76-.31,3.33,3.33,0,0,0,.63-.49,2.06,2.06,0,0,0,.43-.64l1,.27a2.7,2.7,0,0,1-.56.87,4.11,4.11,0,0,1-1.9,1.12A4.78,4.78,0,0,1,318.2,14Zm3.18-4.93a3.49,3.49,0,0,0-.32-1.27,3.7,3.7,0,0,0-.7-1,3,3,0,0,0-1-.64,3,3,0,0,0-1.19-.24,3.16,3.16,0,0,0-2.17.88,3.29,3.29,0,0,0-.68,1,3.75,3.75,0,0,0-.3,1.26Z" transform="translate(3.43 -1.08)"/><path class="cls-2" d="M323.59,9.5a4.69,4.69,0,0,1,.32-1.72,4.26,4.26,0,0,1,.88-1.41,4,4,0,0,1,1.37-1,4.18,4.18,0,0,1,1.75-.35,4,4,0,0,1,2.13.55,3.56,3.56,0,0,1,1.38,1.5l-1.1.35a2.59,2.59,0,0,0-1-1,2.87,2.87,0,0,0-1.45-.37,3,3,0,0,0-1.23.26A3.16,3.16,0,0,0,325,8.13a3.79,3.79,0,0,0-.24,1.37,3.91,3.91,0,0,0,.24,1.37,3.61,3.61,0,0,0,.68,1.12,3.29,3.29,0,0,0,1,.74,2.82,2.82,0,0,0,1.22.27,2.94,2.94,0,0,0,.82-.11,3.85,3.85,0,0,0,.75-.32,2.84,2.84,0,0,0,.59-.47,1.57,1.57,0,0,0,.35-.57l1.11.33a2.86,2.86,0,0,1-.53.86,4,4,0,0,1-1.86,1.12,4.66,4.66,0,0,1-1.18.16,4.22,4.22,0,0,1-3.11-1.33,4.44,4.44,0,0,1-.9-1.43A4.57,4.57,0,0,1,323.59,9.5Z" transform="translate(3.43 -1.08)"/><path class="cls-2" d="M337.4,13.42l-.29.13-.44.17a5.07,5.07,0,0,1-.56.14,2.84,2.84,0,0,1-.66.07,2.26,2.26,0,0,1-.69-.1,1.49,1.49,0,0,1-1-.83,1.62,1.62,0,0,1-.15-.72V6.11h-1.19V5.22h1.19V2.31h1.13V5.22h2v.89h-2V12a.91.91,0,0,0,.33.71,1.24,1.24,0,0,0,.71.22,2,2,0,0,0,.84-.16,3.41,3.41,0,0,0,.46-.22Z" transform="translate(3.43 -1.08)"/><path class="cls-2" d="M343.25,13.83V2.09h5a3.1,3.1,0,0,1,1.4.32,3.82,3.82,0,0,1,1.1.85,3.88,3.88,0,0,1,1,2.52A4.16,4.16,0,0,1,351.5,7,4.21,4.21,0,0,1,351,8.07a3.24,3.24,0,0,1-.82.79,2.87,2.87,0,0,1-1.08.44L352,13.83h-1.31L347.88,9.5h-3.47v4.33Zm1.16-5.36h3.84a1.93,1.93,0,0,0,.93-.22,2.31,2.31,0,0,0,.72-.6,3,3,0,0,0,.46-.86,3.1,3.1,0,0,0,.17-1,3,3,0,0,0-.19-1,3,3,0,0,0-.51-.85,2.6,2.6,0,0,0-.77-.58,2.06,2.06,0,0,0-.91-.21h-3.74Z" transform="translate(3.43 -1.08)"/><path class="cls-2" d="M357.29,14a4.12,4.12,0,0,1-1.73-.36,4.27,4.27,0,0,1-1.36-1,4.44,4.44,0,0,1-.9-1.43A4.56,4.56,0,0,1,353,9.5a4.36,4.36,0,0,1,2.57-4.08,4.3,4.3,0,0,1,1.72-.35,4.24,4.24,0,0,1,1.73.35,4.13,4.13,0,0,1,1.35,1,4.66,4.66,0,0,1,.88,1.41,4.52,4.52,0,0,1,.31,1.68v.27a.62.62,0,0,1,0,.18h-7.37a3.6,3.6,0,0,0,.32,1.28,3.69,3.69,0,0,0,.7,1,3.33,3.33,0,0,0,1,.67,2.93,2.93,0,0,0,1.18.24,3,3,0,0,0,.83-.12,3.67,3.67,0,0,0,.76-.31,3.33,3.33,0,0,0,.63-.49,2.25,2.25,0,0,0,.43-.64l1,.27a2.88,2.88,0,0,1-.56.87,4,4,0,0,1-.84.67,4.18,4.18,0,0,1-1.06.45A4.84,4.84,0,0,1,357.29,14Zm3.18-4.93a3.72,3.72,0,0,0-.33-1.27,3.46,3.46,0,0,0-.69-1,3.08,3.08,0,0,0-1-.64,2.93,2.93,0,0,0-1.18-.24,3,3,0,0,0-1.19.24,3.08,3.08,0,0,0-1,.64,3.29,3.29,0,0,0-.68,1,4,4,0,0,0-.31,1.26Z" transform="translate(3.43 -1.08)"/><path class="cls-2" d="M365.44,14a3,3,0,0,1-1.13-.21,2.92,2.92,0,0,1-.91-.57,2.53,2.53,0,0,1-.6-.85,2.5,2.5,0,0,1-.22-1,2.07,2.07,0,0,1,.27-1,2.43,2.43,0,0,1,.74-.83,3.76,3.76,0,0,1,1.14-.54,5.55,5.55,0,0,1,1.46-.19,7.76,7.76,0,0,1,1.34.12,6.12,6.12,0,0,1,1.2.33V8.39a2.5,2.5,0,0,0-.64-1.81,2.36,2.36,0,0,0-1.79-.67,3.69,3.69,0,0,0-1.35.27,6.09,6.09,0,0,0-1.41.76l-.4-.75a5.84,5.84,0,0,1,3.24-1.12,3.48,3.48,0,0,1,2.55.91,3.34,3.34,0,0,1,.93,2.51v3.89c0,.3.13.46.41.46v1a3.14,3.14,0,0,1-.43.05,1,1,0,0,1-.67-.21.84.84,0,0,1-.26-.6l0-.68a3.88,3.88,0,0,1-1.5,1.19A4.51,4.51,0,0,1,365.44,14Zm.27-.86a3.9,3.9,0,0,0,1.61-.33,2.63,2.63,0,0,0,1.11-.88,1.12,1.12,0,0,0,.23-.32.85.85,0,0,0,.07-.33V9.88a7.37,7.37,0,0,0-1.16-.33,6.43,6.43,0,0,0-1.24-.12,3.43,3.43,0,0,0-1.93.5,1.5,1.5,0,0,0-.74,1.31,1.85,1.85,0,0,0,.15.74,2,2,0,0,0,.43.6,2.1,2.1,0,0,0,.66.41A2.16,2.16,0,0,0,365.71,13.14Z" transform="translate(3.43 -1.08)"/><path class="cls-2" d="M371.69,9.5A4.69,4.69,0,0,1,372,7.78a4.1,4.1,0,0,1,.88-1.41,4,4,0,0,1,1.36-1A4.22,4.22,0,0,1,376,5.07a4,4,0,0,1,2.13.55,3.54,3.54,0,0,1,1.37,1.5l-1.09.35a2.55,2.55,0,0,0-1-1A2.81,2.81,0,0,0,376,6.06a3,3,0,0,0-1.23.26,3.16,3.16,0,0,0-1,.72,3.42,3.42,0,0,0-.66,1.09,3.79,3.79,0,0,0-.24,1.37,3.92,3.92,0,0,0,.25,1.37,3.61,3.61,0,0,0,.68,1.12,3.18,3.18,0,0,0,1,.74A2.78,2.78,0,0,0,376,13a2.85,2.85,0,0,0,.82-.11,3.6,3.6,0,0,0,.75-.32,2.91,2.91,0,0,0,.6-.47,1.57,1.57,0,0,0,.35-.57l1.1.33a2.83,2.83,0,0,1-.52.86,4.13,4.13,0,0,1-.82.67,4,4,0,0,1-1,.45A4.74,4.74,0,0,1,376,14a4.12,4.12,0,0,1-1.73-.36,4.21,4.21,0,0,1-1.37-1,4.65,4.65,0,0,1-.91-1.43A4.76,4.76,0,0,1,371.69,9.5Z" transform="translate(3.43 -1.08)"/><path class="cls-2" d="M388.61,13.83h-1.13V9a4,4,0,0,0-.5-2.2,1.7,1.7,0,0,0-1.48-.73,2.64,2.64,0,0,0-.95.19,3.64,3.64,0,0,0-.89.52,3.84,3.84,0,0,0-.72.78,3.37,3.37,0,0,0-.45,1v5.27h-1.13V1.76h1.13V7.17a3.91,3.91,0,0,1,1.42-1.54,3.72,3.72,0,0,1,2-.56,2.65,2.65,0,0,1,1.25.27,2.3,2.3,0,0,1,.85.76,3.4,3.4,0,0,1,.48,1.18,7,7,0,0,1,.15,1.51Z" transform="translate(3.43 -1.08)"/></svg>