<svg id="图层_1" data-name="图层 1" xmlns="http://www.w3.org/2000/svg" viewBox="0 0 448.46 159.85"><defs><style>.cls-1{fill:#f0850f;}.cls-2{fill:#939393;}.cls-3{fill:#fff;}.cls-4,.cls-5{fill:none;stroke-miterlimit:10;}.cls-4{stroke:#ef830d;stroke-width:1.07px;}.cls-5{stroke:#939393;stroke-width:0.65px;}</style></defs><title>06_Pipi-Natalie</title><path class="cls-1" d="M294.26,154.56V151.8H289.1v-.93l5.5-7.13h.72v7.1h1.36v1h-1.36v2.76Zm-4-3.72h4.15V145.4Z" transform="translate(1.48 -1.08)"/><path class="cls-1" d="M302.72,154.56V151.8h-5.16v-.93l5.51-7.13h.71v7.1h1.36v1h-1.36v2.76Zm-4-3.72h4.15V145.4Z" transform="translate(1.48 -1.08)"/><path class="cls-2" d="M314.6,141.59l-7.32,11h-1.19l7.31-11Z" transform="translate(1.48 -1.08)"/><path class="cls-2" d="M323.43,149a3.69,3.69,0,0,1-.3,1.48,3.76,3.76,0,0,1-2.07,2,4.11,4.11,0,0,1-3.13,0,3.42,3.42,0,0,1-1.25-.91,4.15,4.15,0,0,1-.81-1.45,5.79,5.79,0,0,1-.3-1.93,12.61,12.61,0,0,1,.3-2.92,6.35,6.35,0,0,1,.83-2.07,3.44,3.44,0,0,1,1.28-1.24,3.36,3.36,0,0,1,1.65-.4,3.64,3.64,0,0,1,2,.54,3.52,3.52,0,0,1,1.32,1.51l-.68.62a2.75,2.75,0,0,0-2.61-1.74,2.42,2.42,0,0,0-1.24.33,2.81,2.81,0,0,0-.95.93,5.24,5.24,0,0,0-.62,1.51,8.45,8.45,0,0,0-.22,2,2.85,2.85,0,0,1,1.17-1.46,3.36,3.36,0,0,1,1.88-.54,3.72,3.72,0,0,1,3.49,2.26A3.73,3.73,0,0,1,323.43,149Zm-3.87,2.85a2.79,2.79,0,0,0,1.11-.23,3,3,0,0,0,.91-.61,2.88,2.88,0,0,0,.62-.91,2.7,2.7,0,0,0,.22-1.1,2.57,2.57,0,0,0-.23-1.11,2.75,2.75,0,0,0-.63-.91,2.85,2.85,0,0,0-.91-.61,2.79,2.79,0,0,0-2.22,0,3,3,0,0,0-.91.61,2.88,2.88,0,0,0-.62.91,2.72,2.72,0,0,0-.23,1.11,2.56,2.56,0,0,0,.24,1.1,3,3,0,0,0,.62.9,2.87,2.87,0,0,0,.92.62A2.72,2.72,0,0,0,319.56,151.82Z" transform="translate(1.48 -1.08)"/><path class="cls-2" d="M329.43,148.94a2.55,2.55,0,0,1,1.64.93,2.92,2.92,0,0,1,.61,1.87,3.15,3.15,0,0,1-.26,1.28,2.66,2.66,0,0,1-.73,1,3.2,3.2,0,0,1-1.13.64,4.52,4.52,0,0,1-1.46.22,4.35,4.35,0,0,1-2.06-.47,3.2,3.2,0,0,1-1.34-1.31l.73-.67a2.54,2.54,0,0,0,1,1.09,3.22,3.22,0,0,0,1.68.4,2.8,2.8,0,0,0,1.83-.56,2,2,0,0,0,.66-1.63,2.14,2.14,0,0,0-.69-1.68,2.93,2.93,0,0,0-2-.62h-.39v-.9h.42a2.74,2.74,0,0,0,1.83-.55,1.84,1.84,0,0,0,.64-1.44,1.94,1.94,0,0,0-.17-.82,1.73,1.73,0,0,0-.48-.59,2.09,2.09,0,0,0-.71-.37,3.14,3.14,0,0,0-.89-.12,3.06,3.06,0,0,0-1.56.39,2.53,2.53,0,0,0-1,1.09l-.69-.65a2.62,2.62,0,0,1,.53-.73,3.4,3.4,0,0,1,.78-.57,3.75,3.75,0,0,1,1-.36,4.32,4.32,0,0,1,1.08-.13,3.91,3.91,0,0,1,1.31.2,3.1,3.1,0,0,1,1,.56,2.55,2.55,0,0,1,.92,2,2.91,2.91,0,0,1-.14.89,2.42,2.42,0,0,1-.41.76,2.31,2.31,0,0,1-.64.56A2.36,2.36,0,0,1,329.43,148.94Z" transform="translate(1.48 -1.08)"/><path class="cls-2" d="M344.29,152.59h-1.05v-4.51a3.69,3.69,0,0,0-.47-2.06,1.6,1.6,0,0,0-1.39-.68,2.32,2.32,0,0,0-.89.18,3.18,3.18,0,0,0-.83.49,3.28,3.28,0,0,0-.67.72,2.87,2.87,0,0,0-.43.92v4.94h-1.05V141.28h1.05v5.07a3.62,3.62,0,0,1,1.33-1.44,3.4,3.4,0,0,1,1.85-.53,2.47,2.47,0,0,1,1.17.25,2.13,2.13,0,0,1,.8.72,3.34,3.34,0,0,1,.45,1.1,6.93,6.93,0,0,1,.13,1.42Z" transform="translate(1.48 -1.08)"/><path class="cls-2" d="M350,152.75a3.86,3.86,0,0,1-1.61-.33,4.11,4.11,0,0,1-1.26-.91,4,4,0,0,1-.83-1.33,4.33,4.33,0,0,1-.3-1.6,4.12,4.12,0,0,1,.31-1.61,4.38,4.38,0,0,1,.83-1.34,4.15,4.15,0,0,1,1.27-.91,3.63,3.63,0,0,1,1.59-.34,3.75,3.75,0,0,1,1.61.34,4.15,4.15,0,0,1,1.27.91,4.4,4.4,0,0,1,.84,1.34,4.44,4.44,0,0,1,0,3.21,4,4,0,0,1-.83,1.33,4,4,0,0,1-1.27.91A3.91,3.91,0,0,1,350,152.75Zm-2.93-4.16a3.48,3.48,0,0,0,.86,2.29,3,3,0,0,0,.93.69,2.63,2.63,0,0,0,1.14.25,2.58,2.58,0,0,0,1.14-.26,3,3,0,0,0,.94-.69,3.43,3.43,0,0,0,.64-1,3.5,3.5,0,0,0,.23-1.27,3.56,3.56,0,0,0-.23-1.26,3.43,3.43,0,0,0-.64-1,3.08,3.08,0,0,0-.94-.7,2.7,2.7,0,0,0-2.27,0,3,3,0,0,0-.93.71,3.27,3.27,0,0,0-.63,1A3.34,3.34,0,0,0,347.05,148.59Z" transform="translate(1.48 -1.08)"/><path class="cls-2" d="M358.29,152.75a2.26,2.26,0,0,1-2-.88,4.37,4.37,0,0,1-.64-2.61v-4.74h1.05v4.55c0,1.83.63,2.75,1.88,2.75a2.61,2.61,0,0,0,.91-.16,2.68,2.68,0,0,0,.83-.45,3.43,3.43,0,0,0,.68-.69,3.52,3.52,0,0,0,.49-.92v-5.08h1.05v6.71c0,.29.13.43.38.43v.93l-.31,0h-.16a.8.8,0,0,1-.6-.26.92.92,0,0,1-.24-.67v-.93a3.82,3.82,0,0,1-3.36,2Z" transform="translate(1.48 -1.08)"/><path class="cls-2" d="M369,145.45a3.27,3.27,0,0,0-1.86.59,2.89,2.89,0,0,0-1.11,1.53v5H365v-8.07h1v1.94a3.73,3.73,0,0,1,1.21-1.46,2.83,2.83,0,0,1,1.63-.53l.2,0Z" transform="translate(1.48 -1.08)"/><path class="cls-2" d="M373.09,152.75a5.78,5.78,0,0,1-1.84-.31,4.49,4.49,0,0,1-1.55-.9l.48-.71a5.06,5.06,0,0,0,1.39.83,4,4,0,0,0,1.51.28,2.77,2.77,0,0,0,1.56-.39,1.31,1.31,0,0,0,.58-1.13,1,1,0,0,0-.16-.56,1.32,1.32,0,0,0-.46-.4,3.89,3.89,0,0,0-.75-.3c-.31-.09-.66-.18-1.07-.27s-.86-.23-1.21-.34a4.15,4.15,0,0,1-.84-.39,1.36,1.36,0,0,1-.5-.54,1.82,1.82,0,0,1-.16-.79,2.28,2.28,0,0,1,.24-1.07A2.21,2.21,0,0,1,371,145a3.28,3.28,0,0,1,1-.46,4.47,4.47,0,0,1,1.17-.15,4.54,4.54,0,0,1,1.69.3,3.32,3.32,0,0,1,1.23.8l-.51.62a2.92,2.92,0,0,0-1.1-.7,4,4,0,0,0-1.34-.23,3.64,3.64,0,0,0-.77.08,1.81,1.81,0,0,0-.63.28,1.39,1.39,0,0,0-.43.47,1.41,1.41,0,0,0-.15.67,1,1,0,0,0,.11.53,1,1,0,0,0,.35.35,3.15,3.15,0,0,0,.63.26c.25.08.56.16.92.24.52.13,1,.25,1.37.37a4.28,4.28,0,0,1,1,.44,1.72,1.72,0,0,1,.6.6,1.8,1.8,0,0,1,.2.87,2.12,2.12,0,0,1-.85,1.77A3.74,3.74,0,0,1,373.09,152.75Z" transform="translate(1.48 -1.08)"/><path class="cls-1" d="M294.68,48v1h-5.25V48h2.2V41.39a1.89,1.89,0,0,1-.43.4,4.77,4.77,0,0,1-.67.41,6.21,6.21,0,0,1-.75.31,2.32,2.32,0,0,1-.68.12v-1a1.88,1.88,0,0,0,.78-.2,5.36,5.36,0,0,0,.81-.47,6.54,6.54,0,0,0,.64-.5,1.09,1.09,0,0,0,.3-.31h1.08V48Z" transform="translate(1.48 -1.08)"/><path class="cls-1" d="M303.69,45.36a3.7,3.7,0,0,1-.31,1.48,3.59,3.59,0,0,1-.83,1.2,3.73,3.73,0,0,1-1.24.8,3.87,3.87,0,0,1-1.53.3,4,4,0,0,1-1.6-.32,3.6,3.6,0,0,1-1.25-.9,4.52,4.52,0,0,1-.81-1.45,6.16,6.16,0,0,1-.29-1.93,13.32,13.32,0,0,1,.29-2.93,6.58,6.58,0,0,1,.83-2.07,3.31,3.31,0,0,1,2.94-1.64,3.67,3.67,0,0,1,2,.54A3.57,3.57,0,0,1,303.17,40l-.68.62a2.84,2.84,0,0,0-1-1.27,2.8,2.8,0,0,0-1.58-.47,2.37,2.37,0,0,0-1.24.33,2.86,2.86,0,0,0-1,.94,5,5,0,0,0-.62,1.51,8.36,8.36,0,0,0-.22,2A3,3,0,0,1,298,42.18a3.36,3.36,0,0,1,1.88-.54,3.82,3.82,0,0,1,1.48.28,4,4,0,0,1,1.2.79,3.75,3.75,0,0,1,.81,1.19A3.6,3.6,0,0,1,303.69,45.36Zm-3.88,2.85a3,3,0,0,0,1.11-.22,3.19,3.19,0,0,0,.91-.62,2.81,2.81,0,0,0,.85-2,2.76,2.76,0,0,0-.23-1.11,3.08,3.08,0,0,0-.63-.91,3,3,0,0,0-.92-.61,2.89,2.89,0,0,0-2.21,0,3,3,0,0,0-.92.61,2.88,2.88,0,0,0-.62.91,2.75,2.75,0,0,0-.22,1.11,2.55,2.55,0,0,0,.23,1.1,3,3,0,0,0,.63.91,3.19,3.19,0,0,0,.91.62A3,3,0,0,0,299.81,48.21Z" transform="translate(1.48 -1.08)"/><path class="cls-1" d="M308.66,44.15a3.8,3.8,0,0,1,1.41.25,3.69,3.69,0,0,1,1.14.72,3.46,3.46,0,0,1,.77,1.11,3.63,3.63,0,0,1,.28,1.42,3.5,3.5,0,0,1-.31,1.5,3.27,3.27,0,0,1-.82,1.14,3.72,3.72,0,0,1-1.21.74,4.1,4.1,0,0,1-1.49.26,4.22,4.22,0,0,1-1.13-.14,3.74,3.74,0,0,1-1-.43,4,4,0,0,1-.81-.67,3,3,0,0,1-.6-.86l.7-.53a3.37,3.37,0,0,0,1.18,1.22,3.12,3.12,0,0,0,2.72.28,2.65,2.65,0,0,0,.87-.56,2.42,2.42,0,0,0,.58-.85,2.74,2.74,0,0,0,.21-1.08,2.77,2.77,0,0,0-.2-1.05,2.31,2.31,0,0,0-.56-.81,2.41,2.41,0,0,0-.83-.53,3,3,0,0,0-1-.19,3,3,0,0,0-1.37.32,2.66,2.66,0,0,0-1.05.92h-1l.08-.41q.06-.33.15-.78c.07-.3.13-.63.21-1l.21-1.11c.18-.86.37-1.83.58-2.9h5.31v1h-4.52l-.76,4a2.72,2.72,0,0,1,1-.67A3.35,3.35,0,0,1,308.66,44.15Z" transform="translate(1.48 -1.08)"/><path class="cls-2" d="M321.74,38l-7.31,11h-1.2l7.32-11Z" transform="translate(1.48 -1.08)"/><path class="cls-2" d="M322.52,49a6.41,6.41,0,0,1,.09-1.06,3.7,3.7,0,0,1,.36-1.06,4,4,0,0,1,.78-1,5.6,5.6,0,0,1,1.34-.93l.94-.45a6.55,6.55,0,0,0,.9-.51,2.53,2.53,0,0,0,.67-.63,1.28,1.28,0,0,0,.27-.81,1.37,1.37,0,0,0-.14-.58,1.42,1.42,0,0,0-.38-.51,2.2,2.2,0,0,0-.64-.37,2.9,2.9,0,0,0-1.81,0,3.81,3.81,0,0,0-.7.35,2.84,2.84,0,0,0-.52.43l-.33.36-.69-.76.35-.34a4.77,4.77,0,0,1,.69-.5,6.24,6.24,0,0,1,1-.44A4,4,0,0,1,326,40a3.81,3.81,0,0,1,1.27.19,2.84,2.84,0,0,1,.95.54,2.48,2.48,0,0,1,.59.78,2.28,2.28,0,0,1,.2.92,2.14,2.14,0,0,1-.28,1.1,3.37,3.37,0,0,1-.69.81,5,5,0,0,1-.88.58l-.83.41a9.77,9.77,0,0,0-1,.49,5,5,0,0,0-.85.6,3,3,0,0,0-.61.72,1.73,1.73,0,0,0-.24.9h5.52v1Z" transform="translate(1.48 -1.08)"/><path class="cls-2" d="M338.54,44.44a5.76,5.76,0,0,1-.29,1.89,4.79,4.79,0,0,1-.81,1.48,3.67,3.67,0,0,1-1.24,1,3.49,3.49,0,0,1-1.55.35,3.56,3.56,0,0,1-1.55-.35,3.73,3.73,0,0,1-1.23-1,4.59,4.59,0,0,1-.81-1.48,5.76,5.76,0,0,1-.3-1.89,5.66,5.66,0,0,1,.3-1.88,4.75,4.75,0,0,1,.81-1.49,3.86,3.86,0,0,1,1.23-1,3.43,3.43,0,0,1,1.55-.36,3.37,3.37,0,0,1,1.55.36,3.8,3.8,0,0,1,1.24,1,5,5,0,0,1,.81,1.49A5.66,5.66,0,0,1,338.54,44.44Zm-1.06,0a5.17,5.17,0,0,0-.21-1.52,3.78,3.78,0,0,0-.59-1.17,2.6,2.6,0,0,0-.89-.76,2.4,2.4,0,0,0-1.14-.27,2.47,2.47,0,0,0-1.15.27,2.7,2.7,0,0,0-.89.76,3.77,3.77,0,0,0-.58,1.17,5.61,5.61,0,0,0,0,3,3.56,3.56,0,0,0,.58,1.17,2.52,2.52,0,0,0,2,1,2.4,2.4,0,0,0,1.14-.27,2.37,2.37,0,0,0,.89-.75,3.57,3.57,0,0,0,.59-1.17A5.12,5.12,0,0,0,337.48,44.44Z" transform="translate(1.48 -1.08)"/><path class="cls-2" d="M348,44.44a6,6,0,0,1-.29,1.89,4.61,4.61,0,0,1-.82,1.48,3.58,3.58,0,0,1-4.33,1,3.63,3.63,0,0,1-1.23-1,4.61,4.61,0,0,1-.82-1.48,6,6,0,0,1-.29-1.89,5.93,5.93,0,0,1,.29-1.88,4.77,4.77,0,0,1,.82-1.49,3.76,3.76,0,0,1,1.23-1,3.52,3.52,0,0,1,3.1,0,3.66,3.66,0,0,1,1.23,1,4.77,4.77,0,0,1,.82,1.49A5.93,5.93,0,0,1,348,44.44Zm-1.07,0a5.17,5.17,0,0,0-.21-1.52,3.77,3.77,0,0,0-.58-1.17,2.7,2.7,0,0,0-.89-.76A2.56,2.56,0,0,0,343,41a2.73,2.73,0,0,0-.9.76,4,4,0,0,0-.58,1.17,5.61,5.61,0,0,0,0,3,3.77,3.77,0,0,0,.58,1.17,2.48,2.48,0,0,0,.9.75,2.54,2.54,0,0,0,3.18-.75,3.56,3.56,0,0,0,.58-1.17A5.12,5.12,0,0,0,347,44.44Z" transform="translate(1.48 -1.08)"/><path class="cls-2" d="M357.52,44.44a5.76,5.76,0,0,1-.3,1.89,4.59,4.59,0,0,1-.81,1.48,3.73,3.73,0,0,1-1.23,1,3.56,3.56,0,0,1-1.55.35,3.49,3.49,0,0,1-1.55-.35,3.67,3.67,0,0,1-1.24-1,4.79,4.79,0,0,1-.81-1.48,5.76,5.76,0,0,1-.29-1.89,5.66,5.66,0,0,1,.29-1.88,5,5,0,0,1,.81-1.49,3.8,3.8,0,0,1,1.24-1,3.37,3.37,0,0,1,1.55-.36,3.43,3.43,0,0,1,1.55.36,3.86,3.86,0,0,1,1.23,1,4.75,4.75,0,0,1,.81,1.49A5.66,5.66,0,0,1,357.52,44.44Zm-1.07,0a5.17,5.17,0,0,0-.21-1.52,4,4,0,0,0-.58-1.17,2.8,2.8,0,0,0-.89-.76,2.58,2.58,0,0,0-2.3,0,2.7,2.7,0,0,0-.89.76,3.77,3.77,0,0,0-.58,1.17,5.61,5.61,0,0,0,0,3,3.56,3.56,0,0,0,.58,1.17,2.45,2.45,0,0,0,.89.75,2.58,2.58,0,0,0,2.3,0,2.54,2.54,0,0,0,.89-.75,3.77,3.77,0,0,0,.58-1.17A5.12,5.12,0,0,0,356.45,44.44Z" transform="translate(1.48 -1.08)"/><path class="cls-2" d="M363.48,39.22V37.67h1.06v1.55Zm0,9.76V40.91h1.06V49Z" transform="translate(1.48 -1.08)"/><path class="cls-2" d="M378.88,49h-1.06V44.47a3.74,3.74,0,0,0-.45-2.07,1.49,1.49,0,0,0-1.33-.67,2.38,2.38,0,0,0-.88.17,2.7,2.7,0,0,0-.76.48,3.46,3.46,0,0,0-1,1.68V49h-1.06V44.47a3.88,3.88,0,0,0-.43-2.09,1.49,1.49,0,0,0-1.33-.65,2.37,2.37,0,0,0-1.63.64,3.43,3.43,0,0,0-1,1.67V49h-1.06V40.91h1v1.83a3.77,3.77,0,0,1,1.31-1.45,3.17,3.17,0,0,1,1.78-.52,2.28,2.28,0,0,1,1.63.57,2.57,2.57,0,0,1,.76,1.51,3.44,3.44,0,0,1,3.11-2.08,2.43,2.43,0,0,1,1.16.25,1.94,1.94,0,0,1,.75.7,3,3,0,0,1,.42,1.1,7,7,0,0,1,.14,1.44Z" transform="translate(1.48 -1.08)"/><path class="cls-2" d="M383.14,49.14a2.81,2.81,0,0,1-1.06-.19,2.73,2.73,0,0,1-.86-.54,2.36,2.36,0,0,1-.56-.8,2.29,2.29,0,0,1-.2-1,2.06,2.06,0,0,1,.24-1,2.33,2.33,0,0,1,.7-.77,3.43,3.43,0,0,1,1.07-.51,4.9,4.9,0,0,1,1.37-.17,7.61,7.61,0,0,1,1.25.1,6.35,6.35,0,0,1,1.13.31v-.73a2.34,2.34,0,0,0-.6-1.69,2.22,2.22,0,0,0-1.68-.63,3.49,3.49,0,0,0-1.27.25,5.84,5.84,0,0,0-1.31.71l-.38-.7a5.49,5.49,0,0,1,3-1,3.27,3.27,0,0,1,2.39.85,3.16,3.16,0,0,1,.87,2.36v3.64c0,.29.13.43.38.43V49a1.78,1.78,0,0,1-.4.05.93.93,0,0,1-.63-.2.75.75,0,0,1-.24-.56l0-.63a3.72,3.72,0,0,1-1.4,1.11A4.28,4.28,0,0,1,383.14,49.14Zm.25-.81A3.61,3.61,0,0,0,384.9,48a2.36,2.36,0,0,0,1-.82.75.75,0,0,0,.21-.3.72.72,0,0,0,.07-.3V45.28a6.51,6.51,0,0,0-1.09-.31,6.34,6.34,0,0,0-1.16-.11,3.22,3.22,0,0,0-1.81.47,1.42,1.42,0,0,0-.7,1.22,1.66,1.66,0,0,0,.15.7,1.74,1.74,0,0,0,.4.56,1.85,1.85,0,0,0,.62.38A1.9,1.9,0,0,0,383.39,48.33Z" transform="translate(1.48 -1.08)"/><path class="cls-2" d="M392.79,49.09a3.24,3.24,0,0,1-1.52-.35,4,4,0,0,1-1.2-.92,4.35,4.35,0,0,1-.78-1.32A4.41,4.41,0,0,1,389,45a4.76,4.76,0,0,1,.27-1.6,4,4,0,0,1,.77-1.34,3.7,3.7,0,0,1,1.19-.92,3.36,3.36,0,0,1,1.52-.34,3.08,3.08,0,0,1,1.8.52,4.77,4.77,0,0,1,1.3,1.31V40.91h.95V49a3.35,3.35,0,0,1-.32,1.48,3.3,3.3,0,0,1-.85,1.07,3.59,3.59,0,0,1-1.26.65,5.08,5.08,0,0,1-1.52.22,4.47,4.47,0,0,1-2.25-.49,4,4,0,0,1-1.38-1.34l.65-.51a2.85,2.85,0,0,0,1.27,1.14,4.1,4.1,0,0,0,1.71.36,3.68,3.68,0,0,0,1.11-.16,2.78,2.78,0,0,0,.92-.48,2.16,2.16,0,0,0,.63-.8,2.58,2.58,0,0,0,.23-1.14v-1.6a3.24,3.24,0,0,1-1.27,1.22A3.4,3.4,0,0,1,392.79,49.09Zm.3-.88A2.62,2.62,0,0,0,394,48a3.14,3.14,0,0,0,.82-.46,3.08,3.08,0,0,0,.61-.64,2,2,0,0,0,.32-.73v-2.5a3.07,3.07,0,0,0-.46-.8,3.38,3.38,0,0,0-.67-.64,3.58,3.58,0,0,0-.8-.42,2.55,2.55,0,0,0-.86-.15,2.41,2.41,0,0,0-1.21.29,2.88,2.88,0,0,0-.91.75,3.13,3.13,0,0,0-.56,1,3.78,3.78,0,0,0-.2,1.2,3.49,3.49,0,0,0,.23,1.24,3.34,3.34,0,0,0,.65,1,3.09,3.09,0,0,0,1,.69A2.72,2.72,0,0,0,393.09,48.21Z" transform="translate(1.48 -1.08)"/><path class="cls-2" d="M402.62,49.14a3.91,3.91,0,0,1-1.62-.33,4.06,4.06,0,0,1-1.28-.92,4.22,4.22,0,0,1-.84-1.34,4.41,4.41,0,0,1-.3-1.63A4.26,4.26,0,0,1,399.71,42a4.17,4.17,0,0,1,1.28-.9,3.92,3.92,0,0,1,4.5.91,4.26,4.26,0,0,1,.82,1.32,4.15,4.15,0,0,1,.29,1.58v.25a.72.72,0,0,1,0,.17h-6.91a3.42,3.42,0,0,0,.3,1.2,3.37,3.37,0,0,0,.66.95,2.9,2.9,0,0,0,.92.63,2.75,2.75,0,0,0,1.11.22,2.91,2.91,0,0,0,.77-.1,3.89,3.89,0,0,0,.72-.3,2.56,2.56,0,0,0,.58-.46,2.09,2.09,0,0,0,.41-.59l.91.24a2.57,2.57,0,0,1-.53.82,3.53,3.53,0,0,1-.79.63,4,4,0,0,1-1,.42A4.22,4.22,0,0,1,402.62,49.14Zm3-4.62a3.13,3.13,0,0,0-.31-1.19,3.19,3.19,0,0,0-.65-.92,2.67,2.67,0,0,0-.91-.6,3,3,0,0,0-3.15.6,3.05,3.05,0,0,0-.63.93,3.53,3.53,0,0,0-.29,1.18Z" transform="translate(1.48 -1.08)"/><path class="cls-2" d="M410.91,49.14a5.51,5.51,0,0,1-1.84-.31,4.49,4.49,0,0,1-1.55-.9l.48-.71a5.06,5.06,0,0,0,1.39.83,4,4,0,0,0,1.51.28,2.77,2.77,0,0,0,1.56-.39,1.31,1.31,0,0,0,.58-1.13.93.93,0,0,0-.16-.56,1.37,1.37,0,0,0-.45-.4,4.3,4.3,0,0,0-.76-.3c-.31-.09-.66-.18-1.07-.27s-.86-.23-1.21-.34a3.29,3.29,0,0,1-.84-.39,1.41,1.41,0,0,1-.5-.53,1.87,1.87,0,0,1-.16-.8,2.31,2.31,0,0,1,.24-1.07,2.21,2.21,0,0,1,.65-.77,3.28,3.28,0,0,1,1-.46,4.47,4.47,0,0,1,1.17-.15,4.54,4.54,0,0,1,1.69.3,3.32,3.32,0,0,1,1.23.8l-.51.62a2.92,2.92,0,0,0-1.1-.7,4,4,0,0,0-1.34-.23,3.13,3.13,0,0,0-.77.09,1.63,1.63,0,0,0-.63.27,1.39,1.39,0,0,0-.43.47,1.44,1.44,0,0,0-.15.67,1,1,0,0,0,.11.53,1,1,0,0,0,.35.35,3.15,3.15,0,0,0,.63.26c.25.08.56.16.92.24.52.13,1,.25,1.37.38a3.89,3.89,0,0,1,1,.43,1.72,1.72,0,0,1,.6.6,1.8,1.8,0,0,1,.2.87,2.1,2.1,0,0,1-.85,1.77A3.74,3.74,0,0,1,410.91,49.14Z" transform="translate(1.48 -1.08)"/><path class="cls-1" d="M289.1,83.9a6.32,6.32,0,0,1,.09-1.06,3.79,3.79,0,0,1,.37-1.07,3.93,3.93,0,0,1,.77-1,5.59,5.59,0,0,1,1.34-.92c.3-.16.61-.31.94-.46a6.39,6.39,0,0,0,.9-.5,2.9,2.9,0,0,0,.67-.63,1.3,1.3,0,0,0,.27-.82,1.52,1.52,0,0,0-.13-.58,1.58,1.58,0,0,0-.39-.51,1.88,1.88,0,0,0-.64-.36,2.41,2.41,0,0,0-.89-.14,2.59,2.59,0,0,0-.91.15,3.12,3.12,0,0,0-.71.34,3.84,3.84,0,0,0-.52.43c-.14.15-.25.27-.32.36l-.7-.75c.06-.07.18-.18.36-.35a3.42,3.42,0,0,1,.69-.49,4.92,4.92,0,0,1,1-.44,4,4,0,0,1,1.28-.2,3.8,3.8,0,0,1,1.27.2,2.82,2.82,0,0,1,1,.53,2.44,2.44,0,0,1,.59.78,2.32,2.32,0,0,1,.2.93,2.07,2.07,0,0,1-.28,1.1,3.14,3.14,0,0,1-.69.8,4.62,4.62,0,0,1-.88.58c-.31.16-.58.3-.83.41s-.66.31-1,.49a5,5,0,0,0-.85.6,3.25,3.25,0,0,0-.61.73,1.73,1.73,0,0,0-.24.9h5.52v1Z" transform="translate(1.48 -1.08)"/><path class="cls-1" d="M302.79,82.94v1h-5.26v-1h2.2V76.3a1.64,1.64,0,0,1-.42.41,6.24,6.24,0,0,1-.67.4,4.93,4.93,0,0,1-.75.31,2.38,2.38,0,0,1-.68.12v-1a2,2,0,0,0,.78-.2,5.78,5.78,0,0,0,.8-.47,6.83,6.83,0,0,0,.65-.49,1.57,1.57,0,0,0,.29-.31h1.09v7.89Z" transform="translate(1.48 -1.08)"/><path class="cls-1" d="M307.42,79.06a3.8,3.8,0,0,1,1.41.26A3.45,3.45,0,0,1,310,80a3.35,3.35,0,0,1,.77,1.11,3.63,3.63,0,0,1,.28,1.42,3.49,3.49,0,0,1-.31,1.49,3.4,3.4,0,0,1-.82,1.15,3.69,3.69,0,0,1-1.21.73,4.1,4.1,0,0,1-1.49.27,4.22,4.22,0,0,1-1.13-.15,3.74,3.74,0,0,1-1-.43,3.66,3.66,0,0,1-.81-.66,3.22,3.22,0,0,1-.6-.87l.7-.53a3.39,3.39,0,0,0,1.18,1.23,3.07,3.07,0,0,0,1.65.46,2.87,2.87,0,0,0,1.07-.19,2.63,2.63,0,0,0,.87-.55,2.52,2.52,0,0,0,.58-.85,2.82,2.82,0,0,0,.21-1.09,2.77,2.77,0,0,0-.2-1,2.4,2.4,0,0,0-.56-.81,2.56,2.56,0,0,0-.83-.53,3,3,0,0,0-1-.18,3,3,0,0,0-1.37.31,2.69,2.69,0,0,0-1.05.93h-1c0-.06,0-.2.08-.42s.09-.48.15-.78.13-.63.21-1l.21-1.1c.18-.87.37-1.84.58-2.9h5.31v1h-4.52l-.76,4a2.74,2.74,0,0,1,1-.68A3.35,3.35,0,0,1,307.42,79.06Z" transform="translate(1.48 -1.08)"/><path class="cls-1" d="M320.21,79.36a5.66,5.66,0,0,1-.3,1.88,4.55,4.55,0,0,1-.81,1.49,3.7,3.7,0,0,1-1.23,1,3.61,3.61,0,0,1-3.1,0,3.51,3.51,0,0,1-1.23-1,4.77,4.77,0,0,1-.82-1.49,5.93,5.93,0,0,1-.29-1.88,6,6,0,0,1,.29-1.89,4.61,4.61,0,0,1,.82-1.48,3.69,3.69,0,0,1,1.23-1,3.52,3.52,0,0,1,3.1,0,3.9,3.9,0,0,1,1.23,1,4.41,4.41,0,0,1,.81,1.48A5.72,5.72,0,0,1,320.21,79.36Zm-1.07,0a5.12,5.12,0,0,0-.21-1.52,3.56,3.56,0,0,0-.58-1.17,2.68,2.68,0,0,0-.89-.76,2.58,2.58,0,0,0-2.3,0,2.68,2.68,0,0,0-.89.76,3.56,3.56,0,0,0-.58,1.17,5.12,5.12,0,0,0-.21,1.52,5.22,5.22,0,0,0,.21,1.52,3.77,3.77,0,0,0,.58,1.17,2.77,2.77,0,0,0,.89.75,2.67,2.67,0,0,0,2.3,0,2.77,2.77,0,0,0,.89-.75,3.77,3.77,0,0,0,.58-1.17A5.22,5.22,0,0,0,319.14,79.36Z" transform="translate(1.48 -1.08)"/><path class="cls-1" d="M329.69,79.36a5.66,5.66,0,0,1-.29,1.88,5,5,0,0,1-.81,1.49,3.64,3.64,0,0,1-1.24,1,3.36,3.36,0,0,1-1.55.35,3.42,3.42,0,0,1-1.55-.35,3.7,3.7,0,0,1-1.23-1,4.55,4.55,0,0,1-.81-1.49,5.66,5.66,0,0,1-.3-1.88,5.72,5.72,0,0,1,.3-1.89A4.41,4.41,0,0,1,323,76a3.9,3.9,0,0,1,1.23-1,3.43,3.43,0,0,1,1.55-.36,3.37,3.37,0,0,1,1.55.36,3.83,3.83,0,0,1,1.24,1,4.79,4.79,0,0,1,.81,1.48A5.72,5.72,0,0,1,329.69,79.36Zm-1.07,0a5.49,5.49,0,0,0-.2-1.52,3.57,3.57,0,0,0-.59-1.17,2.5,2.5,0,0,0-.89-.76,2.4,2.4,0,0,0-1.14-.27,2.44,2.44,0,0,0-1.15.27,2.58,2.58,0,0,0-.89.76,3.56,3.56,0,0,0-.58,1.17,5.12,5.12,0,0,0-.21,1.52,5.22,5.22,0,0,0,.21,1.52,3.77,3.77,0,0,0,.58,1.17,2.66,2.66,0,0,0,.89.75,2.56,2.56,0,0,0,1.15.26,2.52,2.52,0,0,0,1.14-.26,2.57,2.57,0,0,0,.89-.75,3.78,3.78,0,0,0,.59-1.17A5.59,5.59,0,0,0,328.62,79.36Z" transform="translate(1.48 -1.08)"/><path class="cls-1" d="M339.18,79.36a5.93,5.93,0,0,1-.29,1.88,4.77,4.77,0,0,1-.82,1.49,3.6,3.6,0,0,1-1.23,1,3.61,3.61,0,0,1-3.1,0,3.51,3.51,0,0,1-1.23-1,4.77,4.77,0,0,1-.82-1.49,5.93,5.93,0,0,1-.29-1.88,6,6,0,0,1,.29-1.89,4.61,4.61,0,0,1,.82-1.48,3.69,3.69,0,0,1,1.23-1,3.52,3.52,0,0,1,3.1,0,3.79,3.79,0,0,1,1.23,1,4.61,4.61,0,0,1,.82,1.48A6,6,0,0,1,339.18,79.36Zm-1.07,0a5.12,5.12,0,0,0-.21-1.52,3.56,3.56,0,0,0-.58-1.17,2.58,2.58,0,0,0-.89-.76,2.56,2.56,0,0,0-2.29,0,2.62,2.62,0,0,0-.9.76,3.77,3.77,0,0,0-.58,1.17,5.12,5.12,0,0,0-.21,1.52,5.22,5.22,0,0,0,.21,1.52,4,4,0,0,0,.58,1.17,2.7,2.7,0,0,0,.9.75,2.65,2.65,0,0,0,2.29,0,2.66,2.66,0,0,0,.89-.75,3.77,3.77,0,0,0,.58-1.17A5.22,5.22,0,0,0,338.11,79.36Z" transform="translate(1.48 -1.08)"/><path class="cls-2" d="M349,72.89l-7.32,11h-1.19l7.32-11Z" transform="translate(1.48 -1.08)"/><path class="cls-2" d="M349.74,83.9a6.32,6.32,0,0,1,.09-1.06A3.63,3.63,0,0,1,351,80.76a5.4,5.4,0,0,1,1.34-.92c.3-.16.61-.31.94-.46a7.75,7.75,0,0,0,.9-.5,3.12,3.12,0,0,0,.67-.63,1.4,1.4,0,0,0,.13-1.4,1.58,1.58,0,0,0-.39-.51,1.93,1.93,0,0,0-.63-.36,2.41,2.41,0,0,0-.89-.14,2.65,2.65,0,0,0-.92.15,3,3,0,0,0-.7.34,3.31,3.31,0,0,0-.52.43,4.22,4.22,0,0,0-.33.36l-.7-.75.36-.35a4.11,4.11,0,0,1,.69-.49,5.46,5.46,0,0,1,1-.44,4,4,0,0,1,1.29-.2,3.85,3.85,0,0,1,1.27.2,2.68,2.68,0,0,1,.94.53,2.3,2.3,0,0,1,.59.78,2.32,2.32,0,0,1-.07,2,3.14,3.14,0,0,1-.69.8,5,5,0,0,1-.88.58c-.31.16-.59.3-.84.41s-.65.31-1,.49a5.28,5.28,0,0,0-.84.6,3,3,0,0,0-.61.73,1.73,1.73,0,0,0-.24.9h5.52v1Z" transform="translate(1.48 -1.08)"/><path class="cls-2" d="M365.79,80.27a3.66,3.66,0,0,1-.3,1.48,3.74,3.74,0,0,1-.83,1.2,3.92,3.92,0,0,1-1.24.81,4,4,0,0,1-1.53.29,4,4,0,0,1-1.6-.31,3.76,3.76,0,0,1-1.25-.91,4.41,4.41,0,0,1-.81-1.45,5.84,5.84,0,0,1-.29-1.93,12.59,12.59,0,0,1,.29-2.92,6.64,6.64,0,0,1,.83-2.08,3.57,3.57,0,0,1,1.28-1.23,3.4,3.4,0,0,1,1.66-.4,3.61,3.61,0,0,1,2,.54,3.44,3.44,0,0,1,1.32,1.5l-.68.62a2.76,2.76,0,0,0-1-1.26,2.72,2.72,0,0,0-1.58-.47,2.36,2.36,0,0,0-1.24.32,2.87,2.87,0,0,0-1,.94,5.12,5.12,0,0,0-.62,1.51,8.42,8.42,0,0,0-.22,2,3,3,0,0,1,1.17-1.46,3.36,3.36,0,0,1,1.88-.54,3.83,3.83,0,0,1,1.48.29,3.63,3.63,0,0,1,1.2.79,3.76,3.76,0,0,1,.81,1.18A3.59,3.59,0,0,1,365.79,80.27Zm-3.87,2.85A2.78,2.78,0,0,0,363,82.9a3.16,3.16,0,0,0,.91-.61,2.88,2.88,0,0,0,.62-.91,2.79,2.79,0,0,0,.23-1.11,2.64,2.64,0,0,0-.24-1.11,2.84,2.84,0,0,0-.62-.9,3,3,0,0,0-.92-.62,2.72,2.72,0,0,0-1.11-.22,2.78,2.78,0,0,0-1.11.22,3,3,0,0,0-.91.62,2.84,2.84,0,0,0-.62.9,2.78,2.78,0,0,0-.22,1.11,2.55,2.55,0,0,0,.23,1.1,3,3,0,0,0,.63.91,2.88,2.88,0,0,0,.91.62A2.78,2.78,0,0,0,361.92,83.12Z" transform="translate(1.48 -1.08)"/><path class="cls-2" d="M374.89,80.84a2.67,2.67,0,0,1-.31,1.31,3,3,0,0,1-.84,1,3.8,3.8,0,0,1-1.23.65A4.82,4.82,0,0,1,371,84a4.41,4.41,0,0,1-1.52-.25,4,4,0,0,1-1.2-.7,3.38,3.38,0,0,1-.78-1,2.83,2.83,0,0,1-.28-1.26,2.4,2.4,0,0,1,.19-1A2.87,2.87,0,0,1,368,79a3.41,3.41,0,0,1,.7-.61,3.68,3.68,0,0,1,.8-.39,3.64,3.64,0,0,1-.7-.38,3.12,3.12,0,0,1-.57-.52,2.42,2.42,0,0,1-.4-.65,2.14,2.14,0,0,1-.14-.76,2.23,2.23,0,0,1,.31-1.2,2.8,2.8,0,0,1,.8-.88,3.42,3.42,0,0,1,1.1-.54,4,4,0,0,1,1.23-.19,4,4,0,0,1,1.23.19,3.62,3.62,0,0,1,1.1.53,2.93,2.93,0,0,1,.8.88,2.27,2.27,0,0,1,.31,1.19,1.94,1.94,0,0,1-.15.76,2.48,2.48,0,0,1-.4.66,3,3,0,0,1-.59.53,4,4,0,0,1-.7.38,3.73,3.73,0,0,1,.85.42,3.53,3.53,0,0,1,.7.63,3,3,0,0,1,.48.81A2.58,2.58,0,0,1,374.89,80.84Zm-1.07-.07a1.92,1.92,0,0,0-.25-1,2.34,2.34,0,0,0-.65-.72,3.45,3.45,0,0,0-.9-.45,3.32,3.32,0,0,0-1-.15,3.06,3.06,0,0,0-1.86.62,2.31,2.31,0,0,0-.62.74,2.1,2.1,0,0,0,0,1.93,2.25,2.25,0,0,0,.65.72,2.72,2.72,0,0,0,.88.45,3,3,0,0,0,2,0,2.69,2.69,0,0,0,.87-.46,2.45,2.45,0,0,0,.63-.73A1.89,1.89,0,0,0,373.82,80.77Zm-5.13-5a1.44,1.44,0,0,0,.22.8,1.86,1.86,0,0,0,.56.59,2.69,2.69,0,0,0,.76.37,3.08,3.08,0,0,0,.83.12,3,3,0,0,0,.84-.12,2.64,2.64,0,0,0,.77-.38,1.89,1.89,0,0,0,.56-.6,1.49,1.49,0,0,0,.22-.81,1.56,1.56,0,0,0-.2-.78,1.9,1.9,0,0,0-.54-.59A2.32,2.32,0,0,0,372,74a3.38,3.38,0,0,0-.9-.13,2.94,2.94,0,0,0-.88.14,2.39,2.39,0,0,0-.75.37,2,2,0,0,0-.53.59A1.66,1.66,0,0,0,368.69,75.74Z" transform="translate(1.48 -1.08)"/><path class="cls-2" d="M384.3,79.36a5.93,5.93,0,0,1-.29,1.88,4.77,4.77,0,0,1-.82,1.49,3.6,3.6,0,0,1-1.23,1,3.61,3.61,0,0,1-3.1,0,3.51,3.51,0,0,1-1.23-1,4.77,4.77,0,0,1-.82-1.49,5.93,5.93,0,0,1-.29-1.88,6,6,0,0,1,.29-1.89,4.61,4.61,0,0,1,.82-1.48,3.69,3.69,0,0,1,1.23-1,3.52,3.52,0,0,1,3.1,0,3.79,3.79,0,0,1,1.23,1,4.61,4.61,0,0,1,.82,1.48A6,6,0,0,1,384.3,79.36Zm-1.07,0a5.12,5.12,0,0,0-.21-1.52,3.56,3.56,0,0,0-.58-1.17,2.58,2.58,0,0,0-.89-.76,2.56,2.56,0,0,0-2.29,0,2.62,2.62,0,0,0-.9.76,3.77,3.77,0,0,0-.58,1.17,5.12,5.12,0,0,0-.21,1.52,5.22,5.22,0,0,0,.21,1.52,4,4,0,0,0,.58,1.17,2.7,2.7,0,0,0,.9.75,2.65,2.65,0,0,0,2.29,0,2.66,2.66,0,0,0,.89-.75,3.77,3.77,0,0,0,.58-1.17A5.22,5.22,0,0,0,383.23,79.36Z" transform="translate(1.48 -1.08)"/><path class="cls-2" d="M393.79,79.36a5.66,5.66,0,0,1-.3,1.88,4.75,4.75,0,0,1-.81,1.49,3.7,3.7,0,0,1-1.23,1,3.42,3.42,0,0,1-1.55.35,3.36,3.36,0,0,1-1.55-.35,3.64,3.64,0,0,1-1.24-1,5,5,0,0,1-.81-1.49,5.66,5.66,0,0,1-.29-1.88,5.72,5.72,0,0,1,.29-1.89,4.79,4.79,0,0,1,.81-1.48,3.83,3.83,0,0,1,1.24-1,3.37,3.37,0,0,1,1.55-.36,3.43,3.43,0,0,1,1.55.36,3.9,3.9,0,0,1,1.23,1,4.59,4.59,0,0,1,.81,1.48A5.72,5.72,0,0,1,393.79,79.36Zm-1.07,0a5.12,5.12,0,0,0-.21-1.52,3.77,3.77,0,0,0-.58-1.17,2.62,2.62,0,0,0-.9-.76,2.39,2.39,0,0,0-1.13-.27,2.48,2.48,0,0,0-1.16.27,2.58,2.58,0,0,0-.89.76,3.56,3.56,0,0,0-.58,1.17,5.12,5.12,0,0,0-.21,1.52,5.22,5.22,0,0,0,.21,1.52,3.77,3.77,0,0,0,.58,1.17,2.66,2.66,0,0,0,.89.75,2.6,2.6,0,0,0,1.16.26A2.5,2.5,0,0,0,391,82.8a2.7,2.7,0,0,0,.9-.75,4,4,0,0,0,.58-1.17A5.22,5.22,0,0,0,392.72,79.36Z" transform="translate(1.48 -1.08)"/><path class="cls-2" d="M403.27,79.36a5.93,5.93,0,0,1-.29,1.88,4.77,4.77,0,0,1-.82,1.49,3.51,3.51,0,0,1-1.23,1,3.61,3.61,0,0,1-3.1,0,3.7,3.7,0,0,1-1.23-1,4.55,4.55,0,0,1-.81-1.49,5.66,5.66,0,0,1-.3-1.88,5.72,5.72,0,0,1,.3-1.89A4.41,4.41,0,0,1,396.6,76a3.9,3.9,0,0,1,1.23-1,3.52,3.52,0,0,1,3.1,0,3.69,3.69,0,0,1,1.23,1,4.61,4.61,0,0,1,.82,1.48A6,6,0,0,1,403.27,79.36Zm-1.07,0a5.12,5.12,0,0,0-.21-1.52,3.56,3.56,0,0,0-.58-1.17,2.58,2.58,0,0,0-.89-.76,2.4,2.4,0,0,0-1.14-.27,2.44,2.44,0,0,0-1.15.27,2.5,2.5,0,0,0-.89.76,3.57,3.57,0,0,0-.59,1.17,5.49,5.49,0,0,0-.2,1.52,5.59,5.59,0,0,0,.2,1.52,3.78,3.78,0,0,0,.59,1.17,2.47,2.47,0,0,0,2,1,2.52,2.52,0,0,0,1.14-.26,2.66,2.66,0,0,0,.89-.75,3.77,3.77,0,0,0,.58-1.17A5.22,5.22,0,0,0,402.2,79.36Z" transform="translate(1.48 -1.08)"/><path class="cls-2" d="M413.11,83.51l-.27.12a2.7,2.7,0,0,1-.41.16,4.81,4.81,0,0,1-.52.14,3.18,3.18,0,0,1-.62.06,2.39,2.39,0,0,1-.66-.09,1.57,1.57,0,0,1-.54-.29,1.41,1.41,0,0,1-.37-.49,1.59,1.59,0,0,1-.14-.68V76.66h-1.12v-.84h1.12V73.09h1.05v2.73h1.86v.84h-1.86v5.49a.87.87,0,0,0,.32.66,1.08,1.08,0,0,0,.66.2,2,2,0,0,0,.79-.14l.44-.21Z" transform="translate(1.48 -1.08)"/><path class="cls-2" d="M414.43,74.13V72.58h1.06v1.55Zm0,9.77V75.82h1.06V83.9Z" transform="translate(1.48 -1.08)"/><path class="cls-2" d="M429.82,83.9h-1.05V79.39a3.78,3.78,0,0,0-.45-2.08,1.51,1.51,0,0,0-1.33-.67,2.34,2.34,0,0,0-.88.17,3,3,0,0,0-.76.48,3.46,3.46,0,0,0-1,1.68V83.9h-1.06V79.39a3.92,3.92,0,0,0-.43-2.1,1.51,1.51,0,0,0-1.33-.65,2.39,2.39,0,0,0-1.63.64,3.52,3.52,0,0,0-1,1.67v5h-1.05V75.82h1v1.83a3.9,3.9,0,0,1,1.3-1.45,3.31,3.31,0,0,1,1.79-.52,2.26,2.26,0,0,1,1.63.58,2.45,2.45,0,0,1,.75,1.5,3.48,3.48,0,0,1,3.12-2.08,2.51,2.51,0,0,1,1.15.25,1.92,1.92,0,0,1,.76.71,3.32,3.32,0,0,1,.42,1.1,7,7,0,0,1,.13,1.43Z" transform="translate(1.48 -1.08)"/><path class="cls-2" d="M435.54,84.05a3.91,3.91,0,0,1-1.62-.33,4.15,4.15,0,0,1-1.28-.91,4.27,4.27,0,0,1-.84-1.35,4.5,4.5,0,0,1,0-3.23,4.13,4.13,0,0,1,.84-1.32,4,4,0,0,1,1.27-.89,3.83,3.83,0,0,1,1.62-.34,3.76,3.76,0,0,1,1.62.34,3.82,3.82,0,0,1,1.26.9,4.37,4.37,0,0,1,.82,1.32,4.19,4.19,0,0,1,.3,1.58v.25a.59.59,0,0,1,0,.17H432.6a3.42,3.42,0,0,0,.3,1.2,3.1,3.1,0,0,0,.66,1,2.9,2.9,0,0,0,.92.63,2.79,2.79,0,0,0,1.11.23,3.09,3.09,0,0,0,1.49-.41,2.8,2.8,0,0,0,.59-.45,2,2,0,0,0,.4-.6L439,82a2.67,2.67,0,0,1-.52.81,3.82,3.82,0,0,1-.79.64,3.9,3.9,0,0,1-1,.42A4.66,4.66,0,0,1,435.54,84.05Zm3-4.62a3.21,3.21,0,0,0-.3-1.18,3.11,3.11,0,0,0-.65-.92,3,3,0,0,0-.92-.61,2.93,2.93,0,0,0-3.15.61,2.83,2.83,0,0,0-.63.93,3.47,3.47,0,0,0-.29,1.17Z" transform="translate(1.48 -1.08)"/><path class="cls-2" d="M443.84,84.05a5.53,5.53,0,0,1-1.85-.31,4.19,4.19,0,0,1-1.55-.9l.48-.71a5.54,5.54,0,0,0,1.39.84,4.18,4.18,0,0,0,1.51.28,2.69,2.69,0,0,0,1.56-.4,1.29,1.29,0,0,0,.58-1.12.94.94,0,0,0-.16-.57,1.25,1.25,0,0,0-.45-.39,3.63,3.63,0,0,0-.76-.31l-1.06-.27a11.7,11.7,0,0,1-1.21-.34,3.21,3.21,0,0,1-.85-.39,1.3,1.3,0,0,1-.49-.53,1.72,1.72,0,0,1-.17-.8,2.31,2.31,0,0,1,.24-1.07,2.18,2.18,0,0,1,.65-.76,2.85,2.85,0,0,1,1-.46,4.48,4.48,0,0,1,1.18-.16,4.33,4.33,0,0,1,1.68.31,3.31,3.31,0,0,1,1.23.79l-.51.62a2.78,2.78,0,0,0-1.1-.69,3.75,3.75,0,0,0-1.34-.24,3.19,3.19,0,0,0-.77.09,2,2,0,0,0-.63.27,1.39,1.39,0,0,0-.43.47,1.45,1.45,0,0,0-.15.68,1.11,1.11,0,0,0,.11.52.9.9,0,0,0,.35.35,3.13,3.13,0,0,0,.63.27l.93.24c.51.12,1,.24,1.36.37a4.29,4.29,0,0,1,1,.43,1.66,1.66,0,0,1,.6.61,1.74,1.74,0,0,1,.2.86,2.09,2.09,0,0,1-.85,1.77A3.64,3.64,0,0,1,443.84,84.05Z" transform="translate(1.48 -1.08)"/><path class="cls-1" d="M294.68,116.63v1h-5.25v-1h2.2V110a1.9,1.9,0,0,1-.43.41,5.93,5.93,0,0,1-.67.4,4.93,4.93,0,0,1-.75.31,2.32,2.32,0,0,1-.68.12v-1a1.88,1.88,0,0,0,.78-.2,5.36,5.36,0,0,0,.81-.47,6.59,6.59,0,0,0,.64-.49,1.44,1.44,0,0,0,.3-.31h1.08v7.89Z" transform="translate(1.48 -1.08)"/><path class="cls-1" d="M295.7,117.59a5.44,5.44,0,0,1,.1-1.06,3.75,3.75,0,0,1,.36-1.07,3.93,3.93,0,0,1,.77-1,5.67,5.67,0,0,1,1.35-.92c.3-.16.61-.31.93-.46a6.39,6.39,0,0,0,.9-.5,3,3,0,0,0,.68-.63,1.38,1.38,0,0,0,.26-.82,1.36,1.36,0,0,0-.13-.58,1.58,1.58,0,0,0-.39-.51,1.93,1.93,0,0,0-.63-.36,2.47,2.47,0,0,0-.9-.14,2.85,2.85,0,0,0-.91.14,3.91,3.91,0,0,0-.71.35,3.2,3.2,0,0,0-.51.43,4.22,4.22,0,0,0-.33.36l-.7-.76.36-.34a3.42,3.42,0,0,1,.69-.49,4.63,4.63,0,0,1,1-.44,4,4,0,0,1,1.28-.2,3.91,3.91,0,0,1,1.28.2,2.62,2.62,0,0,1,.94.53,2.23,2.23,0,0,1,.79,1.71,2,2,0,0,1-.28,1.09,2.83,2.83,0,0,1-.69.81,4.55,4.55,0,0,1-.87.58c-.31.16-.59.3-.84.41s-.65.31-1,.49a4.86,4.86,0,0,0-.84.6,3,3,0,0,0-.62.73,1.73,1.73,0,0,0-.24.9h5.52v1Z" transform="translate(1.48 -1.08)"/><path class="cls-1" d="M311.51,114.53a2.67,2.67,0,0,1-.31,1.31,3.07,3.07,0,0,1-.83,1,4,4,0,0,1-1.24.65,4.82,4.82,0,0,1-1.48.22,4.22,4.22,0,0,1-1.52-.26,3.93,3.93,0,0,1-1.2-.69,3.38,3.38,0,0,1-.78-1,2.87,2.87,0,0,1-.28-1.26,2.45,2.45,0,0,1,.2-1,2.59,2.59,0,0,1,.5-.79,3.37,3.37,0,0,1,.7-.61,3.68,3.68,0,0,1,.8-.39,4.28,4.28,0,0,1-.7-.38,3.52,3.52,0,0,1-.57-.52,2.55,2.55,0,0,1-.39-.65,1.94,1.94,0,0,1-.15-.76,2.23,2.23,0,0,1,.31-1.2,2.93,2.93,0,0,1,.8-.88,3.42,3.42,0,0,1,1.1-.54,4.08,4.08,0,0,1,2.46,0,3.62,3.62,0,0,1,1.1.53,2.81,2.81,0,0,1,.8.88,2.27,2.27,0,0,1,.31,1.19,1.94,1.94,0,0,1-.15.76,2.24,2.24,0,0,1-.4.66,3,3,0,0,1-.59.53,4.74,4.74,0,0,1-.7.38,3.54,3.54,0,0,1,.85.42,3.25,3.25,0,0,1,.7.63,2.76,2.76,0,0,1,.66,1.78Zm-1.07-.07a2,2,0,0,0-.24-1,2.51,2.51,0,0,0-.66-.72,2.77,2.77,0,0,0-.89-.45,3.43,3.43,0,0,0-1-.15,3.06,3.06,0,0,0-1.86.62,2.31,2.31,0,0,0-.62.74,2.1,2.1,0,0,0,0,1.93,2.48,2.48,0,0,0,.65.72,2.82,2.82,0,0,0,.88.45,3.36,3.36,0,0,0,1,.16,3.06,3.06,0,0,0,1-.17,3,3,0,0,0,.88-.46,2.56,2.56,0,0,0,.62-.73A1.92,1.92,0,0,0,310.44,114.46Zm-5.13-5a1.52,1.52,0,0,0,.22.8,2,2,0,0,0,.56.59,2.75,2.75,0,0,0,.77.37,3,3,0,0,0,.82.12,3,3,0,0,0,.84-.12,2.64,2.64,0,0,0,.77-.38,1.89,1.89,0,0,0,.56-.6,1.49,1.49,0,0,0,.22-.81,1.56,1.56,0,0,0-.2-.78,1.86,1.86,0,0,0-.53-.59,2.48,2.48,0,0,0-.77-.36,3,3,0,0,0-.9-.13,3.29,3.29,0,0,0-.88.13,2.65,2.65,0,0,0-.75.38,2,2,0,0,0-.53.59A1.63,1.63,0,0,0,305.31,109.43Z" transform="translate(1.48 -1.08)"/><path class="cls-2" d="M321.22,106.58l-7.32,11h-1.19l7.31-11Z" transform="translate(1.48 -1.08)"/><path class="cls-2" d="M327.68,116.63v1h-5.26v-1h2.21V110a1.9,1.9,0,0,1-.43.41,5.93,5.93,0,0,1-.67.4,4.93,4.93,0,0,1-.75.31,2.32,2.32,0,0,1-.68.12v-1a1.88,1.88,0,0,0,.78-.2,5.9,5.9,0,0,0,.81-.47,6.59,6.59,0,0,0,.64-.49,1.79,1.79,0,0,0,.3-.31h1.08v7.89Z" transform="translate(1.48 -1.08)"/><path class="cls-2" d="M328.7,117.59a6.32,6.32,0,0,1,.09-1.06,4.13,4.13,0,0,1,.37-1.07,3.93,3.93,0,0,1,.77-1,5.8,5.8,0,0,1,1.34-.92c.3-.16.62-.31.94-.46a6.39,6.39,0,0,0,.9-.5,3,3,0,0,0,.68-.63,1.38,1.38,0,0,0,.26-.82,1.36,1.36,0,0,0-.13-.58,1.58,1.58,0,0,0-.39-.51,1.88,1.88,0,0,0-.64-.36,2.41,2.41,0,0,0-.89-.14,2.85,2.85,0,0,0-.91.14,3.91,3.91,0,0,0-.71.35,3.84,3.84,0,0,0-.52.43c-.14.15-.25.27-.32.36l-.7-.76.36-.34a3.42,3.42,0,0,1,.69-.49,4.42,4.42,0,0,1,1-.44,4,4,0,0,1,1.28-.2,3.8,3.8,0,0,1,1.27.2,2.58,2.58,0,0,1,.95.53,2.23,2.23,0,0,1,.79,1.71,2,2,0,0,1-.28,1.09,2.83,2.83,0,0,1-.69.81,4.55,4.55,0,0,1-.87.58c-.31.16-.59.3-.84.41s-.65.31-1,.49a4.86,4.86,0,0,0-.84.6,3,3,0,0,0-.62.73,1.73,1.73,0,0,0-.24.9h5.52v1Z" transform="translate(1.48 -1.08)"/><path class="cls-2" d="M344.51,114.53a2.67,2.67,0,0,1-.31,1.31,3.07,3.07,0,0,1-.83,1,4,4,0,0,1-1.24.65,4.82,4.82,0,0,1-1.48.22,4.19,4.19,0,0,1-1.52-.26,3.93,3.93,0,0,1-1.2-.69,3.38,3.38,0,0,1-.78-1,2.87,2.87,0,0,1-.28-1.26,2.45,2.45,0,0,1,.19-1,2.82,2.82,0,0,1,.51-.79,3.13,3.13,0,0,1,.7-.61,3.68,3.68,0,0,1,.8-.39,4.28,4.28,0,0,1-.7-.38,3.52,3.52,0,0,1-.57-.52,2.55,2.55,0,0,1-.39-.65,1.94,1.94,0,0,1-.15-.76,2.23,2.23,0,0,1,.31-1.2,2.8,2.8,0,0,1,.8-.88,3.42,3.42,0,0,1,1.1-.54,4,4,0,0,1,1.23-.19,4,4,0,0,1,1.23.19,3.62,3.62,0,0,1,1.1.53,2.81,2.81,0,0,1,.8.88,2.27,2.27,0,0,1,.31,1.19,1.94,1.94,0,0,1-.15.76,2.48,2.48,0,0,1-.4.66,3,3,0,0,1-.59.53,4.74,4.74,0,0,1-.7.38,3.54,3.54,0,0,1,.85.42,3.25,3.25,0,0,1,.7.63,3,3,0,0,1,.48.81A2.58,2.58,0,0,1,344.51,114.53Zm-1.07-.07a1.89,1.89,0,0,0-.25-1,2.34,2.34,0,0,0-.65-.72,2.92,2.92,0,0,0-.9-.45,3.32,3.32,0,0,0-1-.15,3.06,3.06,0,0,0-1.86.62,2.31,2.31,0,0,0-.62.74,2.1,2.1,0,0,0,0,1.93,2.48,2.48,0,0,0,.65.72,2.72,2.72,0,0,0,.88.45,3.35,3.35,0,0,0,1,.16,3.08,3.08,0,0,0,1-.17,2.9,2.9,0,0,0,.87-.46,2.45,2.45,0,0,0,.63-.73A1.92,1.92,0,0,0,343.44,114.46Zm-5.13-5a1.44,1.44,0,0,0,.22.8,2,2,0,0,0,.56.59,2.69,2.69,0,0,0,.76.37,3.08,3.08,0,0,0,.83.12,3,3,0,0,0,.84-.12,2.64,2.64,0,0,0,.77-.38,1.89,1.89,0,0,0,.56-.6,1.49,1.49,0,0,0,.22-.81,1.56,1.56,0,0,0-.2-.78,1.9,1.9,0,0,0-.54-.59,2.32,2.32,0,0,0-.76-.36,3,3,0,0,0-.9-.13,3.29,3.29,0,0,0-.88.13,2.65,2.65,0,0,0-.75.38,2,2,0,0,0-.53.59A1.63,1.63,0,0,0,338.31,109.43Z" transform="translate(1.48 -1.08)"/><path class="cls-2" d="M354.52,117.74a3.14,3.14,0,0,1-1.8-.52,4,4,0,0,1-1.26-1.31v5H350.4V109.51h1v1.57a4,4,0,0,1,1.28-1.24,3.34,3.34,0,0,1,1.72-.47,3.45,3.45,0,0,1,1.54.35,3.92,3.92,0,0,1,1.21.93,4.5,4.5,0,0,1,.8,1.34,4.44,4.44,0,0,1,.28,1.57,5,5,0,0,1-.26,1.61,4.22,4.22,0,0,1-.75,1.33,3.7,3.7,0,0,1-1.17.91A3.28,3.28,0,0,1,354.52,117.74Zm-.29-.93a2.52,2.52,0,0,0,1.19-.28,2.93,2.93,0,0,0,.91-.73,3.31,3.31,0,0,0,.58-1,3.52,3.52,0,0,0,.2-1.2,3.39,3.39,0,0,0-.87-2.28,2.79,2.79,0,0,0-.95-.71,2.62,2.62,0,0,0-1.18-.27,2.7,2.7,0,0,0-.85.16,3.6,3.6,0,0,0-.82.44,3,3,0,0,0-.65.63,1.74,1.74,0,0,0-.33.77v2.48a3.64,3.64,0,0,0,.47.81,3.3,3.3,0,0,0,1.43,1.07A2.57,2.57,0,0,0,354.23,116.81Z" transform="translate(1.48 -1.08)"/><path class="cls-2" d="M359.83,109.51l2.41,3.16.13.24.12-.24,2.42-3.16H366L363,113.57l3.08,4h-1.13l-2.42-3.15-.12-.22-.13.22-2.41,3.15h-1.14l3.09-4-3.09-4.06Z" transform="translate(1.48 -1.08)"/><path class="cls-3" d="M167.28,7.62a3,3,0,0,0-1.12-.76,3.94,3.94,0,0,0-1.58-.3,3,3,0,0,0-1.91.5,1.65,1.65,0,0,0-.6,1.34,1.55,1.55,0,0,0,.16.73,1.38,1.38,0,0,0,.5.49,3.79,3.79,0,0,0,.85.37q.53.15,1.23.3a12.73,12.73,0,0,1,1.43.38,4.17,4.17,0,0,1,1.08.52A2.24,2.24,0,0,1,168,12a2.28,2.28,0,0,1,.24,1.11,2.45,2.45,0,0,1-.27,1.18,2.29,2.29,0,0,1-.74.84,3.37,3.37,0,0,1-1.12.49,6.28,6.28,0,0,1-5.4-1.27l.49-.8a3,3,0,0,0,.63.53,4.28,4.28,0,0,0,.82.44,4.77,4.77,0,0,0,1,.29,5.34,5.34,0,0,0,1.08.11,3.35,3.35,0,0,0,1.85-.43,1.42,1.42,0,0,0,.66-1.28,1.49,1.49,0,0,0-.19-.77,1.73,1.73,0,0,0-.56-.55,4.36,4.36,0,0,0-.94-.39c-.37-.12-.8-.23-1.29-.34s-1-.24-1.36-.37a3.52,3.52,0,0,1-1-.49,1.94,1.94,0,0,1-.61-.7,2.36,2.36,0,0,1-.2-1,2.84,2.84,0,0,1,.26-1.22,2.51,2.51,0,0,1,.73-.89,3.82,3.82,0,0,1,1.11-.54,5.24,5.24,0,0,1,1.42-.19,4.81,4.81,0,0,1,1.76.3,4.75,4.75,0,0,1,1.4.84Z" transform="translate(1.48 -1.08)"/><path class="cls-3" d="M172.84,5.77h.82l4.1,9.88h-1l-1.28-3.09H171l-1.27,3.09h-1Zm2.39,6-2-4.88-2,4.88Z" transform="translate(1.48 -1.08)"/><path class="cls-3" d="M185.82,14.78v.87h-6.64V5.77h6.51v.86h-5.54v3.56H185V11h-4.83v3.76Z" transform="translate(1.48 -1.08)"/><path class="cls-3" d="M195.44,5.77v9.88h-1V11h-5.86v4.62h-1V5.77h1v4.4h5.86V5.77Z" transform="translate(1.48 -1.08)"/><path class="cls-3" d="M197.92,15.65V5.77h3.35a5.08,5.08,0,0,1,2.06.39,4.22,4.22,0,0,1,1.48,1.06,4.45,4.45,0,0,1,.89,1.56,6,6,0,0,1,.3,1.92,5.88,5.88,0,0,1-.34,2,4.39,4.39,0,0,1-.95,1.56,4.16,4.16,0,0,1-1.49,1,5.06,5.06,0,0,1-1.95.36Zm7.1-5a5,5,0,0,0-.25-1.64A3.9,3.9,0,0,0,204,7.77a3.31,3.31,0,0,0-1.17-.84,4,4,0,0,0-1.6-.3h-2.38v8.15h2.38a3.94,3.94,0,0,0,1.62-.31,3.18,3.18,0,0,0,1.17-.86,3.71,3.71,0,0,0,.72-1.29A5.29,5.29,0,0,0,205,10.7Z" transform="translate(1.48 -1.08)"/><rect class="cls-4" x="158.08" y="0.54" width="53.51" height="18.21"/><path class="cls-3" d="M48,140.92H43.36v11.75H42.09V140.92H37.51V139.8H48Z" transform="translate(1.48 -1.08)"/><path class="cls-3" d="M52.34,144.31a4,4,0,0,0-2.18.69,3.48,3.48,0,0,0-1.3,1.8v5.87H47.63v-9.45h1.16v2.27a4.32,4.32,0,0,1,1.41-1.7,3.29,3.29,0,0,1,1.9-.62l.24,0Z" transform="translate(1.48 -1.08)"/><path class="cls-3" d="M56.24,152.85a3.33,3.33,0,0,1-1.24-.22,3,3,0,0,1-1-.63,2.83,2.83,0,0,1-.9-2.08,2.37,2.37,0,0,1,.29-1.15,2.81,2.81,0,0,1,.82-.9,3.91,3.91,0,0,1,1.25-.59,5.74,5.74,0,0,1,1.6-.21,8.08,8.08,0,0,1,1.46.13,6,6,0,0,1,1.33.36v-.85a2.75,2.75,0,0,0-.71-2,2.58,2.58,0,0,0-2-.73,4,4,0,0,0-1.48.29,7.12,7.12,0,0,0-1.55.83l-.43-.82a6.37,6.37,0,0,1,3.55-1.23,3.81,3.81,0,0,1,2.8,1,3.69,3.69,0,0,1,1,2.75v4.27c0,.33.15.5.45.5v1.09a2.59,2.59,0,0,1-.47.06,1,1,0,0,1-.73-.24.86.86,0,0,1-.28-.65l0-.75a4.21,4.21,0,0,1-1.64,1.31A5.09,5.09,0,0,1,56.24,152.85Zm.29-.94a4.31,4.31,0,0,0,1.77-.36,2.85,2.85,0,0,0,1.22-1,1.23,1.23,0,0,0,.25-.36.93.93,0,0,0,.08-.35v-1.54a6.94,6.94,0,0,0-1.28-.36,6.72,6.72,0,0,0-1.35-.13,3.77,3.77,0,0,0-2.12.54,1.64,1.64,0,0,0-.82,1.43,2,2,0,0,0,.17.82,2.26,2.26,0,0,0,.47.66,2.2,2.2,0,0,0,.72.45A2.38,2.38,0,0,0,56.53,151.91Z" transform="translate(1.48 -1.08)"/><path class="cls-3" d="M63.75,141.25v-1.82H65v1.82Zm0,11.42v-9.45H65v9.45Z" transform="translate(1.48 -1.08)"/><path class="cls-3" d="M75.64,152.67H74.41V147.4a4.6,4.6,0,0,0-.5-2.45,1.7,1.7,0,0,0-1.53-.77,3.22,3.22,0,0,0-1.09.2,3.75,3.75,0,0,0-1,.57,4.48,4.48,0,0,0-.82.86,3.4,3.4,0,0,0-.53,1.08v5.78H67.7v-9.45h1.12v2.14a4.41,4.41,0,0,1,1.66-1.66,4.51,4.51,0,0,1,2.35-.64,2.87,2.87,0,0,1,1.33.29,2.28,2.28,0,0,1,.87.82,4,4,0,0,1,.47,1.28,9.7,9.7,0,0,1,.14,1.69Z" transform="translate(1.48 -1.08)"/><path class="cls-3" d="M78.27,141.25v-1.82h1.24v1.82Zm0,11.42v-9.45h1.24v9.45Z" transform="translate(1.48 -1.08)"/><path class="cls-3" d="M90.17,152.67H88.93V147.4a4.61,4.61,0,0,0-.49-2.45,1.73,1.73,0,0,0-1.54-.77,3.17,3.17,0,0,0-1.08.2,3.6,3.6,0,0,0-1,.57,4.52,4.52,0,0,0-.83.86,3.37,3.37,0,0,0-.52,1.08v5.78H82.22v-9.45h1.13v2.14A4.41,4.41,0,0,1,85,143.7a4.49,4.49,0,0,1,2.35-.64,2.8,2.8,0,0,1,1.32.29,2.28,2.28,0,0,1,.87.82,3.59,3.59,0,0,1,.47,1.28,8.78,8.78,0,0,1,.15,1.69Z" transform="translate(1.48 -1.08)"/><path class="cls-3" d="M96.59,152.8a3.93,3.93,0,0,1-1.79-.41,4.61,4.61,0,0,1-1.4-1.08A5.16,5.16,0,0,1,92.16,148a5.62,5.62,0,0,1,.32-1.88,4.77,4.77,0,0,1,.9-1.57,4.38,4.38,0,0,1,1.38-1.07,4,4,0,0,1,1.79-.4,3.58,3.58,0,0,1,2.1.61,5.71,5.71,0,0,1,1.53,1.53v-2h1.1v9.49a3.83,3.83,0,0,1-.37,1.73,3.75,3.75,0,0,1-1,1.26,4.14,4.14,0,0,1-1.46.76,6.2,6.2,0,0,1-1.79.26,5.26,5.26,0,0,1-2.63-.58,4.63,4.63,0,0,1-1.61-1.56l.76-.6a3.39,3.39,0,0,0,1.48,1.33,4.82,4.82,0,0,0,2,.43,4.71,4.71,0,0,0,1.31-.19A3.14,3.14,0,0,0,99,155a2.56,2.56,0,0,0,.74-.94,3.07,3.07,0,0,0,.27-1.33v-1.87a3.94,3.94,0,0,1-1.49,1.43A4,4,0,0,1,96.59,152.8Zm.34-1a3.07,3.07,0,0,0,1.07-.2,3.55,3.55,0,0,0,1-.54,3.19,3.19,0,0,0,.72-.75,2.37,2.37,0,0,0,.38-.85v-2.92a3.59,3.59,0,0,0-.54-.95,3.9,3.9,0,0,0-.78-.74,3.66,3.66,0,0,0-.94-.49,2.94,2.94,0,0,0-1-.18,3,3,0,0,0-1.43.33,3.61,3.61,0,0,0-1.06.88,4,4,0,0,0-.66,1.24,4.45,4.45,0,0,0-.23,1.39,3.81,3.81,0,0,0,2.14,3.48A3.23,3.23,0,0,0,96.93,151.77Z" transform="translate(1.48 -1.08)"/><path class="cls-3" d="M117.51,140.92h-4.58v11.75h-1.27V140.92h-4.59V139.8h10.44Z" transform="translate(1.48 -1.08)"/><path class="cls-3" d="M119.18,141.25v-1.82h1.24v1.82Zm0,11.42v-9.45h1.24v9.45Z" transform="translate(1.48 -1.08)"/><path class="cls-3" d="M137.19,152.67H136V147.4a4.4,4.4,0,0,0-.53-2.43,1.77,1.77,0,0,0-1.56-.79,2.69,2.69,0,0,0-1,.2,3.14,3.14,0,0,0-.89.57,3.78,3.78,0,0,0-.72.86,4,4,0,0,0-.47,1.1v5.76h-1.23V147.4A4.5,4.5,0,0,0,129,145a1.75,1.75,0,0,0-1.56-.77,2.78,2.78,0,0,0-1.91.75,4.14,4.14,0,0,0-1.19,2v5.78h-1.24v-9.45h1.13v2.14a4.46,4.46,0,0,1,1.52-1.69,3.76,3.76,0,0,1,2.09-.61,2.67,2.67,0,0,1,1.91.67,2.94,2.94,0,0,1,.88,1.76,4,4,0,0,1,3.65-2.43,2.93,2.93,0,0,1,1.35.29,2.36,2.36,0,0,1,.89.83,3.79,3.79,0,0,1,.48,1.28,7.92,7.92,0,0,1,.16,1.68Z" transform="translate(1.48 -1.08)"/><path class="cls-3" d="M143.88,152.85a4.57,4.57,0,0,1-3.39-1.46,5.18,5.18,0,0,1-1-5.35,4.93,4.93,0,0,1,1-1.54,4.72,4.72,0,0,1,1.5-1.05,4.52,4.52,0,0,1,1.88-.39,4.52,4.52,0,0,1,3.38,1.45,4.95,4.95,0,0,1,1.3,3.39v.29a.75.75,0,0,1,0,.2h-8.09a4.07,4.07,0,0,0,.36,1.41,3.67,3.67,0,0,0,.77,1.11,3.35,3.35,0,0,0,1.08.74,3.3,3.3,0,0,0,1.29.26,3.13,3.13,0,0,0,.91-.13,3.89,3.89,0,0,0,.84-.34,2.94,2.94,0,0,0,.68-.54,2.26,2.26,0,0,0,.48-.69l1.07.29a3.46,3.46,0,0,1-.62.95,4.51,4.51,0,0,1-2.09,1.23A4.78,4.78,0,0,1,143.88,152.85Zm3.48-5.4a3.7,3.7,0,0,0-.35-1.39,4,4,0,0,0-.76-1.08,3.48,3.48,0,0,0-1.07-.7,3.35,3.35,0,0,0-1.3-.26,3.44,3.44,0,0,0-1.31.26,3.26,3.26,0,0,0-1.07.7,3.53,3.53,0,0,0-.75,1.09,3.88,3.88,0,0,0-.33,1.38Z" transform="translate(1.48 -1.08)"/><path class="cls-3" d="M4.56,118.51A5.42,5.42,0,0,1,2.1,118a6.14,6.14,0,0,1-1.91-1.47A6.58,6.58,0,0,1-1,114.4,6.94,6.94,0,0,1-1.48,112,6.63,6.63,0,0,1-1,109.52a7,7,0,0,1,1.28-2.09A6.21,6.21,0,0,1,2.18,106a5.55,5.55,0,0,1,2.4-.53A5.29,5.29,0,0,1,7,106a6.24,6.24,0,0,1,1.91,1.49,7.09,7.09,0,0,1,1.22,2.1A6.77,6.77,0,0,1,10.6,112a6.69,6.69,0,0,1-.47,2.47,6.57,6.57,0,0,1-1.27,2.08A6.18,6.18,0,0,1,7,118,5.36,5.36,0,0,1,4.56,118.51ZM-.21,112a6,6,0,0,0,.34,2,5.62,5.62,0,0,0,1,1.72,4.89,4.89,0,0,0,1.51,1.2,4.26,4.26,0,0,0,1.94.44,4.18,4.18,0,0,0,2-.47A4.78,4.78,0,0,0,8,115.67a5.59,5.59,0,0,0,1-1.73,6,6,0,0,0,.34-2A5.77,5.77,0,0,0,9,110a5.4,5.4,0,0,0-1-1.71,4.82,4.82,0,0,0-1.5-1.19,4.24,4.24,0,0,0-1.92-.44,4.19,4.19,0,0,0-2,.46,4.82,4.82,0,0,0-1.5,1.22,5.74,5.74,0,0,0-1,1.73A6,6,0,0,0-.21,112Z" transform="translate(1.48 -1.08)"/><path class="cls-3" d="M15.69,118.6a2.65,2.65,0,0,1-2.29-1,5.15,5.15,0,0,1-.76-3.06V109h1.24v5.33q0,3.21,2.19,3.21a3.25,3.25,0,0,0,1.07-.18,3.52,3.52,0,0,0,1-.53,4.15,4.15,0,0,0,.8-.82,3.78,3.78,0,0,0,.57-1.07V109h1.23v7.85c0,.34.15.51.44.51v1.08a1.77,1.77,0,0,1-.35,0h-.19a1,1,0,0,1-.71-.31,1.09,1.09,0,0,1-.27-.78v-1.09A4.41,4.41,0,0,1,18,118,4.53,4.53,0,0,1,15.69,118.6Z" transform="translate(1.48 -1.08)"/><path class="cls-3" d="M28,118l-.32.14a3.69,3.69,0,0,1-.48.19,5.92,5.92,0,0,1-.61.16,3.48,3.48,0,0,1-.73.07,2.37,2.37,0,0,1-.76-.11,1.86,1.86,0,0,1-.64-.33,1.65,1.65,0,0,1-.43-.57,1.84,1.84,0,0,1-.16-.8V110H22.6v-1h1.31v-3.2h1.23V109h2.18v1H25.14v6.42a1,1,0,0,0,.37.77,1.23,1.23,0,0,0,.77.25,2.45,2.45,0,0,0,.93-.17,4.32,4.32,0,0,0,.5-.25Z" transform="translate(1.48 -1.08)"/><path class="cls-3" d="M34.41,118.6a3.79,3.79,0,0,1-2.12-.6,4.8,4.8,0,0,1-1.47-1.54v5.83H29.58V109h1.11v1.83a4.52,4.52,0,0,1,1.5-1.45,4,4,0,0,1,3.81-.14,4.46,4.46,0,0,1,1.42,1.09,5,5,0,0,1,.93,1.57,5.21,5.21,0,0,1,.34,1.83,5.84,5.84,0,0,1-.31,1.88,4.76,4.76,0,0,1-.88,1.56,4.25,4.25,0,0,1-1.36,1.06A3.88,3.88,0,0,1,34.41,118.6Zm-.35-1.08a2.94,2.94,0,0,0,1.39-.33,3.44,3.44,0,0,0,1.07-.86,4,4,0,0,0,.68-1.22,4.42,4.42,0,0,0,.23-1.4,3.93,3.93,0,0,0-.27-1.45,4.07,4.07,0,0,0-.74-1.22,3.52,3.52,0,0,0-1.12-.83,3.1,3.1,0,0,0-1.38-.31,2.75,2.75,0,0,0-1,.19,4,4,0,0,0-1,.51,3.61,3.61,0,0,0-.77.74,1.92,1.92,0,0,0-.38.9v2.9a3.86,3.86,0,0,0,.55.94,4.21,4.21,0,0,0,.76.76,3.9,3.9,0,0,0,.92.5A2.87,2.87,0,0,0,34.06,117.52Z" transform="translate(1.48 -1.08)"/><path class="cls-3" d="M43.73,118.6a2.67,2.67,0,0,1-2.3-1,5.15,5.15,0,0,1-.75-3.06V109h1.23v5.33c0,2.14.73,3.21,2.2,3.21a3.29,3.29,0,0,0,1.07-.18,3.67,3.67,0,0,0,1-.53A4.45,4.45,0,0,0,47,116a4.36,4.36,0,0,0,.57-1.07V109h1.23v7.85c0,.34.14.51.43.51v1.08a1.7,1.7,0,0,1-.35,0h-.19a1,1,0,0,1-.71-.31,1.09,1.09,0,0,1-.27-.78v-1.09A4.41,4.41,0,0,1,46,118,4.49,4.49,0,0,1,43.73,118.6Z" transform="translate(1.48 -1.08)"/><path class="cls-3" d="M56.08,118l-.32.14a3.69,3.69,0,0,1-.48.19,6.15,6.15,0,0,1-.62.16,3.38,3.38,0,0,1-.72.07,2.47,2.47,0,0,1-.77-.11,1.73,1.73,0,0,1-.63-.33,1.68,1.68,0,0,1-.44-.57,2,2,0,0,1-.16-.8V110h-1.3v-1h1.3v-3.2h1.23V109h2.18v1H53.17v6.42a1,1,0,0,0,.38.77,1.23,1.23,0,0,0,.77.25,2.36,2.36,0,0,0,.92-.17,4,4,0,0,0,.51-.25Z" transform="translate(1.48 -1.08)"/><path class="cls-3" d="M62.49,118.42V105.55h5.44a3.45,3.45,0,0,1,1.54.35,4.21,4.21,0,0,1,1.2.93,4.27,4.27,0,0,1,.79,1.29,4,4,0,0,1,.28,1.47,4.33,4.33,0,0,1-.21,1.35A3.83,3.83,0,0,1,71,112.1a3.2,3.2,0,0,1-.89.87,3.07,3.07,0,0,1-1.18.48l3.15,5H70.6l-3-4.75H63.76v4.75Zm1.27-5.87H68a2.09,2.09,0,0,0,1-.25,2.35,2.35,0,0,0,.78-.66,3.17,3.17,0,0,0,.51-.94,3.4,3.4,0,0,0,.18-1.11,3,3,0,0,0-.21-1.11,2.86,2.86,0,0,0-.56-.94,2.57,2.57,0,0,0-.83-.63,2.24,2.24,0,0,0-1-.24h-4.1Z" transform="translate(1.48 -1.08)"/><path class="cls-3" d="M77.89,118.6a4.57,4.57,0,0,1-3.39-1.46,5.06,5.06,0,0,1-1-1.56,5.27,5.27,0,0,1-.35-1.91,5.05,5.05,0,0,1,.35-1.87,5,5,0,0,1,1-1.55,4.72,4.72,0,0,1,1.5-1,4.77,4.77,0,0,1,3.78,0,4.77,4.77,0,0,1,1.48,1.06,4.95,4.95,0,0,1,1.3,3.39v.29a.48.48,0,0,1,0,.2H74.45a3.88,3.88,0,0,0,1.12,2.52,3.35,3.35,0,0,0,1.08.74,3.3,3.3,0,0,0,1.29.26,3.13,3.13,0,0,0,.91-.13,3.44,3.44,0,0,0,.84-.34,3.22,3.22,0,0,0,.69-.54,2.42,2.42,0,0,0,.47-.69l1.07.29a3.12,3.12,0,0,1-.62,1,4.46,4.46,0,0,1-.92.74,4.52,4.52,0,0,1-1.17.49A4.78,4.78,0,0,1,77.89,118.6Zm3.48-5.4a3.7,3.7,0,0,0-.35-1.39,4,4,0,0,0-.76-1.08,3.48,3.48,0,0,0-1.07-.7,3.35,3.35,0,0,0-1.3-.26,3.44,3.44,0,0,0-1.31.26,3.26,3.26,0,0,0-1.07.7,3.65,3.65,0,0,0-.75,1.09,3.94,3.94,0,0,0-.33,1.38Z" transform="translate(1.48 -1.08)"/><path class="cls-3" d="M87.59,118.6a6.66,6.66,0,0,1-2.16-.36,5.16,5.16,0,0,1-1.81-1l.56-.83a6.54,6.54,0,0,0,1.63,1,4.91,4.91,0,0,0,1.76.32,3.2,3.2,0,0,0,1.83-.46,1.51,1.51,0,0,0,.68-1.32,1.16,1.16,0,0,0-.18-.66,1.66,1.66,0,0,0-.54-.46,4.23,4.23,0,0,0-.89-.35c-.35-.11-.77-.21-1.24-.32s-1-.27-1.41-.4a4.17,4.17,0,0,1-1-.45,1.58,1.58,0,0,1-.58-.63,2,2,0,0,1-.19-.93,2.65,2.65,0,0,1,.28-1.25,2.38,2.38,0,0,1,.76-.9,3.33,3.33,0,0,1,1.12-.54,5.09,5.09,0,0,1,1.37-.18,5.41,5.41,0,0,1,2,.35,3.92,3.92,0,0,1,1.43.94l-.6.72a3.26,3.26,0,0,0-1.28-.81,4.57,4.57,0,0,0-1.56-.27,3.73,3.73,0,0,0-.91.1,2.09,2.09,0,0,0-.73.31,1.49,1.49,0,0,0-.5.56,1.62,1.62,0,0,0-.19.79,1.32,1.32,0,0,0,.13.61,1.1,1.1,0,0,0,.42.41,3.63,3.63,0,0,0,.73.31c.3.09.66.18,1.08.28.61.14,1.14.29,1.6.43a5.41,5.41,0,0,1,1.15.51,2.06,2.06,0,0,1,.7.71,2.13,2.13,0,0,1,.23,1,2.45,2.45,0,0,1-1,2.06A4.32,4.32,0,0,1,87.59,118.6Z" transform="translate(1.48 -1.08)"/><path class="cls-3" d="M97.31,118.6a4.42,4.42,0,0,1-1.88-.39A4.68,4.68,0,0,1,93,115.59a5.08,5.08,0,0,1-.35-1.86,5,5,0,0,1,.36-1.89,4.85,4.85,0,0,1,1-1.56,4.76,4.76,0,0,1,1.47-1.07,4.45,4.45,0,0,1,1.87-.4,4.53,4.53,0,0,1,1.88.4,4.84,4.84,0,0,1,1.49,1.07,5.22,5.22,0,0,1,1,1.56,5.16,5.16,0,0,1,.35,1.89,5.08,5.08,0,0,1-.35,1.86,4.62,4.62,0,0,1-1,1.56,4.51,4.51,0,0,1-1.48,1.06A4.58,4.58,0,0,1,97.31,118.6Zm-3.43-4.86a4.07,4.07,0,0,0,1,2.68,3.49,3.49,0,0,0,1.09.81,3.18,3.18,0,0,0,1.33.29,3,3,0,0,0,1.33-.3,3.41,3.41,0,0,0,1.1-.82,4,4,0,0,0,.75-1.2,4.22,4.22,0,0,0,0-3,3.92,3.92,0,0,0-.75-1.21,3.41,3.41,0,0,0-1.1-.82,3,3,0,0,0-1.33-.3,3,3,0,0,0-1.32.3,3.48,3.48,0,0,0-1.09.82,4.12,4.12,0,0,0-.74,1.23A4.07,4.07,0,0,0,93.88,113.74Z" transform="translate(1.48 -1.08)"/><path class="cls-3" d="M104.13,105.18h1.23v11.1a1.16,1.16,0,0,0,.29.83,1.1,1.1,0,0,0,.82.3,2.23,2.23,0,0,0,.47-.06,2.73,2.73,0,0,0,.51-.14l.22,1a3.79,3.79,0,0,1-.85.24,4.93,4.93,0,0,1-.86.09,1.83,1.83,0,0,1-1.34-.48,1.79,1.79,0,0,1-.49-1.35Z" transform="translate(1.48 -1.08)"/><path class="cls-3" d="M112,118.6a2.66,2.66,0,0,1-2.29-1,5.15,5.15,0,0,1-.75-3.06V109h1.23v5.33q0,3.21,2.19,3.21a3.25,3.25,0,0,0,1.07-.18,3.57,3.57,0,0,0,1-.53,4.11,4.11,0,0,0,.79-.82,3.78,3.78,0,0,0,.57-1.07V109H117v7.85c0,.34.14.51.43.51v1.08a1.7,1.7,0,0,1-.35,0h-.19a1,1,0,0,1-.71-.31,1.09,1.09,0,0,1-.27-.78v-1.09a4.41,4.41,0,0,1-1.68,1.72A4.53,4.53,0,0,1,112,118.6Z" transform="translate(1.48 -1.08)"/><path class="cls-3" d="M124.31,118l-.31.14a3.69,3.69,0,0,1-.48.19c-.19.06-.39.11-.62.16a3.41,3.41,0,0,1-.73.07,2.41,2.41,0,0,1-.76-.11,1.73,1.73,0,0,1-.63-.33,1.68,1.68,0,0,1-.44-.57,1.84,1.84,0,0,1-.16-.8V110h-1.31v-1h1.31v-3.2h1.23V109h2.18v1h-2.18v6.42a1,1,0,0,0,.37.77,1.25,1.25,0,0,0,.77.25,2.45,2.45,0,0,0,.93-.17c.26-.12.43-.2.51-.25Z" transform="translate(1.48 -1.08)"/><path class="cls-3" d="M125.85,107v-1.82h1.24V107Zm0,11.42V109h1.24v9.44Z" transform="translate(1.48 -1.08)"/><path class="cls-3" d="M133.83,118.6a4.45,4.45,0,0,1-1.88-.39,4.68,4.68,0,0,1-2.45-2.62,5.07,5.07,0,0,1-.34-1.86,5,5,0,0,1,.35-1.89,4.85,4.85,0,0,1,1-1.56,4.8,4.8,0,0,1,1.48-1.07,4.4,4.4,0,0,1,1.86-.4,4.49,4.49,0,0,1,1.88.4,4.84,4.84,0,0,1,1.49,1.07,5.22,5.22,0,0,1,1,1.56,5.16,5.16,0,0,1,.35,1.89,5.07,5.07,0,0,1-.34,1.86,4.78,4.78,0,0,1-1,1.56,4.66,4.66,0,0,1-1.49,1.06A4.58,4.58,0,0,1,133.83,118.6Zm-3.42-4.86a4,4,0,0,0,1,2.68,3.49,3.49,0,0,0,1.09.81,3.18,3.18,0,0,0,1.33.29,3.06,3.06,0,0,0,1.34-.3,3.48,3.48,0,0,0,1.09-.82,3.8,3.8,0,0,0,.75-1.2,4.22,4.22,0,0,0,0-3,3.74,3.74,0,0,0-.75-1.21,3.48,3.48,0,0,0-1.09-.82,3.06,3.06,0,0,0-1.34-.3,3,3,0,0,0-1.32.3,3.6,3.6,0,0,0-1.09.82,4.12,4.12,0,0,0-.74,1.23A4.07,4.07,0,0,0,130.41,113.74Z" transform="translate(1.48 -1.08)"/><path class="cls-3" d="M148.54,118.42h-1.23v-5.27a4.62,4.62,0,0,0-.5-2.45,1.69,1.69,0,0,0-1.53-.76,3,3,0,0,0-1.09.2,3.71,3.71,0,0,0-1,.56,4.19,4.19,0,0,0-.82.86,3.2,3.2,0,0,0-.53,1.08v5.78H140.6V109h1.12v2.14a4.43,4.43,0,0,1,1.66-1.67,4.49,4.49,0,0,1,2.35-.64,2.8,2.8,0,0,1,1.32.29,2.22,2.22,0,0,1,.87.82,3.77,3.77,0,0,1,.48,1.29,9.58,9.58,0,0,1,.14,1.68Z" transform="translate(1.48 -1.08)"/><path class="cls-3" d="M10.81,85.92V73.05h1.27V85.92Z" transform="translate(1.48 -1.08)"/><path class="cls-3" d="M19.59,85.47l-.32.15-.48.18a6.15,6.15,0,0,1-.62.16,3.38,3.38,0,0,1-.72.07,2.37,2.37,0,0,1-.76-.11,1.77,1.77,0,0,1-.64-.33,1.65,1.65,0,0,1-.43-.57,1.85,1.85,0,0,1-.17-.8V77.46h-1.3v-1h1.3v-3.2h1.24v3.2h2.17v1H16.69v6.41a1,1,0,0,0,.37.78,1.28,1.28,0,0,0,.77.24,2.36,2.36,0,0,0,.92-.17,4,4,0,0,0,.51-.25Z" transform="translate(1.48 -1.08)"/><path class="cls-3" d="M25,86.1a4.69,4.69,0,0,1-1.89-.38,4.84,4.84,0,0,1-1.5-1.07,5.13,5.13,0,0,1-1.34-3.48,4.87,4.87,0,0,1,.36-1.87,5,5,0,0,1,1-1.55,4.72,4.72,0,0,1,1.5-1A4.57,4.57,0,0,1,25,76.31a4.5,4.5,0,0,1,1.89.39,4.55,4.55,0,0,1,1.48,1.06,5,5,0,0,1,1.31,3.39v.29a.75.75,0,0,1,0,.2H21.53a3.94,3.94,0,0,0,1.12,2.53,3.74,3.74,0,0,0,1.08.73,3.35,3.35,0,0,0,1.3.26,3.4,3.4,0,0,0,1.74-.47,3.17,3.17,0,0,0,.69-.53,2.61,2.61,0,0,0,.47-.7l1.07.29a2.94,2.94,0,0,1-.62,1,4.21,4.21,0,0,1-.92.74,4.45,4.45,0,0,1-1.16.49A4.85,4.85,0,0,1,25,86.1Zm3.49-5.4a3.9,3.9,0,0,0-.36-1.39,4,4,0,0,0-.76-1.08,3.36,3.36,0,0,0-1.07-.7,3.32,3.32,0,0,0-1.3-.26,3.35,3.35,0,0,0-1.3.26,3.41,3.41,0,0,0-1.08.7,3.45,3.45,0,0,0-.74,1.09,4.24,4.24,0,0,0-.34,1.38Z" transform="translate(1.48 -1.08)"/><path class="cls-3" d="M36.25,77.56a3.94,3.94,0,0,0-2.17.69,3.54,3.54,0,0,0-1.31,1.8v5.87H31.54V76.48H32.7v2.26A4.32,4.32,0,0,1,34.11,77,3.32,3.32,0,0,1,36,76.42l.23,0Z" transform="translate(1.48 -1.08)"/><path class="cls-3" d="M40.15,86.1a3.37,3.37,0,0,1-1.24-.22,3.14,3.14,0,0,1-1-.63,2.81,2.81,0,0,1-.66-.93A2.78,2.78,0,0,1,37,83.17,2.25,2.25,0,0,1,37.31,82a2.6,2.6,0,0,1,.81-.91,3.91,3.91,0,0,1,1.25-.59,5.79,5.79,0,0,1,1.6-.21,8.27,8.27,0,0,1,1.47.13,6,6,0,0,1,1.32.36V80a2.71,2.71,0,0,0-.71-2,2.57,2.57,0,0,0-1.95-.73,4,4,0,0,0-1.49.29,7.06,7.06,0,0,0-1.54.83l-.44-.81a6.34,6.34,0,0,1,3.56-1.24,3.84,3.84,0,0,1,2.79,1,3.68,3.68,0,0,1,1,2.76v4.26c0,.34.16.51.46.51v1.08A2.7,2.7,0,0,1,45,86a1.06,1.06,0,0,1-.74-.24.88.88,0,0,1-.28-.65l0-.74a4.38,4.38,0,0,1-1.65,1.3A5.09,5.09,0,0,1,40.15,86.1Zm.29-.94a4.31,4.31,0,0,0,1.77-.36,2.88,2.88,0,0,0,1.23-1,1.29,1.29,0,0,0,.24-.35,1,1,0,0,0,.08-.36V81.59a6.94,6.94,0,0,0-1.28-.36,6.72,6.72,0,0,0-1.35-.13,3.77,3.77,0,0,0-2.12.54,1.69,1.69,0,0,0-.82,1.44,2.06,2.06,0,0,0,.65,1.47,2.26,2.26,0,0,0,.71.45A2.42,2.42,0,0,0,40.44,85.16Z" transform="translate(1.48 -1.08)"/><path class="cls-3" d="M52.12,85.47l-.32.15a5,5,0,0,1-.48.18,5.92,5.92,0,0,1-.61.16A3.41,3.41,0,0,1,50,86a2.41,2.41,0,0,1-.76-.11,1.73,1.73,0,0,1-.63-.33,1.56,1.56,0,0,1-.44-.57,1.84,1.84,0,0,1-.16-.8V77.46H46.68v-1H48v-3.2h1.23v3.2H51.4v1H49.22v6.41a1,1,0,0,0,.37.78,1.3,1.3,0,0,0,.77.24,2.45,2.45,0,0,0,.93-.17c.26-.12.43-.2.51-.25Z" transform="translate(1.48 -1.08)"/><path class="cls-3" d="M53.66,74.5V72.69H54.9V74.5Zm0,11.42V76.48H54.9v9.44Z" transform="translate(1.48 -1.08)"/><path class="cls-3" d="M61.64,86.1a4.57,4.57,0,0,1-1.88-.38,4.77,4.77,0,0,1-2.45-2.62A5.17,5.17,0,0,1,57,81.23a5,5,0,0,1,.36-1.89,4.85,4.85,0,0,1,1-1.56,4.76,4.76,0,0,1,1.47-1.07,4.45,4.45,0,0,1,1.87-.4,4.53,4.53,0,0,1,1.88.4A4.84,4.84,0,0,1,65,77.78a5.14,5.14,0,0,1,1.33,3.45A5.17,5.17,0,0,1,66,83.1a4.68,4.68,0,0,1-1,1.55,4.53,4.53,0,0,1-1.48,1.07A4.74,4.74,0,0,1,61.64,86.1Zm-3.43-4.85a3.74,3.74,0,0,0,.28,1.47,3.82,3.82,0,0,0,.73,1.2,3.49,3.49,0,0,0,1.09.81,3.18,3.18,0,0,0,1.33.29,3,3,0,0,0,1.33-.3,3.41,3.41,0,0,0,1.1-.82,3.87,3.87,0,0,0,.75-1.2,4.22,4.22,0,0,0,0-3,3.92,3.92,0,0,0-.75-1.21A3.41,3.41,0,0,0,63,77.7a3,3,0,0,0-1.33-.3,3,3,0,0,0-1.32.3,3.37,3.37,0,0,0-1.09.83,4.12,4.12,0,0,0-1,2.72Z" transform="translate(1.48 -1.08)"/><path class="cls-3" d="M76.35,85.92H75.12V80.65a4.62,4.62,0,0,0-.5-2.45,1.72,1.72,0,0,0-1.54-.76,3,3,0,0,0-1.08.2,3.57,3.57,0,0,0-1,.56,4.52,4.52,0,0,0-.83.86,3.37,3.37,0,0,0-.52,1.08v5.78H68.41V76.48h1.12v2.14A4.43,4.43,0,0,1,71.19,77a4.49,4.49,0,0,1,2.35-.64,2.8,2.8,0,0,1,1.32.29,2.36,2.36,0,0,1,.87.82,3.57,3.57,0,0,1,.47,1.29,8.67,8.67,0,0,1,.15,1.68Z" transform="translate(1.48 -1.08)"/><path class="cls-3" d="M87.28,73.05h1.07L93.7,85.92H92.36l-1.67-4H84.91l-1.65,4H81.9ZM90.4,80.9l-2.59-6.36L85.18,80.9Z" transform="translate(1.48 -1.08)"/><path class="cls-3" d="M109.35,85.92h-1.23V80.65a4.42,4.42,0,0,0-.53-2.43,1.76,1.76,0,0,0-1.56-.78,2.51,2.51,0,0,0-1,.2,3.1,3.1,0,0,0-.89.56,4.06,4.06,0,0,0-.72.86,4.34,4.34,0,0,0-.47,1.1v5.76H101.7V80.65a4.52,4.52,0,0,0-.51-2.45,1.74,1.74,0,0,0-1.56-.76,2.74,2.74,0,0,0-1.9.74,4.13,4.13,0,0,0-1.2,2v5.78H95.3V76.48h1.12v2.14A4.51,4.51,0,0,1,98,76.92a3.7,3.7,0,0,1,2.08-.61,2.69,2.69,0,0,1,1.91.67,2.94,2.94,0,0,1,.88,1.76,4,4,0,0,1,3.65-2.43,2.93,2.93,0,0,1,1.35.29,2.36,2.36,0,0,1,.89.83,4,4,0,0,1,.49,1.29,8.57,8.57,0,0,1,.15,1.67Z" transform="translate(1.48 -1.08)"/><path class="cls-3" d="M116,86.1a4.66,4.66,0,0,1-1.89-.38,4.49,4.49,0,0,1-1.47-1.07,4.7,4.7,0,0,1-1-1.55,5.38,5.38,0,0,1-.34-1.87,5.16,5.16,0,0,1,.35-1.89,5.22,5.22,0,0,1,1-1.56,4.8,4.8,0,0,1,1.48-1.07,4.45,4.45,0,0,1,1.87-.4,4.53,4.53,0,0,1,1.88.4,4.68,4.68,0,0,1,1.48,1.07,4.85,4.85,0,0,1,1,1.56,5,5,0,0,1,.36,1.89,5.17,5.17,0,0,1-.35,1.87,4.68,4.68,0,0,1-1,1.55,4.58,4.58,0,0,1-1.49,1.07A4.66,4.66,0,0,1,116,86.1Zm-3.43-4.85a3.92,3.92,0,0,0,.27,1.47,4,4,0,0,0,.74,1.2,3.49,3.49,0,0,0,1.09.81A3.15,3.15,0,0,0,116,85a3,3,0,0,0,1.33-.3,3.52,3.52,0,0,0,1.1-.82,3.85,3.85,0,0,0,.74-1.2,4.22,4.22,0,0,0,0-3,3.9,3.9,0,0,0-.74-1.21,3.52,3.52,0,0,0-1.1-.82,3,3,0,0,0-1.33-.3,3,3,0,0,0-1.32.3,3.26,3.26,0,0,0-1.09.83,4,4,0,0,0-.75,1.22A4.12,4.12,0,0,0,112.56,81.25Z" transform="translate(1.48 -1.08)"/><path class="cls-3" d="M125.71,86.1a2.68,2.68,0,0,1-2.3-1,5.14,5.14,0,0,1-.75-3V76.48h1.24v5.33q0,3.21,2.19,3.21a3.29,3.29,0,0,0,1.07-.18,3.4,3.4,0,0,0,1-.53,4.15,4.15,0,0,0,.8-.82,4.36,4.36,0,0,0,.57-1.07V76.48h1.23v7.85c0,.34.15.51.44.51v1.08a1.86,1.86,0,0,1-.36,0h-.19a.94.94,0,0,1-.7-.31,1.05,1.05,0,0,1-.28-.78V83.78A4.46,4.46,0,0,1,128,85.5,4.53,4.53,0,0,1,125.71,86.1Z" transform="translate(1.48 -1.08)"/><path class="cls-3" d="M141.47,85.92h-1.24V80.65a4.64,4.64,0,0,0-.49-2.45,1.72,1.72,0,0,0-1.54-.76,3,3,0,0,0-1.09.2,3.66,3.66,0,0,0-1,.56,4.24,4.24,0,0,0-.83.86,3.37,3.37,0,0,0-.52,1.08v5.78h-1.24V76.48h1.13v2.14A4.43,4.43,0,0,1,136.31,77a4.49,4.49,0,0,1,2.35-.64,2.8,2.8,0,0,1,1.32.29,2.36,2.36,0,0,1,.87.82,3.77,3.77,0,0,1,.47,1.29,8.67,8.67,0,0,1,.15,1.68Z" transform="translate(1.48 -1.08)"/><path class="cls-3" d="M148.54,85.47l-.32.15-.48.18c-.18.06-.39.11-.61.16a3.54,3.54,0,0,1-.73.07,2.37,2.37,0,0,1-.76-.11,1.77,1.77,0,0,1-.64-.33,1.65,1.65,0,0,1-.43-.57,1.85,1.85,0,0,1-.17-.8V77.46h-1.3v-1h1.3v-3.2h1.24v3.2h2.17v1h-2.17v6.41a1,1,0,0,0,.37.78,1.28,1.28,0,0,0,.77.24,2.36,2.36,0,0,0,.92-.17,4,4,0,0,0,.51-.25Z" transform="translate(1.48 -1.08)"/><path class="cls-3" d="M47.59,51.58V38.71H52a6.59,6.59,0,0,1,2.69.51,5.32,5.32,0,0,1,1.92,1.38,5.67,5.67,0,0,1,1.16,2,7.89,7.89,0,0,1,.39,2.5,7.63,7.63,0,0,1-.43,2.65,5.76,5.76,0,0,1-1.24,2,5.66,5.66,0,0,1-1.94,1.3,6.7,6.7,0,0,1-2.55.46Zm9.27-6.45A6.52,6.52,0,0,0,56.53,43a4.93,4.93,0,0,0-1-1.68A4.3,4.3,0,0,0,54,40.22,5.21,5.21,0,0,0,52,39.83h-3.1V50.46H52a5.16,5.16,0,0,0,2.11-.41,4.34,4.34,0,0,0,1.53-1.12,4.89,4.89,0,0,0,.94-1.69A6.81,6.81,0,0,0,56.86,45.13Z" transform="translate(1.48 -1.08)"/><path class="cls-3" d="M62.68,51.77a3.39,3.39,0,0,1-1.25-.23,3,3,0,0,1-1-.63,2.7,2.7,0,0,1-.67-.93,3,3,0,0,1-.23-1.15,2.42,2.42,0,0,1,.29-1.15,2.59,2.59,0,0,1,.82-.9,3.81,3.81,0,0,1,1.25-.59A5.67,5.67,0,0,1,63.49,46a8.11,8.11,0,0,1,1.47.13,5.74,5.74,0,0,1,1.32.36v-.85a2.75,2.75,0,0,0-.7-2,2.59,2.59,0,0,0-2-.73,4.06,4.06,0,0,0-1.49.29,7.06,7.06,0,0,0-1.54.83l-.43-.81A6.31,6.31,0,0,1,63.71,42a3.82,3.82,0,0,1,2.79,1,3.68,3.68,0,0,1,1,2.76V50q0,.51.45.51v1.08a2.59,2.59,0,0,1-.47.06,1,1,0,0,1-.73-.24.88.88,0,0,1-.29-.65l0-.74a4.35,4.35,0,0,1-1.64,1.3A5.09,5.09,0,0,1,62.68,51.77Zm.29-1a4.23,4.23,0,0,0,1.76-.36,2.88,2.88,0,0,0,1.23-1,1,1,0,0,0,.24-.36.77.77,0,0,0,.08-.35V47.25a7.44,7.44,0,0,0-2.62-.49,3.8,3.8,0,0,0-2.13.54,1.67,1.67,0,0,0-.81,1.44,2,2,0,0,0,.64,1.47,2.2,2.2,0,0,0,.72.45A2.38,2.38,0,0,0,63,50.82Z" transform="translate(1.48 -1.08)"/><path class="cls-3" d="M74.64,51.13l-.31.15-.48.18a6.15,6.15,0,0,1-.62.16,3.38,3.38,0,0,1-.72.07,2.47,2.47,0,0,1-.77-.11,1.73,1.73,0,0,1-.63-.33,1.68,1.68,0,0,1-.44-.57,1.84,1.84,0,0,1-.16-.8V43.12H69.2v-1h1.31v-3.2h1.23v3.2h2.18v1H71.74v6.42a1,1,0,0,0,.37.76,1.27,1.27,0,0,0,.78.25,2.4,2.4,0,0,0,.92-.17,4,4,0,0,0,.51-.25Z" transform="translate(1.48 -1.08)"/><path class="cls-3" d="M78.56,51.77a3.34,3.34,0,0,1-1.24-.23,3.14,3.14,0,0,1-1-.63,2.83,2.83,0,0,1-.9-2.08,2.42,2.42,0,0,1,.29-1.15,2.81,2.81,0,0,1,.82-.9,3.91,3.91,0,0,1,1.25-.59,5.79,5.79,0,0,1,1.6-.21,8.27,8.27,0,0,1,1.47.13,6,6,0,0,1,1.32.36v-.85a2.75,2.75,0,0,0-.71-2,2.58,2.58,0,0,0-2-.73,4,4,0,0,0-1.48.29,7.06,7.06,0,0,0-1.54.83L76,43.21A6.34,6.34,0,0,1,79.6,42a3.84,3.84,0,0,1,2.79,1,3.72,3.72,0,0,1,1,2.76V50c0,.34.15.51.46.51v1.08a2.82,2.82,0,0,1-.47.06,1.06,1.06,0,0,1-.74-.24.88.88,0,0,1-.28-.65l0-.74a4.28,4.28,0,0,1-1.64,1.3A5.09,5.09,0,0,1,78.56,51.77Zm.29-1a4.31,4.31,0,0,0,1.77-.36,2.79,2.79,0,0,0,1.22-1,1.23,1.23,0,0,0,.25-.36.93.93,0,0,0,.08-.35V47.25a6.94,6.94,0,0,0-1.28-.36,6.72,6.72,0,0,0-1.35-.13,3.77,3.77,0,0,0-2.12.54,1.68,1.68,0,0,0-.82,1.44,2.06,2.06,0,0,0,.65,1.47,2.15,2.15,0,0,0,.71.45A2.42,2.42,0,0,0,78.85,50.82Z" transform="translate(1.48 -1.08)"/><path class="cls-3" d="M89.21,51.77a6.63,6.63,0,0,1-2.16-.37,5.07,5.07,0,0,1-1.81-1l.56-.83a6.32,6.32,0,0,0,1.62,1,4.92,4.92,0,0,0,1.77.32A3.17,3.17,0,0,0,91,50.36a1.51,1.51,0,0,0,.68-1.31,1.17,1.17,0,0,0-.18-.67,1.56,1.56,0,0,0-.54-.46,4.13,4.13,0,0,0-.88-.35c-.36-.11-.77-.21-1.25-.32s-1-.27-1.41-.4a4.17,4.17,0,0,1-1-.45,1.66,1.66,0,0,1-.58-.63,2,2,0,0,1-.19-.93A2.65,2.65,0,0,1,86,43.59a2.47,2.47,0,0,1,.76-.9,3.59,3.59,0,0,1,1.13-.54A5,5,0,0,1,89.21,42a5.2,5.2,0,0,1,2,.36,3.82,3.82,0,0,1,1.44.93L92,44a3.24,3.24,0,0,0-1.28-.82,4.63,4.63,0,0,0-1.57-.27,3.73,3.73,0,0,0-.91.1,2.18,2.18,0,0,0-.73.31,1.58,1.58,0,0,0-.5.56,1.62,1.62,0,0,0-.18.79,1.2,1.2,0,0,0,.13.61,1,1,0,0,0,.41.41,3.23,3.23,0,0,0,.74.31c.29.09.65.18,1.08.28.6.15,1.13.29,1.59.44a4.77,4.77,0,0,1,1.15.5,2.06,2.06,0,0,1,.7.71,2,2,0,0,1,.24,1,2.46,2.46,0,0,1-1,2.06A4.29,4.29,0,0,1,89.21,51.77Z" transform="translate(1.48 -1.08)"/><path class="cls-3" d="M99,51.77a4.53,4.53,0,0,1-3.39-1.47,5.06,5.06,0,0,1-1-1.56,5.27,5.27,0,0,1-.35-1.91A5.05,5.05,0,0,1,94.6,45a5,5,0,0,1,1-1.55,4.72,4.72,0,0,1,1.5-1,4.77,4.77,0,0,1,3.78,0,4.77,4.77,0,0,1,1.48,1.06,4.95,4.95,0,0,1,1.3,3.39v.29a.48.48,0,0,1,0,.2H95.54a3.88,3.88,0,0,0,1.12,2.52,3.35,3.35,0,0,0,1.08.74,3.13,3.13,0,0,0,1.29.26,3.5,3.5,0,0,0,.91-.12,3.91,3.91,0,0,0,.84-.35,3.17,3.17,0,0,0,.69-.53,2.61,2.61,0,0,0,.47-.7l1.07.29a3.12,3.12,0,0,1-.62,1,4.46,4.46,0,0,1-.92.74,4.2,4.2,0,0,1-1.17.49A4.78,4.78,0,0,1,99,51.77Zm3.48-5.41a3.7,3.7,0,0,0-.35-1.39,3.77,3.77,0,0,0-.76-1.07,3.38,3.38,0,0,0-2.37-1,3.44,3.44,0,0,0-1.31.26,3.13,3.13,0,0,0-1.07.71A3.48,3.48,0,0,0,95.85,45a4,4,0,0,0-.33,1.38Z" transform="translate(1.48 -1.08)"/><path class="cls-3" d="M110,51.13l-.32.15-.48.18a6.15,6.15,0,0,1-.62.16,3.38,3.38,0,0,1-.72.07,2.47,2.47,0,0,1-.77-.11,1.73,1.73,0,0,1-.63-.33,1.68,1.68,0,0,1-.44-.57,2,2,0,0,1-.16-.8V43.12h-1.3v-1h1.3v-3.2h1.23v3.2h2.18v1H107.1v6.42a1,1,0,0,0,.38.76,1.23,1.23,0,0,0,.77.25,2.36,2.36,0,0,0,.92-.17,4,4,0,0,0,.51-.25Z" transform="translate(1.48 -1.08)"/><path class="cls-3" d="M124,41.12a4,4,0,0,0-1.45-1,5.34,5.34,0,0,0-2.07-.38,3.87,3.87,0,0,0-2.48.65,2.15,2.15,0,0,0-.78,1.75,1.94,1.94,0,0,0,.21,1,1.78,1.78,0,0,0,.64.64,4.38,4.38,0,0,0,1.12.47c.45.14,1,.27,1.6.4a19,19,0,0,1,1.86.49,5.44,5.44,0,0,1,1.41.68,2.77,2.77,0,0,1,.88,1,3,3,0,0,1,.31,1.45,3.24,3.24,0,0,1-.34,1.54,3,3,0,0,1-1,1.09,4.1,4.1,0,0,1-1.47.64,7.81,7.81,0,0,1-1.87.21,7.67,7.67,0,0,1-5.17-1.87l.64-1a5.23,5.23,0,0,0,.82.69,5.72,5.72,0,0,0,1.07.57,6.86,6.86,0,0,0,1.26.38,7.2,7.2,0,0,0,1.42.14A4.53,4.53,0,0,0,123,50a1.87,1.87,0,0,0,.86-1.68,2,2,0,0,0-.24-1,2.2,2.2,0,0,0-.74-.71,5.06,5.06,0,0,0-1.21-.51c-.49-.15-1-.29-1.69-.44a17.58,17.58,0,0,1-1.78-.49,5,5,0,0,1-1.29-.63,2.44,2.44,0,0,1-.78-.92,2.86,2.86,0,0,1-.27-1.31,3.57,3.57,0,0,1,.34-1.59,3.14,3.14,0,0,1,1-1.16,4.67,4.67,0,0,1,1.45-.71,6.69,6.69,0,0,1,1.85-.24,6.28,6.28,0,0,1,2.29.39,6.17,6.17,0,0,1,1.83,1.09Z" transform="translate(1.48 -1.08)"/><path class="cls-3" d="M127.18,40.16V38.35h1.23v1.81Zm0,11.42V42.14h1.23v9.44Z" transform="translate(1.48 -1.08)"/><path class="cls-3" d="M130.33,50.75l6.39-7.69h-6.24v-.92h7.58V43l-6.37,7.69H138v.92h-7.71Z" transform="translate(1.48 -1.08)"/><path class="cls-3" d="M143.88,51.77a4.53,4.53,0,0,1-3.39-1.47,5,5,0,0,1-1.34-3.47A4.86,4.86,0,0,1,139.5,45a5,5,0,0,1,1-1.55,4.72,4.72,0,0,1,1.5-1,4.52,4.52,0,0,1,1.88-.39,4.58,4.58,0,0,1,1.9.39,4.77,4.77,0,0,1,1.48,1.06,4.95,4.95,0,0,1,1.3,3.39v.29a.75.75,0,0,1,0,.2h-8.09a4.07,4.07,0,0,0,.36,1.41,3.67,3.67,0,0,0,.77,1.11,3.35,3.35,0,0,0,1.08.74,3.13,3.13,0,0,0,1.29.26,3.5,3.5,0,0,0,.91-.12,3.91,3.91,0,0,0,.84-.35,2.9,2.9,0,0,0,.68-.53,2.43,2.43,0,0,0,.48-.7l1.07.29a3.31,3.31,0,0,1-.62,1,4.27,4.27,0,0,1-.93.74,4,4,0,0,1-1.16.49A4.78,4.78,0,0,1,143.88,51.77Zm3.48-5.41A3.7,3.7,0,0,0,147,45a4,4,0,0,0-.76-1.07,3.38,3.38,0,0,0-2.37-1,3.44,3.44,0,0,0-1.31.26,3.13,3.13,0,0,0-1.07.71,3.48,3.48,0,0,0-.75,1.08,4,4,0,0,0-.33,1.38Z" transform="translate(1.48 -1.08)"/><path class="cls-3" d="M72.58,2.44h1.07L79,15.31H77.66l-1.67-4H70.2l-1.65,4H67.19Zm3.12,7.85L73.1,3.93l-2.63,6.36Z" transform="translate(1.48 -1.08)"/><path class="cls-3" d="M80.65,2.07h1.23v11.1a1.16,1.16,0,0,0,.29.83,1.09,1.09,0,0,0,.82.3,2.23,2.23,0,0,0,.47-.06A2.73,2.73,0,0,0,84,14.1l.21,1a4.55,4.55,0,0,1-.84.23,4.93,4.93,0,0,1-.86.09,1.82,1.82,0,0,1-1.34-.48,1.79,1.79,0,0,1-.49-1.35Z" transform="translate(1.48 -1.08)"/><path class="cls-3" d="M89.32,15.44A3.93,3.93,0,0,1,87.53,15,4.61,4.61,0,0,1,86.13,14a4.76,4.76,0,0,1-.91-1.54,5,5,0,0,1-.33-1.79,5.62,5.62,0,0,1,.32-1.88,4.77,4.77,0,0,1,.9-1.57A4.27,4.27,0,0,1,87.49,6.1a4,4,0,0,1,1.79-.4,3.58,3.58,0,0,1,2.1.61,6,6,0,0,1,1.53,1.53v-2H94v9.48a3.83,3.83,0,0,1-.37,1.73,3.75,3.75,0,0,1-1,1.26,4.1,4.1,0,0,1-1.47.76,6.08,6.08,0,0,1-1.78.26,5.26,5.26,0,0,1-2.63-.58,4.74,4.74,0,0,1-1.62-1.56l.77-.6A3.39,3.39,0,0,0,87.39,18a4.64,4.64,0,0,0,2,.43,4.59,4.59,0,0,0,1.3-.19,3.46,3.46,0,0,0,1.08-.56,2.68,2.68,0,0,0,.74-.95,3.07,3.07,0,0,0,.27-1.33V13.48a3.87,3.87,0,0,1-1.49,1.43A3.91,3.91,0,0,1,89.32,15.44Zm.34-1a3.07,3.07,0,0,0,1.07-.2,3.55,3.55,0,0,0,1-.54,3.4,3.4,0,0,0,.72-.75,2.37,2.37,0,0,0,.38-.85V9.15a3.8,3.8,0,0,0-1.33-1.69A4.14,4.14,0,0,0,90.52,7a3,3,0,0,0-1-.18,2.9,2.9,0,0,0-1.42.34A3.32,3.32,0,0,0,87,8a4,4,0,0,0-.66,1.24,4.45,4.45,0,0,0-.23,1.39,4,4,0,0,0,.27,1.46,3.83,3.83,0,0,0,.76,1.2,3.56,3.56,0,0,0,1.11.82A3.17,3.17,0,0,0,89.66,14.41Z" transform="translate(1.48 -1.08)"/><path class="cls-3" d="M100.76,15.49a4.5,4.5,0,0,1-1.89-.39A4.61,4.61,0,0,1,97.39,14a4.78,4.78,0,0,1-1-1.56,5.07,5.07,0,0,1-.34-1.86,5.16,5.16,0,0,1,.35-1.89,5,5,0,0,1,1-1.56A4.8,4.8,0,0,1,98.89,6.1a4.57,4.57,0,0,1,3.74,0,4.73,4.73,0,0,1,1.49,1.07,5,5,0,0,1,1,1.56,5,5,0,0,1,.35,1.89,5.07,5.07,0,0,1-.34,1.86,4.62,4.62,0,0,1-1,1.56,4.55,4.55,0,0,1-1.49,1.06A4.5,4.5,0,0,1,100.76,15.49Zm-3.43-4.86a3.94,3.94,0,0,0,1,2.68,3.45,3.45,0,0,0,1.08.81,3.23,3.23,0,0,0,1.34.29,3,3,0,0,0,1.33-.3,3.52,3.52,0,0,0,1.1-.82,4,4,0,0,0,.74-1.2,4.22,4.22,0,0,0,0-3,3.78,3.78,0,0,0-.74-1.21,3.52,3.52,0,0,0-1.1-.82,3,3,0,0,0-1.33-.3,3,3,0,0,0-1.33.3,3.44,3.44,0,0,0-1.08.82,4,4,0,0,0-.75,1.23A4.07,4.07,0,0,0,97.33,10.63Z" transform="translate(1.48 -1.08)"/><path class="cls-3" d="M112.24,7a4,4,0,0,0-2.18.69,3.54,3.54,0,0,0-1.31,1.8v5.87h-1.23V5.87h1.16V8.13a4.26,4.26,0,0,1,1.42-1.7,3.27,3.27,0,0,1,1.9-.62l.24,0Z" transform="translate(1.48 -1.08)"/><path class="cls-3" d="M113.89,3.89V2.07h1.23V3.89Zm0,11.42V5.87h1.23v9.44Z" transform="translate(1.48 -1.08)"/><path class="cls-3" d="M122.37,14.86l-.31.14a3.69,3.69,0,0,1-.48.19c-.19.06-.39.11-.62.16a3.41,3.41,0,0,1-.73.07,2.41,2.41,0,0,1-.76-.11,1.73,1.73,0,0,1-.63-.33,1.68,1.68,0,0,1-.44-.57,1.84,1.84,0,0,1-.16-.8V6.84h-1.31v-1h1.31V2.67h1.23v3.2h2.18v1h-2.18v6.42a1,1,0,0,0,.37.77,1.25,1.25,0,0,0,.77.25,2.45,2.45,0,0,0,.93-.17c.26-.12.43-.2.51-.25Z" transform="translate(1.48 -1.08)"/><path class="cls-3" d="M131.86,15.31h-1.24V10a4.29,4.29,0,0,0-.55-2.42,1.85,1.85,0,0,0-1.62-.79,2.91,2.91,0,0,0-1,.2,4.06,4.06,0,0,0-1.76,1.43,3.39,3.39,0,0,0-.5,1.07v5.78h-1.24V2.07h1.24V8a4.21,4.21,0,0,1,1.56-1.68,4,4,0,0,1,2.15-.62,2.87,2.87,0,0,1,1.38.3,2.5,2.5,0,0,1,.93.84,3.62,3.62,0,0,1,.52,1.28,7.77,7.77,0,0,1,.17,1.66Z" transform="translate(1.48 -1.08)"/><path class="cls-3" d="M148.54,15.31h-1.23V10a4.42,4.42,0,0,0-.53-2.43,1.76,1.76,0,0,0-1.56-.78,2.51,2.51,0,0,0-1,.2,3.1,3.1,0,0,0-.89.56,4.06,4.06,0,0,0-.72.86,4.34,4.34,0,0,0-.47,1.1v5.76h-1.23V10a4.52,4.52,0,0,0-.51-2.45,1.74,1.74,0,0,0-1.56-.76,2.74,2.74,0,0,0-1.9.74,4.13,4.13,0,0,0-1.2,2v5.78h-1.23V5.87h1.12V8a4.46,4.46,0,0,1,1.52-1.69,3.76,3.76,0,0,1,2.09-.61,2.71,2.71,0,0,1,1.91.67A2.94,2.94,0,0,1,142,8.13a4,4,0,0,1,3.65-2.43A2.93,2.93,0,0,1,147,6a2.36,2.36,0,0,1,.89.83,4,4,0,0,1,.49,1.28,8.75,8.75,0,0,1,.15,1.68Z" transform="translate(1.48 -1.08)"/><rect class="cls-2" x="157.54" y="140.95" width="123.97" height="12.1"/><rect class="cls-1" x="157.54" y="140.95" width="86.57" height="12.1"/><rect class="cls-1" x="157.54" y="106.61" width="123.97" height="12.1"/><rect class="cls-2" x="157.54" y="72.27" width="123.97" height="12.1"/><rect class="cls-1" x="157.54" y="72.27" width="99.44" height="12.1"/><rect class="cls-2" x="157.54" y="37.93" width="123.97" height="12.1"/><rect class="cls-1" x="157.54" y="37.93" width="10.23" height="12.1"/><polyline class="cls-5" points="281.84 159.85 281.84 22.12 399.45 22.12"/><path class="cls-2" d="M287.45,13.83V2.09h4.86a3.09,3.09,0,0,1,1.39.32,3.69,3.69,0,0,1,1.1.85,4,4,0,0,1,.73,1.18,3.52,3.52,0,0,1,.27,1.34,4.17,4.17,0,0,1-.25,1.4,3.88,3.88,0,0,1-.7,1.18,3.46,3.46,0,0,1-1.06.83,3.17,3.17,0,0,1-1.38.31H288.6v4.33Zm1.15-5.36h3.76a1.93,1.93,0,0,0,.93-.22,2.42,2.42,0,0,0,.72-.59,2.84,2.84,0,0,0,.46-.86,3.21,3.21,0,0,0,.17-1,2.94,2.94,0,0,0-.19-1,3.06,3.06,0,0,0-.51-.86,2.49,2.49,0,0,0-.76-.57,2.28,2.28,0,0,0-.92-.2H288.6Z" transform="translate(1.48 -1.08)"/><path class="cls-2" d="M301.8,6.21a3.54,3.54,0,0,0-2,.63,3.14,3.14,0,0,0-1.19,1.63v5.36H297.5V5.22h1.06V7.28a3.89,3.89,0,0,1,1.29-1.55,3,3,0,0,1,1.73-.56h.22Z" transform="translate(1.48 -1.08)"/><path class="cls-2" d="M306.54,14a4,4,0,0,1-1.72-.36,4.36,4.36,0,0,1-2.23-2.39,4.66,4.66,0,0,1-.31-1.7,4.5,4.5,0,0,1,.32-1.72,4.43,4.43,0,0,1,.89-1.42,4.26,4.26,0,0,1,1.35-1,4.22,4.22,0,0,1,3.41,0,4.19,4.19,0,0,1,1.36,1,4.43,4.43,0,0,1,.89,1.42,4.5,4.5,0,0,1,.33,1.72,4.67,4.67,0,0,1-.32,1.7,4.24,4.24,0,0,1-2.24,2.39A4.09,4.09,0,0,1,306.54,14Zm-3.12-4.43a3.47,3.47,0,0,0,.25,1.34,3.27,3.27,0,0,0,.67,1.09,3,3,0,0,0,1,.74,2.77,2.77,0,0,0,1.21.26,2.82,2.82,0,0,0,1.22-.27,3.29,3.29,0,0,0,1-.74,3.63,3.63,0,0,0,.68-1.1,3.78,3.78,0,0,0,.24-1.36,3.84,3.84,0,0,0-.24-1.35,3.52,3.52,0,0,0-.68-1.1,3.17,3.17,0,0,0-1-.75,2.82,2.82,0,0,0-1.22-.27,2.71,2.71,0,0,0-1.2.27,3.2,3.2,0,0,0-1,.76,3.54,3.54,0,0,0-.67,1.11A3.66,3.66,0,0,0,303.42,9.57Z" transform="translate(1.48 -1.08)"/><path class="cls-2" d="M311.42,16.82a3.7,3.7,0,0,1-1-.14,2.26,2.26,0,0,1-.86-.5l.54-.76a1.43,1.43,0,0,0,.58.31,2.28,2.28,0,0,0,.63.09,1.39,1.39,0,0,0,.57-.12,2,2,0,0,0,.49-.32,1.72,1.72,0,0,0,.34-.49,1.4,1.4,0,0,0,.14-.61V5.22H314v9a2.45,2.45,0,0,1-.22,1.06,2.56,2.56,0,0,1-.57.83,2.55,2.55,0,0,1-1.74.72Zm1.41-13.41V1.76H314V3.41Z" transform="translate(1.48 -1.08)"/><path class="cls-2" d="M320.15,14a4.12,4.12,0,0,1-1.73-.36,4.27,4.27,0,0,1-1.36-1,4.44,4.44,0,0,1-.9-1.43,4.57,4.57,0,0,1-.33-1.74,4.6,4.6,0,0,1,1.22-3.12,4.16,4.16,0,0,1,3.08-1.31,4.08,4.08,0,0,1,3.08,1.32,4.44,4.44,0,0,1,.87,1.41,4.52,4.52,0,0,1,.32,1.68v.27a.62.62,0,0,1,0,.18H317a3.6,3.6,0,0,0,.32,1.28,3.69,3.69,0,0,0,.7,1,3.33,3.33,0,0,0,1,.67,2.93,2.93,0,0,0,1.18.24A3,3,0,0,0,321,13a3.67,3.67,0,0,0,.76-.31,3.33,3.33,0,0,0,.63-.49,2,2,0,0,0,.42-.64l1,.27a2.88,2.88,0,0,1-.56.87,4.27,4.27,0,0,1-.84.67,4.18,4.18,0,0,1-1.06.45A4.84,4.84,0,0,1,320.15,14Zm3.17-4.93a3.44,3.44,0,0,0-1-2.25,3.08,3.08,0,0,0-1-.64,2.93,2.93,0,0,0-1.18-.24,3.16,3.16,0,0,0-2.17.88,3.12,3.12,0,0,0-.68,1A4,4,0,0,0,317,9.07Z" transform="translate(1.48 -1.08)"/><path class="cls-2" d="M325.54,9.5a4.69,4.69,0,0,1,.31-1.72,4.28,4.28,0,0,1,.89-1.41,4,4,0,0,1,1.36-1,4.21,4.21,0,0,1,1.75-.35,4,4,0,0,1,2.14.55,3.61,3.61,0,0,1,1.37,1.5l-1.09.35a2.55,2.55,0,0,0-1-1,2.83,2.83,0,0,0-1.44-.37,3,3,0,0,0-1.24.26,3.23,3.23,0,0,0-1,.72,3.42,3.42,0,0,0-.66,1.09,3.79,3.79,0,0,0-.24,1.37,3.7,3.7,0,0,0,.25,1.37,3.43,3.43,0,0,0,.68,1.12,3.18,3.18,0,0,0,1,.74,2.78,2.78,0,0,0,1.21.27,2.85,2.85,0,0,0,.82-.11,3.6,3.6,0,0,0,.75-.32,3.2,3.2,0,0,0,.6-.47,1.73,1.73,0,0,0,.35-.57l1.1.33a2.67,2.67,0,0,1-.53.86,3.81,3.81,0,0,1-.81.67,4.11,4.11,0,0,1-1.05.45,4.6,4.6,0,0,1-1.18.16,4.09,4.09,0,0,1-1.73-.36,4.36,4.36,0,0,1-1.38-1,4.81,4.81,0,0,1-.9-1.43A4.76,4.76,0,0,1,325.54,9.5Z" transform="translate(1.48 -1.08)"/><path class="cls-2" d="M339.35,13.42l-.29.13-.44.17a5.72,5.72,0,0,1-.56.14,2.87,2.87,0,0,1-.67.07,2.26,2.26,0,0,1-.69-.1,1.68,1.68,0,0,1-.58-.3,1.49,1.49,0,0,1-.39-.53,1.62,1.62,0,0,1-.15-.72V6.11h-1.19V5.22h1.19V2.31h1.12V5.22h2v.89h-2V12a.92.92,0,0,0,.34.71,1.21,1.21,0,0,0,.7.22,2.08,2.08,0,0,0,.85-.16,4.2,4.2,0,0,0,.46-.22Z" transform="translate(1.48 -1.08)"/><path class="cls-2" d="M345.2,13.83V2.09h5a3.13,3.13,0,0,1,1.4.32,3.82,3.82,0,0,1,1.1.85,3.91,3.91,0,0,1,.71,1.18,3.51,3.51,0,0,1,.26,1.34,3.93,3.93,0,0,1-.72,2.29,3.08,3.08,0,0,1-.82.79A2.82,2.82,0,0,1,351,9.3l2.88,4.53h-1.31L349.83,9.5h-3.47v4.33Zm1.16-5.36h3.83a2,2,0,0,0,.94-.22,2.31,2.31,0,0,0,.72-.6,3.23,3.23,0,0,0,.46-.86,3.1,3.1,0,0,0,.16-1,2.75,2.75,0,0,0-.19-1,2.6,2.6,0,0,0-.51-.85,2.56,2.56,0,0,0-.76-.58,2.1,2.1,0,0,0-.92-.21h-3.73Z" transform="translate(1.48 -1.08)"/><path class="cls-2" d="M359.24,14a4.09,4.09,0,0,1-1.73-.36,4.32,4.32,0,0,1-1.37-1,4.81,4.81,0,0,1-.9-1.43,4.76,4.76,0,0,1-.32-1.74,4.48,4.48,0,0,1,1.22-3.12,4.33,4.33,0,0,1,4.81-1,4.23,4.23,0,0,1,1.35,1,4.63,4.63,0,0,1,.87,1.41,4.52,4.52,0,0,1,.32,1.68v.27a.62.62,0,0,1,0,.18h-7.38a3.83,3.83,0,0,0,.33,1.28,3.49,3.49,0,0,0,.7,1,3.28,3.28,0,0,0,1,.67,3,3,0,0,0,1.19.24,2.91,2.91,0,0,0,.82-.12,3.46,3.46,0,0,0,.76-.31,3.33,3.33,0,0,0,.63-.49,2.06,2.06,0,0,0,.43-.64l1,.27a2.91,2.91,0,0,1-.57.87,4.11,4.11,0,0,1-1.9,1.12A4.76,4.76,0,0,1,359.24,14Zm3.17-4.93a3.39,3.39,0,0,0-1-2.25,3,3,0,0,0-1-.64,3,3,0,0,0-2.37,0,3,3,0,0,0-1,.64,3.29,3.29,0,0,0-.68,1,3.75,3.75,0,0,0-.3,1.26Z" transform="translate(1.48 -1.08)"/><path class="cls-2" d="M367.39,14a3,3,0,0,1-2.05-.78,2.85,2.85,0,0,1-.6-.85,2.66,2.66,0,0,1-.21-1,2.06,2.06,0,0,1,.26-1,2.57,2.57,0,0,1,.75-.83,3.76,3.76,0,0,1,1.14-.54,5.47,5.47,0,0,1,1.45-.19,7.67,7.67,0,0,1,1.34.12,6.43,6.43,0,0,1,1.21.33V8.39A2.51,2.51,0,0,0,370,6.58a2.34,2.34,0,0,0-1.78-.67,3.74,3.74,0,0,0-1.36.27,6.24,6.24,0,0,0-1.4.76l-.4-.75a5.79,5.79,0,0,1,3.24-1.12,3.48,3.48,0,0,1,2.55.91,3.37,3.37,0,0,1,.92,2.51v3.89c0,.3.14.46.41.46v1a3,3,0,0,1-.42.05,1,1,0,0,1-.67-.21.84.84,0,0,1-.26-.6l0-.68a3.88,3.88,0,0,1-1.5,1.19A4.54,4.54,0,0,1,367.39,14Zm.26-.86a3.86,3.86,0,0,0,1.61-.33,2.66,2.66,0,0,0,1.12-.88,1.08,1.08,0,0,0,.22-.32.88.88,0,0,0,.08-.33V9.88a7.81,7.81,0,0,0-1.17-.33,6.26,6.26,0,0,0-1.23-.12,3.41,3.41,0,0,0-1.93.5,1.51,1.51,0,0,0-.75,1.31,1.7,1.7,0,0,0,.16.74,1.84,1.84,0,0,0,.43.6,2.06,2.06,0,0,0,.65.41A2.16,2.16,0,0,0,367.65,13.14Z" transform="translate(1.48 -1.08)"/><path class="cls-2" d="M373.64,9.5A4.69,4.69,0,0,1,374,7.78a4.28,4.28,0,0,1,.89-1.41,4,4,0,0,1,1.36-1A4.18,4.18,0,0,1,378,5.07a4,4,0,0,1,2.13.55,3.56,3.56,0,0,1,1.38,1.5l-1.09.35a2.68,2.68,0,0,0-1-1,2.87,2.87,0,0,0-1.45-.37,3,3,0,0,0-1.23.26,3.23,3.23,0,0,0-1,.72A3.42,3.42,0,0,0,375,8.13a3.79,3.79,0,0,0-.24,1.37,3.7,3.7,0,0,0,.25,1.37A3.59,3.59,0,0,0,375.7,12a3.29,3.29,0,0,0,1,.74,2.82,2.82,0,0,0,1.22.27,2.89,2.89,0,0,0,.82-.11,3.6,3.6,0,0,0,.75-.32,2.84,2.84,0,0,0,.59-.47,1.45,1.45,0,0,0,.35-.57l1.11.33a2.86,2.86,0,0,1-.53.86,3.63,3.63,0,0,1-.82.67,3.9,3.9,0,0,1-1,.45A4.6,4.6,0,0,1,378,14a4.17,4.17,0,0,1-1.74-.36,4.32,4.32,0,0,1-1.37-1,4.44,4.44,0,0,1-.9-1.43A4.56,4.56,0,0,1,373.64,9.5Z" transform="translate(1.48 -1.08)"/><path class="cls-2" d="M390.55,13.83h-1.12V9a3.87,3.87,0,0,0-.51-2.2,1.69,1.69,0,0,0-1.48-.73,2.68,2.68,0,0,0-.95.19,3.58,3.58,0,0,0-.88.52,3.34,3.34,0,0,0-.72.78,3.15,3.15,0,0,0-.46,1v5.27h-1.12V1.76h1.12V7.17a4,4,0,0,1,1.43-1.54,3.69,3.69,0,0,1,2-.56,2.67,2.67,0,0,1,1.26.27,2.36,2.36,0,0,1,.84.76,3.4,3.4,0,0,1,.48,1.18,7,7,0,0,1,.15,1.51Z" transform="translate(1.48 -1.08)"/></svg>