<svg id="图层_1" data-name="图层 1" xmlns="http://www.w3.org/2000/svg" viewBox="0 0 450.88 159.85"><defs><style>.cls-1{fill:#f0850f;}.cls-2{fill:#939393;}.cls-3{fill:#fff;}.cls-4,.cls-5{fill:none;stroke-miterlimit:10;}.cls-4{stroke:#ef830d;stroke-width:1.07px;}.cls-5{stroke:#939393;stroke-width:0.65px;}</style></defs><title>07_Andrej-Indiana</title><path class="cls-1" d="M295.53,149.54a2.7,2.7,0,0,1-.31,1.31,3.07,3.07,0,0,1-.83,1,3.94,3.94,0,0,1-1.24.64,4.82,4.82,0,0,1-1.48.23,4.45,4.45,0,0,1-1.52-.26,3.75,3.75,0,0,1-1.2-.7,3.16,3.16,0,0,1-.78-1,2.82,2.82,0,0,1-.28-1.25,2.63,2.63,0,0,1,.19-1,3,3,0,0,1,.51-.8,3.36,3.36,0,0,1,.7-.6,4.27,4.27,0,0,1,.8-.4,3.64,3.64,0,0,1-.7-.38,3.12,3.12,0,0,1-.57-.52,2.25,2.25,0,0,1-.39-.65,1.91,1.91,0,0,1-.15-.76,2.28,2.28,0,0,1,.31-1.2,2.77,2.77,0,0,1,.8-.87,3.66,3.66,0,0,1,1.1-.55,4.29,4.29,0,0,1,2.46,0,3.89,3.89,0,0,1,1.1.54,2.78,2.78,0,0,1,.8.87,2.31,2.31,0,0,1,.31,1.2,1.94,1.94,0,0,1-.15.76,2.84,2.84,0,0,1-.4.66,2.93,2.93,0,0,1-.59.52,4,4,0,0,1-.7.38,4,4,0,0,1,.85.43,3.25,3.25,0,0,1,.7.63,2.71,2.71,0,0,1,.48.8A2.63,2.63,0,0,1,295.53,149.54Zm-1.07-.08a1.86,1.86,0,0,0-.25-1,2.14,2.14,0,0,0-.65-.72,2.82,2.82,0,0,0-.9-.45,3,3,0,0,0-2,0,2.79,2.79,0,0,0-.87.46,2.21,2.21,0,0,0-.62.74,2.1,2.1,0,0,0,0,1.93,2.48,2.48,0,0,0,.65.72,3.18,3.18,0,0,0,.88.45,3.33,3.33,0,0,0,1,.15,3.06,3.06,0,0,0,1-.16,2.71,2.71,0,0,0,.87-.47,2.41,2.41,0,0,0,.63-.72A2,2,0,0,0,294.46,149.46Zm-5.13-5a1.44,1.44,0,0,0,.22.8,2,2,0,0,0,.56.59,2.42,2.42,0,0,0,.76.36,3.17,3.17,0,0,0,.83.13,3.06,3.06,0,0,0,.84-.13,2.39,2.39,0,0,0,.77-.37,2,2,0,0,0,.56-.61,1.44,1.44,0,0,0,.22-.8,1.56,1.56,0,0,0-.2-.78,1.79,1.79,0,0,0-.54-.59,2.56,2.56,0,0,0-.76-.37,3.37,3.37,0,0,0-.9-.12,2.93,2.93,0,0,0-.88.13,2.63,2.63,0,0,0-.75.37,1.91,1.91,0,0,0-.53.6A1.63,1.63,0,0,0,289.33,144.44Z" transform="translate(2.69 -1.08)"/><path class="cls-2" d="M305.24,141.59l-7.32,11h-1.19l7.31-11Z" transform="translate(2.69 -1.08)"/><path class="cls-2" d="M314.07,149a3.69,3.69,0,0,1-.3,1.48,3.74,3.74,0,0,1-.83,1.2,3.83,3.83,0,0,1-1.24.8,4.11,4.11,0,0,1-3.13,0,3.42,3.42,0,0,1-1.25-.91,4,4,0,0,1-.81-1.45,5.79,5.79,0,0,1-.3-1.93,12.61,12.61,0,0,1,.3-2.92,6.35,6.35,0,0,1,.83-2.07,3.49,3.49,0,0,1,1.27-1.24,3.42,3.42,0,0,1,1.66-.4,3.64,3.64,0,0,1,2,.54,3.52,3.52,0,0,1,1.32,1.51l-.68.62a2.78,2.78,0,0,0-2.61-1.74,2.4,2.4,0,0,0-1.24.33,2.81,2.81,0,0,0-.95.93,5.24,5.24,0,0,0-.62,1.51,8.42,8.42,0,0,0-.23,2,3,3,0,0,1,1.17-1.46,3.42,3.42,0,0,1,1.89-.54,3.86,3.86,0,0,1,1.48.28,3.7,3.7,0,0,1,2,2A3.73,3.73,0,0,1,314.07,149Zm-3.88,2.85a2.72,2.72,0,0,0,1.11-.23,3,3,0,0,0,.92-.61,2.88,2.88,0,0,0,.62-.91,2.83,2.83,0,0,0,0-2.21,2.91,2.91,0,0,0-.63-.91,3,3,0,0,0-.91-.61,2.79,2.79,0,0,0-2.22,0,2.85,2.85,0,0,0-.91.61,2.8,2.8,0,0,0-.62,3.12,3.17,3.17,0,0,0,.63.9,2.87,2.87,0,0,0,.92.62A2.71,2.71,0,0,0,310.19,151.82Z" transform="translate(2.69 -1.08)"/><path class="cls-2" d="M320.07,148.93a2.56,2.56,0,0,1,1.63.94,2.87,2.87,0,0,1,.62,1.87,3.15,3.15,0,0,1-.26,1.28,2.66,2.66,0,0,1-.73,1,3.2,3.2,0,0,1-1.13.64,4.52,4.52,0,0,1-1.46.22,4.39,4.39,0,0,1-2.07-.47,3.23,3.23,0,0,1-1.33-1.31l.73-.67a2.54,2.54,0,0,0,1,1.09,3.19,3.19,0,0,0,1.68.4,2.7,2.7,0,0,0,1.82-.57,2,2,0,0,0,.67-1.62,2.11,2.11,0,0,0-.7-1.68,2.88,2.88,0,0,0-2-.62h-.39v-.9h.42a2.76,2.76,0,0,0,1.83-.55,1.83,1.83,0,0,0,.63-1.44,1.8,1.8,0,0,0-.17-.82,1.63,1.63,0,0,0-.47-.6,2.07,2.07,0,0,0-.71-.36,3.19,3.19,0,0,0-.89-.12,3.06,3.06,0,0,0-1.56.39,2.61,2.61,0,0,0-1,1.09l-.68-.65a2.48,2.48,0,0,1,.53-.73,3.34,3.34,0,0,1,.77-.57,4.06,4.06,0,0,1,1-.36,4.45,4.45,0,0,1,1.09-.13,4,4,0,0,1,1.31.2,3.1,3.1,0,0,1,1,.56,2.52,2.52,0,0,1,.67.88,2.63,2.63,0,0,1,.24,1.13,2.9,2.9,0,0,1-.13.89,2.42,2.42,0,0,1-.41.76,2.31,2.31,0,0,1-.64.56A2.18,2.18,0,0,1,320.07,148.93Z" transform="translate(2.69 -1.08)"/><path class="cls-2" d="M334.93,152.59h-1.05v-4.51a3.69,3.69,0,0,0-.47-2.06,1.6,1.6,0,0,0-1.39-.68,2.32,2.32,0,0,0-.89.18,3.18,3.18,0,0,0-.83.49,3.32,3.32,0,0,0-.68.72,3.07,3.07,0,0,0-.42.92v4.94h-1.06V141.28h1.06v5.07a3.62,3.62,0,0,1,1.33-1.44,3.37,3.37,0,0,1,1.85-.53,2.47,2.47,0,0,1,1.17.25,2.1,2.1,0,0,1,.79.72,3,3,0,0,1,.45,1.1,6.27,6.27,0,0,1,.14,1.42Z" transform="translate(2.69 -1.08)"/><path class="cls-2" d="M340.62,152.75a3.83,3.83,0,0,1-1.61-.33,4,4,0,0,1-1.26-.91,3.93,3.93,0,0,1-.83-1.34,4.24,4.24,0,0,1-.3-1.59,4.31,4.31,0,0,1,.3-1.61,4.4,4.4,0,0,1,.84-1.34,4.23,4.23,0,0,1,1.26-.91,3.7,3.7,0,0,1,1.6-.34,3.78,3.78,0,0,1,1.61.34,4.15,4.15,0,0,1,1.27.91,4.38,4.38,0,0,1,.83,1.34,4.31,4.31,0,0,1,.31,1.61,4.24,4.24,0,0,1-.3,1.59,4.09,4.09,0,0,1-.83,1.34,4,4,0,0,1-1.27.91A3.91,3.91,0,0,1,340.62,152.75Zm-2.93-4.16a3.35,3.35,0,0,0,.86,2.29,3,3,0,0,0,.93.69,2.68,2.68,0,0,0,2.28,0,3,3,0,0,0,.94-.69,3.22,3.22,0,0,0,.63-1,3.3,3.3,0,0,0,.24-1.27,3.36,3.36,0,0,0-.24-1.26,3.22,3.22,0,0,0-.63-1,3.08,3.08,0,0,0-.94-.7,2.63,2.63,0,0,0-1.14-.25,2.56,2.56,0,0,0-1.13.25,3,3,0,0,0-.93.71,3.48,3.48,0,0,0-.64,1A3.54,3.54,0,0,0,337.69,148.59Z" transform="translate(2.69 -1.08)"/><path class="cls-2" d="M348.93,152.75a2.26,2.26,0,0,1-2-.88,4.36,4.36,0,0,1-.65-2.61v-4.74h1.06v4.55c0,1.83.62,2.75,1.87,2.75a2.66,2.66,0,0,0,.92-.16,2.8,2.8,0,0,0,.83-.45,3.43,3.43,0,0,0,.68-.69,3.84,3.84,0,0,0,.49-.92v-5.08h1.05v6.71c0,.29.13.43.37.43v.93l-.3,0h-.16a.84.84,0,0,1-.61-.26,1,1,0,0,1-.23-.67v-.93a3.82,3.82,0,0,1-3.36,2Z" transform="translate(2.69 -1.08)"/><path class="cls-2" d="M359.64,145.45a3.27,3.27,0,0,0-1.86.59,3,3,0,0,0-1.12,1.53v5h-1.05v-8.07h1v1.94a3.58,3.58,0,0,1,1.21-1.46,2.83,2.83,0,0,1,1.63-.53l.2,0Z" transform="translate(2.69 -1.08)"/><path class="cls-2" d="M363.73,152.75a5.78,5.78,0,0,1-1.84-.31,4.49,4.49,0,0,1-1.55-.9l.48-.71a5,5,0,0,0,1.38.83,4,4,0,0,0,1.52.28,2.72,2.72,0,0,0,1.55-.39,1.29,1.29,0,0,0,.58-1.13,1,1,0,0,0-.15-.56,1.41,1.41,0,0,0-.46-.4,3.75,3.75,0,0,0-.76-.3c-.3-.09-.66-.18-1.06-.27s-.87-.23-1.21-.34a4.15,4.15,0,0,1-.84-.39,1.36,1.36,0,0,1-.5-.54,1.68,1.68,0,0,1-.16-.79,2.28,2.28,0,0,1,.24-1.07,2.21,2.21,0,0,1,.65-.77,3.06,3.06,0,0,1,1-.46,4.47,4.47,0,0,1,1.17-.15,4.58,4.58,0,0,1,1.69.3,3.32,3.32,0,0,1,1.23.8l-.52.62a2.88,2.88,0,0,0-1.09-.7,4,4,0,0,0-1.34-.23,3.64,3.64,0,0,0-.77.08,1.81,1.81,0,0,0-.63.28,1.29,1.29,0,0,0-.43.47,1.41,1.41,0,0,0-.15.67,1.17,1.17,0,0,0,.1.53,1.1,1.1,0,0,0,.36.35,3.15,3.15,0,0,0,.63.26c.25.08.56.16.92.24.52.13,1,.25,1.37.37a4.28,4.28,0,0,1,1,.44,1.72,1.72,0,0,1,.6.6,1.8,1.8,0,0,1,.2.87,2.14,2.14,0,0,1-.85,1.77A3.74,3.74,0,0,1,363.73,152.75Z" transform="translate(2.69 -1.08)"/><path class="cls-1" d="M295.75,114a3.66,3.66,0,0,1-.3,1.48,3.74,3.74,0,0,1-.83,1.2,4,4,0,0,1-1.24.81,4.14,4.14,0,0,1-1.54.29,3.93,3.93,0,0,1-1.59-.32,3.43,3.43,0,0,1-1.25-.9,4.17,4.17,0,0,1-.81-1.45,5.88,5.88,0,0,1-.3-1.93,12.55,12.55,0,0,1,.3-2.92,6.54,6.54,0,0,1,.82-2.08,3.56,3.56,0,0,1,1.28-1.23,3.43,3.43,0,0,1,1.66-.41,3.56,3.56,0,0,1,2,.55,3.44,3.44,0,0,1,1.32,1.5l-.68.62a2.82,2.82,0,0,0-2.61-1.74,2.4,2.4,0,0,0-1.24.33,2.84,2.84,0,0,0-.95.94,4.77,4.77,0,0,0-.62,1.51,8.34,8.34,0,0,0-.23,2,3,3,0,0,1,1.17-1.46,3.4,3.4,0,0,1,1.89-.54,3.69,3.69,0,0,1,1.48.29,3.63,3.63,0,0,1,1.2.79,3.73,3.73,0,0,1,1.1,2.64Zm-3.88,2.85a2.72,2.72,0,0,0,1.11-.22,3,3,0,0,0,.92-.62,2.84,2.84,0,0,0,.62-.9,2.85,2.85,0,0,0,0-2.22,3.08,3.08,0,0,0-.63-.91,3.16,3.16,0,0,0-.91-.61,2.91,2.91,0,0,0-2.22,0,3,3,0,0,0-.91.61,2.73,2.73,0,0,0-.62.91A2.79,2.79,0,0,0,289,114a2.71,2.71,0,0,0,.23,1.1,3.37,3.37,0,0,0,.63.91,2.93,2.93,0,0,0,.92.62A2.7,2.7,0,0,0,291.87,116.85Z" transform="translate(2.69 -1.08)"/><path class="cls-1" d="M302,119.59v-2.75h-5.16v-.93l5.5-7.14H303v7.1h1.37v1H303v2.75Zm-4.05-3.72h4.16v-5.44Z" transform="translate(2.69 -1.08)"/><path class="cls-2" d="M313.82,106.62l-7.31,11h-1.2l7.32-11Z" transform="translate(2.69 -1.08)"/><path class="cls-2" d="M320.29,116.67v1H315v-1h2.2V110a1.63,1.63,0,0,1-.42.4,6.29,6.29,0,0,1-.67.41,6.21,6.21,0,0,1-.75.31,2.38,2.38,0,0,1-.68.12v-1a2,2,0,0,0,.78-.2,5.78,5.78,0,0,0,.8-.47,6.83,6.83,0,0,0,.65-.49,1.29,1.29,0,0,0,.29-.32h1.09v7.9Z" transform="translate(2.69 -1.08)"/><path class="cls-2" d="M321.31,117.63a6.44,6.44,0,0,1,.09-1.07,3.44,3.44,0,0,1,.37-1.06,3.72,3.72,0,0,1,.77-1,5.6,5.6,0,0,1,1.34-.93l.94-.45a6.55,6.55,0,0,0,.9-.51,2.67,2.67,0,0,0,.67-.62,1.32,1.32,0,0,0,.27-.82,1.37,1.37,0,0,0-.14-.58,1.42,1.42,0,0,0-.38-.51,2,2,0,0,0-.64-.36,2.41,2.41,0,0,0-.89-.14,2.65,2.65,0,0,0-.92.14,3.21,3.21,0,0,0-1.22.78c-.14.15-.25.27-.32.36l-.7-.76.35-.34a4.11,4.11,0,0,1,.69-.49,5.46,5.46,0,0,1,1-.45,4,4,0,0,1,1.29-.19,3.81,3.81,0,0,1,1.27.19,2.84,2.84,0,0,1,.95.54,2.6,2.6,0,0,1,.59.78,2.28,2.28,0,0,1,.2.92,2.14,2.14,0,0,1-.28,1.1,3.37,3.37,0,0,1-.69.81,5,5,0,0,1-.88.58l-.83.41a9.77,9.77,0,0,0-1,.49,5,5,0,0,0-.85.6,2.83,2.83,0,0,0-.61.73,1.68,1.68,0,0,0-.24.9H328v1Z" transform="translate(2.69 -1.08)"/><path class="cls-2" d="M337.12,114.57a2.81,2.81,0,0,1-.31,1.31,3.23,3.23,0,0,1-.84,1,3.6,3.6,0,0,1-1.23.64,4.82,4.82,0,0,1-1.48.23,4.37,4.37,0,0,1-1.52-.26,3.7,3.7,0,0,1-1.2-.69,3.09,3.09,0,0,1-.78-1,2.9,2.9,0,0,1-.28-1.26,2.45,2.45,0,0,1,.19-1,3,3,0,0,1,.5-.79,3.42,3.42,0,0,1,.71-.61,3.47,3.47,0,0,1,.8-.39,4.28,4.28,0,0,1-.7-.38,2.85,2.85,0,0,1-.57-.52,2.59,2.59,0,0,1-.4-.65,2,2,0,0,1-.15-.76,2.39,2.39,0,0,1,.31-1.21,3.16,3.16,0,0,1,.8-.87,3.53,3.53,0,0,1,1.1-.54,4.11,4.11,0,0,1,2.47,0,3.74,3.74,0,0,1,1.1.53,2.94,2.94,0,0,1,.8.88,2.37,2.37,0,0,1,.31,1.19,1.94,1.94,0,0,1-.15.76,2.48,2.48,0,0,1-.4.66,3,3,0,0,1-.59.53,4.84,4.84,0,0,1-.71.38,3.37,3.37,0,0,1,.85.42,3.3,3.3,0,0,1,.71.63,3,3,0,0,1,.48.81A2.58,2.58,0,0,1,337.12,114.57Zm-1.07-.07a1.87,1.87,0,0,0-.25-1,2.34,2.34,0,0,0-.65-.72,2.92,2.92,0,0,0-.9-.45,3.4,3.4,0,0,0-1-.16,3.16,3.16,0,0,0-1.86.63,2.47,2.47,0,0,0-.62.74,2.06,2.06,0,0,0-.23,1,1.87,1.87,0,0,0,.25,1,2.44,2.44,0,0,0,.64.72,2.87,2.87,0,0,0,.89.45,3.28,3.28,0,0,0,1,.15,3,3,0,0,0,1-.16,3,3,0,0,0,.88-.46,2.57,2.57,0,0,0,.63-.73A1.92,1.92,0,0,0,336.05,114.5Zm-5.13-5a1.44,1.44,0,0,0,.22.8,2.06,2.06,0,0,0,.55.59,2.59,2.59,0,0,0,.77.36,2.75,2.75,0,0,0,1.67,0,2.34,2.34,0,0,0,.76-.37,1.92,1.92,0,0,0,.57-.6,1.58,1.58,0,0,0,.22-.81,1.56,1.56,0,0,0-.2-.78,2,2,0,0,0-.54-.59,2.38,2.38,0,0,0-.77-.36,3,3,0,0,0-.9-.13,3.16,3.16,0,0,0-.87.13,2.21,2.21,0,0,0-.75.38,1.76,1.76,0,0,0-.53.59A1.63,1.63,0,0,0,330.92,109.47Z" transform="translate(2.69 -1.08)"/><path class="cls-2" d="M347.13,117.78a3.14,3.14,0,0,1-1.8-.52,4,4,0,0,1-1.27-1.31v5H343V109.55H344v1.57a3.92,3.92,0,0,1,1.29-1.24,3.44,3.44,0,0,1,3.25-.12,3.81,3.81,0,0,1,1.21.93,4.3,4.3,0,0,1,.8,1.34,4.45,4.45,0,0,1,.29,1.57,5.08,5.08,0,0,1-.26,1.61,4.16,4.16,0,0,1-.76,1.33,3.55,3.55,0,0,1-1.16.91A3.31,3.31,0,0,1,347.13,117.78Zm-.29-.93a2.45,2.45,0,0,0,1.18-.28,3,3,0,0,0,.92-.73,3.66,3.66,0,0,0,.58-1,3.78,3.78,0,0,0,.2-1.2,3.39,3.39,0,0,0-.87-2.28,3.19,3.19,0,0,0-1-.72,2.8,2.8,0,0,0-1.19-.26,2.35,2.35,0,0,0-.84.16,3.4,3.4,0,0,0-.82.44,2.78,2.78,0,0,0-.65.63,1.65,1.65,0,0,0-.34.77v2.48a4.08,4.08,0,0,0,.47.81,3.63,3.63,0,0,0,.66.64,3.3,3.3,0,0,0,.78.43A2.57,2.57,0,0,0,346.84,116.85Z" transform="translate(2.69 -1.08)"/><path class="cls-2" d="M352.43,109.55l2.42,3.16.12.23.13-.23,2.42-3.16h1.13l-3.09,4.06,3.09,4h-1.13l-2.42-3.15-.13-.22-.12.22-2.42,3.15H351.3l3.08-4-3.08-4.06Z" transform="translate(2.69 -1.08)"/><path class="cls-1" d="M293.47,48v1h-5.25V48h2.2V41.39a1.89,1.89,0,0,1-.43.4,4.77,4.77,0,0,1-.67.41,6.21,6.21,0,0,1-.75.31,2.32,2.32,0,0,1-.68.12v-1a1.76,1.76,0,0,0,.78-.21,4.59,4.59,0,0,0,.81-.46,6.54,6.54,0,0,0,.64-.5,1.09,1.09,0,0,0,.3-.31h1.08V48Z" transform="translate(2.69 -1.08)"/><path class="cls-1" d="M299.33,51V48.19h-5.16v-.93l5.5-7.13h.71v7.1h1.37v1h-1.37V51Zm-4.05-3.72h4.16V41.79Z" transform="translate(2.69 -1.08)"/><path class="cls-1" d="M310.91,44.44a5.76,5.76,0,0,1-.3,1.89,4.41,4.41,0,0,1-.81,1.48,3.73,3.73,0,0,1-1.23,1,3.56,3.56,0,0,1-4.33-1,4.61,4.61,0,0,1-.82-1.48,5.76,5.76,0,0,1-.29-1.89,5.66,5.66,0,0,1,.29-1.88,4.77,4.77,0,0,1,.82-1.49,3.66,3.66,0,0,1,1.23-1,3.52,3.52,0,0,1,3.1,0,3.86,3.86,0,0,1,1.23,1,4.55,4.55,0,0,1,.81,1.49A5.66,5.66,0,0,1,310.91,44.44Zm-1.07,0a5.17,5.17,0,0,0-.21-1.52,3.77,3.77,0,0,0-.58-1.17,2.8,2.8,0,0,0-.89-.76,2.58,2.58,0,0,0-2.3,0,2.8,2.8,0,0,0-.89.76,3.77,3.77,0,0,0-.58,1.17,5.61,5.61,0,0,0,0,3,3.56,3.56,0,0,0,.58,1.17,2.54,2.54,0,0,0,.89.75,2.58,2.58,0,0,0,2.3,0,2.54,2.54,0,0,0,.89-.75,3.56,3.56,0,0,0,.58-1.17A5.12,5.12,0,0,0,309.84,44.44Z" transform="translate(2.69 -1.08)"/><path class="cls-1" d="M320.39,44.44a6,6,0,0,1-.29,1.89,4.79,4.79,0,0,1-.81,1.48,3.67,3.67,0,0,1-1.24,1,3.49,3.49,0,0,1-1.55.35,3.56,3.56,0,0,1-1.55-.35,3.73,3.73,0,0,1-1.23-1,4.41,4.41,0,0,1-.81-1.48,5.76,5.76,0,0,1-.3-1.89,5.66,5.66,0,0,1,.3-1.88,4.55,4.55,0,0,1,.81-1.49,3.86,3.86,0,0,1,1.23-1,3.43,3.43,0,0,1,1.55-.36,3.37,3.37,0,0,1,1.55.36,3.8,3.8,0,0,1,1.24,1,5,5,0,0,1,.81,1.49A5.93,5.93,0,0,1,320.39,44.44Zm-1.07,0a5.54,5.54,0,0,0-.2-1.52,3.78,3.78,0,0,0-.59-1.17,2.6,2.6,0,0,0-.89-.76,2.4,2.4,0,0,0-1.14-.27,2.44,2.44,0,0,0-1.15.27,2.7,2.7,0,0,0-.89.76,3.77,3.77,0,0,0-.58,1.17,5.61,5.61,0,0,0,0,3,3.56,3.56,0,0,0,.58,1.17,2.52,2.52,0,0,0,2,1,2.4,2.4,0,0,0,1.14-.27,2.37,2.37,0,0,0,.89-.75,3.57,3.57,0,0,0,.59-1.17A5.49,5.49,0,0,0,319.32,44.44Z" transform="translate(2.69 -1.08)"/><path class="cls-2" d="M330.17,38l-7.31,11h-1.19L329,38Z" transform="translate(2.69 -1.08)"/><path class="cls-2" d="M331,49a6.41,6.41,0,0,1,.09-1.06,3.73,3.73,0,0,1,.37-1.06,3.93,3.93,0,0,1,.77-1,5.6,5.6,0,0,1,1.34-.93l.94-.45a5.55,5.55,0,0,0,.9-.51,2.53,2.53,0,0,0,.67-.63,1.28,1.28,0,0,0,.27-.81,1.48,1.48,0,0,0-.13-.58,1.58,1.58,0,0,0-.39-.51,2.07,2.07,0,0,0-.64-.37,2.64,2.64,0,0,0-.89-.14,2.55,2.55,0,0,0-.91.15,3.61,3.61,0,0,0-.71.35,3.22,3.22,0,0,0-.52.43c-.14.15-.25.27-.32.36l-.7-.76.36-.34a4.14,4.14,0,0,1,.68-.5,6.24,6.24,0,0,1,1-.44,4.06,4.06,0,0,1,1.29-.19,3.81,3.81,0,0,1,1.27.19,2.84,2.84,0,0,1,.95.54,2.34,2.34,0,0,1,.59.78,2.28,2.28,0,0,1,.2.92,2,2,0,0,1-.28,1.1,3.37,3.37,0,0,1-.69.81,4.62,4.62,0,0,1-.88.58c-.31.16-.58.3-.83.41s-.66.31-1,.49a5,5,0,0,0-.85.6,3.2,3.2,0,0,0-.61.72,1.73,1.73,0,0,0-.24.9h5.52v1Z" transform="translate(2.69 -1.08)"/><path class="cls-2" d="M347,44.44a5.76,5.76,0,0,1-.3,1.89,4.59,4.59,0,0,1-.81,1.48,3.73,3.73,0,0,1-1.23,1,3.56,3.56,0,0,1-1.55.35,3.49,3.49,0,0,1-1.55-.35,3.67,3.67,0,0,1-1.24-1,4.79,4.79,0,0,1-.81-1.48,5.76,5.76,0,0,1-.29-1.89,5.66,5.66,0,0,1,.29-1.88,5,5,0,0,1,.81-1.49,3.8,3.8,0,0,1,1.24-1,3.37,3.37,0,0,1,1.55-.36,3.43,3.43,0,0,1,1.55.36,3.86,3.86,0,0,1,1.23,1,4.75,4.75,0,0,1,.81,1.49A5.66,5.66,0,0,1,347,44.44Zm-1.07,0a5.17,5.17,0,0,0-.21-1.52,4,4,0,0,0-.58-1.17,2.73,2.73,0,0,0-.9-.76,2.39,2.39,0,0,0-1.13-.27,2.48,2.48,0,0,0-1.16.27,2.7,2.7,0,0,0-.89.76,3.77,3.77,0,0,0-.58,1.17,5.61,5.61,0,0,0,0,3,3.56,3.56,0,0,0,.58,1.17,2.45,2.45,0,0,0,.89.75,2.48,2.48,0,0,0,1.16.27,2.39,2.39,0,0,0,1.13-.27,2.48,2.48,0,0,0,.9-.75A3.77,3.77,0,0,0,345.7,46,5.12,5.12,0,0,0,345.91,44.44Z" transform="translate(2.69 -1.08)"/><path class="cls-2" d="M356.46,44.44a6,6,0,0,1-.29,1.89,4.61,4.61,0,0,1-.82,1.48,3.54,3.54,0,0,1-1.23,1,3.61,3.61,0,0,1-3.1,0,3.73,3.73,0,0,1-1.23-1,4.41,4.41,0,0,1-.81-1.48,5.76,5.76,0,0,1-.3-1.89,5.66,5.66,0,0,1,.3-1.88,4.55,4.55,0,0,1,.81-1.49,3.86,3.86,0,0,1,1.23-1,3.52,3.52,0,0,1,3.1,0,3.66,3.66,0,0,1,1.23,1,4.77,4.77,0,0,1,.82,1.49A5.93,5.93,0,0,1,356.46,44.44Zm-1.07,0a5.17,5.17,0,0,0-.21-1.52,3.77,3.77,0,0,0-.58-1.17,2.7,2.7,0,0,0-.89-.76,2.4,2.4,0,0,0-1.14-.27,2.44,2.44,0,0,0-1.15.27,2.6,2.6,0,0,0-.89.76,3.78,3.78,0,0,0-.59,1.17,5.88,5.88,0,0,0,0,3,3.57,3.57,0,0,0,.59,1.17,2.37,2.37,0,0,0,.89.75,2.44,2.44,0,0,0,1.15.27,2.4,2.4,0,0,0,1.14-.27,2.45,2.45,0,0,0,.89-.75,3.56,3.56,0,0,0,.58-1.17A5.12,5.12,0,0,0,355.39,44.44Z" transform="translate(2.69 -1.08)"/><path class="cls-2" d="M366,44.44a5.76,5.76,0,0,1-.3,1.89,4.41,4.41,0,0,1-.81,1.48,3.73,3.73,0,0,1-1.23,1,3.56,3.56,0,0,1-4.33-1,4.61,4.61,0,0,1-.82-1.48,6,6,0,0,1-.29-1.89,5.93,5.93,0,0,1,.29-1.88,4.77,4.77,0,0,1,.82-1.49,3.66,3.66,0,0,1,1.23-1,3.52,3.52,0,0,1,3.1,0,3.86,3.86,0,0,1,1.23,1,4.55,4.55,0,0,1,.81,1.49A5.66,5.66,0,0,1,366,44.44Zm-1.07,0a5.17,5.17,0,0,0-.21-1.52,3.77,3.77,0,0,0-.58-1.17,2.8,2.8,0,0,0-.89-.76,2.58,2.58,0,0,0-2.3,0,2.8,2.8,0,0,0-.89.76,3.77,3.77,0,0,0-.58,1.17,5.61,5.61,0,0,0,0,3,3.56,3.56,0,0,0,.58,1.17,2.54,2.54,0,0,0,.89.75,2.58,2.58,0,0,0,2.3,0,2.54,2.54,0,0,0,.89-.75,3.56,3.56,0,0,0,.58-1.17A5.12,5.12,0,0,0,364.88,44.44Z" transform="translate(2.69 -1.08)"/><path class="cls-2" d="M371.92,39.22V37.67H373v1.55Zm0,9.76V40.91H373V49Z" transform="translate(2.69 -1.08)"/><path class="cls-2" d="M387.31,49h-1.06V44.47a3.74,3.74,0,0,0-.45-2.07,1.49,1.49,0,0,0-1.33-.67,2.38,2.38,0,0,0-.88.17,2.52,2.52,0,0,0-.75.48,3.21,3.21,0,0,0-.62.74,3.53,3.53,0,0,0-.4.93V49h-1.05V44.47a3.87,3.87,0,0,0-.44-2.09,1.49,1.49,0,0,0-1.33-.65,2.37,2.37,0,0,0-1.63.64,3.5,3.5,0,0,0-1,1.67V49h-1.06V40.91h1v1.83a3.85,3.85,0,0,1,1.31-1.45,3.17,3.17,0,0,1,1.78-.52,2.28,2.28,0,0,1,1.63.57,2.55,2.55,0,0,1,.76,1.51,3.44,3.44,0,0,1,3.11-2.08A2.43,2.43,0,0,1,386,41a2,2,0,0,1,.76.7,3.19,3.19,0,0,1,.41,1.1,7,7,0,0,1,.14,1.44Z" transform="translate(2.69 -1.08)"/><path class="cls-2" d="M391.57,49.14a3,3,0,0,1-1.06-.19,2.57,2.57,0,0,1-.85-.54,2.26,2.26,0,0,1-.57-.8,2.45,2.45,0,0,1-.2-1,2,2,0,0,1,.25-1,2.2,2.2,0,0,1,.69-.77,3.43,3.43,0,0,1,1.07-.51,5,5,0,0,1,1.37-.17,7.61,7.61,0,0,1,1.25.1,6.13,6.13,0,0,1,1.13.31v-.73a2.34,2.34,0,0,0-.6-1.69,2.2,2.2,0,0,0-1.67-.63,3.51,3.51,0,0,0-1.28.25,5.84,5.84,0,0,0-1.31.71l-.37-.7a5.44,5.44,0,0,1,3-1,3.27,3.27,0,0,1,2.39.85,3.16,3.16,0,0,1,.87,2.36v3.64c0,.29.13.43.39.43V49a1.86,1.86,0,0,1-.41.05.93.93,0,0,1-.63-.2.79.79,0,0,1-.24-.56l0-.63a3.72,3.72,0,0,1-1.4,1.11A4.28,4.28,0,0,1,391.57,49.14Zm.25-.81a3.58,3.58,0,0,0,1.51-.31,2.45,2.45,0,0,0,1.05-.82.83.83,0,0,0,.2-.3.72.72,0,0,0,.07-.3V45.28a6.51,6.51,0,0,0-1.09-.31,6.31,6.31,0,0,0-1.15-.11,3.23,3.23,0,0,0-1.82.47,1.41,1.41,0,0,0-.69,1.22,1.65,1.65,0,0,0,.14.7,1.88,1.88,0,0,0,.41.56,1.8,1.8,0,0,0,.61.38A1.9,1.9,0,0,0,391.82,48.33Z" transform="translate(2.69 -1.08)"/><path class="cls-2" d="M401.23,49.09a3.25,3.25,0,0,1-1.53-.35,4,4,0,0,1-1.2-.92,4.35,4.35,0,0,1-.78-1.32,4.41,4.41,0,0,1-.28-1.53,4.76,4.76,0,0,1,.27-1.6,4.2,4.2,0,0,1,.77-1.34,3.7,3.7,0,0,1,1.19-.92,3.36,3.36,0,0,1,1.52-.34,3.06,3.06,0,0,1,1.8.52,4.77,4.77,0,0,1,1.3,1.31V40.91h.95V49a3.35,3.35,0,0,1-.32,1.48,3.18,3.18,0,0,1-.85,1.07,3.59,3.59,0,0,1-1.26.65,5.08,5.08,0,0,1-1.52.22A4.47,4.47,0,0,1,399,52a4,4,0,0,1-1.38-1.34l.65-.51a2.9,2.9,0,0,0,1.27,1.14,4.1,4.1,0,0,0,1.71.36,3.68,3.68,0,0,0,1.11-.16,2.93,2.93,0,0,0,.93-.48,2.19,2.19,0,0,0,.62-.81,2.51,2.51,0,0,0,.24-1.13v-1.6a3.38,3.38,0,0,1-1.27,1.22A3.45,3.45,0,0,1,401.23,49.09Zm.29-.88a2.62,2.62,0,0,0,.91-.17,3.14,3.14,0,0,0,.82-.46,2.84,2.84,0,0,0,.61-.64,2.07,2.07,0,0,0,.33-.73v-2.5a3.42,3.42,0,0,0-.47-.8,3.38,3.38,0,0,0-.67-.64,3.73,3.73,0,0,0-.79-.42,2.6,2.6,0,0,0-.86-.15,2.45,2.45,0,0,0-1.22.29,2.88,2.88,0,0,0-.91.75,3.32,3.32,0,0,0-.56,1,3.78,3.78,0,0,0-.2,1.2,3.41,3.41,0,0,0,.88,2.27,3.09,3.09,0,0,0,.95.69A2.75,2.75,0,0,0,401.52,48.21Z" transform="translate(2.69 -1.08)"/><path class="cls-2" d="M411.05,49.14a3.91,3.91,0,0,1-1.62-.33,4.1,4.1,0,0,1-2.12-2.26,4.41,4.41,0,0,1-.3-1.63,4.29,4.29,0,0,1,.3-1.6,4.13,4.13,0,0,1,.84-1.32A3.89,3.89,0,0,1,411,40.77a3.91,3.91,0,0,1,1.62.33,4,4,0,0,1,1.26.91,4.26,4.26,0,0,1,.82,1.32,4.15,4.15,0,0,1,.3,1.58v.25a.65.65,0,0,1,0,.17h-6.91a3.42,3.42,0,0,0,.3,1.2,3.37,3.37,0,0,0,.66.95,2.9,2.9,0,0,0,.92.63,2.78,2.78,0,0,0,1.11.22,2.52,2.52,0,0,0,.77-.11,3.29,3.29,0,0,0,.72-.29,2.85,2.85,0,0,0,.59-.46,2.05,2.05,0,0,0,.4-.59l.91.24a2.72,2.72,0,0,1-.52.82,3.77,3.77,0,0,1-.79.63,3.9,3.9,0,0,1-1,.42A4.17,4.17,0,0,1,411.05,49.14Zm3-4.62a3.31,3.31,0,0,0-.3-1.19,3.39,3.39,0,0,0-.65-.92,2.82,2.82,0,0,0-.92-.6,2.75,2.75,0,0,0-1.11-.22,2.78,2.78,0,0,0-1.11.22,2.86,2.86,0,0,0-.93.6,3.05,3.05,0,0,0-.63.93,3.53,3.53,0,0,0-.29,1.18Z" transform="translate(2.69 -1.08)"/><path class="cls-2" d="M419.34,49.14a5.51,5.51,0,0,1-1.84-.31,4.49,4.49,0,0,1-1.55-.9l.48-.71a5.22,5.22,0,0,0,1.39.83,4,4,0,0,0,1.51.28,2.77,2.77,0,0,0,1.56-.39,1.31,1.31,0,0,0,.58-1.13.93.93,0,0,0-.16-.56,1.37,1.37,0,0,0-.45-.4,4.3,4.3,0,0,0-.76-.3c-.31-.09-.66-.18-1.06-.27s-.87-.23-1.21-.34a3.21,3.21,0,0,1-.85-.39,1.3,1.3,0,0,1-.49-.53,1.75,1.75,0,0,1-.17-.8,2.31,2.31,0,0,1,.24-1.07,2.21,2.21,0,0,1,.65-.77,3.28,3.28,0,0,1,1-.46,4.47,4.47,0,0,1,1.17-.15,4.54,4.54,0,0,1,1.69.3,3.32,3.32,0,0,1,1.23.8l-.51.62a2.92,2.92,0,0,0-1.1-.7,4,4,0,0,0-1.34-.23,3.79,3.79,0,0,0-.77.08,1.81,1.81,0,0,0-.63.28,1.39,1.39,0,0,0-.43.47,1.41,1.41,0,0,0-.15.67,1.13,1.13,0,0,0,.11.53,1,1,0,0,0,.35.35,3.15,3.15,0,0,0,.63.26c.26.08.56.16.92.24.52.13,1,.25,1.37.37a4.28,4.28,0,0,1,1,.44,1.64,1.64,0,0,1,.6.6,1.8,1.8,0,0,1,.2.87,2.12,2.12,0,0,1-.85,1.77A3.72,3.72,0,0,1,419.34,49.14Z" transform="translate(2.69 -1.08)"/><path class="cls-1" d="M293.47,84v1h-5.25V84h2.2V77.38a1.89,1.89,0,0,1-.43.4,4.77,4.77,0,0,1-.67.41,6.21,6.21,0,0,1-.75.31,2.32,2.32,0,0,1-.68.12v-1a1.88,1.88,0,0,0,.78-.2,5.36,5.36,0,0,0,.81-.47,5.3,5.3,0,0,0,.64-.5,1.27,1.27,0,0,0,.3-.3h1.08V84Z" transform="translate(2.69 -1.08)"/><path class="cls-1" d="M302.44,80.43a5.72,5.72,0,0,1-.29,1.89,4.79,4.79,0,0,1-.81,1.48,3.67,3.67,0,0,1-1.24,1,3.49,3.49,0,0,1-1.55.35,3.56,3.56,0,0,1-1.55-.35,3.73,3.73,0,0,1-1.23-1,4.59,4.59,0,0,1-.81-1.48,5.72,5.72,0,0,1-.3-1.89,5.66,5.66,0,0,1,.3-1.88,4.75,4.75,0,0,1,.81-1.49,3.86,3.86,0,0,1,1.23-1,3.43,3.43,0,0,1,1.55-.36,3.37,3.37,0,0,1,1.55.36,3.8,3.8,0,0,1,1.24,1,5,5,0,0,1,.81,1.49A5.66,5.66,0,0,1,302.44,80.43Zm-1.06,0a5.1,5.1,0,0,0-.21-1.51,3.94,3.94,0,0,0-.58-1.18,2.7,2.7,0,0,0-.9-.75,2.29,2.29,0,0,0-1.14-.28,2.36,2.36,0,0,0-1.15.28,2.66,2.66,0,0,0-.89.75,3.72,3.72,0,0,0-.58,1.18,5.57,5.57,0,0,0,0,3,3.56,3.56,0,0,0,.58,1.17,2.45,2.45,0,0,0,2,1,2.52,2.52,0,0,0,1.14-.26,2.62,2.62,0,0,0,.9-.76,3.77,3.77,0,0,0,.58-1.17A5.12,5.12,0,0,0,301.38,80.43Z" transform="translate(2.69 -1.08)"/><path class="cls-1" d="M311.93,80.43a6,6,0,0,1-.29,1.89,4.61,4.61,0,0,1-.82,1.48,3.54,3.54,0,0,1-1.23,1,3.61,3.61,0,0,1-3.1,0,3.63,3.63,0,0,1-1.23-1,4.61,4.61,0,0,1-.82-1.48,6,6,0,0,1-.29-1.89,5.93,5.93,0,0,1,.29-1.88,4.77,4.77,0,0,1,.82-1.49,3.76,3.76,0,0,1,1.23-1,3.52,3.52,0,0,1,3.1,0,3.66,3.66,0,0,1,1.23,1,4.77,4.77,0,0,1,.82,1.49A5.93,5.93,0,0,1,311.93,80.43Zm-1.07,0a5.1,5.1,0,0,0-.21-1.51,3.72,3.72,0,0,0-.58-1.18,2.66,2.66,0,0,0-.89-.75,2.48,2.48,0,0,0-2.29,0,2.7,2.7,0,0,0-.9.75,3.94,3.94,0,0,0-.58,1.18,5.57,5.57,0,0,0,0,3,3.77,3.77,0,0,0,.58,1.17,2.62,2.62,0,0,0,.9.76,2.52,2.52,0,0,0,3.18-.76,3.56,3.56,0,0,0,.58-1.17A5.12,5.12,0,0,0,310.86,80.43Z" transform="translate(2.69 -1.08)"/><path class="cls-1" d="M321.42,80.43a5.72,5.72,0,0,1-.3,1.89,4.59,4.59,0,0,1-.81,1.48,3.73,3.73,0,0,1-1.23,1,3.56,3.56,0,0,1-1.55.35,3.49,3.49,0,0,1-1.55-.35,3.67,3.67,0,0,1-1.24-1,4.79,4.79,0,0,1-.81-1.48,5.72,5.72,0,0,1-.29-1.89,5.66,5.66,0,0,1,.29-1.88,5,5,0,0,1,.81-1.49,3.8,3.8,0,0,1,1.24-1,3.37,3.37,0,0,1,1.55-.36,3.43,3.43,0,0,1,1.55.36,3.86,3.86,0,0,1,1.23,1,4.75,4.75,0,0,1,.81,1.49A5.66,5.66,0,0,1,321.42,80.43Zm-1.07,0a5.1,5.1,0,0,0-.21-1.51,3.72,3.72,0,0,0-.58-1.18,2.77,2.77,0,0,0-.89-.75,2.5,2.5,0,0,0-2.3,0,2.77,2.77,0,0,0-.89.75,3.72,3.72,0,0,0-.58,1.18,5.57,5.57,0,0,0,0,3,3.56,3.56,0,0,0,.58,1.17,2.68,2.68,0,0,0,.89.76,2.67,2.67,0,0,0,2.3,0,2.68,2.68,0,0,0,.89-.76,3.56,3.56,0,0,0,.58-1.17A5.12,5.12,0,0,0,320.35,80.43Z" transform="translate(2.69 -1.08)"/><path class="cls-1" d="M330.9,80.43a6,6,0,0,1-.29,1.89,4.61,4.61,0,0,1-.82,1.48,3.54,3.54,0,0,1-1.23,1,3.61,3.61,0,0,1-3.1,0,3.73,3.73,0,0,1-1.23-1,4.41,4.41,0,0,1-.81-1.48,5.72,5.72,0,0,1-.3-1.89,5.66,5.66,0,0,1,.3-1.88,4.55,4.55,0,0,1,.81-1.49,3.86,3.86,0,0,1,1.23-1,3.52,3.52,0,0,1,3.1,0,3.66,3.66,0,0,1,1.23,1,4.77,4.77,0,0,1,.82,1.49A5.93,5.93,0,0,1,330.9,80.43Zm-1.07,0a5.1,5.1,0,0,0-.21-1.51,3.72,3.72,0,0,0-.58-1.18,2.66,2.66,0,0,0-.89-.75,2.29,2.29,0,0,0-1.14-.28,2.33,2.33,0,0,0-1.15.28,2.57,2.57,0,0,0-.89.75,3.52,3.52,0,0,0-.58,1.18,5.57,5.57,0,0,0,0,3,3.38,3.38,0,0,0,.58,1.17,2.5,2.5,0,0,0,.89.76,2.56,2.56,0,0,0,1.15.26,2.52,2.52,0,0,0,1.14-.26,2.58,2.58,0,0,0,.89-.76,3.56,3.56,0,0,0,.58-1.17A5.12,5.12,0,0,0,329.83,80.43Z" transform="translate(2.69 -1.08)"/><path class="cls-1" d="M340.39,80.43a5.72,5.72,0,0,1-.3,1.89,4.41,4.41,0,0,1-.81,1.48,3.73,3.73,0,0,1-1.23,1,3.56,3.56,0,0,1-4.33-1,4.61,4.61,0,0,1-.82-1.48,6,6,0,0,1-.29-1.89,5.93,5.93,0,0,1,.29-1.88,4.77,4.77,0,0,1,.82-1.49,3.66,3.66,0,0,1,1.23-1,3.52,3.52,0,0,1,3.1,0,3.86,3.86,0,0,1,1.23,1,4.55,4.55,0,0,1,.81,1.49A5.66,5.66,0,0,1,340.39,80.43Zm-1.07,0a5.1,5.1,0,0,0-.21-1.51,3.72,3.72,0,0,0-.58-1.18,2.77,2.77,0,0,0-.89-.75,2.5,2.5,0,0,0-2.3,0,2.77,2.77,0,0,0-.89.75,3.72,3.72,0,0,0-.58,1.18,5.57,5.57,0,0,0,0,3,3.56,3.56,0,0,0,.58,1.17,2.68,2.68,0,0,0,.89.76,2.67,2.67,0,0,0,2.3,0,2.68,2.68,0,0,0,.89-.76,3.56,3.56,0,0,0,.58-1.17A5.12,5.12,0,0,0,339.32,80.43Z" transform="translate(2.69 -1.08)"/><path class="cls-2" d="M350.17,74l-7.32,11h-1.19L349,74Z" transform="translate(2.69 -1.08)"/><path class="cls-2" d="M350.94,85a6.46,6.46,0,0,1,.1-1.07,3.7,3.7,0,0,1,.36-1.06,3.76,3.76,0,0,1,.78-1,5.41,5.41,0,0,1,1.34-.93l.94-.45a5.9,5.9,0,0,0,.89-.51,2.72,2.72,0,0,0,.68-.62,1.38,1.38,0,0,0,.26-.82,1.36,1.36,0,0,0-.13-.58,1.58,1.58,0,0,0-.39-.51,2.14,2.14,0,0,0-.63-.37,2.69,2.69,0,0,0-.89-.13,2.91,2.91,0,0,0-.92.14,3.51,3.51,0,0,0-.7.35,2.9,2.9,0,0,0-.52.43,4.22,4.22,0,0,0-.33.36l-.7-.76.36-.34a4.11,4.11,0,0,1,.69-.49,5.17,5.17,0,0,1,1-.45,4,4,0,0,1,1.29-.19,3.85,3.85,0,0,1,1.27.19,2.7,2.7,0,0,1,.94.54,2.3,2.3,0,0,1,.59.78,2.12,2.12,0,0,1,.2.92,2,2,0,0,1-.28,1.1,3.12,3.12,0,0,1-.68.81,5,5,0,0,1-.88.58c-.31.16-.59.3-.84.41s-.65.31-1,.49a5.28,5.28,0,0,0-.84.6,2.83,2.83,0,0,0-.61.73,1.67,1.67,0,0,0-.24.89h5.51v1Z" transform="translate(2.69 -1.08)"/><path class="cls-2" d="M367,81.35a3.66,3.66,0,0,1-.3,1.48,3.74,3.74,0,0,1-.83,1.2,3.92,3.92,0,0,1-1.24.81,4.08,4.08,0,0,1-1.53.29,4,4,0,0,1-1.6-.32,3.51,3.51,0,0,1-1.25-.9,4.33,4.33,0,0,1-.81-1.45,5.88,5.88,0,0,1-.3-1.93,12.55,12.55,0,0,1,.3-2.92,6.32,6.32,0,0,1,.83-2.08,3.37,3.37,0,0,1,2.94-1.64,3.56,3.56,0,0,1,2,.55,3.44,3.44,0,0,1,1.32,1.5l-.68.62a2.79,2.79,0,0,0-2.6-1.74,2.43,2.43,0,0,0-1.25.33,2.84,2.84,0,0,0-.95.94,5,5,0,0,0-.62,1.51,8.36,8.36,0,0,0-.22,2,2.85,2.85,0,0,1,1.17-1.46,3.36,3.36,0,0,1,1.88-.54,3.81,3.81,0,0,1,2.68,1.08,3.63,3.63,0,0,1,1.1,2.64Zm-3.87,2.85a2.78,2.78,0,0,0,1.11-.22,3,3,0,0,0,.91-.62,2.84,2.84,0,0,0,.62-.9,2.79,2.79,0,0,0,.23-1.11,2.64,2.64,0,0,0-.24-1.11,2.75,2.75,0,0,0-.63-.91,3,3,0,0,0-.91-.61,2.91,2.91,0,0,0-2.22,0,3.16,3.16,0,0,0-.91.61,2.88,2.88,0,0,0-.62.91,2.79,2.79,0,0,0-.23,1.11,2.56,2.56,0,0,0,.24,1.1,3.13,3.13,0,0,0,.62.91A3,3,0,0,0,362,84,2.75,2.75,0,0,0,363.13,84.2Z" transform="translate(2.69 -1.08)"/><path class="cls-2" d="M376.1,81.92a2.7,2.7,0,0,1-.31,1.31,3.1,3.1,0,0,1-.84,1,4,4,0,0,1-1.23.65,5.14,5.14,0,0,1-1.48.22,4.41,4.41,0,0,1-1.52-.26,3.93,3.93,0,0,1-1.2-.69,3.23,3.23,0,0,1-.78-1,2.9,2.9,0,0,1-.28-1.26,2.45,2.45,0,0,1,.19-1,2.82,2.82,0,0,1,.51-.79,3.13,3.13,0,0,1,.7-.61,3.68,3.68,0,0,1,.8-.39,4.28,4.28,0,0,1-.7-.38,3.15,3.15,0,0,1-.57-.52,2.59,2.59,0,0,1-.4-.65,2.14,2.14,0,0,1-.14-.76,2.29,2.29,0,0,1,.31-1.21,2.88,2.88,0,0,1,.8-.87,3.42,3.42,0,0,1,1.1-.54,4,4,0,0,1,1.23-.19,4,4,0,0,1,1.23.19,3.62,3.62,0,0,1,1.1.53,2.81,2.81,0,0,1,.8.88,2.27,2.27,0,0,1,.31,1.19,1.94,1.94,0,0,1-.15.76,2.48,2.48,0,0,1-.4.66,3,3,0,0,1-.59.53,4.38,4.38,0,0,1-.71.38,3.61,3.61,0,0,1,.86.42,3.25,3.25,0,0,1,.7.63,3,3,0,0,1,.48.81A2.58,2.58,0,0,1,376.1,81.92ZM375,81.85a1.87,1.87,0,0,0-.25-1,2.34,2.34,0,0,0-.65-.72,2.92,2.92,0,0,0-.9-.45,3.32,3.32,0,0,0-1-.15,3,3,0,0,0-1,.16,2.9,2.9,0,0,0-.87.46,2.21,2.21,0,0,0-.62.74,2,2,0,0,0,0,1.93,2.48,2.48,0,0,0,.65.72,2.72,2.72,0,0,0,.88.45,3.33,3.33,0,0,0,1,.15,3.11,3.11,0,0,0,1-.16,2.9,2.9,0,0,0,.87-.46,2.57,2.57,0,0,0,.63-.73A1.92,1.92,0,0,0,375,81.85Zm-5.13-5a1.44,1.44,0,0,0,.22.8,2,2,0,0,0,.56.59,2.42,2.42,0,0,0,.76.36,2.76,2.76,0,0,0,.83.13,2.72,2.72,0,0,0,.84-.13,2.49,2.49,0,0,0,.77-.37,1.89,1.89,0,0,0,.56-.6,1.49,1.49,0,0,0,.22-.81,1.56,1.56,0,0,0-.2-.78,1.9,1.9,0,0,0-.54-.59,2.32,2.32,0,0,0-.76-.36,3,3,0,0,0-.9-.13,3.29,3.29,0,0,0-.88.13,2.65,2.65,0,0,0-.75.38,1.88,1.88,0,0,0-.53.59A1.63,1.63,0,0,0,369.9,76.82Z" transform="translate(2.69 -1.08)"/><path class="cls-2" d="M385.51,80.43a5.72,5.72,0,0,1-.3,1.89,4.41,4.41,0,0,1-.81,1.48,3.73,3.73,0,0,1-1.23,1,3.56,3.56,0,0,1-4.33-1,4.61,4.61,0,0,1-.82-1.48,6,6,0,0,1-.29-1.89,5.93,5.93,0,0,1,.29-1.88,4.77,4.77,0,0,1,.82-1.49,3.66,3.66,0,0,1,1.23-1,3.52,3.52,0,0,1,3.1,0,3.86,3.86,0,0,1,1.23,1,4.55,4.55,0,0,1,.81,1.49A5.66,5.66,0,0,1,385.51,80.43Zm-1.07,0a5.1,5.1,0,0,0-.21-1.51,3.72,3.72,0,0,0-.58-1.18,2.77,2.77,0,0,0-.89-.75,2.35,2.35,0,0,0-1.14-.28,2.4,2.4,0,0,0-1.16.28,2.77,2.77,0,0,0-.89.75,3.94,3.94,0,0,0-.58,1.18,5.57,5.57,0,0,0,0,3,3.77,3.77,0,0,0,.58,1.17,2.68,2.68,0,0,0,.89.76,2.63,2.63,0,0,0,1.16.26,2.58,2.58,0,0,0,1.14-.26,2.68,2.68,0,0,0,.89-.76,3.56,3.56,0,0,0,.58-1.17A5.12,5.12,0,0,0,384.44,80.43Z" transform="translate(2.69 -1.08)"/><path class="cls-2" d="M395,80.43a5.72,5.72,0,0,1-.3,1.89,4.79,4.79,0,0,1-.81,1.48,3.67,3.67,0,0,1-1.24,1,3.48,3.48,0,0,1-1.54.35,3.57,3.57,0,0,1-1.56-.35,3.73,3.73,0,0,1-1.23-1,4.79,4.79,0,0,1-.81-1.48,5.72,5.72,0,0,1-.3-1.89,5.66,5.66,0,0,1,.3-1.88,5,5,0,0,1,.81-1.49,3.86,3.86,0,0,1,1.23-1,3.44,3.44,0,0,1,1.56-.36,3.36,3.36,0,0,1,1.54.36,3.8,3.8,0,0,1,1.24,1,5,5,0,0,1,.81,1.49A5.66,5.66,0,0,1,395,80.43Zm-1.07,0a5.1,5.1,0,0,0-.21-1.51,3.94,3.94,0,0,0-.58-1.18,2.7,2.7,0,0,0-.9-.75,2.28,2.28,0,0,0-1.13-.28A2.37,2.37,0,0,0,390,77a2.66,2.66,0,0,0-.89.75,3.72,3.72,0,0,0-.58,1.18,5.57,5.57,0,0,0,0,3,3.56,3.56,0,0,0,.58,1.17,2.45,2.45,0,0,0,2.05,1,2.5,2.5,0,0,0,1.13-.26,2.62,2.62,0,0,0,.9-.76,3.77,3.77,0,0,0,.58-1.17A5.12,5.12,0,0,0,393.93,80.43Z" transform="translate(2.69 -1.08)"/><path class="cls-2" d="M404.48,80.43a6,6,0,0,1-.29,1.89,4.61,4.61,0,0,1-.82,1.48,3.54,3.54,0,0,1-1.23,1,3.61,3.61,0,0,1-3.1,0,3.63,3.63,0,0,1-1.23-1,4.61,4.61,0,0,1-.82-1.48,6,6,0,0,1-.29-1.89,5.93,5.93,0,0,1,.29-1.88,4.77,4.77,0,0,1,.82-1.49,3.76,3.76,0,0,1,1.23-1,3.52,3.52,0,0,1,3.1,0,3.66,3.66,0,0,1,1.23,1,4.77,4.77,0,0,1,.82,1.49A5.93,5.93,0,0,1,404.48,80.43Zm-1.07,0a5.1,5.1,0,0,0-.21-1.51,3.72,3.72,0,0,0-.58-1.18,2.66,2.66,0,0,0-.89-.75,2.48,2.48,0,0,0-2.29,0,2.7,2.7,0,0,0-.9.75,3.94,3.94,0,0,0-.58,1.18,5.57,5.57,0,0,0,0,3,3.77,3.77,0,0,0,.58,1.17,2.62,2.62,0,0,0,.9.76,2.52,2.52,0,0,0,3.18-.76A3.56,3.56,0,0,0,403.2,82,5.12,5.12,0,0,0,403.41,80.43Z" transform="translate(2.69 -1.08)"/><path class="cls-2" d="M414.32,84.59l-.27.12c-.12.05-.25.11-.41.16a4.45,4.45,0,0,1-.53.14,3,3,0,0,1-.62.06,2.37,2.37,0,0,1-.65-.09,1.76,1.76,0,0,1-.54-.29,1.41,1.41,0,0,1-.37-.49,1.62,1.62,0,0,1-.14-.68V77.74h-1.12V76.9h1.12V74.17h1V76.9h1.86v.84h-1.86v5.48a.84.84,0,0,0,.32.66,1.08,1.08,0,0,0,.66.21,2,2,0,0,0,.79-.15,2.63,2.63,0,0,0,.43-.2Z" transform="translate(2.69 -1.08)"/><path class="cls-2" d="M415.64,75.21V73.66h1.05v1.55Zm0,9.77V76.9h1.05V85Z" transform="translate(2.69 -1.08)"/><path class="cls-2" d="M431,85h-1V80.47a3.75,3.75,0,0,0-.45-2.08,1.49,1.49,0,0,0-1.33-.67,2.34,2.34,0,0,0-.88.17,3,3,0,0,0-.76.48,3.17,3.17,0,0,0-.61.74,3.29,3.29,0,0,0-.4.94V85h-1.06V80.47a3.9,3.9,0,0,0-.43-2.1,1.51,1.51,0,0,0-1.34-.65,2.32,2.32,0,0,0-1.62.64,3.52,3.52,0,0,0-1,1.67v5H419V76.9h1v1.83a3.9,3.9,0,0,1,1.3-1.45,3.2,3.2,0,0,1,1.79-.52,2.3,2.3,0,0,1,1.63.57,2.51,2.51,0,0,1,.75,1.51,3.46,3.46,0,0,1,3.12-2.08,2.38,2.38,0,0,1,1.15.25,1.9,1.9,0,0,1,.76.7,3.5,3.5,0,0,1,.42,1.1,7.07,7.07,0,0,1,.13,1.44Z" transform="translate(2.69 -1.08)"/><path class="cls-2" d="M436.75,85.13a3.85,3.85,0,0,1-2.9-1.25,4.11,4.11,0,0,1-.84-1.34,4.37,4.37,0,0,1-.3-1.63,4.29,4.29,0,0,1,.3-1.6,4.13,4.13,0,0,1,.84-1.32,4.17,4.17,0,0,1,1.27-.9,3.92,3.92,0,0,1,4.5.91,4.26,4.26,0,0,1,.82,1.32,4.15,4.15,0,0,1,.29,1.58v.25a.72.72,0,0,1,0,.17h-6.91a3.42,3.42,0,0,0,.3,1.2,3.23,3.23,0,0,0,.66,1,2.9,2.9,0,0,0,.92.63,2.78,2.78,0,0,0,1.11.22,2.91,2.91,0,0,0,.77-.1,3.31,3.31,0,0,0,.72-.3,2.85,2.85,0,0,0,.59-.46,2.05,2.05,0,0,0,.4-.59l.91.25a2.67,2.67,0,0,1-.52.81,4.05,4.05,0,0,1-.79.63,3.42,3.42,0,0,1-1,.42A4.22,4.22,0,0,1,436.75,85.13Zm3-4.62a3.21,3.21,0,0,0-.3-1.18,3.33,3.33,0,0,0-.66-.93,2.83,2.83,0,0,0-.91-.6,2.91,2.91,0,0,0-2.22,0,2.92,2.92,0,0,0-.93.6,3.05,3.05,0,0,0-.63.93,3.59,3.59,0,0,0-.29,1.18Z" transform="translate(2.69 -1.08)"/><path class="cls-2" d="M445,85.13a5.51,5.51,0,0,1-1.84-.31,4.49,4.49,0,0,1-1.55-.9l.48-.71a5.54,5.54,0,0,0,1.39.84,4.17,4.17,0,0,0,1.51.27,2.77,2.77,0,0,0,1.56-.39,1.29,1.29,0,0,0,.58-1.12.94.94,0,0,0-.16-.57,1.25,1.25,0,0,0-.45-.39,3.63,3.63,0,0,0-.76-.31c-.31-.09-.66-.18-1.07-.27s-.86-.23-1.2-.34a3.21,3.21,0,0,1-.85-.39,1.41,1.41,0,0,1-.5-.53,1.87,1.87,0,0,1-.16-.8,2.31,2.31,0,0,1,.24-1.07,2.21,2.21,0,0,1,.65-.77,3,3,0,0,1,1-.45,4.08,4.08,0,0,1,1.17-.16,4.54,4.54,0,0,1,1.69.3,3.32,3.32,0,0,1,1.23.8l-.51.62a2.92,2.92,0,0,0-1.1-.7,4,4,0,0,0-1.34-.23,3.13,3.13,0,0,0-.77.09,1.63,1.63,0,0,0-.63.27,1.39,1.39,0,0,0-.43.47,1.44,1.44,0,0,0-.15.67,1.13,1.13,0,0,0,.11.53.9.9,0,0,0,.35.35,2.66,2.66,0,0,0,.63.26c.26.08.56.16.92.24.52.13,1,.25,1.37.38a3.89,3.89,0,0,1,1,.43,1.66,1.66,0,0,1,.6.61,1.74,1.74,0,0,1,.2.86,2.09,2.09,0,0,1-.85,1.77A3.72,3.72,0,0,1,445,85.13Z" transform="translate(2.69 -1.08)"/><path class="cls-3" d="M166.07,7.62A3,3,0,0,0,165,6.86a3.94,3.94,0,0,0-1.58-.3,3,3,0,0,0-1.91.5,1.65,1.65,0,0,0-.6,1.34,1.43,1.43,0,0,0,.17.73,1.28,1.28,0,0,0,.49.49,3.79,3.79,0,0,0,.85.37q.52.15,1.23.3a12.73,12.73,0,0,1,1.43.38,4.17,4.17,0,0,1,1.08.52,2.24,2.24,0,0,1,.68.76,2.28,2.28,0,0,1,.24,1.11,2.45,2.45,0,0,1-.27,1.18,2.29,2.29,0,0,1-.74.84,3.37,3.37,0,0,1-1.12.49,5.85,5.85,0,0,1-1.43.16,5.92,5.92,0,0,1-4-1.43l.49-.8a3.68,3.68,0,0,0,.63.53,4.28,4.28,0,0,0,.82.44,5,5,0,0,0,1,.29,5.34,5.34,0,0,0,1.08.11,3.35,3.35,0,0,0,1.85-.43,1.42,1.42,0,0,0,.66-1.28,1.49,1.49,0,0,0-.19-.77,1.73,1.73,0,0,0-.56-.55,4.16,4.16,0,0,0-.94-.39c-.37-.12-.8-.23-1.29-.34s-1-.24-1.36-.37a3.52,3.52,0,0,1-1-.49,1.82,1.82,0,0,1-.6-.7,2.22,2.22,0,0,1-.21-1,2.84,2.84,0,0,1,.26-1.22,2.51,2.51,0,0,1,.73-.89A3.82,3.82,0,0,1,162,5.89a5.24,5.24,0,0,1,1.42-.19,4.81,4.81,0,0,1,1.76.3,4.75,4.75,0,0,1,1.4.84Z" transform="translate(2.69 -1.08)"/><path class="cls-3" d="M171.63,5.77h.82l4.1,9.88h-1l-1.28-3.09h-4.43l-1.27,3.09h-1Zm2.39,6-2-4.88-2,4.88Z" transform="translate(2.69 -1.08)"/><path class="cls-3" d="M184.61,14.78v.87H178V5.77h6.51v.86H179v3.56h4.82V11H179v3.76Z" transform="translate(2.69 -1.08)"/><path class="cls-3" d="M194.23,5.77v9.88h-1V11h-5.85v4.62h-1V5.77h1v4.4h5.85V5.77Z" transform="translate(2.69 -1.08)"/><path class="cls-3" d="M196.71,15.65V5.77h3.35a5,5,0,0,1,2.06.39,4.22,4.22,0,0,1,1.48,1.06,4.45,4.45,0,0,1,.89,1.56,6,6,0,0,1,.3,1.92,5.65,5.65,0,0,1-.34,2,4.39,4.39,0,0,1-.95,1.56,4.16,4.16,0,0,1-1.49,1,5.06,5.06,0,0,1-1.95.36Zm7.1-5a5,5,0,0,0-.25-1.64,3.73,3.73,0,0,0-.73-1.29,3.31,3.31,0,0,0-1.17-.84,4,4,0,0,0-1.6-.3h-2.38v8.15h2.38a3.94,3.94,0,0,0,1.62-.31,3.18,3.18,0,0,0,1.17-.86,3.71,3.71,0,0,0,.72-1.29A5.29,5.29,0,0,0,203.81,10.7Z" transform="translate(2.69 -1.08)"/><rect class="cls-4" x="158.08" y="0.54" width="53.51" height="18.21"/><path class="cls-3" d="M46.74,140.92H42.15v11.75H40.89V140.92H36.3V139.8H46.74Z" transform="translate(2.69 -1.08)"/><path class="cls-3" d="M51.13,144.31A4,4,0,0,0,49,145a3.48,3.48,0,0,0-1.3,1.8v5.87H46.42v-9.45h1.16v2.27a4.32,4.32,0,0,1,1.41-1.7,3.3,3.3,0,0,1,1.91-.62l.23,0Z" transform="translate(2.69 -1.08)"/><path class="cls-3" d="M55,152.85a3.33,3.33,0,0,1-1.24-.22,3,3,0,0,1-1-.63,2.92,2.92,0,0,1-.66-.93,2.79,2.79,0,0,1-.24-1.15,2.37,2.37,0,0,1,.29-1.15,2.81,2.81,0,0,1,.82-.9,3.91,3.91,0,0,1,1.25-.59,5.74,5.74,0,0,1,1.6-.21,8.08,8.08,0,0,1,1.46.13,6,6,0,0,1,1.33.36v-.85a2.75,2.75,0,0,0-.71-2,2.58,2.58,0,0,0-2-.73,4,4,0,0,0-1.48.29,7.12,7.12,0,0,0-1.55.83l-.43-.82a6.37,6.37,0,0,1,3.55-1.23,3.81,3.81,0,0,1,2.8,1,3.69,3.69,0,0,1,1,2.75v4.27c0,.33.15.5.46.5v1.09a2.79,2.79,0,0,1-.48.06,1,1,0,0,1-.73-.24.86.86,0,0,1-.28-.65l0-.75a4.21,4.21,0,0,1-1.64,1.31A5.09,5.09,0,0,1,55,152.85Zm.29-.94a4.31,4.31,0,0,0,1.77-.36,2.85,2.85,0,0,0,1.22-1,1.23,1.23,0,0,0,.25-.36.93.93,0,0,0,.08-.35v-1.54a6.94,6.94,0,0,0-1.28-.36,6.72,6.72,0,0,0-1.35-.13,3.77,3.77,0,0,0-2.12.54,1.64,1.64,0,0,0-.82,1.43,2,2,0,0,0,.17.82,2.12,2.12,0,0,0,.48.66,2.05,2.05,0,0,0,.71.45A2.42,2.42,0,0,0,55.32,151.91Z" transform="translate(2.69 -1.08)"/><path class="cls-3" d="M62.54,141.25v-1.82h1.23v1.82Zm0,11.42v-9.45h1.23v9.45Z" transform="translate(2.69 -1.08)"/><path class="cls-3" d="M74.43,152.67H73.2V147.4a4.6,4.6,0,0,0-.5-2.45,1.7,1.7,0,0,0-1.53-.77,3.22,3.22,0,0,0-1.09.2,3.75,3.75,0,0,0-1,.57,4.48,4.48,0,0,0-.82.86,3.4,3.4,0,0,0-.53,1.08v5.78H66.49v-9.45h1.12v2.14a4.41,4.41,0,0,1,1.66-1.66,4.51,4.51,0,0,1,2.35-.64,2.87,2.87,0,0,1,1.33.29,2.28,2.28,0,0,1,.87.82,4,4,0,0,1,.47,1.28,8.82,8.82,0,0,1,.14,1.69Z" transform="translate(2.69 -1.08)"/><path class="cls-3" d="M77.06,141.25v-1.82H78.3v1.82Zm0,11.42v-9.45H78.3v9.45Z" transform="translate(2.69 -1.08)"/><path class="cls-3" d="M89,152.67H87.73V147.4a4.6,4.6,0,0,0-.5-2.45,1.73,1.73,0,0,0-1.54-.77,3.17,3.17,0,0,0-1.08.2,3.6,3.6,0,0,0-1,.57,4.52,4.52,0,0,0-.83.86,3.37,3.37,0,0,0-.52,1.08v5.78H81v-9.45h1.12v2.14a4.41,4.41,0,0,1,1.66-1.66,4.49,4.49,0,0,1,2.35-.64,2.8,2.8,0,0,1,1.32.29,2.28,2.28,0,0,1,.87.82,3.59,3.59,0,0,1,.47,1.28,8.78,8.78,0,0,1,.15,1.69Z" transform="translate(2.69 -1.08)"/><path class="cls-3" d="M95.38,152.8a3.93,3.93,0,0,1-1.79-.41,4.45,4.45,0,0,1-1.39-1.08,4.89,4.89,0,0,1-.92-1.54A5,5,0,0,1,91,148a5.62,5.62,0,0,1,.32-1.88,4.77,4.77,0,0,1,.9-1.57,4.31,4.31,0,0,1,1.39-1.07,3.88,3.88,0,0,1,1.78-.4,3.58,3.58,0,0,1,2.1.61A5.57,5.57,0,0,1,99,145.2v-2h1.1v9.49a3.83,3.83,0,0,1-.37,1.73,3.75,3.75,0,0,1-1,1.26,4.14,4.14,0,0,1-1.46.76,6.2,6.2,0,0,1-1.79.26,5.28,5.28,0,0,1-2.63-.58,4.71,4.71,0,0,1-1.61-1.56L92,154a3.36,3.36,0,0,0,1.49,1.33,4.74,4.74,0,0,0,3.3.24,3.14,3.14,0,0,0,1.07-.57,2.56,2.56,0,0,0,.74-.94,3.07,3.07,0,0,0,.27-1.33v-1.87a4.13,4.13,0,0,1-3.46,2Zm.34-1a3,3,0,0,0,1.07-.2,3.55,3.55,0,0,0,.95-.54,3.19,3.19,0,0,0,.72-.75,2.37,2.37,0,0,0,.38-.85v-2.92a3.59,3.59,0,0,0-.54-.95,3.9,3.9,0,0,0-.78-.74,3.66,3.66,0,0,0-.94-.49,2.89,2.89,0,0,0-1-.18,3,3,0,0,0-1.43.33,3.61,3.61,0,0,0-1.06.88,4,4,0,0,0-.66,1.24A4.45,4.45,0,0,0,92.2,148a3.81,3.81,0,0,0,2.14,3.48A3.23,3.23,0,0,0,95.72,151.77Z" transform="translate(2.69 -1.08)"/><path class="cls-3" d="M116.3,140.92h-4.58v11.75h-1.27V140.92h-4.59V139.8H116.3Z" transform="translate(2.69 -1.08)"/><path class="cls-3" d="M118,141.25v-1.82h1.24v1.82Zm0,11.42v-9.45h1.24v9.45Z" transform="translate(2.69 -1.08)"/><path class="cls-3" d="M136,152.67h-1.23V147.4a4.4,4.4,0,0,0-.53-2.43,1.77,1.77,0,0,0-1.56-.79,2.69,2.69,0,0,0-1,.2,3.14,3.14,0,0,0-.89.57,4.06,4.06,0,0,0-.72.86,4.34,4.34,0,0,0-.47,1.1v5.76h-1.23V147.4a4.5,4.5,0,0,0-.51-2.45,1.75,1.75,0,0,0-1.56-.77,2.75,2.75,0,0,0-1.9.75,4.08,4.08,0,0,0-1.2,2v5.78h-1.23v-9.45h1.12v2.14a4.46,4.46,0,0,1,1.52-1.69,3.76,3.76,0,0,1,2.09-.61,2.67,2.67,0,0,1,1.91.67,2.94,2.94,0,0,1,.88,1.76,4,4,0,0,1,3.65-2.43,2.93,2.93,0,0,1,1.35.29,2.29,2.29,0,0,1,.89.83,4,4,0,0,1,.49,1.28,8.67,8.67,0,0,1,.15,1.68Z" transform="translate(2.69 -1.08)"/><path class="cls-3" d="M142.67,152.85a4.57,4.57,0,0,1-3.39-1.46,5,5,0,0,1-1-1.57,5.28,5.28,0,0,1,0-3.78,4.93,4.93,0,0,1,1-1.54,4.72,4.72,0,0,1,1.5-1.05,4.77,4.77,0,0,1,3.78,0,4.61,4.61,0,0,1,1.48,1.06,4.95,4.95,0,0,1,1.3,3.39v.29a.75.75,0,0,1,0,.2h-8.08a3.88,3.88,0,0,0,1.12,2.52,3.35,3.35,0,0,0,1.08.74,3.32,3.32,0,0,0,1.3.26,3.11,3.11,0,0,0,.9-.13,3.89,3.89,0,0,0,.84-.34,3.22,3.22,0,0,0,.69-.54,2.42,2.42,0,0,0,.47-.69l1.07.29a3.24,3.24,0,0,1-.62.95,4.46,4.46,0,0,1-.92.74,4.52,4.52,0,0,1-1.17.49A4.78,4.78,0,0,1,142.67,152.85Zm3.48-5.4a3.7,3.7,0,0,0-.35-1.39A3.82,3.82,0,0,0,145,145a3.48,3.48,0,0,0-1.07-.7,3.38,3.38,0,0,0-2.6,0,3.2,3.2,0,0,0-1.08.7,3.53,3.53,0,0,0-.75,1.09,4.11,4.11,0,0,0-.33,1.38Z" transform="translate(2.69 -1.08)"/><path class="cls-3" d="M3.35,118.51A5.42,5.42,0,0,1,.89,118,6.14,6.14,0,0,1-1,116.49a6.77,6.77,0,0,1-1.24-2.09A6.94,6.94,0,0,1-2.69,112a6.63,6.63,0,0,1,.46-2.46,7,7,0,0,1,1.28-2.09A6.21,6.21,0,0,1,1,106a5.55,5.55,0,0,1,2.4-.53,5.29,5.29,0,0,1,2.45.57,6.24,6.24,0,0,1,1.91,1.49A7.09,7.09,0,0,1,9,109.62,6.77,6.77,0,0,1,9.39,112a6.69,6.69,0,0,1-.47,2.47,6.57,6.57,0,0,1-1.27,2.08A6.18,6.18,0,0,1,5.74,118,5.36,5.36,0,0,1,3.35,118.51ZM-1.42,112a6,6,0,0,0,.34,2,5.62,5.62,0,0,0,1,1.72,5,5,0,0,0,1.51,1.2,4.26,4.26,0,0,0,1.94.44,4.18,4.18,0,0,0,2-.47,4.78,4.78,0,0,0,1.51-1.23,5.59,5.59,0,0,0,1-1.73,5.74,5.74,0,0,0,.34-2,5.77,5.77,0,0,0-.36-2,5.57,5.57,0,0,0-1-1.71,5,5,0,0,0-1.51-1.19,4.24,4.24,0,0,0-1.92-.44,4.19,4.19,0,0,0-2,.46,4.82,4.82,0,0,0-1.5,1.22,5.74,5.74,0,0,0-1,1.73A6,6,0,0,0-1.42,112Z" transform="translate(2.69 -1.08)"/><path class="cls-3" d="M14.48,118.6a2.65,2.65,0,0,1-2.29-1,5.15,5.15,0,0,1-.75-3.06V109h1.23v5.33q0,3.21,2.19,3.21a3.25,3.25,0,0,0,1.07-.18,3.52,3.52,0,0,0,1-.53,3.89,3.89,0,0,0,.8-.82,3.78,3.78,0,0,0,.57-1.07V109h1.24v7.85c0,.34.14.51.43.51v1.08a1.7,1.7,0,0,1-.35,0H19.4a1,1,0,0,1-.71-.31,1.09,1.09,0,0,1-.27-.78v-1.09A4.41,4.41,0,0,1,16.74,118,4.53,4.53,0,0,1,14.48,118.6Z" transform="translate(2.69 -1.08)"/><path class="cls-3" d="M26.83,118l-.32.14a3.69,3.69,0,0,1-.48.19,5.92,5.92,0,0,1-.61.16,3.41,3.41,0,0,1-.73.07,2.41,2.41,0,0,1-.76-.11,1.73,1.73,0,0,1-.63-.33,1.56,1.56,0,0,1-.44-.57,1.84,1.84,0,0,1-.16-.8V110H21.39v-1H22.7v-3.2h1.23V109h2.18v1H23.93v6.42a1,1,0,0,0,.37.77,1.25,1.25,0,0,0,.77.25,2.45,2.45,0,0,0,.93-.17c.26-.12.43-.2.51-.25Z" transform="translate(2.69 -1.08)"/><path class="cls-3" d="M33.2,118.6a3.79,3.79,0,0,1-2.12-.6,4.8,4.8,0,0,1-1.47-1.54v5.83H28.37V109h1.11v1.83a4.62,4.62,0,0,1,1.5-1.45,4,4,0,0,1,3.81-.14,4.46,4.46,0,0,1,1.42,1.09,4.84,4.84,0,0,1,.93,1.57,5.21,5.21,0,0,1,.34,1.83,5.84,5.84,0,0,1-.31,1.88,4.76,4.76,0,0,1-.88,1.56,4.25,4.25,0,0,1-1.36,1.06A3.88,3.88,0,0,1,33.2,118.6Zm-.35-1.08a2.94,2.94,0,0,0,1.39-.33,3.44,3.44,0,0,0,1.07-.86,3.83,3.83,0,0,0,.68-1.22,4.15,4.15,0,0,0,.23-1.4,3.93,3.93,0,0,0-.27-1.45,4.07,4.07,0,0,0-.74-1.22,3.52,3.52,0,0,0-1.12-.83,3.1,3.1,0,0,0-1.38-.31,2.75,2.75,0,0,0-1,.19,4,4,0,0,0-1,.51,3.34,3.34,0,0,0-.76.74,1.84,1.84,0,0,0-.39.9v2.9a4.24,4.24,0,0,0,1.31,1.7,3.9,3.9,0,0,0,.92.5A2.87,2.87,0,0,0,32.85,117.52Z" transform="translate(2.69 -1.08)"/><path class="cls-3" d="M42.52,118.6a2.67,2.67,0,0,1-2.3-1,5.15,5.15,0,0,1-.75-3.06V109H40.7v5.33c0,2.14.74,3.21,2.2,3.21a3.29,3.29,0,0,0,1.07-.18,3.67,3.67,0,0,0,1-.53,4.45,4.45,0,0,0,.8-.82,4.36,4.36,0,0,0,.57-1.07V109h1.23v7.85c0,.34.15.51.44.51v1.08a1.86,1.86,0,0,1-.36,0h-.19a1,1,0,0,1-.71-.31,1.09,1.09,0,0,1-.27-.78v-1.09A4.41,4.41,0,0,1,44.77,118,4.49,4.49,0,0,1,42.52,118.6Z" transform="translate(2.69 -1.08)"/><path class="cls-3" d="M54.87,118l-.32.14a3.69,3.69,0,0,1-.48.19,6.15,6.15,0,0,1-.62.16,3.38,3.38,0,0,1-.72.07,2.37,2.37,0,0,1-.76-.11,1.69,1.69,0,0,1-.64-.33,1.68,1.68,0,0,1-.44-.57,2,2,0,0,1-.16-.8V110h-1.3v-1h1.3v-3.2H52V109h2.17v1H52v6.42a.94.94,0,0,0,.37.77,1.23,1.23,0,0,0,.77.25,2.36,2.36,0,0,0,.92-.17,4,4,0,0,0,.51-.25Z" transform="translate(2.69 -1.08)"/><path class="cls-3" d="M61.29,118.42V105.55h5.44a3.44,3.44,0,0,1,1.53.35,4.2,4.2,0,0,1,2.27,3.69,4.33,4.33,0,0,1-.21,1.35,3.83,3.83,0,0,1-.58,1.16,3.2,3.2,0,0,1-.89.87,3.07,3.07,0,0,1-1.18.48l3.15,5H69.39l-3-4.75H62.55v4.75Zm1.26-5.87h4.21a2.09,2.09,0,0,0,1-.25,2.49,2.49,0,0,0,.79-.66,3.35,3.35,0,0,0,.68-2,3.17,3.17,0,0,0-.2-1.11,3.07,3.07,0,0,0-.57-.94,2.57,2.57,0,0,0-.83-.63,2.24,2.24,0,0,0-1-.24h-4.1Z" transform="translate(2.69 -1.08)"/><path class="cls-3" d="M76.68,118.6a4.57,4.57,0,0,1-3.39-1.46,5.06,5.06,0,0,1-1-1.56,5.27,5.27,0,0,1-.35-1.91,5.05,5.05,0,0,1,.35-1.87,5,5,0,0,1,1-1.55,4.72,4.72,0,0,1,1.5-1,4.77,4.77,0,0,1,3.78,0A4.77,4.77,0,0,1,80,110.26a4.95,4.95,0,0,1,1.3,3.39v.29a.48.48,0,0,1,0,.2H73.24a3.88,3.88,0,0,0,1.12,2.52,3.35,3.35,0,0,0,1.08.74,3.32,3.32,0,0,0,1.3.26,3.11,3.11,0,0,0,.9-.13,3.44,3.44,0,0,0,.84-.34,3.22,3.22,0,0,0,.69-.54,2.42,2.42,0,0,0,.47-.69l1.07.29a3.12,3.12,0,0,1-.62,1,4.46,4.46,0,0,1-.92.74,4.52,4.52,0,0,1-1.17.49A4.78,4.78,0,0,1,76.68,118.6Zm3.48-5.4a3.7,3.7,0,0,0-.35-1.39,4,4,0,0,0-.76-1.08A3.48,3.48,0,0,0,78,110a3.38,3.38,0,0,0-2.6,0,3.2,3.2,0,0,0-1.08.7,3.65,3.65,0,0,0-.75,1.09,4.17,4.17,0,0,0-.33,1.38Z" transform="translate(2.69 -1.08)"/><path class="cls-3" d="M86.38,118.6a6.6,6.6,0,0,1-2.15-.36,5.12,5.12,0,0,1-1.82-1l.56-.83a6.54,6.54,0,0,0,1.63,1,4.92,4.92,0,0,0,1.77.32,3.19,3.19,0,0,0,1.82-.46,1.51,1.51,0,0,0,.68-1.32,1.16,1.16,0,0,0-.18-.66,1.56,1.56,0,0,0-.54-.46,4,4,0,0,0-.89-.35c-.35-.11-.77-.21-1.24-.32s-1-.27-1.41-.4a4.17,4.17,0,0,1-1-.45,1.58,1.58,0,0,1-.58-.63,2,2,0,0,1-.19-.93,2.65,2.65,0,0,1,.28-1.25,2.47,2.47,0,0,1,.76-.9A3.33,3.33,0,0,1,85,109a5.09,5.09,0,0,1,1.37-.18,5.41,5.41,0,0,1,2,.35,3.92,3.92,0,0,1,1.43.94l-.6.72a3.3,3.3,0,0,0-1.27-.81,4.67,4.67,0,0,0-1.57-.27,3.73,3.73,0,0,0-.91.1,2.09,2.09,0,0,0-.73.31,1.49,1.49,0,0,0-.5.56,1.62,1.62,0,0,0-.18.79,1.32,1.32,0,0,0,.12.61,1.1,1.1,0,0,0,.42.41,3.63,3.63,0,0,0,.73.31c.3.09.66.18,1.08.28.61.14,1.14.29,1.6.43a5.41,5.41,0,0,1,1.15.51,2.06,2.06,0,0,1,.7.71,2,2,0,0,1,.23,1,2.45,2.45,0,0,1-1,2.06A4.32,4.32,0,0,1,86.38,118.6Z" transform="translate(2.69 -1.08)"/><path class="cls-3" d="M96.1,118.6a4.42,4.42,0,0,1-1.88-.39,4.68,4.68,0,0,1-2.45-2.62,5.08,5.08,0,0,1-.35-1.86,5,5,0,0,1,.36-1.89,4.85,4.85,0,0,1,1-1.56,4.76,4.76,0,0,1,1.47-1.07,4.59,4.59,0,0,1,3.75,0,4.84,4.84,0,0,1,1.49,1.07,5.22,5.22,0,0,1,1,1.56,5.16,5.16,0,0,1,.35,1.89,5.29,5.29,0,0,1-.34,1.86,4.78,4.78,0,0,1-1,1.56A4.66,4.66,0,0,1,98,118.21,4.58,4.58,0,0,1,96.1,118.6Zm-3.42-4.86a4,4,0,0,0,1,2.68,3.49,3.49,0,0,0,1.09.81,3.18,3.18,0,0,0,1.33.29,3.09,3.09,0,0,0,1.34-.3,3.48,3.48,0,0,0,1.09-.82,3.8,3.8,0,0,0,.75-1.2,4.22,4.22,0,0,0,0-3,3.74,3.74,0,0,0-.75-1.21,3.48,3.48,0,0,0-1.09-.82,3.09,3.09,0,0,0-1.34-.3,3,3,0,0,0-1.32.3,3.6,3.6,0,0,0-1.09.82,4.12,4.12,0,0,0-.74,1.23A4.07,4.07,0,0,0,92.68,113.74Z" transform="translate(2.69 -1.08)"/><path class="cls-3" d="M102.92,105.18h1.23v11.1a1.16,1.16,0,0,0,.29.83,1.1,1.1,0,0,0,.82.3,2.23,2.23,0,0,0,.47-.06,2.73,2.73,0,0,0,.51-.14l.22,1a3.79,3.79,0,0,1-.85.24,4.93,4.93,0,0,1-.86.09,1.83,1.83,0,0,1-1.34-.48,1.79,1.79,0,0,1-.49-1.35Z" transform="translate(2.69 -1.08)"/><path class="cls-3" d="M110.75,118.6a2.66,2.66,0,0,1-2.29-1,5.15,5.15,0,0,1-.75-3.06V109h1.23v5.33c0,2.14.73,3.21,2.2,3.21a3.29,3.29,0,0,0,1.07-.18,3.67,3.67,0,0,0,1-.53A4.11,4.11,0,0,0,114,116a4.07,4.07,0,0,0,.58-1.07V109h1.23v7.85c0,.34.14.51.43.51v1.08a1.7,1.7,0,0,1-.35,0h-.19a1,1,0,0,1-.71-.31,1.09,1.09,0,0,1-.27-.78v-1.09A4.41,4.41,0,0,1,113,118,4.5,4.5,0,0,1,110.75,118.6Z" transform="translate(2.69 -1.08)"/><path class="cls-3" d="M123.1,118l-.31.14a3.69,3.69,0,0,1-.48.19c-.19.06-.39.11-.62.16a3.41,3.41,0,0,1-.73.07,2.41,2.41,0,0,1-.76-.11,1.73,1.73,0,0,1-.63-.33,1.68,1.68,0,0,1-.44-.57,1.84,1.84,0,0,1-.16-.8V110h-1.31v-1H119v-3.2h1.23V109h2.18v1H120.2v6.42a1,1,0,0,0,.37.77,1.25,1.25,0,0,0,.78.25,2.4,2.4,0,0,0,.92-.17,4.81,4.81,0,0,0,.51-.25Z" transform="translate(2.69 -1.08)"/><path class="cls-3" d="M124.65,107v-1.82h1.23V107Zm0,11.42V109h1.23v9.44Z" transform="translate(2.69 -1.08)"/><path class="cls-3" d="M132.62,118.6a4.49,4.49,0,0,1-1.88-.39,4.68,4.68,0,0,1-2.45-2.62,5.07,5.07,0,0,1-.34-1.86,5,5,0,0,1,.35-1.89,4.85,4.85,0,0,1,1-1.56,4.8,4.8,0,0,1,1.48-1.07,4.4,4.4,0,0,1,1.86-.4,4.49,4.49,0,0,1,1.88.4,4.73,4.73,0,0,1,1.49,1.07,5,5,0,0,1,1,1.56,5.16,5.16,0,0,1,.35,1.89,5.07,5.07,0,0,1-.34,1.86,4.78,4.78,0,0,1-1,1.56,4.66,4.66,0,0,1-1.49,1.06A4.55,4.55,0,0,1,132.62,118.6Zm-3.42-4.86a3.94,3.94,0,0,0,.27,1.48,4.15,4.15,0,0,0,.73,1.2,3.49,3.49,0,0,0,1.09.81,3.18,3.18,0,0,0,1.33.29,3.06,3.06,0,0,0,1.34-.3,3.48,3.48,0,0,0,1.09-.82,3.8,3.8,0,0,0,.75-1.2,4.22,4.22,0,0,0,0-3,3.74,3.74,0,0,0-.75-1.21,3.48,3.48,0,0,0-1.09-.82,3.06,3.06,0,0,0-1.34-.3,3,3,0,0,0-1.32.3,3.6,3.6,0,0,0-1.09.82,4.12,4.12,0,0,0-.74,1.23A4.07,4.07,0,0,0,129.2,113.74Z" transform="translate(2.69 -1.08)"/><path class="cls-3" d="M147.33,118.42H146.1v-5.27a4.62,4.62,0,0,0-.5-2.45,1.69,1.69,0,0,0-1.53-.76,3,3,0,0,0-1.09.2,3.71,3.71,0,0,0-1,.56,4.19,4.19,0,0,0-.82.86,3.4,3.4,0,0,0-.53,1.08v5.78h-1.23V109h1.12v2.14a4.43,4.43,0,0,1,1.66-1.67,4.49,4.49,0,0,1,2.35-.64,2.8,2.8,0,0,1,1.32.29,2.22,2.22,0,0,1,.87.82,3.77,3.77,0,0,1,.48,1.29,9.58,9.58,0,0,1,.14,1.68Z" transform="translate(2.69 -1.08)"/><path class="cls-3" d="M9.6,85.92V73.05h1.27V85.92Z" transform="translate(2.69 -1.08)"/><path class="cls-3" d="M18.38,85.47l-.32.15-.48.18c-.18.06-.39.11-.61.16a3.54,3.54,0,0,1-.73.07,2.37,2.37,0,0,1-.76-.11,1.77,1.77,0,0,1-.64-.33,1.65,1.65,0,0,1-.43-.57,1.85,1.85,0,0,1-.17-.8V77.46h-1.3v-1h1.3v-3.2h1.24v3.2h2.17v1H15.48v6.41a1,1,0,0,0,.37.78,1.28,1.28,0,0,0,.77.24,2.45,2.45,0,0,0,.93-.17,4.32,4.32,0,0,0,.5-.25Z" transform="translate(2.69 -1.08)"/><path class="cls-3" d="M23.77,86.1a4.71,4.71,0,0,1-1.9-.38,4.84,4.84,0,0,1-1.5-1.07A5.13,5.13,0,0,1,19,81.17a4.87,4.87,0,0,1,.36-1.87,4.81,4.81,0,0,1,1-1.55,4.6,4.6,0,0,1,3.38-1.44,4.5,4.5,0,0,1,1.89.39,4.55,4.55,0,0,1,1.48,1.06,5,5,0,0,1,1.31,3.39v.29a.75.75,0,0,1,0,.2H20.32a3.94,3.94,0,0,0,1.12,2.53,3.74,3.74,0,0,0,1.08.73,3.35,3.35,0,0,0,1.3.26,3.4,3.4,0,0,0,1.74-.47,3.17,3.17,0,0,0,.69-.53,2.39,2.39,0,0,0,.47-.7l1.07.29a2.94,2.94,0,0,1-.62,1,4.21,4.21,0,0,1-.92.74,4.45,4.45,0,0,1-1.16.49A4.83,4.83,0,0,1,23.77,86.1Zm3.48-5.4a3.9,3.9,0,0,0-.36-1.39,4,4,0,0,0-.76-1.08,3.36,3.36,0,0,0-1.07-.7,3.3,3.3,0,0,0-1.29-.26,3.48,3.48,0,0,0-2.39,1,3.45,3.45,0,0,0-.74,1.09,4.24,4.24,0,0,0-.34,1.38Z" transform="translate(2.69 -1.08)"/><path class="cls-3" d="M35,77.56a3.94,3.94,0,0,0-2.17.69,3.54,3.54,0,0,0-1.31,1.8v5.87H30.33V76.48h1.16v2.26A4.32,4.32,0,0,1,32.9,77a3.32,3.32,0,0,1,1.91-.62l.23,0Z" transform="translate(2.69 -1.08)"/><path class="cls-3" d="M38.94,86.1a3.37,3.37,0,0,1-1.24-.22,3.14,3.14,0,0,1-1-.63,2.81,2.81,0,0,1-.66-.93,3,3,0,0,1-.23-1.15A2.25,2.25,0,0,1,36.1,82a2.6,2.6,0,0,1,.81-.91,3.91,3.91,0,0,1,1.25-.59,5.79,5.79,0,0,1,1.6-.21,8.27,8.27,0,0,1,1.47.13,5.89,5.89,0,0,1,1.32.36V80a2.75,2.75,0,0,0-.7-2,2.61,2.61,0,0,0-2-.73,4,4,0,0,0-1.49.29,7.06,7.06,0,0,0-1.54.83l-.44-.81A6.34,6.34,0,0,1,40,76.31a3.84,3.84,0,0,1,2.79,1,3.68,3.68,0,0,1,1,2.76v4.26q0,.51.45.51v1.08a2.7,2.7,0,0,1-.47.06,1.06,1.06,0,0,1-.74-.24.88.88,0,0,1-.28-.65l0-.74a4.38,4.38,0,0,1-1.65,1.3A5,5,0,0,1,38.94,86.1Zm.29-.94A4.31,4.31,0,0,0,41,84.8a2.88,2.88,0,0,0,1.23-1,1.1,1.1,0,0,0,.24-.35.84.84,0,0,0,.08-.36V81.59a7.55,7.55,0,0,0-2.63-.49,3.79,3.79,0,0,0-2.12.54A1.68,1.68,0,0,0,37,83.08a2,2,0,0,0,.64,1.47,2.2,2.2,0,0,0,.72.45A2.33,2.33,0,0,0,39.23,85.16Z" transform="translate(2.69 -1.08)"/><path class="cls-3" d="M50.91,85.47l-.32.15a4.13,4.13,0,0,1-.48.18,5.92,5.92,0,0,1-.61.16,3.41,3.41,0,0,1-.73.07,2.41,2.41,0,0,1-.76-.11,1.73,1.73,0,0,1-.63-.33,1.56,1.56,0,0,1-.44-.57,1.84,1.84,0,0,1-.16-.8V77.46H45.47v-1h1.31v-3.2H48v3.2h2.18v1H48v6.41a1,1,0,0,0,.37.78,1.3,1.3,0,0,0,.77.24,2.45,2.45,0,0,0,.93-.17c.26-.12.43-.2.51-.25Z" transform="translate(2.69 -1.08)"/><path class="cls-3" d="M52.45,74.5V72.69h1.24V74.5Zm0,11.42V76.48h1.24v9.44Z" transform="translate(2.69 -1.08)"/><path class="cls-3" d="M60.43,86.1a4.57,4.57,0,0,1-1.88-.38A4.77,4.77,0,0,1,56.1,83.1a5.17,5.17,0,0,1-.35-1.87,5,5,0,0,1,.36-1.89,4.85,4.85,0,0,1,1-1.56,4.76,4.76,0,0,1,1.47-1.07,4.48,4.48,0,0,1,1.87-.4,4.53,4.53,0,0,1,1.88.4,4.84,4.84,0,0,1,1.49,1.07,5.22,5.22,0,0,1,1,1.56,5.22,5.22,0,0,1,0,3.76,4.68,4.68,0,0,1-1,1.55,4.53,4.53,0,0,1-1.48,1.07A4.74,4.74,0,0,1,60.43,86.1ZM57,81.25a3.92,3.92,0,0,0,.27,1.47,3.82,3.82,0,0,0,.73,1.2,3.49,3.49,0,0,0,1.09.81,3.18,3.18,0,0,0,1.33.29,3.09,3.09,0,0,0,1.34-.3,3.48,3.48,0,0,0,1.09-.82,3.87,3.87,0,0,0,.75-1.2,4.22,4.22,0,0,0,0-3,3.92,3.92,0,0,0-.75-1.21,3.48,3.48,0,0,0-1.09-.82,3.09,3.09,0,0,0-1.34-.3,3,3,0,0,0-1.32.3,3.37,3.37,0,0,0-1.09.83,4,4,0,0,0-.74,1.22A4.12,4.12,0,0,0,57,81.25Z" transform="translate(2.69 -1.08)"/><path class="cls-3" d="M75.14,85.92H73.91V80.65a4.62,4.62,0,0,0-.5-2.45,1.71,1.71,0,0,0-1.53-.76,3,3,0,0,0-1.09.2,3.57,3.57,0,0,0-1,.56,4.19,4.19,0,0,0-.82.86,3.2,3.2,0,0,0-.53,1.08v5.78H67.2V76.48h1.12v2.14A4.43,4.43,0,0,1,70,77a4.49,4.49,0,0,1,2.35-.64,2.8,2.8,0,0,1,1.32.29,2.36,2.36,0,0,1,.87.82A3.57,3.57,0,0,1,75,78.71a8.67,8.67,0,0,1,.15,1.68Z" transform="translate(2.69 -1.08)"/><path class="cls-3" d="M86.07,73.05h1.07l5.35,12.87H91.15l-1.67-4H83.7l-1.65,4H80.69Zm3.12,7.85L86.6,74.54,84,80.9Z" transform="translate(2.69 -1.08)"/><path class="cls-3" d="M108.14,85.92h-1.23V80.65a4.42,4.42,0,0,0-.53-2.43,1.76,1.76,0,0,0-1.56-.78,2.51,2.51,0,0,0-1,.2,3.1,3.1,0,0,0-.89.56,4.06,4.06,0,0,0-.72.86,4.34,4.34,0,0,0-.47,1.1v5.76h-1.23V80.65A4.52,4.52,0,0,0,100,78.2a1.74,1.74,0,0,0-1.56-.76,2.74,2.74,0,0,0-1.9.74,4.13,4.13,0,0,0-1.2,2v5.78H94.09V76.48h1.12v2.14a4.51,4.51,0,0,1,1.53-1.7,3.7,3.7,0,0,1,2.08-.61,2.69,2.69,0,0,1,1.91.67,2.89,2.89,0,0,1,.88,1.76,4,4,0,0,1,3.65-2.43,2.93,2.93,0,0,1,1.35.29,2.29,2.29,0,0,1,.89.83,3.78,3.78,0,0,1,.49,1.29,8.57,8.57,0,0,1,.15,1.67Z" transform="translate(2.69 -1.08)"/><path class="cls-3" d="M114.78,86.1a4.66,4.66,0,0,1-1.89-.38,4.6,4.6,0,0,1-1.47-1.07,4.68,4.68,0,0,1-1-1.55,5.08,5.08,0,0,1,1-5.32,4.8,4.8,0,0,1,1.48-1.07,4.45,4.45,0,0,1,1.87-.4,4.53,4.53,0,0,1,1.88.4,4.68,4.68,0,0,1,1.48,1.07,4.85,4.85,0,0,1,1,1.56,5,5,0,0,1,.36,1.89,5.17,5.17,0,0,1-.35,1.87,4.77,4.77,0,0,1-2.45,2.62A4.74,4.74,0,0,1,114.78,86.1Zm-3.43-4.85a3.92,3.92,0,0,0,.27,1.47,4,4,0,0,0,.74,1.2,3.49,3.49,0,0,0,1.09.81,3.15,3.15,0,0,0,1.33.29,3,3,0,0,0,1.33-.3,3.41,3.41,0,0,0,1.1-.82,3.85,3.85,0,0,0,.74-1.2,4.08,4.08,0,0,0,0-3,3.9,3.9,0,0,0-.74-1.21,3.41,3.41,0,0,0-1.1-.82,3,3,0,0,0-1.33-.3,3,3,0,0,0-1.32.3,3.26,3.26,0,0,0-1.09.83,4,4,0,0,0-.75,1.22A4.12,4.12,0,0,0,111.35,81.25Z" transform="translate(2.69 -1.08)"/><path class="cls-3" d="M124.5,86.1a2.65,2.65,0,0,1-2.29-1,5.06,5.06,0,0,1-.76-3V76.48h1.24v5.33q0,3.21,2.19,3.21a3.29,3.29,0,0,0,1.07-.18,3.4,3.4,0,0,0,1-.53,4.15,4.15,0,0,0,.8-.82,4.36,4.36,0,0,0,.57-1.07V76.48h1.23v7.85c0,.34.15.51.44.51v1.08a1.86,1.86,0,0,1-.36,0h-.19a.94.94,0,0,1-.7-.31,1.09,1.09,0,0,1-.28-.78V83.78a4.46,4.46,0,0,1-1.67,1.72A4.53,4.53,0,0,1,124.5,86.1Z" transform="translate(2.69 -1.08)"/><path class="cls-3" d="M140.26,85.92H139V80.65a4.64,4.64,0,0,0-.49-2.45,1.72,1.72,0,0,0-1.54-.76,3,3,0,0,0-1.08.2,3.57,3.57,0,0,0-1,.56,4.52,4.52,0,0,0-.83.86,3.37,3.37,0,0,0-.52,1.08v5.78h-1.24V76.48h1.13v2.14A4.43,4.43,0,0,1,135.1,77a4.49,4.49,0,0,1,2.35-.64,2.8,2.8,0,0,1,1.32.29,2.36,2.36,0,0,1,.87.82,3.57,3.57,0,0,1,.47,1.29,8.67,8.67,0,0,1,.15,1.68Z" transform="translate(2.69 -1.08)"/><path class="cls-3" d="M147.33,85.47l-.32.15-.48.18a5.92,5.92,0,0,1-.61.16,3.48,3.48,0,0,1-.73.07,2.37,2.37,0,0,1-.76-.11,1.86,1.86,0,0,1-.64-.33,1.65,1.65,0,0,1-.43-.57,1.84,1.84,0,0,1-.16-.8V77.46h-1.31v-1h1.31v-3.2h1.23v3.2h2.17v1h-2.17v6.41a1,1,0,0,0,.37.78,1.28,1.28,0,0,0,.77.24,2.45,2.45,0,0,0,.93-.17,4.32,4.32,0,0,0,.5-.25Z" transform="translate(2.69 -1.08)"/><path class="cls-3" d="M46.38,51.58V38.71h4.37a6.59,6.59,0,0,1,2.69.51,5.32,5.32,0,0,1,1.92,1.38,5.69,5.69,0,0,1,1.17,2,7.89,7.89,0,0,1,.39,2.5,7.63,7.63,0,0,1-.44,2.65,5.76,5.76,0,0,1-1.24,2,5.66,5.66,0,0,1-1.94,1.3,6.7,6.7,0,0,1-2.55.46Zm9.27-6.45A6.52,6.52,0,0,0,55.32,43a4.93,4.93,0,0,0-1-1.68,4.35,4.35,0,0,0-1.53-1.1,5.26,5.26,0,0,0-2.09-.39h-3.1V50.46h3.1a5.16,5.16,0,0,0,2.11-.41,4.34,4.34,0,0,0,1.53-1.12,4.73,4.73,0,0,0,.94-1.69A6.81,6.81,0,0,0,55.65,45.13Z" transform="translate(2.69 -1.08)"/><path class="cls-3" d="M61.47,51.77a3.43,3.43,0,0,1-1.25-.23,3,3,0,0,1-1-.63,2.55,2.55,0,0,1-.66-.93,2.79,2.79,0,0,1-.24-1.15,2.42,2.42,0,0,1,.29-1.15,2.59,2.59,0,0,1,.82-.9,3.81,3.81,0,0,1,1.25-.59A5.67,5.67,0,0,1,62.28,46a8.11,8.11,0,0,1,1.47.13,6,6,0,0,1,1.33.36v-.85a2.75,2.75,0,0,0-.71-2,2.59,2.59,0,0,0-2-.73,4.06,4.06,0,0,0-1.49.29,7.29,7.29,0,0,0-1.54.83L59,43.21A6.31,6.31,0,0,1,62.5,42a3.81,3.81,0,0,1,2.79,1,3.68,3.68,0,0,1,1,2.76V50q0,.51.45.51v1.08a2.59,2.59,0,0,1-.47.06,1,1,0,0,1-.73-.24.88.88,0,0,1-.29-.65l0-.74a4.35,4.35,0,0,1-1.64,1.3A5.09,5.09,0,0,1,61.47,51.77Zm.29-1a4.31,4.31,0,0,0,1.77-.36,2.91,2.91,0,0,0,1.22-1,1,1,0,0,0,.24-.36.79.79,0,0,0,.09-.35V47.25a7.17,7.17,0,0,0-1.28-.36,6.72,6.72,0,0,0-1.35-.13,3.82,3.82,0,0,0-2.13.54,1.67,1.67,0,0,0-.81,1.44,2,2,0,0,0,.64,1.47,2.2,2.2,0,0,0,.72.45A2.38,2.38,0,0,0,61.76,50.82Z" transform="translate(2.69 -1.08)"/><path class="cls-3" d="M73.44,51.13l-.32.15-.48.18a6.15,6.15,0,0,1-.62.16,3.38,3.38,0,0,1-.72.07,2.47,2.47,0,0,1-.77-.11,1.73,1.73,0,0,1-.63-.33,1.68,1.68,0,0,1-.44-.57,2,2,0,0,1-.16-.8V43.12H68v-1h1.3v-3.2h1.23v3.2h2.18v1H70.53v6.42a1,1,0,0,0,.38.76,1.23,1.23,0,0,0,.77.25,2.36,2.36,0,0,0,.92-.17,4,4,0,0,0,.51-.25Z" transform="translate(2.69 -1.08)"/><path class="cls-3" d="M77.35,51.77a3.34,3.34,0,0,1-1.24-.23,3.14,3.14,0,0,1-1-.63,2.81,2.81,0,0,1-.66-.93,2.78,2.78,0,0,1-.23-1.15,2.31,2.31,0,0,1,.29-1.15,2.66,2.66,0,0,1,.81-.9,3.91,3.91,0,0,1,1.25-.59,5.79,5.79,0,0,1,1.6-.21,8.27,8.27,0,0,1,1.47.13,6,6,0,0,1,1.32.36v-.85a2.71,2.71,0,0,0-.71-2,2.57,2.57,0,0,0-2-.73,4,4,0,0,0-1.49.29,7.06,7.06,0,0,0-1.54.83l-.44-.81A6.34,6.34,0,0,1,78.39,42a3.84,3.84,0,0,1,2.79,1,3.68,3.68,0,0,1,1,2.76V50c0,.34.16.51.46.51v1.08a2.82,2.82,0,0,1-.47.06,1.06,1.06,0,0,1-.74-.24.88.88,0,0,1-.28-.65l0-.74a4.28,4.28,0,0,1-1.64,1.3A5.09,5.09,0,0,1,77.35,51.77Zm.29-1a4.31,4.31,0,0,0,1.77-.36,2.79,2.79,0,0,0,1.22-1,1.23,1.23,0,0,0,.25-.36.93.93,0,0,0,.08-.35V47.25a6.94,6.94,0,0,0-1.28-.36,6.72,6.72,0,0,0-1.35-.13,3.77,3.77,0,0,0-2.12.54,1.68,1.68,0,0,0-.82,1.44A2.06,2.06,0,0,0,76,50.21a2.26,2.26,0,0,0,.71.45A2.42,2.42,0,0,0,77.64,50.82Z" transform="translate(2.69 -1.08)"/><path class="cls-3" d="M88,51.77a6.63,6.63,0,0,1-2.16-.37,5.07,5.07,0,0,1-1.81-1l.56-.83a6.32,6.32,0,0,0,1.62,1,4.92,4.92,0,0,0,1.77.32,3.17,3.17,0,0,0,1.82-.46,1.49,1.49,0,0,0,.68-1.31,1.17,1.17,0,0,0-.18-.67,1.62,1.62,0,0,0-.53-.46,4.46,4.46,0,0,0-.89-.35c-.36-.11-.77-.21-1.25-.32s-1-.27-1.41-.4a4.17,4.17,0,0,1-1-.45,1.66,1.66,0,0,1-.58-.63,2,2,0,0,1-.19-.93,2.65,2.65,0,0,1,.28-1.25,2.47,2.47,0,0,1,.76-.9,3.59,3.59,0,0,1,1.13-.54A5,5,0,0,1,88,42a5.2,5.2,0,0,1,2,.36,3.82,3.82,0,0,1,1.44.93l-.6.73a3.24,3.24,0,0,0-1.28-.82A4.63,4.63,0,0,0,88,42.9a3.73,3.73,0,0,0-.91.1,2.18,2.18,0,0,0-.73.31,1.58,1.58,0,0,0-.5.56,1.62,1.62,0,0,0-.18.79,1.2,1.2,0,0,0,.13.61,1,1,0,0,0,.41.41,3.23,3.23,0,0,0,.74.31c.29.09.65.18,1.08.28.6.15,1.13.29,1.59.44a4.77,4.77,0,0,1,1.15.5,2,2,0,0,1,.7.71,2,2,0,0,1,.24,1,2.43,2.43,0,0,1-1,2.06A4.29,4.29,0,0,1,88,51.77Z" transform="translate(2.69 -1.08)"/><path class="cls-3" d="M97.77,51.77a4.53,4.53,0,0,1-3.39-1.47,5.06,5.06,0,0,1-1-1.56A5.27,5.27,0,0,1,93,46.83,5.05,5.05,0,0,1,93.39,45a5,5,0,0,1,1-1.55,4.72,4.72,0,0,1,1.5-1,4.77,4.77,0,0,1,3.78,0,4.77,4.77,0,0,1,1.48,1.06,4.95,4.95,0,0,1,1.3,3.39v.29a.48.48,0,0,1,0,.2H94.33a3.88,3.88,0,0,0,1.12,2.52,3.35,3.35,0,0,0,1.08.74,3.15,3.15,0,0,0,1.3.26,3.48,3.48,0,0,0,.9-.12,3.91,3.91,0,0,0,.84-.35,3.17,3.17,0,0,0,.69-.53,2.61,2.61,0,0,0,.47-.7l1.07.29a3.12,3.12,0,0,1-.62,1,4.46,4.46,0,0,1-.92.74,4.26,4.26,0,0,1-1.16.49A4.91,4.91,0,0,1,97.77,51.77Zm3.48-5.41A3.7,3.7,0,0,0,100.9,45a3.77,3.77,0,0,0-.76-1.07,3.38,3.38,0,0,0-3.67-.71,3.08,3.08,0,0,0-1.08.71A3.48,3.48,0,0,0,94.64,45a4.23,4.23,0,0,0-.33,1.38Z" transform="translate(2.69 -1.08)"/><path class="cls-3" d="M108.8,51.13l-.32.15-.48.18a6.15,6.15,0,0,1-.62.16,3.38,3.38,0,0,1-.72.07,2.37,2.37,0,0,1-.76-.11,1.69,1.69,0,0,1-.64-.33,1.68,1.68,0,0,1-.44-.57,2,2,0,0,1-.16-.8V43.12h-1.3v-1h1.3v-3.2h1.24v3.2h2.17v1H105.9v6.42a.92.92,0,0,0,.37.76,1.23,1.23,0,0,0,.77.25,2.36,2.36,0,0,0,.92-.17,4,4,0,0,0,.51-.25Z" transform="translate(2.69 -1.08)"/><path class="cls-3" d="M122.74,41.12a3.94,3.94,0,0,0-1.45-1,5.34,5.34,0,0,0-2.07-.38,3.87,3.87,0,0,0-2.48.65,2.15,2.15,0,0,0-.78,1.75,1.94,1.94,0,0,0,.21,1,1.78,1.78,0,0,0,.64.64,4.38,4.38,0,0,0,1.12.47c.45.14,1,.27,1.6.4a19,19,0,0,1,1.86.49,5.44,5.44,0,0,1,1.41.68,2.77,2.77,0,0,1,.88,1,3,3,0,0,1,.31,1.45,3.24,3.24,0,0,1-.34,1.54,3,3,0,0,1-1,1.09,4.1,4.1,0,0,1-1.47.64,7.81,7.81,0,0,1-1.87.21,7.67,7.67,0,0,1-5.17-1.87l.64-1a5.23,5.23,0,0,0,.82.69,5.72,5.72,0,0,0,1.07.57,7.1,7.1,0,0,0,1.26.38,7.2,7.2,0,0,0,1.42.14,4.51,4.51,0,0,0,2.4-.55,1.87,1.87,0,0,0,.86-1.68,2,2,0,0,0-.24-1,2.2,2.2,0,0,0-.74-.71,4.89,4.89,0,0,0-1.21-.51c-.49-.15-1-.29-1.69-.44a17.58,17.58,0,0,1-1.78-.49,4.93,4.93,0,0,1-1.28-.63,2.38,2.38,0,0,1-.79-.92,2.86,2.86,0,0,1-.27-1.31,3.71,3.71,0,0,1,.34-1.59,3.14,3.14,0,0,1,1-1.16,4.67,4.67,0,0,1,1.45-.71,6.69,6.69,0,0,1,1.85-.24,6.38,6.38,0,0,1,2.3.39,6.25,6.25,0,0,1,1.82,1.09Z" transform="translate(2.69 -1.08)"/><path class="cls-3" d="M126,40.16V38.35h1.23v1.81Zm0,11.42V42.14h1.23v9.44Z" transform="translate(2.69 -1.08)"/><path class="cls-3" d="M129.12,50.75l6.39-7.69h-6.24v-.92h7.58V43l-6.37,7.69h6.35v.92h-7.71Z" transform="translate(2.69 -1.08)"/><path class="cls-3" d="M142.67,51.77a4.53,4.53,0,0,1-3.39-1.47,5.06,5.06,0,0,1-1-1.56,5.27,5.27,0,0,1-.35-1.91,5.05,5.05,0,0,1,.35-1.87,5,5,0,0,1,1-1.55,4.72,4.72,0,0,1,1.5-1,4.77,4.77,0,0,1,3.78,0A4.77,4.77,0,0,1,146,43.42a4.95,4.95,0,0,1,1.3,3.39v.29a.75.75,0,0,1,0,.2h-8.08a3.88,3.88,0,0,0,1.12,2.52,3.35,3.35,0,0,0,1.08.74,3.15,3.15,0,0,0,1.3.26,3.48,3.48,0,0,0,.9-.12,3.91,3.91,0,0,0,.84-.35,3.17,3.17,0,0,0,.69-.53,2.61,2.61,0,0,0,.47-.7l1.07.29a3.12,3.12,0,0,1-.62,1,4.46,4.46,0,0,1-.92.74,4.2,4.2,0,0,1-1.17.49A4.78,4.78,0,0,1,142.67,51.77Zm3.48-5.41A3.7,3.7,0,0,0,145.8,45,3.77,3.77,0,0,0,145,43.9a3.38,3.38,0,0,0-3.67-.71,3.08,3.08,0,0,0-1.08.71,3.48,3.48,0,0,0-.75,1.08,4.23,4.23,0,0,0-.33,1.38Z" transform="translate(2.69 -1.08)"/><path class="cls-3" d="M71.37,2.44h1.07l5.35,12.87H76.45l-1.67-4H69l-1.65,4H66Zm3.12,7.85-2.6-6.36-2.63,6.36Z" transform="translate(2.69 -1.08)"/><path class="cls-3" d="M79.44,2.07h1.23v11.1A1.16,1.16,0,0,0,81,14a1.09,1.09,0,0,0,.82.3,2.23,2.23,0,0,0,.47-.06,2.73,2.73,0,0,0,.51-.14l.21,1a4.55,4.55,0,0,1-.84.23,4.93,4.93,0,0,1-.86.09,1.82,1.82,0,0,1-1.34-.48,1.79,1.79,0,0,1-.49-1.35Z" transform="translate(2.69 -1.08)"/><path class="cls-3" d="M88.11,15.44A3.93,3.93,0,0,1,86.32,15,4.61,4.61,0,0,1,84.92,14,4.94,4.94,0,0,1,84,12.41a5,5,0,0,1-.33-1.79A5.62,5.62,0,0,1,84,8.74a4.77,4.77,0,0,1,.9-1.57A4.38,4.38,0,0,1,86.28,6.1a4,4,0,0,1,1.79-.4,3.58,3.58,0,0,1,2.1.61A5.86,5.86,0,0,1,91.7,7.84v-2h1.1v9.48a3.83,3.83,0,0,1-.37,1.73,3.75,3.75,0,0,1-1,1.26A4.1,4.1,0,0,1,90,19.1a6.08,6.08,0,0,1-1.78.26,5.26,5.26,0,0,1-2.63-.58,4.74,4.74,0,0,1-1.62-1.56l.77-.6A3.39,3.39,0,0,0,86.18,18a4.64,4.64,0,0,0,2,.43,4.59,4.59,0,0,0,1.3-.19,3.35,3.35,0,0,0,1.08-.56,2.68,2.68,0,0,0,.74-.95,3.07,3.07,0,0,0,.27-1.33V13.48a4.13,4.13,0,0,1-3.46,2Zm.34-1a3.07,3.07,0,0,0,1.07-.2,3.55,3.55,0,0,0,1-.54,3.19,3.19,0,0,0,.72-.75,2.37,2.37,0,0,0,.38-.85V9.15a3.59,3.59,0,0,0-.54-1,3.9,3.9,0,0,0-.78-.74A4.21,4.21,0,0,0,89.31,7a3,3,0,0,0-2.43.16A3.32,3.32,0,0,0,85.82,8a4,4,0,0,0-.66,1.24,4.45,4.45,0,0,0-.23,1.39,3.83,3.83,0,0,0,1,2.66,3.56,3.56,0,0,0,1.11.82A3.2,3.2,0,0,0,88.45,14.41Z" transform="translate(2.69 -1.08)"/><path class="cls-3" d="M99.55,15.49a4.5,4.5,0,0,1-1.89-.39A4.61,4.61,0,0,1,96.18,14a4.78,4.78,0,0,1-1-1.56,5.07,5.07,0,0,1-.34-1.86,5.16,5.16,0,0,1,.35-1.89,5.22,5.22,0,0,1,1-1.56A4.8,4.8,0,0,1,97.68,6.1a4.3,4.3,0,0,1,1.87-.4,4.37,4.37,0,0,1,1.88.4,4.68,4.68,0,0,1,1.48,1.07,4.85,4.85,0,0,1,1,1.56,5,5,0,0,1,.36,1.89,5.08,5.08,0,0,1-.35,1.86,4.62,4.62,0,0,1-1,1.56,4.55,4.55,0,0,1-1.49,1.06A4.5,4.5,0,0,1,99.55,15.49Zm-3.43-4.86a3.94,3.94,0,0,0,1,2.68,3.49,3.49,0,0,0,1.09.81,3.15,3.15,0,0,0,1.33.29,3,3,0,0,0,1.33-.3,3.52,3.52,0,0,0,1.1-.82,4,4,0,0,0,.74-1.2,4.22,4.22,0,0,0,0-3A3.78,3.78,0,0,0,102,7.91a3.52,3.52,0,0,0-1.1-.82,3.1,3.1,0,0,0-2.66,0,3.44,3.44,0,0,0-1.08.82,4,4,0,0,0-.75,1.23A4.07,4.07,0,0,0,96.12,10.63Z" transform="translate(2.69 -1.08)"/><path class="cls-3" d="M111,7a4,4,0,0,0-2.18.69,3.46,3.46,0,0,0-1.3,1.8v5.87h-1.24V5.87h1.16V8.13a4.26,4.26,0,0,1,1.42-1.7,3.27,3.27,0,0,1,1.9-.62l.24,0Z" transform="translate(2.69 -1.08)"/><path class="cls-3" d="M112.68,3.89V2.07h1.23V3.89Zm0,11.42V5.87h1.23v9.44Z" transform="translate(2.69 -1.08)"/><path class="cls-3" d="M121.16,14.86l-.31.14a3.69,3.69,0,0,1-.48.19c-.19.06-.39.11-.62.16a3.41,3.41,0,0,1-.73.07,2.41,2.41,0,0,1-.76-.11,1.73,1.73,0,0,1-.63-.33,1.68,1.68,0,0,1-.44-.57,1.84,1.84,0,0,1-.16-.8V6.84h-1.31v-1H117V2.67h1.23v3.2h2.18v1h-2.18v6.42a1,1,0,0,0,.37.77,1.25,1.25,0,0,0,.77.25,2.41,2.41,0,0,0,.93-.17,4.81,4.81,0,0,0,.51-.25Z" transform="translate(2.69 -1.08)"/><path class="cls-3" d="M130.65,15.31h-1.24V10a4.29,4.29,0,0,0-.55-2.42,1.85,1.85,0,0,0-1.62-.79,2.91,2.91,0,0,0-1,.2,4.06,4.06,0,0,0-1.76,1.43,3.39,3.39,0,0,0-.5,1.07v5.78H122.7V2.07h1.24V8a4.21,4.21,0,0,1,1.56-1.68,4,4,0,0,1,2.16-.62A2.86,2.86,0,0,1,129,6a2.5,2.5,0,0,1,.93.84,3.45,3.45,0,0,1,.52,1.28,7.77,7.77,0,0,1,.17,1.66Z" transform="translate(2.69 -1.08)"/><path class="cls-3" d="M147.33,15.31H146.1V10a4.42,4.42,0,0,0-.53-2.43A1.76,1.76,0,0,0,144,6.83a2.51,2.51,0,0,0-1,.2,3.1,3.1,0,0,0-.89.56,4.06,4.06,0,0,0-.72.86,4.34,4.34,0,0,0-.47,1.1v5.76h-1.23V10a4.52,4.52,0,0,0-.51-2.45,1.74,1.74,0,0,0-1.56-.76,2.74,2.74,0,0,0-1.9.74,4.13,4.13,0,0,0-1.2,2v5.78h-1.23V5.87h1.12V8a4.54,4.54,0,0,1,1.52-1.69A3.76,3.76,0,0,1,138,5.7a2.69,2.69,0,0,1,1.91.67,2.94,2.94,0,0,1,.88,1.76,4,4,0,0,1,3.65-2.43A2.93,2.93,0,0,1,145.8,6a2.36,2.36,0,0,1,.89.83,4,4,0,0,1,.49,1.28,8.75,8.75,0,0,1,.15,1.68Z" transform="translate(2.69 -1.08)"/><rect class="cls-2" x="157.54" y="140.95" width="123.97" height="12.1"/><rect class="cls-2" x="157.54" y="106.61" width="123.97" height="12.1"/><rect class="cls-1" x="157.54" y="140.95" width="15.73" height="12.1"/><rect class="cls-1" x="157.54" y="106.61" width="61.99" height="12.1"/><rect class="cls-2" x="157.54" y="72.27" width="123.97" height="12.1"/><rect class="cls-1" x="157.54" y="72.27" width="46.26" height="12.1"/><rect class="cls-2" x="157.54" y="37.93" width="123.97" height="12.1"/><rect class="cls-1" x="157.54" y="37.93" width="86.77" height="12.1"/><polyline class="cls-5" points="281.84 159.85 281.84 22.12 399.45 22.12"/><path class="cls-2" d="M286.24,13.83V2.09h4.86a3.09,3.09,0,0,1,1.39.32,3.57,3.57,0,0,1,1.1.85,3.77,3.77,0,0,1,.73,1.18,3.52,3.52,0,0,1,.27,1.34,4.17,4.17,0,0,1-.25,1.4,3.88,3.88,0,0,1-.7,1.18,3.46,3.46,0,0,1-1.06.83,3.17,3.17,0,0,1-1.38.31h-3.81v4.33Zm1.15-5.36h3.76a1.93,1.93,0,0,0,.93-.22,2.42,2.42,0,0,0,.72-.59,2.84,2.84,0,0,0,.46-.86,3.21,3.21,0,0,0,.17-1,2.73,2.73,0,0,0-.19-1,3.06,3.06,0,0,0-.51-.86,2.49,2.49,0,0,0-.76-.57,2.28,2.28,0,0,0-.92-.2h-3.66Z" transform="translate(2.69 -1.08)"/><path class="cls-2" d="M300.59,6.21a3.54,3.54,0,0,0-2,.63,3.2,3.2,0,0,0-1.19,1.63v5.36h-1.12V5.22h1.06V7.28a3.89,3.89,0,0,1,1.29-1.55,3,3,0,0,1,1.73-.56h.22Z" transform="translate(2.69 -1.08)"/><path class="cls-2" d="M305.33,14a4.08,4.08,0,0,1-1.72-.36,4.36,4.36,0,0,1-2.23-2.39,4.66,4.66,0,0,1,.9-4.84,4.26,4.26,0,0,1,1.35-1,4.22,4.22,0,0,1,3.41,0,4.19,4.19,0,0,1,1.36,1,4.43,4.43,0,0,1,.89,1.42,4.5,4.5,0,0,1,.33,1.72,4.67,4.67,0,0,1-.32,1.7,4.24,4.24,0,0,1-2.24,2.39A4.09,4.09,0,0,1,305.33,14Zm-3.12-4.43a3.62,3.62,0,0,0,.92,2.43,3,3,0,0,0,1,.74,2.77,2.77,0,0,0,1.21.26,2.82,2.82,0,0,0,1.22-.27,3.29,3.29,0,0,0,1-.74,3.63,3.63,0,0,0,.68-1.1,3.78,3.78,0,0,0,.24-1.36,3.84,3.84,0,0,0-.24-1.35,3.52,3.52,0,0,0-.68-1.1,3.17,3.17,0,0,0-1-.75,2.82,2.82,0,0,0-1.22-.27,2.71,2.71,0,0,0-1.2.27,3.2,3.2,0,0,0-1,.76,3.54,3.54,0,0,0-.67,1.11A3.66,3.66,0,0,0,302.21,9.57Z" transform="translate(2.69 -1.08)"/><path class="cls-2" d="M310.21,16.82a3.75,3.75,0,0,1-1-.14,2.26,2.26,0,0,1-.86-.5l.54-.76a1.43,1.43,0,0,0,.58.31,2.28,2.28,0,0,0,.63.09,1.39,1.39,0,0,0,.57-.12,2,2,0,0,0,.49-.32,1.54,1.54,0,0,0,.34-.49,1.4,1.4,0,0,0,.14-.61V5.22h1.12v9a2.61,2.61,0,0,1-.21,1.06,2.91,2.91,0,0,1-.57.83,2.46,2.46,0,0,1-.82.53A2.31,2.31,0,0,1,310.21,16.82Zm1.41-13.41V1.76h1.12V3.41Z" transform="translate(2.69 -1.08)"/><path class="cls-2" d="M318.94,14a4.12,4.12,0,0,1-1.73-.36,4.27,4.27,0,0,1-1.36-1,4.44,4.44,0,0,1-.9-1.43,4.56,4.56,0,0,1-.32-1.74,4.36,4.36,0,0,1,2.57-4.08,4.3,4.3,0,0,1,1.72-.35,4.24,4.24,0,0,1,1.73.35,4.13,4.13,0,0,1,1.35,1,4.66,4.66,0,0,1,.88,1.41,4.52,4.52,0,0,1,.31,1.68v.27a.62.62,0,0,1,0,.18H315.8a3.6,3.6,0,0,0,.32,1.28,3.69,3.69,0,0,0,.7,1,3.33,3.33,0,0,0,1,.67,2.93,2.93,0,0,0,1.18.24,3,3,0,0,0,.83-.12,3.67,3.67,0,0,0,.76-.31,3.33,3.33,0,0,0,.63-.49,2.25,2.25,0,0,0,.43-.64l1,.27a2.88,2.88,0,0,1-.56.87,4,4,0,0,1-.84.67,4.18,4.18,0,0,1-1.06.45A4.84,4.84,0,0,1,318.94,14Zm3.18-4.93a3.72,3.72,0,0,0-.33-1.27,3.46,3.46,0,0,0-.69-1,3.08,3.08,0,0,0-1-.64,2.93,2.93,0,0,0-1.18-.24,3,3,0,0,0-1.19.24,3.08,3.08,0,0,0-1,.64,3.29,3.29,0,0,0-.68,1,4,4,0,0,0-.31,1.26Z" transform="translate(2.69 -1.08)"/><path class="cls-2" d="M324.33,9.5a4.9,4.9,0,0,1,.31-1.72,4.28,4.28,0,0,1,.89-1.41,4,4,0,0,1,1.36-1,4.22,4.22,0,0,1,1.76-.35,4,4,0,0,1,2.13.55,3.61,3.61,0,0,1,1.37,1.5l-1.09.35a2.55,2.55,0,0,0-1-1,2.81,2.81,0,0,0-1.44-.37,3,3,0,0,0-1.24.26,3.23,3.23,0,0,0-1,.72,3.42,3.42,0,0,0-.66,1.09,3.79,3.79,0,0,0-.24,1.37,3.7,3.7,0,0,0,.25,1.37A3.43,3.43,0,0,0,326.4,12a3.18,3.18,0,0,0,1,.74,2.78,2.78,0,0,0,1.21.27,2.85,2.85,0,0,0,.82-.11,3.6,3.6,0,0,0,.75-.32,2.91,2.91,0,0,0,.6-.47,1.73,1.73,0,0,0,.35-.57l1.1.33a2.67,2.67,0,0,1-.53.86,3.81,3.81,0,0,1-.81.67,4.11,4.11,0,0,1-1.05.45,4.6,4.6,0,0,1-1.18.16,4.12,4.12,0,0,1-1.73-.36,4.36,4.36,0,0,1-1.38-1,4.81,4.81,0,0,1-.9-1.43A4.76,4.76,0,0,1,324.33,9.5Z" transform="translate(2.69 -1.08)"/><path class="cls-2" d="M338.14,13.42l-.29.13-.44.17a5.72,5.72,0,0,1-.56.14,2.84,2.84,0,0,1-.66.07,2.28,2.28,0,0,1-.7-.1,1.68,1.68,0,0,1-.58-.3,1.49,1.49,0,0,1-.39-.53,1.62,1.62,0,0,1-.15-.72V6.11h-1.19V5.22h1.19V2.31h1.12V5.22h2v.89h-2V12a.92.92,0,0,0,.34.71,1.21,1.21,0,0,0,.7.22,2.08,2.08,0,0,0,.85-.16,4.2,4.2,0,0,0,.46-.22Z" transform="translate(2.69 -1.08)"/><path class="cls-2" d="M344,13.83V2.09h5a3.13,3.13,0,0,1,1.4.32,3.82,3.82,0,0,1,1.1.85,4.15,4.15,0,0,1,.72,1.18,3.7,3.7,0,0,1,.25,1.34,3.93,3.93,0,0,1-.72,2.29,3.08,3.08,0,0,1-.82.79,2.82,2.82,0,0,1-1.07.44l2.88,4.53h-1.31L348.62,9.5h-3.47v4.33Zm1.16-5.36H349a2,2,0,0,0,.94-.22,2.31,2.31,0,0,0,.72-.6,3.23,3.23,0,0,0,.46-.86,3.1,3.1,0,0,0,.16-1,2.75,2.75,0,0,0-.19-1,2.6,2.6,0,0,0-.51-.85,2.56,2.56,0,0,0-.76-.58,2.1,2.1,0,0,0-.92-.21h-3.73Z" transform="translate(2.69 -1.08)"/><path class="cls-2" d="M358,14a4.09,4.09,0,0,1-1.73-.36,4.43,4.43,0,0,1-1.37-1,4.81,4.81,0,0,1-.9-1.43,4.76,4.76,0,0,1-.32-1.74,4.48,4.48,0,0,1,1.22-3.12,4.33,4.33,0,0,1,4.81-1,4.23,4.23,0,0,1,1.35,1A4.63,4.63,0,0,1,362,7.8a4.52,4.52,0,0,1,.32,1.68v.27a.62.62,0,0,1,0,.18h-7.37a3.6,3.6,0,0,0,.32,1.28,3.49,3.49,0,0,0,.7,1,3.28,3.28,0,0,0,1,.67,3,3,0,0,0,1.19.24,2.91,2.91,0,0,0,.82-.12,3.46,3.46,0,0,0,.76-.31,3,3,0,0,0,.63-.49,2.06,2.06,0,0,0,.43-.64l1,.27a2.88,2.88,0,0,1-.56.87,4.33,4.33,0,0,1-.85.67,4,4,0,0,1-1.06.45A4.7,4.7,0,0,1,358,14Zm3.17-4.93a3.49,3.49,0,0,0-.32-1.27,3.3,3.3,0,0,0-.7-1,3,3,0,0,0-1-.64A2.93,2.93,0,0,0,358,5.94a3,3,0,0,0-1.19.24,3,3,0,0,0-1,.64,3.48,3.48,0,0,0-.68,1,3.75,3.75,0,0,0-.3,1.26Z" transform="translate(2.69 -1.08)"/><path class="cls-2" d="M366.18,14a3,3,0,0,1-1.14-.21,2.88,2.88,0,0,1-.9-.57,2.71,2.71,0,0,1-.61-.85,2.66,2.66,0,0,1-.21-1,2.17,2.17,0,0,1,.26-1,2.57,2.57,0,0,1,.75-.83,3.76,3.76,0,0,1,1.14-.54,5.47,5.47,0,0,1,1.45-.19,7.67,7.67,0,0,1,1.34.12,6.43,6.43,0,0,1,1.21.33V8.39a2.51,2.51,0,0,0-.65-1.81A2.34,2.34,0,0,0,367,5.91a3.74,3.74,0,0,0-1.36.27,6.24,6.24,0,0,0-1.4.76l-.4-.75a5.79,5.79,0,0,1,3.24-1.12,3.48,3.48,0,0,1,2.55.91,3.37,3.37,0,0,1,.92,2.51v3.89c0,.3.14.46.42.46v1a3.14,3.14,0,0,1-.43.05,1,1,0,0,1-.67-.21.84.84,0,0,1-.26-.6l0-.68a3.88,3.88,0,0,1-1.5,1.19A4.54,4.54,0,0,1,366.18,14Zm.26-.86a3.86,3.86,0,0,0,1.61-.33,2.66,2.66,0,0,0,1.12-.88,1.08,1.08,0,0,0,.22-.32.88.88,0,0,0,.08-.33V9.88a7.81,7.81,0,0,0-1.17-.33,6.26,6.26,0,0,0-1.23-.12,3.41,3.41,0,0,0-1.93.5,1.51,1.51,0,0,0-.75,1.31,1.7,1.7,0,0,0,.16.74,1.84,1.84,0,0,0,.43.6,2.06,2.06,0,0,0,.65.41A2.24,2.24,0,0,0,366.44,13.14Z" transform="translate(2.69 -1.08)"/><path class="cls-2" d="M372.43,9.5a4.69,4.69,0,0,1,.31-1.72,4.28,4.28,0,0,1,.89-1.41,4,4,0,0,1,1.36-1,4.18,4.18,0,0,1,1.75-.35,4,4,0,0,1,2.14.55,3.61,3.61,0,0,1,1.37,1.5l-1.09.35a2.62,2.62,0,0,0-1-1,2.87,2.87,0,0,0-1.45-.37,3,3,0,0,0-1.23.26,3.23,3.23,0,0,0-1,.72,3.42,3.42,0,0,0-.66,1.09,3.79,3.79,0,0,0-.24,1.37,3.7,3.7,0,0,0,.25,1.37,3.59,3.59,0,0,0,.67,1.12,3.29,3.29,0,0,0,1,.74,2.82,2.82,0,0,0,1.22.27,2.89,2.89,0,0,0,.82-.11,3.6,3.6,0,0,0,.75-.32,3.2,3.2,0,0,0,.6-.47,1.54,1.54,0,0,0,.34-.57l1.11.33a2.86,2.86,0,0,1-.53.86,3.63,3.63,0,0,1-.82.67,3.9,3.9,0,0,1-1,.45,4.6,4.6,0,0,1-1.18.16,4.17,4.17,0,0,1-1.74-.36,4.32,4.32,0,0,1-1.37-1,4.44,4.44,0,0,1-.9-1.43A4.56,4.56,0,0,1,372.43,9.5Z" transform="translate(2.69 -1.08)"/><path class="cls-2" d="M389.34,13.83h-1.12V9a3.87,3.87,0,0,0-.51-2.2,1.69,1.69,0,0,0-1.48-.73,2.68,2.68,0,0,0-1,.19,3.58,3.58,0,0,0-.88.52,3.34,3.34,0,0,0-.72.78,3.15,3.15,0,0,0-.46,1v5.27H382.1V1.76h1.12V7.17a4,4,0,0,1,1.43-1.54,3.69,3.69,0,0,1,2-.56,2.67,2.67,0,0,1,1.26.27,2.36,2.36,0,0,1,.84.76,3.4,3.4,0,0,1,.48,1.18,7,7,0,0,1,.15,1.51Z" transform="translate(2.69 -1.08)"/></svg>