<svg id="图层_1" data-name="图层 1" xmlns="http://www.w3.org/2000/svg" viewBox="0 0 428.8 160.59"><defs><style>.cls-1{fill:#f0850f;}.cls-2{fill:#f8b877;}.cls-3{fill:#939393;}.cls-4{fill:#fff;}.cls-5,.cls-6{fill:none;stroke-miterlimit:10;}.cls-5{stroke:#ef830d;stroke-width:1.07px;}.cls-6{stroke:#939393;stroke-width:0.66px;}</style></defs><title>05_sherlock</title><path class="cls-1" d="M300.6,75.78a5.18,5.18,0,0,1,.08-1,3.65,3.65,0,0,1,.33-1,3.58,3.58,0,0,1,.7-.91,4.93,4.93,0,0,1,1.21-.84c.27-.14.55-.28.85-.41a7.76,7.76,0,0,0,.81-.45,2.58,2.58,0,0,0,.61-.57,1.19,1.19,0,0,0,.24-.74,1.23,1.23,0,0,0-.12-.52A1.41,1.41,0,0,0,305,69a1.72,1.72,0,0,0-.58-.33,2.17,2.17,0,0,0-.8-.13,2.68,2.68,0,0,0-.83.13,3.09,3.09,0,0,0-.63.32,2.68,2.68,0,0,0-.47.38l-.3.33-.63-.68.32-.31a3.43,3.43,0,0,1,.63-.45,4.75,4.75,0,0,1,.9-.4,3.82,3.82,0,0,1,1.16-.17,3.71,3.71,0,0,1,1.15.17,2.59,2.59,0,0,1,.85.48,2.27,2.27,0,0,1,.54.71,2,2,0,0,1,.18.83,2,2,0,0,1-.25,1,2.94,2.94,0,0,1-.63.73,4.15,4.15,0,0,1-.79.52c-.28.15-.53.27-.75.37s-.59.28-.88.44a5.68,5.68,0,0,0-.76.54,2.61,2.61,0,0,0-.55.66,1.49,1.49,0,0,0-.22.81h5v.87Z" transform="translate(-8.35 -0.71)"/><path class="cls-1" d="M315.07,71.68a5.46,5.46,0,0,1-.26,1.7,4.22,4.22,0,0,1-.74,1.34,3.29,3.29,0,0,1-1.11.89,3.32,3.32,0,0,1-2.8,0,3.29,3.29,0,0,1-1.11-.89,4,4,0,0,1-.74-1.34,5.49,5.49,0,0,1,0-3.4,4.19,4.19,0,0,1,.74-1.35,3.38,3.38,0,0,1,1.11-.88,3.13,3.13,0,0,1,2.8,0,3.38,3.38,0,0,1,1.11.88,4.39,4.39,0,0,1,.74,1.35A5.41,5.41,0,0,1,315.07,71.68Zm-1,0a4.82,4.82,0,0,0-.19-1.37,3.29,3.29,0,0,0-.53-1.06,2.51,2.51,0,0,0-.8-.69,2.35,2.35,0,0,0-2.07,0,2.45,2.45,0,0,0-.81.69,3.28,3.28,0,0,0-.52,1.06,4.49,4.49,0,0,0-.19,1.37,4.54,4.54,0,0,0,.19,1.37,3.38,3.38,0,0,0,.52,1.06,2.31,2.31,0,0,0,.81.68,2.35,2.35,0,0,0,2.07,0,2.36,2.36,0,0,0,.8-.68,3.4,3.4,0,0,0,.53-1.06A4.88,4.88,0,0,0,314.11,71.68Z" transform="translate(-8.35 -0.71)"/><path class="cls-1" d="M323.64,71.68a5.18,5.18,0,0,1-.27,1.7,4,4,0,0,1-.73,1.34,3.29,3.29,0,0,1-1.11.89,3.32,3.32,0,0,1-2.8,0,3.42,3.42,0,0,1-1.12-.89,4.2,4.2,0,0,1-.73-1.34,5.49,5.49,0,0,1,0-3.4,4.37,4.37,0,0,1,.73-1.35,3.53,3.53,0,0,1,1.12-.88,3.13,3.13,0,0,1,2.8,0,3.38,3.38,0,0,1,1.11.88,4.17,4.17,0,0,1,.73,1.35A5.14,5.14,0,0,1,323.64,71.68Zm-1,0a4.84,4.84,0,0,0-.18-1.37,3.51,3.51,0,0,0-.53-1.06,2.51,2.51,0,0,0-.8-.69,2.26,2.26,0,0,0-1-.24,2.28,2.28,0,0,0-1.05.24,2.51,2.51,0,0,0-.8.69,3.29,3.29,0,0,0-.53,1.06,4.82,4.82,0,0,0-.19,1.37,4.88,4.88,0,0,0,.19,1.37,3.4,3.4,0,0,0,.53,1.06,2.36,2.36,0,0,0,.8.68,2.28,2.28,0,0,0,1.05.24,2.26,2.26,0,0,0,1-.24,2.36,2.36,0,0,0,.8-.68,3.63,3.63,0,0,0,.53-1.06A4.89,4.89,0,0,0,322.67,71.68Z" transform="translate(-8.35 -0.71)"/><path class="cls-1" d="M332.21,71.68a5.18,5.18,0,0,1-.27,1.7,4.2,4.2,0,0,1-.73,1.34,3.42,3.42,0,0,1-1.12.89,3.32,3.32,0,0,1-2.8,0,3.29,3.29,0,0,1-1.11-.89,4,4,0,0,1-.73-1.34,5.49,5.49,0,0,1,0-3.4,4.17,4.17,0,0,1,.73-1.35,3.38,3.38,0,0,1,1.11-.88,3.13,3.13,0,0,1,2.8,0,3.53,3.53,0,0,1,1.12.88,4.37,4.37,0,0,1,.73,1.35A5.14,5.14,0,0,1,332.21,71.68Zm-1,0a4.49,4.49,0,0,0-.19-1.37,3.28,3.28,0,0,0-.52-1.06,2.55,2.55,0,0,0-.81-.69,2.2,2.2,0,0,0-1-.24,2.24,2.24,0,0,0-1,.24,2.51,2.51,0,0,0-.8.69,3.29,3.29,0,0,0-.53,1.06,4.82,4.82,0,0,0-.19,1.37,4.88,4.88,0,0,0,.19,1.37,3.4,3.4,0,0,0,.53,1.06,2.36,2.36,0,0,0,.8.68,2.24,2.24,0,0,0,1,.24,2.2,2.2,0,0,0,1-.24,2.4,2.4,0,0,0,.81-.68,3.38,3.38,0,0,0,.52-1.06A4.54,4.54,0,0,0,331.24,71.68Z" transform="translate(-8.35 -0.71)"/><path class="cls-1" d="M340.78,71.68a5.18,5.18,0,0,1-.27,1.7,4.2,4.2,0,0,1-.73,1.34,3.42,3.42,0,0,1-1.12.89,3.32,3.32,0,0,1-2.8,0,3.29,3.29,0,0,1-1.11-.89,4.22,4.22,0,0,1-.74-1.34,5.69,5.69,0,0,1,0-3.4,4.39,4.39,0,0,1,.74-1.35,3.38,3.38,0,0,1,1.11-.88,3.13,3.13,0,0,1,2.8,0,3.53,3.53,0,0,1,1.12.88,4.37,4.37,0,0,1,.73,1.35A5.14,5.14,0,0,1,340.78,71.68Zm-1,0a4.49,4.49,0,0,0-.19-1.37,3.28,3.28,0,0,0-.52-1.06,2.66,2.66,0,0,0-.81-.69,2.2,2.2,0,0,0-1-.24,2.24,2.24,0,0,0-1,.24,2.66,2.66,0,0,0-.81.69,3.5,3.5,0,0,0-.52,1.06,4.49,4.49,0,0,0-.19,1.37,4.54,4.54,0,0,0,.19,1.37,3.61,3.61,0,0,0,.52,1.06,2.5,2.5,0,0,0,.81.68,2.24,2.24,0,0,0,1,.24,2.2,2.2,0,0,0,1-.24,2.5,2.5,0,0,0,.81-.68,3.38,3.38,0,0,0,.52-1.06A4.54,4.54,0,0,0,339.81,71.68Z" transform="translate(-8.35 -0.71)"/><path class="cls-1" d="M349.34,71.68a5.18,5.18,0,0,1-.26,1.7,4,4,0,0,1-.74,1.34,3.29,3.29,0,0,1-1.11.89,3.32,3.32,0,0,1-2.8,0,3.29,3.29,0,0,1-1.11-.89,4,4,0,0,1-.74-1.34,5.69,5.69,0,0,1,0-3.4,4.19,4.19,0,0,1,.74-1.35,3.38,3.38,0,0,1,1.11-.88,3.13,3.13,0,0,1,2.8,0,3.38,3.38,0,0,1,1.11.88,4.19,4.19,0,0,1,.74,1.35A5.14,5.14,0,0,1,349.34,71.68Zm-1,0a4.49,4.49,0,0,0-.19-1.37,3.29,3.29,0,0,0-.53-1.06,2.51,2.51,0,0,0-.8-.69,2.35,2.35,0,0,0-2.07,0,2.55,2.55,0,0,0-.81.69,3.28,3.28,0,0,0-.52,1.06,4.49,4.49,0,0,0-.19,1.37,4.54,4.54,0,0,0,.19,1.37,3.38,3.38,0,0,0,.52,1.06,2.4,2.4,0,0,0,.81.68,2.35,2.35,0,0,0,2.07,0,2.36,2.36,0,0,0,.8-.68,3.4,3.4,0,0,0,.53-1.06A4.54,4.54,0,0,0,348.38,71.68Z" transform="translate(-8.35 -0.71)"/><path class="cls-2" d="M358.18,65.84l-6.61,9.94h-1.08l6.61-9.94Z" transform="translate(-8.35 -0.71)"/><path class="cls-2" d="M358.88,75.78a6.22,6.22,0,0,1,.08-1,3.65,3.65,0,0,1,.33-1A3.58,3.58,0,0,1,360,73a4.93,4.93,0,0,1,1.21-.84l.85-.41a7.76,7.76,0,0,0,.81-.45,2.58,2.58,0,0,0,.61-.57,1.19,1.19,0,0,0,.24-.74,1.23,1.23,0,0,0-.12-.52,1.41,1.41,0,0,0-.35-.46,1.63,1.63,0,0,0-.58-.33,2.13,2.13,0,0,0-.8-.13,2.68,2.68,0,0,0-.83.13,3.13,3.13,0,0,0-1.1.7l-.3.33L359,69l.33-.31a3,3,0,0,1,.62-.45,5.4,5.4,0,0,1,.9-.4,3.82,3.82,0,0,1,1.16-.17,3.66,3.66,0,0,1,1.15.17,2.75,2.75,0,0,1,.86.48,2.24,2.24,0,0,1,.53.71,2,2,0,0,1,.18.83,1.88,1.88,0,0,1-.25,1,2.94,2.94,0,0,1-.63.73,4.15,4.15,0,0,1-.79.52c-.28.15-.53.27-.75.37s-.59.28-.88.44a5.68,5.68,0,0,0-.76.54,2.84,2.84,0,0,0-.55.66,1.49,1.49,0,0,0-.22.81h5v.87Z" transform="translate(-8.35 -0.71)"/><path class="cls-2" d="M373.35,71.68a5.18,5.18,0,0,1-.26,1.7,4,4,0,0,1-.74,1.34,3.29,3.29,0,0,1-1.11.89,3.32,3.32,0,0,1-2.8,0,3.29,3.29,0,0,1-1.11-.89,4,4,0,0,1-.74-1.34,5.69,5.69,0,0,1,0-3.4,4.19,4.19,0,0,1,.74-1.35,3.38,3.38,0,0,1,1.11-.88,3.13,3.13,0,0,1,2.8,0,3.38,3.38,0,0,1,1.11.88,4.19,4.19,0,0,1,.74,1.35A5.14,5.14,0,0,1,373.35,71.68Zm-1,0a4.49,4.49,0,0,0-.19-1.37,3.29,3.29,0,0,0-.53-1.06,2.51,2.51,0,0,0-.8-.69,2.35,2.35,0,0,0-2.07,0,2.55,2.55,0,0,0-.81.69,3.28,3.28,0,0,0-.52,1.06,4.49,4.49,0,0,0-.19,1.37,4.54,4.54,0,0,0,.19,1.37,3.38,3.38,0,0,0,.52,1.06,2.4,2.4,0,0,0,.81.68,2.35,2.35,0,0,0,2.07,0,2.36,2.36,0,0,0,.8-.68,3.4,3.4,0,0,0,.53-1.06A4.54,4.54,0,0,0,372.39,71.68Z" transform="translate(-8.35 -0.71)"/><path class="cls-2" d="M381.92,71.68a5.46,5.46,0,0,1-.26,1.7,4.22,4.22,0,0,1-.74,1.34,3.29,3.29,0,0,1-1.11.89,3.32,3.32,0,0,1-2.8,0,3.29,3.29,0,0,1-1.11-.89,4,4,0,0,1-.74-1.34,5.49,5.49,0,0,1,0-3.4,4.19,4.19,0,0,1,.74-1.35,3.38,3.38,0,0,1,1.11-.88,3.13,3.13,0,0,1,2.8,0,3.38,3.38,0,0,1,1.11.88,4.39,4.39,0,0,1,.74,1.35A5.41,5.41,0,0,1,381.92,71.68Zm-1,0a4.82,4.82,0,0,0-.19-1.37,3.29,3.29,0,0,0-.53-1.06,2.51,2.51,0,0,0-.8-.69,2.35,2.35,0,0,0-2.07,0,2.45,2.45,0,0,0-.81.69,3.28,3.28,0,0,0-.52,1.06,4.49,4.49,0,0,0-.19,1.37,4.54,4.54,0,0,0,.19,1.37,3.38,3.38,0,0,0,.52,1.06,2.31,2.31,0,0,0,.81.68,2.35,2.35,0,0,0,2.07,0,2.36,2.36,0,0,0,.8-.68,3.4,3.4,0,0,0,.53-1.06A4.88,4.88,0,0,0,381,71.68Z" transform="translate(-8.35 -0.71)"/><path class="cls-2" d="M390.49,71.68a5.18,5.18,0,0,1-.27,1.7,4,4,0,0,1-.73,1.34,3.29,3.29,0,0,1-1.11.89,3.32,3.32,0,0,1-2.8,0,3.42,3.42,0,0,1-1.12-.89,4.2,4.2,0,0,1-.73-1.34,5.49,5.49,0,0,1,0-3.4,4.37,4.37,0,0,1,.73-1.35,3.53,3.53,0,0,1,1.12-.88,3.13,3.13,0,0,1,2.8,0,3.38,3.38,0,0,1,1.11.88,4.17,4.17,0,0,1,.73,1.35A5.14,5.14,0,0,1,390.49,71.68Zm-1,0a4.84,4.84,0,0,0-.18-1.37,3.51,3.51,0,0,0-.53-1.06,2.51,2.51,0,0,0-.8-.69,2.26,2.26,0,0,0-1-.24,2.28,2.28,0,0,0-1.05.24,2.51,2.51,0,0,0-.8.69,3.29,3.29,0,0,0-.53,1.06,4.82,4.82,0,0,0-.19,1.37,4.88,4.88,0,0,0,.19,1.37,3.4,3.4,0,0,0,.53,1.06,2.36,2.36,0,0,0,.8.68A2.28,2.28,0,0,0,387,75a2.26,2.26,0,0,0,1-.24,2.36,2.36,0,0,0,.8-.68,3.63,3.63,0,0,0,.53-1.06A4.89,4.89,0,0,0,389.52,71.68Z" transform="translate(-8.35 -0.71)"/><path class="cls-2" d="M399.06,71.68a5.18,5.18,0,0,1-.27,1.7,4.2,4.2,0,0,1-.73,1.34,3.42,3.42,0,0,1-1.12.89,3.32,3.32,0,0,1-2.8,0,3.29,3.29,0,0,1-1.11-.89,4,4,0,0,1-.73-1.34,5.49,5.49,0,0,1,0-3.4,4.17,4.17,0,0,1,.73-1.35,3.38,3.38,0,0,1,1.11-.88,3.13,3.13,0,0,1,2.8,0,3.53,3.53,0,0,1,1.12.88,4.37,4.37,0,0,1,.73,1.35A5.14,5.14,0,0,1,399.06,71.68Zm-1,0a4.49,4.49,0,0,0-.19-1.37,3.28,3.28,0,0,0-.52-1.06,2.55,2.55,0,0,0-.81-.69,2.2,2.2,0,0,0-1-.24,2.24,2.24,0,0,0-1,.24,2.51,2.51,0,0,0-.8.69,3.29,3.29,0,0,0-.53,1.06,4.82,4.82,0,0,0-.19,1.37,4.88,4.88,0,0,0,.19,1.37,3.4,3.4,0,0,0,.53,1.06,2.36,2.36,0,0,0,.8.68,2.24,2.24,0,0,0,1,.24,2.2,2.2,0,0,0,1-.24,2.4,2.4,0,0,0,.81-.68,3.38,3.38,0,0,0,.52-1.06A4.54,4.54,0,0,0,398.09,71.68Z" transform="translate(-8.35 -0.71)"/><path class="cls-2" d="M407.63,71.68a5.18,5.18,0,0,1-.27,1.7,4,4,0,0,1-.74,1.34,3.29,3.29,0,0,1-1.11.89,3.32,3.32,0,0,1-2.8,0,3.29,3.29,0,0,1-1.11-.89,4.22,4.22,0,0,1-.74-1.34,5.69,5.69,0,0,1,0-3.4,4.39,4.39,0,0,1,.74-1.35,3.38,3.38,0,0,1,1.11-.88,3.13,3.13,0,0,1,2.8,0,3.38,3.38,0,0,1,1.11.88,4.19,4.19,0,0,1,.74,1.35A5.14,5.14,0,0,1,407.63,71.68Zm-1,0a4.49,4.49,0,0,0-.19-1.37,3.28,3.28,0,0,0-.52-1.06,2.66,2.66,0,0,0-.81-.69,2.2,2.2,0,0,0-1-.24,2.24,2.24,0,0,0-1,.24,2.66,2.66,0,0,0-.81.69,3.5,3.5,0,0,0-.52,1.06,4.49,4.49,0,0,0-.19,1.37,4.54,4.54,0,0,0,.19,1.37,3.61,3.61,0,0,0,.52,1.06,2.5,2.5,0,0,0,.81.68,2.24,2.24,0,0,0,1,.24,2.2,2.2,0,0,0,1-.24,2.5,2.5,0,0,0,.81-.68,3.38,3.38,0,0,0,.52-1.06A4.54,4.54,0,0,0,406.66,71.68Z" transform="translate(-8.35 -0.71)"/><path class="cls-3" d="M308,79.84l-6.6,9.94h-1.08L307,79.84Z" transform="translate(-8.35 -0.71)"/><path class="cls-3" d="M308.74,89.78a5.2,5.2,0,0,1,.09-1,3,3,0,0,1,.33-1,3.37,3.37,0,0,1,.7-.91,4.74,4.74,0,0,1,1.21-.84c.27-.14.55-.28.85-.41a7.76,7.76,0,0,0,.81-.45,2.78,2.78,0,0,0,.61-.57,1.19,1.19,0,0,0,.23-.74,1.39,1.39,0,0,0-.11-.52,1.41,1.41,0,0,0-.35-.46,1.72,1.72,0,0,0-.58-.33,2.2,2.2,0,0,0-.8-.13,2.63,2.63,0,0,0-.83.13,3.47,3.47,0,0,0-.64.32,3.11,3.11,0,0,0-.47.38l-.29.33-.63-.68.32-.31a3.43,3.43,0,0,1,.63-.45,4.75,4.75,0,0,1,.9-.4,3.77,3.77,0,0,1,1.16-.17,3.71,3.71,0,0,1,1.15.17,2.69,2.69,0,0,1,.85.48,2.1,2.1,0,0,1,.53.71,2,2,0,0,1-.07,1.83,2.71,2.71,0,0,1-.62.73,4.49,4.49,0,0,1-.79.52c-.28.15-.53.27-.76.37s-.59.28-.87.44a5.1,5.1,0,0,0-.76.54,2.89,2.89,0,0,0-.56.66,1.58,1.58,0,0,0-.21.81h5v.87Z" transform="translate(-8.35 -0.71)"/><path class="cls-3" d="M323.25,86.5a3.31,3.31,0,0,1-.27,1.34,3.65,3.65,0,0,1-.75,1.09,3.56,3.56,0,0,1-1.12.73,3.77,3.77,0,0,1-1.39.26,3.43,3.43,0,0,1-1.44-.29,3.17,3.17,0,0,1-1.13-.81,3.87,3.87,0,0,1-.73-1.31,5.31,5.31,0,0,1-.27-1.75,11.47,11.47,0,0,1,.27-2.64,5.62,5.62,0,0,1,.75-1.87,3.23,3.23,0,0,1,1.15-1.12,3.14,3.14,0,0,1,1.5-.36,3.29,3.29,0,0,1,1.78.49,3.15,3.15,0,0,1,1.19,1.36l-.62.56a2.5,2.5,0,0,0-2.35-1.57,2.13,2.13,0,0,0-1.12.3,2.46,2.46,0,0,0-.86.84,4.41,4.41,0,0,0-.56,1.37,7.31,7.31,0,0,0-.21,1.83,2.69,2.69,0,0,1,1.06-1.32,3.1,3.1,0,0,1,1.7-.49,3.52,3.52,0,0,1,1.34.26,3.35,3.35,0,0,1,1.08.72,3.18,3.18,0,0,1,.73,1.07A3.23,3.23,0,0,1,323.25,86.5Zm-3.5,2.58a2.59,2.59,0,0,0,1-.2,2.59,2.59,0,0,0,1.39-1.37,2.64,2.64,0,0,0,.2-1,2.46,2.46,0,0,0-.21-1,2.75,2.75,0,0,0-.57-.82,2.88,2.88,0,0,0-.82-.55,2.63,2.63,0,0,0-2,0,2.88,2.88,0,0,0-.82.55,2.55,2.55,0,0,0-.56.82,2.46,2.46,0,0,0-.21,1,2.39,2.39,0,0,0,.21,1,2.75,2.75,0,0,0,.57.82,2.64,2.64,0,0,0,.83.56A2.55,2.55,0,0,0,319.75,89.08Z" transform="translate(-8.35 -0.71)"/><path class="cls-3" d="M331.47,87a2.58,2.58,0,0,1-.28,1.19,2.85,2.85,0,0,1-.76.9,3.66,3.66,0,0,1-1.11.58,4.26,4.26,0,0,1-1.34.2,3.83,3.83,0,0,1-1.37-.23,3.35,3.35,0,0,1-1.09-.63,2.66,2.66,0,0,1-.7-.93,2.57,2.57,0,0,1-.26-1.13,2.21,2.21,0,0,1,.18-.89,2.92,2.92,0,0,1,.45-.72,3.47,3.47,0,0,1,1.36-.9,3.83,3.83,0,0,1-.63-.34,2.91,2.91,0,0,1-.52-.47,2.19,2.19,0,0,1-.35-.59,1.72,1.72,0,0,1-.14-.68,2.13,2.13,0,0,1,.28-1.09,2.72,2.72,0,0,1,.72-.79,3.21,3.21,0,0,1,1-.49,3.74,3.74,0,0,1,2.23,0,3.37,3.37,0,0,1,1,.48,2.72,2.72,0,0,1,.72.79,2.07,2.07,0,0,1,.28,1.08,1.8,1.8,0,0,1-.13.69,2.16,2.16,0,0,1-.37.59,2.71,2.71,0,0,1-.53.48,3.55,3.55,0,0,1-.64.34,2.94,2.94,0,0,1,.77.39,2.89,2.89,0,0,1,.64.56,2.84,2.84,0,0,1,.44.73A2.55,2.55,0,0,1,331.47,87Zm-1-.07a1.75,1.75,0,0,0-.22-.89,2.28,2.28,0,0,0-.59-.65,2.92,2.92,0,0,0-.81-.4,2.8,2.8,0,0,0-.89-.14,3,3,0,0,0-.89.14,2.85,2.85,0,0,0-.79.42,2.25,2.25,0,0,0-.56.67,1.81,1.81,0,0,0-.21.87,1.71,1.71,0,0,0,.23.87,2,2,0,0,0,.58.65,2.53,2.53,0,0,0,.8.41A3,3,0,0,0,328,89a2.82,2.82,0,0,0,.89-.15,2.85,2.85,0,0,0,.79-.42,2.1,2.1,0,0,0,.56-.66A1.64,1.64,0,0,0,330.5,87Zm-4.63-4.53a1.34,1.34,0,0,0,.19.72,1.72,1.72,0,0,0,.51.53,2.45,2.45,0,0,0,.69.33,2.9,2.9,0,0,0,.75.11,2.78,2.78,0,0,0,.75-.11,2.4,2.4,0,0,0,.7-.34,1.87,1.87,0,0,0,.51-.54,1.4,1.4,0,0,0,.19-.73,1.41,1.41,0,0,0-.18-.71,1.62,1.62,0,0,0-.48-.53,2.45,2.45,0,0,0-.69-.33,3.24,3.24,0,0,0-.82-.11,2.66,2.66,0,0,0-.79.12,2.53,2.53,0,0,0-.68.33,1.87,1.87,0,0,0-.47.54A1.48,1.48,0,0,0,325.87,82.42Z" transform="translate(-8.35 -0.71)"/><path class="cls-3" d="M340,85.68a5.46,5.46,0,0,1-.26,1.7,4,4,0,0,1-.74,1.34,3.29,3.29,0,0,1-1.11.89,3.32,3.32,0,0,1-2.8,0,3.29,3.29,0,0,1-1.11-.89,4,4,0,0,1-.74-1.34,5.69,5.69,0,0,1,0-3.4,4.19,4.19,0,0,1,.74-1.35,3.38,3.38,0,0,1,1.11-.88,3.13,3.13,0,0,1,2.8,0,3.38,3.38,0,0,1,1.11.88A4.19,4.19,0,0,1,339.7,84,5.41,5.41,0,0,1,340,85.68Zm-1,0a4.82,4.82,0,0,0-.19-1.37,3.29,3.29,0,0,0-.53-1.06,2.51,2.51,0,0,0-.8-.69,2.35,2.35,0,0,0-2.07,0,2.55,2.55,0,0,0-.81.69,3.28,3.28,0,0,0-.52,1.06,4.49,4.49,0,0,0-.19,1.37,4.54,4.54,0,0,0,.19,1.37,3.38,3.38,0,0,0,.52,1.06,2.4,2.4,0,0,0,.81.68,2.35,2.35,0,0,0,2.07,0,2.36,2.36,0,0,0,.8-.68,3.4,3.4,0,0,0,.53-1.06A4.88,4.88,0,0,0,339,85.68Z" transform="translate(-8.35 -0.71)"/><path class="cls-3" d="M348.53,85.68a5.46,5.46,0,0,1-.26,1.7,4.22,4.22,0,0,1-.74,1.34,3.29,3.29,0,0,1-1.11.89,3.32,3.32,0,0,1-2.8,0,3.29,3.29,0,0,1-1.11-.89,4,4,0,0,1-.74-1.34,5.49,5.49,0,0,1,0-3.4,4.19,4.19,0,0,1,.74-1.35,3.38,3.38,0,0,1,1.11-.88,3.13,3.13,0,0,1,2.8,0,3.38,3.38,0,0,1,1.11.88,4.39,4.39,0,0,1,.74,1.35A5.41,5.41,0,0,1,348.53,85.68Zm-1,0a4.82,4.82,0,0,0-.19-1.37,3.29,3.29,0,0,0-.53-1.06,2.51,2.51,0,0,0-.8-.69,2.35,2.35,0,0,0-2.07,0,2.45,2.45,0,0,0-.81.69,3.28,3.28,0,0,0-.52,1.06,4.49,4.49,0,0,0-.19,1.37,4.54,4.54,0,0,0,.19,1.37,3.38,3.38,0,0,0,.52,1.06,2.31,2.31,0,0,0,.81.68,2.35,2.35,0,0,0,2.07,0,2.36,2.36,0,0,0,.8-.68,3.4,3.4,0,0,0,.53-1.06A4.88,4.88,0,0,0,347.57,85.68Z" transform="translate(-8.35 -0.71)"/><path class="cls-3" d="M357.1,85.68a5.18,5.18,0,0,1-.27,1.7,4,4,0,0,1-.73,1.34,3.29,3.29,0,0,1-1.11.89,3.32,3.32,0,0,1-2.8,0,3.42,3.42,0,0,1-1.12-.89,4.2,4.2,0,0,1-.73-1.34,5.49,5.49,0,0,1,0-3.4,4.37,4.37,0,0,1,.73-1.35,3.53,3.53,0,0,1,1.12-.88,3.13,3.13,0,0,1,2.8,0,3.38,3.38,0,0,1,1.11.88,4.17,4.17,0,0,1,.73,1.35A5.14,5.14,0,0,1,357.1,85.68Zm-1,0a4.84,4.84,0,0,0-.18-1.37,3.51,3.51,0,0,0-.53-1.06,2.51,2.51,0,0,0-.8-.69,2.26,2.26,0,0,0-1-.24,2.28,2.28,0,0,0-1,.24,2.51,2.51,0,0,0-.8.69,3.29,3.29,0,0,0-.53,1.06,4.82,4.82,0,0,0-.19,1.37,4.88,4.88,0,0,0,.19,1.37,3.4,3.4,0,0,0,.53,1.06,2.36,2.36,0,0,0,.8.68,2.28,2.28,0,0,0,1,.24,2.26,2.26,0,0,0,1-.24,2.36,2.36,0,0,0,.8-.68,3.63,3.63,0,0,0,.53-1.06A4.89,4.89,0,0,0,356.13,85.68Z" transform="translate(-8.35 -0.71)"/><path class="cls-3" d="M366,89.43l-.24.11a2.77,2.77,0,0,1-.38.14,3.9,3.9,0,0,1-.47.13,2.6,2.6,0,0,1-.56.06,1.92,1.92,0,0,1-.59-.09,1.36,1.36,0,0,1-.49-.26,1.27,1.27,0,0,1-.34-.44,1.49,1.49,0,0,1-.12-.62V83.24h-1v-.75h1V80h.95v2.47h1.68v.75h-1.68v5a.72.72,0,0,0,.29.59,1,1,0,0,0,.59.19,1.81,1.81,0,0,0,.72-.13,3.59,3.59,0,0,0,.39-.19Z" transform="translate(-8.35 -0.71)"/><path class="cls-3" d="M367.18,81v-1.4h.95V81Zm0,8.82V82.49h.95v7.29Z" transform="translate(-8.35 -0.71)"/><path class="cls-3" d="M381.08,89.78h-.95V85.71a3.43,3.43,0,0,0-.41-1.88,1.35,1.35,0,0,0-1.2-.6,2.09,2.09,0,0,0-.79.15,2.53,2.53,0,0,0-.69.44,3,3,0,0,0-.55.66,3.07,3.07,0,0,0-.36.85v4.45h-1V85.71a3.51,3.51,0,0,0-.39-1.89,1.32,1.32,0,0,0-1.2-.59,2.16,2.16,0,0,0-1.47.57,3.27,3.27,0,0,0-.93,1.52v4.46h-.95V82.49h.87v1.65a3.41,3.41,0,0,1,1.18-1.31,2.92,2.92,0,0,1,1.61-.47,2,2,0,0,1,1.47.52,2.22,2.22,0,0,1,.68,1.36,3.12,3.12,0,0,1,2.82-1.88,2.35,2.35,0,0,1,1,.22,1.82,1.82,0,0,1,.68.64,2.9,2.9,0,0,1,.38,1,6.36,6.36,0,0,1,.12,1.29Z" transform="translate(-8.35 -0.71)"/><path class="cls-3" d="M386.25,89.92a3.58,3.58,0,0,1-1.47-.3,3.64,3.64,0,0,1-1.15-.83,3.95,3.95,0,0,1-1-2.68,3.9,3.9,0,0,1,1-2.64,3.56,3.56,0,0,1,1.16-.81,3.7,3.7,0,0,1,2.92,0,3.61,3.61,0,0,1,1.14.82,3.84,3.84,0,0,1,.74,1.19,3.79,3.79,0,0,1,.27,1.43v.22a.51.51,0,0,1,0,.16h-6.24a3.18,3.18,0,0,0,.27,1.08,2.77,2.77,0,0,0,.6.86,2.62,2.62,0,0,0,.83.57,2.38,2.38,0,0,0,1,.2,2.42,2.42,0,0,0,.7-.1,2.6,2.6,0,0,0,.64-.26,2.41,2.41,0,0,0,.54-.41,2,2,0,0,0,.36-.54l.83.22a2.77,2.77,0,0,1-.48.74,3.29,3.29,0,0,1-.71.57,3.81,3.81,0,0,1-.9.38A3.86,3.86,0,0,1,386.25,89.92Zm2.69-4.17a2.87,2.87,0,0,0-.28-1.07,3,3,0,0,0-.59-.84,2.54,2.54,0,0,0-.82-.54,2.59,2.59,0,0,0-1-.2,2.64,2.64,0,0,0-1,.2,2.48,2.48,0,0,0-.83.54,2.93,2.93,0,0,0-.58.84,3.43,3.43,0,0,0-.26,1.07Z" transform="translate(-8.35 -0.71)"/><path class="cls-3" d="M393.74,89.92a5,5,0,0,1-1.67-.28,4.12,4.12,0,0,1-1.4-.81l.44-.65a4.61,4.61,0,0,0,1.25.76,3.61,3.61,0,0,0,1.36.25,2.54,2.54,0,0,0,1.41-.35,1.17,1.17,0,0,0,.53-1,.93.93,0,0,0-.14-.51,1.37,1.37,0,0,0-.42-.36,3.43,3.43,0,0,0-.68-.27l-1-.25c-.42-.1-.79-.2-1.09-.3a3.73,3.73,0,0,1-.77-.35,1.24,1.24,0,0,1-.45-.49,1.68,1.68,0,0,1-.14-.72,2.12,2.12,0,0,1,.21-1,2.23,2.23,0,0,1,.59-.7,2.69,2.69,0,0,1,.87-.41,4,4,0,0,1,1.06-.14,4.07,4.07,0,0,1,1.52.27,3.11,3.11,0,0,1,1.11.73l-.46.56a2.34,2.34,0,0,0-1-.63,3.32,3.32,0,0,0-1.21-.21,3.08,3.08,0,0,0-.7.07,1.73,1.73,0,0,0-.57.25,1.18,1.18,0,0,0-.38.42,1.22,1.22,0,0,0-.14.61,1,1,0,0,0,.1.48.74.74,0,0,0,.32.31,2.69,2.69,0,0,0,.56.24l.84.22q.69.16,1.23.33a4.37,4.37,0,0,1,.89.4,1.55,1.55,0,0,1,.54.54,1.62,1.62,0,0,1,.18.79,1.9,1.9,0,0,1-.77,1.59A3.33,3.33,0,0,1,393.74,89.92Z" transform="translate(-8.35 -0.71)"/><path class="cls-1" d="M305.43,146.34a2.75,2.75,0,0,1,1.75,1,3.12,3.12,0,0,1,.66,2,3.47,3.47,0,0,1-.28,1.38,2.92,2.92,0,0,1-.78,1.06,3.66,3.66,0,0,1-1.21.68,4.88,4.88,0,0,1-1.57.24,4.59,4.59,0,0,1-2.21-.51,3.33,3.33,0,0,1-1.43-1.4l.78-.71a2.75,2.75,0,0,0,1.06,1.16,3.43,3.43,0,0,0,1.8.43,2.91,2.91,0,0,0,2-.61,2.15,2.15,0,0,0,.71-1.73,2.31,2.31,0,0,0-.74-1.81,3.13,3.13,0,0,0-2.17-.67h-.41v-1h.45a2.94,2.94,0,0,0,2-.59,2,2,0,0,0,.68-1.54,2.07,2.07,0,0,0-.18-.88,1.88,1.88,0,0,0-.51-.64,2.38,2.38,0,0,0-.76-.39,3.32,3.32,0,0,0-1-.13,3.26,3.26,0,0,0-1.67.42,2.8,2.8,0,0,0-1.09,1.17l-.73-.69a2.41,2.41,0,0,1,.57-.79,3.63,3.63,0,0,1,.83-.61,4.08,4.08,0,0,1,1-.39,4.91,4.91,0,0,1,1.16-.14,4.42,4.42,0,0,1,1.4.21,3.49,3.49,0,0,1,1.11.61,2.66,2.66,0,0,1,.72.94,2.86,2.86,0,0,1,.26,1.21,3.06,3.06,0,0,1-.15,1,2.62,2.62,0,0,1-.43.81,2.43,2.43,0,0,1-1.61.91Z" transform="translate(-8.35 -0.71)"/><path class="cls-1" d="M315.35,149.23v1h-5.64v-1h2.36v-7.11a2.09,2.09,0,0,1-.45.43,6.23,6.23,0,0,1-.72.43,5.73,5.73,0,0,1-.81.33,2.39,2.39,0,0,1-.73.14v-1.1a1.88,1.88,0,0,0,.84-.22,6.11,6.11,0,0,0,.87-.49,7.6,7.6,0,0,0,.69-.54,1.3,1.3,0,0,0,.31-.33h1.17v8.46Z" transform="translate(-8.35 -0.71)"/><path class="cls-2" d="M325.28,138.46l-7.84,11.8h-1.28l7.84-11.8Z" transform="translate(-8.35 -0.71)"/><path class="cls-2" d="M334.75,146.37a4,4,0,0,1-.32,1.59,4,4,0,0,1-.89,1.28,4.14,4.14,0,0,1-1.33.87,4.29,4.29,0,0,1-1.65.31,4.21,4.21,0,0,1-1.71-.34,3.66,3.66,0,0,1-1.33-1,4.42,4.42,0,0,1-.88-1.55,6.43,6.43,0,0,1-.31-2.07,13.75,13.75,0,0,1,.31-3.13,7.16,7.16,0,0,1,.89-2.23,3.9,3.9,0,0,1,1.37-1.32,3.69,3.69,0,0,1,1.78-.43,3.87,3.87,0,0,1,2.11.58,3.74,3.74,0,0,1,1.41,1.61l-.73.67a2.92,2.92,0,0,0-1.09-1.36,3,3,0,0,0-1.7-.5,2.61,2.61,0,0,0-1.33.34,3.07,3.07,0,0,0-1,1,5.48,5.48,0,0,0-.66,1.62,8.56,8.56,0,0,0-.24,2.18,3.12,3.12,0,0,1,1.25-1.57,3.67,3.67,0,0,1,2-.58,4.16,4.16,0,0,1,1.58.31,3.82,3.82,0,0,1,1.29.85,3.9,3.9,0,0,1,1.18,2.83Zm-4.15,3.06a3,3,0,0,0,1.19-.24,3.25,3.25,0,0,0,1-.66,3.09,3.09,0,0,0,.66-1,3,3,0,0,0,.24-1.19,2.82,2.82,0,0,0-.25-1.19,3.18,3.18,0,0,0-1.65-1.63,3,3,0,0,0-1.19-.24,3,3,0,0,0-1.19.24,3.25,3.25,0,0,0-1,.66,3.09,3.09,0,0,0-.66,1,3,3,0,0,0-.24,1.19,2.78,2.78,0,0,0,.25,1.18,3.12,3.12,0,0,0,.67,1,3.16,3.16,0,0,0,1,.67A3,3,0,0,0,330.6,149.43Z" transform="translate(-8.35 -0.71)"/><path class="cls-2" d="M341.18,146.34a2.77,2.77,0,0,1,1.76,1,3.17,3.17,0,0,1,.65,2,3.47,3.47,0,0,1-.27,1.38,3.17,3.17,0,0,1-.78,1.06,3.71,3.71,0,0,1-1.22.68,4.84,4.84,0,0,1-1.57.24,4.62,4.62,0,0,1-2.21-.51,3.39,3.39,0,0,1-1.43-1.4l.79-.71a2.69,2.69,0,0,0,1.06,1.16,3.37,3.37,0,0,0,1.79.43,2.89,2.89,0,0,0,2-.61,2.13,2.13,0,0,0,.72-1.73,2.28,2.28,0,0,0-.75-1.81,3.12,3.12,0,0,0-2.16-.67h-.42v-1h.45a2.9,2.9,0,0,0,2-.59,1.93,1.93,0,0,0,.69-1.54,2.07,2.07,0,0,0-.19-.88,1.85,1.85,0,0,0-.5-.64,2.33,2.33,0,0,0-.77-.39,3.21,3.21,0,0,0-.95-.13,3.26,3.26,0,0,0-1.67.42,2.73,2.73,0,0,0-1.09,1.17l-.73-.69a2.53,2.53,0,0,1,.56-.79,3.86,3.86,0,0,1,.83-.61,4.23,4.23,0,0,1,1-.39,5.06,5.06,0,0,1,1.17-.14,4.47,4.47,0,0,1,1.4.21,3.49,3.49,0,0,1,1.11.61,2.78,2.78,0,0,1,.72.94,2.85,2.85,0,0,1,.25,1.21,3.06,3.06,0,0,1-.14,1,2.65,2.65,0,0,1-.44.81,2.23,2.23,0,0,1-.69.6A2.44,2.44,0,0,1,341.18,146.34Z" transform="translate(-8.35 -0.71)"/><path class="cls-2" d="M357.12,150.26H356v-4.84a3.9,3.9,0,0,0-.51-2.21,1.71,1.71,0,0,0-1.49-.73,2.64,2.64,0,0,0-.95.19,3.49,3.49,0,0,0-.89.53,3.34,3.34,0,0,0-.72.78,3.15,3.15,0,0,0-.46,1v5.3h-1.13V138.13H351v5.43A3.86,3.86,0,0,1,352.4,142a3.68,3.68,0,0,1,2-.57,2.61,2.61,0,0,1,1.26.28,2.27,2.27,0,0,1,.84.76,3.23,3.23,0,0,1,.49,1.18,7.19,7.19,0,0,1,.15,1.52Z" transform="translate(-8.35 -0.71)"/><path class="cls-2" d="M363.21,150.42a4,4,0,0,1-1.72-.35,4.17,4.17,0,0,1-1.36-1,4.48,4.48,0,0,1-.89-1.43,4.76,4.76,0,0,1-.31-1.72,4.58,4.58,0,0,1,1.22-3.15,4.26,4.26,0,0,1,1.35-1,3.89,3.89,0,0,1,1.71-.37,3.94,3.94,0,0,1,1.72.37,4.31,4.31,0,0,1,2.26,2.41,4.54,4.54,0,0,1,.33,1.72,4.77,4.77,0,0,1-.32,1.72,4.48,4.48,0,0,1-.89,1.43,4.12,4.12,0,0,1-3.1,1.32ZM360.07,146a3.78,3.78,0,0,0,.25,1.36,3.58,3.58,0,0,0,.68,1.09,3,3,0,0,0,2.21,1,2.74,2.74,0,0,0,1.23-.28,3.29,3.29,0,0,0,1-.74,3.49,3.49,0,0,0,.68-1.11,3.58,3.58,0,0,0,.25-1.36,3.65,3.65,0,0,0-.25-1.36,3.4,3.4,0,0,0-1.68-1.86,2.87,2.87,0,0,0-1.23-.27,2.78,2.78,0,0,0-1.21.27,3.36,3.36,0,0,0-1,.76,4,4,0,0,0-.68,1.12A3.87,3.87,0,0,0,360.07,146Z" transform="translate(-8.35 -0.71)"/><path class="cls-2" d="M372.12,150.42a2.44,2.44,0,0,1-2.1-.93,4.72,4.72,0,0,1-.69-2.8V141.6h1.13v4.89q0,2.94,2,2.94a3,3,0,0,0,1-.17,3.07,3.07,0,0,0,.89-.48,4,4,0,0,0,.73-.75,3.81,3.81,0,0,0,.52-1V141.6h1.13v7.2c0,.31.13.46.4.46v1l-.32,0h-.18A.91.91,0,0,1,376,150a1,1,0,0,1-.24-.71v-1a4.1,4.1,0,0,1-3.61,2.12Z" transform="translate(-8.35 -0.71)"/><path class="cls-2" d="M383.6,142.6a3.51,3.51,0,0,0-2,.63,3.16,3.16,0,0,0-1.2,1.65v5.38h-1.13V141.6h1.06v2.08a4,4,0,0,1,1.3-1.56,3,3,0,0,1,1.75-.57l.21,0Z" transform="translate(-8.35 -0.71)"/><path class="cls-2" d="M388,150.42a6,6,0,0,1-2-.33,4.7,4.7,0,0,1-1.66-1l.51-.77a5.75,5.75,0,0,0,1.49.9,4.32,4.32,0,0,0,1.62.3,3,3,0,0,0,1.67-.42,1.38,1.38,0,0,0,.62-1.21,1,1,0,0,0-.16-.6,1.49,1.49,0,0,0-.49-.43,3.79,3.79,0,0,0-.82-.32c-.32-.1-.7-.19-1.13-.29s-.94-.25-1.3-.37a4.1,4.1,0,0,1-.91-.41,1.54,1.54,0,0,1-.53-.58,1.92,1.92,0,0,1-.17-.85,2.5,2.5,0,0,1,.25-1.15,2.43,2.43,0,0,1,.7-.82,3.17,3.17,0,0,1,1-.49,4.68,4.68,0,0,1,1.26-.17,4.82,4.82,0,0,1,1.81.33,3.54,3.54,0,0,1,1.31.85l-.55.67a2.88,2.88,0,0,0-1.17-.75,4.12,4.12,0,0,0-1.44-.25,3.7,3.7,0,0,0-.83.09,2,2,0,0,0-.67.29,1.5,1.5,0,0,0-.46.51,1.47,1.47,0,0,0-.16.72,1.35,1.35,0,0,0,.11.57,1.07,1.07,0,0,0,.39.37,2.65,2.65,0,0,0,.67.28c.27.09.6.17,1,.26.55.13,1,.27,1.46.4a4.71,4.71,0,0,1,1.05.46,1.8,1.8,0,0,1,.64.65,1.83,1.83,0,0,1,.22.93,2.27,2.27,0,0,1-.91,1.9A4,4,0,0,1,388,150.42Z" transform="translate(-8.35 -0.71)"/><path class="cls-1" d="M306.34,114.75v1h-5.63v-1h2.36v-7.12a1.78,1.78,0,0,1-.46.44,6.08,6.08,0,0,1-.71.43,6.25,6.25,0,0,1-.81.33,2.4,2.4,0,0,1-.73.13v-1.09a2,2,0,0,0,.84-.22,5.67,5.67,0,0,0,.86-.5,7.65,7.65,0,0,0,.69-.53,1.67,1.67,0,0,0,.32-.33h1.16v8.46Z" transform="translate(-8.35 -0.71)"/><path class="cls-1" d="M307.44,115.78a6.27,6.27,0,0,1,.1-1.14,3.68,3.68,0,0,1,.39-1.14,4.1,4.1,0,0,1,.83-1.09,6.16,6.16,0,0,1,1.43-1l1-.49a6.3,6.3,0,0,0,1-.54,3,3,0,0,0,.73-.67,1.46,1.46,0,0,0,.28-.87,1.6,1.6,0,0,0-.14-.63,1.79,1.79,0,0,0-.42-.54,2.13,2.13,0,0,0-.68-.39,2.75,2.75,0,0,0-.95-.15,3,3,0,0,0-1,.15,4.38,4.38,0,0,0-.75.38,2.87,2.87,0,0,0-.56.46c-.15.16-.27.29-.35.39l-.74-.82a5.14,5.14,0,0,1,.38-.36,3.94,3.94,0,0,1,.74-.54,6.34,6.34,0,0,1,1.07-.47,4.25,4.25,0,0,1,1.38-.21,4.09,4.09,0,0,1,1.36.21,3,3,0,0,1,1,.57,2.68,2.68,0,0,1,.64.84,2.45,2.45,0,0,1,.21,1,2.23,2.23,0,0,1-.3,1.18,3.42,3.42,0,0,1-.74.87,4.93,4.93,0,0,1-.94.62l-.89.44a10.09,10.09,0,0,0-1,.52,6.37,6.37,0,0,0-.91.64,3.42,3.42,0,0,0-.65.78,1.88,1.88,0,0,0-.26,1h5.91v1Z" transform="translate(-8.35 -0.71)"/><path class="cls-1" d="M324.38,112.5a3,3,0,0,1-.33,1.41,3.41,3.41,0,0,1-.9,1.07,4,4,0,0,1-1.32.69,5.17,5.17,0,0,1-1.58.24,4.76,4.76,0,0,1-1.63-.27,4.29,4.29,0,0,1-1.29-.75,3.47,3.47,0,0,1-.84-1.11,3.09,3.09,0,0,1-.3-1.34,2.59,2.59,0,0,1,.21-1,3.29,3.29,0,0,1,.54-.86,3.63,3.63,0,0,1,.76-.64,3.58,3.58,0,0,1,.85-.43,4.51,4.51,0,0,1-.75-.4,3.25,3.25,0,0,1-.61-.56,2.37,2.37,0,0,1-.42-.7,2,2,0,0,1-.16-.81,2.48,2.48,0,0,1,.33-1.29,3.21,3.21,0,0,1,.86-.94,3.94,3.94,0,0,1,1.18-.58,4.54,4.54,0,0,1,1.32-.2,4.65,4.65,0,0,1,1.32.2,3.92,3.92,0,0,1,1.18.57,3,3,0,0,1,.85.94A2.5,2.5,0,0,1,324,107a2.17,2.17,0,0,1-.16.81,2.86,2.86,0,0,1-.43.71,3.15,3.15,0,0,1-.64.57,4.15,4.15,0,0,1-.75.4,4.1,4.1,0,0,1,.91.46,3.76,3.76,0,0,1,.76.67,3.16,3.16,0,0,1,.51.87A2.75,2.75,0,0,1,324.38,112.5Zm-1.14-.08a2.06,2.06,0,0,0-.27-1.06,2.57,2.57,0,0,0-.7-.77,3.2,3.2,0,0,0-1-.48,3.48,3.48,0,0,0-1.05-.16,3.2,3.2,0,0,0-2,.67,2.44,2.44,0,0,0-.67.79,2.2,2.2,0,0,0-.24,1,2,2,0,0,0,.26,1,2.67,2.67,0,0,0,.69.77,3.15,3.15,0,0,0,.95.48,3.49,3.49,0,0,0,1.05.17,3.23,3.23,0,0,0,1.06-.18,2.93,2.93,0,0,0,.94-.5,2.53,2.53,0,0,0,.67-.78A2,2,0,0,0,323.24,112.42Zm-5.5-5.38a1.61,1.61,0,0,0,.23.85,2.25,2.25,0,0,0,.6.63,2.61,2.61,0,0,0,.82.4,3.55,3.55,0,0,0,.89.13,3.5,3.5,0,0,0,.9-.13,3,3,0,0,0,.82-.4,2.35,2.35,0,0,0,.61-.65,1.69,1.69,0,0,0,.23-.87,1.6,1.6,0,0,0-.22-.84,2,2,0,0,0-.57-.63,2.7,2.7,0,0,0-.82-.39,3.44,3.44,0,0,0-1-.13,3.34,3.34,0,0,0-.94.14,2.86,2.86,0,0,0-.8.4,2.07,2.07,0,0,0-.57.64A1.73,1.73,0,0,0,317.74,107Z" transform="translate(-8.35 -0.71)"/><path class="cls-2" d="M334.79,104l-7.85,11.8h-1.28l7.85-11.8Z" transform="translate(-8.35 -0.71)"/><path class="cls-2" d="M341.71,114.75v1h-5.63v-1h2.36v-7.12a1.78,1.78,0,0,1-.46.44,5.34,5.34,0,0,1-.71.43,5.73,5.73,0,0,1-.81.33,2.35,2.35,0,0,1-.73.13v-1.09a1.88,1.88,0,0,0,.84-.22,5.77,5.77,0,0,0,.87-.5,6.24,6.24,0,0,0,.68-.53,1.4,1.4,0,0,0,.32-.33h1.16v8.46Z" transform="translate(-8.35 -0.71)"/><path class="cls-2" d="M342.81,115.78a6.27,6.27,0,0,1,.1-1.14,4.28,4.28,0,0,1,.39-1.14,4.1,4.1,0,0,1,.83-1.09,6,6,0,0,1,1.44-1c.32-.16.65-.33,1-.49a6.94,6.94,0,0,0,1-.54,3.1,3.1,0,0,0,.72-.67,1.39,1.39,0,0,0,.28-.87,1.44,1.44,0,0,0-.14-.63,1.62,1.62,0,0,0-.41-.54,2.18,2.18,0,0,0-.69-.39,2.75,2.75,0,0,0-.95-.15,3,3,0,0,0-1,.15,4.14,4.14,0,0,0-.76.38,2.8,2.8,0,0,0-.55.46,3.33,3.33,0,0,0-.35.39l-.75-.82c.07-.07.19-.19.38-.36a4.3,4.3,0,0,1,.74-.54,6.72,6.72,0,0,1,1.07-.47,4.25,4.25,0,0,1,1.38-.21,4,4,0,0,1,1.36.21,3.14,3.14,0,0,1,1,.57,2.65,2.65,0,0,1,.63.84,2.46,2.46,0,0,1,.22,1,2.23,2.23,0,0,1-.3,1.18,3.63,3.63,0,0,1-.74.87,5.65,5.65,0,0,1-.94.62c-.33.17-.63.32-.9.44a11.2,11.2,0,0,0-1,.52,5.75,5.75,0,0,0-.9.64,3.22,3.22,0,0,0-.66.78,1.88,1.88,0,0,0-.26,1h5.92v1Z" transform="translate(-8.35 -0.71)"/><path class="cls-2" d="M359.76,112.5a3,3,0,0,1-.33,1.41,3.7,3.7,0,0,1-.9,1.07,4.15,4.15,0,0,1-1.32.69,5.28,5.28,0,0,1-1.59.24,4.76,4.76,0,0,1-1.63-.27,4.29,4.29,0,0,1-1.29-.75,3.44,3.44,0,0,1-.83-1.11,3.09,3.09,0,0,1-.3-1.34,2.77,2.77,0,0,1,.2-1,3.29,3.29,0,0,1,.54-.86,4.23,4.23,0,0,1,.76-.64,3.64,3.64,0,0,1,.86-.43,3.84,3.84,0,0,1-.75-.4,3.31,3.31,0,0,1-.62-.56,2.61,2.61,0,0,1-.42-.7A2,2,0,0,1,352,107a2.48,2.48,0,0,1,.33-1.29,3.35,3.35,0,0,1,.86-.94,3.94,3.94,0,0,1,1.18-.58,4.46,4.46,0,0,1,2.64,0,3.92,3.92,0,0,1,1.18.57,3,3,0,0,1,.86.94,2.49,2.49,0,0,1,.33,1.28,2,2,0,0,1-.16.81,2.59,2.59,0,0,1-.43.71,2.85,2.85,0,0,1-.63.57,4.23,4.23,0,0,1-.76.4,4.17,4.17,0,0,1,.92.46,3.71,3.71,0,0,1,.75.67,3.19,3.19,0,0,1,.52.87A3,3,0,0,1,359.76,112.5Zm-1.15-.08a2.16,2.16,0,0,0-.26-1.06,2.57,2.57,0,0,0-.7-.77,3.26,3.26,0,0,0-1-.48,3.46,3.46,0,0,0-1-.16,3.2,3.2,0,0,0-2,.67,2.53,2.53,0,0,0-.66.79,2.09,2.09,0,0,0-.25,1,2,2,0,0,0,.27,1,2.41,2.41,0,0,0,.69.77,3.09,3.09,0,0,0,.94.48,3.51,3.51,0,0,0,1.06.17,3.22,3.22,0,0,0,1.05-.18,2.93,2.93,0,0,0,.94-.5,2.4,2.4,0,0,0,.67-.78A1.94,1.94,0,0,0,358.61,112.42Zm-5.5-5.38a1.61,1.61,0,0,0,.23.85,2.25,2.25,0,0,0,.6.63,2.66,2.66,0,0,0,.83.4,3.11,3.11,0,0,0,1.78,0,3,3,0,0,0,.82-.4,2.35,2.35,0,0,0,.61-.65,1.77,1.77,0,0,0,0-1.71,2.17,2.17,0,0,0-.58-.63,2.6,2.6,0,0,0-.82-.39,3.42,3.42,0,0,0-1-.13,3.29,3.29,0,0,0-.94.14,2.92,2.92,0,0,0-.81.4,1.92,1.92,0,0,0-.56.64A1.63,1.63,0,0,0,353.11,107Z" transform="translate(-8.35 -0.71)"/><path class="cls-2" d="M370.49,115.94a3.39,3.39,0,0,1-1.93-.55A4.36,4.36,0,0,1,367.2,114v5.34h-1.13v-12.2h1v1.68a4.35,4.35,0,0,1,1.38-1.32,3.53,3.53,0,0,1,1.85-.51,3.73,3.73,0,0,1,1.64.37,4.39,4.39,0,0,1,1.3,1,4.73,4.73,0,0,1,.85,1.44,4.59,4.59,0,0,1,.31,1.68,5.13,5.13,0,0,1-.28,1.72,4.36,4.36,0,0,1-.81,1.43,3.93,3.93,0,0,1-1.24,1A3.63,3.63,0,0,1,370.49,115.94Zm-.31-1a2.73,2.73,0,0,0,1.27-.3,3.13,3.13,0,0,0,1-.79,3.5,3.5,0,0,0,.62-1.12,4,4,0,0,0,.22-1.28,3.7,3.7,0,0,0-.25-1.33,4.09,4.09,0,0,0-.68-1.12,3.25,3.25,0,0,0-1-.76A2.85,2.85,0,0,0,370,108a2.7,2.7,0,0,0-.9.17,3.54,3.54,0,0,0-.88.47,2.83,2.83,0,0,0-.7.68,1.82,1.82,0,0,0-.36.82v2.66a3.55,3.55,0,0,0,.51.86,3.27,3.27,0,0,0,.7.69,3.24,3.24,0,0,0,.83.46A2.7,2.7,0,0,0,370.18,115Z" transform="translate(-8.35 -0.71)"/><path class="cls-2" d="M376.17,107.12l2.6,3.39.13.25.13-.25,2.59-3.39h1.22l-3.31,4.35,3.31,4.31h-1.22L379,112.4l-.13-.23-.13.23-2.6,3.38H375l3.31-4.31L375,107.12Z" transform="translate(-8.35 -0.71)"/><path class="cls-1" d="M300.36,48.33a6.27,6.27,0,0,1,.1-1.14,3.68,3.68,0,0,1,.39-1.14,4.1,4.1,0,0,1,.83-1.09,6,6,0,0,1,1.44-1c.32-.16.65-.33,1-.49a6.94,6.94,0,0,0,1-.54,3.1,3.1,0,0,0,.72-.67,1.39,1.39,0,0,0,.28-.87,1.6,1.6,0,0,0-.14-.63,1.53,1.53,0,0,0-.42-.54,2.13,2.13,0,0,0-.68-.39,2.75,2.75,0,0,0-1-.15,2.93,2.93,0,0,0-1,.15,3.59,3.59,0,0,0-.76.38,3.24,3.24,0,0,0-.56.45c-.15.17-.27.3-.34.4l-.75-.82a5.14,5.14,0,0,1,.38-.36,3.94,3.94,0,0,1,.74-.54,6.34,6.34,0,0,1,1.07-.47,4.25,4.25,0,0,1,1.38-.21,4.09,4.09,0,0,1,1.36.21,3.14,3.14,0,0,1,1,.57,2.81,2.81,0,0,1,.63.84,2.45,2.45,0,0,1,.21,1,2.23,2.23,0,0,1-.3,1.18,3.59,3.59,0,0,1-.73.87,5.65,5.65,0,0,1-.94.62l-.9.44a10.09,10.09,0,0,0-1,.52,6.37,6.37,0,0,0-.91.64,3.42,3.42,0,0,0-.65.78,1.88,1.88,0,0,0-.26,1h5.92v1Z" transform="translate(-8.35 -0.71)"/><path class="cls-1" d="M317.54,43.46a6.24,6.24,0,0,1-.32,2,5.08,5.08,0,0,1-.87,1.59,3.94,3.94,0,0,1-1.32,1,3.91,3.91,0,0,1-3.32,0,3.94,3.94,0,0,1-1.32-1,4.91,4.91,0,0,1-.88-1.59,6.74,6.74,0,0,1,0-4,4.85,4.85,0,0,1,.88-1.6,4.06,4.06,0,0,1,1.32-1.05,3.82,3.82,0,0,1,3.32,0,4.06,4.06,0,0,1,1.32,1.05,5,5,0,0,1,.87,1.6A6.2,6.2,0,0,1,317.54,43.46Zm-1.15,0a5.54,5.54,0,0,0-.22-1.63,3.92,3.92,0,0,0-.63-1.26,2.84,2.84,0,0,0-1-.81,2.75,2.75,0,0,0-2.46,0,3,3,0,0,0-1,.81,4.12,4.12,0,0,0-.62,1.26,6.15,6.15,0,0,0,0,3.26,4.18,4.18,0,0,0,.62,1.25,2.85,2.85,0,0,0,1,.81,2.84,2.84,0,0,0,2.46,0,2.73,2.73,0,0,0,1-.81,4,4,0,0,0,.63-1.25A5.54,5.54,0,0,0,316.39,43.46Z" transform="translate(-8.35 -0.71)"/><path class="cls-1" d="M327.71,43.46a6.24,6.24,0,0,1-.32,2,5.08,5.08,0,0,1-.87,1.59,3.94,3.94,0,0,1-1.32,1,3.74,3.74,0,0,1-1.66.37,3.68,3.68,0,0,1-1.66-.37,4,4,0,0,1-1.33-1,5.08,5.08,0,0,1-.87-1.59,6.74,6.74,0,0,1,0-4,5,5,0,0,1,.87-1.6,4.1,4.1,0,0,1,1.33-1.05,3.56,3.56,0,0,1,1.66-.38,3.61,3.61,0,0,1,1.66.38,4.06,4.06,0,0,1,1.32,1.05,5,5,0,0,1,.87,1.6A6.2,6.2,0,0,1,327.71,43.46Zm-1.15,0a5.54,5.54,0,0,0-.22-1.63,3.92,3.92,0,0,0-.63-1.26,2.84,2.84,0,0,0-.95-.81,2.75,2.75,0,0,0-2.46,0,3,3,0,0,0-1,.81,4.12,4.12,0,0,0-.62,1.26,6.15,6.15,0,0,0,0,3.26,4.18,4.18,0,0,0,.62,1.25,2.85,2.85,0,0,0,1,.81,2.84,2.84,0,0,0,2.46,0,2.73,2.73,0,0,0,.95-.81,4,4,0,0,0,.63-1.25A5.54,5.54,0,0,0,326.56,43.46Z" transform="translate(-8.35 -0.71)"/><path class="cls-2" d="M338.19,36.53l-7.84,11.8h-1.28l7.84-11.8Z" transform="translate(-8.35 -0.71)"/><path class="cls-2" d="M339,48.33a7.31,7.31,0,0,1,.1-1.14A4,4,0,0,1,340.34,45a6,6,0,0,1,1.44-1l1-.49a6.82,6.82,0,0,0,1-.54,3.1,3.1,0,0,0,.72-.67,1.39,1.39,0,0,0,.28-.87,1.44,1.44,0,0,0-.14-.63,1.62,1.62,0,0,0-.41-.54,2.13,2.13,0,0,0-.68-.39,2.76,2.76,0,0,0-1-.15,3,3,0,0,0-1,.15,3.59,3.59,0,0,0-.76.38,3.15,3.15,0,0,0-.55.45c-.16.17-.27.3-.35.4l-.75-.82.38-.36a4.3,4.3,0,0,1,.74-.54,6.47,6.47,0,0,1,1.08-.47,4.57,4.57,0,0,1,2.74,0,3.09,3.09,0,0,1,1,.57,2.51,2.51,0,0,1,.63.84,2.3,2.3,0,0,1,.22,1,2.23,2.23,0,0,1-.3,1.18,3.63,3.63,0,0,1-.74.87A5.27,5.27,0,0,1,344,44c-.33.17-.63.32-.9.44a11.2,11.2,0,0,0-1,.52,6.26,6.26,0,0,0-.9.64,3.22,3.22,0,0,0-.66.78,1.88,1.88,0,0,0-.26,1h5.92v1Z" transform="translate(-8.35 -0.71)"/><path class="cls-2" d="M356.2,43.46a6.25,6.25,0,0,1-.31,2,4.91,4.91,0,0,1-.88,1.59,3.94,3.94,0,0,1-1.32,1,3.91,3.91,0,0,1-3.32,0,3.94,3.94,0,0,1-1.32-1,5.08,5.08,0,0,1-.87-1.59,6.54,6.54,0,0,1,0-4,5,5,0,0,1,.87-1.6,4.06,4.06,0,0,1,1.32-1.05,3.82,3.82,0,0,1,3.32,0A4.06,4.06,0,0,1,355,39.84a4.85,4.85,0,0,1,.88,1.6A6.2,6.2,0,0,1,356.2,43.46Zm-1.14,0a5.53,5.53,0,0,0-.23-1.63,4.12,4.12,0,0,0-.62-1.26,3,3,0,0,0-1-.81,2.61,2.61,0,0,0-1.22-.29,2.73,2.73,0,0,0-1.24.29,2.84,2.84,0,0,0-1,.81,3.9,3.9,0,0,0-.62,1.26,5.89,5.89,0,0,0,0,3.26,4,4,0,0,0,.62,1.25,2.73,2.73,0,0,0,1,.81,2.86,2.86,0,0,0,1.24.28,2.74,2.74,0,0,0,1.22-.28,2.85,2.85,0,0,0,1-.81,4.18,4.18,0,0,0,.62-1.25A5.53,5.53,0,0,0,355.06,43.46Z" transform="translate(-8.35 -0.71)"/><path class="cls-2" d="M366.37,43.46a6.25,6.25,0,0,1-.31,2,5.31,5.31,0,0,1-.88,1.59,3.94,3.94,0,0,1-1.32,1,3.91,3.91,0,0,1-3.32,0,3.94,3.94,0,0,1-1.32-1,5.08,5.08,0,0,1-.87-1.59,6.54,6.54,0,0,1,0-4,5,5,0,0,1,.87-1.6,4.06,4.06,0,0,1,1.32-1.05,3.82,3.82,0,0,1,3.32,0,4.06,4.06,0,0,1,1.32,1.05,5.24,5.24,0,0,1,.88,1.6A6.2,6.2,0,0,1,366.37,43.46Zm-1.15,0a5.54,5.54,0,0,0-.22-1.63,4.12,4.12,0,0,0-.62-1.26,3,3,0,0,0-1-.81,2.64,2.64,0,0,0-1.22-.29,2.7,2.7,0,0,0-1.24.29,2.84,2.84,0,0,0-.95.81,3.92,3.92,0,0,0-.63,1.26,6.15,6.15,0,0,0,0,3.26,4,4,0,0,0,.63,1.25,2.73,2.73,0,0,0,.95.81,2.82,2.82,0,0,0,1.24.28,2.77,2.77,0,0,0,1.22-.28,2.85,2.85,0,0,0,1-.81,4.18,4.18,0,0,0,.62-1.25A5.54,5.54,0,0,0,365.22,43.46Z" transform="translate(-8.35 -0.71)"/><path class="cls-2" d="M376.54,43.46a6.24,6.24,0,0,1-.32,2,5.08,5.08,0,0,1-.87,1.59,3.94,3.94,0,0,1-1.32,1,3.91,3.91,0,0,1-3.32,0,3.94,3.94,0,0,1-1.32-1,5.1,5.1,0,0,1-.88-1.59,6.74,6.74,0,0,1,0-4,5,5,0,0,1,.88-1.6,4.06,4.06,0,0,1,1.32-1.05,3.82,3.82,0,0,1,3.32,0,4.06,4.06,0,0,1,1.32,1.05,5,5,0,0,1,.87,1.6A6.2,6.2,0,0,1,376.54,43.46Zm-1.15,0a5.54,5.54,0,0,0-.22-1.63,4.12,4.12,0,0,0-.62-1.26,3,3,0,0,0-1-.81,2.75,2.75,0,0,0-2.46,0,2.84,2.84,0,0,0-.95.81,3.92,3.92,0,0,0-.63,1.26,6.15,6.15,0,0,0,0,3.26,4,4,0,0,0,.63,1.25,2.73,2.73,0,0,0,.95.81,2.84,2.84,0,0,0,2.46,0,2.85,2.85,0,0,0,1-.81,4.18,4.18,0,0,0,.62-1.25A5.54,5.54,0,0,0,375.39,43.46Z" transform="translate(-8.35 -0.71)"/><path class="cls-2" d="M382.94,37.86V36.2h1.13v1.66Zm0,10.47V39.67h1.13v8.66Z" transform="translate(-8.35 -0.71)"/><path class="cls-2" d="M399.44,48.33h-1.13V43.49a3.92,3.92,0,0,0-.49-2.22,1.6,1.6,0,0,0-1.43-.72,2.41,2.41,0,0,0-.93.18,2.85,2.85,0,0,0-.82.52A3.16,3.16,0,0,0,394,42a3.75,3.75,0,0,0-.44,1v5.29h-1.13V43.49a4.14,4.14,0,0,0-.46-2.24,1.59,1.59,0,0,0-1.43-.7,2.59,2.59,0,0,0-1.75.68,3.86,3.86,0,0,0-1.09,1.8v5.3h-1.13V39.67h1v2A4.11,4.11,0,0,1,389,40.08a3.5,3.5,0,0,1,1.92-.56,2.5,2.5,0,0,1,1.75.61,2.69,2.69,0,0,1,.8,1.62,3.7,3.7,0,0,1,3.34-2.23,2.61,2.61,0,0,1,1.24.27,2.11,2.11,0,0,1,.82.75,3.58,3.58,0,0,1,.44,1.18,7.25,7.25,0,0,1,.15,1.54Z" transform="translate(-8.35 -0.71)"/><path class="cls-2" d="M404,48.49a3.15,3.15,0,0,1-1.13-.2,3,3,0,0,1-.92-.58,2.61,2.61,0,0,1-.82-1.91,2.13,2.13,0,0,1,.27-1,2.52,2.52,0,0,1,.74-.83,3.82,3.82,0,0,1,1.15-.54,5.55,5.55,0,0,1,1.46-.19,7.87,7.87,0,0,1,1.35.12,6.23,6.23,0,0,1,1.21.33v-.78a2.53,2.53,0,0,0-.65-1.82,2.36,2.36,0,0,0-1.79-.67,3.9,3.9,0,0,0-1.36.26,6.86,6.86,0,0,0-1.42.77l-.4-.75A5.89,5.89,0,0,1,405,39.52a3.48,3.48,0,0,1,2.56.91,3.4,3.4,0,0,1,.93,2.53v3.9c0,.31.14.47.42.47v1a3.25,3.25,0,0,1-.44.05,1,1,0,0,1-.67-.22.8.8,0,0,1-.26-.6l0-.68a4,4,0,0,1-1.5,1.2A4.78,4.78,0,0,1,404,48.49Zm.27-.86a3.91,3.91,0,0,0,1.62-.33,2.66,2.66,0,0,0,1.12-.88,1,1,0,0,0,.23-.33.77.77,0,0,0,.07-.32V44.36a6.81,6.81,0,0,0-1.17-.34,7.24,7.24,0,0,0-1.24-.11,3.45,3.45,0,0,0-1.94.49,1.54,1.54,0,0,0-.75,1.32,1.78,1.78,0,0,0,.16.75,1.84,1.84,0,0,0,.43.6,2,2,0,0,0,.66.41A2.16,2.16,0,0,0,404.27,47.63Z" transform="translate(-8.35 -0.71)"/><path class="cls-2" d="M414.36,48.44a3.56,3.56,0,0,1-1.64-.37,4.27,4.27,0,0,1-1.28-1,4.55,4.55,0,0,1-.84-1.41,4.64,4.64,0,0,1-.3-1.65,5.22,5.22,0,0,1,.29-1.72,4.51,4.51,0,0,1,.83-1.43,3.83,3.83,0,0,1,1.27-1,3.52,3.52,0,0,1,1.63-.37,3.35,3.35,0,0,1,1.93.56,5.48,5.48,0,0,1,1.4,1.4V39.67h1v8.69a3.51,3.51,0,0,1-.34,1.59,3.35,3.35,0,0,1-.92,1.15,4,4,0,0,1-1.34.7,5.85,5.85,0,0,1-1.64.23A4.84,4.84,0,0,1,412,51.5a4.22,4.22,0,0,1-1.48-1.43l.7-.55a3.13,3.13,0,0,0,1.36,1.22,4.36,4.36,0,0,0,1.83.39,4,4,0,0,0,1.2-.17,3,3,0,0,0,1-.52,2.41,2.41,0,0,0,.67-.86,2.77,2.77,0,0,0,.25-1.22V46.65A3.64,3.64,0,0,1,416.17,48,3.69,3.69,0,0,1,414.36,48.44Zm.31-.94a2.59,2.59,0,0,0,1-.19,3.33,3.33,0,0,0,1.53-1.18,2.09,2.09,0,0,0,.35-.78V42.68a3.44,3.44,0,0,0-.5-.87,3.8,3.8,0,0,0-.71-.68,3.53,3.53,0,0,0-.86-.45,2.66,2.66,0,0,0-.92-.16,2.81,2.81,0,0,0-1.31.3,3.3,3.3,0,0,0-1,.81,3.5,3.5,0,0,0-.6,1.13,4,4,0,0,0-.21,1.28,3.53,3.53,0,0,0,.25,1.33,3.21,3.21,0,0,0,.69,1.1,3.14,3.14,0,0,0,1,.75A3,3,0,0,0,414.67,47.5Z" transform="translate(-8.35 -0.71)"/><path class="cls-2" d="M424.89,48.49a4.18,4.18,0,0,1-3.11-1.34,4.34,4.34,0,0,1-.9-1.43,4.62,4.62,0,0,1-.33-1.75,4.6,4.6,0,0,1,1.22-3.13,4.38,4.38,0,0,1,1.38-1,4.11,4.11,0,0,1,1.72-.36,4.17,4.17,0,0,1,1.74.36,4,4,0,0,1,1.35,1,4.47,4.47,0,0,1,.88,1.41,4.59,4.59,0,0,1,.32,1.7v.26a.62.62,0,0,1,0,.18h-7.41a3.61,3.61,0,0,0,.33,1.29,3.41,3.41,0,0,0,.7,1,3.33,3.33,0,0,0,1,.67,3,3,0,0,0,2,.12,3,3,0,0,0,.76-.31,3.1,3.1,0,0,0,.64-.49,2.4,2.4,0,0,0,.43-.64l1,.26a2.89,2.89,0,0,1-.57.88,4.38,4.38,0,0,1-.84.68,4.23,4.23,0,0,1-1.07.44A4.42,4.42,0,0,1,424.89,48.49Zm3.19-5a3.49,3.49,0,0,0-.32-1.27,3.76,3.76,0,0,0-.7-1,3.11,3.11,0,0,0-1-.65,3.15,3.15,0,0,0-1.19-.23,3.09,3.09,0,0,0-2.19.88,3.4,3.4,0,0,0-.68,1,3.75,3.75,0,0,0-.3,1.26Z" transform="translate(-8.35 -0.71)"/><path class="cls-2" d="M433.78,48.49a6,6,0,0,1-2-.33,4.79,4.79,0,0,1-1.66-1l.52-.77a5.54,5.54,0,0,0,1.48.9,4.4,4.4,0,0,0,1.62.3,2.93,2.93,0,0,0,1.67-.42,1.39,1.39,0,0,0,.63-1.21,1.07,1.07,0,0,0-.17-.61,1.47,1.47,0,0,0-.49-.42,3.79,3.79,0,0,0-.82-.32c-.32-.1-.7-.19-1.13-.29s-.93-.25-1.3-.37a3.6,3.6,0,0,1-.9-.42,1.47,1.47,0,0,1-.54-.57,2,2,0,0,1-.17-.86A2.34,2.34,0,0,1,430.8,41a2.3,2.3,0,0,1,.69-.82,3.17,3.17,0,0,1,1-.49,4.73,4.73,0,0,1,1.26-.17,5,5,0,0,1,1.81.32,3.69,3.69,0,0,1,1.31.86l-.55.66a3,3,0,0,0-1.17-.74,4.1,4.1,0,0,0-1.43-.25,3.58,3.58,0,0,0-.83.09,2.09,2.09,0,0,0-.68.29,1.39,1.39,0,0,0-.45.51,1.37,1.37,0,0,0-.17.72,1.13,1.13,0,0,0,.12.56.92.92,0,0,0,.38.38,3.07,3.07,0,0,0,.67.28c.27.08.6.17,1,.26.55.13,1,.26,1.46.4a4.56,4.56,0,0,1,1.06.46,2,2,0,0,1,.64.65,1.88,1.88,0,0,1,.21.93,2.23,2.23,0,0,1-.91,1.89A3.93,3.93,0,0,1,433.78,48.49Z" transform="translate(-8.35 -0.71)"/><path class="cls-4" d="M58,138.23H53.41V150H52.14v-11.8H47.53V137.1H58Z" transform="translate(-8.35 -0.71)"/><path class="cls-4" d="M62.43,141.63a3.93,3.93,0,0,0-2.18.7,3.44,3.44,0,0,0-1.31,1.8V150H57.7v-9.49h1.16v2.28a4.3,4.3,0,0,1,1.42-1.71,3.28,3.28,0,0,1,1.92-.62h.23Z" transform="translate(-8.35 -0.71)"/><path class="cls-4" d="M66.35,150.22A3.43,3.43,0,0,1,65.1,150a3.14,3.14,0,0,1-1-.63,2.88,2.88,0,0,1-.9-2.1,2.36,2.36,0,0,1,.29-1.14,2.74,2.74,0,0,1,.82-.91,3.88,3.88,0,0,1,1.26-.6,5.74,5.74,0,0,1,1.6-.21,9.35,9.35,0,0,1,1.48.13,6.56,6.56,0,0,1,1.33.37V144a2.79,2.79,0,0,0-.71-2,2.62,2.62,0,0,0-2-.73,4,4,0,0,0-1.49.29,6.77,6.77,0,0,0-1.55.84l-.44-.82a6.4,6.4,0,0,1,3.57-1.24,3.83,3.83,0,0,1,2.81,1,3.71,3.71,0,0,1,1,2.77v4.28q0,.51.45.51V150a2.59,2.59,0,0,1-.47.06,1.06,1.06,0,0,1-.74-.24.89.89,0,0,1-.28-.65l0-.75a4.17,4.17,0,0,1-1.65,1.31A5,5,0,0,1,66.35,150.22Zm.29-.95a4.32,4.32,0,0,0,1.78-.36,3,3,0,0,0,1.23-1,1.23,1.23,0,0,0,.25-.36.93.93,0,0,0,.08-.35v-1.55a6.83,6.83,0,0,0-1.29-.36,6.72,6.72,0,0,0-1.35-.13,3.84,3.84,0,0,0-2.14.54,1.69,1.69,0,0,0-.82,1.44,1.86,1.86,0,0,0,.18.82,2,2,0,0,0,.47.67,2.2,2.2,0,0,0,.72.45A2.42,2.42,0,0,0,66.64,149.27Z" transform="translate(-8.35 -0.71)"/><path class="cls-4" d="M73.9,138.55v-1.82h1.24v1.82Zm0,11.48v-9.49h1.24V150Z" transform="translate(-8.35 -0.71)"/><path class="cls-4" d="M85.85,150H84.61v-5.3a4.67,4.67,0,0,0-.5-2.46,1.71,1.71,0,0,0-1.54-.76,3,3,0,0,0-1.09.2,3.57,3.57,0,0,0-1,.56,4.29,4.29,0,0,0-.83.87,3.2,3.2,0,0,0-.53,1.08V150H77.87v-9.49H79v2.15A4.49,4.49,0,0,1,80.67,141a4.61,4.61,0,0,1,2.36-.63,2.75,2.75,0,0,1,1.33.29,2.28,2.28,0,0,1,.87.82,3.77,3.77,0,0,1,.48,1.29,9.82,9.82,0,0,1,.14,1.7Z" transform="translate(-8.35 -0.71)"/><path class="cls-4" d="M88.49,138.55v-1.82h1.24v1.82Zm0,11.48v-9.49h1.24V150Z" transform="translate(-8.35 -0.71)"/><path class="cls-4" d="M100.45,150H99.21v-5.3a4.67,4.67,0,0,0-.5-2.46,1.72,1.72,0,0,0-1.54-.76,3,3,0,0,0-1.1.2,3.71,3.71,0,0,0-1,.56,4.59,4.59,0,0,0-.83.87,3.18,3.18,0,0,0-.52,1.08V150H92.47v-9.49H93.6v2.15A4.46,4.46,0,0,1,95.26,141a4.64,4.64,0,0,1,2.36-.63,2.7,2.7,0,0,1,1.33.29,2.24,2.24,0,0,1,.88.82,3.77,3.77,0,0,1,.47,1.29,8.89,8.89,0,0,1,.15,1.7Z" transform="translate(-8.35 -0.71)"/><path class="cls-4" d="M106.9,150.16a3.85,3.85,0,0,1-1.8-.41,4.61,4.61,0,0,1-1.4-1.08,5.13,5.13,0,0,1-.92-1.55,5.07,5.07,0,0,1-.33-1.8,5.68,5.68,0,0,1,.32-1.89,4.82,4.82,0,0,1,.9-1.58,4.32,4.32,0,0,1,1.4-1.07,4,4,0,0,1,1.79-.4A3.65,3.65,0,0,1,109,141a5.9,5.9,0,0,1,1.53,1.54v-2h1.11v9.53a3.84,3.84,0,0,1-.38,1.74,3.58,3.58,0,0,1-1,1.27,4.28,4.28,0,0,1-1.47.76,6.27,6.27,0,0,1-1.8.26,5.32,5.32,0,0,1-2.64-.58,4.68,4.68,0,0,1-1.62-1.57l.76-.6a3.52,3.52,0,0,0,1.5,1.34,4.78,4.78,0,0,0,2,.42,4.32,4.32,0,0,0,1.31-.19,3,3,0,0,0,1.09-.56,2.8,2.8,0,0,0,.74-1,3.11,3.11,0,0,0,.27-1.34v-1.88a4.14,4.14,0,0,1-3.48,2Zm.34-1a2.87,2.87,0,0,0,1.08-.2,3.74,3.74,0,0,0,1-.53,4,4,0,0,0,.72-.76,2.42,2.42,0,0,0,.38-.86v-2.93a3.62,3.62,0,0,0-.55-1,4,4,0,0,0-.78-.75,4.21,4.21,0,0,0-.94-.49,3,3,0,0,0-1-.18,2.91,2.91,0,0,0-1.43.34,3.39,3.39,0,0,0-1.07.88,4,4,0,0,0-.66,1.24,4.51,4.51,0,0,0-.23,1.4,4,4,0,0,0,.27,1.46,3.77,3.77,0,0,0,.76,1.21,3.49,3.49,0,0,0,1.12.82A3.2,3.2,0,0,0,107.24,149.12Z" transform="translate(-8.35 -0.71)"/><path class="cls-4" d="M127.93,138.23h-4.61V150H122v-11.8h-4.61V137.1h10.5Z" transform="translate(-8.35 -0.71)"/><path class="cls-4" d="M129.6,138.55v-1.82h1.24v1.82Zm0,11.48v-9.49h1.24V150Z" transform="translate(-8.35 -0.71)"/><path class="cls-4" d="M147.7,150h-1.24v-5.3a4.46,4.46,0,0,0-.53-2.44,1.76,1.76,0,0,0-1.57-.78,2.51,2.51,0,0,0-1,.2,3.15,3.15,0,0,0-.9.56,4.12,4.12,0,0,0-.72.87,4.34,4.34,0,0,0-.47,1.1V150H140v-5.3a4.56,4.56,0,0,0-.51-2.46,1.75,1.75,0,0,0-1.57-.76,2.83,2.83,0,0,0-1.91.74,4.16,4.16,0,0,0-1.2,2V150h-1.24v-9.49h1.13v2.15a4.44,4.44,0,0,1,1.53-1.7,3.76,3.76,0,0,1,2.09-.61,2.72,2.72,0,0,1,1.93.67,2.94,2.94,0,0,1,.88,1.77,4.06,4.06,0,0,1,3.66-2.44,2.82,2.82,0,0,1,1.36.29,2.22,2.22,0,0,1,.89.83,4,4,0,0,1,.5,1.29,8.78,8.78,0,0,1,.15,1.69Z" transform="translate(-8.35 -0.71)"/><path class="cls-4" d="M154.42,150.22a4.58,4.58,0,0,1-1.9-.39,4.64,4.64,0,0,1-1.5-1.08,5,5,0,0,1-1-1.58,5.23,5.23,0,0,1-.35-1.91,5.16,5.16,0,0,1,.35-1.89,5,5,0,0,1,1-1.54,4.66,4.66,0,0,1,6.79,0,5.07,5.07,0,0,1,1.31,3.41v.29a.75.75,0,0,1,0,.2H151a4.12,4.12,0,0,0,.36,1.42,4.05,4.05,0,0,0,.77,1.12,3.69,3.69,0,0,0,1.09.74,3.32,3.32,0,0,0,1.3.26,3.18,3.18,0,0,0,.91-.13,3.89,3.89,0,0,0,.84-.34,3.57,3.57,0,0,0,.69-.54,2.11,2.11,0,0,0,.47-.7l1.08.29a3.12,3.12,0,0,1-.62,1,4.25,4.25,0,0,1-.93.75,4.38,4.38,0,0,1-1.17.49A4.8,4.8,0,0,1,154.42,150.22Zm3.5-5.43a3.75,3.75,0,0,0-.35-1.4,3.71,3.71,0,0,0-.77-1.08,3.38,3.38,0,0,0-2.38-1,3.44,3.44,0,0,0-1.31.26,3.27,3.27,0,0,0-1.08.71,3.53,3.53,0,0,0-.75,1.09,4.23,4.23,0,0,0-.34,1.39Z" transform="translate(-8.35 -0.71)"/><path class="cls-4" d="M14.42,116.45a5.47,5.47,0,0,1-2.47-.56A6.23,6.23,0,0,1,10,114.42a6.84,6.84,0,0,1-1.23-2.11,6.82,6.82,0,0,1,1.31-7A6.13,6.13,0,0,1,12,103.87a5.41,5.41,0,0,1,2.4-.54,5.35,5.35,0,0,1,2.47.57,6.34,6.34,0,0,1,1.92,1.51,6.91,6.91,0,0,1,1.23,2.1,6.83,6.83,0,0,1,.43,2.4,6.78,6.78,0,0,1-1.74,4.56,6.21,6.21,0,0,1-1.92,1.44A5.41,5.41,0,0,1,14.42,116.45Zm-4.8-6.56a6.06,6.06,0,0,0,.35,2,5.55,5.55,0,0,0,1,1.73,4.82,4.82,0,0,0,1.52,1.21,4.3,4.3,0,0,0,1.95.44,4.19,4.19,0,0,0,2-.47,5,5,0,0,0,1.52-1.24,5.71,5.71,0,0,0,.95-1.73,5.89,5.89,0,0,0,0-4,5.23,5.23,0,0,0-1-1.72,5,5,0,0,0-1.51-1.2,4.18,4.18,0,0,0-1.93-.44,4.23,4.23,0,0,0-2,.46,4.65,4.65,0,0,0-1.51,1.23,5.74,5.74,0,0,0-1,1.73A6.09,6.09,0,0,0,9.62,109.89Z" transform="translate(-8.35 -0.71)"/><path class="cls-4" d="M25.61,116.54a2.66,2.66,0,0,1-2.31-1,5.18,5.18,0,0,1-.76-3.07v-5.58h1.24v5.36c0,2.15.74,3.23,2.21,3.23a3.29,3.29,0,0,0,1.07-.18,3.57,3.57,0,0,0,1-.53,4.45,4.45,0,0,0,.8-.82,4,4,0,0,0,.57-1.08v-6h1.24v7.9c0,.34.15.51.44.51v1.09a3.12,3.12,0,0,1-.35,0h-.2a1.06,1.06,0,0,1-.71-.31,1.13,1.13,0,0,1-.27-.79v-1.09a4.37,4.37,0,0,1-1.69,1.72A4.43,4.43,0,0,1,25.61,116.54Z" transform="translate(-8.35 -0.71)"/><path class="cls-4" d="M38,115.9l-.32.15-.49.18a6,6,0,0,1-.62.17,4.21,4.21,0,0,1-.73.07,2.74,2.74,0,0,1-.76-.11,1.79,1.79,0,0,1-.64-.34,1.68,1.68,0,0,1-.44-.57,2,2,0,0,1-.16-.8v-6.8H32.55v-1h1.31v-3.2H35.1v3.2h2.19v1H35.1v6.45a1,1,0,0,0,.37.77,1.27,1.27,0,0,0,.78.25,2.45,2.45,0,0,0,.93-.17c.26-.12.43-.2.51-.25Z" transform="translate(-8.35 -0.71)"/><path class="cls-4" d="M44.41,116.54a3.71,3.71,0,0,1-2.12-.61,4.87,4.87,0,0,1-1.49-1.54v5.85H39.56V106.86h1.12v1.85a4.46,4.46,0,0,1,1.51-1.45,3.87,3.87,0,0,1,2-.56,4,4,0,0,1,1.81.41,4.73,4.73,0,0,1,1.42,1.09,5.22,5.22,0,0,1,.94,1.58,5.29,5.29,0,0,1,.33,1.84,5.69,5.69,0,0,1-.31,1.9,4.78,4.78,0,0,1-.88,1.56,4.21,4.21,0,0,1-1.37,1.07A3.9,3.9,0,0,1,44.41,116.54Zm-.34-1.09a2.94,2.94,0,0,0,1.39-.33,3.36,3.36,0,0,0,1.07-.87,3.75,3.75,0,0,0,.69-1.22,4.17,4.17,0,0,0,.23-1.41,4,4,0,0,0-.27-1.46,3.9,3.9,0,0,0-.75-1.22,3.59,3.59,0,0,0-1.12-.84,3.25,3.25,0,0,0-1.39-.31,2.77,2.77,0,0,0-1,.2,3.86,3.86,0,0,0-1.74,1.25,2.1,2.1,0,0,0-.39.9v2.92a4.32,4.32,0,0,0,.56,1,3.85,3.85,0,0,0,.76.75,4,4,0,0,0,.92.51A3,3,0,0,0,44.07,115.45Z" transform="translate(-8.35 -0.71)"/><path class="cls-4" d="M53.78,116.54a2.68,2.68,0,0,1-2.31-1,5.18,5.18,0,0,1-.75-3.07v-5.58H52v5.36c0,2.15.73,3.23,2.2,3.23a3.35,3.35,0,0,0,1.08-.18,3.67,3.67,0,0,0,1-.53,4.15,4.15,0,0,0,.8-.82,4.3,4.3,0,0,0,.58-1.08v-6h1.24v7.9c0,.34.14.51.43.51v1.09a2.88,2.88,0,0,1-.35,0h-.19a1,1,0,0,1-.71-.31,1.09,1.09,0,0,1-.28-.79v-1.09a4.41,4.41,0,0,1-1.68,1.72A4.47,4.47,0,0,1,53.78,116.54Z" transform="translate(-8.35 -0.71)"/><path class="cls-4" d="M66.19,115.9l-.32.15-.48.18c-.19.06-.39.12-.62.17a4.3,4.3,0,0,1-.73.07,2.81,2.81,0,0,1-.77-.11,1.88,1.88,0,0,1-.64-.34,1.65,1.65,0,0,1-.43-.57,1.85,1.85,0,0,1-.17-.8v-6.8H60.72v-1H62v-3.2h1.24v3.2h2.19v1H63.27v6.45a1,1,0,0,0,.38.77,1.23,1.23,0,0,0,.77.25,2.45,2.45,0,0,0,.93-.17,4,4,0,0,0,.51-.25Z" transform="translate(-8.35 -0.71)"/><path class="cls-4" d="M72.64,116.36V103.42h5.47a3.36,3.36,0,0,1,1.54.36,3.92,3.92,0,0,1,1.21.93,4.2,4.2,0,0,1,.79,1.3,4,4,0,0,1,.28,1.47,4.35,4.35,0,0,1-.21,1.36,4.26,4.26,0,0,1-.58,1.17,3.54,3.54,0,0,1-.9.87,3.29,3.29,0,0,1-1.19.49l3.17,5H80.78l-3-4.78H73.91v4.78Zm1.27-5.91h4.23a2.2,2.2,0,0,0,1-.24,2.44,2.44,0,0,0,.79-.67,3.17,3.17,0,0,0,.51-.94,3.25,3.25,0,0,0,.19-1.12,3.09,3.09,0,0,0-.21-1.12,3.2,3.2,0,0,0-.57-.94,2.65,2.65,0,0,0-.84-.63,2.24,2.24,0,0,0-1-.24H73.91Z" transform="translate(-8.35 -0.71)"/><path class="cls-4" d="M88.11,116.54a4.55,4.55,0,0,1-1.9-.39,4.64,4.64,0,0,1-1.51-1.08,5.08,5.08,0,0,1-1.35-3.49,5,5,0,0,1,.36-1.88,4.87,4.87,0,0,1,1-1.55,4.68,4.68,0,0,1,1.51-1.06,4.57,4.57,0,0,1,1.89-.39,4.63,4.63,0,0,1,1.91.39,4.53,4.53,0,0,1,1.48,1.07,4.94,4.94,0,0,1,1.31,3.41v.29a1,1,0,0,1,0,.2H84.65a3.85,3.85,0,0,0,.35,1.41,3.75,3.75,0,0,0,.78,1.12,3.35,3.35,0,0,0,1.08.74,3.18,3.18,0,0,0,1.3.26,3.4,3.4,0,0,0,1.75-.47,3.35,3.35,0,0,0,.7-.54,2.33,2.33,0,0,0,.47-.7l1.08.29a3.51,3.51,0,0,1-.62,1,4.38,4.38,0,0,1-2.1,1.24A5.27,5.27,0,0,1,88.11,116.54Zm3.5-5.43a3.91,3.91,0,0,0-1.12-2.48,3.43,3.43,0,0,0-1.08-.71,3.31,3.31,0,0,0-1.3-.25,3.39,3.39,0,0,0-1.31.25,3.48,3.48,0,0,0-1.09.71,3.55,3.55,0,0,0-.74,1.1,4.12,4.12,0,0,0-.34,1.38Z" transform="translate(-8.35 -0.71)"/><path class="cls-4" d="M97.86,116.54a6.72,6.72,0,0,1-2.17-.36,5.39,5.39,0,0,1-1.82-1.06l.56-.84a6.3,6.3,0,0,0,1.63,1,5,5,0,0,0,1.78.32,3.18,3.18,0,0,0,1.83-.46,1.5,1.5,0,0,0,.69-1.32,1.11,1.11,0,0,0-.19-.67,1.62,1.62,0,0,0-.53-.46,4.31,4.31,0,0,0-.9-.36c-.35-.1-.77-.21-1.24-.32a14.62,14.62,0,0,1-1.43-.4,4.17,4.17,0,0,1-1-.45,1.66,1.66,0,0,1-.58-.63,2,2,0,0,1-.19-.94,2.72,2.72,0,0,1,.28-1.26,2.65,2.65,0,0,1,.76-.9,3.48,3.48,0,0,1,1.13-.54,5.11,5.11,0,0,1,1.38-.18,5.3,5.3,0,0,1,2,.36,4,4,0,0,1,1.44.93l-.61.73a3.48,3.48,0,0,0-1.28-.82,4.64,4.64,0,0,0-1.58-.27,3.79,3.79,0,0,0-.91.1,2.25,2.25,0,0,0-.74.32,1.55,1.55,0,0,0-.5.55,1.69,1.69,0,0,0-.18.8,1.27,1.27,0,0,0,.13.62,1,1,0,0,0,.42.41,3.51,3.51,0,0,0,.74.31c.29.09.65.18,1.08.28.61.15,1.14.29,1.6.44a4.48,4.48,0,0,1,1.16.51,2,2,0,0,1,.7.71,2,2,0,0,1,.24,1,2.51,2.51,0,0,1-1,2.08A4.35,4.35,0,0,1,97.86,116.54Z" transform="translate(-8.35 -0.71)"/><path class="cls-4" d="M107.63,116.54a4.51,4.51,0,0,1-1.9-.39,4.64,4.64,0,0,1-1.48-1.07,4.85,4.85,0,0,1-1-1.56,5.22,5.22,0,0,1-.34-1.88,5,5,0,0,1,1.34-3.46,4.71,4.71,0,0,1,1.48-1.08,4.62,4.62,0,0,1,3.76,0,4.8,4.8,0,0,1,1.5,1.08,5.08,5.08,0,0,1,1.34,3.46,5.23,5.23,0,0,1-.35,1.88,4.82,4.82,0,0,1-1,1.56,4.57,4.57,0,0,1-3.4,1.46Zm-3.45-4.88a3.79,3.79,0,0,0,.28,1.48,4.2,4.2,0,0,0,.73,1.21,3.53,3.53,0,0,0,1.1.81,3.2,3.2,0,0,0,1.34.29,3.09,3.09,0,0,0,1.34-.3,3.68,3.68,0,0,0,1.1-.82,4,4,0,0,0,.75-1.21,4.12,4.12,0,0,0,.27-1.5,4,4,0,0,0-1-2.71,3.49,3.49,0,0,0-1.1-.81,3,3,0,0,0-1.34-.31,2.86,2.86,0,0,0-1.33.31,3.37,3.37,0,0,0-1.1.82,4.25,4.25,0,0,0-.74,1.23A4,4,0,0,0,104.18,111.66Z" transform="translate(-8.35 -0.71)"/><path class="cls-4" d="M114.48,103.06h1.24v11.15a1.16,1.16,0,0,0,.29.83,1.09,1.09,0,0,0,.82.3,2.23,2.23,0,0,0,.47-.06,2.36,2.36,0,0,0,.51-.14l.22,1a3.85,3.85,0,0,1-.84.24,5.13,5.13,0,0,1-.87.09A1.86,1.86,0,0,1,115,116a1.83,1.83,0,0,1-.49-1.36Z" transform="translate(-8.35 -0.71)"/><path class="cls-4" d="M122.35,116.54a2.65,2.65,0,0,1-2.3-1,5.11,5.11,0,0,1-.76-3.07v-5.58h1.24v5.36c0,2.15.73,3.23,2.2,3.23a3.31,3.31,0,0,0,1.08-.18,3.52,3.52,0,0,0,1-.53,4.5,4.5,0,0,0,.81-.82,4.62,4.62,0,0,0,.57-1.08v-6h1.24v7.9c0,.34.15.51.44.51v1.09a3.25,3.25,0,0,1-.36,0h-.19a1,1,0,0,1-.71-.31,1.13,1.13,0,0,1-.27-.79v-1.09a4.53,4.53,0,0,1-4,2.33Z" transform="translate(-8.35 -0.71)"/><path class="cls-4" d="M134.76,115.9l-.32.15-.48.18a6,6,0,0,1-.62.17,4.21,4.21,0,0,1-.73.07,2.68,2.68,0,0,1-.76-.11,1.71,1.71,0,0,1-.64-.34,1.68,1.68,0,0,1-.44-.57,1.84,1.84,0,0,1-.16-.8v-6.8h-1.32v-1h1.32v-3.2h1.24v3.2H134v1h-2.18v6.45a.94.94,0,0,0,.37.77,1.23,1.23,0,0,0,.77.25,2.38,2.38,0,0,0,.93-.17,4,4,0,0,0,.51-.25Z" transform="translate(-8.35 -0.71)"/><path class="cls-4" d="M136.31,104.88v-1.82h1.24v1.82Zm0,11.48v-9.5h1.24v9.5Z" transform="translate(-8.35 -0.71)"/><path class="cls-4" d="M144.33,116.54a4.55,4.55,0,0,1-1.9-.39,4.64,4.64,0,0,1-1.48-1.07,4.85,4.85,0,0,1-1-1.56,5.35,5.35,0,0,1,0-3.78,5.06,5.06,0,0,1,1-1.56,4.83,4.83,0,0,1,1.48-1.08,4.62,4.62,0,0,1,3.76,0,4.8,4.8,0,0,1,1.5,1.08,4.85,4.85,0,0,1,1,1.56,5.06,5.06,0,0,1,.36,1.9,5.23,5.23,0,0,1-.35,1.88,4.82,4.82,0,0,1-1,1.56,4.62,4.62,0,0,1-1.5,1.07A4.55,4.55,0,0,1,144.33,116.54Zm-3.45-4.88a4.06,4.06,0,0,0,1,2.69,3.49,3.49,0,0,0,1.09.81,3.2,3.2,0,0,0,1.34.29,3.09,3.09,0,0,0,1.34-.3,3.68,3.68,0,0,0,1.1-.82,3.85,3.85,0,0,0,.75-1.21,4.12,4.12,0,0,0,.27-1.5,4.05,4.05,0,0,0-.27-1.48,3.83,3.83,0,0,0-.75-1.23,3.49,3.49,0,0,0-1.1-.81,3,3,0,0,0-1.34-.31,2.86,2.86,0,0,0-1.33.31,3.37,3.37,0,0,0-1.1.82,4.25,4.25,0,0,0-.74,1.23A4.18,4.18,0,0,0,140.88,111.66Z" transform="translate(-8.35 -0.71)"/><path class="cls-4" d="M159.11,116.36h-1.24v-5.3a4.67,4.67,0,0,0-.5-2.46,1.73,1.73,0,0,0-1.54-.77,3.28,3.28,0,0,0-1.1.2,3.75,3.75,0,0,0-1,.57,4.52,4.52,0,0,0-.83.86,3.55,3.55,0,0,0-.53,1.09v5.81h-1.23v-9.5h1.13V109a4.32,4.32,0,0,1,1.66-1.68,4.55,4.55,0,0,1,2.36-.64,2.81,2.81,0,0,1,1.33.29,2.31,2.31,0,0,1,.88.82,3.91,3.91,0,0,1,.47,1.3,8.78,8.78,0,0,1,.15,1.69Z" transform="translate(-8.35 -0.71)"/><path class="cls-4" d="M20.7,84.44V71.5H22V84.44Z" transform="translate(-8.35 -0.71)"/><path class="cls-4" d="M29.52,84l-.32.14-.48.18a4.23,4.23,0,0,1-.62.17,3.41,3.41,0,0,1-.73.07,2.68,2.68,0,0,1-.76-.11A1.58,1.58,0,0,1,26,84.1a1.68,1.68,0,0,1-.44-.57,1.84,1.84,0,0,1-.16-.8v-6.8H24.05V75h1.32V71.74h1.24V75h2.18v1H26.61v6.45a1,1,0,0,0,.37.78,1.28,1.28,0,0,0,.77.24,2.21,2.21,0,0,0,.93-.17,4,4,0,0,0,.51-.25Z" transform="translate(-8.35 -0.71)"/><path class="cls-4" d="M34.93,84.62a4.57,4.57,0,0,1-3.4-1.46,5,5,0,0,1-1-1.58,5.23,5.23,0,0,1-.35-1.91,5.16,5.16,0,0,1,.35-1.89,5,5,0,0,1,1-1.55A4.91,4.91,0,0,1,33,75.17a4.82,4.82,0,0,1,3.8,0,4.73,4.73,0,0,1,1.49,1.07,5.07,5.07,0,0,1,1.31,3.41v.29a.81.81,0,0,1,0,.2H31.47a4.07,4.07,0,0,0,.36,1.41,3.91,3.91,0,0,0,.77,1.12,3.35,3.35,0,0,0,1.09.74,3.15,3.15,0,0,0,1.3.27,3.57,3.57,0,0,0,.91-.13,3.91,3.91,0,0,0,.84-.35,2.94,2.94,0,0,0,.69-.54,2,2,0,0,0,.47-.7l1.08.29a3,3,0,0,1-.62,1,4.25,4.25,0,0,1-.93.75,4.38,4.38,0,0,1-1.17.49A4.8,4.8,0,0,1,34.93,84.62Zm3.5-5.43a3.7,3.7,0,0,0-.35-1.39,3.9,3.9,0,0,0-.77-1.09A3.51,3.51,0,0,0,36.24,76a3.36,3.36,0,0,0-1.31-.25,3.36,3.36,0,0,0-2.39,1,3.57,3.57,0,0,0-.75,1.1,4.18,4.18,0,0,0-.34,1.38Z" transform="translate(-8.35 -0.71)"/><path class="cls-4" d="M46.27,76a4,4,0,0,0-2.19.69,3.47,3.47,0,0,0-1.31,1.81v5.9H41.53V75H42.7v2.28a4.32,4.32,0,0,1,1.42-1.72A3.3,3.3,0,0,1,46,74.89l.24,0Z" transform="translate(-8.35 -0.71)"/><path class="cls-4" d="M50.19,84.62a3.39,3.39,0,0,1-1.25-.22,3.21,3.21,0,0,1-1-.63,2.84,2.84,0,0,1-.91-2.1,2.32,2.32,0,0,1,.3-1.15,2.71,2.71,0,0,1,.82-.91A4.13,4.13,0,0,1,49.4,79,5.81,5.81,0,0,1,51,78.81a8.19,8.19,0,0,1,1.47.13,6.57,6.57,0,0,1,1.33.36v-.85a2.73,2.73,0,0,0-.71-2,2.6,2.6,0,0,0-2-.74,4.29,4.29,0,0,0-1.5.29,7.64,7.64,0,0,0-1.55.84L47.65,76a6.48,6.48,0,0,1,3.58-1.24,3.81,3.81,0,0,1,2.8,1,3.69,3.69,0,0,1,1,2.77v4.28c0,.34.15.51.46.51v1.09a2.79,2.79,0,0,1-.48.06,1,1,0,0,1-.73-.24A.92.92,0,0,1,54,83.6l0-.74a4.41,4.41,0,0,1-1.65,1.31A5.13,5.13,0,0,1,50.19,84.62Zm.29-.94a4.36,4.36,0,0,0,1.78-.37,2.88,2.88,0,0,0,1.23-1,1,1,0,0,0,.24-.36.84.84,0,0,0,.08-.36V80.09a7.84,7.84,0,0,0-1.28-.37,7.65,7.65,0,0,0-1.36-.13,3.82,3.82,0,0,0-2.13.55,1.67,1.67,0,0,0-.82,1.44,2,2,0,0,0,.17.82,2.16,2.16,0,0,0,.48.67,2.36,2.36,0,0,0,.72.44A2.39,2.39,0,0,0,50.48,83.68Z" transform="translate(-8.35 -0.71)"/><path class="cls-4" d="M62.21,84l-.31.14-.49.18a4.23,4.23,0,0,1-.62.17,3.41,3.41,0,0,1-.73.07,2.74,2.74,0,0,1-.76-.11,1.65,1.65,0,0,1-.64-.34,1.68,1.68,0,0,1-.44-.57,1.84,1.84,0,0,1-.16-.8v-6.8H56.75V75h1.31V71.74H59.3V75h2.19v1H59.3v6.45a1,1,0,0,0,.37.78,1.33,1.33,0,0,0,.78.24,2.27,2.27,0,0,0,.93-.17c.26-.12.43-.2.51-.25Z" transform="translate(-8.35 -0.71)"/><path class="cls-4" d="M63.76,73V71.14H65V73Zm0,11.48V75H65v9.49Z" transform="translate(-8.35 -0.71)"/><path class="cls-4" d="M71.78,84.62a4.5,4.5,0,0,1-1.89-.39,4.66,4.66,0,0,1-1.49-1.06,4.87,4.87,0,0,1-1-1.57,5.19,5.19,0,0,1-.35-1.88,5,5,0,0,1,.36-1.89,4.85,4.85,0,0,1,2.46-2.65,4.53,4.53,0,0,1,1.88-.4,4.57,4.57,0,0,1,1.89.4,4.87,4.87,0,0,1,1.49,1.08,5,5,0,0,1,1,1.57,5.32,5.32,0,0,1,0,3.77,5.08,5.08,0,0,1-1,1.57,4.56,4.56,0,0,1-3.4,1.45Zm-3.44-4.88a3.94,3.94,0,0,0,1,2.69,3.49,3.49,0,0,0,1.09.81,3.23,3.23,0,0,0,1.34.29,3.06,3.06,0,0,0,1.34-.3,3.41,3.41,0,0,0,1.1-.82A3.85,3.85,0,0,0,75,81.2a4.25,4.25,0,0,0,0-3A3.68,3.68,0,0,0,74.22,77a3.41,3.41,0,0,0-1.1-.82,3.06,3.06,0,0,0-1.34-.3,3,3,0,0,0-1.33.3,3.37,3.37,0,0,0-1.09.83,3.83,3.83,0,0,0-.75,1.23A4.12,4.12,0,0,0,68.34,79.74Z" transform="translate(-8.35 -0.71)"/><path class="cls-4" d="M86.56,84.44H85.32v-5.3a4.67,4.67,0,0,0-.5-2.46,1.71,1.71,0,0,0-1.54-.77,3.22,3.22,0,0,0-1.09.2,3.87,3.87,0,0,0-1,.57,4.24,4.24,0,0,0-.83.86,3.34,3.34,0,0,0-.53,1.09v5.81H78.58V75h1.13V77.1a4.41,4.41,0,0,1,1.67-1.68,4.62,4.62,0,0,1,2.36-.64,2.75,2.75,0,0,1,1.33.3,2.21,2.21,0,0,1,.87.82,3.57,3.57,0,0,1,.47,1.29,8.78,8.78,0,0,1,.15,1.69Z" transform="translate(-8.35 -0.71)"/><path class="cls-4" d="M97.55,71.5h1.07L104,84.44h-1.35l-1.67-4H95.16l-1.66,4H92.14Zm3.13,7.89L98.08,73l-2.65,6.39Z" transform="translate(-8.35 -0.71)"/><path class="cls-4" d="M119.73,84.44h-1.24v-5.3A4.44,4.44,0,0,0,118,76.7a1.76,1.76,0,0,0-1.57-.79,2.74,2.74,0,0,0-1,.2,3.37,3.37,0,0,0-.89.57,4.06,4.06,0,0,0-.72.86,3.91,3.91,0,0,0-.47,1.11v5.79H112v-5.3a4.56,4.56,0,0,0-.51-2.46,1.77,1.77,0,0,0-1.57-.77,2.76,2.76,0,0,0-1.91.75,4.2,4.2,0,0,0-1.21,2v5.81H105.6V75h1.13V77.1a4.55,4.55,0,0,1,1.53-1.71,3.87,3.87,0,0,1,2.1-.61,2.7,2.7,0,0,1,1.92.68,3,3,0,0,1,.89,1.77,4,4,0,0,1,3.66-2.45,2.85,2.85,0,0,1,1.36.3,2.34,2.34,0,0,1,.89.82,3.91,3.91,0,0,1,.49,1.3,8.56,8.56,0,0,1,.16,1.68Z" transform="translate(-8.35 -0.71)"/><path class="cls-4" d="M126.4,84.62A4.52,4.52,0,0,1,123,83.17a4.9,4.9,0,0,1-1-1.57,5.19,5.19,0,0,1-.35-1.88A5.13,5.13,0,0,1,123,76.26a4.87,4.87,0,0,1,1.49-1.08,4.62,4.62,0,0,1,3.76,0,4.8,4.8,0,0,1,1.5,1.08,5.13,5.13,0,0,1,1.34,3.46,5.19,5.19,0,0,1-.35,1.88,5,5,0,0,1-1,1.57,4.61,4.61,0,0,1-3.4,1.45ZM123,79.74a3.87,3.87,0,0,0,.28,1.49,4.06,4.06,0,0,0,.73,1.2,3.53,3.53,0,0,0,1.1.81,3.2,3.2,0,0,0,1.34.29,3.09,3.09,0,0,0,1.34-.3,3.64,3.64,0,0,0,1.1-.82,4.25,4.25,0,0,0,.75-1.21,4.07,4.07,0,0,0-.75-4.2,3.64,3.64,0,0,0-1.1-.82,3.09,3.09,0,0,0-1.34-.3,3,3,0,0,0-1.33.3A3.4,3.4,0,0,0,124,77a4,4,0,0,0-.74,1.23A3.92,3.92,0,0,0,123,79.74Z" transform="translate(-8.35 -0.71)"/><path class="cls-4" d="M136.16,84.62a2.65,2.65,0,0,1-2.3-1,5.11,5.11,0,0,1-.76-3.07V75h1.24v5.36c0,2.15.74,3.22,2.21,3.22a3.29,3.29,0,0,0,1.07-.18,3.46,3.46,0,0,0,1-.53,4.45,4.45,0,0,0,.8-.82,4.07,4.07,0,0,0,.57-1.07V75h1.24v7.89c0,.34.15.51.44.51v1.09a1.86,1.86,0,0,1-.36,0h-.19a1,1,0,0,1-.71-.31,1.12,1.12,0,0,1-.27-.78v-1.1a4.53,4.53,0,0,1-4,2.33Z" transform="translate(-8.35 -0.71)"/><path class="cls-4" d="M152,84.44h-1.24v-5.3a4.67,4.67,0,0,0-.5-2.46,1.73,1.73,0,0,0-1.54-.77,3.18,3.18,0,0,0-1.09.2,3.93,3.93,0,0,0-1,.57,4.52,4.52,0,0,0-.83.86,3.53,3.53,0,0,0-.52,1.09v5.81H144V75h1.13V77.1a4.46,4.46,0,0,1,1.66-1.68,4.65,4.65,0,0,1,2.36-.64,2.76,2.76,0,0,1,1.34.3,2.21,2.21,0,0,1,.87.82,3.57,3.57,0,0,1,.47,1.29,8.78,8.78,0,0,1,.15,1.69Z" transform="translate(-8.35 -0.71)"/><path class="cls-4" d="M159.11,84l-.32.14-.48.18a4.61,4.61,0,0,1-.62.17,3.54,3.54,0,0,1-.73.07,2.76,2.76,0,0,1-.77-.11,1.72,1.72,0,0,1-.64-.34,1.54,1.54,0,0,1-.43-.57,1.85,1.85,0,0,1-.17-.8v-6.8h-1.31V75H155V71.74h1.24V75h2.19v1h-2.19v6.45a1,1,0,0,0,.37.78,1.33,1.33,0,0,0,.78.24,2.27,2.27,0,0,0,.93-.17,4,4,0,0,0,.51-.25Z" transform="translate(-8.35 -0.71)"/><path class="cls-4" d="M57.66,50.67V37.74h4.39a6.69,6.69,0,0,1,2.71.51,5.57,5.57,0,0,1,1.93,1.38,5.93,5.93,0,0,1,1.17,2,7.9,7.9,0,0,1,.39,2.51,7.79,7.79,0,0,1-.44,2.67,5.87,5.87,0,0,1-1.25,2,5.63,5.63,0,0,1-2,1.31,6.71,6.71,0,0,1-2.56.46ZM67,44.19a6.62,6.62,0,0,0-.33-2.14,4.82,4.82,0,0,0-1-1.69,4.38,4.38,0,0,0-1.54-1.1,5.31,5.31,0,0,0-2.1-.39H58.94V49.54h3.11a5,5,0,0,0,2.12-.41A4.2,4.2,0,0,0,65.71,48a4.73,4.73,0,0,0,.94-1.69A6.88,6.88,0,0,0,67,44.19Z" transform="translate(-8.35 -0.71)"/><path class="cls-4" d="M72.82,50.86a3.43,3.43,0,0,1-1.25-.23,3.14,3.14,0,0,1-1-.63,2.68,2.68,0,0,1-.66-.94,2.8,2.8,0,0,1-.24-1.16A2.36,2.36,0,0,1,70,46.76a2.63,2.63,0,0,1,.82-.91,3.88,3.88,0,0,1,1.26-.6,5.74,5.74,0,0,1,1.6-.21,9.35,9.35,0,0,1,1.48.13,6.75,6.75,0,0,1,1.33.37v-.86a2.79,2.79,0,0,0-.71-2,2.62,2.62,0,0,0-2-.73,4.07,4.07,0,0,0-1.5.29,6.71,6.71,0,0,0-1.54.84l-.44-.82A6.37,6.37,0,0,1,73.86,41a3.83,3.83,0,0,1,2.81,1,3.71,3.71,0,0,1,1,2.77v4.28q0,.51.45.51v1.09a2.59,2.59,0,0,1-.47.06,1.06,1.06,0,0,1-.74-.24.86.86,0,0,1-.28-.65l0-.75A4.31,4.31,0,0,1,75,50.4,5.11,5.11,0,0,1,72.82,50.86Zm.29-1a4.17,4.17,0,0,0,1.78-.37,2.88,2.88,0,0,0,1.23-1,1.23,1.23,0,0,0,.25-.36.93.93,0,0,0,.08-.35V46.32A8,8,0,0,0,75.16,46a7.56,7.56,0,0,0-1.36-.12,3.82,3.82,0,0,0-2.13.54,1.69,1.69,0,0,0-.82,1.44,1.89,1.89,0,0,0,.18.82,2,2,0,0,0,.47.67,2.18,2.18,0,0,0,.72.44A2.43,2.43,0,0,0,73.11,49.91Z" transform="translate(-8.35 -0.71)"/><path class="cls-4" d="M84.85,50.22l-.32.14a3.69,3.69,0,0,1-.48.19c-.19.06-.39.11-.62.16a3.48,3.48,0,0,1-.73.07,2.47,2.47,0,0,1-.77-.11,1.73,1.73,0,0,1-.63-.33,1.6,1.6,0,0,1-.44-.58,1.81,1.81,0,0,1-.17-.8v-6.8H79.38v-1h1.31V38h1.24v3.21h2.19v1H81.93v6.46a1,1,0,0,0,.38.77,1.28,1.28,0,0,0,.77.24,2.27,2.27,0,0,0,.93-.17,3.18,3.18,0,0,0,.51-.24Z" transform="translate(-8.35 -0.71)"/><path class="cls-4" d="M88.78,50.86a3.37,3.37,0,0,1-1.24-.23,3.08,3.08,0,0,1-1-.63,3,3,0,0,1-.66-.94,2.8,2.8,0,0,1-.24-1.16,2.36,2.36,0,0,1,.29-1.14,2.74,2.74,0,0,1,.82-.91,4,4,0,0,1,1.26-.6A5.79,5.79,0,0,1,89.6,45a9.35,9.35,0,0,1,1.48.13,6.56,6.56,0,0,1,1.33.37v-.86a2.79,2.79,0,0,0-.71-2,2.6,2.6,0,0,0-2-.73,4.06,4.06,0,0,0-1.49.29,6.77,6.77,0,0,0-1.55.84l-.44-.82A6.4,6.4,0,0,1,89.82,41a3.83,3.83,0,0,1,2.81,1,3.71,3.71,0,0,1,1,2.77v4.28c0,.34.15.51.46.51v1.09a2.79,2.79,0,0,1-.48.06,1.08,1.08,0,0,1-.74-.24.89.89,0,0,1-.28-.65l0-.75a4.31,4.31,0,0,1-1.65,1.31A5.19,5.19,0,0,1,88.78,50.86Zm.3-1a4.16,4.16,0,0,0,1.77-.37,2.88,2.88,0,0,0,1.23-1,1.23,1.23,0,0,0,.25-.36.93.93,0,0,0,.08-.35V46.32A7.84,7.84,0,0,0,91.13,46a7.73,7.73,0,0,0-1.36-.12,3.78,3.78,0,0,0-2.13.54,1.67,1.67,0,0,0-.82,1.44,1.88,1.88,0,0,0,.17.82,2.13,2.13,0,0,0,.47.67,2.18,2.18,0,0,0,.72.44A2.44,2.44,0,0,0,89.08,49.91Z" transform="translate(-8.35 -0.71)"/><path class="cls-4" d="M99.48,50.86a6.73,6.73,0,0,1-2.17-.37,5.08,5.08,0,0,1-1.82-1.06l.57-.83a6.2,6.2,0,0,0,1.63,1,4.72,4.72,0,0,0,1.77.33,3.24,3.24,0,0,0,1.84-.47,1.51,1.51,0,0,0,.68-1.32,1.14,1.14,0,0,0-.18-.66,1.68,1.68,0,0,0-.54-.47,4.46,4.46,0,0,0-.89-.35c-.36-.11-.78-.21-1.25-.32s-1-.27-1.42-.4a4.48,4.48,0,0,1-1-.46,1.66,1.66,0,0,1-.58-.63,2,2,0,0,1-.19-.94,2.65,2.65,0,0,1,.28-1.25,2.41,2.41,0,0,1,.77-.9,3.29,3.29,0,0,1,1.13-.54A5.09,5.09,0,0,1,99.48,41a5.3,5.3,0,0,1,2,.35,4,4,0,0,1,1.44.94l-.6.73a3.28,3.28,0,0,0-1.29-.82A4.63,4.63,0,0,0,99.45,42a3.82,3.82,0,0,0-.92.1,2.09,2.09,0,0,0-.73.31,1.7,1.7,0,0,0-.51.56,1.67,1.67,0,0,0-.18.79,1.36,1.36,0,0,0,.13.62,1.1,1.1,0,0,0,.42.41,3,3,0,0,0,.74.31c.3.09.66.19,1.08.28.61.15,1.14.3,1.61.44a5.41,5.41,0,0,1,1.15.51,2,2,0,0,1,.7.71,2,2,0,0,1,.24,1,2.47,2.47,0,0,1-1,2.08A4.35,4.35,0,0,1,99.48,50.86Z" transform="translate(-8.35 -0.71)"/><path class="cls-4" d="M109.3,50.86a4.62,4.62,0,0,1-3.4-1.47,5,5,0,0,1-1-1.58,5.23,5.23,0,0,1-.35-1.91A5.16,5.16,0,0,1,104.9,44a5,5,0,0,1,1-1.55,4.72,4.72,0,0,1,1.5-1.05,4.82,4.82,0,0,1,3.8,0,4.55,4.55,0,0,1,1.49,1.06A5.07,5.07,0,0,1,114,45.88v.29a.75.75,0,0,1,0,.2h-8.13a4.18,4.18,0,0,0,.36,1.42,4.05,4.05,0,0,0,.77,1.12,3.48,3.48,0,0,0,1.09.73,3.26,3.26,0,0,0,2.21.14,3.47,3.47,0,0,0,.84-.35,3.17,3.17,0,0,0,.69-.53,2.11,2.11,0,0,0,.47-.7l1.08.29a3.12,3.12,0,0,1-.62.95,4.25,4.25,0,0,1-.93.75,4.38,4.38,0,0,1-1.17.49A4.8,4.8,0,0,1,109.3,50.86Zm3.5-5.43a3.75,3.75,0,0,0-.35-1.4,3.71,3.71,0,0,0-.77-1.08,3.38,3.38,0,0,0-2.38-1,3.44,3.44,0,0,0-1.31.26,3.27,3.27,0,0,0-1.08.71,3.53,3.53,0,0,0-.75,1.09,4.23,4.23,0,0,0-.34,1.39Z" transform="translate(-8.35 -0.71)"/><path class="cls-4" d="M120.38,50.22l-.32.14a3.69,3.69,0,0,1-.48.19,6.15,6.15,0,0,1-.62.16,3.41,3.41,0,0,1-.73.07,2.41,2.41,0,0,1-.76-.11,1.69,1.69,0,0,1-.64-.33,1.72,1.72,0,0,1-.44-.58,1.81,1.81,0,0,1-.16-.8v-6.8h-1.31v-1h1.31V38h1.24v3.21h2.18v1h-2.18v6.46a1,1,0,0,0,.37.77,1.31,1.31,0,0,0,.78.24,2.27,2.27,0,0,0,.93-.17,4.44,4.44,0,0,0,.51-.24Z" transform="translate(-8.35 -0.71)"/><path class="cls-4" d="M134.4,40.16a3.94,3.94,0,0,0-1.46-1,5.25,5.25,0,0,0-2.08-.39,3.89,3.89,0,0,0-2.49.65,2.15,2.15,0,0,0-.79,1.76,2,2,0,0,0,.21,1,1.81,1.81,0,0,0,.65.64,4.37,4.37,0,0,0,1.12.48c.45.13,1,.26,1.61.4a16.77,16.77,0,0,1,1.87.49,5.44,5.44,0,0,1,1.41.68,2.82,2.82,0,0,1,.89,1,3,3,0,0,1,.31,1.45,3.25,3.25,0,0,1-.34,1.55,3.09,3.09,0,0,1-1,1.1,4.29,4.29,0,0,1-1.47.64,8,8,0,0,1-1.88.21,7.68,7.68,0,0,1-5.19-1.87l.63-1a5.33,5.33,0,0,0,.83.69,5.51,5.51,0,0,0,1.08.57,6.17,6.17,0,0,0,1.26.39,7.31,7.31,0,0,0,1.43.13,4.46,4.46,0,0,0,2.41-.55,1.86,1.86,0,0,0,.87-1.69,2,2,0,0,0-.25-1,2.11,2.11,0,0,0-.74-.71,5.38,5.38,0,0,0-1.22-.52c-.49-.14-1-.29-1.69-.44a17.83,17.83,0,0,1-1.79-.49,4.57,4.57,0,0,1-1.29-.64,2.42,2.42,0,0,1-.8-.92,3,3,0,0,1-.26-1.32,3.57,3.57,0,0,1,.34-1.59,3.1,3.1,0,0,1,1-1.17,4.51,4.51,0,0,1,1.46-.71,6.75,6.75,0,0,1,1.86-.25,6.43,6.43,0,0,1,2.31.4,6.12,6.12,0,0,1,1.83,1.1Z" transform="translate(-8.35 -0.71)"/><path class="cls-4" d="M137.64,39.19V37.37h1.24v1.82Zm0,11.48V41.18h1.24v9.49Z" transform="translate(-8.35 -0.71)"/><path class="cls-4" d="M140.81,49.84l6.42-7.73H141v-.93h7.61V42l-6.39,7.72h6.38v.93h-7.75Z" transform="translate(-8.35 -0.71)"/><path class="cls-4" d="M154.42,50.86a4.62,4.62,0,0,1-3.4-1.47,5,5,0,0,1-1-1.58,5.23,5.23,0,0,1-.35-1.91A5.16,5.16,0,0,1,150,44a5,5,0,0,1,1-1.55,4.72,4.72,0,0,1,1.5-1.05,4.82,4.82,0,0,1,3.8,0,4.55,4.55,0,0,1,1.49,1.06,5.07,5.07,0,0,1,1.31,3.41v.29a.75.75,0,0,1,0,.2H151a4.18,4.18,0,0,0,.36,1.42,4.05,4.05,0,0,0,.77,1.12,3.48,3.48,0,0,0,1.09.73,3.26,3.26,0,0,0,2.21.14,3.47,3.47,0,0,0,.84-.35,3.17,3.17,0,0,0,.69-.53,2.11,2.11,0,0,0,.47-.7l1.08.29a3.12,3.12,0,0,1-.62.95,4.25,4.25,0,0,1-.93.75,4.38,4.38,0,0,1-1.17.49A4.8,4.8,0,0,1,154.42,50.86Zm3.5-5.43a3.75,3.75,0,0,0-.35-1.4A3.71,3.71,0,0,0,156.8,43a3.38,3.38,0,0,0-2.38-1,3.44,3.44,0,0,0-1.31.26A3.27,3.27,0,0,0,152,43a3.53,3.53,0,0,0-.75,1.09,4.23,4.23,0,0,0-.34,1.39Z" transform="translate(-8.35 -0.71)"/><path class="cls-4" d="M82.77,2h1.08L89.22,15H87.87L86.2,10.92H80.38L78.73,15H77.36Zm3.14,7.89L83.3,3.52l-2.64,6.4Z" transform="translate(-8.35 -0.71)"/><path class="cls-4" d="M90.88,1.66h1.24V12.82a1.18,1.18,0,0,0,.29.83,1.1,1.1,0,0,0,.82.3,2.23,2.23,0,0,0,.47-.06,3.57,3.57,0,0,0,.52-.14l.21,1a4.55,4.55,0,0,1-.84.23,4.37,4.37,0,0,1-.87.1,1.82,1.82,0,0,1-1.35-.49,1.8,1.8,0,0,1-.49-1.36Z" transform="translate(-8.35 -0.71)"/><path class="cls-4" d="M99.59,15.09a3.8,3.8,0,0,1-1.79-.41,4.65,4.65,0,0,1-1.41-1.08,5.13,5.13,0,0,1-.92-1.55,5,5,0,0,1-.33-1.8,5.68,5.68,0,0,1,.32-1.89,5,5,0,0,1,.91-1.58,4.31,4.31,0,0,1,1.39-1.07,4,4,0,0,1,1.79-.4,3.65,3.65,0,0,1,2.12.61,6.05,6.05,0,0,1,1.53,1.54v-2h1.11V15a3.84,3.84,0,0,1-.37,1.74,3.72,3.72,0,0,1-1,1.27,4.38,4.38,0,0,1-1.47.77,6.58,6.58,0,0,1-1.8.25A5.22,5.22,0,0,1,97,18.45a4.6,4.6,0,0,1-1.62-1.57l.76-.6a3.46,3.46,0,0,0,1.5,1.34,4.82,4.82,0,0,0,2,.43,4.39,4.39,0,0,0,1.32-.2,3.09,3.09,0,0,0,1.08-.56,2.6,2.6,0,0,0,.74-.95,3.11,3.11,0,0,0,.27-1.34V13.13a4.07,4.07,0,0,1-3.48,2Zm.35-1a2.87,2.87,0,0,0,1.07-.21,3.74,3.74,0,0,0,1-.53,4,4,0,0,0,.72-.76,2.34,2.34,0,0,0,.38-.86V8.77a3.36,3.36,0,0,0-.55-.95,3.63,3.63,0,0,0-.78-.74,4,4,0,0,0-.94-.5,3.07,3.07,0,0,0-2.44.16,3.5,3.5,0,0,0-1.07.88,4,4,0,0,0-.66,1.24,4.51,4.51,0,0,0-.23,1.4,3.79,3.79,0,0,0,.28,1.46,3.74,3.74,0,0,0,.75,1.21,3.6,3.6,0,0,0,1.12.82A3.11,3.11,0,0,0,99.94,14.06Z" transform="translate(-8.35 -0.71)"/><path class="cls-4" d="M111.09,15.15a4.58,4.58,0,0,1-1.9-.39,4.64,4.64,0,0,1-1.48-1.07,5,5,0,0,1-1-1.57,5.12,5.12,0,0,1-.34-1.87,5.25,5.25,0,0,1,.35-1.9,5.1,5.1,0,0,1,1-1.57,4.8,4.8,0,0,1,1.48-1.07,4.34,4.34,0,0,1,1.88-.4,4.42,4.42,0,0,1,1.89.4,4.84,4.84,0,0,1,1.49,1.07,4.9,4.9,0,0,1,1,1.57,5.06,5.06,0,0,1,.36,1.9,5.13,5.13,0,0,1-.35,1.87,4.77,4.77,0,0,1-1,1.57,4.62,4.62,0,0,1-1.5,1.07A4.55,4.55,0,0,1,111.09,15.15Zm-3.44-4.89a4,4,0,0,0,.27,1.49,3.85,3.85,0,0,0,.74,1.2,3.2,3.2,0,0,0,1.09.81,3.09,3.09,0,0,0,1.34.3,3,3,0,0,0,1.34-.31,3.41,3.41,0,0,0,1.1-.82,3.74,3.74,0,0,0,.75-1.21,4.07,4.07,0,0,0,.27-1.49,4.14,4.14,0,0,0-.27-1.49,3.9,3.9,0,0,0-.75-1.22,3.56,3.56,0,0,0-1.1-.82,3.09,3.09,0,0,0-1.34-.3,3,3,0,0,0-1.33.3,3.51,3.51,0,0,0-1.09.83,3.83,3.83,0,0,0-.75,1.23A4.16,4.16,0,0,0,107.65,10.26Z" transform="translate(-8.35 -0.71)"/><path class="cls-4" d="M122.62,6.57a3.84,3.84,0,0,0-2.18.69,3.44,3.44,0,0,0-1.31,1.8V15h-1.24V5.47h1.16V7.75A4.38,4.38,0,0,1,120.47,6a3.28,3.28,0,0,1,1.92-.62.79.79,0,0,1,.23,0Z" transform="translate(-8.35 -0.71)"/><path class="cls-4" d="M124.28,3.49V1.66h1.24V3.49Zm0,11.48V5.47h1.24V15Z" transform="translate(-8.35 -0.71)"/><path class="cls-4" d="M132.81,14.51l-.32.15-.48.18a6.15,6.15,0,0,1-.62.16,3.4,3.4,0,0,1-.73.08,2.68,2.68,0,0,1-.76-.11,1.87,1.87,0,0,1-.64-.34,1.68,1.68,0,0,1-.44-.57,1.89,1.89,0,0,1-.16-.81V6.46h-1.32v-1h1.32V2.26h1.24V5.47h2.18v1H129.9v6.45a.94.94,0,0,0,.37.77,1.23,1.23,0,0,0,.77.25,2.2,2.2,0,0,0,.93-.18,3.18,3.18,0,0,0,.51-.24Z" transform="translate(-8.35 -0.71)"/><path class="cls-4" d="M142.34,15H141.1V9.66a4.27,4.27,0,0,0-.55-2.42,1.87,1.87,0,0,0-1.63-.8,2.73,2.73,0,0,0-1,.21,3.84,3.84,0,0,0-1.77,1.43,3.74,3.74,0,0,0-.5,1.07V15h-1.24V1.66h1.24v6a4.33,4.33,0,0,1,1.57-1.69,4,4,0,0,1,2.17-.62,2.93,2.93,0,0,1,1.38.3,2.5,2.5,0,0,1,.93.84,3.76,3.76,0,0,1,.53,1.29,7.89,7.89,0,0,1,.16,1.67Z" transform="translate(-8.35 -0.71)"/><path class="cls-4" d="M159.11,15h-1.24V9.66a4.46,4.46,0,0,0-.53-2.44,1.77,1.77,0,0,0-1.57-.78,2.56,2.56,0,0,0-1,.2,3.1,3.1,0,0,0-.89.56,4.12,4.12,0,0,0-.72.87,4,4,0,0,0-.47,1.1V15h-1.24V9.66a4.56,4.56,0,0,0-.51-2.46,1.76,1.76,0,0,0-1.57-.76,2.76,2.76,0,0,0-1.91.75,4.17,4.17,0,0,0-1.21,2V15H145V5.47h1.13V7.62a4.51,4.51,0,0,1,1.53-1.7,3.81,3.81,0,0,1,2.1-.61,2.69,2.69,0,0,1,1.92.67,3,3,0,0,1,.89,1.77,4,4,0,0,1,3.66-2.44,3,3,0,0,1,1.36.29,2.22,2.22,0,0,1,.89.83A3.94,3.94,0,0,1,159,7.72a8,8,0,0,1,.16,1.69Z" transform="translate(-8.35 -0.71)"/><rect class="cls-3" x="158.32" y="34.29" width="124.58" height="9.12"/><rect class="cls-1" x="158.32" y="34.29" width="12.46" height="9.12"/><rect class="cls-2" x="158.32" y="43.41" width="124.58" height="9.12"/><rect class="cls-1" x="158.32" y="101.83" width="124.58" height="9.12"/><rect class="cls-2" x="158.32" y="110.94" width="124.58" height="9.12"/><rect class="cls-3" x="158.32" y="135.59" width="124.58" height="9.12"/><rect class="cls-1" x="158.32" y="135.59" width="57.79" height="9.12"/><rect class="cls-2" x="158.32" y="144.71" width="124.58" height="9.12"/><path class="cls-4" d="M178.31,7.25a3,3,0,0,0-1.11-.76,4,4,0,0,0-1.59-.29,3,3,0,0,0-1.91.49A1.67,1.67,0,0,0,173.11,8a1.44,1.44,0,0,0,.16.73,1.37,1.37,0,0,0,.49.5,4.2,4.2,0,0,0,.86.36q.51.15,1.23.3a13.12,13.12,0,0,1,1.42.38,4.17,4.17,0,0,1,1.08.52,2.14,2.14,0,0,1,.68.76,2.28,2.28,0,0,1,.24,1.11,2.45,2.45,0,0,1-.27,1.18,2.35,2.35,0,0,1-.73.84,3.42,3.42,0,0,1-1.13.49,5.85,5.85,0,0,1-1.43.16,5.94,5.94,0,0,1-4-1.43l.49-.79a4.15,4.15,0,0,0,.63.52,4.28,4.28,0,0,0,.82.44,5.18,5.18,0,0,0,1,.29,5.44,5.44,0,0,0,1.09.11,3.34,3.34,0,0,0,1.84-.43,1.42,1.42,0,0,0,.66-1.28,1.4,1.4,0,0,0-.19-.77,1.64,1.64,0,0,0-.56-.55,4.07,4.07,0,0,0-.93-.39c-.38-.11-.81-.23-1.3-.34s-1-.24-1.36-.37a3.52,3.52,0,0,1-1-.49,1.82,1.82,0,0,1-.6-.7,2.22,2.22,0,0,1-.2-1A2.83,2.83,0,0,1,172.36,7a2.51,2.51,0,0,1,.73-.89,3.76,3.76,0,0,1,1.12-.54,5.17,5.17,0,0,1,1.41-.19,4.81,4.81,0,0,1,1.76.3,4.75,4.75,0,0,1,1.4.84Z" transform="translate(-8.35 -0.71)"/><path class="cls-4" d="M183.87,5.4h.82l4.1,9.88h-1l-1.28-3.09h-4.44l-1.27,3.09h-1Zm2.39,6-2-4.88-2,4.88Z" transform="translate(-8.35 -0.71)"/><path class="cls-4" d="M196.85,14.41v.87h-6.64V5.4h6.51v.86h-5.53V9.83H196v.82h-4.82v3.76Z" transform="translate(-8.35 -0.71)"/><path class="cls-4" d="M206.47,5.4v9.88h-1V10.66h-5.85v4.62h-1V5.4h1V9.8h5.85V5.4Z" transform="translate(-8.35 -0.71)"/><path class="cls-4" d="M209,15.28V5.4h3.35a5,5,0,0,1,2.06.39,4.22,4.22,0,0,1,1.48,1.06,4.54,4.54,0,0,1,.89,1.56,6,6,0,0,1,.3,1.92,5.65,5.65,0,0,1-.34,2,4.39,4.39,0,0,1-.95,1.56,4.16,4.16,0,0,1-1.49,1,5.06,5.06,0,0,1-1.95.36Zm7.1-4.95a5,5,0,0,0-.25-1.64,3.6,3.6,0,0,0-.73-1.28,3.21,3.21,0,0,0-1.17-.85,4,4,0,0,0-1.6-.3h-2.38v8.15h2.38a3.94,3.94,0,0,0,1.62-.31,3.31,3.31,0,0,0,1.18-.86,3.85,3.85,0,0,0,.71-1.29A5.29,5.29,0,0,0,216.05,10.33Z" transform="translate(-8.35 -0.71)"/><rect class="cls-5" x="159.28" y="0.54" width="53.51" height="18.21"/><polyline class="cls-6" points="283.22 160.59 283.22 22.18 401.41 22.18"/><path class="cls-3" d="M298.7,13.48V1.68h4.88A3.1,3.1,0,0,1,305,2a3.73,3.73,0,0,1,1.11.85A4.14,4.14,0,0,1,306.82,4a3.54,3.54,0,0,1,.27,1.35,4.17,4.17,0,0,1-.25,1.4,3.93,3.93,0,0,1-.7,1.19,3.62,3.62,0,0,1-1.07.83,3.05,3.05,0,0,1-1.39.31h-3.82v4.36Zm1.16-5.39h3.77a2,2,0,0,0,.94-.22,2.31,2.31,0,0,0,.72-.6,2.87,2.87,0,0,0,.47-.86,3.2,3.2,0,0,0,.16-1,2.75,2.75,0,0,0-.19-1,2.84,2.84,0,0,0-.51-.86,2.41,2.41,0,0,0-.77-.57,2.1,2.1,0,0,0-.92-.21h-3.67Z" transform="translate(-8.35 -0.71)"/><path class="cls-3" d="M313.12,5.82a3.55,3.55,0,0,0-2,.63,3.21,3.21,0,0,0-1.19,1.64v5.39H308.8V4.82h1.06V6.9a3.79,3.79,0,0,1,1.3-1.56,3,3,0,0,1,1.74-.57l.22,0Z" transform="translate(-8.35 -0.71)"/><path class="cls-3" d="M317.89,13.64a4.24,4.24,0,0,1-1.73-.35,4.3,4.3,0,0,1-2.24-2.4,4.77,4.77,0,0,1-.32-1.72,4.69,4.69,0,0,1,.32-1.72,4.57,4.57,0,0,1,.9-1.43,4.19,4.19,0,0,1,1.36-1,3.89,3.89,0,0,1,1.71-.37,4,4,0,0,1,1.72.37A4.3,4.3,0,0,1,321,6a4.57,4.57,0,0,1,.9,1.43,4.69,4.69,0,0,1,.32,1.72,5,5,0,0,1-.31,1.72,4.61,4.61,0,0,1-.89,1.42,4.35,4.35,0,0,1-1.37,1A4.24,4.24,0,0,1,317.89,13.64Zm-3.14-4.45a3.68,3.68,0,0,0,.92,2.45,2.93,2.93,0,0,0,1,.74,2.82,2.82,0,0,0,1.22.27,2.7,2.7,0,0,0,1.22-.28,3.06,3.06,0,0,0,1-.75,3.34,3.34,0,0,0,.68-1.1A3.61,3.61,0,0,0,321,9.16a3.65,3.65,0,0,0-.25-1.36,3.49,3.49,0,0,0-.68-1.11,3.06,3.06,0,0,0-1-.75,2.89,2.89,0,0,0-2.44,0,3.28,3.28,0,0,0-1,.76A3.43,3.43,0,0,0,315,7.82,3.66,3.66,0,0,0,314.75,9.19Z" transform="translate(-8.35 -0.71)"/><path class="cls-3" d="M322.79,16.48a3.77,3.77,0,0,1-1-.14,2.38,2.38,0,0,1-.87-.5l.55-.77a1.45,1.45,0,0,0,.58.32,2.8,2.8,0,0,0,.64.08,1.42,1.42,0,0,0,.57-.12,1.54,1.54,0,0,0,.49-.32,1.75,1.75,0,0,0,.35-.49,1.39,1.39,0,0,0,.13-.61V4.82h1.13v9a2.45,2.45,0,0,1-.22,1.06,2.56,2.56,0,0,1-.57.83,2.5,2.5,0,0,1-1.75.73ZM324.2,3V1.35h1.13V3Z" transform="translate(-8.35 -0.71)"/><path class="cls-3" d="M331.56,13.64a4.33,4.33,0,0,1-1.74-.35,4.46,4.46,0,0,1-1.37-1,4.67,4.67,0,0,1-.9-1.44,4.62,4.62,0,0,1-.33-1.75,4.5,4.5,0,0,1,.33-1.72,4.35,4.35,0,0,1,.9-1.41,4.23,4.23,0,0,1,1.37-1,4.34,4.34,0,0,1,3.46,0,4,4,0,0,1,1.35,1,4.69,4.69,0,0,1,.89,1.41,4.58,4.58,0,0,1,.31,1.7v.26a.47.47,0,0,1,0,.19H328.4a3.83,3.83,0,0,0,.33,1.28,3.6,3.6,0,0,0,.7,1,3.33,3.33,0,0,0,1,.67,3,3,0,0,0,2,.12,3.27,3.27,0,0,0,.77-.31,3.33,3.33,0,0,0,.63-.49,2.18,2.18,0,0,0,.43-.64l1,.26a2.77,2.77,0,0,1-.57.88,4,4,0,0,1-.84.68,4.47,4.47,0,0,1-1.07.45A4.78,4.78,0,0,1,331.56,13.64Zm3.19-5a3.49,3.49,0,0,0-.32-1.27,3.76,3.76,0,0,0-.7-1,3.29,3.29,0,0,0-1-.65,3.15,3.15,0,0,0-1.19-.23,3.24,3.24,0,0,0-1.2.23,3.29,3.29,0,0,0-1,.65,3.24,3.24,0,0,0-.69,1,3.75,3.75,0,0,0-.3,1.26Z" transform="translate(-8.35 -0.71)"/><path class="cls-3" d="M337,9.12a4.69,4.69,0,0,1,.31-1.72A4.23,4.23,0,0,1,338.18,6a4,4,0,0,1,1.37-1,4.39,4.39,0,0,1,1.76-.35,4.08,4.08,0,0,1,2.15.56,3.56,3.56,0,0,1,1.38,1.5l-1.1.35a2.62,2.62,0,0,0-1-1,2.88,2.88,0,0,0-1.46-.37,3,3,0,0,0-1.23.26,3,3,0,0,0-1,.73,3.29,3.29,0,0,0-.67,1.08,4,4,0,0,0,0,2.76,3.57,3.57,0,0,0,.68,1.12,3.21,3.21,0,0,0,1,.75,2.7,2.7,0,0,0,1.22.28,2.86,2.86,0,0,0,.82-.12,3.69,3.69,0,0,0,.76-.32,2.88,2.88,0,0,0,.6-.48,1.59,1.59,0,0,0,.35-.56l1.11.33a2.86,2.86,0,0,1-.53.86,4.18,4.18,0,0,1-.82.68,4.49,4.49,0,0,1-1.05.45,4.68,4.68,0,0,1-1.19.15,4.33,4.33,0,0,1-1.74-.35,4.17,4.17,0,0,1-1.38-1,4.69,4.69,0,0,1-.91-1.44A4.81,4.81,0,0,1,337,9.12Z" transform="translate(-8.35 -0.71)"/><path class="cls-3" d="M350.85,13.06a1.69,1.69,0,0,1-.29.13,3.12,3.12,0,0,1-.44.17,3.77,3.77,0,0,1-.56.15,3.62,3.62,0,0,1-.67.07,2.69,2.69,0,0,1-.7-.1,1.71,1.71,0,0,1-.58-.31,1.61,1.61,0,0,1-.4-.52,1.7,1.7,0,0,1-.15-.73V5.72h-1.19v-.9h1.19V1.9h1.13V4.82h2v.9h-2V11.6a1,1,0,0,0,.34.71,1.17,1.17,0,0,0,.71.22,2.08,2.08,0,0,0,.85-.16,3.41,3.41,0,0,0,.46-.22Z" transform="translate(-8.35 -0.71)"/><path class="cls-3" d="M356.73,13.48V1.68h5a3.13,3.13,0,0,1,1.4.32,3.73,3.73,0,0,1,1.11.85A3.91,3.91,0,0,1,365,4a3.72,3.72,0,0,1,.26,1.35A4.16,4.16,0,0,1,365,6.62a3.84,3.84,0,0,1-.54,1.07,3.08,3.08,0,0,1-.82.79,2.71,2.71,0,0,1-1.08.44l2.89,4.56h-1.31l-2.77-4.36H357.9v4.36Zm1.17-5.39h3.85a2,2,0,0,0,.94-.22,2.21,2.21,0,0,0,.72-.61,2.87,2.87,0,0,0,.47-.86,3.1,3.1,0,0,0,.16-1,2.77,2.77,0,0,0-.19-1,3,3,0,0,0-.51-.85,2.3,2.3,0,0,0-.77-.58,2,2,0,0,0-.92-.22H357.9Z" transform="translate(-8.35 -0.71)"/><path class="cls-3" d="M370.84,13.64a4.33,4.33,0,0,1-1.74-.35,4.35,4.35,0,0,1-2.27-2.42,4.62,4.62,0,0,1-.33-1.75A4.6,4.6,0,0,1,367.72,6a4.45,4.45,0,0,1,1.37-1,4.36,4.36,0,0,1,3.47,0,4,4,0,0,1,1.35,1,4.47,4.47,0,0,1,.88,1.41,4.59,4.59,0,0,1,.32,1.7v.26a.78.78,0,0,1,0,.19h-7.41a3.61,3.61,0,0,0,.33,1.28,3.41,3.41,0,0,0,.7,1,3.33,3.33,0,0,0,1,.67,3,3,0,0,0,2,.12,3,3,0,0,0,.76-.31,3.1,3.1,0,0,0,.64-.49,2.4,2.4,0,0,0,.43-.64l1,.26a2.77,2.77,0,0,1-.57.88,4,4,0,0,1-.84.68,4.65,4.65,0,0,1-1.07.45A4.83,4.83,0,0,1,370.84,13.64Zm3.19-5a3.49,3.49,0,0,0-.32-1.27,3.76,3.76,0,0,0-.7-1,3.29,3.29,0,0,0-1-.65,3.15,3.15,0,0,0-1.19-.23,3.24,3.24,0,0,0-1.2.23,3.47,3.47,0,0,0-1,.65,3.22,3.22,0,0,0-.68,1,3.75,3.75,0,0,0-.3,1.26Z" transform="translate(-8.35 -0.71)"/><path class="cls-3" d="M379,13.64a3.25,3.25,0,0,1-1.14-.2,2.78,2.78,0,0,1-.91-.58,2.71,2.71,0,0,1-.61-.85,2.67,2.67,0,0,1-.21-1.06,2.15,2.15,0,0,1,.26-1,2.68,2.68,0,0,1,.75-.83,3.71,3.71,0,0,1,1.15-.54,5.55,5.55,0,0,1,1.46-.19,7.67,7.67,0,0,1,1.34.12,6.34,6.34,0,0,1,1.22.33V8a2.53,2.53,0,0,0-.65-1.82,2.37,2.37,0,0,0-1.8-.67,4,4,0,0,0-1.36.26,7.06,7.06,0,0,0-1.41.77l-.4-.75A5.89,5.89,0,0,1,380,4.67a3.51,3.51,0,0,1,2.56.92,3.36,3.36,0,0,1,.93,2.52V12c0,.31.14.46.41.46v1a3.14,3.14,0,0,1-.43,0,.93.93,0,0,1-.67-.22.8.8,0,0,1-.26-.6l0-.68a4,4,0,0,1-1.51,1.2A4.55,4.55,0,0,1,379,13.64Zm.27-.86a4,4,0,0,0,1.62-.33,2.72,2.72,0,0,0,1.12-.88,1,1,0,0,0,.22-.33.79.79,0,0,0,.08-.32V9.51a6.81,6.81,0,0,0-1.17-.34,7.33,7.33,0,0,0-1.24-.11,3.4,3.4,0,0,0-1.95.5,1.52,1.52,0,0,0-.74,1.31,1.93,1.93,0,0,0,.15.75,1.86,1.86,0,0,0,.44.6,2.06,2.06,0,0,0,.65.41A2.25,2.25,0,0,0,379.3,12.78Z" transform="translate(-8.35 -0.71)"/><path class="cls-3" d="M385.31,9.12a4.69,4.69,0,0,1,.32-1.72A4.07,4.07,0,0,1,386.52,6a3.94,3.94,0,0,1,1.37-1,4.39,4.39,0,0,1,1.76-.35,4,4,0,0,1,2.14.56,3.56,3.56,0,0,1,1.38,1.5l-1.1.35a2.62,2.62,0,0,0-1-1,2.87,2.87,0,0,0-1.45-.37,3,3,0,0,0-1.24.26,3.22,3.22,0,0,0-1.66,1.81,3.93,3.93,0,0,0-.24,1.38,3.72,3.72,0,0,0,.25,1.38,3.24,3.24,0,0,0,.68,1.12,3.17,3.17,0,0,0,1,.75,2.7,2.7,0,0,0,1.22.28,3,3,0,0,0,.83-.12,3.6,3.6,0,0,0,.75-.32,2.64,2.64,0,0,0,.6-.48,1.46,1.46,0,0,0,.35-.56l1.11.33a2.86,2.86,0,0,1-.53.86,3.91,3.91,0,0,1-.82.68,4.49,4.49,0,0,1-1,.45,4.68,4.68,0,0,1-1.19.15,4.33,4.33,0,0,1-1.74-.35,4.39,4.39,0,0,1-1.38-1,4.49,4.49,0,0,1-.9-1.44A4.62,4.62,0,0,1,385.31,9.12Z" transform="translate(-8.35 -0.71)"/><path class="cls-3" d="M402.31,13.48h-1.13V8.64a3.9,3.9,0,0,0-.51-2.21,1.71,1.71,0,0,0-1.49-.73,2.64,2.64,0,0,0-.95.19,3.38,3.38,0,0,0-.89.53,3.34,3.34,0,0,0-.72.78,3.15,3.15,0,0,0-.46,1v5.3H395V1.35h1.13V6.78a3.86,3.86,0,0,1,1.43-1.54,3.68,3.68,0,0,1,2-.57,2.55,2.55,0,0,1,1.26.28,2.3,2.3,0,0,1,.85.76,3.4,3.4,0,0,1,.48,1.18,7.19,7.19,0,0,1,.15,1.52Z" transform="translate(-8.35 -0.71)"/><rect class="cls-3" x="158.32" y="68.06" width="124.58" height="9.12"/><rect class="cls-1" x="158.32" y="68.06" width="92.98" height="9.12"/><rect class="cls-3" x="158.32" y="77.17" width="124.58" height="9.12"/><rect class="cls-2" x="158.32" y="77.17" width="92.98" height="9.12"/></svg>