<svg id="图层_1" data-name="图层 1" xmlns="http://www.w3.org/2000/svg" viewBox="0 0 449.3 160.59"><defs><style>.cls-1{fill:#fff;}.cls-2,.cls-6,.cls-7{fill:none;stroke-miterlimit:10;}.cls-2{stroke:#f8b877;stroke-width:0.84px;}.cls-3{fill:#f0850f;}.cls-4{fill:#f8b877;}.cls-5{fill:#939393;}.cls-6{stroke:#ef830d;stroke-width:1.07px;}.cls-7{stroke:#939393;stroke-width:0.66px;}</style></defs><title>010_Arthur-Andrej</title><path class="cls-1" d="M231.55,5V15.61h-1v-5H224.2v5h-1V5h1V9.7h6.31V5Z" transform="translate(1.9 -0.71)"/><path class="cls-1" d="M239,14.68v.93h-5.08v-.93H236V8.26a1.62,1.62,0,0,1-.42.39A5,5,0,0,1,235,9a5.1,5.1,0,0,1-.73.3,2.2,2.2,0,0,1-.66.12v-1a1.81,1.81,0,0,0,.76-.19,6.06,6.06,0,0,0,.78-.45,7.55,7.55,0,0,0,.62-.48,1.37,1.37,0,0,0,.29-.3h1v7.63Z" transform="translate(1.9 -0.71)"/><path class="cls-1" d="M240,15.61a6.06,6.06,0,0,1,.09-1,3.74,3.74,0,0,1,.35-1,4.17,4.17,0,0,1,.75-1,5.77,5.77,0,0,1,1.3-.89c.29-.15.59-.3.91-.44a7.27,7.27,0,0,0,.87-.49,2.72,2.72,0,0,0,.65-.61,1.24,1.24,0,0,0,.26-.78,1.39,1.39,0,0,0-.51-1.06A1.81,1.81,0,0,0,244,8a2.5,2.5,0,0,0-.86-.14,2.72,2.72,0,0,0-.89.14,3.32,3.32,0,0,0-.68.34,3,3,0,0,0-.5.41c-.14.15-.25.27-.32.36l-.67-.74.34-.33a3.52,3.52,0,0,1,.67-.48,5.52,5.52,0,0,1,1-.43,4,4,0,0,1,1.24-.18,3.88,3.88,0,0,1,1.23.18,2.83,2.83,0,0,1,.92.52,2.21,2.21,0,0,1,.57.76,2.09,2.09,0,0,1,.19.89,2,2,0,0,1-.27,1.07,3,3,0,0,1-.67.78,4.72,4.72,0,0,1-.84.56l-.81.4a8.24,8.24,0,0,0-.94.47,4.61,4.61,0,0,0-.82.58,2.78,2.78,0,0,0-.59.7,1.62,1.62,0,0,0-.23.87h5.34v.93Z" transform="translate(1.9 -0.71)"/><path class="cls-1" d="M255.26,12.66a2.61,2.61,0,0,1-.3,1.26,3,3,0,0,1-.81,1,3.64,3.64,0,0,1-1.19.62,4.55,4.55,0,0,1-1.43.22,4.13,4.13,0,0,1-1.47-.25,3.73,3.73,0,0,1-1.17-.67,3.17,3.17,0,0,1-.75-1,2.78,2.78,0,0,1-.27-1.21,2.47,2.47,0,0,1,.18-.95,2.89,2.89,0,0,1,.49-.77,3.47,3.47,0,0,1,.68-.59,4,4,0,0,1,.78-.38,3.44,3.44,0,0,1-.68-.37,2.62,2.62,0,0,1-.55-.5,2.55,2.55,0,0,1-.39-.63,2,2,0,0,1-.14-.73,2.26,2.26,0,0,1,.3-1.17,2.94,2.94,0,0,1,.77-.84,3.57,3.57,0,0,1,1.07-.53,4,4,0,0,1,2.38,0,3.55,3.55,0,0,1,1.07.52,2.74,2.74,0,0,1,.77.85,2.22,2.22,0,0,1,.3,1.15,2,2,0,0,1-.14.74,2.55,2.55,0,0,1-.39.63,2.74,2.74,0,0,1-.57.51,3.75,3.75,0,0,1-.68.37,3.7,3.7,0,0,1,.82.41,3.33,3.33,0,0,1,.68.61,2.8,2.8,0,0,1,.47.78A2.67,2.67,0,0,1,255.26,12.66Zm-1-.08a1.84,1.84,0,0,0-.24-.95,2.22,2.22,0,0,0-.63-.7,3,3,0,0,0-.87-.43,3.19,3.19,0,0,0-1-.15,2.87,2.87,0,0,0-1.8.6,2.31,2.31,0,0,0-.6.72,1.93,1.93,0,0,0-.22.93,1.79,1.79,0,0,0,.24.93,2.19,2.19,0,0,0,.62.7,2.86,2.86,0,0,0,.85.44,3.2,3.2,0,0,0,1,.15,3,3,0,0,0,1.8-.61,2.27,2.27,0,0,0,.6-.71A1.78,1.78,0,0,0,254.23,12.58Zm-5-4.86a1.41,1.41,0,0,0,.21.77,1.84,1.84,0,0,0,.54.57,2.42,2.42,0,0,0,.74.36,2.94,2.94,0,0,0,.81.12,2.84,2.84,0,0,0,.81-.12,2.54,2.54,0,0,0,.74-.36,2.06,2.06,0,0,0,.55-.59,1.47,1.47,0,0,0,.21-.78,1.51,1.51,0,0,0-.2-.76,1.88,1.88,0,0,0-.52-.57,2.41,2.41,0,0,0-.74-.35,3.15,3.15,0,0,0-.87-.12,2.74,2.74,0,0,0-.85.13,2.21,2.21,0,0,0-.72.36,1.78,1.78,0,0,0-.51.58A1.51,1.51,0,0,0,249.26,7.72Z" transform="translate(1.9 -0.71)"/><rect class="cls-2" x="222.31" y="0.5" width="37.6" height="18.28"/><path class="cls-3" d="M290.11,149.93a6.41,6.41,0,0,1,.09-1.06,3.62,3.62,0,0,1,.37-1.06,3.91,3.91,0,0,1,.77-1,5.89,5.89,0,0,1,1.34-.92l.94-.45a7.79,7.79,0,0,0,.9-.51,2.53,2.53,0,0,0,.67-.63,1.28,1.28,0,0,0,.27-.81,1.34,1.34,0,0,0-.14-.58,1.42,1.42,0,0,0-.38-.51,2.2,2.2,0,0,0-.64-.37,2.64,2.64,0,0,0-.89-.14,2.55,2.55,0,0,0-.91.15,3.61,3.61,0,0,0-.71.35,3.22,3.22,0,0,0-.52.43c-.14.15-.25.27-.32.36l-.7-.76.35-.34a4.11,4.11,0,0,1,.69-.5,6.24,6.24,0,0,1,1-.44,4.06,4.06,0,0,1,1.29-.19,3.81,3.81,0,0,1,1.27.19,2.84,2.84,0,0,1,.95.54,2.23,2.23,0,0,1,.79,1.7,2.14,2.14,0,0,1-.28,1.1,3.37,3.37,0,0,1-.69.81,4.62,4.62,0,0,1-.88.58l-.83.41a8.81,8.81,0,0,0-1,.49,5.54,5.54,0,0,0-.85.59,3,3,0,0,0-.61.73,1.73,1.73,0,0,0-.24.9h5.52v1Z" transform="translate(1.9 -0.71)"/><path class="cls-3" d="M303,151.9v-2.76h-5.16v-.93l5.5-7.13h.71v7.1h1.37v1h-1.37v2.76Zm-4-3.72h4.15v-5.44Z" transform="translate(1.9 -0.71)"/><path class="cls-4" d="M314.89,138.93l-7.31,11h-1.2l7.32-11Z" transform="translate(1.9 -0.71)"/><path class="cls-4" d="M319.31,151.9v-2.76h-5.16v-.93l5.5-7.13h.71v7.1h1.37v1h-1.37v2.76Zm-4-3.72h4.15v-5.44Z" transform="translate(1.9 -0.71)"/><path class="cls-4" d="M330.89,145.39a5.66,5.66,0,0,1-.3,1.88,4.46,4.46,0,0,1-.81,1.49,3.73,3.73,0,0,1-1.23,1,3.56,3.56,0,0,1-4.33-1,4.66,4.66,0,0,1-.82-1.49,6.24,6.24,0,0,1,0-3.76,4.66,4.66,0,0,1,.82-1.49,3.54,3.54,0,0,1,1.23-1,3.52,3.52,0,0,1,3.1,0,3.73,3.73,0,0,1,1.23,1,4.46,4.46,0,0,1,.81,1.49A5.66,5.66,0,0,1,330.89,145.39Zm-1.07,0a5.17,5.17,0,0,0-.21-1.52,3.77,3.77,0,0,0-.58-1.17,2.8,2.8,0,0,0-.89-.76,2.58,2.58,0,0,0-2.3,0,2.8,2.8,0,0,0-.89.76,3.77,3.77,0,0,0-.58,1.17,5.61,5.61,0,0,0,0,3,3.66,3.66,0,0,0,.58,1.17,2.54,2.54,0,0,0,.89.75,2.58,2.58,0,0,0,2.3,0,2.54,2.54,0,0,0,.89-.75,3.66,3.66,0,0,0,.58-1.17A5.12,5.12,0,0,0,329.82,145.39Z" transform="translate(1.9 -0.71)"/><path class="cls-5" d="M340.67,138.93l-7.32,11h-1.19l7.32-11Z" transform="translate(1.9 -0.71)"/><path class="cls-5" d="M349.5,146.31a3.69,3.69,0,0,1-.3,1.48,3.76,3.76,0,0,1-2.07,2,3.87,3.87,0,0,1-1.53.3,4,4,0,0,1-1.6-.32,3.51,3.51,0,0,1-1.25-.91,4.36,4.36,0,0,1-.81-1.44,5.9,5.9,0,0,1-.29-1.94,12.65,12.65,0,0,1,.29-2.92,6.58,6.58,0,0,1,.83-2.07,3.31,3.31,0,0,1,2.94-1.64,3.61,3.61,0,0,1,2,.54A3.47,3.47,0,0,1,349,140.9l-.68.62a2.84,2.84,0,0,0-1-1.27,2.8,2.8,0,0,0-1.58-.47,2.37,2.37,0,0,0-1.24.33,2.83,2.83,0,0,0-1,.93,5.19,5.19,0,0,0-.62,1.52,8.31,8.31,0,0,0-.22,2,3,3,0,0,1,1.17-1.46,3.36,3.36,0,0,1,1.88-.54,3.72,3.72,0,0,1,3.49,2.26A3.56,3.56,0,0,1,349.5,146.31Zm-3.87,2.85a2.79,2.79,0,0,0,1.11-.23,2.92,2.92,0,0,0,1.53-1.51,2.79,2.79,0,0,0,.23-1.11,2.57,2.57,0,0,0-.24-1.11,2.88,2.88,0,0,0-.62-.91,3,3,0,0,0-.92-.61,2.72,2.72,0,0,0-1.11-.23,2.79,2.79,0,0,0-1.11.23,3,3,0,0,0-.91.61,2.88,2.88,0,0,0-.62.91,2.72,2.72,0,0,0-.22,1.11,2.55,2.55,0,0,0,.23,1.1,2.82,2.82,0,0,0,.63.9,2.73,2.73,0,0,0,.91.62A2.79,2.79,0,0,0,345.63,149.16Z" transform="translate(1.9 -0.71)"/><path class="cls-5" d="M355.5,146.27a2.61,2.61,0,0,1,1.64.94,2.86,2.86,0,0,1,.61,1.87,3.15,3.15,0,0,1-.26,1.28,2.75,2.75,0,0,1-.72,1,3.34,3.34,0,0,1-1.14.64,4.48,4.48,0,0,1-1.46.22,4.35,4.35,0,0,1-2.06-.47,3.2,3.2,0,0,1-1.34-1.31l.73-.67a2.5,2.5,0,0,0,1,1.09,3.15,3.15,0,0,0,1.67.4,2.75,2.75,0,0,0,1.83-.57,2,2,0,0,0,.66-1.61,2.14,2.14,0,0,0-.69-1.69,2.93,2.93,0,0,0-2-.63h-.39v-.89H354a2.74,2.74,0,0,0,1.83-.55,1.81,1.81,0,0,0,.64-1.44,1.94,1.94,0,0,0-.17-.82,1.66,1.66,0,0,0-.48-.6,2,2,0,0,0-.71-.36,3.14,3.14,0,0,0-.89-.12,3.06,3.06,0,0,0-1.56.39,2.53,2.53,0,0,0-1,1.09l-.68-.65a2.44,2.44,0,0,1,.52-.73,3.4,3.4,0,0,1,.78-.57,4.06,4.06,0,0,1,1-.36,4.32,4.32,0,0,1,1.08-.14,3.87,3.87,0,0,1,1.31.21,3.1,3.1,0,0,1,1,.56,2.54,2.54,0,0,1,.68.88,2.63,2.63,0,0,1,.24,1.13,2.91,2.91,0,0,1-.14.89,2.4,2.4,0,0,1-.4.76,2.35,2.35,0,0,1-.65.56A2.18,2.18,0,0,1,355.5,146.27Z" transform="translate(1.9 -0.71)"/><path class="cls-5" d="M370.37,149.93h-1.06v-4.51a3.61,3.61,0,0,0-.47-2.06,1.6,1.6,0,0,0-1.39-.68,2.36,2.36,0,0,0-.89.18,3.36,3.36,0,0,0-.83.49,3.28,3.28,0,0,0-.67.72,3.37,3.37,0,0,0-.43.92v4.94h-1.05V138.62h1.05v5.07a3.7,3.7,0,0,1,1.33-1.44,3.4,3.4,0,0,1,1.85-.53A2.51,2.51,0,0,1,369,142a2.18,2.18,0,0,1,.79.72,3.34,3.34,0,0,1,.45,1.1,6.9,6.9,0,0,1,.14,1.42Z" transform="translate(1.9 -0.71)"/><path class="cls-5" d="M376.06,150.09a3.76,3.76,0,0,1-1.62-.34,4,4,0,0,1-1.26-.9,4.09,4.09,0,0,1-.83-1.34,4.23,4.23,0,0,1-.29-1.59,4.31,4.31,0,0,1,.3-1.61,4.22,4.22,0,0,1,.84-1.34,4,4,0,0,1,1.26-.91,3.67,3.67,0,0,1,1.6-.34,3.74,3.74,0,0,1,1.6.34,4.15,4.15,0,0,1,1.27.91,4.22,4.22,0,0,1,.84,1.34,4.31,4.31,0,0,1,.3,1.61,4.44,4.44,0,0,1-.29,1.59,4.26,4.26,0,0,1-.83,1.34,3.9,3.9,0,0,1-1.28.9A3.75,3.75,0,0,1,376.06,150.09Zm-2.93-4.16a3.3,3.3,0,0,0,.23,1.27,3.13,3.13,0,0,0,.63,1,2.76,2.76,0,0,0,.93.69,2.65,2.65,0,0,0,2.27,0,3,3,0,0,0,.94-.69,3.43,3.43,0,0,0,.64-1,3.5,3.5,0,0,0,.23-1.27,3.56,3.56,0,0,0-.23-1.26,3.43,3.43,0,0,0-.64-1,3.08,3.08,0,0,0-.94-.7,2.7,2.7,0,0,0-2.27,0,3,3,0,0,0-.93.71,3.27,3.27,0,0,0-.63,1A3.33,3.33,0,0,0,373.13,145.93Z" transform="translate(1.9 -0.71)"/><path class="cls-5" d="M384.36,150.09a2.26,2.26,0,0,1-2-.88,4.37,4.37,0,0,1-.64-2.61v-4.74h1.05v4.56c0,1.82.63,2.74,1.88,2.74a2.61,2.61,0,0,0,.91-.16,2.68,2.68,0,0,0,.83-.45,3.43,3.43,0,0,0,.68-.69,3.24,3.24,0,0,0,.49-.92v-5.08h1.06v6.71c0,.29.12.43.37.43v.93l-.3,0h-.17a.81.81,0,0,1-.6-.26.91.91,0,0,1-.23-.67v-.93a3.84,3.84,0,0,1-1.44,1.47A3.78,3.78,0,0,1,384.36,150.09Z" transform="translate(1.9 -0.71)"/><path class="cls-5" d="M395.07,142.79a3.27,3.27,0,0,0-1.86.59,2.94,2.94,0,0,0-1.11,1.53v5H391v-8.07h1v1.94a3.56,3.56,0,0,1,1.2-1.46,2.83,2.83,0,0,1,1.63-.53l.2,0Z" transform="translate(1.9 -0.71)"/><path class="cls-5" d="M399.17,150.09a5.53,5.53,0,0,1-1.85-.31,4.49,4.49,0,0,1-1.55-.9l.48-.71a5.22,5.22,0,0,0,1.39.83,4,4,0,0,0,1.51.28,2.77,2.77,0,0,0,1.56-.39,1.29,1.29,0,0,0,.58-1.13.93.93,0,0,0-.16-.56,1.37,1.37,0,0,0-.45-.4,4,4,0,0,0-.76-.3c-.31-.09-.66-.18-1.06-.27s-.87-.23-1.21-.34a3.76,3.76,0,0,1-.85-.39,1.3,1.3,0,0,1-.49-.53,1.75,1.75,0,0,1-.17-.8,2.28,2.28,0,0,1,.24-1.07,2.21,2.21,0,0,1,.65-.77,3.22,3.22,0,0,1,1-.46,4.36,4.36,0,0,1,1.17-.15,4.49,4.49,0,0,1,1.68.3,3.32,3.32,0,0,1,1.23.8l-.51.62a3,3,0,0,0-1.09-.7,4.07,4.07,0,0,0-1.35-.23,3.79,3.79,0,0,0-.77.08,1.81,1.81,0,0,0-.63.28,1.27,1.27,0,0,0-.42.47,1.3,1.3,0,0,0-.16.67,1.13,1.13,0,0,0,.11.53.93.93,0,0,0,.36.35,2.82,2.82,0,0,0,.62.26c.26.08.56.16.93.24s1,.25,1.36.37a4.28,4.28,0,0,1,1,.44,1.57,1.57,0,0,1,.6.6,1.8,1.8,0,0,1,.2.87,2.12,2.12,0,0,1-.85,1.77A3.71,3.71,0,0,1,399.17,150.09Z" transform="translate(1.9 -0.71)"/><path class="cls-3" d="M293.61,36.15a3.3,3.3,0,0,1,1.27.24,3.06,3.06,0,0,1,1,.65,2.8,2.8,0,0,1,.69,1,3.11,3.11,0,0,1,.26,1.28,3.17,3.17,0,0,1-.28,1.35,3.13,3.13,0,0,1-.74,1,3.47,3.47,0,0,1-1.1.66,3.75,3.75,0,0,1-1.34.24,4.25,4.25,0,0,1-1-.13,3.54,3.54,0,0,1-.89-.39,3.83,3.83,0,0,1-.73-.6,3.4,3.4,0,0,1-.54-.78l.63-.48a3,3,0,0,0,1.07,1.1,2.77,2.77,0,0,0,1.49.42,2.57,2.57,0,0,0,1-.17,2.27,2.27,0,0,0,.78-.5,2.21,2.21,0,0,0,.53-.77,2.59,2.59,0,0,0,.19-1,2.23,2.23,0,0,0-.19-.94,2.11,2.11,0,0,0-.5-.74,2.27,2.27,0,0,0-.76-.47,2.4,2.4,0,0,0-.93-.17,2.63,2.63,0,0,0-1.24.29,2.37,2.37,0,0,0-.95.83h-.88c0-.06,0-.18.07-.38s.08-.43.14-.7.12-.57.18-.9.13-.67.2-1c.16-.79.33-1.66.52-2.62h4.8v.88h-4.09L291.56,37a2.66,2.66,0,0,1,.89-.61A3.11,3.11,0,0,1,293.61,36.15Z" transform="translate(1.9 -0.71)"/><path class="cls-3" d="M305.16,36.42a5.14,5.14,0,0,1-.27,1.7,4.17,4.17,0,0,1-.73,1.35,3.42,3.42,0,0,1-1.12.88,3.32,3.32,0,0,1-2.8,0,3.38,3.38,0,0,1-1.11-.88,4.17,4.17,0,0,1-.73-1.35,5.49,5.49,0,0,1,0-3.4,4,4,0,0,1,.73-1.34,3.29,3.29,0,0,1,1.11-.89,3.22,3.22,0,0,1,2.8,0,3.32,3.32,0,0,1,1.12.89,4,4,0,0,1,.73,1.34A5.14,5.14,0,0,1,305.16,36.42Zm-1,0a4.54,4.54,0,0,0-.19-1.37,3.38,3.38,0,0,0-.52-1.06,2.4,2.4,0,0,0-.81-.68,2.09,2.09,0,0,0-1-.25,2.13,2.13,0,0,0-1,.25,2.36,2.36,0,0,0-.8.68,3.4,3.4,0,0,0-.53,1.06,5,5,0,0,0,0,2.74,3.29,3.29,0,0,0,.53,1.06,2.36,2.36,0,0,0,.8.68,2.24,2.24,0,0,0,1,.24,2.2,2.2,0,0,0,1-.24,2.4,2.4,0,0,0,.81-.68,3.28,3.28,0,0,0,.52-1.06A4.54,4.54,0,0,0,304.19,36.42Z" transform="translate(1.9 -0.71)"/><path class="cls-3" d="M313.73,36.42a5.14,5.14,0,0,1-.27,1.7,4.37,4.37,0,0,1-.73,1.35,3.53,3.53,0,0,1-1.12.88,3.32,3.32,0,0,1-2.8,0,3.38,3.38,0,0,1-1.11-.88,4.39,4.39,0,0,1-.74-1.35,5.69,5.69,0,0,1,0-3.4,4.22,4.22,0,0,1,.74-1.34,3.29,3.29,0,0,1,1.11-.89,3.22,3.22,0,0,1,2.8,0,3.42,3.42,0,0,1,1.12.89,4.2,4.2,0,0,1,.73,1.34A5.14,5.14,0,0,1,313.73,36.42Zm-1,0a4.54,4.54,0,0,0-.19-1.37,3.38,3.38,0,0,0-.52-1.06,2.5,2.5,0,0,0-.81-.68,2.09,2.09,0,0,0-1-.25,2.13,2.13,0,0,0-1,.25,2.5,2.5,0,0,0-.81.68,3.61,3.61,0,0,0-.52,1.06,5,5,0,0,0,0,2.74,3.5,3.5,0,0,0,.52,1.06,2.5,2.5,0,0,0,.81.68,2.24,2.24,0,0,0,1,.24,2.2,2.2,0,0,0,1-.24,2.5,2.5,0,0,0,.81-.68,3.28,3.28,0,0,0,.52-1.06A4.54,4.54,0,0,0,312.76,36.42Z" transform="translate(1.9 -0.71)"/><path class="cls-4" d="M322.56,30.58,316,40.52h-1.08l6.61-9.94Z" transform="translate(1.9 -0.71)"/><path class="cls-4" d="M326.35,36.15a3.35,3.35,0,0,1,1.28.24,3.16,3.16,0,0,1,1,.65,3.09,3.09,0,0,1,.94,2.28,3.32,3.32,0,0,1-.27,1.35,3.13,3.13,0,0,1-.74,1,3.58,3.58,0,0,1-1.1.66,3.76,3.76,0,0,1-1.35.24,4.17,4.17,0,0,1-1-.13,3.39,3.39,0,0,1-.89-.39,3.54,3.54,0,0,1-.73-.6,3.4,3.4,0,0,1-.54-.78l.63-.48a3,3,0,0,0,1.07,1.1,2.77,2.77,0,0,0,1.49.42,2.52,2.52,0,0,0,1-.17,2.41,2.41,0,0,0,.79-.5,2.18,2.18,0,0,0,.52-.77,2.41,2.41,0,0,0,.19-1,2.39,2.39,0,0,0-.18-.94,2.25,2.25,0,0,0-.5-.74,2.37,2.37,0,0,0-.76-.47,2.42,2.42,0,0,0-.94-.17,2.66,2.66,0,0,0-1.24.29,2.35,2.35,0,0,0-.94.83h-.88a3.28,3.28,0,0,1,.07-.38c0-.2.08-.43.14-.7s.11-.57.18-.9.13-.67.19-1c.16-.79.34-1.66.52-2.62h4.8v.88H325L324.31,37a2.57,2.57,0,0,1,.89-.61A3.06,3.06,0,0,1,326.35,36.15Z" transform="translate(1.9 -0.71)"/><path class="cls-4" d="M337.9,36.42a5.14,5.14,0,0,1-.26,1.7,4.19,4.19,0,0,1-.74,1.35,3.38,3.38,0,0,1-1.11.88,3.32,3.32,0,0,1-2.8,0,3.38,3.38,0,0,1-1.11-.88,4.19,4.19,0,0,1-.74-1.35,5.69,5.69,0,0,1,0-3.4,4,4,0,0,1,.74-1.34,3.29,3.29,0,0,1,1.11-.89,3.22,3.22,0,0,1,2.8,0,3.29,3.29,0,0,1,1.11.89,4,4,0,0,1,.74,1.34A5.14,5.14,0,0,1,337.9,36.42Zm-1,0a4.54,4.54,0,0,0-.19-1.37,3.61,3.61,0,0,0-.52-1.06,2.5,2.5,0,0,0-.81-.68,2.27,2.27,0,0,0-2.07,0,2.4,2.4,0,0,0-.81.68,3.38,3.38,0,0,0-.52,1.06,5,5,0,0,0,0,2.74,3.28,3.28,0,0,0,.52,1.06,2.4,2.4,0,0,0,.81.68,2.35,2.35,0,0,0,2.07,0,2.5,2.5,0,0,0,.81-.68,3.5,3.5,0,0,0,.52-1.06A4.54,4.54,0,0,0,336.94,36.42Z" transform="translate(1.9 -0.71)"/><path class="cls-4" d="M346.47,36.42a5.41,5.41,0,0,1-.26,1.7,4.39,4.39,0,0,1-.74,1.35,3.38,3.38,0,0,1-1.11.88,3.32,3.32,0,0,1-2.8,0,3.38,3.38,0,0,1-1.11-.88,4.19,4.19,0,0,1-.74-1.35,5.49,5.49,0,0,1,0-3.4,4,4,0,0,1,.74-1.34,3.29,3.29,0,0,1,1.11-.89,3.22,3.22,0,0,1,2.8,0,3.29,3.29,0,0,1,1.11.89,4.22,4.22,0,0,1,.74,1.34A5.41,5.41,0,0,1,346.47,36.42Zm-1,0a4.88,4.88,0,0,0-.19-1.37,3.4,3.4,0,0,0-.53-1.06,2.36,2.36,0,0,0-.8-.68,2.27,2.27,0,0,0-2.07,0,2.31,2.31,0,0,0-.81.68,3.38,3.38,0,0,0-.52,1.06,5,5,0,0,0,0,2.74,3.28,3.28,0,0,0,.52,1.06,2.31,2.31,0,0,0,.81.68,2.35,2.35,0,0,0,2.07,0,2.36,2.36,0,0,0,.8-.68,3.29,3.29,0,0,0,.53-1.06A4.88,4.88,0,0,0,345.51,36.42Z" transform="translate(1.9 -0.71)"/><path class="cls-5" d="M297.79,44.58l-6.6,9.94h-1.08l6.61-9.94Z" transform="translate(1.9 -0.71)"/><path class="cls-5" d="M298.49,54.52a5.36,5.36,0,0,1,.09-1,3,3,0,0,1,.33-1,3.37,3.37,0,0,1,.7-.91,5,5,0,0,1,1.21-.84l.85-.41a6.28,6.28,0,0,0,.81-.45,2.58,2.58,0,0,0,.61-.57,1.19,1.19,0,0,0,.23-.74,1.39,1.39,0,0,0-.11-.52,1.41,1.41,0,0,0-.35-.46,1.72,1.72,0,0,0-.58-.33,2.44,2.44,0,0,0-.8-.13,2.37,2.37,0,0,0-.83.14,2.92,2.92,0,0,0-.64.31,3,3,0,0,0-.47.39c-.13.13-.22.24-.29.32l-.63-.68.32-.31a3.43,3.43,0,0,1,.63-.45,4.75,4.75,0,0,1,.9-.4,3.77,3.77,0,0,1,1.16-.17,3.71,3.71,0,0,1,1.15.17,2.53,2.53,0,0,1,.85.49,2,2,0,0,1,.53.7,1.91,1.91,0,0,1,.19.84,1.87,1.87,0,0,1-.26,1,2.71,2.71,0,0,1-.62.73,4.49,4.49,0,0,1-.79.52l-.76.38a7.89,7.89,0,0,0-.87.44,4.86,4.86,0,0,0-.76.53,2.89,2.89,0,0,0-.56.66,1.63,1.63,0,0,0-.21.81h5v.87Z" transform="translate(1.9 -0.71)"/><path class="cls-5" d="M313,50.42a5.14,5.14,0,0,1-.27,1.7,4.17,4.17,0,0,1-.73,1.35,3.38,3.38,0,0,1-1.11.88,3.32,3.32,0,0,1-2.8,0,3.53,3.53,0,0,1-1.12-.88,4.37,4.37,0,0,1-.73-1.35,5.49,5.49,0,0,1,0-3.4,4.2,4.2,0,0,1,.73-1.34,3.42,3.42,0,0,1,1.12-.89,3.22,3.22,0,0,1,2.8,0,3.29,3.29,0,0,1,1.11.89,4,4,0,0,1,.73,1.34A5.14,5.14,0,0,1,313,50.42Zm-1,0a4.89,4.89,0,0,0-.18-1.37,3.63,3.63,0,0,0-.53-1.06,2.36,2.36,0,0,0-.8-.68,2.15,2.15,0,0,0-1-.25,2.17,2.17,0,0,0-1,.25,2.36,2.36,0,0,0-.8.68,3.4,3.4,0,0,0-.53,1.06,5,5,0,0,0,0,2.74,3.29,3.29,0,0,0,.53,1.06,2.36,2.36,0,0,0,.8.68,2.28,2.28,0,0,0,1,.24,2.26,2.26,0,0,0,1-.24,2.36,2.36,0,0,0,.8-.68,3.51,3.51,0,0,0,.53-1.06A4.89,4.89,0,0,0,312,50.42Z" transform="translate(1.9 -0.71)"/><path class="cls-5" d="M321.54,50.42a5.14,5.14,0,0,1-.27,1.7,4.17,4.17,0,0,1-.73,1.35,3.42,3.42,0,0,1-1.12.88,3.32,3.32,0,0,1-2.8,0,3.38,3.38,0,0,1-1.11-.88,4.17,4.17,0,0,1-.73-1.35,5.49,5.49,0,0,1,0-3.4,4,4,0,0,1,.73-1.34,3.29,3.29,0,0,1,1.11-.89,3.22,3.22,0,0,1,2.8,0,3.32,3.32,0,0,1,1.12.89,4,4,0,0,1,.73,1.34A5.14,5.14,0,0,1,321.54,50.42Zm-1,0a4.54,4.54,0,0,0-.19-1.37,3.38,3.38,0,0,0-.52-1.06,2.4,2.4,0,0,0-.81-.68,2.09,2.09,0,0,0-1-.25,2.13,2.13,0,0,0-1,.25,2.36,2.36,0,0,0-.8.68,3.4,3.4,0,0,0-.53,1.06,5,5,0,0,0,0,2.74,3.29,3.29,0,0,0,.53,1.06,2.36,2.36,0,0,0,.8.68,2.24,2.24,0,0,0,1,.24,2.2,2.2,0,0,0,1-.24,2.4,2.4,0,0,0,.81-.68,3.28,3.28,0,0,0,.52-1.06A4.54,4.54,0,0,0,320.57,50.42Z" transform="translate(1.9 -0.71)"/><path class="cls-5" d="M330.11,50.42a5.14,5.14,0,0,1-.27,1.7,4.37,4.37,0,0,1-.73,1.35,3.53,3.53,0,0,1-1.12.88,3.32,3.32,0,0,1-2.8,0,3.38,3.38,0,0,1-1.11-.88,4.17,4.17,0,0,1-.73-1.35,5.49,5.49,0,0,1,0-3.4,4,4,0,0,1,.73-1.34,3.29,3.29,0,0,1,1.11-.89,3.22,3.22,0,0,1,2.8,0,3.42,3.42,0,0,1,1.12.89,4.2,4.2,0,0,1,.73,1.34A5.14,5.14,0,0,1,330.11,50.42Zm-1,0a4.54,4.54,0,0,0-.19-1.37,3.38,3.38,0,0,0-.52-1.06,2.5,2.5,0,0,0-.81-.68,2.09,2.09,0,0,0-1-.25,2.13,2.13,0,0,0-1,.25,2.5,2.5,0,0,0-.81.68,3.61,3.61,0,0,0-.52,1.06,5,5,0,0,0,0,2.74,3.5,3.5,0,0,0,.52,1.06,2.5,2.5,0,0,0,.81.68,2.24,2.24,0,0,0,1,.24,2.2,2.2,0,0,0,1-.24,2.5,2.5,0,0,0,.81-.68,3.28,3.28,0,0,0,.52-1.06A4.54,4.54,0,0,0,329.14,50.42Z" transform="translate(1.9 -0.71)"/><path class="cls-5" d="M335.5,45.7V44.3h.95v1.4Zm0,8.82V47.23h.95v7.29Z" transform="translate(1.9 -0.71)"/><path class="cls-5" d="M349.4,54.52h-.95V50.45a3.43,3.43,0,0,0-.41-1.88,1.35,1.35,0,0,0-1.2-.6,2.06,2.06,0,0,0-.79.15,2.53,2.53,0,0,0-.69.44,3.22,3.22,0,0,0-.55.66,3.42,3.42,0,0,0-.37.85v4.45h-.95V50.45a3.51,3.51,0,0,0-.39-1.89,1.36,1.36,0,0,0-1.21-.59,2.16,2.16,0,0,0-1.47.57,3.25,3.25,0,0,0-.92,1.52v4.46h-.95V47.23h.87v1.65a3.47,3.47,0,0,1,1.17-1.31,2.94,2.94,0,0,1,1.61-.47,2.1,2.1,0,0,1,1.48.52,2.3,2.3,0,0,1,.68,1.36,3.12,3.12,0,0,1,2.81-1.88,2.26,2.26,0,0,1,1.05.23,1.79,1.79,0,0,1,.68.63,3.11,3.11,0,0,1,.38,1,6.36,6.36,0,0,1,.12,1.29Z" transform="translate(1.9 -0.71)"/><path class="cls-5" d="M353.25,54.66a2.69,2.69,0,0,1-1-.17,2.36,2.36,0,0,1-.77-.49,2.05,2.05,0,0,1-.51-.72,2.18,2.18,0,0,1-.18-.89,1.8,1.8,0,0,1,.22-.88,2.2,2.2,0,0,1,.63-.7,3,3,0,0,1,1-.45,4.31,4.31,0,0,1,1.23-.16,7.27,7.27,0,0,1,1.13.09,5.38,5.38,0,0,1,1,.28v-.65a2.14,2.14,0,0,0-.54-1.54,2,2,0,0,0-1.51-.56,3.17,3.17,0,0,0-1.15.22,5.56,5.56,0,0,0-1.19.64l-.34-.63a5,5,0,0,1,2.75-.95,3,3,0,0,1,2.15.77A2.88,2.88,0,0,1,357,50v3.29c0,.26.11.39.35.39v.84a2,2,0,0,1-.37,0,.85.85,0,0,1-.57-.18.7.7,0,0,1-.21-.5l0-.58a3.3,3.3,0,0,1-1.27,1A3.77,3.77,0,0,1,353.25,54.66Zm.22-.73a3.26,3.26,0,0,0,1.37-.28,2.15,2.15,0,0,0,.94-.74.7.7,0,0,0,.19-.27.74.74,0,0,0,.06-.27V51.18a5.26,5.26,0,0,0-1-.28,5.19,5.19,0,0,0-1.05-.1,2.88,2.88,0,0,0-1.63.42,1.28,1.28,0,0,0-.63,1.1,1.53,1.53,0,0,0,.13.64,1.82,1.82,0,0,0,.36.51,2,2,0,0,0,.56.34A1.91,1.91,0,0,0,353.47,53.93Z" transform="translate(1.9 -0.71)"/><path class="cls-5" d="M362,54.62a3,3,0,0,1-1.38-.31,3.66,3.66,0,0,1-1.78-2,3.88,3.88,0,0,1-.26-1.38,4.37,4.37,0,0,1,.25-1.45,3.6,3.6,0,0,1,.69-1.21,3.47,3.47,0,0,1,1.07-.83,3.17,3.17,0,0,1,1.38-.31,2.84,2.84,0,0,1,1.63.47,4.53,4.53,0,0,1,1.17,1.18V47.23h.86v7.32a3,3,0,0,1-.29,1.34,2.93,2.93,0,0,1-.77,1,3.29,3.29,0,0,1-1.13.59,4.84,4.84,0,0,1-1.38.19,4,4,0,0,1-2-.44A3.53,3.53,0,0,1,358.75,56l.59-.46a2.6,2.6,0,0,0,1.15,1,3.61,3.61,0,0,0,1.54.33,3.27,3.27,0,0,0,1-.15,2.57,2.57,0,0,0,.84-.43,2.16,2.16,0,0,0,.56-.73,2.37,2.37,0,0,0,.21-1V53.11A3.17,3.17,0,0,1,362,54.62Zm.27-.8a2.33,2.33,0,0,0,.82-.15,2.81,2.81,0,0,0,.74-.41,2.78,2.78,0,0,0,.55-.59,1.63,1.63,0,0,0,.29-.65V49.76a2.61,2.61,0,0,0-.42-.72,2.54,2.54,0,0,0-.6-.58,3.09,3.09,0,0,0-.72-.38,2.36,2.36,0,0,0-1.88.12,2.54,2.54,0,0,0-.81.68,2.82,2.82,0,0,0-.51.95,3.4,3.4,0,0,0-.18,1.08,3,3,0,0,0,.21,1.12,2.86,2.86,0,0,0,1.44,1.56A2.39,2.39,0,0,0,362.24,53.82Z" transform="translate(1.9 -0.71)"/><path class="cls-5" d="M370.85,54.66a3.54,3.54,0,0,1-1.47-.3,3.61,3.61,0,0,1-1.15-.82,4,4,0,0,1-1-2.69,3.9,3.9,0,0,1,1-2.63,3.44,3.44,0,0,1,1.16-.82,3.48,3.48,0,0,1,1.45-.3,3.47,3.47,0,0,1,2.61,1.12,3.81,3.81,0,0,1,1,2.62v.22a.62.62,0,0,1,0,.16h-6.24a3,3,0,0,0,.27,1.08,3.11,3.11,0,0,0,.59.87,2.63,2.63,0,0,0,.84.56,2.38,2.38,0,0,0,1,.2,2.86,2.86,0,0,0,.7-.09,3.08,3.08,0,0,0,.64-.27,2.35,2.35,0,0,0,.53-.41,2.08,2.08,0,0,0,.37-.54l.82.22a2.51,2.51,0,0,1-.47.74,3.55,3.55,0,0,1-1.61,1A3.86,3.86,0,0,1,370.85,54.66Zm2.68-4.17a2.68,2.68,0,0,0-.27-1.07,2.78,2.78,0,0,0-.59-.83,2.52,2.52,0,0,0-.82-.55,2.63,2.63,0,0,0-2,0,2.36,2.36,0,0,0-.83.55,2.68,2.68,0,0,0-.58.84,3.3,3.3,0,0,0-.26,1.06Z" transform="translate(1.9 -0.71)"/><path class="cls-5" d="M378.34,54.66a5,5,0,0,1-1.67-.28,3.82,3.82,0,0,1-1.4-.81l.43-.64a4.87,4.87,0,0,0,1.26.75,3.61,3.61,0,0,0,1.36.25,2.46,2.46,0,0,0,1.41-.35,1.16,1.16,0,0,0,.52-1,.85.85,0,0,0-.14-.51,1.34,1.34,0,0,0-.41-.36,3.43,3.43,0,0,0-.68-.27q-.42-.12-1-.24c-.42-.11-.79-.21-1.1-.31a3.37,3.37,0,0,1-.76-.35,1.29,1.29,0,0,1-.45-.48,1.61,1.61,0,0,1-.14-.73,2.12,2.12,0,0,1,.21-1,2,2,0,0,1,.59-.69,2.71,2.71,0,0,1,.87-.42,4,4,0,0,1,1.06-.14,3.92,3.92,0,0,1,1.52.28,3,3,0,0,1,1.11.72l-.46.56a2.62,2.62,0,0,0-1-.63,3.54,3.54,0,0,0-1.21-.21,3.08,3.08,0,0,0-.7.07,1.86,1.86,0,0,0-.57.25,1.13,1.13,0,0,0-.38.43,1.16,1.16,0,0,0-.14.6,1.08,1.08,0,0,0,.09.48.92.92,0,0,0,.33.32,3.07,3.07,0,0,0,.56.23c.23.07.51.15.84.22s.87.22,1.23.34a3.89,3.89,0,0,1,.89.39,1.74,1.74,0,0,1,.54.54,1.62,1.62,0,0,1,.18.79,1.9,1.9,0,0,1-.77,1.59A3.3,3.3,0,0,1,378.34,54.66Z" transform="translate(1.9 -0.71)"/><path class="cls-3" d="M295.69,81.42v1h-5.26v-1h2.21V74.79a1.89,1.89,0,0,1-.43.4,4,4,0,0,1-.67.4,4.09,4.09,0,0,1-.75.31,2.07,2.07,0,0,1-.68.13V75a1.76,1.76,0,0,0,.78-.21,5.84,5.84,0,0,0,.81-.46,8,8,0,0,0,.64-.5,1.48,1.48,0,0,0,.3-.31h1.08v7.89Z" transform="translate(1.9 -0.71)"/><path class="cls-3" d="M300.32,77.55a3.8,3.8,0,0,1,1.41.25,3.39,3.39,0,0,1,1.91,1.83,3.46,3.46,0,0,1,.28,1.42,3.65,3.65,0,0,1-.3,1.5,3.4,3.4,0,0,1-.82,1.14,3.87,3.87,0,0,1-1.22.74,4.1,4.1,0,0,1-1.49.26,4.52,4.52,0,0,1-1.12-.14,3.67,3.67,0,0,1-1-.43,4,4,0,0,1-.81-.67,3.55,3.55,0,0,1-.6-.87l.7-.52a3.39,3.39,0,0,0,1.19,1.22,3.07,3.07,0,0,0,1.65.47,3,3,0,0,0,1.07-.2A2.49,2.49,0,0,0,302,83a2.3,2.3,0,0,0,.58-.85,2.74,2.74,0,0,0,.21-1.08,2.52,2.52,0,0,0-.2-1,2.49,2.49,0,0,0-1.39-1.34,2.75,2.75,0,0,0-1-.19,3.07,3.07,0,0,0-1.37.32,2.66,2.66,0,0,0-1.05.92h-1l.08-.42c0-.21.1-.47.16-.77s.13-.63.2-1,.14-.74.22-1.11l.57-2.9h5.32v1h-4.53l-.76,3.95a2.8,2.8,0,0,1,1-.67A3.35,3.35,0,0,1,300.32,77.55Z" transform="translate(1.9 -0.71)"/><path class="cls-3" d="M313.11,77.84a6,6,0,0,1-.29,1.89,4.72,4.72,0,0,1-.82,1.48,3.58,3.58,0,0,1-4.33,1,3.63,3.63,0,0,1-1.23-1,4.72,4.72,0,0,1-.82-1.48,6,6,0,0,1-.29-1.89,5.93,5.93,0,0,1,.29-1.88,4.77,4.77,0,0,1,.82-1.49,3.63,3.63,0,0,1,1.23-1,3.52,3.52,0,0,1,3.1,0,3.54,3.54,0,0,1,1.23,1,4.77,4.77,0,0,1,.82,1.49A5.93,5.93,0,0,1,313.11,77.84Zm-1.07,0a5.17,5.17,0,0,0-.21-1.52,3.77,3.77,0,0,0-.58-1.17,2.7,2.7,0,0,0-.89-.76,2.56,2.56,0,0,0-2.29,0,2.73,2.73,0,0,0-.9.76,4,4,0,0,0-.58,1.17,5.61,5.61,0,0,0,0,3,3.77,3.77,0,0,0,.58,1.17,2.48,2.48,0,0,0,.9.75,2.54,2.54,0,0,0,3.18-.75,3.56,3.56,0,0,0,.58-1.17A5.12,5.12,0,0,0,312,77.84Z" transform="translate(1.9 -0.71)"/><path class="cls-3" d="M322.6,77.84a5.76,5.76,0,0,1-.3,1.89,4.7,4.7,0,0,1-.81,1.48,3.73,3.73,0,0,1-1.23,1,3.56,3.56,0,0,1-1.55.35,3.49,3.49,0,0,1-1.55-.35,3.67,3.67,0,0,1-1.24-1,4.9,4.9,0,0,1-.81-1.48,5.76,5.76,0,0,1-.29-1.89,5.66,5.66,0,0,1,.29-1.88,5,5,0,0,1,.81-1.49,3.67,3.67,0,0,1,1.24-1,3.37,3.37,0,0,1,1.55-.36,3.43,3.43,0,0,1,1.55.36,3.73,3.73,0,0,1,1.23,1A4.75,4.75,0,0,1,322.3,76,5.66,5.66,0,0,1,322.6,77.84Zm-1.07,0a5.17,5.17,0,0,0-.21-1.52,4,4,0,0,0-.58-1.17,2.8,2.8,0,0,0-.89-.76,2.58,2.58,0,0,0-2.3,0,2.7,2.7,0,0,0-.89.76,3.77,3.77,0,0,0-.58,1.17,5.61,5.61,0,0,0,0,3,3.56,3.56,0,0,0,.58,1.17,2.45,2.45,0,0,0,.89.75,2.58,2.58,0,0,0,2.3,0,2.54,2.54,0,0,0,.89-.75,3.77,3.77,0,0,0,.58-1.17A5.12,5.12,0,0,0,321.53,77.84Z" transform="translate(1.9 -0.71)"/><path class="cls-3" d="M332.08,77.84a6,6,0,0,1-.29,1.89,4.72,4.72,0,0,1-.82,1.48,3.54,3.54,0,0,1-1.23,1,3.61,3.61,0,0,1-3.1,0,3.73,3.73,0,0,1-1.23-1,4.51,4.51,0,0,1-.81-1.48,5.76,5.76,0,0,1-.3-1.89,5.66,5.66,0,0,1,.3-1.88,4.55,4.55,0,0,1,.81-1.49,3.73,3.73,0,0,1,1.23-1,3.52,3.52,0,0,1,3.1,0,3.54,3.54,0,0,1,1.23,1,4.77,4.77,0,0,1,.82,1.49A5.93,5.93,0,0,1,332.08,77.84Zm-1.07,0a5.17,5.17,0,0,0-.21-1.52,3.77,3.77,0,0,0-.58-1.17,2.7,2.7,0,0,0-.89-.76,2.4,2.4,0,0,0-1.14-.27,2.44,2.44,0,0,0-1.15.27,2.6,2.6,0,0,0-.89.76,3.78,3.78,0,0,0-.59,1.17,5.88,5.88,0,0,0,0,3,3.57,3.57,0,0,0,.59,1.17,2.37,2.37,0,0,0,.89.75,2.44,2.44,0,0,0,1.15.27,2.4,2.4,0,0,0,1.14-.27,2.45,2.45,0,0,0,.89-.75,3.56,3.56,0,0,0,.58-1.17A5.12,5.12,0,0,0,331,77.84Z" transform="translate(1.9 -0.71)"/><path class="cls-3" d="M341.57,77.84a5.76,5.76,0,0,1-.3,1.89,4.51,4.51,0,0,1-.81,1.48,3.73,3.73,0,0,1-1.23,1,3.56,3.56,0,0,1-4.33-1,4.72,4.72,0,0,1-.82-1.48,6,6,0,0,1-.29-1.89,5.93,5.93,0,0,1,.29-1.88,4.77,4.77,0,0,1,.82-1.49,3.54,3.54,0,0,1,1.23-1,3.52,3.52,0,0,1,3.1,0,3.73,3.73,0,0,1,1.23,1,4.55,4.55,0,0,1,.81,1.49A5.66,5.66,0,0,1,341.57,77.84Zm-1.07,0a5.17,5.17,0,0,0-.21-1.52,3.77,3.77,0,0,0-.58-1.17,2.8,2.8,0,0,0-.89-.76,2.58,2.58,0,0,0-2.3,0,2.8,2.8,0,0,0-.89.76,3.77,3.77,0,0,0-.58,1.17,5.61,5.61,0,0,0,0,3,3.56,3.56,0,0,0,.58,1.17,2.54,2.54,0,0,0,.89.75,2.58,2.58,0,0,0,2.3,0,2.54,2.54,0,0,0,.89-.75,3.56,3.56,0,0,0,.58-1.17A5.12,5.12,0,0,0,340.5,77.84Z" transform="translate(1.9 -0.71)"/><path class="cls-4" d="M351.35,71.38l-7.32,11h-1.19l7.32-11Z" transform="translate(1.9 -0.71)"/><path class="cls-4" d="M357.81,81.42v1h-5.25v-1h2.2V74.79a1.7,1.7,0,0,1-.43.4,4.29,4.29,0,0,1-.66.4,4.49,4.49,0,0,1-.76.31,2,2,0,0,1-.68.13V75a1.83,1.83,0,0,0,.79-.21,5.73,5.73,0,0,0,.8-.46,6.54,6.54,0,0,0,.64-.5,1.24,1.24,0,0,0,.3-.31h1.08v7.89Z" transform="translate(1.9 -0.71)"/><path class="cls-4" d="M362.45,77.55a3.88,3.88,0,0,1,1.41.25,3.56,3.56,0,0,1,1.14.72,3.32,3.32,0,0,1,.76,1.11,3.46,3.46,0,0,1,.28,1.42,3.65,3.65,0,0,1-.3,1.5,3.27,3.27,0,0,1-.82,1.14,3.76,3.76,0,0,1-1.22.74,4.06,4.06,0,0,1-1.49.26,4.58,4.58,0,0,1-1.12-.14,3.6,3.6,0,0,1-1-.43,4.37,4.37,0,0,1-.82-.67,3.26,3.26,0,0,1-.59-.87l.69-.52a3.47,3.47,0,0,0,1.19,1.22,3.07,3.07,0,0,0,1.65.47,2.91,2.91,0,0,0,1.07-.2,2.63,2.63,0,0,0,.87-.55,2.42,2.42,0,0,0,.58-.85,2.74,2.74,0,0,0,.21-1.08,2.69,2.69,0,0,0-.2-1,2.47,2.47,0,0,0-1.4-1.34,2.71,2.71,0,0,0-1-.19,3.1,3.1,0,0,0-1.37.32,2.57,2.57,0,0,0-1,.92h-1c0-.06,0-.2.08-.42l.15-.77c.06-.3.13-.63.2-1s.15-.74.22-1.11c.18-.87.37-1.83.57-2.9h5.32v1h-4.53l-.76,3.95a2.76,2.76,0,0,1,1-.67A3.32,3.32,0,0,1,362.45,77.55Z" transform="translate(1.9 -0.71)"/><path class="cls-4" d="M375.23,77.84a5.76,5.76,0,0,1-.29,1.89,4.9,4.9,0,0,1-.81,1.48,3.67,3.67,0,0,1-1.24,1,3.49,3.49,0,0,1-1.55.35,3.56,3.56,0,0,1-1.55-.35,3.73,3.73,0,0,1-1.23-1,4.7,4.7,0,0,1-.81-1.48,5.76,5.76,0,0,1-.3-1.89,5.66,5.66,0,0,1,.3-1.88,4.75,4.75,0,0,1,.81-1.49,3.73,3.73,0,0,1,1.23-1,3.43,3.43,0,0,1,1.55-.36,3.37,3.37,0,0,1,1.55.36,3.67,3.67,0,0,1,1.24,1,5,5,0,0,1,.81,1.49A5.66,5.66,0,0,1,375.23,77.84Zm-1.07,0a5.18,5.18,0,0,0-.2-1.52,3.78,3.78,0,0,0-.59-1.17,2.6,2.6,0,0,0-.89-.76,2.4,2.4,0,0,0-1.14-.27,2.47,2.47,0,0,0-1.15.27,2.7,2.7,0,0,0-.89.76,3.77,3.77,0,0,0-.58,1.17,5.61,5.61,0,0,0,0,3,3.56,3.56,0,0,0,.58,1.17,2.52,2.52,0,0,0,2,1,2.4,2.4,0,0,0,1.14-.27,2.37,2.37,0,0,0,.89-.75,3.57,3.57,0,0,0,.59-1.17A5.13,5.13,0,0,0,374.16,77.84Z" transform="translate(1.9 -0.71)"/><path class="cls-4" d="M384.72,77.84a6,6,0,0,1-.29,1.89,4.72,4.72,0,0,1-.82,1.48,3.63,3.63,0,0,1-1.23,1,3.56,3.56,0,0,1-4.33-1,4.72,4.72,0,0,1-.82-1.48,6,6,0,0,1-.29-1.89,5.93,5.93,0,0,1,.29-1.88,4.77,4.77,0,0,1,.82-1.49,3.54,3.54,0,0,1,1.23-1,3.52,3.52,0,0,1,3.1,0,3.63,3.63,0,0,1,1.23,1,4.77,4.77,0,0,1,.82,1.49A5.93,5.93,0,0,1,384.72,77.84Zm-1.07,0a5.17,5.17,0,0,0-.21-1.52,3.77,3.77,0,0,0-.58-1.17,2.7,2.7,0,0,0-.89-.76,2.56,2.56,0,0,0-2.29,0,2.73,2.73,0,0,0-.9.76,4,4,0,0,0-.58,1.17,5.61,5.61,0,0,0,0,3,3.77,3.77,0,0,0,.58,1.17,2.48,2.48,0,0,0,.9.75,2.54,2.54,0,0,0,3.18-.75,3.56,3.56,0,0,0,.58-1.17A5.12,5.12,0,0,0,383.65,77.84Z" transform="translate(1.9 -0.71)"/><path class="cls-4" d="M394.21,77.84a5.76,5.76,0,0,1-.3,1.89,4.7,4.7,0,0,1-.81,1.48,3.73,3.73,0,0,1-1.23,1,3.56,3.56,0,0,1-1.55.35,3.49,3.49,0,0,1-1.55-.35,3.67,3.67,0,0,1-1.24-1,4.9,4.9,0,0,1-.81-1.48,5.76,5.76,0,0,1-.29-1.89,5.66,5.66,0,0,1,.29-1.88,5,5,0,0,1,.81-1.49,3.67,3.67,0,0,1,1.24-1,3.37,3.37,0,0,1,1.55-.36,3.43,3.43,0,0,1,1.55.36,3.73,3.73,0,0,1,1.23,1,4.75,4.75,0,0,1,.81,1.49A5.66,5.66,0,0,1,394.21,77.84Zm-1.07,0a5.17,5.17,0,0,0-.21-1.52,4,4,0,0,0-.58-1.17,2.8,2.8,0,0,0-.89-.76,2.58,2.58,0,0,0-2.3,0,2.7,2.7,0,0,0-.89.76,3.77,3.77,0,0,0-.58,1.17,5.61,5.61,0,0,0,0,3,3.56,3.56,0,0,0,.58,1.17,2.45,2.45,0,0,0,.89.75,2.58,2.58,0,0,0,2.3,0,2.54,2.54,0,0,0,.89-.75,3.77,3.77,0,0,0,.58-1.17A5.12,5.12,0,0,0,393.14,77.84Z" transform="translate(1.9 -0.71)"/><path class="cls-4" d="M403.69,77.84a6,6,0,0,1-.29,1.89,4.72,4.72,0,0,1-.82,1.48,3.54,3.54,0,0,1-1.23,1,3.61,3.61,0,0,1-3.1,0,3.73,3.73,0,0,1-1.23-1,4.51,4.51,0,0,1-.81-1.48,5.76,5.76,0,0,1-.3-1.89,5.66,5.66,0,0,1,.3-1.88,4.55,4.55,0,0,1,.81-1.49,3.73,3.73,0,0,1,1.23-1,3.52,3.52,0,0,1,3.1,0,3.54,3.54,0,0,1,1.23,1A4.77,4.77,0,0,1,403.4,76,5.93,5.93,0,0,1,403.69,77.84Zm-1.07,0a5.17,5.17,0,0,0-.21-1.52,3.77,3.77,0,0,0-.58-1.17,2.7,2.7,0,0,0-.89-.76,2.4,2.4,0,0,0-1.14-.27,2.44,2.44,0,0,0-1.15.27,2.6,2.6,0,0,0-.89.76,3.78,3.78,0,0,0-.59,1.17,5.88,5.88,0,0,0,0,3,3.57,3.57,0,0,0,.59,1.17,2.37,2.37,0,0,0,.89.75,2.44,2.44,0,0,0,1.15.27,2.4,2.4,0,0,0,1.14-.27,2.45,2.45,0,0,0,.89-.75,3.56,3.56,0,0,0,.58-1.17A5.12,5.12,0,0,0,402.62,77.84Z" transform="translate(1.9 -0.71)"/><path class="cls-4" d="M413.54,82l-.28.12-.41.16a4.93,4.93,0,0,1-.52.13,2.56,2.56,0,0,1-.62.07,2,2,0,0,1-.65-.1,1.37,1.37,0,0,1-.92-.77,1.65,1.65,0,0,1-.14-.68V75.15h-1.11v-.84H410V71.58h1.06v2.73h1.85v.84h-1.85v5.48a.84.84,0,0,0,.31.66,1.08,1.08,0,0,0,.66.21,2,2,0,0,0,.79-.15l.44-.21Z" transform="translate(1.9 -0.71)"/><path class="cls-4" d="M414.85,72.62V71.07h1.06v1.55Zm0,9.76V74.31h1.06v8.07Z" transform="translate(1.9 -0.71)"/><path class="cls-4" d="M430.24,82.38h-1.05V77.87a3.74,3.74,0,0,0-.45-2.07,1.49,1.49,0,0,0-1.33-.67,2.34,2.34,0,0,0-.88.17,2.56,2.56,0,0,0-.76.48,3.17,3.17,0,0,0-.61.74,3.23,3.23,0,0,0-.4.93v4.93H423.7V77.87a3.86,3.86,0,0,0-.43-2.09,1.51,1.51,0,0,0-1.33-.65,2.38,2.38,0,0,0-1.63.63,3.6,3.6,0,0,0-1,1.68v4.94h-1V74.31h1v1.83a3.82,3.82,0,0,1,1.3-1.45,3.23,3.23,0,0,1,1.79-.52,2.3,2.3,0,0,1,1.63.57,2.48,2.48,0,0,1,.75,1.51,3.46,3.46,0,0,1,3.12-2.08,2.38,2.38,0,0,1,1.15.25,1.9,1.9,0,0,1,.76.7,3.41,3.41,0,0,1,.42,1.1,7.07,7.07,0,0,1,.13,1.44Z" transform="translate(1.9 -0.71)"/><path class="cls-4" d="M436,82.54a3.91,3.91,0,0,1-1.62-.33A4.1,4.1,0,0,1,432.22,80a4.41,4.41,0,0,1-.3-1.63,4.26,4.26,0,0,1,.3-1.6,4.13,4.13,0,0,1,.84-1.32,3.8,3.8,0,0,1,1.28-.9,4.12,4.12,0,0,1,3.23,0,3.84,3.84,0,0,1,1.26.91,4.08,4.08,0,0,1,.82,1.32,4.15,4.15,0,0,1,.3,1.58v.24a.68.68,0,0,1,0,.18H433a3.42,3.42,0,0,0,.3,1.2,3.37,3.37,0,0,0,.66.95,2.9,2.9,0,0,0,.92.63,2.78,2.78,0,0,0,1.11.22,2.52,2.52,0,0,0,.77-.11,3.29,3.29,0,0,0,.72-.29,2.85,2.85,0,0,0,.59-.46,2.05,2.05,0,0,0,.4-.59l.91.24a2.85,2.85,0,0,1-.52.82,3.77,3.77,0,0,1-.79.63,3.9,3.9,0,0,1-1,.42A4.17,4.17,0,0,1,436,82.54Zm3-4.62a3.31,3.31,0,0,0-.3-1.19,3.39,3.39,0,0,0-.65-.92,2.82,2.82,0,0,0-.92-.6A2.72,2.72,0,0,0,436,75a2.78,2.78,0,0,0-1.11.22,2.86,2.86,0,0,0-.93.6,3.05,3.05,0,0,0-.63.93,3.53,3.53,0,0,0-.29,1.18Z" transform="translate(1.9 -0.71)"/><path class="cls-4" d="M444.26,82.54a5.53,5.53,0,0,1-1.85-.31,4.49,4.49,0,0,1-1.55-.9l.48-.71a5.22,5.22,0,0,0,1.39.83,4,4,0,0,0,1.51.28,2.77,2.77,0,0,0,1.56-.39,1.31,1.31,0,0,0,.58-1.13.93.93,0,0,0-.16-.56,1.37,1.37,0,0,0-.45-.4A4.3,4.3,0,0,0,445,79c-.31-.09-.66-.18-1.06-.27s-.87-.23-1.21-.34a3.57,3.57,0,0,1-.85-.39,1.3,1.3,0,0,1-.49-.53,1.75,1.75,0,0,1-.17-.8,2.28,2.28,0,0,1,.24-1.07,2.21,2.21,0,0,1,.65-.77,3.28,3.28,0,0,1,1-.46,4.8,4.8,0,0,1,2.86.15,3.32,3.32,0,0,1,1.23.8l-.51.62a2.92,2.92,0,0,0-1.1-.7,4,4,0,0,0-1.34-.23,3.79,3.79,0,0,0-.77.08,1.81,1.81,0,0,0-.63.28,1.39,1.39,0,0,0-.43.47,1.41,1.41,0,0,0-.15.67,1.13,1.13,0,0,0,.11.53,1,1,0,0,0,.35.35,3.15,3.15,0,0,0,.63.26c.26.08.56.16.93.24s1,.25,1.36.37a4.28,4.28,0,0,1,1,.44,1.57,1.57,0,0,1,.6.6,1.8,1.8,0,0,1,.2.87,2.12,2.12,0,0,1-.85,1.77A3.71,3.71,0,0,1,444.26,82.54Z" transform="translate(1.9 -0.71)"/><path class="cls-3" d="M296.09,114.75v1h-5.63v-1h2.36v-7.12a1.78,1.78,0,0,1-.46.44,6.08,6.08,0,0,1-.71.43,5.73,5.73,0,0,1-.81.33,2.4,2.4,0,0,1-.73.13v-1.09a2,2,0,0,0,.84-.22,5.67,5.67,0,0,0,.86-.5,7.65,7.65,0,0,0,.69-.53,1.67,1.67,0,0,0,.32-.33H294v8.46Z" transform="translate(1.9 -0.71)"/><path class="cls-3" d="M297.19,115.78a6.27,6.27,0,0,1,.1-1.14,3.68,3.68,0,0,1,.39-1.14,4.1,4.1,0,0,1,.83-1.09,6.16,6.16,0,0,1,1.43-1l1-.49a6.3,6.3,0,0,0,1-.54,3,3,0,0,0,.73-.67,1.46,1.46,0,0,0,.28-.87,1.6,1.6,0,0,0-.14-.63,1.65,1.65,0,0,0-.42-.54,2.13,2.13,0,0,0-.68-.39,2.75,2.75,0,0,0-.95-.15,2.93,2.93,0,0,0-1,.15,4.14,4.14,0,0,0-.76.38,2.87,2.87,0,0,0-.56.46c-.15.16-.27.29-.35.39l-.74-.82a5.14,5.14,0,0,1,.38-.36,3.94,3.94,0,0,1,.74-.54,6.34,6.34,0,0,1,1.07-.47,4.25,4.25,0,0,1,1.38-.21,4.09,4.09,0,0,1,1.36.21,3,3,0,0,1,1,.57,2.68,2.68,0,0,1,.64.84,2.45,2.45,0,0,1,.21,1,2.23,2.23,0,0,1-.3,1.18,3.42,3.42,0,0,1-.74.87,4.93,4.93,0,0,1-.94.62l-.89.44a10.09,10.09,0,0,0-1,.52,6.37,6.37,0,0,0-.91.64,3.42,3.42,0,0,0-.65.78,1.88,1.88,0,0,0-.26,1h5.91v1Z" transform="translate(1.9 -0.71)"/><path class="cls-3" d="M314.13,112.5a3,3,0,0,1-.33,1.41,3.51,3.51,0,0,1-.89,1.07,4.1,4.1,0,0,1-1.33.69,5.17,5.17,0,0,1-1.58.24,4.76,4.76,0,0,1-1.63-.27,4.29,4.29,0,0,1-1.29-.75,3.47,3.47,0,0,1-.84-1.11,3.09,3.09,0,0,1-.3-1.34,2.59,2.59,0,0,1,.21-1,3.29,3.29,0,0,1,.54-.86,3.63,3.63,0,0,1,.76-.64,3.58,3.58,0,0,1,.85-.43,4.51,4.51,0,0,1-.75-.4,3.25,3.25,0,0,1-.61-.56,2.37,2.37,0,0,1-.42-.7,2,2,0,0,1-.16-.81,2.48,2.48,0,0,1,.33-1.29,3.21,3.21,0,0,1,.86-.94,3.94,3.94,0,0,1,1.18-.58,4.54,4.54,0,0,1,1.32-.2,4.65,4.65,0,0,1,1.32.2,3.92,3.92,0,0,1,1.18.57,3,3,0,0,1,.85.94,2.5,2.5,0,0,1,.34,1.28,2.17,2.17,0,0,1-.16.81,2.86,2.86,0,0,1-.43.71,3.15,3.15,0,0,1-.64.57,4.15,4.15,0,0,1-.75.4,4.1,4.1,0,0,1,.91.46,3.76,3.76,0,0,1,.76.67,3.16,3.16,0,0,1,.51.87A2.75,2.75,0,0,1,314.13,112.5Zm-1.14-.08a2.06,2.06,0,0,0-.27-1.06,2.44,2.44,0,0,0-.7-.77,3.09,3.09,0,0,0-1-.48A3.48,3.48,0,0,0,310,110a3.2,3.2,0,0,0-2,.67,2.29,2.29,0,0,0-.66.79,2.09,2.09,0,0,0-.25,1,2,2,0,0,0,.26,1,2.67,2.67,0,0,0,.69.77,3.15,3.15,0,0,0,.95.48,3.49,3.49,0,0,0,1.05.17,3.23,3.23,0,0,0,1.06-.18,2.93,2.93,0,0,0,.94-.5,2.53,2.53,0,0,0,.67-.78A2,2,0,0,0,313,112.42Zm-5.5-5.38a1.61,1.61,0,0,0,.23.85,2.25,2.25,0,0,0,.6.63,2.61,2.61,0,0,0,.82.4,3.55,3.55,0,0,0,.89.13,3.5,3.5,0,0,0,.9-.13,3,3,0,0,0,.82-.4,2.35,2.35,0,0,0,.61-.65,1.69,1.69,0,0,0,.23-.87,1.6,1.6,0,0,0-.22-.84,2,2,0,0,0-.57-.63,2.7,2.7,0,0,0-.82-.39,3.44,3.44,0,0,0-1-.13,3.22,3.22,0,0,0-.93.14,2.79,2.79,0,0,0-.81.4,2.07,2.07,0,0,0-.57.64A1.73,1.73,0,0,0,307.49,107Z" transform="translate(1.9 -0.71)"/><path class="cls-4" d="M324.54,104l-7.85,11.8h-1.28l7.85-11.8Z" transform="translate(1.9 -0.71)"/><path class="cls-4" d="M331.46,114.75v1h-5.63v-1h2.36v-7.12a1.78,1.78,0,0,1-.46.44,5.34,5.34,0,0,1-.71.43,5.73,5.73,0,0,1-.81.33,2.35,2.35,0,0,1-.73.13v-1.09a1.88,1.88,0,0,0,.84-.22,5.77,5.77,0,0,0,.87-.5,7.65,7.65,0,0,0,.69-.53,1.5,1.5,0,0,0,.31-.33h1.16v8.46Z" transform="translate(1.9 -0.71)"/><path class="cls-4" d="M332.56,115.78a6.27,6.27,0,0,1,.1-1.14,4.28,4.28,0,0,1,.39-1.14,4.1,4.1,0,0,1,.83-1.09,6,6,0,0,1,1.44-1c.32-.16.65-.33,1-.49a6.94,6.94,0,0,0,1-.54,3.1,3.1,0,0,0,.72-.67,1.39,1.39,0,0,0,.28-.87,1.44,1.44,0,0,0-.14-.63,1.62,1.62,0,0,0-.41-.54,2.18,2.18,0,0,0-.69-.39,2.71,2.71,0,0,0-.95-.15,3,3,0,0,0-1,.15,4.14,4.14,0,0,0-.76.38,2.8,2.8,0,0,0-.55.46,4.61,4.61,0,0,0-.35.39l-.75-.82c.07-.07.19-.19.38-.36a4.3,4.3,0,0,1,.74-.54,6.72,6.72,0,0,1,1.07-.47,4.25,4.25,0,0,1,1.38-.21,4,4,0,0,1,1.36.21,3.14,3.14,0,0,1,1,.57,2.51,2.51,0,0,1,.63.84,2.46,2.46,0,0,1,.22,1,2.23,2.23,0,0,1-.3,1.18,3.63,3.63,0,0,1-.74.87,5.65,5.65,0,0,1-.94.62c-.33.17-.63.32-.9.44a11.2,11.2,0,0,0-1,.52,5.75,5.75,0,0,0-.9.64,3.22,3.22,0,0,0-.66.78,1.88,1.88,0,0,0-.26,1h5.92v1Z" transform="translate(1.9 -0.71)"/><path class="cls-4" d="M349.51,112.5a3,3,0,0,1-.33,1.41,3.55,3.55,0,0,1-.9,1.07,4.15,4.15,0,0,1-1.32.69,5.23,5.23,0,0,1-1.59.24,4.76,4.76,0,0,1-1.63-.27,4.24,4.24,0,0,1-1.28-.75,3.47,3.47,0,0,1-.84-1.11,3.09,3.09,0,0,1-.3-1.34,2.77,2.77,0,0,1,.2-1,3.29,3.29,0,0,1,.54-.86,4.23,4.23,0,0,1,.76-.64,3.64,3.64,0,0,1,.86-.43,3.84,3.84,0,0,1-.75-.4,3.31,3.31,0,0,1-.62-.56,2.89,2.89,0,0,1-.42-.7,2,2,0,0,1-.16-.81,2.48,2.48,0,0,1,.33-1.29,3.35,3.35,0,0,1,.86-.94,3.94,3.94,0,0,1,1.18-.58,4.46,4.46,0,0,1,2.64,0,3.92,3.92,0,0,1,1.18.57,3,3,0,0,1,.86.94,2.49,2.49,0,0,1,.33,1.28,2,2,0,0,1-.16.81,2.59,2.59,0,0,1-.43.71,2.85,2.85,0,0,1-.63.57,4.23,4.23,0,0,1-.76.4,4.17,4.17,0,0,1,.92.46,3.71,3.71,0,0,1,.75.67,3.19,3.19,0,0,1,.52.87A3,3,0,0,1,349.51,112.5Zm-1.15-.08a2.16,2.16,0,0,0-.26-1.06,2.57,2.57,0,0,0-.7-.77,3.26,3.26,0,0,0-1-.48,3.46,3.46,0,0,0-1-.16,3.2,3.2,0,0,0-2,.67,2.53,2.53,0,0,0-.66.79,2.09,2.09,0,0,0-.25,1,2,2,0,0,0,.27,1,2.41,2.41,0,0,0,.69.77,3.09,3.09,0,0,0,.94.48,3.51,3.51,0,0,0,1.06.17,3.22,3.22,0,0,0,1.05-.18,2.93,2.93,0,0,0,.94-.5,2.4,2.4,0,0,0,.67-.78A1.94,1.94,0,0,0,348.36,112.42Zm-5.5-5.38a1.53,1.53,0,0,0,.24.85,2.09,2.09,0,0,0,.59.63,2.66,2.66,0,0,0,.83.4,3.11,3.11,0,0,0,1.78,0,2.84,2.84,0,0,0,.82-.4,2.21,2.21,0,0,0,.61-.65A1.6,1.6,0,0,0,348,107a1.69,1.69,0,0,0-.21-.84,2.17,2.17,0,0,0-.58-.63,2.6,2.6,0,0,0-.82-.39,3.42,3.42,0,0,0-1-.13,3.29,3.29,0,0,0-.94.14,2.92,2.92,0,0,0-.81.4,1.92,1.92,0,0,0-.56.64A1.63,1.63,0,0,0,342.86,107Z" transform="translate(1.9 -0.71)"/><path class="cls-4" d="M360.24,115.94a3.41,3.41,0,0,1-1.93-.55A4.36,4.36,0,0,1,357,114v5.34h-1.13v-12.2h1v1.68a4.22,4.22,0,0,1,1.37-1.32,3.53,3.53,0,0,1,1.85-.51,3.69,3.69,0,0,1,1.64.37,4.39,4.39,0,0,1,1.3,1,4.7,4.7,0,0,1,1.16,3.12,5.13,5.13,0,0,1-.28,1.72,4.36,4.36,0,0,1-.81,1.43,3.82,3.82,0,0,1-1.24,1A3.63,3.63,0,0,1,360.24,115.94Zm-.31-1a2.73,2.73,0,0,0,1.27-.3,3.13,3.13,0,0,0,1-.79,3.5,3.5,0,0,0,.62-1.12,4,4,0,0,0,.22-1.28,3.7,3.7,0,0,0-.25-1.33,4.09,4.09,0,0,0-.68-1.12,3.25,3.25,0,0,0-1-.76,2.85,2.85,0,0,0-1.27-.28,2.7,2.7,0,0,0-.9.17,3.54,3.54,0,0,0-.88.47,3,3,0,0,0-.7.68,1.82,1.82,0,0,0-.36.82v2.66a3.55,3.55,0,0,0,.51.86,3.27,3.27,0,0,0,.7.69,3.13,3.13,0,0,0,.84.46A2.6,2.6,0,0,0,359.93,115Z" transform="translate(1.9 -0.71)"/><path class="cls-4" d="M365.92,107.12l2.6,3.39.13.25.13-.25,2.59-3.39h1.22l-3.31,4.35,3.31,4.31h-1.22l-2.59-3.38-.13-.23-.13.23-2.6,3.38h-1.21l3.31-4.31-3.31-4.35Z" transform="translate(1.9 -0.71)"/><path class="cls-1" d="M47.77,138.23H43.16V150H41.89v-11.8H37.28V137.1H47.77Z" transform="translate(1.9 -0.71)"/><path class="cls-1" d="M52.18,141.63a3.93,3.93,0,0,0-2.18.7,3.44,3.44,0,0,0-1.31,1.8V150H47.45v-9.49h1.16v2.28A4.38,4.38,0,0,1,50,141.11a3.28,3.28,0,0,1,1.92-.62h.23Z" transform="translate(1.9 -0.71)"/><path class="cls-1" d="M56.1,150.22a3.43,3.43,0,0,1-1.25-.23,3.14,3.14,0,0,1-1-.63,3,3,0,0,1-.66-.94,2.8,2.8,0,0,1-.24-1.16,2.36,2.36,0,0,1,.29-1.14,2.74,2.74,0,0,1,.82-.91,3.88,3.88,0,0,1,1.26-.6,5.79,5.79,0,0,1,1.6-.21,9.35,9.35,0,0,1,1.48.13,6.56,6.56,0,0,1,1.33.37V144a2.79,2.79,0,0,0-.71-2,2.62,2.62,0,0,0-2-.73,4,4,0,0,0-1.49.29,6.77,6.77,0,0,0-1.55.84l-.44-.82a6.4,6.4,0,0,1,3.57-1.24,3.83,3.83,0,0,1,2.81,1,3.71,3.71,0,0,1,1,2.77v4.28q0,.51.45.51V150a2.59,2.59,0,0,1-.47.06,1.06,1.06,0,0,1-.74-.24.89.89,0,0,1-.28-.65l0-.75a4.17,4.17,0,0,1-1.65,1.31A5,5,0,0,1,56.1,150.22Zm.29-.95a4.32,4.32,0,0,0,1.78-.36,3,3,0,0,0,1.23-1,1.23,1.23,0,0,0,.25-.36.93.93,0,0,0,.08-.35v-1.55a6.83,6.83,0,0,0-1.29-.36,6.72,6.72,0,0,0-1.35-.13,3.78,3.78,0,0,0-2.13.54,1.68,1.68,0,0,0-.83,1.44,1.86,1.86,0,0,0,.18.82,2,2,0,0,0,.47.67,2.2,2.2,0,0,0,.72.45A2.42,2.42,0,0,0,56.39,149.27Z" transform="translate(1.9 -0.71)"/><path class="cls-1" d="M63.65,138.55v-1.82h1.24v1.82Zm0,11.48v-9.49h1.24V150Z" transform="translate(1.9 -0.71)"/><path class="cls-1" d="M75.6,150H74.36v-5.3a4.57,4.57,0,0,0-.5-2.46,1.71,1.71,0,0,0-1.54-.76,3,3,0,0,0-1.09.2,3.57,3.57,0,0,0-1,.56,4.29,4.29,0,0,0-.83.87,3.2,3.2,0,0,0-.53,1.08V150H67.62v-9.49h1.13v2.15A4.49,4.49,0,0,1,70.42,141a4.61,4.61,0,0,1,2.36-.63,2.75,2.75,0,0,1,1.33.29,2.28,2.28,0,0,1,.87.82,3.77,3.77,0,0,1,.48,1.29,9.82,9.82,0,0,1,.14,1.7Z" transform="translate(1.9 -0.71)"/><path class="cls-1" d="M78.24,138.55v-1.82h1.24v1.82Zm0,11.48v-9.49h1.24V150Z" transform="translate(1.9 -0.71)"/><path class="cls-1" d="M90.2,150H89v-5.3a4.67,4.67,0,0,0-.5-2.46,1.72,1.72,0,0,0-1.54-.76,3,3,0,0,0-1.1.2,3.71,3.71,0,0,0-1,.56,4.59,4.59,0,0,0-.83.87,3.37,3.37,0,0,0-.52,1.08V150H82.22v-9.49h1.13v2.15A4.46,4.46,0,0,1,85,141a4.64,4.64,0,0,1,2.36-.63,2.7,2.7,0,0,1,1.33.29,2.24,2.24,0,0,1,.88.82,3.57,3.57,0,0,1,.47,1.29,8.89,8.89,0,0,1,.15,1.7Z" transform="translate(1.9 -0.71)"/><path class="cls-1" d="M96.65,150.16a3.85,3.85,0,0,1-1.8-.41,4.61,4.61,0,0,1-1.4-1.08,5.13,5.13,0,0,1-.92-1.55,5.07,5.07,0,0,1-.33-1.8,5.68,5.68,0,0,1,.32-1.89,4.82,4.82,0,0,1,.9-1.58,4.32,4.32,0,0,1,1.4-1.07,4,4,0,0,1,1.79-.4,3.65,3.65,0,0,1,2.12.61,5.9,5.9,0,0,1,1.53,1.54v-2h1.11v9.53a4,4,0,0,1-.37,1.74,3.72,3.72,0,0,1-1,1.27,4.28,4.28,0,0,1-1.47.76,6.27,6.27,0,0,1-1.8.26,5.32,5.32,0,0,1-2.64-.58A4.68,4.68,0,0,1,92.46,152l.76-.6a3.52,3.52,0,0,0,1.5,1.34,4.78,4.78,0,0,0,2,.42,4.32,4.32,0,0,0,1.31-.19,3,3,0,0,0,1.09-.56,2.8,2.8,0,0,0,.74-1,3.11,3.11,0,0,0,.27-1.34v-1.88a3.89,3.89,0,0,1-1.49,1.44A4,4,0,0,1,96.65,150.16Zm.35-1a2.86,2.86,0,0,0,1.07-.2,3.74,3.74,0,0,0,1-.53,4,4,0,0,0,.72-.76,2.42,2.42,0,0,0,.38-.86v-2.93a3.62,3.62,0,0,0-.55-1,4,4,0,0,0-.78-.75,4.21,4.21,0,0,0-.94-.49,3,3,0,0,0-1-.18,2.91,2.91,0,0,0-1.43.34,3.39,3.39,0,0,0-1.07.88,4,4,0,0,0-.66,1.24,4.51,4.51,0,0,0-.23,1.4,3.88,3.88,0,0,0,1,2.67,3.49,3.49,0,0,0,1.12.82A3.24,3.24,0,0,0,97,149.12Z" transform="translate(1.9 -0.71)"/><path class="cls-1" d="M117.68,138.23h-4.61V150h-1.28v-11.8h-4.61V137.1h10.5Z" transform="translate(1.9 -0.71)"/><path class="cls-1" d="M119.36,138.55v-1.82h1.23v1.82Zm0,11.48v-9.49h1.23V150Z" transform="translate(1.9 -0.71)"/><path class="cls-1" d="M137.45,150h-1.24v-5.3a4.46,4.46,0,0,0-.53-2.44,1.76,1.76,0,0,0-1.56-.78,2.52,2.52,0,0,0-1,.2,3.15,3.15,0,0,0-.9.56,4.12,4.12,0,0,0-.72.87,4.34,4.34,0,0,0-.47,1.1V150h-1.24v-5.3a4.56,4.56,0,0,0-.51-2.46,1.75,1.75,0,0,0-1.57-.76,2.83,2.83,0,0,0-1.91.74,4.16,4.16,0,0,0-1.2,2V150h-1.24v-9.49h1.13v2.15A4.44,4.44,0,0,1,126,141a3.76,3.76,0,0,1,2.09-.61,2.7,2.7,0,0,1,1.93.67,2.94,2.94,0,0,1,.88,1.77,4.06,4.06,0,0,1,3.66-2.44,2.82,2.82,0,0,1,1.36.29,2.22,2.22,0,0,1,.89.83,4,4,0,0,1,.5,1.29,8.78,8.78,0,0,1,.15,1.69Z" transform="translate(1.9 -0.71)"/><path class="cls-1" d="M144.18,150.22a4.59,4.59,0,0,1-1.91-.39,4.64,4.64,0,0,1-1.5-1.08,5,5,0,0,1-1-1.58,5.23,5.23,0,0,1-.35-1.91,5.16,5.16,0,0,1,.35-1.89,5,5,0,0,1,1-1.54,4.66,4.66,0,0,1,6.79,0,5.07,5.07,0,0,1,1.31,3.41v.29a.75.75,0,0,1,0,.2h-8.13a4.12,4.12,0,0,0,.36,1.42,4.05,4.05,0,0,0,.77,1.12,3.69,3.69,0,0,0,1.09.74,3.32,3.32,0,0,0,1.3.26,3.18,3.18,0,0,0,.91-.13,3.89,3.89,0,0,0,.84-.34,3.29,3.29,0,0,0,.69-.54,2.3,2.3,0,0,0,.48-.7l1.07.29a3.12,3.12,0,0,1-.62,1,4.25,4.25,0,0,1-.93.75,4.45,4.45,0,0,1-1.16.49A4.91,4.91,0,0,1,144.18,150.22Zm3.49-5.43a3.75,3.75,0,0,0-.35-1.4,3.71,3.71,0,0,0-.77-1.08,3.23,3.23,0,0,0-1.07-.71,3.35,3.35,0,0,0-1.3-.26,3.45,3.45,0,0,0-1.32.26,3.27,3.27,0,0,0-1.08.71,3.53,3.53,0,0,0-.75,1.09,4.23,4.23,0,0,0-.34,1.39Z" transform="translate(1.9 -0.71)"/><path class="cls-1" d="M4.17,116.45a5.47,5.47,0,0,1-2.47-.56,6.23,6.23,0,0,1-1.93-1.47,6.84,6.84,0,0,1-1.23-2.11,6.82,6.82,0,0,1,1.31-7,6.13,6.13,0,0,1,1.93-1.45,5.42,5.42,0,0,1,2.41-.54,5.33,5.33,0,0,1,2.46.57,6.34,6.34,0,0,1,1.92,1.51,6.91,6.91,0,0,1,1.23,2.1,6.84,6.84,0,0,1,.44,2.4,6.75,6.75,0,0,1-.47,2.48,6.6,6.6,0,0,1-1.28,2.08,6.21,6.21,0,0,1-1.92,1.44A5.41,5.41,0,0,1,4.17,116.45Zm-4.8-6.56a6.06,6.06,0,0,0,.35,2,5.55,5.55,0,0,0,1,1.73,4.82,4.82,0,0,0,1.52,1.21,4.3,4.3,0,0,0,1.95.44,4.19,4.19,0,0,0,2-.47,5,5,0,0,0,1.52-1.24,5.71,5.71,0,0,0,.95-1.73,5.83,5.83,0,0,0,.34-2,5.79,5.79,0,0,0-.36-2,5.23,5.23,0,0,0-1-1.72,4.89,4.89,0,0,0-1.51-1.2,4.15,4.15,0,0,0-1.93-.44,4.26,4.26,0,0,0-2,.46,4.75,4.75,0,0,0-1.51,1.23,5.74,5.74,0,0,0-1,1.73A6.09,6.09,0,0,0-.63,109.89Z" transform="translate(1.9 -0.71)"/><path class="cls-1" d="M15.36,116.54a2.66,2.66,0,0,1-2.31-1,5.18,5.18,0,0,1-.76-3.07v-5.58h1.24v5.36c0,2.15.74,3.23,2.21,3.23a3.29,3.29,0,0,0,1.07-.18,3.57,3.57,0,0,0,1-.53,4.45,4.45,0,0,0,.8-.82,4,4,0,0,0,.57-1.08v-6H20.4v7.9c0,.34.15.51.44.51v1.09a2.88,2.88,0,0,1-.35,0h-.2a1.06,1.06,0,0,1-.71-.31,1.13,1.13,0,0,1-.27-.79v-1.09a4.37,4.37,0,0,1-1.69,1.72A4.43,4.43,0,0,1,15.36,116.54Z" transform="translate(1.9 -0.71)"/><path class="cls-1" d="M27.77,115.9l-.32.15-.49.18a6,6,0,0,1-.62.17,4.18,4.18,0,0,1-.72.07,2.76,2.76,0,0,1-.77-.11,1.79,1.79,0,0,1-.64-.34,1.68,1.68,0,0,1-.44-.57,2,2,0,0,1-.16-.8v-6.8H22.3v-1h1.31v-3.2h1.24v3.2H27v1H24.85v6.45a1,1,0,0,0,.37.77,1.27,1.27,0,0,0,.78.25,2.45,2.45,0,0,0,.93-.17c.26-.12.43-.2.51-.25Z" transform="translate(1.9 -0.71)"/><path class="cls-1" d="M34.16,116.54a3.71,3.71,0,0,1-2.12-.61,5,5,0,0,1-1.49-1.54v5.85H29.31V106.86h1.12v1.85a4.55,4.55,0,0,1,1.51-1.45,3.87,3.87,0,0,1,2-.56,4,4,0,0,1,1.81.41,4.73,4.73,0,0,1,1.42,1.09,5.22,5.22,0,0,1,.94,1.58,5.29,5.29,0,0,1,.33,1.84,5.69,5.69,0,0,1-.31,1.9,4.78,4.78,0,0,1-.88,1.56,4.21,4.21,0,0,1-1.37,1.07A3.9,3.9,0,0,1,34.16,116.54Zm-.34-1.09a2.94,2.94,0,0,0,1.39-.33,3.36,3.36,0,0,0,1.07-.87A3.75,3.75,0,0,0,37,113a4.18,4.18,0,0,0,.24-1.41,4,4,0,0,0-.28-1.46,3.9,3.9,0,0,0-.75-1.22,3.59,3.59,0,0,0-1.12-.84,3.25,3.25,0,0,0-1.39-.31,2.77,2.77,0,0,0-1,.2,3.6,3.6,0,0,0-1,.51,3.34,3.34,0,0,0-.76.74,2,2,0,0,0-.4.9v2.92a4.32,4.32,0,0,0,.56,1,3.85,3.85,0,0,0,1.69,1.26A2.88,2.88,0,0,0,33.82,115.45Z" transform="translate(1.9 -0.71)"/><path class="cls-1" d="M43.53,116.54a2.68,2.68,0,0,1-2.31-1,5.18,5.18,0,0,1-.75-3.07v-5.58h1.24v5.36c0,2.15.73,3.23,2.2,3.23a3.35,3.35,0,0,0,1.08-.18,3.67,3.67,0,0,0,1-.53,4.15,4.15,0,0,0,.8-.82,4.3,4.3,0,0,0,.58-1.08v-6h1.24v7.9c0,.34.14.51.43.51v1.09a2.88,2.88,0,0,1-.35,0h-.19a1,1,0,0,1-.71-.31,1.09,1.09,0,0,1-.28-.79v-1.09a4.41,4.41,0,0,1-1.68,1.72A4.47,4.47,0,0,1,43.53,116.54Z" transform="translate(1.9 -0.71)"/><path class="cls-1" d="M55.94,115.9l-.32.15-.48.18c-.19.06-.39.12-.62.17a4.3,4.3,0,0,1-.73.07,2.81,2.81,0,0,1-.77-.11,1.75,1.75,0,0,1-.63-.34,1.56,1.56,0,0,1-.44-.57,1.85,1.85,0,0,1-.17-.8v-6.8H50.47v-1h1.31v-3.2H53v3.2h2.19v1H53v6.45a1,1,0,0,0,.38.77,1.23,1.23,0,0,0,.77.25,2.45,2.45,0,0,0,.93-.17,4,4,0,0,0,.51-.25Z" transform="translate(1.9 -0.71)"/><path class="cls-1" d="M62.39,116.36V103.42h5.47a3.36,3.36,0,0,1,1.54.36,3.92,3.92,0,0,1,1.21.93,4.2,4.2,0,0,1,.79,1.3,4,4,0,0,1,.28,1.47,4.35,4.35,0,0,1-.21,1.36,4.26,4.26,0,0,1-.58,1.17,3.54,3.54,0,0,1-.9.87,3.22,3.22,0,0,1-1.19.49l3.17,5H70.53l-3-4.78H63.66v4.78Zm1.27-5.91h4.23a2.2,2.2,0,0,0,1-.24,2.58,2.58,0,0,0,.8-.67,3.69,3.69,0,0,0,.51-.94,3.5,3.5,0,0,0,.18-1.12,3.09,3.09,0,0,0-.21-1.12,3.2,3.2,0,0,0-.57-.94,2.65,2.65,0,0,0-.84-.63,2.21,2.21,0,0,0-1-.24H63.66Z" transform="translate(1.9 -0.71)"/><path class="cls-1" d="M77.86,116.54a4.55,4.55,0,0,1-1.9-.39,4.64,4.64,0,0,1-1.51-1.08,5.08,5.08,0,0,1-1.35-3.49,5,5,0,0,1,.36-1.88,4.87,4.87,0,0,1,1-1.55A4.68,4.68,0,0,1,76,107.09a4.6,4.6,0,0,1,5.28,1.07,4.78,4.78,0,0,1,1,1.55,5,5,0,0,1,.34,1.86v.29a1,1,0,0,1,0,.2H74.4a3.85,3.85,0,0,0,.35,1.41,3.75,3.75,0,0,0,.78,1.12,3.47,3.47,0,0,0,1.08.74,3.19,3.19,0,0,0,1.31.26,3.61,3.61,0,0,0,.91-.12,3.91,3.91,0,0,0,.84-.35,3.57,3.57,0,0,0,.69-.54,2.33,2.33,0,0,0,.47-.7l1.08.29a3.51,3.51,0,0,1-.62,1,4.38,4.38,0,0,1-2.1,1.24A5.27,5.27,0,0,1,77.86,116.54Zm3.5-5.43a3.71,3.71,0,0,0-.36-1.39,3.87,3.87,0,0,0-.76-1.09,3.43,3.43,0,0,0-1.08-.71,3.31,3.31,0,0,0-1.3-.25,3.39,3.39,0,0,0-1.31.25,3.48,3.48,0,0,0-1.09.71,3.55,3.55,0,0,0-.74,1.1,4.12,4.12,0,0,0-.34,1.38Z" transform="translate(1.9 -0.71)"/><path class="cls-1" d="M87.61,116.54a6.72,6.72,0,0,1-2.17-.36,5.39,5.39,0,0,1-1.82-1.06l.56-.84a6.19,6.19,0,0,0,1.64,1,4.92,4.92,0,0,0,1.77.32,3.18,3.18,0,0,0,1.83-.46,1.5,1.5,0,0,0,.69-1.32,1.11,1.11,0,0,0-.19-.67,1.62,1.62,0,0,0-.53-.46,4.31,4.31,0,0,0-.9-.36c-.35-.1-.77-.21-1.24-.32s-1-.26-1.43-.4a4.17,4.17,0,0,1-1-.45,1.66,1.66,0,0,1-.58-.63,2,2,0,0,1-.19-.94,2.72,2.72,0,0,1,.28-1.26,2.65,2.65,0,0,1,.76-.9,3.48,3.48,0,0,1,1.13-.54,5.17,5.17,0,0,1,1.38-.18,5.3,5.3,0,0,1,2,.36A4,4,0,0,1,91,108l-.6.73a3.6,3.6,0,0,0-1.29-.82,4.64,4.64,0,0,0-1.58-.27,3.79,3.79,0,0,0-.91.1,2.25,2.25,0,0,0-.74.32,1.55,1.55,0,0,0-.5.55,1.69,1.69,0,0,0-.18.8,1.27,1.27,0,0,0,.13.62,1,1,0,0,0,.42.41,3.51,3.51,0,0,0,.74.31c.29.09.66.18,1.08.28.61.15,1.14.29,1.6.44a4.48,4.48,0,0,1,1.16.51,2,2,0,0,1,.7.71,2,2,0,0,1,.24,1,2.48,2.48,0,0,1-1,2.08A4.35,4.35,0,0,1,87.61,116.54Z" transform="translate(1.9 -0.71)"/><path class="cls-1" d="M97.38,116.54a4.55,4.55,0,0,1-1.9-.39A4.64,4.64,0,0,1,94,115.08a4.85,4.85,0,0,1-1-1.56,5.22,5.22,0,0,1-.34-1.88A5,5,0,0,1,94,108.18a4.83,4.83,0,0,1,1.48-1.08,4.62,4.62,0,0,1,3.76,0,4.8,4.8,0,0,1,1.5,1.08,4.85,4.85,0,0,1,1,1.56,5.06,5.06,0,0,1,.36,1.9,5.23,5.23,0,0,1-.35,1.88,4.82,4.82,0,0,1-1,1.56,4.62,4.62,0,0,1-1.5,1.07A4.55,4.55,0,0,1,97.38,116.54Zm-3.45-4.88a3.79,3.79,0,0,0,.28,1.48,4.2,4.2,0,0,0,.73,1.21,3.53,3.53,0,0,0,1.1.81,3.2,3.2,0,0,0,1.34.29,3.09,3.09,0,0,0,1.34-.3,3.68,3.68,0,0,0,1.1-.82,4,4,0,0,0,.75-1.21,4.12,4.12,0,0,0,.27-1.5,4,4,0,0,0-1-2.71,3.49,3.49,0,0,0-1.1-.81,3,3,0,0,0-1.34-.31,2.86,2.86,0,0,0-1.33.31,3.37,3.37,0,0,0-1.1.82,4.25,4.25,0,0,0-.74,1.23A4,4,0,0,0,93.93,111.66Z" transform="translate(1.9 -0.71)"/><path class="cls-1" d="M104.23,103.06h1.24v11.15a1.16,1.16,0,0,0,.29.83,1.09,1.09,0,0,0,.82.3,2.23,2.23,0,0,0,.47-.06,2.36,2.36,0,0,0,.51-.14l.22,1a3.85,3.85,0,0,1-.84.24,5.13,5.13,0,0,1-.87.09,1.86,1.86,0,0,1-1.35-.48,1.83,1.83,0,0,1-.49-1.36Z" transform="translate(1.9 -0.71)"/><path class="cls-1" d="M112.1,116.54a2.65,2.65,0,0,1-2.3-1,5.11,5.11,0,0,1-.76-3.07v-5.58h1.24v5.36c0,2.15.73,3.23,2.2,3.23a3.31,3.31,0,0,0,1.08-.18,3.52,3.52,0,0,0,1-.53,4.5,4.5,0,0,0,.81-.82,4.62,4.62,0,0,0,.57-1.08v-6h1.24v7.9c0,.34.15.51.44.51v1.09a3.25,3.25,0,0,1-.36,0H117a1,1,0,0,1-.71-.31,1.13,1.13,0,0,1-.27-.79v-1.09a4.53,4.53,0,0,1-4,2.33Z" transform="translate(1.9 -0.71)"/><path class="cls-1" d="M124.51,115.9l-.32.15-.48.18a6,6,0,0,1-.62.17,4.21,4.21,0,0,1-.73.07,2.68,2.68,0,0,1-.76-.11A1.71,1.71,0,0,1,121,116a1.68,1.68,0,0,1-.44-.57,1.84,1.84,0,0,1-.16-.8v-6.8H119v-1h1.32v-3.2h1.24v3.2h2.18v1H121.6v6.45a.94.94,0,0,0,.37.77,1.23,1.23,0,0,0,.77.25,2.38,2.38,0,0,0,.93-.17,4,4,0,0,0,.51-.25Z" transform="translate(1.9 -0.71)"/><path class="cls-1" d="M126.06,104.88v-1.82h1.24v1.82Zm0,11.48v-9.5h1.24v9.5Z" transform="translate(1.9 -0.71)"/><path class="cls-1" d="M134.08,116.54a4.55,4.55,0,0,1-1.9-.39,4.64,4.64,0,0,1-1.48-1.07,4.85,4.85,0,0,1-1-1.56,5.35,5.35,0,0,1,0-3.78,5.06,5.06,0,0,1,1-1.56,4.83,4.83,0,0,1,1.48-1.08,4.34,4.34,0,0,1,1.88-.4,4.42,4.42,0,0,1,1.89.4,4.84,4.84,0,0,1,2.47,2.64,5.06,5.06,0,0,1,.36,1.9,5.23,5.23,0,0,1-.35,1.88,4.82,4.82,0,0,1-1,1.56,4.62,4.62,0,0,1-1.5,1.07A4.55,4.55,0,0,1,134.08,116.54Zm-3.45-4.88a4.06,4.06,0,0,0,1,2.69,3.49,3.49,0,0,0,1.09.81,3.23,3.23,0,0,0,1.34.29,3.09,3.09,0,0,0,1.34-.3,3.68,3.68,0,0,0,1.1-.82,3.85,3.85,0,0,0,.75-1.21,4.12,4.12,0,0,0,.27-1.5,4.05,4.05,0,0,0-.27-1.48,3.83,3.83,0,0,0-.75-1.23,3.49,3.49,0,0,0-1.1-.81,3,3,0,0,0-1.34-.31,2.89,2.89,0,0,0-1.33.31,3.33,3.33,0,0,0-1.09.82,4.06,4.06,0,0,0-.75,1.23A4.18,4.18,0,0,0,130.63,111.66Z" transform="translate(1.9 -0.71)"/><path class="cls-1" d="M148.86,116.36h-1.24v-5.3a4.67,4.67,0,0,0-.5-2.46,1.73,1.73,0,0,0-1.54-.77,3.28,3.28,0,0,0-1.1.2,3.75,3.75,0,0,0-1,.57,4.52,4.52,0,0,0-.83.86,3.31,3.31,0,0,0-.52,1.09v5.81h-1.24v-9.5H142V109a4.32,4.32,0,0,1,1.66-1.68,4.55,4.55,0,0,1,2.36-.64,2.81,2.81,0,0,1,1.33.29,2.31,2.31,0,0,1,.88.82,3.91,3.91,0,0,1,.47,1.3,8.78,8.78,0,0,1,.15,1.69Z" transform="translate(1.9 -0.71)"/><path class="cls-1" d="M10.45,84.44V71.5h1.28V84.44Z" transform="translate(1.9 -0.71)"/><path class="cls-1" d="M19.27,84l-.32.14-.48.18a4.23,4.23,0,0,1-.62.17,3.41,3.41,0,0,1-.73.07,2.68,2.68,0,0,1-.76-.11,1.58,1.58,0,0,1-.64-.34,1.68,1.68,0,0,1-.44-.57,1.84,1.84,0,0,1-.16-.8v-6.8H13.8V75h1.32V71.74h1.24V75h2.18v1H16.36v6.45a1,1,0,0,0,.37.78,1.28,1.28,0,0,0,.77.24,2.21,2.21,0,0,0,.93-.17,4,4,0,0,0,.51-.25Z" transform="translate(1.9 -0.71)"/><path class="cls-1" d="M24.68,84.62a4.57,4.57,0,0,1-3.4-1.46,5,5,0,0,1-1-1.58,5.23,5.23,0,0,1-.35-1.91,5.16,5.16,0,0,1,.35-1.89,5,5,0,0,1,1-1.55,4.91,4.91,0,0,1,1.5-1.06,4.82,4.82,0,0,1,3.8,0,4.73,4.73,0,0,1,1.49,1.07,5.07,5.07,0,0,1,1.31,3.41v.29a.81.81,0,0,1,0,.2H21.22a4.07,4.07,0,0,0,.36,1.41,3.91,3.91,0,0,0,.77,1.12,3.35,3.35,0,0,0,1.09.74,3.15,3.15,0,0,0,1.3.27,3.57,3.57,0,0,0,.91-.13,3.91,3.91,0,0,0,.84-.35,2.94,2.94,0,0,0,.69-.54,2.19,2.19,0,0,0,.48-.7l1.07.29a3,3,0,0,1-.62,1,4.25,4.25,0,0,1-.93.75,4.38,4.38,0,0,1-1.17.49A4.8,4.8,0,0,1,24.68,84.62Zm3.5-5.43a3.7,3.7,0,0,0-.35-1.39,3.9,3.9,0,0,0-.77-1.09A3.51,3.51,0,0,0,26,76a3.36,3.36,0,0,0-1.31-.25,3.36,3.36,0,0,0-2.39,1,3.57,3.57,0,0,0-.75,1.1,4.18,4.18,0,0,0-.34,1.38Z" transform="translate(1.9 -0.71)"/><path class="cls-1" d="M36,76a4,4,0,0,0-2.19.69,3.52,3.52,0,0,0-1.31,1.81v5.9H31.28V75h1.17v2.28a4.32,4.32,0,0,1,1.42-1.72,3.3,3.3,0,0,1,1.91-.62l.24,0Z" transform="translate(1.9 -0.71)"/><path class="cls-1" d="M39.94,84.62a3.39,3.39,0,0,1-1.25-.22,3.21,3.21,0,0,1-1-.63,2.78,2.78,0,0,1-.9-2.1,2.31,2.31,0,0,1,.29-1.15,2.71,2.71,0,0,1,.82-.91A4.13,4.13,0,0,1,39.15,79a5.81,5.81,0,0,1,1.61-.21,8.19,8.19,0,0,1,1.47.13,6.4,6.4,0,0,1,1.33.36v-.85a2.73,2.73,0,0,0-.71-2,2.6,2.6,0,0,0-2-.74,4.29,4.29,0,0,0-1.5.29,7.64,7.64,0,0,0-1.55.84L37.4,76A6.48,6.48,0,0,1,41,74.78a3.81,3.81,0,0,1,2.8,1,3.69,3.69,0,0,1,1,2.77v4.28c0,.34.16.51.46.51v1.09a2.82,2.82,0,0,1-.47.06,1,1,0,0,1-.74-.24.92.92,0,0,1-.29-.66l0-.74a4.41,4.41,0,0,1-1.65,1.31A5.13,5.13,0,0,1,39.94,84.62Zm.29-.94A4.36,4.36,0,0,0,42,83.31a2.88,2.88,0,0,0,1.23-1,1,1,0,0,0,.24-.36.84.84,0,0,0,.08-.36V80.09a7.84,7.84,0,0,0-1.28-.37,7.65,7.65,0,0,0-1.36-.13,3.82,3.82,0,0,0-2.13.55A1.67,1.67,0,0,0,38,81.58a2,2,0,0,0,.17.82,2.16,2.16,0,0,0,.48.67,2.36,2.36,0,0,0,.72.44A2.39,2.39,0,0,0,40.23,83.68Z" transform="translate(1.9 -0.71)"/><path class="cls-1" d="M52,84l-.31.14-.49.18a4.23,4.23,0,0,1-.62.17,3.41,3.41,0,0,1-.73.07,2.74,2.74,0,0,1-.76-.11,1.65,1.65,0,0,1-.64-.34,1.68,1.68,0,0,1-.44-.57,1.84,1.84,0,0,1-.16-.8v-6.8H46.5V75h1.31V71.74h1.24V75h2.19v1H49.05v6.45a1,1,0,0,0,.37.78,1.33,1.33,0,0,0,.78.24,2.27,2.27,0,0,0,.93-.17c.26-.12.43-.2.51-.25Z" transform="translate(1.9 -0.71)"/><path class="cls-1" d="M53.51,73V71.14h1.24V73Zm0,11.48V75h1.24v9.49Z" transform="translate(1.9 -0.71)"/><path class="cls-1" d="M61.53,84.62a4.5,4.5,0,0,1-1.89-.39,4.66,4.66,0,0,1-1.49-1.06,4.87,4.87,0,0,1-1-1.57,5.19,5.19,0,0,1-.35-1.88,5,5,0,0,1,.36-1.89,4.85,4.85,0,0,1,2.46-2.65,4.53,4.53,0,0,1,1.88-.4,4.57,4.57,0,0,1,1.89.4,4.75,4.75,0,0,1,1.49,1.08,5,5,0,0,1,1,1.57,5.32,5.32,0,0,1,0,3.77,5.08,5.08,0,0,1-1,1.57,4.56,4.56,0,0,1-3.4,1.45Zm-3.44-4.88a3.94,3.94,0,0,0,1,2.69,3.49,3.49,0,0,0,1.09.81,3.23,3.23,0,0,0,1.34.29,3.06,3.06,0,0,0,1.34-.3,3.41,3.41,0,0,0,1.1-.82,3.85,3.85,0,0,0,.75-1.21,4.25,4.25,0,0,0,0-3A3.68,3.68,0,0,0,64,77a3.41,3.41,0,0,0-1.1-.82,3.06,3.06,0,0,0-1.34-.3,3,3,0,0,0-1.33.3,3.37,3.37,0,0,0-1.09.83,3.83,3.83,0,0,0-.75,1.23A4.12,4.12,0,0,0,58.09,79.74Z" transform="translate(1.9 -0.71)"/><path class="cls-1" d="M76.31,84.44H75.07v-5.3a4.67,4.67,0,0,0-.5-2.46A1.71,1.71,0,0,0,73,75.91a3.22,3.22,0,0,0-1.09.2,3.87,3.87,0,0,0-1,.57,4.24,4.24,0,0,0-.83.86,3.34,3.34,0,0,0-.53,1.09v5.81H68.33V75h1.13V77.1a4.41,4.41,0,0,1,1.67-1.68,4.62,4.62,0,0,1,2.36-.64,2.75,2.75,0,0,1,1.33.3,2.21,2.21,0,0,1,.87.82,3.77,3.77,0,0,1,.48,1.29,9.7,9.7,0,0,1,.14,1.69Z" transform="translate(1.9 -0.71)"/><path class="cls-1" d="M87.3,71.5h1.07l5.38,12.94H92.4l-1.67-4H84.91l-1.66,4H81.89Zm3.13,7.89L87.83,73l-2.64,6.39Z" transform="translate(1.9 -0.71)"/><path class="cls-1" d="M109.48,84.44h-1.24v-5.3a4.44,4.44,0,0,0-.53-2.44,1.76,1.76,0,0,0-1.57-.79,2.74,2.74,0,0,0-1,.2,3.37,3.37,0,0,0-.89.57,4.06,4.06,0,0,0-.72.86,4.22,4.22,0,0,0-.47,1.11v5.79h-1.24v-5.3a4.56,4.56,0,0,0-.51-2.46,1.77,1.77,0,0,0-1.57-.77,2.76,2.76,0,0,0-1.91.75,4.2,4.2,0,0,0-1.21,2v5.81H95.35V75h1.13V77.1A4.55,4.55,0,0,1,98,75.39a3.87,3.87,0,0,1,2.1-.61,2.7,2.7,0,0,1,1.92.68,3,3,0,0,1,.89,1.77,4,4,0,0,1,3.66-2.45,2.85,2.85,0,0,1,1.36.3,2.27,2.27,0,0,1,.89.82,3.91,3.91,0,0,1,.49,1.3,7.86,7.86,0,0,1,.16,1.68Z" transform="translate(1.9 -0.71)"/><path class="cls-1" d="M116.15,84.62a4.51,4.51,0,0,1-1.9-.39,4.61,4.61,0,0,1-1.48-1.06,4.9,4.9,0,0,1-1-1.57,5.18,5.18,0,0,1-.34-1.88,5,5,0,0,1,.35-1.89,5.15,5.15,0,0,1,1-1.57,4.87,4.87,0,0,1,1.49-1.08,4.62,4.62,0,0,1,3.76,0,4.8,4.8,0,0,1,1.5,1.08,5.13,5.13,0,0,1,1.34,3.46,5.19,5.19,0,0,1-.35,1.88,5,5,0,0,1-1,1.57,4.61,4.61,0,0,1-3.4,1.45Zm-3.45-4.88a3.87,3.87,0,0,0,.28,1.49,4.06,4.06,0,0,0,.73,1.2,3.53,3.53,0,0,0,1.1.81,3.2,3.2,0,0,0,1.34.29,3.09,3.09,0,0,0,1.34-.3,3.52,3.52,0,0,0,1.1-.82,4.25,4.25,0,0,0,.75-1.21,4.07,4.07,0,0,0-.75-4.2,3.52,3.52,0,0,0-1.1-.82,3.09,3.09,0,0,0-1.34-.3,3,3,0,0,0-1.33.3,3.4,3.4,0,0,0-1.1.83,4,4,0,0,0-.74,1.23A3.92,3.92,0,0,0,112.7,79.74Z" transform="translate(1.9 -0.71)"/><path class="cls-1" d="M125.91,84.62a2.65,2.65,0,0,1-2.3-1,5.11,5.11,0,0,1-.76-3.07V75h1.24v5.36c0,2.15.74,3.22,2.21,3.22a3.29,3.29,0,0,0,1.07-.18,3.46,3.46,0,0,0,1-.53,4.45,4.45,0,0,0,.8-.82,4.07,4.07,0,0,0,.57-1.07V75H131v7.89c0,.34.15.51.44.51v1.09a1.78,1.78,0,0,1-.36,0h-.19a1,1,0,0,1-.71-.31,1.12,1.12,0,0,1-.27-.78v-1.1A4.37,4.37,0,0,1,128.18,84,4.44,4.44,0,0,1,125.91,84.62Z" transform="translate(1.9 -0.71)"/><path class="cls-1" d="M141.75,84.44h-1.24v-5.3a4.67,4.67,0,0,0-.5-2.46,1.71,1.71,0,0,0-1.54-.77,3.18,3.18,0,0,0-1.09.2,3.93,3.93,0,0,0-1,.57,4.48,4.48,0,0,0-.82.86,3.34,3.34,0,0,0-.53,1.09v5.81h-1.24V75h1.13V77.1a4.41,4.41,0,0,1,1.67-1.68,4.59,4.59,0,0,1,2.36-.64,2.75,2.75,0,0,1,1.33.3,2.21,2.21,0,0,1,.87.82,3.57,3.57,0,0,1,.47,1.29,8.78,8.78,0,0,1,.15,1.69Z" transform="translate(1.9 -0.71)"/><path class="cls-1" d="M148.86,84l-.32.14-.48.18a4.61,4.61,0,0,1-.62.17,3.54,3.54,0,0,1-.73.07,2.76,2.76,0,0,1-.77-.11,1.72,1.72,0,0,1-.64-.34,1.65,1.65,0,0,1-.43-.57,1.85,1.85,0,0,1-.17-.8v-6.8h-1.31V75h1.31V71.74h1.24V75h2.19v1h-2.19v6.45a1,1,0,0,0,.37.78,1.33,1.33,0,0,0,.78.24,2.27,2.27,0,0,0,.93-.17,4,4,0,0,0,.51-.25Z" transform="translate(1.9 -0.71)"/><path class="cls-1" d="M47.41,50.67V37.74H51.8a6.69,6.69,0,0,1,2.71.51,5.57,5.57,0,0,1,1.93,1.38,5.93,5.93,0,0,1,1.17,2A7.9,7.9,0,0,1,58,44.19a7.79,7.79,0,0,1-.44,2.67,5.87,5.87,0,0,1-1.25,2,5.63,5.63,0,0,1-2,1.31,6.71,6.71,0,0,1-2.56.46Zm9.31-6.48a6.62,6.62,0,0,0-.33-2.14,4.67,4.67,0,0,0-1-1.69,4.38,4.38,0,0,0-1.54-1.1,5.31,5.31,0,0,0-2.1-.39H48.69V49.54H51.8a5,5,0,0,0,2.12-.41A4.2,4.2,0,0,0,55.46,48a4.73,4.73,0,0,0,.94-1.69A6.59,6.59,0,0,0,56.72,44.19Z" transform="translate(1.9 -0.71)"/><path class="cls-1" d="M62.57,50.86a3.43,3.43,0,0,1-1.25-.23,3.14,3.14,0,0,1-1-.63,2.88,2.88,0,0,1-.9-2.1,2.36,2.36,0,0,1,.29-1.14,2.63,2.63,0,0,1,.82-.91,3.88,3.88,0,0,1,1.26-.6,5.74,5.74,0,0,1,1.6-.21,9.35,9.35,0,0,1,1.48.13,6.56,6.56,0,0,1,1.33.37v-.86a2.79,2.79,0,0,0-.71-2,2.62,2.62,0,0,0-2-.73,4.07,4.07,0,0,0-1.5.29,6.71,6.71,0,0,0-1.54.84L60,42.26A6.4,6.4,0,0,1,63.61,41a3.83,3.83,0,0,1,2.81,1,3.71,3.71,0,0,1,1,2.77v4.28q0,.51.45.51v1.09a2.59,2.59,0,0,1-.47.06,1.06,1.06,0,0,1-.74-.24.86.86,0,0,1-.28-.65l0-.75a4.31,4.31,0,0,1-1.65,1.31A5.11,5.11,0,0,1,62.57,50.86Zm.29-1a4.17,4.17,0,0,0,1.78-.37,2.88,2.88,0,0,0,1.23-1,1.23,1.23,0,0,0,.25-.36.93.93,0,0,0,.08-.35V46.32A8,8,0,0,0,64.91,46a7.53,7.53,0,0,0-1.35-.12,3.84,3.84,0,0,0-2.14.54,1.69,1.69,0,0,0-.82,1.44,1.89,1.89,0,0,0,.18.82,2,2,0,0,0,.47.67,2.18,2.18,0,0,0,.72.44A2.43,2.43,0,0,0,62.86,49.91Z" transform="translate(1.9 -0.71)"/><path class="cls-1" d="M74.6,50.22l-.32.14a3.69,3.69,0,0,1-.48.19,6.15,6.15,0,0,1-.62.16,3.48,3.48,0,0,1-.73.07,2.47,2.47,0,0,1-.77-.11,1.73,1.73,0,0,1-.63-.33,1.6,1.6,0,0,1-.44-.58,1.81,1.81,0,0,1-.17-.8v-6.8H69.13v-1h1.31V38h1.24v3.21h2.19v1H71.68v6.46a1,1,0,0,0,.38.77,1.28,1.28,0,0,0,.77.24,2.27,2.27,0,0,0,.93-.17,3.18,3.18,0,0,0,.51-.24Z" transform="translate(1.9 -0.71)"/><path class="cls-1" d="M78.54,50.86a3.39,3.39,0,0,1-1.25-.23,3.08,3.08,0,0,1-1-.63,3,3,0,0,1-.66-.94,2.8,2.8,0,0,1-.24-1.16,2.36,2.36,0,0,1,.29-1.14,2.74,2.74,0,0,1,.82-.91,4.09,4.09,0,0,1,1.26-.6A5.81,5.81,0,0,1,79.36,45a9.33,9.33,0,0,1,1.47.13,6.56,6.56,0,0,1,1.33.37v-.86a2.79,2.79,0,0,0-.71-2,2.6,2.6,0,0,0-2-.73,4.06,4.06,0,0,0-1.49.29,6.77,6.77,0,0,0-1.55.84L76,42.26A6.4,6.4,0,0,1,79.57,41a3.83,3.83,0,0,1,2.81,1,3.71,3.71,0,0,1,1,2.77v4.28c0,.34.15.51.46.51v1.09a2.79,2.79,0,0,1-.48.06,1.08,1.08,0,0,1-.74-.24.89.89,0,0,1-.28-.65l0-.75a4.31,4.31,0,0,1-1.65,1.31A5.17,5.17,0,0,1,78.54,50.86Zm.29-1a4.16,4.16,0,0,0,1.77-.37,2.88,2.88,0,0,0,1.23-1,1.23,1.23,0,0,0,.25-.36.93.93,0,0,0,.08-.35V46.32A7.84,7.84,0,0,0,80.88,46a7.73,7.73,0,0,0-1.36-.12,3.78,3.78,0,0,0-2.13.54,1.67,1.67,0,0,0-.82,1.44,1.88,1.88,0,0,0,.17.82,2.13,2.13,0,0,0,.47.67,2.18,2.18,0,0,0,.72.44A2.44,2.44,0,0,0,78.83,49.91Z" transform="translate(1.9 -0.71)"/><path class="cls-1" d="M89.23,50.86a6.73,6.73,0,0,1-2.17-.37,5.08,5.08,0,0,1-1.82-1.06l.57-.83a6.2,6.2,0,0,0,1.63,1,4.72,4.72,0,0,0,1.77.33,3.24,3.24,0,0,0,1.84-.47,1.51,1.51,0,0,0,.68-1.32,1.14,1.14,0,0,0-.18-.66A1.58,1.58,0,0,0,91,47a4.46,4.46,0,0,0-.89-.35c-.36-.11-.78-.21-1.25-.32s-1-.27-1.42-.4a4.7,4.7,0,0,1-1-.46,1.66,1.66,0,0,1-.58-.63,2,2,0,0,1-.19-.94A2.65,2.65,0,0,1,86,42.64a2.41,2.41,0,0,1,.77-.9,3.38,3.38,0,0,1,1.13-.54A5.09,5.09,0,0,1,89.23,41a5.3,5.3,0,0,1,2,.35,4,4,0,0,1,1.44.94l-.6.73a3.28,3.28,0,0,0-1.29-.82A4.63,4.63,0,0,0,89.2,42a3.82,3.82,0,0,0-.92.1,2.18,2.18,0,0,0-.73.31,1.6,1.6,0,0,0-.69,1.35,1.36,1.36,0,0,0,.13.62,1.1,1.1,0,0,0,.42.41,3,3,0,0,0,.74.31c.3.09.66.19,1.08.28.61.15,1.14.3,1.61.44a5.41,5.41,0,0,1,1.15.51,2,2,0,0,1,.7.71,2,2,0,0,1,.24,1,2.47,2.47,0,0,1-1,2.08A4.35,4.35,0,0,1,89.23,50.86Z" transform="translate(1.9 -0.71)"/><path class="cls-1" d="M99.05,50.86a4.62,4.62,0,0,1-3.4-1.47,5,5,0,0,1-1-1.58,5.23,5.23,0,0,1-.35-1.91A5.16,5.16,0,0,1,94.65,44a5,5,0,0,1,1-1.55,4.72,4.72,0,0,1,1.5-1.05,4.82,4.82,0,0,1,3.8,0,4.55,4.55,0,0,1,1.49,1.06,5.07,5.07,0,0,1,1.31,3.41v.29a.75.75,0,0,1,0,.2H95.59A4.18,4.18,0,0,0,96,47.79a4.05,4.05,0,0,0,.77,1.12,3.48,3.48,0,0,0,1.09.73,3.26,3.26,0,0,0,2.21.14,3.47,3.47,0,0,0,.84-.35,3.17,3.17,0,0,0,.69-.53,2.3,2.3,0,0,0,.48-.7l1.07.29a3.12,3.12,0,0,1-.62.95,4.25,4.25,0,0,1-.93.75,4.38,4.38,0,0,1-1.17.49A4.8,4.8,0,0,1,99.05,50.86Zm3.5-5.43a3.75,3.75,0,0,0-.35-1.4,3.71,3.71,0,0,0-.77-1.08,3.38,3.38,0,0,0-2.38-1,3.44,3.44,0,0,0-1.31.26,3.27,3.27,0,0,0-1.08.71A3.53,3.53,0,0,0,95.91,44a4.23,4.23,0,0,0-.34,1.39Z" transform="translate(1.9 -0.71)"/><path class="cls-1" d="M110.13,50.22l-.31.14a3.87,3.87,0,0,1-.49.19,6.15,6.15,0,0,1-.62.16,3.41,3.41,0,0,1-.73.07,2.41,2.41,0,0,1-.76-.11,1.77,1.77,0,0,1-.64-.33,1.72,1.72,0,0,1-.44-.58A1.81,1.81,0,0,1,106,49v-6.8h-1.31v-1H106V38h1.24v3.21h2.19v1h-2.19v6.46a1,1,0,0,0,.37.77,1.31,1.31,0,0,0,.78.24,2.27,2.27,0,0,0,.93-.17,4.44,4.44,0,0,0,.51-.24Z" transform="translate(1.9 -0.71)"/><path class="cls-1" d="M124.15,40.16a3.94,3.94,0,0,0-1.46-1,5.25,5.25,0,0,0-2.08-.39,3.89,3.89,0,0,0-2.49.65,2.15,2.15,0,0,0-.79,1.76,2,2,0,0,0,.21,1,1.81,1.81,0,0,0,.65.64,4.37,4.37,0,0,0,1.12.48c.45.13,1,.26,1.61.4a16.77,16.77,0,0,1,1.87.49,5.44,5.44,0,0,1,1.41.68,3,3,0,0,1,.9,1,3.14,3.14,0,0,1,.31,1.45,3.25,3.25,0,0,1-.35,1.55,3.09,3.09,0,0,1-1,1.1,4.29,4.29,0,0,1-1.47.64,7.9,7.9,0,0,1-1.88.21,7.7,7.7,0,0,1-5.19-1.87l.63-1a5.33,5.33,0,0,0,.83.69,5.81,5.81,0,0,0,1.08.57,6.27,6.27,0,0,0,1.27.39,7.14,7.14,0,0,0,1.42.13,4.46,4.46,0,0,0,2.41-.55,1.86,1.86,0,0,0,.87-1.69,2,2,0,0,0-.25-1,2.11,2.11,0,0,0-.74-.71,5.38,5.38,0,0,0-1.22-.52c-.48-.14-1-.29-1.69-.44a17.83,17.83,0,0,1-1.79-.49,4.57,4.57,0,0,1-1.29-.64,2.42,2.42,0,0,1-.8-.92,3,3,0,0,1-.26-1.32,3.57,3.57,0,0,1,.34-1.59,3.1,3.1,0,0,1,1-1.17,4.51,4.51,0,0,1,1.46-.71,6.75,6.75,0,0,1,1.86-.25,6.43,6.43,0,0,1,2.31.4,6.12,6.12,0,0,1,1.83,1.1Z" transform="translate(1.9 -0.71)"/><path class="cls-1" d="M127.39,39.19V37.37h1.24v1.82Zm0,11.48V41.18h1.24v9.49Z" transform="translate(1.9 -0.71)"/><path class="cls-1" d="M130.56,49.84,137,42.11h-6.27v-.93h7.62V42l-6.4,7.72h6.38v.93h-7.75Z" transform="translate(1.9 -0.71)"/><path class="cls-1" d="M144.18,50.86a4.62,4.62,0,0,1-3.41-1.47,5,5,0,0,1-1-1.58,5.23,5.23,0,0,1-.35-1.91,5.16,5.16,0,0,1,.35-1.89,5,5,0,0,1,1-1.55,4.72,4.72,0,0,1,1.5-1.05,4.82,4.82,0,0,1,3.8,0,4.55,4.55,0,0,1,1.49,1.06,5.07,5.07,0,0,1,1.31,3.41v.29a.75.75,0,0,1,0,.2h-8.13a4.18,4.18,0,0,0,.36,1.42,4.05,4.05,0,0,0,.77,1.12,3.48,3.48,0,0,0,1.09.73,3.26,3.26,0,0,0,2.21.14,3.47,3.47,0,0,0,.84-.35,3,3,0,0,0,.69-.53,2.3,2.3,0,0,0,.48-.7l1.07.29a3.12,3.12,0,0,1-.62.95,4.25,4.25,0,0,1-.93.75,4.45,4.45,0,0,1-1.16.49A4.91,4.91,0,0,1,144.18,50.86Zm3.49-5.43a3.75,3.75,0,0,0-.35-1.4,3.71,3.71,0,0,0-.77-1.08,3.23,3.23,0,0,0-1.07-.71,3.35,3.35,0,0,0-1.3-.26,3.45,3.45,0,0,0-1.32.26,3.27,3.27,0,0,0-1.08.71A3.53,3.53,0,0,0,141,44a4.23,4.23,0,0,0-.34,1.39Z" transform="translate(1.9 -0.71)"/><path class="cls-1" d="M72.52,2H73.6L79,15H77.62L76,10.92H70.13L68.48,15H67.11Zm3.14,7.89-2.61-6.4-2.64,6.4Z" transform="translate(1.9 -0.71)"/><path class="cls-1" d="M80.63,1.66h1.24V12.82a1.18,1.18,0,0,0,.29.83A1.1,1.1,0,0,0,83,14a2.32,2.32,0,0,0,.48-.06,3.8,3.8,0,0,0,.51-.14l.21,1a4.55,4.55,0,0,1-.84.23,4.37,4.37,0,0,1-.87.1,1.82,1.82,0,0,1-1.35-.49,1.8,1.8,0,0,1-.49-1.36Z" transform="translate(1.9 -0.71)"/><path class="cls-1" d="M89.34,15.09a3.83,3.83,0,0,1-1.79-.41,4.65,4.65,0,0,1-1.41-1.08,5.13,5.13,0,0,1-.92-1.55,5,5,0,0,1-.32-1.8,5.68,5.68,0,0,1,.31-1.89,5,5,0,0,1,.91-1.58,4.31,4.31,0,0,1,1.39-1.07,4,4,0,0,1,1.8-.4,3.64,3.64,0,0,1,2.11.61A6.05,6.05,0,0,1,93,7.46v-2h1.11V15a3.74,3.74,0,0,1-1.37,3,4.53,4.53,0,0,1-1.48.77,6.58,6.58,0,0,1-1.8.25,5.22,5.22,0,0,1-2.64-.58,4.6,4.6,0,0,1-1.62-1.57l.77-.6a3.38,3.38,0,0,0,1.49,1.34,4.82,4.82,0,0,0,2,.43,4.39,4.39,0,0,0,1.32-.2,3.09,3.09,0,0,0,1.08-.56,2.6,2.6,0,0,0,.74-.95A3.11,3.11,0,0,0,92.82,15V13.13a4.07,4.07,0,0,1-3.48,2Zm.35-1a2.87,2.87,0,0,0,1.07-.21,3.58,3.58,0,0,0,1-.53,3.68,3.68,0,0,0,.72-.76,2.34,2.34,0,0,0,.38-.86V8.77a3.59,3.59,0,0,0-.54-.95,3.93,3.93,0,0,0-.79-.74,4,4,0,0,0-.94-.5,3.07,3.07,0,0,0-2.44.16,3.35,3.35,0,0,0-1.06.88,3.82,3.82,0,0,0-.67,1.24,4.51,4.51,0,0,0-.23,1.4,3.79,3.79,0,0,0,.28,1.46,3.74,3.74,0,0,0,.75,1.21,3.6,3.6,0,0,0,1.12.82A3.11,3.11,0,0,0,89.69,14.06Z" transform="translate(1.9 -0.71)"/><path class="cls-1" d="M100.84,15.15a4.58,4.58,0,0,1-1.9-.39,4.64,4.64,0,0,1-1.48-1.07,5,5,0,0,1-1-1.57,5.12,5.12,0,0,1-.34-1.87,5.25,5.25,0,0,1,.35-1.9,5.1,5.1,0,0,1,1-1.57A4.8,4.8,0,0,1,99,5.71a4.34,4.34,0,0,1,1.88-.4,4.42,4.42,0,0,1,1.89.4,4.84,4.84,0,0,1,1.49,1.07,4.9,4.9,0,0,1,1,1.57,5.06,5.06,0,0,1,.36,1.9,5.13,5.13,0,0,1-.35,1.87,4.77,4.77,0,0,1-1,1.57,4.62,4.62,0,0,1-1.5,1.07A4.55,4.55,0,0,1,100.84,15.15ZM97.4,10.26a4,4,0,0,0,.27,1.49,3.85,3.85,0,0,0,.74,1.2,3.2,3.2,0,0,0,1.09.81,3.09,3.09,0,0,0,1.34.3,3,3,0,0,0,1.34-.31,3.41,3.41,0,0,0,1.1-.82,3.74,3.74,0,0,0,.75-1.21,4.07,4.07,0,0,0,.27-1.49A4.14,4.14,0,0,0,104,8.74a3.9,3.9,0,0,0-.75-1.22,3.56,3.56,0,0,0-1.1-.82,3.09,3.09,0,0,0-1.34-.3,3,3,0,0,0-1.33.3,3.51,3.51,0,0,0-1.09.83,3.83,3.83,0,0,0-.75,1.23A4.16,4.16,0,0,0,97.4,10.26Z" transform="translate(1.9 -0.71)"/><path class="cls-1" d="M112.38,6.57a3.85,3.85,0,0,0-2.19.69,3.44,3.44,0,0,0-1.31,1.8V15h-1.24V5.47h1.16V7.75A4.32,4.32,0,0,1,110.23,6a3.23,3.23,0,0,1,1.91-.62.86.86,0,0,1,.24,0Z" transform="translate(1.9 -0.71)"/><path class="cls-1" d="M114,3.49V1.66h1.24V3.49ZM114,15V5.47h1.24V15Z" transform="translate(1.9 -0.71)"/><path class="cls-1" d="M122.56,14.51l-.32.15-.48.18a6.15,6.15,0,0,1-.62.16,3.4,3.4,0,0,1-.73.08,2.68,2.68,0,0,1-.76-.11,1.87,1.87,0,0,1-.64-.34,1.68,1.68,0,0,1-.44-.57,1.89,1.89,0,0,1-.16-.81V6.46h-1.32v-1h1.32V2.26h1.24V5.47h2.18v1h-2.18v6.45a1,1,0,0,0,.37.77,1.23,1.23,0,0,0,.77.25,2.2,2.2,0,0,0,.93-.18,3.18,3.18,0,0,0,.51-.24Z" transform="translate(1.9 -0.71)"/><path class="cls-1" d="M132.09,15h-1.24V9.66a4.27,4.27,0,0,0-.55-2.42,1.87,1.87,0,0,0-1.63-.8,2.77,2.77,0,0,0-1,.21,3.84,3.84,0,0,0-1.77,1.43,3.74,3.74,0,0,0-.5,1.07V15h-1.24V1.66h1.24v6a4.33,4.33,0,0,1,1.57-1.69,4,4,0,0,1,2.17-.62,2.93,2.93,0,0,1,1.38.3,2.5,2.5,0,0,1,.93.84,3.76,3.76,0,0,1,.53,1.29,7.89,7.89,0,0,1,.16,1.67Z" transform="translate(1.9 -0.71)"/><path class="cls-1" d="M148.86,15h-1.24V9.66a4.46,4.46,0,0,0-.53-2.44,1.76,1.76,0,0,0-1.57-.78,2.59,2.59,0,0,0-1,.2,3.1,3.1,0,0,0-.89.56,4.12,4.12,0,0,0-.72.87,4,4,0,0,0-.47,1.1V15h-1.24V9.66a4.56,4.56,0,0,0-.51-2.46,1.76,1.76,0,0,0-1.57-.76,2.78,2.78,0,0,0-1.91.75,4.17,4.17,0,0,0-1.21,2V15h-1.24V5.47h1.13V7.62a4.46,4.46,0,0,1,1.54-1.7,3.76,3.76,0,0,1,2.09-.61,2.69,2.69,0,0,1,1.92.67,3,3,0,0,1,.89,1.77A4,4,0,0,1,146,5.31a3,3,0,0,1,1.36.29,2.22,2.22,0,0,1,.89.83,3.73,3.73,0,0,1,.49,1.29,8,8,0,0,1,.16,1.69Z" transform="translate(1.9 -0.71)"/><rect class="cls-5" x="158.32" y="34.29" width="124.58" height="9.12"/><rect class="cls-5" x="158.32" y="43.41" width="124.58" height="9.12"/><rect class="cls-4" x="158.32" y="43.41" width="31.15" height="9.12"/><rect class="cls-3" x="158.32" y="34.29" width="31.15" height="9.12"/><rect class="cls-3" x="158.32" y="101.83" width="124.58" height="9.12"/><rect class="cls-4" x="158.32" y="110.94" width="124.58" height="9.12"/><rect class="cls-5" x="158.32" y="135.59" width="124.58" height="9.12"/><rect class="cls-5" x="158.32" y="144.71" width="124.58" height="9.12"/><rect class="cls-3" x="158.32" y="135.59" width="47.45" height="9.12"/><rect class="cls-4" x="158.32" y="144.71" width="79.09" height="9.12"/><path class="cls-1" d="M168.06,7.25A3,3,0,0,0,167,6.49a4,4,0,0,0-1.59-.29,2.94,2.94,0,0,0-1.9.49,1.65,1.65,0,0,0-.6,1.34,1.44,1.44,0,0,0,.16.73,1.37,1.37,0,0,0,.49.5,4.2,4.2,0,0,0,.86.36q.51.15,1.23.3a12.52,12.52,0,0,1,1.42.38,4.17,4.17,0,0,1,1.08.52,2.14,2.14,0,0,1,.68.76,2.28,2.28,0,0,1,.24,1.11,2.45,2.45,0,0,1-.27,1.18,2.35,2.35,0,0,1-.73.84,3.42,3.42,0,0,1-1.13.49,5.85,5.85,0,0,1-1.43.16,5.94,5.94,0,0,1-4-1.43l.49-.79a4.15,4.15,0,0,0,.63.52,4.28,4.28,0,0,0,.82.44,5.18,5.18,0,0,0,1,.29,5.44,5.44,0,0,0,1.09.11,3.34,3.34,0,0,0,1.84-.43,1.42,1.42,0,0,0,.66-1.28,1.4,1.4,0,0,0-.19-.77,1.64,1.64,0,0,0-.56-.55,4.07,4.07,0,0,0-.93-.39c-.37-.11-.81-.23-1.3-.34s-1-.24-1.36-.37a3.52,3.52,0,0,1-1-.49,1.82,1.82,0,0,1-.6-.7,2.22,2.22,0,0,1-.2-1A2.83,2.83,0,0,1,162.11,7a2.63,2.63,0,0,1,.73-.89A3.76,3.76,0,0,1,164,5.52a5.19,5.19,0,0,1,1.42-.19,4.62,4.62,0,0,1,3.15,1.14Z" transform="translate(1.9 -0.71)"/><path class="cls-1" d="M173.62,5.4h.82l4.11,9.88h-1l-1.28-3.09H171.8l-1.27,3.09h-1Zm2.39,6-2-4.88-2,4.88Z" transform="translate(1.9 -0.71)"/><path class="cls-1" d="M186.6,14.41v.87H180V5.4h6.51v.86h-5.53V9.83h4.82v.82h-4.82v3.76Z" transform="translate(1.9 -0.71)"/><path class="cls-1" d="M196.22,5.4v9.88h-1V10.66h-5.85v4.62h-1V5.4h1V9.8h5.85V5.4Z" transform="translate(1.9 -0.71)"/><path class="cls-1" d="M198.7,15.28V5.4h3.35a5.1,5.1,0,0,1,2.07.39,4.18,4.18,0,0,1,1.47,1.06,4.54,4.54,0,0,1,.89,1.56,6,6,0,0,1,.3,1.92,5.65,5.65,0,0,1-.34,2,4.39,4.39,0,0,1-.95,1.56,4.16,4.16,0,0,1-1.49,1,5.06,5.06,0,0,1-1.95.36Zm7.11-4.95a5.32,5.32,0,0,0-.25-1.64,3.77,3.77,0,0,0-.74-1.28,3.21,3.21,0,0,0-1.17-.85,4,4,0,0,0-1.6-.3h-2.38v8.15h2.38a3.94,3.94,0,0,0,1.62-.31,3.31,3.31,0,0,0,1.18-.86,3.85,3.85,0,0,0,.71-1.29A5.29,5.29,0,0,0,205.81,10.33Z" transform="translate(1.9 -0.71)"/><rect class="cls-6" x="159.28" y="0.54" width="53.51" height="18.21"/><polyline class="cls-7" points="283.22 160.59 283.22 22.18 401.41 22.18"/><path class="cls-5" d="M288.45,13.48V1.68h4.88a3.17,3.17,0,0,1,1.41.32,3.82,3.82,0,0,1,1.1.85A4.14,4.14,0,0,1,296.57,4a3.54,3.54,0,0,1,.27,1.35,4.17,4.17,0,0,1-.25,1.4,3.93,3.93,0,0,1-.7,1.19,3.62,3.62,0,0,1-1.07.83,3.05,3.05,0,0,1-1.39.31h-3.82v4.36Zm1.16-5.39h3.77a2,2,0,0,0,.94-.22,2.31,2.31,0,0,0,.72-.6,2.87,2.87,0,0,0,.47-.86,3.2,3.2,0,0,0,.16-1,2.75,2.75,0,0,0-.19-1,2.84,2.84,0,0,0-.51-.86,2.41,2.41,0,0,0-.77-.57,2.1,2.1,0,0,0-.92-.21h-3.67Z" transform="translate(1.9 -0.71)"/><path class="cls-5" d="M302.87,5.82a3.49,3.49,0,0,0-2,.63,3.17,3.17,0,0,0-1.2,1.64v5.39h-1.13V4.82h1.06V6.9a3.87,3.87,0,0,1,1.3-1.56,3,3,0,0,1,1.74-.57l.22,0Z" transform="translate(1.9 -0.71)"/><path class="cls-5" d="M307.64,13.64a4.26,4.26,0,0,1-4-2.75,4.77,4.77,0,0,1-.32-1.72,4.69,4.69,0,0,1,.32-1.72,4.57,4.57,0,0,1,.9-1.43,4.3,4.3,0,0,1,1.36-1,3.89,3.89,0,0,1,1.71-.37,4,4,0,0,1,1.72.37,4.3,4.3,0,0,1,1.36,1,4.57,4.57,0,0,1,.9,1.43,4.69,4.69,0,0,1,.32,1.72,4.76,4.76,0,0,1-.31,1.72,4.61,4.61,0,0,1-.89,1.42,4.35,4.35,0,0,1-1.37,1A4.24,4.24,0,0,1,307.64,13.64ZM304.5,9.19a3.68,3.68,0,0,0,.92,2.45,2.93,2.93,0,0,0,1,.74,2.82,2.82,0,0,0,1.22.27,2.7,2.7,0,0,0,1.22-.28,3.06,3.06,0,0,0,1-.75,3.54,3.54,0,0,0,.69-1.1,3.81,3.81,0,0,0,.24-1.36,3.85,3.85,0,0,0-.24-1.36,3.71,3.71,0,0,0-.69-1.11,3.06,3.06,0,0,0-1-.75,2.89,2.89,0,0,0-2.44,0,3.28,3.28,0,0,0-1,.76,3.43,3.43,0,0,0-.68,1.12A3.66,3.66,0,0,0,304.5,9.19Z" transform="translate(1.9 -0.71)"/><path class="cls-5" d="M312.54,16.48a3.77,3.77,0,0,1-1-.14,2.38,2.38,0,0,1-.87-.5l.55-.77a1.45,1.45,0,0,0,.58.32,2.87,2.87,0,0,0,.64.08,1.39,1.39,0,0,0,.57-.12,1.43,1.43,0,0,0,.49-.32,1.75,1.75,0,0,0,.35-.49,1.39,1.39,0,0,0,.13-.61V4.82h1.13v9a2.45,2.45,0,0,1-.22,1.06,2.56,2.56,0,0,1-.57.83,2.5,2.5,0,0,1-1.75.73ZM314,3V1.35h1.13V3Z" transform="translate(1.9 -0.71)"/><path class="cls-5" d="M321.31,13.64a4.24,4.24,0,0,1-1.73-.35,4.39,4.39,0,0,1-1.38-1,4.86,4.86,0,0,1-.9-1.44A4.62,4.62,0,0,1,317,9.12,4.55,4.55,0,0,1,318.2,6a4.34,4.34,0,0,1,1.37-1A4.34,4.34,0,0,1,323,5a4.17,4.17,0,0,1,1.36,1,4.66,4.66,0,0,1,.88,1.41,4.58,4.58,0,0,1,.31,1.7v.26a.92.92,0,0,1,0,.19h-7.42a3.83,3.83,0,0,0,.33,1.28,3.6,3.6,0,0,0,.7,1,3.33,3.33,0,0,0,1,.67,3,3,0,0,0,2,.12,3.27,3.27,0,0,0,.77-.31,3.33,3.33,0,0,0,.63-.49,2.18,2.18,0,0,0,.43-.64l1,.26a2.92,2.92,0,0,1-.56.88,4.38,4.38,0,0,1-.85.68,4.47,4.47,0,0,1-1.07.45A4.78,4.78,0,0,1,321.31,13.64Zm3.19-5a3.49,3.49,0,0,0-.32-1.27,3.76,3.76,0,0,0-.7-1,3.29,3.29,0,0,0-1-.65,3.19,3.19,0,0,0-2.38,0,3.21,3.21,0,0,0-1,.65,3.06,3.06,0,0,0-.68,1,3.54,3.54,0,0,0-.31,1.26Z" transform="translate(1.9 -0.71)"/><path class="cls-5" d="M326.73,9.12A4.69,4.69,0,0,1,327,7.4,4.23,4.23,0,0,1,327.93,6a4,4,0,0,1,1.37-1,4.39,4.39,0,0,1,1.76-.35,4.08,4.08,0,0,1,2.15.56,3.56,3.56,0,0,1,1.38,1.5l-1.1.35a2.62,2.62,0,0,0-1-1A2.88,2.88,0,0,0,331,5.67a3,3,0,0,0-1.23.26,3,3,0,0,0-1,.73,3.27,3.27,0,0,0-.66,1.08,3.72,3.72,0,0,0-.25,1.38,3.93,3.93,0,0,0,.25,1.38,3.57,3.57,0,0,0,.68,1.12,3.21,3.21,0,0,0,1,.75,2.7,2.7,0,0,0,1.22.28,2.86,2.86,0,0,0,.82-.12,3.69,3.69,0,0,0,.76-.32,2.88,2.88,0,0,0,.6-.48,1.59,1.59,0,0,0,.35-.56l1.11.33a2.86,2.86,0,0,1-.53.86,3.91,3.91,0,0,1-.82.68,4.49,4.49,0,0,1-1.05.45,4.68,4.68,0,0,1-1.19.15,4.33,4.33,0,0,1-1.74-.35,4.28,4.28,0,0,1-1.38-1,4.69,4.69,0,0,1-.91-1.44A4.81,4.81,0,0,1,326.73,9.12Z" transform="translate(1.9 -0.71)"/><path class="cls-5" d="M340.6,13.06a1.69,1.69,0,0,1-.29.13,3.12,3.12,0,0,1-.44.17,3.77,3.77,0,0,1-.56.15,3.62,3.62,0,0,1-.67.07,2.69,2.69,0,0,1-.7-.1,1.71,1.71,0,0,1-.58-.31,1.61,1.61,0,0,1-.4-.52,1.7,1.7,0,0,1-.15-.73V5.72h-1.19v-.9h1.19V1.9h1.13V4.82h2v.9h-2V11.6a1,1,0,0,0,.34.71,1.17,1.17,0,0,0,.71.22,2.08,2.08,0,0,0,.85-.16,3.41,3.41,0,0,0,.46-.22Z" transform="translate(1.9 -0.71)"/><path class="cls-5" d="M346.48,13.48V1.68h5a3.1,3.1,0,0,1,1.4.32,3.73,3.73,0,0,1,1.11.85A3.91,3.91,0,0,1,354.7,4,3.72,3.72,0,0,1,355,5.39a4.16,4.16,0,0,1-.19,1.23,3.84,3.84,0,0,1-.54,1.07,3.08,3.08,0,0,1-.82.79,2.71,2.71,0,0,1-1.08.44l2.89,4.56h-1.31l-2.77-4.36h-3.49v4.36Zm1.17-5.39h3.85a2,2,0,0,0,.94-.22,2.21,2.21,0,0,0,.72-.61,2.87,2.87,0,0,0,.47-.86,3.1,3.1,0,0,0,.16-1,2.86,2.86,0,0,0-.7-1.88,2.3,2.3,0,0,0-.77-.58,2,2,0,0,0-.92-.22h-3.75Z" transform="translate(1.9 -0.71)"/><path class="cls-5" d="M360.59,13.64a4.33,4.33,0,0,1-1.74-.35,4.35,4.35,0,0,1-2.27-2.42,4.62,4.62,0,0,1-.33-1.75A4.6,4.6,0,0,1,357.47,6a4.38,4.38,0,0,1,1.38-1,4.11,4.11,0,0,1,1.72-.36,4.17,4.17,0,0,1,1.74.36,4,4,0,0,1,1.35,1,4.47,4.47,0,0,1,.88,1.41,4.4,4.4,0,0,1,.32,1.7v.26a.78.78,0,0,1,0,.19h-7.41a3.61,3.61,0,0,0,.33,1.28,3.41,3.41,0,0,0,.7,1,3.33,3.33,0,0,0,1,.67,3,3,0,0,0,2,.12,3,3,0,0,0,.76-.31,3.1,3.1,0,0,0,.64-.49,2.4,2.4,0,0,0,.43-.64l1,.26a2.77,2.77,0,0,1-.57.88,4,4,0,0,1-.84.68,4.65,4.65,0,0,1-1.07.45A4.83,4.83,0,0,1,360.59,13.64Zm3.19-5a3.49,3.49,0,0,0-.32-1.27,3.76,3.76,0,0,0-.7-1,3.29,3.29,0,0,0-1-.65,3.15,3.15,0,0,0-1.19-.23,3.24,3.24,0,0,0-1.2.23,3.29,3.29,0,0,0-1,.65,3.24,3.24,0,0,0-.69,1,3.75,3.75,0,0,0-.3,1.26Z" transform="translate(1.9 -0.71)"/><path class="cls-5" d="M368.78,13.64a3.25,3.25,0,0,1-1.14-.2,2.78,2.78,0,0,1-.91-.58,2.71,2.71,0,0,1-.61-.85,2.67,2.67,0,0,1-.21-1.06,2.15,2.15,0,0,1,.26-1,2.68,2.68,0,0,1,.75-.83,3.71,3.71,0,0,1,1.15-.54,5.55,5.55,0,0,1,1.46-.19,7.67,7.67,0,0,1,1.34.12,6.34,6.34,0,0,1,1.22.33V8a2.53,2.53,0,0,0-.65-1.82,2.37,2.37,0,0,0-1.8-.67,4,4,0,0,0-1.36.26,7.06,7.06,0,0,0-1.41.77l-.4-.75a5.89,5.89,0,0,1,3.26-1.13,3.51,3.51,0,0,1,2.56.92,3.36,3.36,0,0,1,.93,2.52V12c0,.31.14.46.41.46v1a3.14,3.14,0,0,1-.43,0,.93.93,0,0,1-.67-.22.8.8,0,0,1-.26-.6l0-.68a4,4,0,0,1-1.51,1.2A4.55,4.55,0,0,1,368.78,13.64Zm.27-.86a4,4,0,0,0,1.62-.33,2.72,2.72,0,0,0,1.12-.88,1,1,0,0,0,.22-.33.79.79,0,0,0,.08-.32V9.51a6.81,6.81,0,0,0-1.17-.34,7.33,7.33,0,0,0-1.24-.11,3.4,3.4,0,0,0-1.95.5,1.52,1.52,0,0,0-.74,1.31,1.93,1.93,0,0,0,.15.75,1.86,1.86,0,0,0,.44.6,2.06,2.06,0,0,0,.65.41A2.25,2.25,0,0,0,369.05,12.78Z" transform="translate(1.9 -0.71)"/><path class="cls-5" d="M375.06,9.12a4.69,4.69,0,0,1,.32-1.72A4.07,4.07,0,0,1,376.27,6a3.94,3.94,0,0,1,1.37-1,4.39,4.39,0,0,1,1.76-.35,4,4,0,0,1,2.14.56,3.56,3.56,0,0,1,1.38,1.5l-1.1.35a2.62,2.62,0,0,0-1-1,2.87,2.87,0,0,0-1.45-.37,3,3,0,0,0-1.24.26,3.22,3.22,0,0,0-1.66,1.81,3.93,3.93,0,0,0-.24,1.38,3.72,3.72,0,0,0,.25,1.38,3.24,3.24,0,0,0,.68,1.12,3.17,3.17,0,0,0,1,.75,2.73,2.73,0,0,0,1.22.28,2.92,2.92,0,0,0,.83-.12,3.6,3.6,0,0,0,.75-.32,2.64,2.64,0,0,0,.6-.48,1.46,1.46,0,0,0,.35-.56l1.11.33a2.86,2.86,0,0,1-.53.86,3.67,3.67,0,0,1-.82.68,4.49,4.49,0,0,1-1,.45,4.68,4.68,0,0,1-1.19.15,4.33,4.33,0,0,1-1.74-.35,4.39,4.39,0,0,1-1.38-1,4.49,4.49,0,0,1-.9-1.44A4.62,4.62,0,0,1,375.06,9.12Z" transform="translate(1.9 -0.71)"/><path class="cls-5" d="M392.06,13.48h-1.13V8.64a3.9,3.9,0,0,0-.51-2.21,1.7,1.7,0,0,0-1.48-.73,2.69,2.69,0,0,0-1,.19,3.38,3.38,0,0,0-.89.53,3.34,3.34,0,0,0-.72.78,3.15,3.15,0,0,0-.46,1v5.3h-1.13V1.35h1.13V6.78a3.93,3.93,0,0,1,1.43-1.54,3.68,3.68,0,0,1,2-.57,2.55,2.55,0,0,1,1.26.28,2.3,2.3,0,0,1,.85.76,3.4,3.4,0,0,1,.48,1.18,7.19,7.19,0,0,1,.15,1.52Z" transform="translate(1.9 -0.71)"/><rect class="cls-5" x="158.32" y="68.06" width="124.58" height="9.12"/><rect class="cls-5" x="158.32" y="77.17" width="124.58" height="9.12"/><rect class="cls-3" x="158.32" y="68.06" width="69.73" height="9.12"/><rect class="cls-4" x="158.32" y="77.17" width="69.73" height="9.12"/></svg>