<svg id="图层_1" data-name="图层 1" xmlns="http://www.w3.org/2000/svg" viewBox="0 0 461.43 159.8"><defs><style>.cls-1{fill:#fff;}.cls-2{fill:#939393;}.cls-3{fill:#f0850f;}.cls-4,.cls-5{fill:none;stroke-miterlimit:10;}.cls-4{stroke:#ef830d;stroke-width:1.07px;}.cls-5{stroke:#939393;stroke-width:0.65px;}</style></defs><title>03_pipi-shia</title><path class="cls-1" d="M41.47,140.9H36.88v11.75H35.61V140.9H31v-1.13H41.47Z" transform="translate(7.96 -1.1)"/><path class="cls-1" d="M45.86,144.29a3.82,3.82,0,0,0-2.18.69,3.45,3.45,0,0,0-1.3,1.79v5.88H41.14V143.2H42.3v2.27a4.3,4.3,0,0,1,1.42-1.71,3.28,3.28,0,0,1,1.9-.61h.24Z" transform="translate(7.96 -1.1)"/><path class="cls-1" d="M49.76,152.83a3.43,3.43,0,0,1-1.25-.23,3.14,3.14,0,0,1-1-.62,2.68,2.68,0,0,1-.66-.94,2.75,2.75,0,0,1-.24-1.15,2.36,2.36,0,0,1,.29-1.14,2.82,2.82,0,0,1,.82-.91,4,4,0,0,1,1.25-.59,5.67,5.67,0,0,1,1.59-.21,9.12,9.12,0,0,1,1.47.13,7.3,7.3,0,0,1,1.33.36v-.85a2.74,2.74,0,0,0-.71-2,2.6,2.6,0,0,0-2-.74,4.28,4.28,0,0,0-1.49.29,7.36,7.36,0,0,0-1.54.84l-.43-.82A6.37,6.37,0,0,1,50.79,143a3.8,3.8,0,0,1,2.79,1,3.7,3.7,0,0,1,1,2.76v4.26q0,.51.45.51v1.09a3.59,3.59,0,0,1-.47,0,1.08,1.08,0,0,1-.73-.23.88.88,0,0,1-.28-.66l0-.74a4.38,4.38,0,0,1-1.64,1.31A5.09,5.09,0,0,1,49.76,152.83Zm.29-.94a4.16,4.16,0,0,0,1.77-.37,2.91,2.91,0,0,0,1.22-1,1,1,0,0,0,.24-.35.86.86,0,0,0,.09-.35v-1.55a9.34,9.34,0,0,0-1.28-.36,7.53,7.53,0,0,0-1.35-.12,3.82,3.82,0,0,0-2.13.54,1.65,1.65,0,0,0-.81,1.43,2.08,2.08,0,0,0,.17.82,2.21,2.21,0,0,0,.47.66,2.18,2.18,0,0,0,.72.44A2.39,2.39,0,0,0,50.05,151.89Z" transform="translate(7.96 -1.1)"/><path class="cls-1" d="M57.26,141.22v-1.81H58.5v1.81Zm0,11.43V143.2H58.5v9.45Z" transform="translate(7.96 -1.1)"/><path class="cls-1" d="M69.16,152.65H67.93v-5.28a4.65,4.65,0,0,0-.5-2.45,1.71,1.71,0,0,0-1.53-.76,3.18,3.18,0,0,0-1.09.2,3.71,3.71,0,0,0-1,.56,4.47,4.47,0,0,0-.82.86,3.39,3.39,0,0,0-.53,1.08v5.79H61.22V143.2h1.12v2.14A4.51,4.51,0,0,1,64,143.67a4.57,4.57,0,0,1,2.35-.63,2.68,2.68,0,0,1,1.32.29,2.13,2.13,0,0,1,.87.81,3.77,3.77,0,0,1,.48,1.29,9.7,9.7,0,0,1,.14,1.69Z" transform="translate(7.96 -1.1)"/><path class="cls-1" d="M71.79,141.22v-1.81H73v1.81Zm0,11.43V143.2H73v9.45Z" transform="translate(7.96 -1.1)"/><path class="cls-1" d="M83.69,152.65H82.45v-5.28a4.55,4.55,0,0,0-.5-2.45,1.71,1.71,0,0,0-1.53-.76,3.27,3.27,0,0,0-1.09.2,3.66,3.66,0,0,0-1,.56,4.52,4.52,0,0,0-.83.86,3.36,3.36,0,0,0-.52,1.08v5.79H75.74V143.2h1.13v2.14a4.43,4.43,0,0,1,1.66-1.67,4.56,4.56,0,0,1,2.34-.63,2.72,2.72,0,0,1,1.33.29,2.26,2.26,0,0,1,.87.81,3.77,3.77,0,0,1,.47,1.29,8.78,8.78,0,0,1,.15,1.69Z" transform="translate(7.96 -1.1)"/><path class="cls-1" d="M90.1,152.78a3.92,3.92,0,0,1-1.78-.41,4.61,4.61,0,0,1-1.4-1.08,4.86,4.86,0,0,1-.91-1.54,5,5,0,0,1-.33-1.8,5.67,5.67,0,0,1,.32-1.88,4.88,4.88,0,0,1,.89-1.56,4.28,4.28,0,0,1,1.39-1.07,4,4,0,0,1,1.79-.4,3.65,3.65,0,0,1,2.1.6,6.05,6.05,0,0,1,1.53,1.54v-2h1.1v9.48a3.87,3.87,0,0,1-.37,1.74,3.75,3.75,0,0,1-1,1.26,4.1,4.1,0,0,1-1.47.76,6.08,6.08,0,0,1-1.78.25,5.15,5.15,0,0,1-2.63-.58,4.48,4.48,0,0,1-1.62-1.56l.77-.6a3.41,3.41,0,0,0,1.48,1.34,4.78,4.78,0,0,0,2,.42,4.26,4.26,0,0,0,1.3-.19,3.09,3.09,0,0,0,1.08-.56,2.76,2.76,0,0,0,.74-.94,3.11,3.11,0,0,0,.27-1.34v-1.86a3.94,3.94,0,0,1-1.49,1.43A4,4,0,0,1,90.1,152.78Zm.35-1a2.86,2.86,0,0,0,1.07-.2,3.52,3.52,0,0,0,1-.53,4,4,0,0,0,.72-.76,2.3,2.3,0,0,0,.38-.85v-2.92a3.56,3.56,0,0,0-.55-.94,3.63,3.63,0,0,0-.78-.74,3.77,3.77,0,0,0-.93-.49,3,3,0,0,0-1-.19,3,3,0,0,0-1.42.34,3.35,3.35,0,0,0-1.06.88,3.84,3.84,0,0,0-.66,1.23,4.51,4.51,0,0,0-.23,1.4,3.93,3.93,0,0,0,.27,1.45,3.88,3.88,0,0,0,.76,1.21,3.69,3.69,0,0,0,1.11.81A3.17,3.17,0,0,0,90.45,151.74Z" transform="translate(7.96 -1.1)"/><path class="cls-1" d="M111,140.9h-4.59v11.75h-1.27V140.9h-4.58v-1.13H111Z" transform="translate(7.96 -1.1)"/><path class="cls-1" d="M112.7,141.22v-1.81h1.23v1.81Zm0,11.43V143.2h1.23v9.45Z" transform="translate(7.96 -1.1)"/><path class="cls-1" d="M130.71,152.65h-1.24v-5.28a4.43,4.43,0,0,0-.52-2.43,1.76,1.76,0,0,0-1.56-.78,2.74,2.74,0,0,0-1,.2,3.24,3.24,0,0,0-.89.56,4,4,0,0,0-.71.86,4.15,4.15,0,0,0-.47,1.1v5.77h-1.24v-5.28a4.65,4.65,0,0,0-.5-2.45,1.76,1.76,0,0,0-1.56-.76,2.78,2.78,0,0,0-1.91.75,4.11,4.11,0,0,0-1.19,2v5.79h-1.24V143.2h1.13v2.14a4.48,4.48,0,0,1,1.52-1.7,3.8,3.8,0,0,1,2.09-.6,2.68,2.68,0,0,1,1.91.67,2.91,2.91,0,0,1,.88,1.76,4,4,0,0,1,3.64-2.43,2.75,2.75,0,0,1,1.35.29,2.27,2.27,0,0,1,.89.82,3.73,3.73,0,0,1,.49,1.29,7.86,7.86,0,0,1,.16,1.68Z" transform="translate(7.96 -1.1)"/><path class="cls-1" d="M137.4,152.83a4.58,4.58,0,0,1-1.9-.39,4.68,4.68,0,0,1-1.49-1.07,4.75,4.75,0,0,1-1-1.57,5,5,0,0,1-.35-1.9A4.91,4.91,0,0,1,133,146a4.7,4.7,0,0,1,2.47-2.59,4.57,4.57,0,0,1,1.89-.39,4.5,4.5,0,0,1,1.89.39,4.41,4.41,0,0,1,1.48,1.06,5,5,0,0,1,1.31,3.39v.29a.81.81,0,0,1,0,.2H134a4,4,0,0,0,.36,1.4,3.72,3.72,0,0,0,.77,1.12,3.33,3.33,0,0,0,1.08.73,3.11,3.11,0,0,0,1.29.27,3.18,3.18,0,0,0,.91-.13,3.61,3.61,0,0,0,.83-.34,3.05,3.05,0,0,0,.69-.54,2,2,0,0,0,.47-.7l1.07.29a3.09,3.09,0,0,1-.61.95,4.25,4.25,0,0,1-.93.75,4.65,4.65,0,0,1-1.16.49A5.19,5.19,0,0,1,137.4,152.83Zm3.48-5.4a3.9,3.9,0,0,0-.35-1.39,3.71,3.71,0,0,0-.77-1.08,3.32,3.32,0,0,0-2.36-1,3.39,3.39,0,0,0-1.31.25A3.43,3.43,0,0,0,135,145a3.56,3.56,0,0,0-.74,1.09,4.12,4.12,0,0,0-.34,1.38Z" transform="translate(7.96 -1.1)"/><path class="cls-1" d="M-1.92,118.49a5.42,5.42,0,0,1-2.46-.55,6.18,6.18,0,0,1-1.92-1.47,6.68,6.68,0,0,1-1.23-2.1A6.88,6.88,0,0,1-8,112a6.6,6.6,0,0,1,.46-2.46,6.64,6.64,0,0,1,1.28-2.09A6.21,6.21,0,0,1-4.3,106a5.37,5.37,0,0,1,2.39-.54A5.31,5.31,0,0,1,.55,106a6.22,6.22,0,0,1,1.9,1.5,6.91,6.91,0,0,1,1.23,2.1A6.72,6.72,0,0,1,4.11,112a6.69,6.69,0,0,1-.46,2.47,6.83,6.83,0,0,1-1.27,2.07A6.17,6.17,0,0,1,.47,118,5.53,5.53,0,0,1-1.92,118.49ZM-6.69,112a6,6,0,0,0,.34,2,5.55,5.55,0,0,0,1,1.73,4.68,4.68,0,0,0,1.5,1.19,4.21,4.21,0,0,0,2,.45,4.18,4.18,0,0,0,2-.47,4.92,4.92,0,0,0,1.51-1.24,5.54,5.54,0,0,0,.95-1.72,6,6,0,0,0,.33-2,5.76,5.76,0,0,0-.35-2,5.37,5.37,0,0,0-1-1.71A4.82,4.82,0,0,0,0,107a4.12,4.12,0,0,0-1.92-.45,4.19,4.19,0,0,0-2,.47,4.6,4.6,0,0,0-1.51,1.22,5.66,5.66,0,0,0-1,1.72A6,6,0,0,0-6.69,112Z" transform="translate(7.96 -1.1)"/><path class="cls-1" d="M9.21,118.58a2.65,2.65,0,0,1-2.29-1,5.12,5.12,0,0,1-.76-3.06V109H7.4v5.33q0,3.21,2.19,3.21a3.29,3.29,0,0,0,1.07-.18,3.37,3.37,0,0,0,1-.52,4.45,4.45,0,0,0,.8-.82A4.36,4.36,0,0,0,13,114.9v-6h1.23v7.85c0,.34.15.51.44.51v1.09l-.36,0h-.19a1,1,0,0,1-.7-.31,1.13,1.13,0,0,1-.28-.78v-1.09A4.36,4.36,0,0,1,11.47,118,4.43,4.43,0,0,1,9.21,118.58Z" transform="translate(7.96 -1.1)"/><path class="cls-1" d="M21.56,118l-.32.14-.48.18a6,6,0,0,1-.62.17,4.18,4.18,0,0,1-.72.07,2.68,2.68,0,0,1-.76-.11,1.79,1.79,0,0,1-.64-.34,1.65,1.65,0,0,1-.43-.57,1.81,1.81,0,0,1-.17-.8v-6.76h-1.3v-1h1.3v-3.19h1.24V109h2.17v1H18.66v6.42a1,1,0,0,0,.37.77,1.29,1.29,0,0,0,.77.25,2.19,2.19,0,0,0,.92-.18,3.18,3.18,0,0,0,.51-.24Z" transform="translate(7.96 -1.1)"/><path class="cls-1" d="M27.92,118.58a3.7,3.7,0,0,1-2.11-.61,4.81,4.81,0,0,1-1.48-1.53v5.82H23.1V109h1.11v1.83a4.5,4.5,0,0,1,1.5-1.44,4,4,0,0,1,3.81-.14,4.65,4.65,0,0,1,1.41,1.08,5.14,5.14,0,0,1,1.27,3.4,5.59,5.59,0,0,1-.31,1.89,4.76,4.76,0,0,1-.87,1.56,4.36,4.36,0,0,1-1.36,1.06A3.9,3.9,0,0,1,27.92,118.58Zm-.34-1.09a3.06,3.06,0,0,0,1.39-.32,3.72,3.72,0,0,0,1.07-.86,4.16,4.16,0,0,0,.68-1.22,4.43,4.43,0,0,0,.23-1.41,4,4,0,0,0-.27-1.45,4,4,0,0,0-.74-1.21,3.7,3.7,0,0,0-1.12-.84,3.24,3.24,0,0,0-1.39-.3,2.74,2.74,0,0,0-1,.19,3.88,3.88,0,0,0-1,.5,3.6,3.6,0,0,0-.76.75,2,2,0,0,0-.39.9v2.9a4.25,4.25,0,0,0,.56.94,3.6,3.6,0,0,0,.76.75,3.68,3.68,0,0,0,.91.5A3,3,0,0,0,27.58,117.49Z" transform="translate(7.96 -1.1)"/><path class="cls-1" d="M37.24,118.58a2.66,2.66,0,0,1-2.29-1,5.19,5.19,0,0,1-.75-3.06V109h1.23v5.33q0,3.21,2.19,3.21a3.25,3.25,0,0,0,1.07-.18,3.13,3.13,0,0,0,1-.52,4.15,4.15,0,0,0,.8-.82A3.78,3.78,0,0,0,41,114.9v-6h1.24v7.85c0,.34.14.51.43.51v1.09a2.88,2.88,0,0,1-.35,0h-.19a1,1,0,0,1-.71-.31,1.12,1.12,0,0,1-.27-.78v-1.09A4.32,4.32,0,0,1,39.5,118,4.43,4.43,0,0,1,37.24,118.58Z" transform="translate(7.96 -1.1)"/><path class="cls-1" d="M49.59,118l-.31.14-.48.18c-.19.06-.39.12-.62.17a4.21,4.21,0,0,1-.73.07,2.74,2.74,0,0,1-.76-.11,1.75,1.75,0,0,1-.63-.34,1.68,1.68,0,0,1-.44-.57,1.81,1.81,0,0,1-.16-.8v-6.76H44.15v-1h1.31v-3.19h1.23V109h2.18v1H46.69v6.42a1,1,0,0,0,.37.77,1.31,1.31,0,0,0,.77.25,2.24,2.24,0,0,0,.93-.18,3.71,3.71,0,0,0,.51-.24Z" transform="translate(7.96 -1.1)"/><path class="cls-1" d="M56,118.4V105.52h5.44a3.26,3.26,0,0,1,1.53.36,3.92,3.92,0,0,1,1.21.92,4.32,4.32,0,0,1,.79,1.3,4,4,0,0,1,.28,1.47,4.33,4.33,0,0,1-.21,1.35,4.07,4.07,0,0,1-.58,1.16,3.72,3.72,0,0,1-.9.87,3,3,0,0,1-1.17.48l3.15,5H64.12l-3-4.75H57.28v4.75Zm1.27-5.88h4.21a2.16,2.16,0,0,0,1-.24,2.39,2.39,0,0,0,.79-.66,3.22,3.22,0,0,0,.51-1,3.38,3.38,0,0,0,.18-1.1,3.05,3.05,0,0,0-.21-1.12,3.12,3.12,0,0,0-.56-.93,2.72,2.72,0,0,0-.83-.64,2.37,2.37,0,0,0-1-.23h-4.1Z" transform="translate(7.96 -1.1)"/><path class="cls-1" d="M71.41,118.58a4.58,4.58,0,0,1-1.9-.39A4.68,4.68,0,0,1,68,117.12a4.75,4.75,0,0,1-1-1.57,5,5,0,0,1-.35-1.9,4.91,4.91,0,0,1,.35-1.88,4.76,4.76,0,0,1,1-1.54,4.67,4.67,0,0,1,1.49-1,4.8,4.8,0,0,1,3.79,0,4.47,4.47,0,0,1,1.47,1.06,5,5,0,0,1,1.31,3.39v.29a.81.81,0,0,1,0,.2H68a4.07,4.07,0,0,0,.36,1.41,3.8,3.8,0,0,0,.77,1.11,3.35,3.35,0,0,0,1.08.74,3.27,3.27,0,0,0,1.29.26,3.18,3.18,0,0,0,.91-.13,3.61,3.61,0,0,0,.83-.34,3.05,3.05,0,0,0,.69-.54,2,2,0,0,0,.47-.7l1.07.29a3.26,3.26,0,0,1-.61,1,4.52,4.52,0,0,1-.93.74,4.65,4.65,0,0,1-1.16.49A5.19,5.19,0,0,1,71.41,118.58Zm3.48-5.4a3.9,3.9,0,0,0-.35-1.39,3.71,3.71,0,0,0-.77-1.08,3.27,3.27,0,0,0-2.36-1,3.39,3.39,0,0,0-1.31.25,3.43,3.43,0,0,0-1.08.71,3.68,3.68,0,0,0-.74,1.09,4.12,4.12,0,0,0-.34,1.38Z" transform="translate(7.96 -1.1)"/><path class="cls-1" d="M81.11,118.58a6.62,6.62,0,0,1-2.16-.36,5.16,5.16,0,0,1-1.81-1l.56-.84a6,6,0,0,0,1.62,1,4.72,4.72,0,0,0,1.77.33,3.25,3.25,0,0,0,1.82-.46,1.49,1.49,0,0,0,.68-1.32,1.12,1.12,0,0,0-.18-.66,1.51,1.51,0,0,0-.53-.46,4.21,4.21,0,0,0-.89-.36c-.36-.1-.77-.21-1.24-.31s-1-.27-1.42-.4a4.6,4.6,0,0,1-1-.46,1.63,1.63,0,0,1-.58-.62,2.15,2.15,0,0,1-.19-.94,2.65,2.65,0,0,1,.29-1.25,2.54,2.54,0,0,1,.76-.9,3.52,3.52,0,0,1,1.12-.53,5.09,5.09,0,0,1,1.37-.18,5.45,5.45,0,0,1,2,.35,3.92,3.92,0,0,1,1.43.94l-.6.72a3.34,3.34,0,0,0-1.28-.81,4.37,4.37,0,0,0-1.57-.28,4.28,4.28,0,0,0-.9.1,2.37,2.37,0,0,0-.74.32,1.55,1.55,0,0,0-.5.55,1.67,1.67,0,0,0-.18.79,1.24,1.24,0,0,0,.13.62,1,1,0,0,0,.42.41,4.32,4.32,0,0,0,.73.31c.3.09.66.18,1.08.28.6.14,1.14.29,1.6.43a5.41,5.41,0,0,1,1.15.51,2,2,0,0,1,.7.71,2.07,2.07,0,0,1,.23,1,2.46,2.46,0,0,1-1,2.07A4.29,4.29,0,0,1,81.11,118.58Z" transform="translate(7.96 -1.1)"/><path class="cls-1" d="M90.83,118.58a4.5,4.5,0,0,1-1.89-.39,4.57,4.57,0,0,1-1.47-1.06,4.82,4.82,0,0,1-1-1.56,5.09,5.09,0,0,1-.35-1.87,5,5,0,0,1,.36-1.88,4.89,4.89,0,0,1,1-1.56A4.64,4.64,0,0,1,89,109.19a4.3,4.3,0,0,1,1.87-.4,4.37,4.37,0,0,1,1.88.4,4.53,4.53,0,0,1,1.48,1.07,4.75,4.75,0,0,1,1,1.56,5,5,0,0,1,.36,1.88,5.09,5.09,0,0,1-.35,1.87,4.82,4.82,0,0,1-1,1.56,4.51,4.51,0,0,1-1.48,1.06A4.58,4.58,0,0,1,90.83,118.58Zm-3.43-4.86a4,4,0,0,0,.27,1.48,4.31,4.31,0,0,0,.74,1.2,3.31,3.31,0,0,0,1.09.8,3.15,3.15,0,0,0,2.66,0,3.53,3.53,0,0,0,1.1-.81,4.06,4.06,0,0,0,.74-4.17,4,4,0,0,0-.74-1.22,3.38,3.38,0,0,0-1.1-.81,3,3,0,0,0-1.33-.3,3,3,0,0,0-1.32.3,3.23,3.23,0,0,0-1.09.82,4.09,4.09,0,0,0-.75,1.22A4.16,4.16,0,0,0,87.4,113.72Z" transform="translate(7.96 -1.1)"/><path class="cls-1" d="M97.65,105.16h1.23v11.1a1.12,1.12,0,0,0,.29.82,1.09,1.09,0,0,0,.82.3,2.15,2.15,0,0,0,.47,0,3.8,3.8,0,0,0,.51-.15l.21,1a3.85,3.85,0,0,1-.84.24,4.93,4.93,0,0,1-.86.09,1.82,1.82,0,0,1-1.34-.48,1.79,1.79,0,0,1-.49-1.35Z" transform="translate(7.96 -1.1)"/><path class="cls-1" d="M105.48,118.58a2.65,2.65,0,0,1-2.29-1,5.19,5.19,0,0,1-.75-3.06V109h1.23v5.33q0,3.21,2.19,3.21a3.37,3.37,0,0,0,2-.7,4.15,4.15,0,0,0,.8-.82,3.78,3.78,0,0,0,.57-1.07v-6h1.24v7.85c0,.34.14.51.43.51v1.09a2.88,2.88,0,0,1-.35,0h-.19a1,1,0,0,1-.71-.31,1.12,1.12,0,0,1-.27-.78v-1.09a4.32,4.32,0,0,1-1.68,1.71A4.43,4.43,0,0,1,105.48,118.58Z" transform="translate(7.96 -1.1)"/><path class="cls-1" d="M117.83,118l-.32.14-.48.18a5.79,5.79,0,0,1-.61.17,4.21,4.21,0,0,1-.73.07,2.74,2.74,0,0,1-.76-.11,1.75,1.75,0,0,1-.63-.34,1.56,1.56,0,0,1-.44-.57,1.81,1.81,0,0,1-.16-.8v-6.76h-1.31v-1h1.31v-3.19h1.23V109h2.18v1h-2.18v6.42a1,1,0,0,0,.37.77,1.31,1.31,0,0,0,.77.25,2.27,2.27,0,0,0,.93-.18,4.44,4.44,0,0,0,.51-.24Z" transform="translate(7.96 -1.1)"/><path class="cls-1" d="M119.37,107v-1.81h1.24V107Zm0,11.43V109h1.24v9.45Z" transform="translate(7.96 -1.1)"/><path class="cls-1" d="M127.35,118.58a4.42,4.42,0,0,1-1.88-.39,4.51,4.51,0,0,1-1.48-1.06,4.82,4.82,0,0,1-1-1.56,5.09,5.09,0,0,1-.35-1.87,5,5,0,0,1,.36-1.88,4.75,4.75,0,0,1,1-1.56,4.6,4.6,0,0,1,1.47-1.07,4.3,4.3,0,0,1,1.87-.4,4.37,4.37,0,0,1,1.88.4,4.68,4.68,0,0,1,1.49,1.07,4.89,4.89,0,0,1,1,1.56,5,5,0,0,1,.36,1.88,5.09,5.09,0,0,1-.35,1.87,4.82,4.82,0,0,1-1,1.56,4.51,4.51,0,0,1-1.48,1.06A4.58,4.58,0,0,1,127.35,118.58Zm-3.43-4.86a3.79,3.79,0,0,0,.28,1.48,4.06,4.06,0,0,0,.73,1.2,3.31,3.31,0,0,0,1.09.8,3.15,3.15,0,0,0,2.66,0,3.53,3.53,0,0,0,1.1-.81,4.06,4.06,0,0,0,.74-4.17,3.76,3.76,0,0,0-.74-1.22,3.38,3.38,0,0,0-1.1-.81,3,3,0,0,0-1.33-.3,3,3,0,0,0-1.32.3,3.33,3.33,0,0,0-1.09.82,4.07,4.07,0,0,0-.74,1.22A4,4,0,0,0,123.92,113.72Z" transform="translate(7.96 -1.1)"/><path class="cls-1" d="M142.06,118.4h-1.24v-5.28a4.66,4.66,0,0,0-.49-2.45,1.74,1.74,0,0,0-1.54-.76,3.17,3.17,0,0,0-1.08.2,3.84,3.84,0,0,0-1,.56,4.59,4.59,0,0,0-.83.87,3.43,3.43,0,0,0-.52,1.07v5.79h-1.23V109h1.12v2.14a4.51,4.51,0,0,1,1.66-1.67,4.57,4.57,0,0,1,2.35-.63,2.8,2.8,0,0,1,1.32.29,2.26,2.26,0,0,1,.87.81,3.64,3.64,0,0,1,.47,1.29,8.78,8.78,0,0,1,.15,1.69Z" transform="translate(7.96 -1.1)"/><path class="cls-1" d="M4.33,85.9V73H5.6V85.9Z" transform="translate(7.96 -1.1)"/><path class="cls-1" d="M13.11,85.45l-.32.14-.48.18a6,6,0,0,1-.62.17A4.18,4.18,0,0,1,11,86a2.68,2.68,0,0,1-.76-.11,1.58,1.58,0,0,1-.64-.34A1.68,1.68,0,0,1,9.13,85,2,2,0,0,1,9,84.2V77.43H7.67v-1H9V73.26h1.24v3.19h2.17v1H10.21v6.42a.94.94,0,0,0,.37.77,1.23,1.23,0,0,0,.77.25,2.19,2.19,0,0,0,.92-.18,3.18,3.18,0,0,0,.51-.24Z" transform="translate(7.96 -1.1)"/><path class="cls-1" d="M18.49,86.08a4.57,4.57,0,0,1-3.39-1.46,5,5,0,0,1-1-1.57,5.17,5.17,0,0,1-.35-1.9,4.91,4.91,0,0,1,1.33-3.42,4.72,4.72,0,0,1,1.5-1,4.77,4.77,0,0,1,3.78,0,4.51,4.51,0,0,1,1.48,1.06,4.95,4.95,0,0,1,1.3,3.39v.29a1,1,0,0,1,0,.2H15.05a3.88,3.88,0,0,0,1.12,2.52,3.59,3.59,0,0,0,1.08.74,3.35,3.35,0,0,0,1.3.26,3.11,3.11,0,0,0,.9-.13,3.69,3.69,0,0,0,.84-.34,3.57,3.57,0,0,0,.69-.54,2.33,2.33,0,0,0,.47-.7l1.07.29a3.16,3.16,0,0,1-.62,1,4.21,4.21,0,0,1-.92.74,4.82,4.82,0,0,1-1.16.49A5.33,5.33,0,0,1,18.49,86.08ZM22,80.68a3.78,3.78,0,0,0-1.11-2.47,3.44,3.44,0,0,0-3.67-.71,3.43,3.43,0,0,0-1.08.71,3.53,3.53,0,0,0-.75,1.09A4.36,4.36,0,0,0,15,80.68Z" transform="translate(7.96 -1.1)"/><path class="cls-1" d="M29.77,77.54a3.86,3.86,0,0,0-2.17.69A3.42,3.42,0,0,0,26.29,80V85.9H25.06V76.45h1.16v2.27A4.35,4.35,0,0,1,27.63,77a3.28,3.28,0,0,1,1.91-.61.79.79,0,0,1,.23,0Z" transform="translate(7.96 -1.1)"/><path class="cls-1" d="M33.67,86.08a3.18,3.18,0,0,1-2.24-.85,3,3,0,0,1-.66-.93,2.8,2.8,0,0,1-.24-1.16A2.36,2.36,0,0,1,30.82,82a2.94,2.94,0,0,1,.82-.91,3.9,3.9,0,0,1,1.25-.58,5.74,5.74,0,0,1,1.6-.21,9.3,9.3,0,0,1,1.47.12,6.64,6.64,0,0,1,1.32.37v-.86a2.74,2.74,0,0,0-.71-2,2.59,2.59,0,0,0-2-.74,4.18,4.18,0,0,0-1.48.29,7.58,7.58,0,0,0-1.54.84l-.44-.82a6.4,6.4,0,0,1,3.55-1.23,3.81,3.81,0,0,1,2.8,1,3.69,3.69,0,0,1,1,2.75V84.3c0,.34.15.51.46.51V85.9a2.58,2.58,0,0,1-.48,0,1,1,0,0,1-.73-.23.87.87,0,0,1-.28-.65l0-.75a4.21,4.21,0,0,1-1.64,1.31A5.09,5.09,0,0,1,33.67,86.08Zm.29-.94a4.31,4.31,0,0,0,1.77-.36,2.88,2.88,0,0,0,1.22-1,1.07,1.07,0,0,0,.25-.35,1,1,0,0,0,.08-.35V81.57A7.84,7.84,0,0,0,36,81.2a7.53,7.53,0,0,0-1.35-.12,3.77,3.77,0,0,0-2.12.54,1.64,1.64,0,0,0-.82,1.43,2,2,0,0,0,.17.82,2.24,2.24,0,0,0,.48.66,2.15,2.15,0,0,0,.71.45A2.65,2.65,0,0,0,34,85.14Z" transform="translate(7.96 -1.1)"/><path class="cls-1" d="M45.64,85.45l-.32.14-.48.18c-.18.06-.39.12-.61.17a4.4,4.4,0,0,1-.73.07,2.68,2.68,0,0,1-.76-.11A1.66,1.66,0,0,1,41.67,85a1.8,1.8,0,0,1-.17-.79V77.43H40.2v-1h1.3V73.26h1.24v3.19h2.17v1H42.74v6.42a1,1,0,0,0,.37.77,1.23,1.23,0,0,0,.77.25,2.27,2.27,0,0,0,.93-.18,3.39,3.39,0,0,0,.5-.24Z" transform="translate(7.96 -1.1)"/><path class="cls-1" d="M47.18,74.48V72.66h1.23v1.82Zm0,11.42V76.45h1.23V85.9Z" transform="translate(7.96 -1.1)"/><path class="cls-1" d="M55.16,86.08a4.5,4.5,0,0,1-1.89-.39,4.57,4.57,0,0,1-1.47-1.06,4.82,4.82,0,0,1-1-1.56,5.09,5.09,0,0,1-.35-1.87,5.15,5.15,0,0,1,.35-1.88,5.22,5.22,0,0,1,1-1.56,4.64,4.64,0,0,1,1.48-1.07,4.3,4.3,0,0,1,1.87-.4,4.37,4.37,0,0,1,1.88.4,4.53,4.53,0,0,1,1.48,1.07,4.85,4.85,0,0,1,1,1.56,5,5,0,0,1,.36,1.88,5.09,5.09,0,0,1-.35,1.87,4.82,4.82,0,0,1-1,1.56,4.55,4.55,0,0,1-1.49,1.06A4.5,4.5,0,0,1,55.16,86.08Zm-3.43-4.86A4,4,0,0,0,52,82.7a4.31,4.31,0,0,0,.74,1.2,3.31,3.31,0,0,0,1.09.8,3.15,3.15,0,0,0,2.66,0,3.53,3.53,0,0,0,1.1-.81,4.12,4.12,0,0,0,.74-4.17,4,4,0,0,0-.74-1.22,3.53,3.53,0,0,0-1.1-.81,3,3,0,0,0-1.33-.3,3,3,0,0,0-1.32.3,3.37,3.37,0,0,0-1.09.82A4,4,0,0,0,52,79.73,4.07,4.07,0,0,0,51.73,81.22Z" transform="translate(7.96 -1.1)"/><path class="cls-1" d="M69.87,85.9H68.63V80.62a4.55,4.55,0,0,0-.5-2.45,1.71,1.71,0,0,0-1.53-.76,3.27,3.27,0,0,0-1.09.2,3.94,3.94,0,0,0-1,.56,4.29,4.29,0,0,0-.83.87,3.37,3.37,0,0,0-.52,1.08V85.9H61.92V76.45h1.13v2.14a4.43,4.43,0,0,1,1.66-1.67,4.57,4.57,0,0,1,2.35-.63,2.8,2.8,0,0,1,1.32.29,2.21,2.21,0,0,1,.87.82,3.71,3.71,0,0,1,.47,1.28,8.78,8.78,0,0,1,.15,1.69Z" transform="translate(7.96 -1.1)"/><path class="cls-1" d="M80.8,73h1.07L87.22,85.9H85.88l-1.67-4H78.43l-1.65,4H75.42Zm3.12,7.85-2.59-6.37L78.7,80.88Z" transform="translate(7.96 -1.1)"/><path class="cls-1" d="M102.87,85.9h-1.23V80.62a4.42,4.42,0,0,0-.53-2.43,1.76,1.76,0,0,0-1.56-.78,2.69,2.69,0,0,0-1,.2,3.33,3.33,0,0,0-.89.56,4.12,4.12,0,0,0-.72.87,4.43,4.43,0,0,0-.47,1.09V85.9H95.22V80.62a4.54,4.54,0,0,0-.51-2.45,1.76,1.76,0,0,0-1.56-.76,2.75,2.75,0,0,0-1.9.75,4.08,4.08,0,0,0-1.2,2V85.9H88.82V76.45h1.12v2.14a4.46,4.46,0,0,1,1.52-1.69,3.76,3.76,0,0,1,2.09-.61,2.67,2.67,0,0,1,1.91.67,2.91,2.91,0,0,1,.88,1.76A4,4,0,0,1,100,76.29a2.93,2.93,0,0,1,1.35.29,2.34,2.34,0,0,1,.89.82,4.18,4.18,0,0,1,.49,1.29,8.6,8.6,0,0,1,.15,1.68Z" transform="translate(7.96 -1.1)"/><path class="cls-1" d="M109.51,86.08a4.5,4.5,0,0,1-1.89-.39,4.61,4.61,0,0,1-1.48-1.06,5,5,0,0,1-1-1.56,5.09,5.09,0,0,1-.34-1.87,5.15,5.15,0,0,1,.35-1.88,5,5,0,0,1,1-1.56,4.64,4.64,0,0,1,1.48-1.07,4.57,4.57,0,0,1,3.74,0,4.58,4.58,0,0,1,1.49,1.07,5,5,0,0,1,1,1.56,5,5,0,0,1,.35,1.88,5.09,5.09,0,0,1-.34,1.87,4.82,4.82,0,0,1-1,1.56,4.55,4.55,0,0,1-1.49,1.06A4.5,4.5,0,0,1,109.51,86.08Zm-3.43-4.86a4,4,0,0,0,.27,1.48,4.09,4.09,0,0,0,.74,1.2,3.27,3.27,0,0,0,1.08.8,3.08,3.08,0,0,0,1.34.29,3,3,0,0,0,1.33-.3,3.65,3.65,0,0,0,1.1-.81,4.12,4.12,0,0,0,.74-4.17,4,4,0,0,0-.74-1.22,3.65,3.65,0,0,0-1.1-.81,3,3,0,0,0-1.33-.3,3,3,0,0,0-1.33.3,3.44,3.44,0,0,0-1.08.82,3.83,3.83,0,0,0-.75,1.23A4.07,4.07,0,0,0,106.08,81.22Z" transform="translate(7.96 -1.1)"/><path class="cls-1" d="M119.23,86.08a2.67,2.67,0,0,1-2.3-1,5.17,5.17,0,0,1-.75-3.06V76.45h1.23v5.33c0,2.14.73,3.21,2.2,3.21a3.29,3.29,0,0,0,1.07-.18,3.37,3.37,0,0,0,1-.52,4.79,4.79,0,0,0,.8-.82A4.36,4.36,0,0,0,123,82.4v-6h1.23V84.3c0,.34.14.51.44.51V85.9a3.25,3.25,0,0,1-.36,0h-.19a1.06,1.06,0,0,1-.71-.31,1.09,1.09,0,0,1-.27-.78V83.76a4.32,4.32,0,0,1-1.68,1.71A4.4,4.4,0,0,1,119.23,86.08Z" transform="translate(7.96 -1.1)"/><path class="cls-1" d="M135,85.9h-1.24V80.62a4.55,4.55,0,0,0-.5-2.45,1.71,1.71,0,0,0-1.53-.76,3.27,3.27,0,0,0-1.09.2,3.78,3.78,0,0,0-1,.56,4.29,4.29,0,0,0-.83.87,3.18,3.18,0,0,0-.52,1.08V85.9H127V76.45h1.13v2.14a4.43,4.43,0,0,1,1.66-1.67,4.54,4.54,0,0,1,2.34-.63,2.87,2.87,0,0,1,1.33.29,2.21,2.21,0,0,1,.87.82,3.71,3.71,0,0,1,.47,1.28,8.78,8.78,0,0,1,.15,1.69Z" transform="translate(7.96 -1.1)"/><path class="cls-1" d="M142.06,85.45l-.32.14-.48.18a6,6,0,0,1-.62.17,4.18,4.18,0,0,1-.72.07,2.68,2.68,0,0,1-.76-.11,1.58,1.58,0,0,1-.64-.34,1.54,1.54,0,0,1-.43-.57,1.8,1.8,0,0,1-.17-.79V77.43h-1.3v-1h1.3V73.26h1.24v3.19h2.17v1h-2.17v6.42a.94.94,0,0,0,.37.77,1.23,1.23,0,0,0,.77.25,2.19,2.19,0,0,0,.92-.18,3.18,3.18,0,0,0,.51-.24Z" transform="translate(7.96 -1.1)"/><path class="cls-1" d="M41.11,51.56V38.69h4.37a6.62,6.62,0,0,1,2.69.5,5.44,5.44,0,0,1,1.92,1.38,5.71,5.71,0,0,1,1.16,2,7.82,7.82,0,0,1,.39,2.49,7.69,7.69,0,0,1-.43,2.66,5.74,5.74,0,0,1-1.25,2A5.5,5.5,0,0,1,48,51.1a6.61,6.61,0,0,1-2.54.46Zm9.26-6.46A6.89,6.89,0,0,0,50.05,43a4.84,4.84,0,0,0-1-1.67,4.17,4.17,0,0,0-1.53-1.1,5.21,5.21,0,0,0-2.08-.39h-3.1V50.44h3.1A5.19,5.19,0,0,0,47.59,50a4.24,4.24,0,0,0,1.53-1.13,5,5,0,0,0,.94-1.68A6.83,6.83,0,0,0,50.37,45.1Z" transform="translate(7.96 -1.1)"/><path class="cls-1" d="M56.19,51.74A3.18,3.18,0,0,1,55,51.51a3.12,3.12,0,0,1-1-.62,3,3,0,0,1-.66-.93,3,3,0,0,1-.23-1.16,2.25,2.25,0,0,1,.29-1.14,2.66,2.66,0,0,1,.81-.9,3.71,3.71,0,0,1,1.25-.59A5.79,5.79,0,0,1,57,46a9.3,9.3,0,0,1,1.47.12,6.46,6.46,0,0,1,1.32.37v-.86a2.74,2.74,0,0,0-.7-2,2.62,2.62,0,0,0-2-.74,4.24,4.24,0,0,0-1.49.29,7.58,7.58,0,0,0-1.54.84l-.44-.82A6.4,6.4,0,0,1,57.23,42,3.8,3.8,0,0,1,60,43a3.66,3.66,0,0,1,1,2.75V50q0,.51.45.51v1.09a2.49,2.49,0,0,1-.47,0,1.06,1.06,0,0,1-.74-.23.91.91,0,0,1-.28-.65L60,50a4.31,4.31,0,0,1-1.65,1.31A5,5,0,0,1,56.19,51.74Zm.29-.94a4.31,4.31,0,0,0,1.77-.36,3,3,0,0,0,1.23-1,.92.92,0,0,0,.24-.35.8.8,0,0,0,.08-.35V47.23a7,7,0,0,0-2.63-.49,3.79,3.79,0,0,0-2.12.54,1.65,1.65,0,0,0-.81,1.43,1.91,1.91,0,0,0,.17.82,2,2,0,0,0,.47.66,2.2,2.2,0,0,0,.72.45A2.55,2.55,0,0,0,56.48,50.8Z" transform="translate(7.96 -1.1)"/><path class="cls-1" d="M68.16,51.11l-.31.14-.49.18a5.79,5.79,0,0,1-.61.17,4.21,4.21,0,0,1-.73.07,2.74,2.74,0,0,1-.76-.11,1.73,1.73,0,0,1-.63-.33,1.82,1.82,0,0,1-.44-.58,1.8,1.8,0,0,1-.16-.79V43.09H62.72v-1H64V38.92h1.23v3.19h2.18v1H65.26v6.42a1,1,0,0,0,.37.77,1.31,1.31,0,0,0,.77.25,2.27,2.27,0,0,0,.93-.18,4.44,4.44,0,0,0,.51-.24Z" transform="translate(7.96 -1.1)"/><path class="cls-1" d="M72.08,51.74a3.15,3.15,0,0,1-1.24-.23A2.93,2.93,0,0,1,69.18,50a2.83,2.83,0,0,1-.24-1.16,2.36,2.36,0,0,1,.29-1.14,2.81,2.81,0,0,1,.82-.9,3.71,3.71,0,0,1,1.25-.59A5.74,5.74,0,0,1,72.9,46a9.08,9.08,0,0,1,1.46.12,6.56,6.56,0,0,1,1.33.37v-.86a2.74,2.74,0,0,0-.71-2,2.59,2.59,0,0,0-2-.74,4.18,4.18,0,0,0-1.48.29A7.64,7.64,0,0,0,70,44l-.43-.82A6.37,6.37,0,0,1,73.11,42a3.81,3.81,0,0,1,2.8,1,3.69,3.69,0,0,1,1,2.75V50q0,.51.45.51v1.09a2.41,2.41,0,0,1-.47,0,1,1,0,0,1-.73-.23.87.87,0,0,1-.28-.65l0-.75a4.21,4.21,0,0,1-1.64,1.31A5.09,5.09,0,0,1,72.08,51.74Zm.29-.94a4.31,4.31,0,0,0,1.77-.36,2.94,2.94,0,0,0,1.22-1,1.07,1.07,0,0,0,.25-.35,1,1,0,0,0,.08-.35V47.23a7.84,7.84,0,0,0-1.28-.37,7.53,7.53,0,0,0-1.35-.12,3.77,3.77,0,0,0-2.12.54,1.64,1.64,0,0,0-.82,1.43,2.08,2.08,0,0,0,.17.82,2.4,2.4,0,0,0,.47.66,2.2,2.2,0,0,0,.72.45A2.65,2.65,0,0,0,72.37,50.8Z" transform="translate(7.96 -1.1)"/><path class="cls-1" d="M82.72,51.74a6.6,6.6,0,0,1-2.15-.36,5.21,5.21,0,0,1-1.82-1.05l.57-.84a6,6,0,0,0,1.62,1,4.72,4.72,0,0,0,1.77.33,3.25,3.25,0,0,0,1.82-.46A1.51,1.51,0,0,0,85.21,49a1.16,1.16,0,0,0-.18-.66,1.46,1.46,0,0,0-.54-.46,4,4,0,0,0-.89-.36c-.35-.1-.77-.2-1.24-.31s-1-.27-1.41-.4a4.6,4.6,0,0,1-1-.46,1.56,1.56,0,0,1-.58-.62,2,2,0,0,1-.19-.94,2.68,2.68,0,0,1,.28-1.25,2.53,2.53,0,0,1,.76-.89,3.38,3.38,0,0,1,1.13-.54A5,5,0,0,1,82.72,42a5.41,5.41,0,0,1,2,.35,3.92,3.92,0,0,1,1.43.94l-.59.72a3.41,3.41,0,0,0-1.28-.81,4.4,4.4,0,0,0-1.57-.28,4.3,4.3,0,0,0-.91.1,2.31,2.31,0,0,0-.73.32,1.64,1.64,0,0,0-.5.55,1.67,1.67,0,0,0-.18.79,1.37,1.37,0,0,0,.12.62,1.18,1.18,0,0,0,.42.41,3.51,3.51,0,0,0,.74.31c.29.09.65.18,1.07.28.61.14,1.14.29,1.6.43a5.41,5.41,0,0,1,1.15.51,1.89,1.89,0,0,1,.94,1.72,2.49,2.49,0,0,1-1,2.07A4.32,4.32,0,0,1,82.72,51.74Z" transform="translate(7.96 -1.1)"/><path class="cls-1" d="M92.5,51.74a4.58,4.58,0,0,1-1.9-.39,4.53,4.53,0,0,1-1.49-1.07,4.65,4.65,0,0,1-1-1.57,5,5,0,0,1-.35-1.9,4.91,4.91,0,0,1,.35-1.88,4.76,4.76,0,0,1,1-1.54,4.67,4.67,0,0,1,1.49-1,4.8,4.8,0,0,1,3.79,0,4.47,4.47,0,0,1,1.47,1.06,5,5,0,0,1,1.31,3.39v.29a.81.81,0,0,1,0,.2H89.05a4.07,4.07,0,0,0,.36,1.41,3.67,3.67,0,0,0,.77,1.11,3.35,3.35,0,0,0,1.08.74,3.27,3.27,0,0,0,1.29.26,3.18,3.18,0,0,0,.91-.13,3.61,3.61,0,0,0,.83-.34,3.05,3.05,0,0,0,.69-.54,2,2,0,0,0,.47-.7l1.07.29a3.13,3.13,0,0,1-.61,1,4.52,4.52,0,0,1-.93.74,4.65,4.65,0,0,1-1.16.49A5.19,5.19,0,0,1,92.5,51.74ZM96,46.34A3.9,3.9,0,0,0,95.63,45a3.71,3.71,0,0,0-.77-1.08,3.27,3.27,0,0,0-2.36-1,3.39,3.39,0,0,0-1.31.25,3.43,3.43,0,0,0-1.08.71A3.68,3.68,0,0,0,89.37,45,4.12,4.12,0,0,0,89,46.34Z" transform="translate(7.96 -1.1)"/><path class="cls-1" d="M103.52,51.11l-.31.14-.48.18c-.19.06-.39.12-.62.17a4.21,4.21,0,0,1-.73.07,2.74,2.74,0,0,1-.76-.11,1.73,1.73,0,0,1-.63-.33,1.82,1.82,0,0,1-.44-.58,1.8,1.8,0,0,1-.16-.79V43.09H98.08v-1h1.31V38.92h1.23v3.19h2.18v1h-2.18v6.42a1,1,0,0,0,.37.77,1.31,1.31,0,0,0,.77.25,2.24,2.24,0,0,0,.93-.18,3.71,3.71,0,0,0,.51-.24Z" transform="translate(7.96 -1.1)"/><path class="cls-1" d="M117.47,41.1a3.9,3.9,0,0,0-1.45-1,5.42,5.42,0,0,0-2.07-.38,3.86,3.86,0,0,0-2.48.64,2.16,2.16,0,0,0-.78,1.75,2,2,0,0,0,.2,1,1.84,1.84,0,0,0,.65.65,4.46,4.46,0,0,0,1.11.47c.46.13,1,.27,1.61.4a16.56,16.56,0,0,1,1.86.49,5.22,5.22,0,0,1,1.4.68,2.71,2.71,0,0,1,.89,1,3,3,0,0,1,.31,1.45,3.27,3.27,0,0,1-.34,1.54,3.06,3.06,0,0,1-1,1.09,4.32,4.32,0,0,1-1.46.64,7.87,7.87,0,0,1-1.87.21,7.65,7.65,0,0,1-5.17-1.87l.63-1a5.33,5.33,0,0,0,.83.69,7.19,7.19,0,0,0,1.07.57,6.86,6.86,0,0,0,1.26.38,7.18,7.18,0,0,0,1.41.13,4.46,4.46,0,0,0,2.41-.55,2.09,2.09,0,0,0,.61-2.68,2.07,2.07,0,0,0-.73-.71,5.38,5.38,0,0,0-1.22-.52c-.48-.14-1-.29-1.68-.43s-1.27-.32-1.78-.49a4.57,4.57,0,0,1-1.29-.64,2.45,2.45,0,0,1-.79-.91,3.07,3.07,0,0,1-.26-1.32,3.5,3.5,0,0,1,.34-1.58,3,3,0,0,1,1-1.16,4.36,4.36,0,0,1,1.45-.71,6.67,6.67,0,0,1,1.85-.25,6,6,0,0,1,4.12,1.49Z" transform="translate(7.96 -1.1)"/><path class="cls-1" d="M120.7,40.14V38.32h1.23v1.82Zm0,11.42V42.11h1.23v9.45Z" transform="translate(7.96 -1.1)"/><path class="cls-1" d="M123.85,50.73,130.24,43H124v-.93h7.58V43l-6.37,7.69h6.35v.92h-7.71Z" transform="translate(7.96 -1.1)"/><path class="cls-1" d="M137.4,51.74a4.58,4.58,0,0,1-1.9-.39A4.53,4.53,0,0,1,134,50.28a4.65,4.65,0,0,1-1-1.57,5,5,0,0,1-.35-1.9,4.91,4.91,0,0,1,.35-1.88,4.76,4.76,0,0,1,1-1.54,4.67,4.67,0,0,1,1.49-1,4.57,4.57,0,0,1,1.89-.39,4.5,4.5,0,0,1,1.89.39,4.41,4.41,0,0,1,1.48,1.06,5,5,0,0,1,1.31,3.39v.29a.81.81,0,0,1,0,.2H134a4.07,4.07,0,0,0,.36,1.41,3.67,3.67,0,0,0,.77,1.11,3.35,3.35,0,0,0,1.08.74,3.27,3.27,0,0,0,1.29.26,3.18,3.18,0,0,0,.91-.13,3.61,3.61,0,0,0,.83-.34,3.05,3.05,0,0,0,.69-.54,2,2,0,0,0,.47-.7l1.07.29a3.13,3.13,0,0,1-.61,1,4.52,4.52,0,0,1-.93.74,4.65,4.65,0,0,1-1.16.49A5.19,5.19,0,0,1,137.4,51.74Zm3.48-5.4a3.9,3.9,0,0,0-.35-1.39,3.71,3.71,0,0,0-.77-1.08,3.32,3.32,0,0,0-2.36-1,3.39,3.39,0,0,0-1.31.25,3.43,3.43,0,0,0-1.08.71,3.68,3.68,0,0,0-.74,1.09,4.12,4.12,0,0,0-.34,1.38Z" transform="translate(7.96 -1.1)"/><path class="cls-1" d="M66.1,2.41h1.07l5.34,12.88H71.17l-1.67-4H63.72l-1.65,4H60.71Zm3.11,7.86L66.62,3.9,64,10.27Z" transform="translate(7.96 -1.1)"/><path class="cls-1" d="M74.17,2.05H75.4v11.1a1.08,1.08,0,0,0,.29.82,1.06,1.06,0,0,0,.81.3,2.23,2.23,0,0,0,.48,0,2.44,2.44,0,0,0,.5-.15l.22,1a3.85,3.85,0,0,1-.84.24,4.93,4.93,0,0,1-.86.09,1.86,1.86,0,0,1-1.35-.48,1.83,1.83,0,0,1-.48-1.35Z" transform="translate(7.96 -1.1)"/><path class="cls-1" d="M82.83,15.42A3.89,3.89,0,0,1,81.05,15a4.49,4.49,0,0,1-1.4-1.08,5.08,5.08,0,0,1-.92-1.54,5.25,5.25,0,0,1-.32-1.8,5.33,5.33,0,0,1,.32-1.87,4.83,4.83,0,0,1,.89-1.57A4.28,4.28,0,0,1,81,6.08a3.92,3.92,0,0,1,1.79-.4,3.58,3.58,0,0,1,2.1.61,5.68,5.68,0,0,1,1.52,1.53v-2h1.11v9.49a3.83,3.83,0,0,1-.37,1.73,3.75,3.75,0,0,1-1,1.26,4.28,4.28,0,0,1-1.47.76,6.13,6.13,0,0,1-1.78.25,5.15,5.15,0,0,1-2.63-.58,4.48,4.48,0,0,1-1.62-1.56l.76-.59a3.47,3.47,0,0,0,1.49,1.33,4.78,4.78,0,0,0,2,.42,4.31,4.31,0,0,0,1.3-.19,3.09,3.09,0,0,0,1.08-.56,2.62,2.62,0,0,0,.73-.94,3,3,0,0,0,.28-1.33V13.46a4.13,4.13,0,0,1-3.47,2Zm.35-1a2.86,2.86,0,0,0,1.07-.2,3.52,3.52,0,0,0,1-.53,4.23,4.23,0,0,0,.72-.75A2.42,2.42,0,0,0,86.3,12V9.12a4.06,4.06,0,0,0-.55-.94A3.63,3.63,0,0,0,85,7.44,3.77,3.77,0,0,0,84,7a3,3,0,0,0-1-.18,3,3,0,0,0-1.42.33A3.49,3.49,0,0,0,80.55,8a4,4,0,0,0-.66,1.23,4.51,4.51,0,0,0-.23,1.4,3.93,3.93,0,0,0,.27,1.45,3.85,3.85,0,0,0,.75,1.21,3.73,3.73,0,0,0,1.12.81A3.17,3.17,0,0,0,83.18,14.38Z" transform="translate(7.96 -1.1)"/><path class="cls-1" d="M94.28,15.47a4.5,4.5,0,0,1-1.89-.39A4.61,4.61,0,0,1,90.91,14a4.82,4.82,0,0,1-1-1.56,5.09,5.09,0,0,1-.34-1.87A5,5,0,0,1,90,8.71a4.81,4.81,0,0,1,1-1.56,4.64,4.64,0,0,1,1.48-1.07,4.57,4.57,0,0,1,3.74,0,4.58,4.58,0,0,1,1.49,1.07,4.81,4.81,0,0,1,1,1.56A5.15,5.15,0,0,1,99,10.59a5.09,5.09,0,0,1-.34,1.87,5,5,0,0,1-1,1.56,4.66,4.66,0,0,1-1.49,1.06A4.53,4.53,0,0,1,94.28,15.47Zm-3.43-4.86a4,4,0,0,0,.27,1.48,4.29,4.29,0,0,0,.73,1.2,3.42,3.42,0,0,0,1.09.8,3.17,3.17,0,0,0,2.67,0,3.65,3.65,0,0,0,1.1-.81,4.12,4.12,0,0,0,.74-4.17,4,4,0,0,0-.74-1.22,3.65,3.65,0,0,0-1.1-.81,3,3,0,0,0-1.33-.3,3,3,0,0,0-1.33.3,3.6,3.6,0,0,0-1.09.82,4.07,4.07,0,0,0-.74,1.22A4.16,4.16,0,0,0,90.85,10.61Z" transform="translate(7.96 -1.1)"/><path class="cls-1" d="M105.75,6.93a3.79,3.79,0,0,0-2.17.69,3.47,3.47,0,0,0-1.31,1.79v5.88H101V5.84h1.16V8.11a4.35,4.35,0,0,1,1.41-1.71,3.31,3.31,0,0,1,1.91-.61.79.79,0,0,1,.23,0Z" transform="translate(7.96 -1.1)"/><path class="cls-1" d="M107.4,3.86V2.05h1.24V3.86Zm0,11.43V5.84h1.24v9.45Z" transform="translate(7.96 -1.1)"/><path class="cls-1" d="M115.89,14.84l-.32.14-.48.18a5.79,5.79,0,0,1-.61.17,4.3,4.3,0,0,1-.73.07,2.74,2.74,0,0,1-.76-.11,1.72,1.72,0,0,1-.64-.34,1.65,1.65,0,0,1-.43-.57,1.81,1.81,0,0,1-.16-.8V6.82h-1.31v-1h1.31V2.65H113V5.84h2.18v1H113v6.42a1,1,0,0,0,.37.77,1.31,1.31,0,0,0,.77.25,2.27,2.27,0,0,0,.93-.18,3.39,3.39,0,0,0,.5-.24Z" transform="translate(7.96 -1.1)"/><path class="cls-1" d="M125.38,15.29h-1.24V10a4.25,4.25,0,0,0-.55-2.41A1.85,1.85,0,0,0,122,6.8a2.81,2.81,0,0,0-1,.21,4.18,4.18,0,0,0-1,.57,4.26,4.26,0,0,0-.79.85,3.58,3.58,0,0,0-.49,1.07v5.79h-1.24V2.05h1.24V8a4.35,4.35,0,0,1,1.55-1.69,4.06,4.06,0,0,1,2.16-.61,2.87,2.87,0,0,1,1.38.3,2.65,2.65,0,0,1,.93.83,3.75,3.75,0,0,1,.52,1.29,7.7,7.7,0,0,1,.17,1.66Z" transform="translate(7.96 -1.1)"/><path class="cls-1" d="M142.06,15.29h-1.24V10a4.43,4.43,0,0,0-.52-2.43,1.76,1.76,0,0,0-1.56-.78,2.78,2.78,0,0,0-1,.2,3.28,3.28,0,0,0-.88.56,3.84,3.84,0,0,0-.72.87,4,4,0,0,0-.47,1.09v5.77h-1.23V10a4.54,4.54,0,0,0-.51-2.45,1.76,1.76,0,0,0-1.56-.76,2.78,2.78,0,0,0-1.91.75,4.11,4.11,0,0,0-1.19,2v5.79H128V5.84h1.13V8a4.46,4.46,0,0,1,1.52-1.69,3.76,3.76,0,0,1,2.09-.61,2.68,2.68,0,0,1,1.91.67,2.91,2.91,0,0,1,.88,1.76,4,4,0,0,1,3.64-2.43,2.94,2.94,0,0,1,1.36.29,2.31,2.31,0,0,1,.88.82,3.73,3.73,0,0,1,.49,1.29,7.86,7.86,0,0,1,.16,1.68Z" transform="translate(7.96 -1.1)"/><rect class="cls-2" x="157.54" y="140.9" width="123.97" height="12.1"/><rect class="cls-3" x="157.54" y="140.9" width="16.12" height="12.1"/><rect class="cls-2" x="157.54" y="106.56" width="123.97" height="12.1"/><rect class="cls-3" x="157.54" y="106.56" width="61.98" height="12.1"/><rect class="cls-2" x="157.54" y="72.22" width="123.97" height="12.1"/><rect class="cls-3" x="157.54" y="72.22" width="49.59" height="12.1"/><rect class="cls-2" x="157.54" y="37.88" width="123.97" height="12.1"/><rect class="cls-3" x="157.54" y="37.88" width="12.4" height="12.1"/><path class="cls-1" d="M159.32,5.76v8.42h-.77V10.24h-4.67v3.94h-.78V5.76h.78V9.51h4.67V5.76Z" transform="translate(7.96 -1.1)"/><path class="cls-1" d="M166.51,11.4a2.9,2.9,0,0,1-.22,1.14,2.82,2.82,0,0,1-1.48,1.53,2.84,2.84,0,0,1-2.24,0,2.53,2.53,0,0,1-.9-.69,3.43,3.43,0,0,1-.58-1.11,4.83,4.83,0,0,1-.21-1.47,10.53,10.53,0,0,1,.21-2.24,5.28,5.28,0,0,1,.6-1.59A2.65,2.65,0,0,1,162.6,6a2.4,2.4,0,0,1,1.19-.31,2.49,2.49,0,0,1,1.41.42,2.55,2.55,0,0,1,.94,1.15l-.49.47a2.06,2.06,0,0,0-.73-1,1.82,1.82,0,0,0-1.13-.37,1.7,1.7,0,0,0-.89.25,2.15,2.15,0,0,0-.68.72,4,4,0,0,0-.45,1.16,7.17,7.17,0,0,0-.16,1.55A2.31,2.31,0,0,1,162.45,9a2.36,2.36,0,0,1,1.35-.41,2.52,2.52,0,0,1,1.06.22,2.61,2.61,0,0,1,.86.6,2.92,2.92,0,0,1,.79,2Zm-2.78,2.18a1.83,1.83,0,0,0,.8-.17,2.12,2.12,0,0,0,.65-.47,2.06,2.06,0,0,0,.45-.69,2.38,2.38,0,0,0,.16-.85,2.14,2.14,0,0,0-.17-.84,2.21,2.21,0,0,0-.45-.7,2.51,2.51,0,0,0-.65-.47,2,2,0,0,0-.8-.17,1.93,1.93,0,0,0-.79.17,2.11,2.11,0,0,0-1.1,1.17,2.13,2.13,0,0,0-.16.84,2,2,0,0,0,.17.84,2.21,2.21,0,0,0,.45.7,1.9,1.9,0,0,0,.65.47A1.78,1.78,0,0,0,163.73,13.58Z" transform="translate(7.96 -1.1)"/><path class="cls-1" d="M171,15.68V13.57h-3.7v-.71l3.94-5.45h.51v5.43h1v.73h-1v2.11Zm-2.9-2.84h3V8.68Z" transform="translate(7.96 -1.1)"/><rect class="cls-4" x="157.94" y="0.53" width="25.83" height="18.12"/><polyline class="cls-5" points="281.84 159.8 281.84 22.07 399.45 22.07"/><path class="cls-2" d="M281,13.81V2.07h4.86a3.1,3.1,0,0,1,1.4.32,3.83,3.83,0,0,1,1.1.84,4.14,4.14,0,0,1,.73,1.19,3.67,3.67,0,0,1,.26,1.34,4.06,4.06,0,0,1-.24,1.39,3.93,3.93,0,0,1-.7,1.19,3.47,3.47,0,0,1-1.07.82,3,3,0,0,1-1.38.32h-3.8v4.33Zm1.16-5.36h3.75a2,2,0,0,0,.94-.22,2.31,2.31,0,0,0,.72-.6,2.73,2.73,0,0,0,.46-.86,3.1,3.1,0,0,0,.17-1,3,3,0,0,0-.19-1,2.81,2.81,0,0,0-.52-.85,2.37,2.37,0,0,0-.76-.57,2.09,2.09,0,0,0-.91-.21h-3.66Z" transform="translate(7.96 -1.1)"/><path class="cls-2" d="M295.32,6.19a3.56,3.56,0,0,0-2,.62,3.21,3.21,0,0,0-1.19,1.64v5.36H291V5.19h1.05V7.26a3.89,3.89,0,0,1,1.29-1.55,3,3,0,0,1,1.74-.57l.22,0Z" transform="translate(7.96 -1.1)"/><path class="cls-2" d="M300.06,14A4.08,4.08,0,0,1,297,12.65a4.41,4.41,0,0,1-.88-1.42,4.66,4.66,0,0,1-.31-1.7A4.63,4.63,0,0,1,297,6.38a4.39,4.39,0,0,1,1.35-1,4,4,0,0,1,1.7-.37,4,4,0,0,1,1.71.37,4.32,4.32,0,0,1,1.36,1,4.63,4.63,0,0,1,1.21,3.15,4.66,4.66,0,0,1-.31,1.7,4.43,4.43,0,0,1-.89,1.42A4.08,4.08,0,0,1,300.06,14Zm-3.12-4.43a3.68,3.68,0,0,0,.24,1.35,3.76,3.76,0,0,0,.67,1.09,3.18,3.18,0,0,0,1,.74,2.92,2.92,0,0,0,1.21.26,2.82,2.82,0,0,0,1.22-.27,3.17,3.17,0,0,0,1-.75,3.68,3.68,0,0,0,.92-2.45,3.73,3.73,0,0,0-.92-2.46,3.29,3.29,0,0,0-1-.74A2.82,2.82,0,0,0,300.06,6a2.78,2.78,0,0,0-1.21.27,3.25,3.25,0,0,0-1,.75,3.61,3.61,0,0,0-.68,1.12A3.81,3.81,0,0,0,296.94,9.54Z" transform="translate(7.96 -1.1)"/><path class="cls-2" d="M304.94,16.8a3.42,3.42,0,0,1-1-.15,2.32,2.32,0,0,1-.86-.49l.55-.77a1.45,1.45,0,0,0,.58.32,2.72,2.72,0,0,0,.63.08,1.65,1.65,0,0,0,.57-.11,1.58,1.58,0,0,0,.48-.33,1.52,1.52,0,0,0,.35-.48,1.44,1.44,0,0,0,.13-.62V5.19h1.13v9a2.48,2.48,0,0,1-.22,1.06,2.52,2.52,0,0,1-.57.82,2.61,2.61,0,0,1-.81.54A2.31,2.31,0,0,1,304.94,16.8Zm1.4-13.41V1.74h1.13V3.39Z" transform="translate(7.96 -1.1)"/><path class="cls-2" d="M313.67,14a4.24,4.24,0,0,1-1.73-.35,4.15,4.15,0,0,1-1.36-1,4.53,4.53,0,0,1-.91-1.43,4.75,4.75,0,0,1-.32-1.73,4.69,4.69,0,0,1,.32-1.72,4.54,4.54,0,0,1,.9-1.4,4.29,4.29,0,0,1,1.36-1,4.31,4.31,0,0,1,3.45,0,4.23,4.23,0,0,1,1.35,1,4.58,4.58,0,0,1,.87,1.4,4.54,4.54,0,0,1,.32,1.69v.26a.78.78,0,0,1,0,.19h-7.37a3.6,3.6,0,0,0,.32,1.28,3.32,3.32,0,0,0,.7,1,3.15,3.15,0,0,0,1,.67,2.9,2.9,0,0,0,1.18.24,3.3,3.3,0,0,0,.82-.11,3,3,0,0,0,.76-.32,2.5,2.5,0,0,0,.63-.48,2.18,2.18,0,0,0,.43-.64l1,.26a2.88,2.88,0,0,1-.56.87,4,4,0,0,1-.85.68,4.49,4.49,0,0,1-1.05.45A4.83,4.83,0,0,1,313.67,14Zm3.17-4.92a3.44,3.44,0,0,0-.32-1.27,3.33,3.33,0,0,0-.69-1,3.22,3.22,0,0,0-1-.65,3.1,3.1,0,0,0-1.18-.23,3.15,3.15,0,0,0-1.19.23,3,3,0,0,0-1.66,1.64,3.49,3.49,0,0,0-.31,1.26Z" transform="translate(7.96 -1.1)"/><path class="cls-2" d="M319.06,9.48a4.69,4.69,0,0,1,.31-1.72,4.33,4.33,0,0,1,.89-1.42,4.11,4.11,0,0,1,1.36-1A4.34,4.34,0,0,1,323.37,5a4,4,0,0,1,2.14.56,3.64,3.64,0,0,1,1.37,1.49l-1.09.35a2.66,2.66,0,0,0-1-1A2.87,2.87,0,0,0,323.32,6a3,3,0,0,0-1.23.26,3.18,3.18,0,0,0-1.65,1.8,3.85,3.85,0,0,0-.24,1.38,3.7,3.7,0,0,0,.25,1.37,3.43,3.43,0,0,0,.67,1.11,3.17,3.17,0,0,0,1,.75,2.86,2.86,0,0,0,1.22.27,3.24,3.24,0,0,0,.82-.11,3.16,3.16,0,0,0,.75-.33,2.55,2.55,0,0,0,.6-.47,1.43,1.43,0,0,0,.34-.56l1.11.33a2.81,2.81,0,0,1-.53.85,3.42,3.42,0,0,1-.82.68,4.25,4.25,0,0,1-1,.45,4.6,4.6,0,0,1-1.18.15,4.33,4.33,0,0,1-1.74-.35,4.19,4.19,0,0,1-1.37-1,4.69,4.69,0,0,1-.9-1.43A4.55,4.55,0,0,1,319.06,9.48Z" transform="translate(7.96 -1.1)"/><path class="cls-2" d="M332.86,13.39a2.71,2.71,0,0,1-.29.14l-.43.16a3.92,3.92,0,0,1-.57.15,3.51,3.51,0,0,1-.66.07,2.61,2.61,0,0,1-.69-.1,1.62,1.62,0,0,1-.58-.31,1.48,1.48,0,0,1-.4-.52,1.67,1.67,0,0,1-.15-.73V6.09H327.9v-.9h1.19V2.28h1.13V5.19h2v.9h-2v5.85a.87.87,0,0,0,.34.7,1.15,1.15,0,0,0,.7.23,2.17,2.17,0,0,0,.84-.16,3.36,3.36,0,0,0,.47-.23Z" transform="translate(7.96 -1.1)"/><path class="cls-2" d="M338.72,13.81V2.07h5a3.09,3.09,0,0,1,1.39.32,3.83,3.83,0,0,1,1.1.84,3.91,3.91,0,0,1,.72,1.19,3.67,3.67,0,0,1,.26,1.34,3.93,3.93,0,0,1-.72,2.29,3.42,3.42,0,0,1-.82.79,3.07,3.07,0,0,1-1.07.44l2.87,4.53h-1.3l-2.76-4.33h-3.48v4.33Zm1.15-5.36h3.84a1.93,1.93,0,0,0,.93-.22,2.21,2.21,0,0,0,.72-.61,2.87,2.87,0,0,0,.47-.86,3,3,0,0,0,.16-1,2.68,2.68,0,0,0-.19-1,2.87,2.87,0,0,0-.51-.85,2.37,2.37,0,0,0-.76-.58,2.11,2.11,0,0,0-.92-.22h-3.74Z" transform="translate(7.96 -1.1)"/><path class="cls-2" d="M352.75,14a4.12,4.12,0,0,1-3.09-1.33,4.69,4.69,0,0,1-.9-1.43,4.75,4.75,0,0,1-.32-1.73,4.69,4.69,0,0,1,.32-1.72,4.52,4.52,0,0,1,.89-1.4,4.34,4.34,0,0,1,1.37-1,4.17,4.17,0,0,1,4.79,1,4.43,4.43,0,0,1,.88,1.4A4.53,4.53,0,0,1,357,9.46v.26a.92.92,0,0,1,0,.19h-7.38a3.61,3.61,0,0,0,.33,1.28,3.32,3.32,0,0,0,.7,1,3,3,0,0,0,1,.67,2.93,2.93,0,0,0,1.18.24,3.38,3.38,0,0,0,.83-.11,3,3,0,0,0,.76-.32,2.92,2.92,0,0,0,.63-.48,2.18,2.18,0,0,0,.43-.64l1,.26a2.88,2.88,0,0,1-.56.87,3.74,3.74,0,0,1-.84.68,4.39,4.39,0,0,1-1.06.45A4.83,4.83,0,0,1,352.75,14Zm3.18-4.92a3.44,3.44,0,0,0-.32-1.27,3.55,3.55,0,0,0-.7-1,3.06,3.06,0,0,0-1-.65,3.15,3.15,0,0,0-1.19-.23,3.23,3.23,0,0,0-1.19.23,3.11,3.11,0,0,0-1,.65,3.06,3.06,0,0,0-.68,1,3.7,3.7,0,0,0-.3,1.26Z" transform="translate(7.96 -1.1)"/><path class="cls-2" d="M360.91,14a3.25,3.25,0,0,1-1.14-.2,3,3,0,0,1-.91-.57,2.57,2.57,0,0,1-.6-.86,2.6,2.6,0,0,1-.22-1.05,2.1,2.1,0,0,1,.27-1,2.51,2.51,0,0,1,.74-.82,3.54,3.54,0,0,1,1.14-.54,5.16,5.16,0,0,1,1.46-.19,8.75,8.75,0,0,1,1.34.11,6.43,6.43,0,0,1,1.21.33V8.37a2.49,2.49,0,0,0-.65-1.81,2.35,2.35,0,0,0-1.79-.67,3.89,3.89,0,0,0-1.35.26,7,7,0,0,0-1.41.76l-.39-.74A5.81,5.81,0,0,1,361.85,5a3.48,3.48,0,0,1,2.54.91,3.37,3.37,0,0,1,.93,2.52v3.88c0,.31.14.47.41.47v1a3,3,0,0,1-.43,0,1,1,0,0,1-.67-.22.79.79,0,0,1-.25-.59l0-.68a3.86,3.86,0,0,1-1.49,1.19A4.53,4.53,0,0,1,360.91,14Zm.26-.86a3.9,3.9,0,0,0,1.61-.33,2.7,2.7,0,0,0,1.12-.87,1,1,0,0,0,.22-.33.79.79,0,0,0,.08-.32V9.86A6,6,0,0,0,363,9.53a6.26,6.26,0,0,0-1.23-.12,3.45,3.45,0,0,0-1.94.5,1.51,1.51,0,0,0-.74,1.3,1.74,1.74,0,0,0,.16.75,1.7,1.7,0,0,0,.43.6,1.87,1.87,0,0,0,.65.4A2.16,2.16,0,0,0,361.17,13.11Z" transform="translate(7.96 -1.1)"/><path class="cls-2" d="M367.15,9.48a4.69,4.69,0,0,1,.32-1.72,4.3,4.3,0,0,1,.88-1.42,4.16,4.16,0,0,1,1.37-1A4.34,4.34,0,0,1,371.47,5a4,4,0,0,1,2.13.56A3.51,3.51,0,0,1,375,7.09l-1.09.35a2.63,2.63,0,0,0-1-1A2.87,2.87,0,0,0,371.42,6a3,3,0,0,0-1.23.26,3.23,3.23,0,0,0-1,.72,3.46,3.46,0,0,0-.67,1.08,4.08,4.08,0,0,0-.23,1.38,3.91,3.91,0,0,0,.24,1.37,3.45,3.45,0,0,0,.68,1.11,3.17,3.17,0,0,0,1,.75,2.82,2.82,0,0,0,1.22.27,3.3,3.3,0,0,0,.82-.11,3.16,3.16,0,0,0,.75-.33,2.31,2.31,0,0,0,.59-.47,1.46,1.46,0,0,0,.35-.56l1.11.33a2.81,2.81,0,0,1-.53.85,3.62,3.62,0,0,1-.82.68,4.25,4.25,0,0,1-1,.45,4.66,4.66,0,0,1-1.18.15,4.33,4.33,0,0,1-1.74-.35,4.09,4.09,0,0,1-1.37-1,4.34,4.34,0,0,1-.9-1.43A4.55,4.55,0,0,1,367.15,9.48Z" transform="translate(7.96 -1.1)"/><path class="cls-2" d="M384.07,13.81h-1.13V9a3.85,3.85,0,0,0-.5-2.2A1.68,1.68,0,0,0,381,6.07a2.44,2.44,0,0,0-.95.19,3.58,3.58,0,0,0-.88.52,3.34,3.34,0,0,0-.72.78,3.2,3.2,0,0,0-.46,1v5.28h-1.12V1.74H378v5.4a3.88,3.88,0,0,1,1.42-1.53,3.67,3.67,0,0,1,2-.57,2.67,2.67,0,0,1,1.26.28,2.27,2.27,0,0,1,.84.76,3.27,3.27,0,0,1,.48,1.17,7.09,7.09,0,0,1,.15,1.51Z" transform="translate(7.96 -1.1)"/><path class="cls-3" d="M290.77,149.61a2.92,2.92,0,0,1-.33,1.4,3.51,3.51,0,0,1-.89,1.07,4.13,4.13,0,0,1-1.32.68,5.17,5.17,0,0,1-1.58.24,4.75,4.75,0,0,1-1.62-.27,4.13,4.13,0,0,1-1.28-.74,3.27,3.27,0,0,1-.83-1.1,3.09,3.09,0,0,1-.3-1.34,2.71,2.71,0,0,1,.2-1,3.29,3.29,0,0,1,.54-.86,3.85,3.85,0,0,1,.75-.64,4.26,4.26,0,0,1,.86-.42,3.87,3.87,0,0,1-.75-.41,3.2,3.2,0,0,1-.61-.55,2.37,2.37,0,0,1-.42-.7,2,2,0,0,1-.16-.81,2.46,2.46,0,0,1,.33-1.28,3.15,3.15,0,0,1,.85-.93,3.71,3.71,0,0,1,1.18-.58,4.53,4.53,0,0,1,1.31-.2,4.65,4.65,0,0,1,1.32.2,4,4,0,0,1,1.17.57,3,3,0,0,1,.85.93,2.49,2.49,0,0,1,.33,1.28,2.24,2.24,0,0,1-.15.81,2.81,2.81,0,0,1-.43.7,3.33,3.33,0,0,1-.63.56,4.56,4.56,0,0,1-.75.41,4,4,0,0,1,.9.45,4.1,4.1,0,0,1,.76.67,3.37,3.37,0,0,1,.51.86A2.75,2.75,0,0,1,290.77,149.61Zm-1.14-.08a2,2,0,0,0-.27-1.05,2.41,2.41,0,0,0-.69-.77,3.32,3.32,0,0,0-1-.48,3.46,3.46,0,0,0-1-.16,3.41,3.41,0,0,0-1.06.17,3.21,3.21,0,0,0-.93.5,2.5,2.5,0,0,0-.66.78,2.2,2.2,0,0,0-.24,1,2,2,0,0,0,.26,1,2.54,2.54,0,0,0,.69.77,3.09,3.09,0,0,0,.94.48,3.49,3.49,0,0,0,1.05.17,3.22,3.22,0,0,0,1-.18,3,3,0,0,0,.93-.49,2.62,2.62,0,0,0,.67-.78A2.06,2.06,0,0,0,289.63,149.53Zm-5.47-5.36a1.51,1.51,0,0,0,.23.85,2.09,2.09,0,0,0,.59.63,2.82,2.82,0,0,0,.82.39,3.11,3.11,0,0,0,1.78,0,3,3,0,0,0,.82-.39,2.32,2.32,0,0,0,.6-.65,1.65,1.65,0,0,0,.23-.86,1.63,1.63,0,0,0-.21-.83,2.15,2.15,0,0,0-.57-.63,2.7,2.7,0,0,0-.82-.39,3.42,3.42,0,0,0-1-.13,3,3,0,0,0-.94.14,2.59,2.59,0,0,0-.8.39,2.14,2.14,0,0,0-.56.64A1.72,1.72,0,0,0,284.16,144.17Z" transform="translate(7.96 -1.1)"/><path class="cls-2" d="M301.12,141.13l-7.8,11.74H292l7.81-11.74Z" transform="translate(7.96 -1.1)"/><path class="cls-2" d="M310.54,149a3.82,3.82,0,0,1-.32,1.58,4,4,0,0,1-.88,1.28,4.12,4.12,0,0,1-1.33.86,4.19,4.19,0,0,1-1.63.32,4.35,4.35,0,0,1-1.71-.34,3.87,3.87,0,0,1-1.33-1,4.47,4.47,0,0,1-.87-1.55,6.54,6.54,0,0,1-.31-2.05,14.31,14.31,0,0,1,.31-3.12,7.1,7.1,0,0,1,.89-2.22,3.77,3.77,0,0,1,1.36-1.31,3.62,3.62,0,0,1,1.77-.43,3.81,3.81,0,0,1,2.1.58,3.66,3.66,0,0,1,1.41,1.6l-.73.66a2.87,2.87,0,0,0-1.09-1.34,2.93,2.93,0,0,0-1.69-.51,2.61,2.61,0,0,0-1.32.35,3,3,0,0,0-1,1,5.31,5.31,0,0,0-.66,1.61,9,9,0,0,0-.24,2.17,3.14,3.14,0,0,1,1.25-1.56,3.64,3.64,0,0,1,2-.58,4.16,4.16,0,0,1,1.58.31,3.85,3.85,0,0,1,1.28.84,4,4,0,0,1,.86,1.27A3.83,3.83,0,0,1,310.54,149Zm-4.13,3a3.11,3.11,0,0,0,2.16-.89,3,3,0,0,0,.66-1,2.93,2.93,0,0,0,.24-1.18,2.78,2.78,0,0,0-.25-1.18,3.12,3.12,0,0,0-.67-1,3.24,3.24,0,0,0-1-.65,3,3,0,0,0-1.19-.24,2.93,2.93,0,0,0-1.18.24,3.24,3.24,0,0,0-1,.65,3,3,0,0,0-.67,1,3,3,0,0,0,0,2.36,3.38,3.38,0,0,0,.67,1,3,3,0,0,0,1,.66A2.93,2.93,0,0,0,306.41,152Z" transform="translate(7.96 -1.1)"/><path class="cls-2" d="M316.94,149a2.75,2.75,0,0,1,1.75,1,3.12,3.12,0,0,1,.65,2,3.42,3.42,0,0,1-.27,1.37,2.89,2.89,0,0,1-.78,1,3.49,3.49,0,0,1-1.21.68,4.82,4.82,0,0,1-1.56.24,4.67,4.67,0,0,1-2.2-.5,3.37,3.37,0,0,1-1.42-1.4l.78-.71a2.73,2.73,0,0,0,1.05,1.16,3.49,3.49,0,0,0,1.79.43,2.87,2.87,0,0,0,2-.61,2.1,2.1,0,0,0,.71-1.72,2.31,2.31,0,0,0-.74-1.81,3.14,3.14,0,0,0-2.15-.66h-.41v-1h.44a2.89,2.89,0,0,0,1.95-.58,1.93,1.93,0,0,0,.68-1.53,2,2,0,0,0-.18-.88,1.77,1.77,0,0,0-.51-.64,2,2,0,0,0-.76-.38,3.21,3.21,0,0,0-.95-.14,3.25,3.25,0,0,0-1.66.42,2.66,2.66,0,0,0-1.08,1.17l-.73-.69a2.66,2.66,0,0,1,.56-.79,3.52,3.52,0,0,1,.83-.6,4.08,4.08,0,0,1,1-.39,4.78,4.78,0,0,1,2.55.07,3.55,3.55,0,0,1,1.1.61,2.62,2.62,0,0,1,.72.93,2.82,2.82,0,0,1,.25,1.21,3,3,0,0,1-.14.95,2.86,2.86,0,0,1-.43.81,2.46,2.46,0,0,1-.69.59A2.33,2.33,0,0,1,316.94,149Z" transform="translate(7.96 -1.1)"/><path class="cls-2" d="M332.8,152.87h-1.13v-4.81a3.87,3.87,0,0,0-.5-2.2,1.7,1.7,0,0,0-1.48-.73,2.64,2.64,0,0,0-.95.19,3.64,3.64,0,0,0-.89.52,3.84,3.84,0,0,0-.72.78,3.37,3.37,0,0,0-.45,1v5.27h-1.12V140.8h1.12v5.41a3.91,3.91,0,0,1,1.42-1.54,3.72,3.72,0,0,1,2-.56,2.7,2.7,0,0,1,1.26.27,2.36,2.36,0,0,1,.84.76,3.4,3.4,0,0,1,.48,1.18,7,7,0,0,1,.15,1.51Z" transform="translate(7.96 -1.1)"/><path class="cls-2" d="M338.87,153a4,4,0,0,1-1.72-.36,4.23,4.23,0,0,1-1.35-1,4.33,4.33,0,0,1-.89-1.42,4.88,4.88,0,0,1-.31-1.7,4.69,4.69,0,0,1,.32-1.72,4.64,4.64,0,0,1,.9-1.42,4.22,4.22,0,0,1,1.34-1,4,4,0,0,1,1.71-.36,4.1,4.1,0,0,1,1.71.36,4.26,4.26,0,0,1,1.35,1,4.64,4.64,0,0,1,.9,1.42,4.73,4.73,0,0,1,0,3.42,4.3,4.3,0,0,1-.88,1.42,4.17,4.17,0,0,1-1.36,1A4.08,4.08,0,0,1,338.87,153Zm-3.13-4.43a3.62,3.62,0,0,0,.92,2.43,3,3,0,0,0,1,.74,2.82,2.82,0,0,0,1.22.26,2.78,2.78,0,0,0,1.21-.27,3.18,3.18,0,0,0,1-.74,3.63,3.63,0,0,0,.68-1.1,3.58,3.58,0,0,0,.25-1.36,3.63,3.63,0,0,0-.25-1.35,3.52,3.52,0,0,0-.68-1.1,3.06,3.06,0,0,0-1-.75,2.78,2.78,0,0,0-1.21-.27,2.75,2.75,0,0,0-1.21.27,3.17,3.17,0,0,0-1,.75,3.54,3.54,0,0,0-.68,1.12A3.66,3.66,0,0,0,335.74,148.61Z" transform="translate(7.96 -1.1)"/><path class="cls-2" d="M347.73,153a2.4,2.4,0,0,1-2.09-.94,4.65,4.65,0,0,1-.69-2.78v-5.06h1.12v4.86c0,1.95.67,2.92,2,2.92a3,3,0,0,0,1-.16,3.07,3.07,0,0,0,.89-.48,3.89,3.89,0,0,0,.72-.74,3.67,3.67,0,0,0,.52-1v-5.42h1.13v7.16c0,.3.13.46.39.46v1l-.32,0h-.17a.89.89,0,0,1-.65-.28,1,1,0,0,1-.24-.71v-1a4.13,4.13,0,0,1-3.59,2.12Z" transform="translate(7.96 -1.1)"/><path class="cls-2" d="M359.15,145.25a3.48,3.48,0,0,0-2,.63,3.14,3.14,0,0,0-1.19,1.63v5.36h-1.13v-8.61h1.06v2.06a3.89,3.89,0,0,1,1.29-1.55,3,3,0,0,1,1.74-.56h.21Z" transform="translate(7.96 -1.1)"/><path class="cls-2" d="M363.52,153a6,6,0,0,1-2-.33,4.81,4.81,0,0,1-1.65-1l.51-.76a5.77,5.77,0,0,0,1.48.89,4.31,4.31,0,0,0,1.61.3,2.82,2.82,0,0,0,1.66-.43,1.34,1.34,0,0,0,.62-1.19,1,1,0,0,0-.16-.61,1.37,1.37,0,0,0-.49-.42,3.5,3.5,0,0,0-.81-.32c-.32-.1-.7-.19-1.13-.29s-.93-.24-1.29-.36a3.79,3.79,0,0,1-.9-.42,1.38,1.38,0,0,1-.53-.57,1.78,1.78,0,0,1-.18-.85,2.46,2.46,0,0,1,.26-1.14,2.38,2.38,0,0,1,.69-.82,3.38,3.38,0,0,1,1-.49,4.6,4.6,0,0,1,1.25-.16,4.93,4.93,0,0,1,1.8.32,3.54,3.54,0,0,1,1.31.85l-.55.66a3,3,0,0,0-1.16-.74,4.1,4.1,0,0,0-1.43-.25,3.58,3.58,0,0,0-.83.09,1.94,1.94,0,0,0-.67.29,1.41,1.41,0,0,0-.46.51,1.47,1.47,0,0,0-.16.72,1.3,1.3,0,0,0,.11.56,1.12,1.12,0,0,0,.38.37,3.3,3.3,0,0,0,.67.28c.27.08.6.17,1,.26.55.13,1,.26,1.45.39a4.7,4.7,0,0,1,1,.47,1.78,1.78,0,0,1,.64.64,1.88,1.88,0,0,1,.21.93,2.25,2.25,0,0,1-.9,1.88A4,4,0,0,1,363.52,153Z" transform="translate(7.96 -1.1)"/><path class="cls-3" d="M291,114a4,4,0,0,1-2.53,3.72,4.24,4.24,0,0,1-1.64.32,4.34,4.34,0,0,1-1.7-.34,3.78,3.78,0,0,1-1.33-1,4.52,4.52,0,0,1-.87-1.54,6.36,6.36,0,0,1-.31-2.06,13.72,13.72,0,0,1,.31-3.12,7.1,7.1,0,0,1,.89-2.22,3.77,3.77,0,0,1,1.36-1.31A3.62,3.62,0,0,1,287,106a3.86,3.86,0,0,1,2.1.58,3.64,3.64,0,0,1,1.4,1.6l-.72.66A3,3,0,0,0,287,107a2.55,2.55,0,0,0-1.32.35,3,3,0,0,0-1,1A5.31,5.31,0,0,0,284,110a9,9,0,0,0-.24,2.17A3.14,3.14,0,0,1,285,110.6a3.64,3.64,0,0,1,2-.58,4.2,4.2,0,0,1,1.58.31,4.12,4.12,0,0,1,1.28.84,4,4,0,0,1,.86,1.27A3.83,3.83,0,0,1,291,114ZM286.87,117a2.93,2.93,0,0,0,1.18-.24,3.09,3.09,0,0,0,1-.66,2.92,2.92,0,0,0,.67-1,3,3,0,0,0,.24-1.19,2.94,2.94,0,0,0-.25-1.18,3.11,3.11,0,0,0-1.65-1.62,3,3,0,0,0-2.36,0,3.29,3.29,0,0,0-1,.65,3.09,3.09,0,0,0-.66,1,2.93,2.93,0,0,0-.24,1.18,2.78,2.78,0,0,0,.25,1.18,3.2,3.2,0,0,0,.67,1,3.07,3.07,0,0,0,1,.67A3,3,0,0,0,286.87,117Z" transform="translate(7.96 -1.1)"/><path class="cls-3" d="M297.61,120V117h-5.5v-1l5.87-7.61h.76V116h1.45v1h-1.45V120Zm-4.31-4h4.43v-5.8Z" transform="translate(7.96 -1.1)"/><path class="cls-2" d="M310.28,106.12l-7.81,11.74H301.2L309,106.12Z" transform="translate(7.96 -1.1)"/><path class="cls-2" d="M317.17,116.84v1h-5.6v-1h2.35v-7.08a1.77,1.77,0,0,1-.46.43,5.34,5.34,0,0,1-.71.43,6.13,6.13,0,0,1-.8.33,2.4,2.4,0,0,1-.73.13V110a2.07,2.07,0,0,0,.84-.21,6.65,6.65,0,0,0,.86-.5,7.39,7.39,0,0,0,.68-.53,1.43,1.43,0,0,0,.32-.33h1.15v8.42Z" transform="translate(7.96 -1.1)"/><path class="cls-2" d="M318.26,117.86a7.3,7.3,0,0,1,.1-1.13,4.1,4.1,0,0,1,.39-1.13,4.32,4.32,0,0,1,.83-1.09,6.24,6.24,0,0,1,1.43-1c.32-.16.65-.33,1-.49a6.3,6.3,0,0,0,1-.54,2.9,2.9,0,0,0,.72-.67A1.41,1.41,0,0,0,324,111a1.51,1.51,0,0,0-.14-.62,1.69,1.69,0,0,0-.41-.55,2.24,2.24,0,0,0-.68-.39,2.75,2.75,0,0,0-.95-.15,3,3,0,0,0-1,.16,3.74,3.74,0,0,0-.75.37,3.82,3.82,0,0,0-.56.46,4.19,4.19,0,0,0-.34.39l-.75-.81.38-.37a4.92,4.92,0,0,1,.74-.53,6.34,6.34,0,0,1,1.07-.47,4.16,4.16,0,0,1,1.37-.2,4,4,0,0,1,1.35.2,3,3,0,0,1,1,.57,2.41,2.41,0,0,1,.63.84,2.38,2.38,0,0,1,.22,1,2.28,2.28,0,0,1-.3,1.18,3.36,3.36,0,0,1-.74.85,4.71,4.71,0,0,1-.93.62c-.33.18-.63.32-.89.44s-.7.33-1,.52a6.87,6.87,0,0,0-.9.64,3.22,3.22,0,0,0-.65.78,1.82,1.82,0,0,0-.26,1h5.89v1Z" transform="translate(7.96 -1.1)"/><path class="cls-2" d="M335.13,114.6a2.92,2.92,0,0,1-.33,1.4,3.4,3.4,0,0,1-.89,1.07,4.13,4.13,0,0,1-1.32.68A5.17,5.17,0,0,1,331,118a4.75,4.75,0,0,1-1.62-.27,4.13,4.13,0,0,1-1.28-.74,3.27,3.27,0,0,1-.83-1.1,3.09,3.09,0,0,1-.3-1.34,2.54,2.54,0,0,1,.21-1,2.84,2.84,0,0,1,.53-.85,3.58,3.58,0,0,1,.75-.65,4.26,4.26,0,0,1,.86-.42,3.87,3.87,0,0,1-.75-.41,3.2,3.2,0,0,1-.61-.55,2.46,2.46,0,0,1-.42-.69,2.07,2.07,0,0,1-.16-.82,2.46,2.46,0,0,1,.33-1.28,3.15,3.15,0,0,1,.85-.93,3.94,3.94,0,0,1,1.18-.58,4.53,4.53,0,0,1,1.31-.2,4.65,4.65,0,0,1,1.32.2,4,4,0,0,1,1.17.57,3,3,0,0,1,.85.94,2.45,2.45,0,0,1,.33,1.27,2.16,2.16,0,0,1-.15.81,2.81,2.81,0,0,1-.43.7,3.33,3.33,0,0,1-.63.56,4.56,4.56,0,0,1-.75.41,4,4,0,0,1,.9.45,4.1,4.1,0,0,1,.76.67,3.37,3.37,0,0,1,.51.86A2.75,2.75,0,0,1,335.13,114.6Zm-1.14-.08a2.05,2.05,0,0,0-.27-1,2.41,2.41,0,0,0-.69-.77,3.32,3.32,0,0,0-1-.48,3.42,3.42,0,0,0-2.1,0,3.21,3.21,0,0,0-.93.5,2.5,2.5,0,0,0-.66.78,2.2,2.2,0,0,0-.24,1,2,2,0,0,0,.26,1,2.55,2.55,0,0,0,.69.77,3.09,3.09,0,0,0,.94.48,3.49,3.49,0,0,0,1.05.17,3.22,3.22,0,0,0,1.05-.18,3,3,0,0,0,.93-.49,2.62,2.62,0,0,0,.67-.78A2,2,0,0,0,334,114.52Zm-5.47-5.36a1.56,1.56,0,0,0,.23.86,2.35,2.35,0,0,0,.59.63,2.67,2.67,0,0,0,.82.38,2.9,2.9,0,0,0,1.78,0,2.69,2.69,0,0,0,.82-.39,2.07,2.07,0,0,0,.6-.65,1.73,1.73,0,0,0,0-1.69,2.15,2.15,0,0,0-.57-.63,2.7,2.7,0,0,0-.82-.39,3.42,3.42,0,0,0-1-.13,2.91,2.91,0,0,0-.93.14,2.36,2.36,0,0,0-.81.4,2,2,0,0,0-.56.63A1.74,1.74,0,0,0,328.52,109.16Z" transform="translate(7.96 -1.1)"/><path class="cls-2" d="M345.81,118a3.42,3.42,0,0,1-1.93-.56,4.44,4.44,0,0,1-1.34-1.39v5.3h-1.13V109.25h1v1.67a4.22,4.22,0,0,1,1.37-1.32,3.72,3.72,0,0,1,3.48-.13,4.27,4.27,0,0,1,1.28,1,4.7,4.7,0,0,1,.86,1.43,4.78,4.78,0,0,1,.3,1.67,5.13,5.13,0,0,1-.28,1.72,4.29,4.29,0,0,1-.8,1.42,3.77,3.77,0,0,1-1.24,1A3.49,3.49,0,0,1,345.81,118Zm-.31-1a2.66,2.66,0,0,0,1.26-.3,3.13,3.13,0,0,0,1-.79,3.54,3.54,0,0,0,.62-1.11,4,4,0,0,0,.21-1.28,3.48,3.48,0,0,0-.25-1.32,3.66,3.66,0,0,0-.67-1.11,3.32,3.32,0,0,0-1-.76,2.85,2.85,0,0,0-1.27-.28,2.79,2.79,0,0,0-.9.17,3.66,3.66,0,0,0-.87.47,3,3,0,0,0-.7.68,1.76,1.76,0,0,0-.35.81v2.65a4.11,4.11,0,0,0,.5.86,3.81,3.81,0,0,0,.7.69,3.17,3.17,0,0,0,.83.45A2.69,2.69,0,0,0,345.5,117Z" transform="translate(7.96 -1.1)"/><path class="cls-2" d="M351.46,109.25l2.58,3.37.14.25.13-.25,2.58-3.37h1.2l-3.29,4.33,3.29,4.28h-1.2l-2.58-3.35-.13-.24-.14.24-2.58,3.35h-1.2l3.29-4.28-3.29-4.33Z" transform="translate(7.96 -1.1)"/><path class="cls-3" d="M282.62,49.22a6.24,6.24,0,0,1,.1-1.13,3.54,3.54,0,0,1,.39-1.13,4.05,4.05,0,0,1,.82-1.09,6.47,6.47,0,0,1,1.43-1l1-.49a7.26,7.26,0,0,0,1-.53,3.32,3.32,0,0,0,.72-.67,1.39,1.39,0,0,0,.28-.87,1.51,1.51,0,0,0-.14-.62,1.56,1.56,0,0,0-.41-.55,2.13,2.13,0,0,0-.68-.39,2.75,2.75,0,0,0-.95-.14,3,3,0,0,0-1,.15,4.37,4.37,0,0,0-.75.37,3.71,3.71,0,0,0-.55.46,4.61,4.61,0,0,0-.35.39l-.74-.81c.06-.07.19-.19.38-.37a4.33,4.33,0,0,1,.73-.53,6.72,6.72,0,0,1,1.07-.47,4.48,4.48,0,0,1,1.37-.2,4.37,4.37,0,0,1,1.36.2,3.2,3.2,0,0,1,1,.57,2.62,2.62,0,0,1,.62.84,2.39,2.39,0,0,1-.08,2.16,3.55,3.55,0,0,1-.73.86,5.65,5.65,0,0,1-.94.62c-.33.17-.63.31-.89.43a10,10,0,0,0-1,.53,5.62,5.62,0,0,0-.91.63,3.22,3.22,0,0,0-.65.78,1.87,1.87,0,0,0-.26,1h5.89v1Z" transform="translate(7.96 -1.1)"/><path class="cls-3" d="M299.71,44.38a6.14,6.14,0,0,1-.31,2,4.92,4.92,0,0,1-.87,1.58A4,4,0,0,1,297.22,49a3.89,3.89,0,0,1-3.31,0A3.9,3.9,0,0,1,292.6,48a4.92,4.92,0,0,1-.87-1.58,6.47,6.47,0,0,1,0-4,5.08,5.08,0,0,1,.87-1.59,4.16,4.16,0,0,1,1.31-1.05,3.79,3.79,0,0,1,3.31,0,4.28,4.28,0,0,1,1.31,1.05,5.08,5.08,0,0,1,.87,1.59A6.14,6.14,0,0,1,299.71,44.38Zm-1.14,0a5.43,5.43,0,0,0-.22-1.62,4.06,4.06,0,0,0-.62-1.25,2.73,2.73,0,0,0-1-.81,2.73,2.73,0,0,0-2.45,0,2.82,2.82,0,0,0-.95.81,4.06,4.06,0,0,0-.62,1.25,5.43,5.43,0,0,0-.22,1.62,5.52,5.52,0,0,0,.22,1.62,4.18,4.18,0,0,0,.62,1.25,2.9,2.9,0,0,0,.95.8,2.82,2.82,0,0,0,2.45,0,2.81,2.81,0,0,0,1-.8,4.18,4.18,0,0,0,.62-1.25A5.52,5.52,0,0,0,298.57,44.38Z" transform="translate(7.96 -1.1)"/><path class="cls-3" d="M309.83,44.38a6.14,6.14,0,0,1-.31,2,4.92,4.92,0,0,1-.87,1.58A4,4,0,0,1,307.34,49,3.79,3.79,0,0,1,302.72,48a4.92,4.92,0,0,1-.87-1.58,6.47,6.47,0,0,1,0-4,5.08,5.08,0,0,1,.87-1.59A4.05,4.05,0,0,1,304,39.73a3.79,3.79,0,0,1,3.31,0,4.28,4.28,0,0,1,1.31,1.05,5.08,5.08,0,0,1,.87,1.59A6.14,6.14,0,0,1,309.83,44.38Zm-1.14,0a5.43,5.43,0,0,0-.22-1.62,4.06,4.06,0,0,0-.62-1.25,2.82,2.82,0,0,0-1-.81,2.73,2.73,0,0,0-2.45,0,2.73,2.73,0,0,0-.95.81,4.06,4.06,0,0,0-.62,1.25,5.43,5.43,0,0,0-.22,1.62,5.52,5.52,0,0,0,.22,1.62,4.18,4.18,0,0,0,.62,1.25,2.81,2.81,0,0,0,.95.8,2.82,2.82,0,0,0,2.45,0,2.9,2.9,0,0,0,1-.8,4.18,4.18,0,0,0,.62-1.25A5.52,5.52,0,0,0,308.69,44.38Z" transform="translate(7.96 -1.1)"/><path class="cls-2" d="M320.27,37.48l-7.81,11.74h-1.27L319,37.48Z" transform="translate(7.96 -1.1)"/><path class="cls-2" d="M321.09,49.22a7.3,7.3,0,0,1,.1-1.13,4,4,0,0,1,1.22-2.22,6.24,6.24,0,0,1,1.43-1c.32-.16.65-.33,1-.49a8.8,8.8,0,0,0,1-.53,3.32,3.32,0,0,0,.72-.67,1.46,1.46,0,0,0,.28-.87,1.51,1.51,0,0,0-.14-.62,1.72,1.72,0,0,0-.42-.55,2.13,2.13,0,0,0-.68-.39,2.72,2.72,0,0,0-.95-.14,2.91,2.91,0,0,0-1,.15,3.74,3.74,0,0,0-.75.37,3.82,3.82,0,0,0-.56.46A4.19,4.19,0,0,0,322,42l-.75-.81.38-.37a4.45,4.45,0,0,1,.74-.53,6.59,6.59,0,0,1,1.06-.47,4.55,4.55,0,0,1,1.38-.2,4.31,4.31,0,0,1,1.35.2,3.09,3.09,0,0,1,1,.57,2.51,2.51,0,0,1,.63.84,2.37,2.37,0,0,1,.21,1,2.32,2.32,0,0,1-.29,1.18,3.59,3.59,0,0,1-.74.86,5.19,5.19,0,0,1-.93.62c-.33.17-.63.31-.9.43a11.15,11.15,0,0,0-1,.53,5.13,5.13,0,0,0-.9.63,3,3,0,0,0-.65.78,1.78,1.78,0,0,0-.26,1h5.89v1Z" transform="translate(7.96 -1.1)"/><path class="cls-2" d="M338.19,44.38a6.14,6.14,0,0,1-.32,2A4.72,4.72,0,0,1,337,48,3.94,3.94,0,0,1,335.69,49a3.83,3.83,0,0,1-1.65.37,3.77,3.77,0,0,1-1.65-.37A3.94,3.94,0,0,1,331.07,48a4.92,4.92,0,0,1-.87-1.58,6.67,6.67,0,0,1,0-4,5.08,5.08,0,0,1,.87-1.59,4.2,4.2,0,0,1,1.32-1.05,3.64,3.64,0,0,1,1.65-.38,3.7,3.7,0,0,1,1.65.38A4.2,4.2,0,0,1,337,40.78a4.87,4.87,0,0,1,.86,1.59A6.14,6.14,0,0,1,338.19,44.38Zm-1.14,0a5.77,5.77,0,0,0-.22-1.62,3.86,3.86,0,0,0-.63-1.25,2.73,2.73,0,0,0-.95-.81,2.6,2.6,0,0,0-1.21-.29,2.66,2.66,0,0,0-1.23.29,2.73,2.73,0,0,0-.95.81,3.85,3.85,0,0,0-.62,1.25,5.42,5.42,0,0,0-.23,1.62,5.51,5.51,0,0,0,.23,1.62,4,4,0,0,0,.62,1.25,2.81,2.81,0,0,0,.95.8,2.65,2.65,0,0,0,1.23.28,2.6,2.6,0,0,0,1.21-.28,2.81,2.81,0,0,0,.95-.8,4,4,0,0,0,.63-1.25A5.88,5.88,0,0,0,337.05,44.38Z" transform="translate(7.96 -1.1)"/><path class="cls-2" d="M348.31,44.38a6.14,6.14,0,0,1-.32,2,5.1,5.1,0,0,1-.86,1.58A3.94,3.94,0,0,1,345.81,49a3.89,3.89,0,0,1-3.31,0A4,4,0,0,1,341.19,48a4.92,4.92,0,0,1-.87-1.58,6.67,6.67,0,0,1,0-4,5.08,5.08,0,0,1,.87-1.59,4.28,4.28,0,0,1,1.31-1.05,3.79,3.79,0,0,1,3.31,0,4.2,4.2,0,0,1,1.32,1.05,5.27,5.27,0,0,1,.86,1.59A6.14,6.14,0,0,1,348.31,44.38Zm-1.14,0a5.42,5.42,0,0,0-.23-1.62,3.85,3.85,0,0,0-.62-1.25,2.73,2.73,0,0,0-.95-.81,2.6,2.6,0,0,0-1.21-.29,2.66,2.66,0,0,0-1.23.29,2.85,2.85,0,0,0-1,.81,4.06,4.06,0,0,0-.62,1.25,5.77,5.77,0,0,0-.22,1.62,5.88,5.88,0,0,0,.22,1.62,4.18,4.18,0,0,0,.62,1.25,2.94,2.94,0,0,0,1,.8,2.65,2.65,0,0,0,1.23.28,2.6,2.6,0,0,0,1.21-.28,2.81,2.81,0,0,0,.95-.8,4,4,0,0,0,.62-1.25A5.51,5.51,0,0,0,347.17,44.38Z" transform="translate(7.96 -1.1)"/><path class="cls-2" d="M358.43,44.38a6.14,6.14,0,0,1-.32,2,4.92,4.92,0,0,1-.87,1.58A3.9,3.9,0,0,1,355.93,49a3.89,3.89,0,0,1-3.31,0A4,4,0,0,1,351.31,48a4.92,4.92,0,0,1-.87-1.58,6.67,6.67,0,0,1,0-4,5.08,5.08,0,0,1,.87-1.59,4.28,4.28,0,0,1,1.31-1.05,3.79,3.79,0,0,1,3.31,0,4.16,4.16,0,0,1,1.31,1.05,5.08,5.08,0,0,1,.87,1.59A6.14,6.14,0,0,1,358.43,44.38Zm-1.14,0a5.42,5.42,0,0,0-.23-1.62,3.85,3.85,0,0,0-.62-1.25,2.73,2.73,0,0,0-.95-.81,2.6,2.6,0,0,0-1.21-.29,2.67,2.67,0,0,0-1.24.29,2.82,2.82,0,0,0-1,.81,4.06,4.06,0,0,0-.62,1.25,5.43,5.43,0,0,0-.22,1.62,5.52,5.52,0,0,0,.22,1.62,4.18,4.18,0,0,0,.62,1.25,2.9,2.9,0,0,0,1,.8,2.66,2.66,0,0,0,1.24.28,2.6,2.6,0,0,0,1.21-.28,2.81,2.81,0,0,0,.95-.8,4,4,0,0,0,.62-1.25A5.51,5.51,0,0,0,357.29,44.38Z" transform="translate(7.96 -1.1)"/><path class="cls-2" d="M364.79,38.81V37.15h1.13v1.66Zm0,10.41V40.61h1.13v8.61Z" transform="translate(7.96 -1.1)"/><path class="cls-2" d="M381.21,49.22h-1.12V44.41a4,4,0,0,0-.48-2.21,1.6,1.6,0,0,0-1.43-.71,2.41,2.41,0,0,0-.93.18,2.9,2.9,0,0,0-.81.51,3.16,3.16,0,0,0-.65.79,3.6,3.6,0,0,0-.43,1v5.25h-1.13V44.41a4.12,4.12,0,0,0-.46-2.23,1.59,1.59,0,0,0-1.42-.69,2.55,2.55,0,0,0-1.74.67A3.79,3.79,0,0,0,369.52,44v5.27H368.4V40.61h1v2A4.11,4.11,0,0,1,370.81,41a3.43,3.43,0,0,1,1.9-.55,2.46,2.46,0,0,1,1.75.61,2.69,2.69,0,0,1,.8,1.61,3.67,3.67,0,0,1,3.32-2.22,2.67,2.67,0,0,1,1.23.26,2,2,0,0,1,.81.76,3.25,3.25,0,0,1,.45,1.17,8,8,0,0,1,.14,1.53Z" transform="translate(7.96 -1.1)"/><path class="cls-2" d="M385.76,49.39a3,3,0,0,1-2.05-.78,2.55,2.55,0,0,1-.81-1.9,2.09,2.09,0,0,1,.26-1,2.66,2.66,0,0,1,.74-.83,3.71,3.71,0,0,1,1.15-.54,5.47,5.47,0,0,1,1.45-.19,7.67,7.67,0,0,1,1.34.12,6.43,6.43,0,0,1,1.21.33v-.78A2.51,2.51,0,0,0,388.4,42a2.37,2.37,0,0,0-1.78-.67,3.74,3.74,0,0,0-1.36.27,6.24,6.24,0,0,0-1.4.76l-.4-.75a5.79,5.79,0,0,1,3.24-1.12,3.48,3.48,0,0,1,2.55.91,3.38,3.38,0,0,1,.92,2.51v3.89c0,.31.14.46.41.46v1a2,2,0,0,1-.43.05,1,1,0,0,1-.66-.21.82.82,0,0,1-.26-.6l0-.68A3.88,3.88,0,0,1,387.7,49,4.54,4.54,0,0,1,385.76,49.39Zm.26-.86a3.86,3.86,0,0,0,1.61-.33,2.58,2.58,0,0,0,1.12-.88A1,1,0,0,0,389,47a.83.83,0,0,0,.08-.32V45.27a7.81,7.81,0,0,0-1.17-.33,6.26,6.26,0,0,0-1.23-.12,3.47,3.47,0,0,0-1.94.5,1.52,1.52,0,0,0-.74,1.31,1.7,1.7,0,0,0,.16.74,1.84,1.84,0,0,0,.43.6,1.89,1.89,0,0,0,.65.41A2.16,2.16,0,0,0,386,48.53Z" transform="translate(7.96 -1.1)"/><path class="cls-2" d="M396.06,49.34a3.65,3.65,0,0,1-1.63-.37,4.11,4.11,0,0,1-1.27-1,4.39,4.39,0,0,1-.84-1.4,4.62,4.62,0,0,1-.3-1.64,5.16,5.16,0,0,1,.29-1.71,4.57,4.57,0,0,1,.82-1.43,4.08,4.08,0,0,1,1.27-1,3.63,3.63,0,0,1,1.62-.36,3.31,3.31,0,0,1,1.92.55,5.29,5.29,0,0,1,1.39,1.4v-1.8h1v8.65a3.5,3.5,0,0,1-.34,1.58,3.4,3.4,0,0,1-.91,1.14,4,4,0,0,1-1.34.7,5.73,5.73,0,0,1-1.63.23,4.73,4.73,0,0,1-2.39-.53A4.28,4.28,0,0,1,392.25,51l.7-.55a3.11,3.11,0,0,0,1.35,1.22,4.31,4.31,0,0,0,1.82.39,3.85,3.85,0,0,0,1.19-.18,2.74,2.74,0,0,0,1-.51,2.41,2.41,0,0,0,.67-.86,2.87,2.87,0,0,0,.25-1.21V47.55a3.75,3.75,0,0,1-3.16,1.79Zm.31-.94a2.59,2.59,0,0,0,1-.19,3.34,3.34,0,0,0,.87-.48,3.84,3.84,0,0,0,.65-.69,2.26,2.26,0,0,0,.35-.78V43.6a3.71,3.71,0,0,0-.5-.86,3.8,3.8,0,0,0-.71-.68,4,4,0,0,0-.85-.44,2.72,2.72,0,0,0-.92-.17,2.63,2.63,0,0,0-1.3.31,3.13,3.13,0,0,0-1,.8,3.78,3.78,0,0,0-.6,1.12,4,4,0,0,0-.21,1.28,3.68,3.68,0,0,0,.25,1.32,3.54,3.54,0,0,0,.69,1.1,3.26,3.26,0,0,0,1,.74A2.76,2.76,0,0,0,396.37,48.4Z" transform="translate(7.96 -1.1)"/><path class="cls-2" d="M406.54,49.39a4.18,4.18,0,0,1-3.09-1.33,4.44,4.44,0,0,1-.9-1.43,4.57,4.57,0,0,1-.33-1.74,4.45,4.45,0,0,1,.33-1.71,4.5,4.5,0,0,1,.89-1.41,4.3,4.3,0,0,1,4.81-1,4.2,4.2,0,0,1,1.35,1,4.44,4.44,0,0,1,.87,1.41,4.52,4.52,0,0,1,.32,1.68v.27a.62.62,0,0,1,0,.18H403.4a3.6,3.6,0,0,0,.32,1.28,3.69,3.69,0,0,0,.7,1,3.15,3.15,0,0,0,1,.67,2.93,2.93,0,0,0,1.18.24,3,3,0,0,0,.83-.12,3.19,3.19,0,0,0,.76-.31,2.68,2.68,0,0,0,.62-.49,1.81,1.81,0,0,0,.43-.64l1,.27a2.88,2.88,0,0,1-.56.87,4.1,4.1,0,0,1-.85.68,3.94,3.94,0,0,1-1.05.44A4.42,4.42,0,0,1,406.54,49.39Zm3.17-4.93a3.44,3.44,0,0,0-.32-1.26,3.51,3.51,0,0,0-.69-1,3.08,3.08,0,0,0-1-.64,2.92,2.92,0,0,0-1.18-.23,3.09,3.09,0,0,0-2.17.87,3.12,3.12,0,0,0-.68,1,4,4,0,0,0-.31,1.26Z" transform="translate(7.96 -1.1)"/><path class="cls-2" d="M415.39,49.39a6,6,0,0,1-2-.33,4.79,4.79,0,0,1-1.66-1l.52-.76a5.5,5.5,0,0,0,1.48.89,4.31,4.31,0,0,0,1.61.3,2.92,2.92,0,0,0,1.66-.42,1.37,1.37,0,0,0,.62-1.2,1,1,0,0,0-.16-.6,1.61,1.61,0,0,0-.49-.43,3.9,3.9,0,0,0-.81-.32l-1.13-.29q-.75-.18-1.29-.36a3.68,3.68,0,0,1-.91-.42,1.42,1.42,0,0,1-.52-.57,1.78,1.78,0,0,1-.18-.85,2.46,2.46,0,0,1,.26-1.14,2.38,2.38,0,0,1,.69-.82,3.26,3.26,0,0,1,1-.48,4.55,4.55,0,0,1,1.25-.17,4.93,4.93,0,0,1,1.8.32,3.63,3.63,0,0,1,1.3.85l-.54.67a3,3,0,0,0-1.17-.75,4.26,4.26,0,0,0-1.43-.25,3.55,3.55,0,0,0-.82.09,1.94,1.94,0,0,0-.67.29,1.4,1.4,0,0,0-.46.51,1.47,1.47,0,0,0-.16.72,1.14,1.14,0,0,0,.11.56,1,1,0,0,0,.38.37,2.81,2.81,0,0,0,.67.28c.27.08.6.17,1,.26.55.13,1,.26,1.45.4a4.29,4.29,0,0,1,1.05.46,1.87,1.87,0,0,1,.64.64,1.94,1.94,0,0,1,.21.93,2.23,2.23,0,0,1-.91,1.88A3.87,3.87,0,0,1,415.39,49.39Z" transform="translate(7.96 -1.1)"/><path class="cls-3" d="M288.57,84.3v1H283v-1h2.34V77.22a1.87,1.87,0,0,1-.45.43,5,5,0,0,1-.71.43,6.13,6.13,0,0,1-.8.33,2.44,2.44,0,0,1-.73.14v-1.1a2,2,0,0,0,.83-.21,5.22,5.22,0,0,0,.86-.5,6.17,6.17,0,0,0,.69-.53,1.12,1.12,0,0,0,.31-.33h1.16V84.3Z" transform="translate(7.96 -1.1)"/><path class="cls-3" d="M298.14,80.48a6.14,6.14,0,0,1-.31,2,5.08,5.08,0,0,1-.87,1.59,4.1,4.1,0,0,1-1.31,1,3.89,3.89,0,0,1-3.31,0,3.9,3.9,0,0,1-1.31-1,5.08,5.08,0,0,1-.87-1.59,6.47,6.47,0,0,1,0-4,5.08,5.08,0,0,1,.87-1.59,4.05,4.05,0,0,1,1.31-1,3.79,3.79,0,0,1,3.31,0,4.28,4.28,0,0,1,1.31,1,5.08,5.08,0,0,1,.87,1.59A6.14,6.14,0,0,1,298.14,80.48Zm-1.14,0a5.43,5.43,0,0,0-.22-1.62,4.06,4.06,0,0,0-.62-1.25,2.82,2.82,0,0,0-1-.81,2.73,2.73,0,0,0-2.45,0,2.82,2.82,0,0,0-.95.81,4.06,4.06,0,0,0-.62,1.25,6.07,6.07,0,0,0,0,3.24,4.18,4.18,0,0,0,.62,1.25,2.79,2.79,0,0,0,.95.8,2.82,2.82,0,0,0,2.45,0,2.79,2.79,0,0,0,1-.8,4.18,4.18,0,0,0,.62-1.25A5.47,5.47,0,0,0,297,80.48Z" transform="translate(7.96 -1.1)"/><path class="cls-3" d="M308.3,81.45A3.79,3.79,0,0,1,308,83a4.11,4.11,0,0,1-.88,1.29,4.16,4.16,0,0,1-1.32.85,4.28,4.28,0,0,1-1.64.32,4.1,4.1,0,0,1-1.7-.34,3.82,3.82,0,0,1-1.34-1,4.67,4.67,0,0,1-.86-1.54,6.32,6.32,0,0,1-.32-2.06,13.68,13.68,0,0,1,.32-3.12,7,7,0,0,1,.88-2.21,3.82,3.82,0,0,1,1.37-1.32,3.56,3.56,0,0,1,1.76-.43,3.81,3.81,0,0,1,2.1.58,3.72,3.72,0,0,1,1.41,1.6l-.73.67A2.85,2.85,0,0,0,305.93,75a2.91,2.91,0,0,0-1.69-.51,2.61,2.61,0,0,0-1.32.35,3,3,0,0,0-1,1,5.17,5.17,0,0,0-.67,1.61,9,9,0,0,0-.24,2.17,3.19,3.19,0,0,1,1.25-1.56,3.63,3.63,0,0,1,2-.57,4.15,4.15,0,0,1,1.58.3,4,4,0,0,1,1.28.85A3.81,3.81,0,0,1,308,79.9,3.87,3.87,0,0,1,308.3,81.45Zm-4.14,3a2.93,2.93,0,0,0,1.18-.24,3.13,3.13,0,0,0,1-.66,2.94,2.94,0,0,0,.66-1,3,3,0,0,0,.24-1.19,2.81,2.81,0,0,0-.25-1.18,3,3,0,0,0-.67-1,3.09,3.09,0,0,0-1-.66,3,3,0,0,0-2.37,0,3.09,3.09,0,0,0-1,.66,3,3,0,0,0-.9,2.14,2.9,2.9,0,0,0,.24,1.18,3.43,3.43,0,0,0,.67,1,3.25,3.25,0,0,0,1,.66A2.93,2.93,0,0,0,304.16,84.5Z" transform="translate(7.96 -1.1)"/><path class="cls-3" d="M318.23,80.48a6.14,6.14,0,0,1-.31,2,5.08,5.08,0,0,1-.87,1.59,4.1,4.1,0,0,1-1.31,1,3.89,3.89,0,0,1-3.31,0,4,4,0,0,1-1.32-1,5.06,5.06,0,0,1-.86-1.59,6.47,6.47,0,0,1,0-4,5.06,5.06,0,0,1,.86-1.59,4.2,4.2,0,0,1,1.32-1,3.79,3.79,0,0,1,3.31,0,4.28,4.28,0,0,1,1.31,1,5.08,5.08,0,0,1,.87,1.59A6.14,6.14,0,0,1,318.23,80.48Zm-1.14,0a5.43,5.43,0,0,0-.22-1.62,4.06,4.06,0,0,0-.62-1.25,2.82,2.82,0,0,0-.95-.81,2.73,2.73,0,0,0-2.45,0,2.73,2.73,0,0,0-1,.81,4.06,4.06,0,0,0-.62,1.25,6.07,6.07,0,0,0,0,3.24,4.18,4.18,0,0,0,.62,1.25,2.7,2.7,0,0,0,1,.8,2.82,2.82,0,0,0,2.45,0,2.79,2.79,0,0,0,.95-.8,4.18,4.18,0,0,0,.62-1.25A5.47,5.47,0,0,0,317.09,80.48Z" transform="translate(7.96 -1.1)"/><path class="cls-3" d="M328.35,80.48a6.14,6.14,0,0,1-.31,2,5.08,5.08,0,0,1-.87,1.59,4,4,0,0,1-1.32,1,3.86,3.86,0,0,1-3.3,0,4,4,0,0,1-1.32-1,5.08,5.08,0,0,1-.87-1.59,6.67,6.67,0,0,1,0-4,5.08,5.08,0,0,1,.87-1.59,4.2,4.2,0,0,1,1.32-1,3.77,3.77,0,0,1,3.3,0,4.2,4.2,0,0,1,1.32,1,5.08,5.08,0,0,1,.87,1.59A6.14,6.14,0,0,1,328.35,80.48Zm-1.14,0a5.43,5.43,0,0,0-.22-1.62,4.06,4.06,0,0,0-.62-1.25,2.82,2.82,0,0,0-.95-.81,2.73,2.73,0,0,0-2.45,0,2.73,2.73,0,0,0-1,.81,3.85,3.85,0,0,0-.62,1.25,6.07,6.07,0,0,0,0,3.24,4,4,0,0,0,.62,1.25,2.7,2.7,0,0,0,1,.8,2.82,2.82,0,0,0,2.45,0,2.79,2.79,0,0,0,.95-.8A4.18,4.18,0,0,0,327,82.1,5.47,5.47,0,0,0,327.21,80.48Z" transform="translate(7.96 -1.1)"/><path class="cls-3" d="M338.47,80.48a6.14,6.14,0,0,1-.31,2,5.08,5.08,0,0,1-.87,1.59,4,4,0,0,1-1.32,1,3.86,3.86,0,0,1-3.3,0,4,4,0,0,1-1.32-1,5.08,5.08,0,0,1-.87-1.59,6.67,6.67,0,0,1,0-4,5.08,5.08,0,0,1,.87-1.59,4.2,4.2,0,0,1,1.32-1,3.77,3.77,0,0,1,3.3,0,4.2,4.2,0,0,1,1.32,1,5.08,5.08,0,0,1,.87,1.59A6.14,6.14,0,0,1,338.47,80.48Zm-1.14,0a5.77,5.77,0,0,0-.22-1.62,4.06,4.06,0,0,0-.62-1.25,2.92,2.92,0,0,0-.95-.81,2.73,2.73,0,0,0-2.45,0,2.73,2.73,0,0,0-.95.81,3.85,3.85,0,0,0-.62,1.25,5.82,5.82,0,0,0,0,3.24,4,4,0,0,0,.62,1.25,2.7,2.7,0,0,0,.95.8,2.82,2.82,0,0,0,2.45,0,2.88,2.88,0,0,0,.95-.8,4.18,4.18,0,0,0,.62-1.25A5.82,5.82,0,0,0,337.33,80.48Z" transform="translate(7.96 -1.1)"/><path class="cls-2" d="M348.9,73.58l-7.8,11.74h-1.27l7.8-11.74Z" transform="translate(7.96 -1.1)"/><path class="cls-2" d="M349.73,85.32a6.24,6.24,0,0,1,.1-1.13,3.54,3.54,0,0,1,.39-1.13A4.07,4.07,0,0,1,351,82a6.16,6.16,0,0,1,1.43-1l1-.49a7.26,7.26,0,0,0,1-.53,2.74,2.74,0,0,0,.72-.67,1.39,1.39,0,0,0,.28-.87,1.37,1.37,0,0,0-.14-.62,1.65,1.65,0,0,0-.41-.55,1.94,1.94,0,0,0-.68-.38,2.71,2.71,0,0,0-.95-.15,2.91,2.91,0,0,0-1,.15,3.59,3.59,0,0,0-.76.38,3.15,3.15,0,0,0-.55.45c-.15.16-.27.29-.35.39l-.74-.81c.06-.07.19-.19.38-.37a4.18,4.18,0,0,1,.73-.52,5.92,5.92,0,0,1,1.07-.48,4.53,4.53,0,0,1,1.37-.2,4.37,4.37,0,0,1,1.36.2,2.94,2.94,0,0,1,1,.58,2.65,2.65,0,0,1,.63.83,2.37,2.37,0,0,1,.21,1,2.23,2.23,0,0,1-.3,1.18,3.55,3.55,0,0,1-.73.86,5.27,5.27,0,0,1-.94.62l-.89.44a8.28,8.28,0,0,0-1,.52,5.13,5.13,0,0,0-.9.63,3,3,0,0,0-.66.78,1.86,1.86,0,0,0-.25,1h5.88v1Z" transform="translate(7.96 -1.1)"/><path class="cls-2" d="M366.86,81.45a4,4,0,0,1-.32,1.58,4.13,4.13,0,0,1-.89,1.29,4,4,0,0,1-1.32.85,4.24,4.24,0,0,1-1.64.32,4.16,4.16,0,0,1-1.7-.34,3.78,3.78,0,0,1-1.33-1,4.52,4.52,0,0,1-.87-1.54,6.32,6.32,0,0,1-.31-2.06,13.72,13.72,0,0,1,.31-3.12,6.8,6.8,0,0,1,.89-2.21A3.8,3.8,0,0,1,361,73.93a3.62,3.62,0,0,1,1.77-.43,3.86,3.86,0,0,1,2.1.58,3.69,3.69,0,0,1,1.4,1.6l-.72.67A3,3,0,0,0,364.5,75a2.93,2.93,0,0,0-1.69-.51,2.55,2.55,0,0,0-1.32.35,3,3,0,0,0-1,1,5.42,5.42,0,0,0-.66,1.61,9,9,0,0,0-.24,2.17,3.14,3.14,0,0,1,1.25-1.56,3.62,3.62,0,0,1,2-.57,4.12,4.12,0,0,1,1.58.3,4.19,4.19,0,0,1,1.29.85,4,4,0,0,1,.86,1.26A4,4,0,0,1,366.86,81.45Zm-4.13,3a3,3,0,0,0,1.18-.24,3.09,3.09,0,0,0,1-.66,2.94,2.94,0,0,0,.66-1,3,3,0,0,0,0-2.37,3.21,3.21,0,0,0-1.65-1.62,3,3,0,0,0-2.36,0,3.13,3.13,0,0,0-1,.66,3,3,0,0,0-.9,2.14,2.75,2.75,0,0,0,.25,1.18,3.24,3.24,0,0,0,.67,1,3.09,3.09,0,0,0,1,.66A3,3,0,0,0,362.73,84.5Z" transform="translate(7.96 -1.1)"/><path class="cls-2" d="M376.56,82.07a2.91,2.91,0,0,1-.33,1.39,3.27,3.27,0,0,1-.89,1.07,4,4,0,0,1-1.31.69,5.22,5.22,0,0,1-1.58.24,4.45,4.45,0,0,1-1.62-.28,3.91,3.91,0,0,1-1.28-.74,3.33,3.33,0,0,1-.84-1.1,3.09,3.09,0,0,1-.3-1.34,2.58,2.58,0,0,1,.21-1,3.24,3.24,0,0,1,.54-.85,3.58,3.58,0,0,1,.75-.65,4,4,0,0,1,.85-.42,4.06,4.06,0,0,1-.74-.4,3,3,0,0,1-.61-.56,2.75,2.75,0,0,1-.43-.69,2.24,2.24,0,0,1-.15-.81,2.44,2.44,0,0,1,.33-1.28,3.18,3.18,0,0,1,.85-.94,4.26,4.26,0,0,1,1.17-.58,4.65,4.65,0,0,1,1.32-.2,4.53,4.53,0,0,1,1.31.2,4.45,4.45,0,0,1,1.18.57,3.07,3.07,0,0,1,.85.94,2.45,2.45,0,0,1,.33,1.27,2.17,2.17,0,0,1-.16.81,2.54,2.54,0,0,1-.43.7,2.85,2.85,0,0,1-.63.57,4.15,4.15,0,0,1-.75.4,3.71,3.71,0,0,1,.91.46,3.42,3.42,0,0,1,.75.66,2.93,2.93,0,0,1,.51.87A2.71,2.71,0,0,1,376.56,82.07ZM375.42,82a2,2,0,0,0-.26-1,2.57,2.57,0,0,0-.7-.77,3.37,3.37,0,0,0-.95-.47,3.54,3.54,0,0,0-1.05-.17,3.39,3.39,0,0,0-1,.17,3.33,3.33,0,0,0-.93.5,2.29,2.29,0,0,0-.66.79,2.19,2.19,0,0,0,0,2,2.55,2.55,0,0,0,.69.77,3.21,3.21,0,0,0,.94.48,3.49,3.49,0,0,0,1.05.17,3.43,3.43,0,0,0,2-.67,2.78,2.78,0,0,0,.67-.78A2,2,0,0,0,375.42,82ZM370,76.63a1.61,1.61,0,0,0,.23.85,2.12,2.12,0,0,0,.6.63,2.7,2.7,0,0,0,.82.39,3.41,3.41,0,0,0,.88.13,3.36,3.36,0,0,0,.89-.13,2.72,2.72,0,0,0,.82-.4,2.22,2.22,0,0,0,.61-.65,1.65,1.65,0,0,0,.23-.86,1.69,1.69,0,0,0-.22-.83,1.91,1.91,0,0,0-.57-.63,2.7,2.7,0,0,0-.82-.39,3.42,3.42,0,0,0-1-.13,3.22,3.22,0,0,0-.93.14,2.61,2.61,0,0,0-.8.4,2,2,0,0,0-.56.63A1.66,1.66,0,0,0,370,76.63Z" transform="translate(7.96 -1.1)"/><path class="cls-2" d="M386.6,80.48a6.14,6.14,0,0,1-.31,2,5.08,5.08,0,0,1-.87,1.59,4,4,0,0,1-1.32,1,3.86,3.86,0,0,1-3.3,0,4,4,0,0,1-1.32-1,5.08,5.08,0,0,1-.87-1.59,6.67,6.67,0,0,1,0-4,5.08,5.08,0,0,1,.87-1.59,4.2,4.2,0,0,1,1.32-1,3.77,3.77,0,0,1,3.3,0,4.2,4.2,0,0,1,1.32,1,5.08,5.08,0,0,1,.87,1.59A6.14,6.14,0,0,1,386.6,80.48Zm-1.14,0a5.43,5.43,0,0,0-.22-1.62,4.06,4.06,0,0,0-.62-1.25,2.82,2.82,0,0,0-.95-.81,2.73,2.73,0,0,0-2.45,0,2.73,2.73,0,0,0-1,.81,3.85,3.85,0,0,0-.62,1.25,5.82,5.82,0,0,0,0,3.24,4,4,0,0,0,.62,1.25,2.7,2.7,0,0,0,1,.8,2.82,2.82,0,0,0,2.45,0,2.79,2.79,0,0,0,.95-.8,4.18,4.18,0,0,0,.62-1.25A5.47,5.47,0,0,0,385.46,80.48Z" transform="translate(7.96 -1.1)"/><path class="cls-2" d="M396.72,80.48a6.14,6.14,0,0,1-.32,2,4.87,4.87,0,0,1-.86,1.59,4,4,0,0,1-1.32,1,3.86,3.86,0,0,1-3.3,0,4,4,0,0,1-1.32-1,5.08,5.08,0,0,1-.87-1.59,6.67,6.67,0,0,1,0-4,5.08,5.08,0,0,1,.87-1.59,4.2,4.2,0,0,1,1.32-1,3.77,3.77,0,0,1,3.3,0,4.2,4.2,0,0,1,1.32,1,4.87,4.87,0,0,1,.86,1.59A6.14,6.14,0,0,1,396.72,80.48Zm-1.14,0a5.77,5.77,0,0,0-.22-1.62,4.06,4.06,0,0,0-.62-1.25,2.85,2.85,0,0,0-1-.81,2.57,2.57,0,0,0-1.21-.29,2.66,2.66,0,0,0-1.23.29,2.73,2.73,0,0,0-.95.81,3.85,3.85,0,0,0-.62,1.25,5.82,5.82,0,0,0,0,3.24,4,4,0,0,0,.62,1.25,2.7,2.7,0,0,0,.95.8,2.65,2.65,0,0,0,1.23.28,2.57,2.57,0,0,0,1.21-.28,2.82,2.82,0,0,0,1-.8,4.18,4.18,0,0,0,.62-1.25A5.82,5.82,0,0,0,395.58,80.48Z" transform="translate(7.96 -1.1)"/><path class="cls-2" d="M406.84,80.48a6.14,6.14,0,0,1-.32,2,5.27,5.27,0,0,1-.86,1.59,4,4,0,0,1-1.32,1,3.89,3.89,0,0,1-3.31,0,4.1,4.1,0,0,1-1.31-1,5.08,5.08,0,0,1-.87-1.59,6.67,6.67,0,0,1,0-4,5.08,5.08,0,0,1,.87-1.59,4.28,4.28,0,0,1,1.31-1,3.79,3.79,0,0,1,3.31,0,4.2,4.2,0,0,1,1.32,1,5.27,5.27,0,0,1,.86,1.59A6.14,6.14,0,0,1,406.84,80.48Zm-1.14,0a5.42,5.42,0,0,0-.23-1.62,3.66,3.66,0,0,0-.62-1.25,2.73,2.73,0,0,0-1-.81,2.6,2.6,0,0,0-1.21-.29,2.66,2.66,0,0,0-1.23.29,2.73,2.73,0,0,0-.95.81,3.66,3.66,0,0,0-.62,1.25,5.82,5.82,0,0,0,0,3.24,3.75,3.75,0,0,0,.62,1.25,2.7,2.7,0,0,0,.95.8,2.65,2.65,0,0,0,1.23.28,2.6,2.6,0,0,0,1.21-.28,2.7,2.7,0,0,0,1-.8,3.75,3.75,0,0,0,.62-1.25A5.46,5.46,0,0,0,405.7,80.48Z" transform="translate(7.96 -1.1)"/><path class="cls-2" d="M417.34,84.91l-.29.13-.44.17-.56.15a3.52,3.52,0,0,1-.66.06,2.28,2.28,0,0,1-.7-.1,1.53,1.53,0,0,1-.58-.3,1.58,1.58,0,0,1-.39-.52,1.67,1.67,0,0,1-.15-.73V77.6h-1.19v-.89h1.19V73.8h1.12v2.91h2v.89h-2v5.86a.9.9,0,0,0,.34.7,1.14,1.14,0,0,0,.7.22,2.08,2.08,0,0,0,.85-.16A2.87,2.87,0,0,0,417,84Z" transform="translate(7.96 -1.1)"/><path class="cls-2" d="M418.74,74.91V73.25h1.13v1.66Zm0,10.41V76.71h1.13v8.61Z" transform="translate(7.96 -1.1)"/><path class="cls-2" d="M435.16,85.32H434V80.51a4,4,0,0,0-.48-2.21,1.6,1.6,0,0,0-1.43-.71,2.41,2.41,0,0,0-.93.18,2.9,2.9,0,0,0-.81.51,3.16,3.16,0,0,0-.65.79,3.6,3.6,0,0,0-.43,1v5.25h-1.13V80.51a4.12,4.12,0,0,0-.46-2.23,1.59,1.59,0,0,0-1.42-.69,2.55,2.55,0,0,0-1.74.67,3.87,3.87,0,0,0-1.09,1.79v5.27h-1.12V76.71h1v2a4.11,4.11,0,0,1,1.39-1.55,3.51,3.51,0,0,1,1.9-.55,2.46,2.46,0,0,1,1.75.61,2.69,2.69,0,0,1,.8,1.61,3.67,3.67,0,0,1,3.32-2.22,2.54,2.54,0,0,1,1.23.27,2,2,0,0,1,.81.75,3.25,3.25,0,0,1,.45,1.17,8,8,0,0,1,.14,1.53Z" transform="translate(7.96 -1.1)"/><path class="cls-2" d="M441.26,85.49a4.12,4.12,0,0,1-1.73-.36,4.23,4.23,0,0,1-1.36-1,4.44,4.44,0,0,1-.9-1.43A4.56,4.56,0,0,1,437,81a4.45,4.45,0,0,1,.32-1.71,4.34,4.34,0,0,1,.89-1.4,4.27,4.27,0,0,1,3.08-1.32,4.09,4.09,0,0,1,1.73.36,4,4,0,0,1,1.35,1,4.66,4.66,0,0,1,.88,1.41,4.53,4.53,0,0,1,.31,1.69v.26a.62.62,0,0,1,0,.18h-7.37a3.6,3.6,0,0,0,.32,1.28,3.69,3.69,0,0,0,.7,1,3.15,3.15,0,0,0,1,.67,2.93,2.93,0,0,0,1.18.24,3,3,0,0,0,.83-.12,3.19,3.19,0,0,0,.76-.31,3,3,0,0,0,.63-.49,2.2,2.2,0,0,0,.43-.63l1,.26a2.88,2.88,0,0,1-.56.87,4,4,0,0,1-.84.68,4.16,4.16,0,0,1-1.06.44A4.42,4.42,0,0,1,441.26,85.49Zm3.18-4.93a3.45,3.45,0,0,0-.33-1.26,3.51,3.51,0,0,0-.69-1,3.08,3.08,0,0,0-1-.64,2.92,2.92,0,0,0-1.18-.23,3,3,0,0,0-1.19.23,3.08,3.08,0,0,0-1,.64,3.22,3.22,0,0,0-.68,1,3.89,3.89,0,0,0-.31,1.25Z" transform="translate(7.96 -1.1)"/><path class="cls-2" d="M450.11,85.49a6,6,0,0,1-2-.33,4.66,4.66,0,0,1-1.65-1l.51-.76a5.5,5.5,0,0,0,1.48.89,4.31,4.31,0,0,0,1.61.3,2.89,2.89,0,0,0,1.66-.42,1.35,1.35,0,0,0,.62-1.2,1,1,0,0,0-.16-.6,1.61,1.61,0,0,0-.49-.43,4.55,4.55,0,0,0-.81-.32c-.33-.09-.7-.19-1.13-.29s-.93-.24-1.29-.36a3.81,3.81,0,0,1-.9-.41,1.46,1.46,0,0,1-.53-.58,1.78,1.78,0,0,1-.18-.85,2.46,2.46,0,0,1,.26-1.14,2.38,2.38,0,0,1,.69-.82,3.37,3.37,0,0,1,1-.48,4.6,4.6,0,0,1,1.25-.17,4.93,4.93,0,0,1,1.8.32,3.67,3.67,0,0,1,1.31.85l-.55.67a3,3,0,0,0-1.17-.75,4.26,4.26,0,0,0-1.43-.25,3.07,3.07,0,0,0-.82.1,1.93,1.93,0,0,0-.67.28,1.4,1.4,0,0,0-.46.51A1.47,1.47,0,0,0,448,79a1.27,1.27,0,0,0,.11.56,1,1,0,0,0,.38.37,2.81,2.81,0,0,0,.67.28c.27.09.6.17,1,.26.55.13,1,.26,1.45.4a4.29,4.29,0,0,1,1.05.46,1.86,1.86,0,0,1,.64.64,1.94,1.94,0,0,1,.21.93,2.23,2.23,0,0,1-.91,1.88A3.87,3.87,0,0,1,450.11,85.49Z" transform="translate(7.96 -1.1)"/></svg>