<?xml version="1.0" encoding="utf-8"?>
<!-- Generator: Adobe Illustrator 23.1.0, SVG Export Plug-In . SVG Version: 6.00 Build 0)  -->
<svg version="1.1" id="Livello_1" xmlns="http://www.w3.org/2000/svg" xmlns:xlink="http://www.w3.org/1999/xlink" x="0px" y="0px"
	 viewBox="0 0 294 339" style="enable-background:new 0 0 294 339;" xml:space="preserve">
<style type="text/css">
	.st0{fill:#FFFFFF;}
</style>
<title>Logo_DensityDesign</title>
<desc>Created with Sketch.</desc>
<g id="Page-1">
	<g id="Logo_DensityDesign">
		<rect id="Rectangle" x="245.9" y="35.4" class="st0" width="47.2" height="7.7"/>
		<polygon id="Path" class="st0" points="89.6,85.4 89.6,0 117.3,0 117.3,12.3 102.9,12.3 102.9,35.7 112.5,35.7 112.5,47.3 
			102.9,47.3 102.9,72.7 117.3,72.7 117.3,85.4 		"/>
		<polygon class="st0" points="199.4,85.4 184.9,42.2 180.8,28.5 180.8,85.4 172.1,85.4 172.1,0 180.5,0 193.7,43.8 197.5,57.7 
			197.5,0 206.2,0 206.2,85.4 		"/>
		<polygon class="st0" points="96.2,213.1 96.2,127.8 109.4,127.8 109.4,213.1 		"/>
		<path class="st0" d="M25.6,337.1l-1.4-4.5c-1.8,3.8-5.5,5.8-9.4,5.8c-9,0-14.7-6.5-14.7-16.8v-54.4c0-9.2,7.1-16.8,16.5-16.8
			c9.5,0,16,7.6,16,16.8V283H20.3v-16.3c0-2.1-1.2-3.5-3.5-3.5c-2.2,0-3.6,1.4-3.6,3.5v56c0,2.2,1.4,3.7,3.6,3.7
			c2.3,0,3.6-1.5,3.6-3.7v-17.4h-3.3v-10.3h16.1v42.1H25.6z"/>
		<polygon class="st0" points="108.5,337.1 98.9,298.5 96,286.9 96,337.1 84.7,337.1 84.7,251.7 97.3,251.7 105.7,290 108.3,302 
			108.3,251.7 119.4,251.7 119.4,337.1 		"/>
		<polygon class="st0" points="193.9,136.4 193.9,213.1 184.8,213.1 184.8,136.4 173.4,136.4 173.4,127.7 204.9,127.7 204.9,136.4 
					"/>
		<polygon class="st0" points="273.8,179.4 273.8,213.1 264.5,213.1 264.5,179.4 251.4,127.7 260.6,127.7 269.7,167.4 278.8,127.7 
			287.6,127.7 		"/>
		<rect x="165.6" y="287.6" class="st0" width="47.2" height="10"/>
		<rect x="184.2" y="269" class="st0" width="10" height="47.2"/>
		<path id="Shape" class="st0" d="M10.7,85.5H0.8V0h9.9c23.3,0.1,25,9.3,25,42.8C35.7,76.2,34,85.4,10.7,85.5z M13.4,72.9
			c8.8,0,9.4-2.2,9.3-30.2c0.1-27.9-0.5-30.1-9.3-30.1V72.9z"/>
		<path class="st0" d="M21.8,165.8c-5.4-9.5-8.3-13-8.3-22.8c0-3,1.8-4.4,4-4.4c2.1,0,3.6,1.5,3.6,4.4v6.5l11.4-1.1v-4.1
			c0-11.3-6-17.8-15-17.8c-11.5,0-17,8.6-17,19.2c0,9.9,6.8,21.7,11.8,29.6c5,8.6,8.1,14.6,8.1,22.3c0,3.2-1.4,5.1-4.2,5.1
			c-3,0-4.4-2.1-4.4-5.1v-6.9l-11.5,1.1v4.8c0,11.4,6.3,17.8,16.5,17.8c8.3,0,16.4-5.5,16.4-18.8C33.1,185.6,27.4,175.4,21.8,165.8z
			"/>
	</g>
</g>
</svg>
