<?xml version="1.0" encoding="utf-8"?>
<!-- Generator: Adobe Illustrator 23.1.0, SVG Export Plug-In . SVG Version: 6.00 Build 0)  -->
<svg version="1.1" id="Livello_1" xmlns="http://www.w3.org/2000/svg" xmlns:xlink="http://www.w3.org/1999/xlink" x="0px" y="0px"
	 viewBox="0 0 152 45" style="enable-background:new 0 0 152 45;" xml:space="preserve">
<style type="text/css">
	.st0{fill:#FFFFFF;}
</style>
<title>polimi</title>
<desc>Created with Sketch.</desc>
<g id="Page-1">
	<g id="polimi">
		<path id="Shape" class="st0" d="M22.2,42.4h0.4v2h-0.4V42.4z M21.2,44.3l0.1-2h0.4l-0.1,2H21.2z M23.2,42.3h0.4l0.1,2h-0.4
			L23.2,42.3z M20.2,44.2l0.2-2h0.4l-0.2,2H20.2z M24.1,42.2h0.4l0.2,2h-0.4L24.1,42.2L24.1,42.2z M19.1,44.1l0.3-1.9h0.4l-0.3,2
			L19.1,44.1L19.1,44.1z M25,42.2l0.4,0l0.3,1.9h-0.4L25,42.2z M18.1,44l0.3-1.9l0.4,0.1l-0.4,1.9L18.1,44z M26,42.1l0.4-0.1
			l0.4,1.9L26.4,44L26,42.1z M17.1,43.8l0.4-1.9l0.4,0.1l-0.4,1.9L17.1,43.8z M26.9,41.9l0.4-0.1l0.5,1.9l-0.4,0.1L26.9,41.9z
			 M16.1,43.5l0.5-1.9l0.4,0.1l-0.5,1.9L16.1,43.5L16.1,43.5z M27.8,41.6l0.4-0.1l0.5,1.9l-0.3,0.1L27.8,41.6z M15.1,43.2l0.6-1.9
			l0.4,0.1l-0.6,1.9L15.1,43.2L15.1,43.2z M28.7,41.3l0.3-0.1l0.6,1.9l-0.4,0.1L28.7,41.3z M14.1,42.9l0.7-1.9l0.3,0.1L14.5,43
			L14.1,42.9L14.1,42.9z M29.6,41l0.3-0.1l0.7,1.8l-0.3,0.1L29.6,41z M13.2,42.5l0.8-1.8l0.3,0.2l-0.8,1.8L13.2,42.5L13.2,42.5z
			 M30.5,40.6l0.3-0.2l0.8,1.8l-0.3,0.1L30.5,40.6z M12.3,42l0.9-1.8l0.3,0.2l-0.9,1.8L12.3,42z M31.3,40.2l0.3-0.2l0.9,1.8L32.2,42
			L31.3,40.2L31.3,40.2z M11.3,41.5l0.9-1.7l0.3,0.2l-0.9,1.7L11.3,41.5z M32,39.8l0.3-0.2l1,1.7L33,41.5L32,39.8L32,39.8z M10.4,41
			l1-1.7l0.3,0.2l-1,1.7L10.4,41z M32.9,39.3l0.3-0.2l1.1,1.6L34,41L32.9,39.3L32.9,39.3z M9.6,40.4l1.1-1.6L11,39l-1.1,1.7
			L9.6,40.4z M33.7,38.8l0.3-0.2l1.1,1.6l-0.3,0.2L33.7,38.8z M8.7,39.8l1.2-1.6l0.3,0.2L9,40.1L8.7,39.8L8.7,39.8z M34.5,38.2
			l0.3-0.2l1.2,1.6l-0.3,0.2L34.5,38.2L34.5,38.2z M8,39.2l1.2-1.5l0.3,0.2l-1.3,1.5L8,39.2z M35.3,37.6l0.3-0.2l1.3,1.5l-0.3,0.2
			L35.3,37.6z M7.3,38.5l1.3-1.5l0.3,0.3l-1.4,1.5L7.3,38.5L7.3,38.5z M35.9,37l0.3-0.3l1.3,1.4l-0.3,0.3L35.9,37z M6.4,37.8
			l1.4-1.4l0.3,0.3l-1.4,1.4L6.4,37.8L6.4,37.8z M36.6,36.3l0.3-0.3l1.4,1.4L38,37.7L36.6,36.3L36.6,36.3z M5.7,37l1.4-1.3l0.3,0.3
			L6,37.3L5.7,37z M37.3,35.6l0.2-0.3l1.5,1.3L38.8,37L37.3,35.6L37.3,35.6z M5,36.3L6.6,35l0.2,0.3l-1.5,1.3L5,36.3z M37.9,35
			l0.2-0.3l1.5,1.2l-0.2,0.3L37.9,35z M4.4,35.4L6,34.3l0.2,0.3l-1.6,1.2L4.4,35.4L4.4,35.4z M38.4,34.2l0.2-0.3l1.6,1.2L40,35.4
			L38.4,34.2z M3.8,34.6l1.6-1.1l0.2,0.3L4,34.9L3.8,34.6L3.8,34.6z M39,33.4l0.2-0.3l1.6,1.1l-0.2,0.3L39,33.4z M3.3,33.7l1.7-1
			L5.1,33l-1.7,1L3.3,33.7L3.3,33.7z M39.5,32.6l0.2-0.3l1.7,1l-0.2,0.3L39.5,32.6z M2.7,32.8l1.7-1l0.2,0.3l-1.7,1L2.7,32.8
			L2.7,32.8z M40,31.8l0.2-0.3l1.7,0.9l-0.2,0.3L40,31.8L40,31.8z M2.3,31.9L4,31l0.2,0.3l-1.8,0.9L2.3,31.9L2.3,31.9z M40.4,31
			l0.2-0.3l1.8,0.8l-0.2,0.3L40.4,31z M1.8,31l1.8-0.8l0.2,0.3L2,31.3L1.8,31z M40.8,30.2l0.1-0.3l1.8,0.8l-0.1,0.3L40.8,30.2z
			 M1.4,30l1.8-0.7l0.1,0.3l-1.8,0.7L1.4,30z M41.1,29.2l0.1-0.4l1.9,0.7L43,29.9L41.1,29.2z M1.1,29L3,28.4l0.1,0.4l-1.9,0.6
			L1.1,29z M41.4,28.3l0.1-0.4l1.9,0.6l-0.1,0.4L41.4,28.3z M0.8,28.1l1.9-0.5l0.1,0.4l-1.9,0.5L0.8,28.1z M41.7,27.5l0.1-0.4
			l1.9,0.5L43.6,28L41.7,27.5L41.7,27.5z M0.5,27.1l1.9-0.4L2.5,27l-1.9,0.4L0.5,27.1L0.5,27.1z M41.9,26.6l0.1-0.4l1.9,0.4L43.9,27
			L41.9,26.6z M0.3,26l1.9-0.4L2.3,26l-1.9,0.4L0.3,26z M42.1,25.6l0.1-0.4l1.9,0.3L44,25.9L42.1,25.6L42.1,25.6z M0.2,25l1.9-0.3
			v0.4l-1.9,0.3V25z M42.3,24.7v-0.4l2,0.2v0.4L42.3,24.7z M0.1,24l2-0.2v0.4l-2,0.2V24z M42.3,23.8v-0.4l2,0.1v0.4L42.3,23.8z
			 M0,23l2-0.1v0.4l-2,0.1V23z M42.4,23v-0.4l2,0.1v0.4L42.4,23z M0,22.3v-0.4h2v0.4L0,22.3z M42.4,21.7h2V22h-2V21.7L42.4,21.7z
			 M0,21.3v-0.4L2,21v0.4L0,21.3L0,21.3z M42.3,20.8l2-0.1V21l-2,0.1V20.8L42.3,20.8z M0.1,20.2v-0.4l2,0.2v0.4L0.1,20.2z
			 M42.3,19.8l2-0.2V20l-2,0.2V19.8z M0.2,19.2v-0.4l2,0.3l0,0.4L0.2,19.2z M42.1,18.9l1.9-0.3l0.1,0.4l-1.9,0.3L42.1,18.9z
			 M0.4,18.2l0.1-0.4l1.9,0.4l-0.1,0.4L0.4,18.2z M42,18l1.9-0.4L44,18l-2,0.3V18z M0.6,17.2l0.1-0.4l1.9,0.5l-0.1,0.4L0.6,17.2z
			 M41.8,17l1.9-0.5l0.1,0.4l-1.9,0.5L41.8,17z M0.8,16.2l0.1-0.3l1.9,0.5l-0.1,0.4L0.8,16.2z M41.5,16.2l1.9-0.6l0.1,0.4l-1.9,0.6
			L41.5,16.2L41.5,16.2z M1.1,15.2l0.1-0.3l1.9,0.6L3,15.8L1.1,15.2L1.1,15.2z M41.2,15.2l1.8-0.6l0.1,0.3l-1.9,0.6L41.2,15.2
			L41.2,15.2z M1.5,14.2l0.1-0.3l1.8,0.7L3.3,15L1.5,14.2z M40.8,14.4l1.8-0.7l0.1,0.3L41,14.7L40.8,14.4L40.8,14.4z M1.8,13.3
			L2,12.9l1.8,0.8l-0.2,0.3L1.8,13.3L1.8,13.3z M40.4,13.5l1.8-0.8l0.2,0.3l-1.8,0.8L40.4,13.5z M2.3,12.3L2.5,12l1.8,0.9l-0.2,0.3
			L2.3,12.3L2.3,12.3z M40,12.7l1.7-0.9l0.2,0.3L40.2,13L40,12.7z M2.8,11.4L3,11.1l1.7,1l-0.2,0.3L2.8,11.4L2.8,11.4z M39.6,11.8
			l1.7-1l0.2,0.3l-1.7,1L39.6,11.8L39.6,11.8z M3.3,10.5l0.2-0.3l1.7,1.1L5,11.6L3.3,10.5z M39.1,11l1.6-1l0.2,0.3l-1.7,1.1L39.1,11
			L39.1,11z M3.9,9.6l0.2-0.3l1.6,1.1l-0.2,0.3L3.9,9.6z M38.5,10.3l1.6-1.2l0.2,0.3l-1.6,1.1L38.5,10.3z M4.5,8.8l0.2-0.3l1.5,1.2
			L6.1,10L4.5,8.8L4.5,8.8z M38,9.5l1.5-1.2l0.2,0.3l-1.5,1.2L38,9.5z M5.1,8l0.2-0.3L6.9,9L6.6,9.3L5.1,8z M37.3,8.8l1.5-1.3
			l0.2,0.3l-1.5,1.3L37.3,8.8L37.3,8.8z M5.8,7.2l0.3-0.3l1.4,1.4L7.3,8.6L5.8,7.2z M36.7,8.1l1.4-1.4L38.4,7L37,8.4L36.7,8.1
			L36.7,8.1z M6.5,6.5l0.3-0.3l1.4,1.4L7.9,7.9L6.5,6.5z M36,7.5L37.4,6l0.3,0.3l-1.4,1.4L36,7.5L36,7.5z M7.3,5.8l0.3-0.3L8.9,7
			L8.6,7.2L7.3,5.8z M35.3,6.8l1.3-1.5l0.3,0.2l-1.3,1.5L35.3,6.8L35.3,6.8z M8.1,5.1l0.3-0.2l1.2,1.5L9.3,6.6L8.1,5.1z M34.6,6.2
			l1.2-1.5l0.3,0.2l-1.2,1.5L34.6,6.2z M8.9,4.4l0.3-0.2l1.2,1.6L10,6L8.9,4.4z M33.9,5.7L35,4.1l0.3,0.2l-1.2,1.6L33.9,5.7
			L33.9,5.7z M9.7,3.8L10,3.6l1.1,1.6l-0.3,0.2L9.7,3.8z M33.1,5.1l1.1-1.6l0.3,0.2l-1.1,1.6L33.1,5.1z M10.6,3.3l0.3-0.2l1,1.7
			L11.6,5L10.6,3.3L10.6,3.3z M32.3,4.6l1-1.7l0.3,0.2l-1,1.7L32.3,4.6z M11.5,2.8l0.3-0.2l0.9,1.7l-0.3,0.2L11.5,2.8L11.5,2.8z
			 M31.5,4.2l0.9-1.7l0.3,0.2l-0.9,1.7L31.5,4.2L31.5,4.2z M12.5,2.3l0.3-0.2l0.8,1.8L13.2,4L12.5,2.3L12.5,2.3z M30.6,3.8L31.4,2
			l0.3,0.2l-0.8,1.8L30.6,3.8L30.6,3.8z M13.3,1.8l0.3-0.1l0.8,1.8l-0.3,0.1L13.3,1.8z M29.7,3.4l0.8-1.8l0.3,0.1L30,3.6L29.7,3.4
			L29.7,3.4z M14.3,1.4l0.3-0.1l0.7,1.8L15,3.3L14.3,1.4L14.3,1.4z M28.8,3.1l0.7-1.9l0.4,0.1l-0.7,1.9L28.8,3.1z M15.3,1.1L15.6,1
			l0.6,1.9L15.9,3L15.3,1.1L15.3,1.1z M27.9,2.8l0.6-1.9L28.9,1l-0.6,1.9L27.9,2.8L27.9,2.8z M16.3,0.8l0.4-0.1l0.5,1.9l-0.4,0.1
			L16.3,0.8z M27,2.5l0.5-1.9l0.4,0.1l-0.5,1.9L27,2.5z M17.2,0.5l0.4-0.1L18,2.4l-0.4,0.1L17.2,0.5L17.2,0.5z M26.1,2.3l0.4-1.9
			l0.4,0.1l-0.4,1.9L26.1,2.3L26.1,2.3z M18.3,0.3l0.4-0.1L19,2.2l-0.4,0.1L18.3,0.3L18.3,0.3z M25.2,2.2l0.3-1.9l0.4,0.1l-0.3,1.9
			L25.2,2.2z M19.3,0.2h0.4l0.2,2h-0.4L19.3,0.2L19.3,0.2z M24.2,2.1l0.2-2l0.4,0l-0.2,2L24.2,2.1L24.2,2.1z M20.3,0.1h0.4l0.1,2
			h-0.4L20.3,0.1L20.3,0.1z M23.3,2l0.1-2h0.4l-0.1,2H23.3z M21.4,0h0.4v2h-0.4L21.4,0L21.4,0z M22.4,2V0h0.4v2H22.4z"/>
		<g id="Group">
		</g>
		<g transform="translate(2.000000, 6.000000)">
			<path class="st0" d="M21,30.3l-3.2-1.1c0,0-0.1-0.1-0.1-0.1l0,0v-0.9l0,0l0,0l0,0l0,0l0,0l3.3-0.8l0.3-1.4C21,26,21,25.7,21,25.7
				l0,0l0,0l0,0v-1.4c-0.1-0.1-0.1-0.1-0.2-0.2l0,0l0,0l0,0C20.7,24,20.6,24,20.5,24l0,0c-0.4,0-0.7,0.3-1.2,0.5l0,0
				c-0.5,0.1-0.9,0.2-1.4,0.2l0,0c-0.7-0.2-2.3-2-2.4-2l0,0c0,0,0-0.1,0-0.1l0,0c0,0,0.1,0,0.1,0l0,0c0,0,0.4,0.4,0.8,0.8l0,0
				c0-0.5-0.1-1.6-0.1-2.2l0,0c0-0.1,0-0.2,0-0.4l0,0c0,0,0-0.1,0-0.1c0,0,0.1,0,0.1,0l0,0c0,0,0.1,0,0.1,0c0,0,0,0.1,0,0.1l0,0
				c0,0.1,0,0.2,0,0.3l0,0c0,0.8,0.1,2.4,0.1,2.4l0,0c0.3,0.3,0.7,0.6,1.1,0.8l0,0c0.4-0.9,0.6-1.9,0.8-2.9l0,0c0,0,0.1-0.7,0.1-1.6
				l0,0c0,0,0-0.1,0-0.1c0,0,0,0,0.1,0l0,0c0,0,0.1,0,0.1,0s0,0,0,0.1l0,0c-0.1,0.9-0.1,1.6-0.1,1.6l0,0c-0.2,1-0.4,2-0.8,2.9l0,0
				c0.4,0,0.8-0.1,1.2-0.2l0,0c0.5-0.1,0.8-0.5,1.3-0.5l0,0c0.1,0,0.2,0,0.3,0l0,0c0-0.1,0-0.1,0-0.2l0,0c0-0.1,0-0.3,0-0.3l0,0
				c0.1-0.4,0.3-0.8,0.5-1.2l0,0c0.1-0.2,0.2-0.4,0.2-0.6l0,0v0.1c0,0.1-0.1,0.1-0.2,0.1l0,0c-0.2,0-0.3-0.3-0.3-0.3l0,0
				c0,0,0-0.1,0-0.1l0,0c0-0.2,0.1-0.4,0.2-0.6l0,0c0,0,0-0.1,0-0.1l0,0c-0.1,0.1-0.2,0.1-0.3,0.1l0,0h-0.2l0,0
				c-0.2-0.1-0.4-0.2-0.5-0.3l0,0l-0.3-0.3c-0.1-0.1-0.2-0.1-0.2-0.2l0,0c0-0.1,0.1-0.2,0.2-0.2l0,0c0,0,0,0,0-0.1l0,0
				c0-0.1,0.1-0.2,0.2-0.2h0.1c0.2,0.1,0.3,0.2,0.4,0.4l0,0h0.1l0,0l0.1-0.1l0,0c0,0,0,0,0-0.1l0,0c0,0,0-0.1,0-0.1l0,0l0,0l0,0
				c0-0.3,0.1-0.5,0.2-0.8l0,0c0-0.1,0.1-0.2,0.2-0.3l0,0l0,0l0,0c-0.1-0.2-0.2-0.5-0.2-0.8l0,0c0-0.4,0.2-0.7,0.4-1l0,0
				c0-0.1-0.1-0.8-0.1-1.3l0,0c0-0.1,0-0.1,0-0.2l0,0c0-0.3,0.3-1.4,0.5-2.4l0,0c0,0,0-0.1,0-0.1c0,0,0.1,0,0.1,0l0,0
				c0,0,0.1,0,0.1,0c0,0,0,0.1,0,0.1l0,0c-0.2,1-0.5,2.2-0.5,2.4l0,0c0,0.1,0,0.1,0,0.2l0,0c0,0.3,0,0.8,0.1,1.1l0,0
				c0.2-0.2,0.4-0.3,0.7-0.5l0,0c0,0,0.1,0,0.1,0c0,0,0,0,0.1,0.1l0,0c0,0,0,0.1,0,0.1c0,0,0,0-0.1,0.1l0,0c0,0-1.2,0.5-1.1,1.5l0,0
				c0,0.2,0.1,0.4,0.1,0.6l0,0l0.4-0.3l0,0c0.1-0.1,0.3-0.2,0.6-0.2l0,0c0.1,0,0.2,0,0.3,0.1l0,0c0.1-0.4,0.4-0.8,0.7-1.1l0,0
				c0.1-0.2,0.2-0.3,0.2-0.5h-0.1c-0.1,0-0.1,0-0.1-0.1l0,0c0,0-0.2-0.8-0.3-1.2l0,0c0,0,0-0.1,0-0.1l0,0c0.1-0.5,0.3-0.9,0.6-1.2
				l0,0c0.1-0.1,0.1-0.2,0.2-0.3l0,0l0,0l0,0c-0.1-0.2-0.2-0.5-0.3-0.7l0,0c0-0.2,0-0.4,0-0.6l0,0l0,0l0,0l0,0l0,0
				c-0.1-0.1-0.2-0.2-0.2-0.3l0,0c0,0,0-0.1,0-0.1l0,0l0,0l0,0c0-0.2-0.1-0.3-0.2-0.5l0,0l-1.2-0.6c0,0.1-0.1,0.2-0.2,0.3l0,0
				c-0.1,0.1-0.2,0.2-0.4,0.3l0,0c-0.1,0-0.2,0.1-0.3,0.1h-0.1l0-0.1l-0.1-0.2l0,0c-0.2-0.2-0.3-0.4-0.3-0.7l0,0
				c-0.5,0-1-0.1-1.5-0.2l0,0l0.1,0.3l0,0c0,0.1,0.1,0.3,0.1,0.4l0,0c0,0.1,0,0.2,0,0.3l0,0c0,0-0.1,0.8-0.5,1l0,0
				c-0.1,0-0.2,0.1-0.4,0.1l0,0c-0.5,0-1.1-0.1-1.3-0.3l0,0c0-0.2-0.1-0.2-0.5-0.4l0,0c-0.9,0.7-1.5,1.8-1.4,3l0,0
				c0,0.2,0,0.5,0,0.7l0,0l0.2,0.1l0,0c0-0.1,0-0.2,0-0.2l0,0c0-0.2,0-0.4,0.2-0.5l0,0l0,0l0,0c0.1-0.1,0.1-0.1,0.2-0.2l0,0
				c0.1-0.1,0.3-0.3,0.5-0.4l0,0c0.1,0,0.2-0.1,0.3-0.2l0,0c0.2-0.3,0.5-0.4,0.8-0.5h0.1c0.5,0,1,0.1,1.5,0.2l0,0
				c0.2,0.2,0.4,0.3,0.6,0.4l0,0l0.1,0.1h0.1v-1.9c0-0.1,0-0.1,0.1-0.1l0,0c0,0,0.1,0,0.1,0s0,0,0,0.1l0,0v1.9
				c0.2,0,0.4,0.2,0.4,0.4l0,0c0.1,0.1,0.1,0.2,0.1,0.3l0,0c0,0.1,0,0.1-0.1,0.2l0,0c0.2,0.1,0.5,0.2,0.6,0.4l0,0
				c0,0.1,0.1,0.2,0.1,0.3l0,0c0,0.3-0.2,0.5-0.4,0.6l0,0h-0.5l0,0c-0.1,0.2-0.2,0.4-0.3,0.5l0,0c0,0.1,0,0.5,0,0.7l0,0
				c0,0.2-0.2,0.3-0.3,0.2h-0.1c-0.1,0.1-0.1,0.2-0.3,0.3l0,0c-0.1,0-0.2,0.1-0.3,0.2l0,0c0,0-0.1,0.1-0.3,0.2l0,0
				c-0.1,0-0.1,0-0.2,0l0,0c-0.4,0-0.7-0.1-1-0.4l0,0c-0.1-0.2-0.2-0.3-0.3-0.5l0,0c0,0,0-0.1,0-0.1l0,0c0,0,0.1,0,0.1,0l0,0
				c0.1,0.2,0.2,0.3,0.3,0.5l0,0c0.2,0.2,0.5,0.3,0.8,0.3l0,0h0.2l0,0c0.1,0,0.1-0.1,0.3-0.2l0,0l0,0l0,0l-0.1-0.1c0,0,0-0.1,0-0.1
				l0,0c0,0,0.1,0,0.1,0l0,0l0.1,0.1l0,0l0,0H19l0,0l0.1-0.1l0,0c-0.1,0-0.2-0.1-0.2-0.2l0,0c0,0,0,0,0-0.1l0,0c0,0,0.1,0,0.1,0l0,0
				l0,0l0,0V17l0,0h0.1l0,0h0.1h0.1c0.1,0,0.1,0,0.1-0.1l0,0c0-0.2,0-0.7,0-0.7l0,0v-0.1c0.2-0.1,0.3-0.3,0.3-0.5l0,0
				c0,0,0-0.1,0-0.1l0,0h-0.1l0,0c-0.1,0-0.1,0-0.1,0l0,0c-0.2,0.1-0.4,0.3-0.6,0.4l0,0l-0.3,0.1l0,0c0,0.1-0.2,0.3-0.6,0.5l0,0
				L16.9,17c0.1,0.4,0.2,0.8,0.2,0.8l0,0c0,0.1,0.1,0.3,0.1,0.4l0,0c0,0.4-0.2,1.8-1.4,2l0,0c-0.4,0.5-1,0.8-1.6,0.9l0,0
				c0.2,0.4,0.4,0.8,0.5,1.2l0,0c0,0.2,0.3,1,0.5,1.6l0,0c0.1,0.4,0.3,0.8,0.3,0.8l0,0c0.1,0.2,0.2,0.5,0.2,0.8l0,0
				c0,0.1,0,0.2,0,0.3l0,0l0,0l0,0l0,0c0.2,0.2,0.3,0.4,0.4,0.7l0,0c0.1,0.2,0.2,0.5,0.2,0.7l0,0c0,0.3,0,0.5-0.1,0.8l0,0
				c0,0.3-0.2,0.4-0.6,0.8l0,0c-0.2,0.2-0.6,0.3-0.9,0.3l0,0c-0.3,0-0.6,0-0.9-0.1l0,0c-0.6-0.2-1.2-0.3-1.9-0.4l0,0
				c-0.7-0.2-1.3-0.4-1.9-0.8l0,0c-0.6-0.4-1.1-0.8-1.7-1.3l0,0c-0.2-0.1-0.4-0.2-0.6-0.2l0,0C7.4,26.5,7,26.7,6.7,27l0,0
				c-0.1,0.1-0.1,0.1-0.2,0.2l0,0l0,0l0,0c0,0.1,0,0.1,0.1,0.2l0,0c0,0,0,0,0.2,0.1l0,0L7,27.5h0c0.1,0,0.1,0.1,0.1,0.1l0,0
				c0,0.2-0.1,0.3-0.3,0.4l0,0c0,0,0,0.1,0,0.1l0,0c0,0.2-0.2,0.2-0.3,0.2H6.3L6,28.3l0,0c-0.1-0.1-0.2-0.2-0.2-0.3l0,0l0,0l0,0
				v-0.1l0,0l-0.2-0.3l0,0c-0.1-0.2-0.2-0.4-0.3-0.6l0,0c0,0,0,0,0-0.1l0,0c0.1-0.5,0.3-1,0.5-1.4l0,0c0.1-0.3,0.2-0.7,0.2-1H6
				c0-0.2,0.1-0.3,0.2-0.4l0,0c-0.3-0.4-0.5-0.9-0.5-1.4l0,0c0-0.2,0-0.3,0-0.5l0,0l0,0l0,0c-0.2-0.3-0.3-0.6-0.3-0.9l0,0
				c-0.2,0.1-0.4,0.3-0.6,0.4H4.7c-0.2,0-0.5-0.1-0.7-0.3c-0.2-0.2-0.3-0.4-0.2-0.7l0,0c0-0.3,0.1-0.6,0.1-0.8l0,0
				c0.1-0.3,0.3-0.6,0.6-0.8l0,0c-0.1,0-0.2,0-0.3,0l0,0C4.1,19,4,19,3.9,18.9l0,0c-0.2-0.2-0.3-0.2-0.8-0.2l0,0c-0.1,0-0.1,0-0.2,0
				l0,0c-0.2,0-0.4-0.1-0.6-0.1l0,0c-0.3-0.1-0.5-0.1-0.6-0.3l0,0v-0.1l0,0H1.8l0,0L1,17.7c-0.1-0.1-0.2-0.2-0.2-0.4l0,0
				c0-0.1,0.1-0.3,0.2-0.3l0,0c0.5-0.6,1-1.2,1.4-1.9l0,0c0.2-0.8,0.3-1.6,0.3-2.5l0,0c0.2-1.4,0.7-1.9,0.9-2.1l0,0
				C3.4,10.3,3.3,10,3.3,9.7l0,0c0-0.2,0-0.3,0.1-0.4l0,0C3.3,9.1,3.2,9,3.1,8.9l0,0C3,8.7,2.9,8.5,2.9,8.2l0,0c0-0.1,0-0.3,0.1-0.4
				l0,0c0.2-0.2,0.4-0.5,0.6-0.7l0,0c0.7-1.3,1.5-1.6,1.6-1.6l0,0c0-0.1,0-0.2,0.1-0.3l0,0c0.1-0.6,0.6-0.7,0.9-0.9l0,0
				c0.3-0.1,0.6-0.8,1-1l0,0C7.8,3.2,8.4,3,9.1,2.9l0,0c0.3-0.1,0.6-0.1,0.9-0.1l0,0c0.4,0,0.8,0,1.1,0.1h0.1c0.3,0,0.6,0.1,0.9,0.2
				l0,0c0-0.2,0.1-0.4,0.3-0.5l0,0c0,0,0.1,0,0.1,0l0,0c0.1-0.4,0.8-0.5,1-0.6l0,0c0.1-0.4,0.6-0.5,1-0.5l0,0c0.2,0,0.5,0,0.7,0.1
				l0,0c0.1,0,0.2,0,0.2,0l0,0c0.5,0,1,0.1,1.4,0.4h0.1c0.4,0,0.7,0.3,0.9,0.6l0,0c0.3,0.1,0.4,0.4,0.4,0.7l0,0c0,0.2,0,0.3-0.1,0.5
				l0,0c0,0.2-0.2,0.4-0.4,0.3h-0.1c-0.1,0-0.2,0-0.2-0.1l0,0c0,0-0.1,0.1-0.1,0.2l0,0c-0.2,0.4-0.3,0.8-0.4,1.2l0,0
				c0,0.1-0.1,0.2-0.2,0.3l0,0c-0.1,0-0.1,0-0.2-0.1l0,0l-0.1,0.1l0,0c-0.1,0-0.2,0.1-0.3,0.1l0,0c0,0.1-0.1,0.1-0.2,0.2l0,0
				c0,0-0.1,0.1-0.1,0.1l0,0c0,0.1-0.1,0.3-0.3,0.3l0,0c-0.2,0-0.4-0.1-0.6-0.2l0,0l-0.5-0.3c0,0.3-0.1,0.6-0.2,0.8l0,0l0,0l0,0v0.1
				l0,0c0,0.2,0,0.3,0,0.5l0,0c0,0.1-0.1,0.1-0.2,0.2l0,0c0.2,0.1,0.6,0.4,0.7,0.7l0,0l0.2,0.1h0.2L16,8.3l0,0
				c0.1,0,0.5,0.1,0.5,0.1l0,0l0.1,0.1c0,0,0,0,0,0.1l0,0c0,0.3-0.3,0.3-0.3,0.3l0,0L16,8.9L16,9c0,0.1,0,0.1,0,0.2l0,0
				c0,0.2-0.1,0.3-0.2,0.4l0,0c0,0,0,0.1,0,0.1l0,0c0,0.2-0.1,0.4-0.3,0.5l0,0c-0.2,0.1-0.3,0.2-0.5,0.2l0,0c-0.3,0-0.5-0.1-0.8-0.3
				l0,0h-1l0,0c-0.6,0-1.1-0.4-1.4-1l0,0c-0.1-0.1-0.1-0.2-0.1-0.3l0,0c0-0.1,0-0.1,0-0.2l0,0l-0.6,0.3c0,0,0,0,0,0.1l0,0
				c0.3,0.6,0.5,1.2,0.6,1.9l0,0l0,0l0,0V11l0,0c0,0.6,0.1,1.2,0.3,1.8l0,0c0.1,0.4,0.3,0.8,0.5,1.1l0,0c0.2,0,0.4,0.1,0.5,0.2l0,0
				c0.2,0.1,0.3,0.2,0.5,0.3l0,0c0.1,0,0.2,0.1,0.2,0.1l0,0c0.1,0,0.6,0.2,1,0.3l0,0c0-0.2,0-0.4,0-0.6l0,0
				c-0.1-1.2,0.4-2.4,1.4-3.2l0,0c0-0.1-0.1-0.1-0.1-0.2l0,0c0-0.4,0.6-0.9,0.6-1l0,0c0-0.1,0,0,0.1-0.4l0,0
				c0.1-0.5,0.3-1.1,0.5-1.6l0,0c0.1-0.2,0.2-0.3,0.4-0.4l0,0c0.1-0.3,0.4-0.5,0.7-0.5h0.1c0.1,0,0.2,0,0.3,0H19
				c0.2-0.1,0.4-0.1,0.6-0.2l0,0c0,0,0.4,0,0.5,0.3l0,0c0.2,0.1,0.3,0.2,0.4,0.4l0,0c-0.1,0,0.3,0,0.3,0.4l0,0C21,7.8,21,7.9,21,8
				l0,0c0.1,0.1,0.2,0.1,0.2,0.2l0,0l0.3-0.7l0,0c0.2-0.4,0.3-0.8,0.3-1.2l0,0c0-0.5-0.1-0.9-0.3-1.4l0,0c0,0-0.1,0.1-0.2,0.1l0,0
				l-0.1,0.1l0,0l0,0l0,0c-0.1,0.1-0.1,0.1-0.2,0.2l0,0c-0.2,0.1-0.3,0.1-0.5,0.2l0,0c-0.1,0.3-0.4,0.2-0.7,0.4l0,0
				c-0.1,0.1-0.3,0.1-0.4,0.1l0,0c-0.2,0-0.4-0.1-0.5-0.2l0,0c0,0-0.6-0.6-0.7-0.7l0,0c0,0.1-0.1,0.1-0.4,0.1l0,0
				c-0.2,0-0.4-0.1-0.5-0.3l0,0c0,0,0,0,0-0.1l0,0c0.1-0.2,0.4-0.3,0.4-0.3l0,0c0.2-0.1,0.5-0.2,0.8-0.3h0.1c0-0.3,0-0.6,0.2-0.8
				l0,0c0.2-0.1,0.3-0.3,0.5-0.3l0,0c-0.1-0.1-0.1-0.3-0.1-0.5l0,0c0-0.3,0.1-0.6,0.3-0.9l0,0c0.5-0.6,0.8-0.8,1-0.8l0,0l0.6-0.1
				l0,0C21.4,1,21.7,0.9,22,0.9l0,0c0.2,0,0.4,0.1,0.6,0.2l0,0c0.1-0.2,0.3-0.3,0.4-0.4l0,0c0.3-0.1,0.6-0.2,1-0.3h0.2
				c0.4,0,0.9,0.1,1.2,0.4l0,0c0.3,0,0.6,0.2,0.7,0.4l0,0c0.2,0.3,0.3,0.7,0.4,1l0,0l0,0l0,0c0,0.1-0.1,0.2-0.1,0.4l0,0v0.1l0,0
				c0,0.2,0,0.4-0.1,0.7l0,0c1,0.4,1.8,1.1,2.4,2l0,0C28.8,5.5,29,5.8,29,6.1l0,0v0.1l0,0l0,0l0,0c0.3,0.2,0.5,0.4,0.7,0.7l0,0
				c0.3,0,0.6-0.1,0.9-0.1l0,0c0.3,0,0.6,0,0.9,0.1l0,0h0.2l0,0c0.2,0,0.4,0,0.5,0.1l0,0c0.1,0,0.1,0,0.2,0h0.2c0.5,0,1,0.1,1.5,0.5
				l0,0l0.7-0.2h0.3l0,0c0.9,0,1.7,0.8,1.6,1.7l0,0c0,0.4-0.2,0.7-0.4,1l0,0c0.5,1.4,0.8,2.9,0.9,4.4l0,0c0.1,0.7,0.1,1.3,0.1,2l0,0
				c-0.1,2.2-0.4,4.4-1,6.5l0,0c-0.1,0.3-0.1,0.5-0.1,0.8l0,0c0,1.1,0.4,2.2,0.8,2.2l0,0c0,0,0.1,0.1,0.1,0.1l0,0
				c0,0.1,0,0.1-0.1,0.1l0,0c0,0-1.8,0.2-2.9,0.2H34h-0.9l0,0c-1.3-0.1-2.6-0.1-3.1-0.2l0,0c0,0,0,0.1,0,0l0,0
				c0.2,0.3,0.4,0.6,0.5,0.9l0,0c0,0.3-0.3,0.5-0.4,0.6l0,0c-0.1,0.1-0.4,0.2-0.5,0.2l0,0c-0.1,0-0.2,0.1-0.3,0.1l0,0h-0.3l0,0
				c-0.2,0-0.3-0.1-0.5-0.1l0,0c-0.1,0-0.3,0-0.4,0h-0.1c-0.3-0.1-0.3-0.4-0.4-0.7l0,0v-0.1l0,0c0-0.1,0-0.2,0-0.3l0,0
				c0-0.2,0.1-0.3,0.2-0.5l0,0c0.1-0.1,0.1-0.2,0.1-0.4l0,0c-0.5-0.1-0.7-0.3-1-1.4l0,0l-0.2-0.8c-0.2-0.4-0.3-0.9-0.3-1.3l0,0
				c0-0.5,0.2-1,0.4-1.5l0,0c0.1-0.3,0.8-1.6,0.8-1.6l0,0l0.4-0.8v-0.1c-0.1,0-0.5,0-0.9,0.1l0,0c0,0.8-0.2,1.6-0.5,2.3l0,0
				l-0.9,1.4l0,0c-0.1,0.1-0.1,0.3-0.1,0.4l0,0c0,0.1,0,0.1,0,0.2l0,0c0,0.1,0,0.3-0.1,0.4l0,0l0,0l0,0c0,0.2,0.1,0.4,0.2,0.5l0,0
				c0.1,0.1,0.3,0.3,0.4,0.5l0,0c0,0,0,0.1,0,0.1l0,0c0,0.3-0.2,0.5-0.5,0.6l0,0C25.6,25,25.3,25,25.1,25l0,0c-0.2,0-0.4,0-0.7,0
				l0,0c-0.1,0-0.3-0.1-0.4-0.2c-0.1-0.1-0.1-0.3-0.1-0.4l0,0c0,0,0-0.1,0-0.1l0,0c0,0,0.2-0.6,0.2-0.7l0,0c0-0.1,0-0.2,0-0.3l0,0
				c0-0.1,0-0.2,0-0.3l0,0l0,0l0,0c0-0.4,0.2-0.7,0.4-1l0,0c0.1-0.2,0.1-0.5,0.1-0.7l0,0c0-0.1,0-0.3,0-0.3l0,0c0-0.1,0-0.1,0-0.2
				l0,0c0-0.3,0-1.1,0-1.6l0,0c-0.6,1-1.2,1.9-1.9,2.8l0,0c0,0.1,0,0.2,0,0.3l0,0c0,0.3,0.1,0.6,0.1,0.9l0,0c0,0.1,0,0.2,0,0.4l0,0
				c0,0.3-0.1,0.6-0.3,0.9l0,0l0.3,2.4l0.5-0.1l3.4,0.7c0,0,0.1,0,0.1,0.1l0,0v0.8c0,0,0,0.1-0.1,0.1l0,0L21,30.3z M21.1,30l5.7-1.7
				v-0.6l-5.7,1.6V30L21.1,30z M17.9,29l3,1v-0.6l-3-1V29L17.9,29z M21,29.2l5.5-1.6l-3-0.6L23,27.1l0.1,0.9c0,0.1,0,0.1-0.1,0.1
				l0,0c-0.1,0-0.1,0-0.1-0.1l0,0l-0.3-0.9l-1.2,0.3L21,28.6c0,0,0,0-0.1,0.1c0,0-0.1,0-0.1,0l0,0c-0.1,0-0.1-0.1-0.1-0.1l0,0
				l0.2-0.9l-2.8,0.7L21,29.2L21,29.2z M7.8,26.1c0.2,0,0.5,0.1,0.7,0.3l0,0c0.5,0.5,1.1,0.9,1.6,1.3l0,0c0.6,0.3,1.2,0.6,1.8,0.8
				l0,0c0.6,0.1,1.3,0.2,1.9,0.4l0,0c0.3,0.1,0.5,0.1,0.8,0.1l0,0c0.3,0,0.5-0.1,0.7-0.3l0,0c0.4-0.5,0.5-0.5,0.6-0.7l0,0
				c0-0.2,0.1-0.5,0.1-0.8l0,0c0-0.2,0-0.4-0.1-0.6l0,0c-0.1-0.2-0.2-0.4-0.4-0.5l0,0c0,0,0,0.1-0.1,0.1l0,0c-0.2,1-1.2,1.7-2.2,1.6
				h-0.1c0.3,0.1,0.6,0.3,0.8,0.4l0,0c0,0,0,0.1,0,0.1l0,0c0,0-0.1,0-0.1,0l0,0c-0.4-0.2-0.9-0.4-1.3-0.6l0,0l-0.2-0.1l0,0
				c-0.2-0.1-2.4-0.9-3.4-1.4l0,0c-0.9-0.6-1.8-1.2-2.5-2l0,0c-0.1,0.1-0.1,0.2-0.1,0.3l0,0c0,0.3-0.1,0.7-0.2,1l0,0
				C5.8,26,5.6,26.5,5.5,27l0,0l0,0l0,0c0,0.1,0.4,0.9,0.5,1h0l0,0l0,0l0.1,0.1l0,0c0.1,0,0.1,0,0.2,0h0.2h0.1l0,0
				c0-0.1,0-0.2,0.1-0.2l0,0l0,0l0,0l0.1-0.1l0,0c0,0,0-0.1,0-0.1l0,0l-0.2-0.1l0,0c-0.1,0-0.2-0.1-0.3-0.2l0,0
				c0-0.1-0.1-0.1-0.1-0.2l0,0c0,0,0-0.1,0-0.1l0,0c0.1-0.1,0.2-0.2,0.3-0.3l0,0c0.4-0.3,0.8-0.5,1.2-0.7l0,0H7.8z M28.8,27.6
				c0.1,0.1,0.3,0.1,0.4,0.1h0.2c0.1,0,0.1,0,0.2,0l0,0c0.1-0.1,0.4-0.2,0.4-0.2l0,0c0.1,0,0.4-0.3,0.3-0.4l0,0l0,0l0,0
				c-0.1-0.3-0.3-0.6-0.5-0.8l0,0L29.9,26l0,0c-0.1-0.2-0.1-0.5-0.1-0.8l0,0c0-0.2,0-0.3,0.1-0.5l0,0c0.2-0.4,2.4-3.6,2.4-5.9l0,0
				v-0.1l0,0c-0.1,0.1-0.1,0.1-0.2,0.2l0,0c-0.9,0.9-1.8,1.8-2.8,2.5l0,0l0,0l0,0c-0.1,0.9-0.2,1.7-0.4,2.6l0,0
				c-0.2,0.4-0.3,0.8-0.4,1.2l0,0c0,0.3-0.1,0.7-0.3,1l0,0c-0.1,0.1-0.1,0.3-0.2,0.4l0,0c0,0.1,0,0.2,0,0.2l0,0v0.1l0,0
				c0,0.3,0.1,0.5,0.2,0.5h0.1C28.5,27.6,28.6,27.6,28.8,27.6L28.8,27.6L28.8,27.6z M12.6,27.6H13h0.2c1.6,0,1.7-0.7,2-1.4l0,0
				c0-0.1,0.1-0.2,0.1-0.3l0,0c0,0,0-0.1,0-0.1l0,0c0-0.1,0-0.1,0-0.2l0,0c0-0.3-0.1-0.5-0.2-0.7l0,0c0-0.1-0.1-0.4-0.3-0.8l0,0
				c-0.2-0.7-0.4-1.5-0.5-1.7l0,0c-0.1-0.4-0.3-0.8-0.5-1.2l0,0c-0.4,0-0.7-0.1-1-0.4l0,0L12.8,21l0,0l-0.3,0.6
				c-0.2,0.4-0.3,0.8-0.5,1.2l0,0c0,0,0,0.1,0.1,0.1l0,0l0.3,0.1l0,0c0.2,0.1,0.4,0.2,0.6,0.3l0,0c0.1,0.1,0.2,0.2,0.3,0.4l0,0
				l0.1,0.1l0,0c0.1,0.1,0.2,0.1,0.3,0.2l0,0c0,0,0.5,0.6,0.5,0.6l0,0c0.1,0.1,0.1,0.1,0.1,0.2l0,0c0,0,0,0.1,0,0.1l0,0
				c-0.1,0.1-0.1,0.1-0.2,0.1l0,0h-0.1l-0.6-0.4h-0.1c0.1,0.1,0.1,0.2,0.2,0.3l0,0l0.2,0.5l0,0c0,0,0,0.1,0,0.1l0,0
				c0,0.1-0.1,0.2-0.2,0.3h-0.1c-0.1,0-0.2-0.1-0.3-0.2l0,0L13,25.2l-0.1-0.1l0.1,0.3l0.1,0.4l0,0c0,0,0,0,0,0.1l0,0
				c0,0.1-0.1,0.2-0.1,0.2l0,0c0,0-0.1,0-0.1,0l0,0c-0.1,0-0.1,0-0.2-0.1l0,0l0,0l-0.4-0.7c-0.1,0.2-0.3,0.2-0.4,0.3l0,0
				c-0.1,0-0.1,0-0.2,0.1l0,0c0,0-0.1,0.1-0.2,0.1l0,0c0,0-0.1,0-0.1,0l0,0c-0.1,0-0.1-0.1-0.1-0.2l0,0c0-0.1,0-0.1,0-0.2l0,0
				c0.1-0.1,0.2-0.1,0.2-0.2l0,0c0-0.1,0-0.2-0.1-0.2l0,0l0,0l0,0l-0.1-0.1l0,0c-0.1-0.1-0.1-0.1-0.2-0.1l0,0l-0.4-0.3l0,0
				c-0.3-0.4-0.5-0.9-0.5-1.4l0,0C10,23.2,9.5,23.3,9,23.3l0,0c-0.4,0-0.8,0-1.3-0.1l0,0c-0.7,0-1.4-0.3-2-0.8l0,0
				c0,0.1,0,0.2,0,0.3l0,0c0,0.5,0.2,1,0.5,1.3l0,0v0l0,0c0.7,0.8,1.6,1.4,2.5,2l0,0c1,0.5,3.1,1.3,3.3,1.4l0,0l0.2,0.1l0,0
				L12.6,27.6z M21.5,26l-0.2,1.4l0,0l0.7-2c0,0,0.1-0.1,0.1-0.1l0,0c0,0,0.1,0,0.1,0.1l0,0l0.6,1.6l0,0l-0.4-2.6v-0.3
				c-0.1,0-0.3,0.1-0.4,0.3l0,0c-0.2,0.4-0.3,0.8-0.4,1.1l0,0C21.6,25.7,21.6,25.9,21.5,26L21.5,26z M21.5,27.3l1.1-0.3l-0.5-1.3
				L21.5,27.3L21.5,27.3z M33.2,26.1H34h0.5C34,25.8,33,25,33,22.8l0,0c0,0,0-0.1,0-0.1c0,0,0,0,0.1,0l0,0c0.1,0,0.1,0,0.1,0.1l0,0
				c0.1,3,1.9,3.3,1.9,3.3l0,0c0.7,0,1.3-0.1,1.7-0.1l0,0c-0.5-0.7-0.7-1.4-0.7-2.3l0,0c0-0.3,0-0.6,0.1-0.9l0,0
				c0.6-2.1,0.9-4.2,1-6.4l0,0c0-0.6,0-1.3-0.1-1.9l0,0c-0.1-1.5-0.4-2.9-0.8-4.3l0,0c-0.2,0.2-0.4,0.4-0.4,0.4l0,0L35,11.3
				c-0.4,0.5-0.9,0.9-1.5,1.2l0,0c-0.2,0.1-0.4,0.2-0.6,0.3l0,0l-0.8,3.1c0,0.1-0.1,0.1-0.1,0.1l0,0c0,0,0,0-0.1,0c0,0,0-0.1,0-0.1
				l0,0l0.8-3h-0.2c-0.1,0-0.2,0-0.3,0l0,0c-2.2,2.7-3.6,6.1-4,9.5l0,0c0.1-0.1,0.1-0.1,0.2-0.2l0,0l0.8-0.6l0,0
				c1-0.8,2-1.6,2.9-2.6l0,0c0.1-0.1,0.2-0.2,0.3-0.3l0,0c0.4-0.2,0.8-0.3,1.2-0.3l0,0c0.1,0,0.2,0,0.3,0l0,0c0,0,0.1,0,0.1,0
				c0,0,0,0,0,0.1l0,0c0,0,0,0.1,0,0.1c0,0,0,0-0.1,0h-0.2c-0.3,0-0.7,0.1-1,0.3l0,0v0.2l0,0c0,2.4-2.3,5.5-2.5,6l0,0
				C30.1,25,30,25.2,30,25.3l0,0c0,0.2,0,0.4,0.1,0.6l0,0l0,0h0.1h0.2l0,0c0.2,0,0.4,0,0.7,0l0,0l0.9,0l0,0c-0.4-0.3-0.8-0.6-1.2-1
				l0,0c0,0,0,0,0-0.1c0,0,0-0.1,0-0.1l0,0c0,0,0.1,0,0.1,0l0,0c0.4,0.5,1,0.9,1.6,1.1l0,0l0,0l0,0h0.6L33.2,26.1z M13,25.9L13,25.9
				L13,25.9L13,25.9L13,25.9c0-0.1-0.1-0.4-0.1-0.4l0,0l-0.1-0.4l-0.1-0.3l-0.1-0.3c0,0,0-0.1,0-0.1l0,0c0,0,0.1,0,0.1,0l0,0
				c0,0,0.1,0,0.1,0.1l0,0l0.5,0.6l0.2,0.4h0.1l0,0l0,0l0,0c0.1,0,0.1,0,0.1-0.1l0,0c0,0,0,0,0-0.1l0,0L13.4,25l0,0
				c-0.1-0.2-0.2-0.4-0.4-0.5l0,0c0,0,0-0.1,0-0.1l0,0c0,0,0.1,0,0.1,0l0,0l0.5,0.2l0.6,0.4l0,0l0,0l0,0l-0.5-0.6l0,0
				c-0.1-0.1-0.2-0.1-0.3-0.2l0,0c-0.1,0-0.1-0.1-0.1-0.2l0,0l0,0l0,0l-0.1-0.1l0,0L13,23.5l0,0c-0.2-0.1-0.3-0.2-0.5-0.3l0,0
				c-0.1,0-0.5,0-0.6-0.4l0,0l0,0c0.1-0.4,0.3-0.8,0.5-1.3l0,0l0.3-0.6l0.1-0.2l0,0c0.2-0.3,0.3-0.6,0.4-1l0,0c0,0,0-0.1,0.1-0.1
				l0,0c0,0,0.7-0.1,0.7-0.4l0,0c0-0.1,0-0.2,0-0.3l0,0c0-0.3-0.1-0.7-1.8-1.3l0,0c-0.4,0.3-0.7,0.6-0.9,1l0,0
				c-0.2,0.4-0.3,0.8-0.4,1.2l0,0c-0.1,0.4-0.2,0.9-0.2,1.3l0,0c0,0.1,0,0.1,0,0.2l0,0c0,0.4,0,0.9,0.1,1.3l0,0c0,0,0,0,0,0.1l0,0
				c0,0.5,0.1,1,0.4,1.4l0,0l0.4,0.3l0,0c0,0,0.3,0.2,0.4,0.3l0,0C12,24.9,12,25,12,25.2l0,0c0,0,0,0.1,0,0.1l0,0
				c-0.1,0.1-0.1,0.1-0.2,0.2l0,0c0,0,0,0,0,0.1l0,0l0,0l0,0c0.1-0.1,0.2-0.1,0.3-0.1l0,0c0.1,0,0.1,0,0.2-0.1l0,0
				c0,0,0.1-0.1,0.1-0.1l0,0c0-0.1,0-0.2,0-0.2l0,0l0,0c0,0,0-0.1,0.1-0.1l0,0c0,0,0.1,0,0.1,0.1l0,0L13,25.9L13,25.9z M21.3,25.7
				c0,0.1,0,0.1,0,0.2l0,0c0.1-0.1,0.1-0.2,0.1-0.3l0,0c0.1-0.4,0.2-0.8,0.4-1.2l0,0c0.2-0.2,0.4-0.3,0.6-0.4l0,0c0,0,0.1,0,0.1,0
				c0,0,0,0,0,0.1l0,0v0.1c0.1-0.2,0.2-0.4,0.2-0.6l0,0c0-0.1,0-0.2,0-0.3l0,0c-0.1-0.3-0.1-0.7-0.2-1l0,0c0-0.1,0-0.3,0.1-0.4l0,0
				c0.1-0.2,1.1-1.5,1.9-2.8l0,0c0.1-0.1,0.1-0.3,0.2-0.4l0,0c0.3-0.5,0.4-1,0.4-1.5l0,0c0,0,0-0.1,0-0.1l0,0v-0.1l0.6-1.3l-0.3,0.1
				l0,0l-2,0.3l0,0c-0.1,0.2-0.2,0.5-0.3,0.7l0,0c-0.3,0.3-0.6,0.7-0.7,1.1l0,0c-0.2,0.6-0.3,1.2-0.4,1.8l0,0l-0.4,1.3l0,0
				c-0.2,0.5-0.3,1.1-0.4,1.3l0,0c-0.2,0.3-0.4,0.7-0.5,1.1l0,0c0,0.1,0,0.2,0,0.3l0,0c0,0.1,0,0.2,0.1,0.3l0,0c0,0,0,0,0,0l0,0l0,0
				l0,0c0,0.1,0.1,0.1,0.1,0.2l0,0v0.1L21.3,25.7L21.3,25.7z M28.7,12.9c0.1,0,0.1,0.1,0.1,0.1l0,0c0,0.2-0.3,1.3-0.3,1.5l0,0
				c0,0.1,0,0.2,0,0.3l0,0c0,0.1,0,0.3,0.1,0.4l0,0c0.1,0.4,0.2,0.8,0.3,1.3l0,0c0,0,0,0,0,0.1l0,0c-0.1,0.5-0.1,1.1-0.3,1.6l0,0
				c0,0.1,0,0.2,0,0.2l0,0l-0.1,0.3L28,19.4c0,0-0.7,1.3-0.8,1.6l0,0c-0.2,0.4-0.3,0.9-0.3,1.4l0,0c0,0.4,0.1,0.8,0.2,1.2l0,0
				l0.2,0.8c0.4,1.2,0.5,1.2,0.9,1.3l0,0h0l0,0c0-0.1,0-0.3,0.1-0.4l0,0c0.1-0.5,0.2-0.9,0.4-1.3l0,0c0.2-0.8,0.3-1.6,0.4-2.4l0,0
				c-0.3,0.2-0.5,0.4-0.6,0.5l0,0c-0.1,0.2-0.2,0.3-0.4,0.5l0,0c0,0-0.1,0.1-0.1,0.1l0,0c0,0-0.1-0.1-0.1-0.1l0,0
				c0.4-3.6,1.8-7.1,4-10l0,0c-1-0.4-1.8-1-2.5-1.8l0,0c0,0,0,0.1,0,0.1l0,0c-0.1,0.6-0.5,1-1,1.3l0,0c-0.1,0-0.2,0.1-0.3,0.2l0,0
				c-0.2,0.4-0.4,1-0.5,1l0,0c-0.1,0.1-0.1,0.2-0.2,0.3l0,0l0,0c-0.3,0.5-0.6,1-1,1.5l0,0c-0.1,0.1-0.3,0.2-0.4,0.3l0,0
				c0,0,0,0,0,0.1l0,0l0,0L25.4,17c0,0,0,0.1,0,0.1l0,0c0,0.5-0.2,1-0.4,1.5l0,0c0.7-0.2,1.4-0.3,2.2-0.3l0,0
				c0.6-0.1,0.9-0.1,1.1-0.1l0,0c0,0,0-0.1,0-0.2l0,0c0.1-0.5,0.2-1,0.3-1.5l0,0v-0.1l0,0c0-0.4-0.1-0.8-0.2-1.2l0,0
				c-0.1-0.1-0.1-0.3-0.1-0.4l0,0c0-0.1,0-0.2,0-0.3l0,0c0-0.2,0.3-1.3,0.4-1.5l0,0C28.5,12.9,28.6,12.9,28.7,12.9L28.7,12.9
				L28.7,12.9z M24.1,24.4c0,0.1,0,0.4,0.3,0.4l0,0c0.2,0,0.4,0,0.6,0l0,0c0.2,0,0.5,0,0.7-0.1l0,0c0.2-0.1,0.3-0.3,0.3-0.4l0,0l0,0
				l0,0c0-0.1-0.2-0.2-0.4-0.4l0,0c-0.1-0.2-0.2-0.4-0.3-0.6l0,0c0,0,0-0.1,0-0.1l0,0c0-0.1,0.1-0.2,0.1-0.3l0,0c0,0,0-0.1,0-0.2
				l0,0c0-0.2,0-0.4,0.1-0.6l0,0l0.9-1.4l0,0c0.3-0.7,0.5-1.4,0.5-2.2l0,0c-0.7,0.1-1.4,0.2-2.2,0.3l0,0c0,0.3,0,1.5,0,1.9l0,0v0.2
				l0,0c0,0.1,0,0.2,0,0.3l0,0c0,0.3,0,0.6-0.2,0.8l0,0c-0.2,0.2-0.3,0.5-0.4,0.8l0,0l0,0l0,0c0,0.1,0,0.2,0,0.3l0,0
				c0,0.1,0,0.2,0,0.4l0,0C24.4,23.7,24.2,24.3,24.1,24.4L24.1,24.4L24.1,24.4L24.1,24.4z M5.6,21.2c0,0.3,0.1,0.6,0.3,0.9l0,0
				l0.1,0.1l0,0c0.6,0.5,1.3,0.8,2,0.8l0,0c0.4,0,0.9,0.1,1.3,0.1l0,0c0.5,0,1-0.1,1.4-0.4l0,0c0-0.4,0-0.9-0.1-1.3l0,0
				c0-0.1,0-0.1,0-0.2l0,0c0-0.4,0.1-0.9,0.2-1.3l0,0c-0.7-0.6-1.4-1.2-2-1.8l0,0c-0.2,0.1-0.5,0.3-0.7,0.4l0,0
				c-0.2,0.1-0.3,0.2-0.4,0.3l0,0c-0.2,0.3-0.4,0.6-0.5,0.9l0,0c0,0,0,0.1,0,0.1l0,0l0,0l0,0c0,0.2,0.2,0.4,0.3,0.6l0,0
				c0.2,0,0.3,0,0.5,0.2l0,0c0.1,0.3,0.2,0.6,0.3,0.8l0,0L8.9,22l0,0c0,0,0,0.1,0,0.1l0,0c0,0-0.1,0-0.2,0l0,0L8,21.5l0,0
				c-0.1-0.2-0.2-0.7-0.3-0.9l0,0c-0.1-0.1-0.3-0.1-0.4-0.1l0,0c-0.3,0-0.6,0-0.8,0l0,0C6.1,20.7,5.8,20.9,5.6,21.2L5.6,21.2
				C5.5,21.1,5.5,21.2,5.6,21.2L5.6,21.2z M4.1,20c0,0.3-0.1,0.5-0.1,0.8h0c0,0.4,0.1,0.7,0.7,0.7l0,0c0.2-0.1,0.4-0.2,0.6-0.4l0,0
				c0,0,0,0,0.1-0.1l0,0c0.3-0.3,0.7-0.5,1.2-0.7H7c-0.1-0.2-0.2-0.4-0.2-0.6l0,0l0,0l0,0v0l0,0l-0.4-0.2l0,0
				c-0.1-0.1-0.3-0.2-0.4-0.2l0,0l-0.4-0.1l0,0c-0.2,0-0.3,0-0.5,0H5C4.8,19.3,4.1,19.7,4.1,20L4.1,20z M21.1,21.3
				C21.1,21.3,21.1,21.3,21.1,21.3L21.1,21.3v0.1l0,0C21.1,21.4,21.1,21.4,21.1,21.3L21.1,21.3l0.3-0.2l0.2-0.3l0,0l0,0
				c0.2-0.6,0.4-1.2,0.4-1.2l0,0c0.1-0.6,0.2-1.2,0.4-1.7l0,0c-0.1,0-0.1,0-0.2,0l0,0c-0.2,0-0.3,0.1-0.4,0.2l0,0l-0.4,0.3l0,0
				C21,18.7,21,18.6,21,18.7l0,0c0,0.1-0.2,0.7-0.2,0.8l0,0l0,0l0,0c0,0.1,0,0.3-0.1,0.4l0,0c-0.1,0.1-0.2,0.1-0.4,0.2l0,0
				c0,0-0.1,0-0.1-0.1l0,0c0-0.1-0.1-0.1-0.1-0.2l0,0C20,19.7,20,19.6,20,19.7h0l0,0l0,0c0,0.1-0.1,0.2-0.2,0.2l0,0l0.1,0.1l0,0
				l0.3,0.3c0.1,0.1,0.3,0.2,0.4,0.3l0,0h0.1l0,0c0.1,0,0.3-0.1,0.4-0.2l0,0l0,0l0,0c0-0.1,0-0.3,0-0.3l0,0C21,19.9,21,19.7,21,19.6
				l0,0c0-0.1,0-0.2,0-0.3l0,0c0-0.1,0.1-0.1,0.1-0.1l0,0c0.1,0,0.1,0.1,0.1,0.1l0,0c0,0.1,0,0.2,0,0.3l0,0c0,0.1,0,0.2,0.1,0.2l0,0
				c0,0,0.1,0,0.1-0.1l0,0c0-0.2,0.1-0.3,0.2-0.5l0,0c0,0,0,0,0.1-0.1c0,0,0.1,0,0.1,0l0,0c0.1,0,0.1,0.1,0.1,0.1l0,0
				c-0.1,0.1-0.1,0.3-0.2,0.4l0,0c0,0.2-0.1,0.3-0.3,0.3l0,0l0,0.3l0,0c0,0.2-0.1,0.3-0.1,0.4l0,0C21.1,20.9,21,21.1,21.1,21.3
				L21.1,21.3L21.1,21.3L21.1,21.3z M13.9,21L13.9,21c0.7-0.1,1.3-0.4,1.7-0.9l0,0c0.2-0.3,0.3-0.6,0.3-1l0,0c0-0.6-0.3-1.2-0.7-1.6
				l0,0c0,0,0-0.1,0-0.2l0,0c0,0,0.1,0,0.1,0l0,0c0.4,0.5,0.7,1.1,0.7,1.7l0,0c0,0.3-0.1,0.7-0.2,1l0,0c0.9-0.2,1-1.4,1.1-1.8l0,0
				c0-0.1-0.1-0.3-0.1-0.4l0,0c0,0-0.1-0.4-0.2-0.8l0,0c0-0.1-1.1-1.6-1.1-1.7l0,0c0,0-0.1-0.1-0.1-0.1l0,0c-0.5-0.3-1-0.5-1.5-0.6
				l0,0c0,0.1-0.1,0.1-0.2,0.1l0,0c-0.1,0-0.3,0.1-0.4,0.1l0,0c-0.1,0-0.2,0-0.3-0.1l0,0h-0.1l0,0h-0.1l0,0l-0.1,0.1l0,0
				c-0.1,0-0.2,0.1-0.3,0.1l0,0c0,0.1-0.1,0.3-0.1,0.3l0,0c0,0.1-0.1,0.3-0.1,0.4l0,0c0,0.1,0,0.3-0.1,0.4l0,0
				c-0.1,0.1-0.2,0.1-0.4,0.2h-0.2c-0.1,0-0.2,0-0.3-0.1l0,0c-0.1-0.1-0.2-0.3-0.3-0.3l0,0l0,0l0,0l-1,0.4c0,0-1,0.3-1.3,0.3l0,0
				c-0.3,0-1.2,0.3-1.1,0.7l0,0l0,0l0,0v0.2l0,0v0.3l0,0c0,0.2,0,0.2,0.1,0.3l0,0c0.1,0.1,0.2,0.2,0.3,0.2l0,0
				c0.2-0.1,0.5-0.3,0.6-0.3l0,0l-0.2-0.2l0,0c0,0,0-0.1,0-0.1l0,0c0,0,0.1,0,0.2,0l0,0L8.8,18l0,0c0.6,0.7,1.2,1.3,1.9,1.8l0,0
				c0.1-0.4,0.3-0.7,0.4-1.1l0,0c0.2-0.5,0.6-0.8,1-1.1l0,0h0.1c1.7,0.6,2,1.1,2,1.5l0,0c0,0.1,0,0.2,0,0.3l0,0
				c-0.1,0.4-0.6,0.5-0.8,0.5l0,0c-0.1,0.3-0.2,0.6-0.3,0.8l0,0c0,0,0,0,0.1,0l0,0C13.4,21,13.7,21.1,13.9,21L13.9,21z M6.1,19.1
				c0.3,0.1,0.5,0.3,0.8,0.5l0,0c0.1-0.3,0.3-0.6,0.5-0.9l0,0c0.1-0.1,0.2-0.2,0.3-0.3l0,0l-0.3-0.2l0,0c-0.1-0.1-0.2-0.3-0.2-0.5
				l0,0v-0.3l0,0v-0.2l0,0l0,0l0,0c0-0.7,1.1-0.9,1.3-0.9l0,0c0.2,0,1.3-0.3,1.3-0.3l0,0l0.9-0.4c-0.1-0.1-0.1-0.3-0.1-0.4l0,0
				c0-0.1,0-0.1,0-0.2l0,0c0.1-0.2,0.1-0.5,0.3-0.7l0,0l-0.4-1l0,0c0,0-0.6-0.8-0.7-1l0,0c-0.3-0.4-0.5-0.8-0.6-1.3l0,0
				c-0.8,0.1-1.6,0.2-2.4,0.2l0,0c-0.2,0-0.5,0-0.8,0l0,0c-0.4,0.5-0.6,1.1-0.6,1.7l0,0c0,1,0.3,2.6,0.3,3H5.7h0.1
				c0,0.5-0.1,0.9-0.2,1.3l0,0c-0.1,0.3-0.1,0.6-0.1,0.9l0,0c0,0.3,0.1,0.7,0.2,1l0,0l0,0L6.1,19.1L6.1,19.1z M4.8,11
				c-0.6,0.5-0.9,1.3-0.9,2.1l0,0l0,0l0,0c0,0.6,0,1.4,0,2.1l0,0c0.1,0.9-0.1,1.8-0.4,2.6l0,0l-0.2,0.3l0,0c0,0-0.2,0.3-0.2,0.4l0,0
				c0,0,0,0,0.1,0l0,0c0.4,0,0.7,0,0.9,0.3l0,0c0.1,0.1,0.1,0.1,0.2,0.2l0,0c0.2,0,0.3,0.1,0.5,0l0,0L5,19h0.1h0.3l0,0
				c-0.1-0.3-0.2-0.7-0.2-1l0,0c0-0.3,0-0.6,0.1-0.9l0,0c0.1-0.4,0.2-0.9,0.2-1.3l0,0l0,0c0-0.4-0.3-1.9-0.3-3l0,0
				c0-0.6,0.2-1.2,0.6-1.7l0,0C5.5,11.1,5.1,11,4.8,11L4.8,11L4.8,11z M2.1,18.2c0.1,0,0.2,0.1,0.4,0.1l0,0c0.1,0,0.3,0.1,0.4,0.1
				l0,0C2.9,18.3,3,18.1,3.1,18l0,0c0.1-0.1,0.1-0.1,0.1-0.2l0,0c0.3-0.8,0.5-1.6,0.4-2.5l0,0c0-0.7,0-1.5,0-2.1l0,0l0,0l0,0
				c0-0.8,0.3-1.6,0.9-2.2l0,0c-0.1,0-0.3-0.1-0.4-0.1l0,0c-0.5,0.6-0.8,1.3-0.8,2.1l0,0l-0.3,3c0,0,0,0,0,0.1H3
				c0,0.2-0.1,0.5-0.2,0.7l0,0l-0.4,0.9l0,0c-0.1,0.2-0.1,0.3-0.1,0.3l0,0C2.2,18,2.1,18.1,2,18.2h0l0,0L2.1,18.2L2.1,18.2z M3.4,11
				c-0.3,0.5-0.5,1.1-0.5,1.6l0,0c0,0.9-0.1,1.7-0.3,2.5l0,0c-0.4,0.7-0.9,1.4-1.4,1.9l0,0c0,0.1-0.1,0.1-0.1,0.2l0,0
				c0,0.1,0,0.2,0.1,0.2l0,0L1.9,18l0,0c0.1-0.1,0.2-0.2,0.3-0.3l0,0c0,0,0-0.1,0.1-0.3l0,0l0.4-0.9l0,0c0.1-0.2,0.1-0.4,0.2-0.6
				l0,0l0,0l0.2-3c0-0.8,0.3-1.5,0.8-2.1l0,0l-0.2-0.1l0,0C3.6,10.8,3.5,10.9,3.4,11L3.4,11z M15.7,15.2c0,0,0.8,1.1,1.1,1.6l0,0
				l1.4-0.3c0.4-0.2,0.4-0.3,0.5-0.4l0,0C18.7,16,18.9,16,19,16l0,0c0.2-0.1,0.4-0.2,0.6-0.3l0,0c0.1-0.1,0.2-0.1,0.3-0.1l0,0H20
				l0,0c0.1,0,0.2,0.1,0.2,0.2l0,0h0.2l0,0h0.2l0,0c0.2-0.1,0.3-0.2,0.2-0.4l0,0c0-0.1,0-0.2,0-0.3l0,0c0-0.2-0.5-0.4-0.5-0.4l0,0
				c0,0,0,0-0.1-0.1l0,0c0,0,0-0.1,0-0.1l0,0c0-0.1,0.1-0.1,0.1-0.2l0,0c0-0.1,0-0.1-0.1-0.2l0,0l0,0c-0.1-0.2-0.2-0.3-0.4-0.3l0,0
				c-0.1,0-0.1,0-0.2,0l0,0c-0.3-0.1-0.6-0.3-0.8-0.5l0,0c0-0.1-1-0.1-1.4-0.2h-0.1c-0.2,0-0.5,0.2-0.6,0.4l0,0
				c-0.1,0.1-0.3,0.2-0.4,0.3l0,0c0,0-0.3,0.2-0.4,0.3l0,0c-0.1,0.1-0.1,0.1-0.2,0.2l0,0l-0.1,0.1l0,0c-0.1,0-0.1,0.2-0.1,0.3l0,0
				c0,0.1,0,0.3,0,0.4l0,0C15.6,15.2,15.7,15.3,15.7,15.2L15.7,15.2L15.7,15.2L15.7,15.2z M10.4,3.8c0,0,0,0.1,0,0.1l0,0
				c-0.3,0.6-0.6,1.1-0.9,1.7l0,0C9.4,6.1,9.3,6.5,9.3,6.9l0,0c0,0.1,0,0.2,0,0.2l0,0c0,0.6,0,1.1-0.1,1.7l0,0c0,0.1,0,0.2,0,0.3
				l0,0v0.1l0,0c0,0.2,0,0.4,0.1,0.6l0,0c0,0.3,0.1,0.7,0.2,1l0,0c0.1,0.5,0.3,0.9,0.6,1.4l0,0c0.1,0.2,0.7,1,0.7,1l0,0
				c0,0,0.4,1,0.4,1.1l0,0C11,14.5,11,14.7,10.9,15l0,0c0,0,0,0.1,0,0.1l0,0c0,0.1,0,0.3,0.1,0.4l0,0v0.1l0,0
				c0.1,0.1,0.2,0.3,0.3,0.3l0,0c0.1,0,0.1,0,0.2,0h0.1c0.1,0,0.2-0.1,0.3-0.1l0,0c0-0.1,0-0.1,0-0.2l0,0c0-0.2,0-0.3,0.1-0.5l0,0
				l0.1-0.3l0,0c0,0,0,0,0-0.1l0,0v0l0,0c0.1-0.1,0.2-0.1,0.3-0.2l0,0c0.1-0.1,0.1-0.1,0.2-0.1l0,0c0.1,0,0.2,0,0.3,0.1l0,0
				c0.1,0,0.1,0,0.2,0l0,0c0.1,0,0.2,0,0.3,0l0,0h0.1l0,0c0,0-0.1-0.1-0.1-0.1l0,0c-0.2-0.1-0.4-0.2-0.6-0.3l0,0
				c-0.1-0.1-0.2-0.1-0.4-0.1l0,0c-0.3-0.1-0.5-0.7-0.7-1.2l0,0c-0.2-0.6-0.3-1.2-0.3-1.8l0,0l0,0l0,0l0,0l0,0
				c0-0.6-0.2-1.3-0.4-1.9l0,0c0-0.1-0.1-0.1-0.1-0.2l0,0c0,0,0-0.1,0-0.1l0,0c0-0.1,0-0.1,0.1-0.2l0,0c0.3-0.4,0.5-0.9,0.6-1.4l0,0
				c0.1-0.3,0.3-0.5,0.6-0.6l0,0c0.2-0.1,0.4-0.3,0.5-0.5l0,0c0.1-0.2,0.3-0.4,0.3-0.7l0,0c0-0.2,0.1-0.3,0.1-0.5l0,0
				c0-0.2-0.1-0.5-0.2-0.7l0,0c-0.1-0.2-0.3-0.4-0.5-0.6l0,0c-0.1-0.1-0.2-0.2-0.3-0.2l0,0c-0.3-0.1-0.7-0.2-1-0.2l0,0
				c-0.4,0-2.4,0.3-2.9,0.9l0,0C7.7,4.5,7.4,5,7.4,5.3l0,0c0,0.2,0.1,0.4,0.2,0.5l0,0c0.4,0.5,0.9,1,1.3,1l0,0c0.1,0,0.1,0,0.2,0
				l0,0c0-0.4,0.1-0.8,0.3-1.2l0,0C9.6,5,9.9,4.4,10.3,3.9l0,0C10.3,3.9,10.3,3.8,10.4,3.8L10.4,3.8L10.4,3.8L10.4,3.8z M23.5,13.5
				c-0.3,0.3-0.5,0.6-0.5,1l0,0c0,0,0,0.1,0,0.1l0,0c0.1,0.4,0.3,0.9,0.3,1.1h0.1l2-0.2l0.3-0.1l0,0c0.2-0.1,0.4-0.2,0.5-0.3l0,0
				c0.1-0.1,0.3-0.4,0.5-0.7l0,0c-0.1,0.1-0.3,0.1-0.5,0.1l0,0c-0.1,0-0.2,0-0.3-0.1l0,0l-0.3-0.1l0,0l-0.2,0.2h-0.1
				c-0.4,0-0.5-0.6-0.6-0.7l0,0c0-0.1-0.1-0.1-0.2-0.1l0,0l-0.3-0.1l0,0c0,0-0.4-0.3-0.5-0.4l0,0C23.7,13.3,23.6,13.4,23.5,13.5
				L23.5,13.5z M25.4,14.3l0.2-0.2h0.1l0.2,0.1l0,0l0,0l0,0l0.2-0.1c0,0,0.1,0,0.1,0l0,0c0,0,0,0.1,0,0.1l0,0l-0.1,0.1
				c0.1,0,0.1,0,0.2,0l0,0c0.2,0,0.5-0.1,0.9-0.6l0,0c0.1-0.1,0.1-0.2,0.2-0.3l0,0c0,0,0.2-0.6,0.5-1l0,0l0,0c0,0,0.3-0.1,0.3-0.2
				l0,0c0.6-0.2,0.9-1.1,0.9-1.1l0,0v-0.1l0,0c0-0.1,0-0.2,0-0.2l0,0c0,0,0-0.1,0-0.1c0,0,0,0,0.1,0l0,0c0,0,0.1,0,0.1,0l0,0
				c0.7,0.9,1.6,1.6,2.7,2l0,0c0.1,0,0.3,0,0.4,0l0,0c0.2,0,0.5-0.1,0.7-0.2l0,0c-1.9-0.6-2.6-1.5-2.6-2.4l0,0C30.7,9,31.2,8,32,7.3
				l0,0c-0.1,0-0.2,0-0.3,0l0,0c-0.2,0-0.3,0-0.5,0.1l0,0C30,7.9,29.3,10,29.3,10l0,0c0,0,0,0.1,0,0.1c0,0,0,0-0.1,0l0,0
				c-0.1,0-0.1-0.1-0.1-0.1l0,0c0.3-1.1,1-2.1,2-2.7l0,0c-0.2,0-0.4,0-0.5,0l0,0c-1.4,0.1-2.7,0.4-3.9,1l0,0
				c-0.3,0.1-0.5,0.3-0.8,0.6H26c0.1,0,0.1,0,0.2,0l0,0L26.6,9l0,0c0.1,0,0.2,0.1,0.3,0.1l0,0c0.2,0,0.7,0.2,0.7,0.2l0,0
				c0.1,0,0.4-0.1,0.5,0.2l0,0c0,0,0,0,0,0.1l0,0l0,0.1l0,0c0.1,0,0.2,0.1,0.3,0.3l0,0l0,0l0,0c0,0.1-0.1,0.2-0.1,0.2l0,0
				c0,0,0.2,0.3,0.2,0.4l0,0c0,0.1,0,0.1,0,0.2l0,0c0,0.1,0,0.2-0.1,0.2l0,0v0l0,0c0,0,0,0.1,0,0.1l0,0c0,0.1,0,0.2-0.1,0.2l0,0
				c0,0-0.1,0.2-0.2,0.3l0,0c-0.1,0.1-0.2,0.3-0.3,0.4l0,0c-0.1,0.1-0.3,0.1-0.3,0.1l0,0c-0.1,0.2-0.3,0.3-0.5,0.3l0,0
				c-0.1,0.1-0.3,0.1-0.5,0.2l0,0c-0.1,0-0.2,0-0.2-0.1l0,0c0-0.1-0.1-0.3-0.1-0.4l0,0c0-0.1,0-0.2,0-0.2l0,0
				c0.1-0.2,0.2-0.2,0.2-0.3l0,0c0,0,0-0.1,0-0.1l0,0c0,0,0,0,0-0.1l0,0c-0.1-0.1-0.1-0.2-0.2-0.3l0,0c0-0.1,0-0.2,0.1-0.2l0,0
				c0.2-0.3,0.4-0.6,0.5-0.9l0,0c0,0,0-0.1,0-0.1l0,0c0,0,0-0.1,0-0.1l0,0c-0.2-0.1-0.3-0.2-0.5-0.3l0,0c-0.2-0.1-0.4-0.1-0.7-0.1
				h-0.2c-0.1,0-0.2,0-0.3,0l0,0c-0.2,0.1-0.5,0.2-0.5,0.3l0,0L24.3,10l0,0l-0.4,0.3c-0.3,0.4-0.5,0.8-0.5,1.3l0,0v0.1l0,0
				c0,0.2,0,0.4,0,0.5l0,0c0,0.2,0.1,0.5,0.3,0.7l0,0c0,0.1,0.6,0.5,0.6,0.5l0,0h0.3l0,0c0.2,0,0.3,0.1,0.4,0.3l0,0
				C25,13.9,25.2,14.3,25.4,14.3L25.4,14.3L25.4,14.3L25.4,14.3z M26.5,9.3c0.2,0.1,0.4,0.2,0.5,0.3l0,0c0.1,0.1,0.1,0.2,0.1,0.3
				l0,0c0,0.1,0,0.1,0,0.2l0,0c-0.2,0.4-0.3,0.7-0.6,1l0,0c0,0,0,0,0,0.1l0,0c0,0,0.1,0.1,0.1,0.2l0,0c0,0.1,0.1,0.1,0.1,0.2l0,0
				c0,0.1,0,0.1,0,0.2l0,0c-0.1,0.1-0.2,0.2-0.2,0.3l0,0c0,0.1,0,0.1,0,0.2l0,0c0,0.1,0,0.2,0.1,0.3l0,0l0,0c0.1,0,0.3-0.1,0.4-0.1
				l0,0c0.1,0,0.2,0,0.3-0.1l0,0l0,0l0,0c0.1-0.2,0.4-0.1,0.4-0.2l0,0c0.1-0.1,0.2-0.2,0.3-0.4l0,0c0.1-0.1,0.1-0.2,0.2-0.3l0,0
				c0,0,0-0.1,0-0.1l0,0c0,0,0-0.1-0.1-0.1l0,0c0-0.1,0.1-0.1,0.1-0.2l0,0c0,0,0,0,0-0.1l0,0c0,0,0-0.1,0-0.1l0,0
				c-0.1-0.1-0.2-0.3-0.3-0.4l0,0c0,0,0,0,0-0.1l0,0c0-0.1,0-0.2,0-0.3l0,0l0,0l0,0l-0.1-0.1l0,0c0,0-0.1-0.1-0.1-0.1l0,0
				c0-0.1,0-0.1,0.1-0.2h-0.1h-0.2l0,0c-0.1,0-0.6-0.2-0.7-0.2l0,0C26.8,9.4,26.6,9.3,26.5,9.3L26.5,9.3c-0.1-0.1-0.2-0.2-0.4-0.2
				h-0.3h-0.3l0,0c-0.2,0.1-0.4,0.1-0.6,0.2l0,0c-0.2,0.1-0.4,0.2-0.6,0.3l0,0c-0.2,0-0.1,0.4-0.5,0.6l0,0c-0.1,0-0.2,0.1-0.2,0.1
				l0,0c-0.1,0.2-0.1,0.4-0.3,0.6l0,0l0,0l0,0c0,0,0,0.1,0,0.1l0,0c0,0.1,0,0.2,0,0.3l0,0c0,0,0,0.1,0,0.1l0,0l0,0l0,0
				c0,0,0,0.1,0,0.1l0,0c0-0.5,0.2-0.9,0.5-1.3l0,0l0.4-0.3c0,0,0.3-0.2,0.3-0.3l0,0c0.1-0.1,0.4-0.2,0.5-0.3l0,0
				c0.1-0.1,0.3-0.1,0.4-0.1h0.2C26,9.2,26.2,9.2,26.5,9.3L26.5,9.3z M32.3,7.4C31.5,8,30.9,9,30.8,10l0,0c0,0.8,0.6,1.7,2.6,2.2
				l0,0c0.5-0.3,1-0.6,1.4-1.1l0,0l0.9-0.7c0,0,0.9-0.8,0.9-1.4l0,0c0-0.8-0.6-1.4-1.4-1.4l0,0h-0.3l0,0l-0.7,0.2h-0.1
				c-0.4-0.3-0.9-0.5-1.4-0.4L32.3,7.4L32.3,7.4z M17.2,11.6l0.3,0.1l0,0c0.2,0,0.5,0.1,0.7,0.1l0,0c0.1,0,0.2,0,0.3,0l0,0
				c0.2,0,0.3-0.9,0.3-0.9l0,0c0-0.1,0-0.1,0-0.2l0,0c0-0.1,0-0.2-0.1-0.4l0,0c0-0.1,0-0.2-0.1-0.3l0,0c-0.1-0.3-0.2-0.5-0.2-0.8
				l0,0c0,0,0,0,0-0.1l0,0l0,0l0,0c0-0.2-0.1-0.3-0.2-0.5l0,0C18.1,8.5,18,8.2,18,8l0,0V7.9l0,0c0.1-0.3,0.2-0.6,0.5-0.8l0,0L18.6,7
				l0,0h-0.1h-0.1c-0.3,0-0.5,0.2-0.6,0.4l0,0c-0.1,0.1-0.3,0.2-0.4,0.4l0,0c-0.2,0.5-0.3,1.1-0.5,1.6l0,0c0,0.2,0,0.3-0.1,0.5l0,0
				c-0.1,0.2-0.6,0.7-0.6,1l0,0c0,0.1,0,0.1,0.1,0.1l0,0c0.4,0.3,0.6,0.3,0.6,0.6l0,0L17.2,11.6L17.2,11.6z M4.1,10.6
				c0.2,0.1,0.5,0.1,0.7,0.2l0,0c0.4,0.1,0.8,0.1,1.3,0.1l0,0c0.3,0,0.6,0,0.8,0l0,0c0.8,0,1.6-0.1,2.3-0.2l0,0
				C9.1,10.4,9,10.1,9,9.8l0,0C8.9,9.6,8.9,9.4,8.9,9.2l0,0C8.7,9.4,8.3,9.7,7.8,10l0,0c-0.2,0.1-0.3,0.2-0.5,0.2l0,0
				c-0.4-0.1-0.8-0.3-1.2-0.6l0,0C6,9.6,5.9,9.5,5.7,9.5l0,0c-0.4,0-0.9,0.1-1.3,0.2H4.4C4,9.7,3.8,9.6,3.5,9.4l0,0
				c0,0.1-0.1,0.2-0.1,0.3l0,0c0,0.3,0.1,0.6,0.3,0.8l0,0L4.1,10.6L4.1,10.6z M21,10.9c0.1,0,0.2,0,0.2,0l0,0
				c0.1-0.1,0.2-0.2,0.3-0.3l0,0c0.1-0.1,0.1-0.1,0.1-0.2l0,0c0-0.1,0-0.2,0-0.3l0,0c0,0,0-0.1,0-0.1l0,0V9.9l0,0
				c0-0.1,0-0.2-0.1-0.3l0,0c0,0,0,0,0-0.1s0-0.1,0-0.1l0,0l0,0l0,0l-0.1-0.1l0,0l-0.1-0.1l0,0c0,0-0.1-0.1-0.1-0.1l0,0V9.1l0,0
				c0,0,0,0,0-0.1l0,0c-0.1-0.1-0.1-0.3-0.1-0.4l0,0c0,0-0.1-0.2-0.1-0.3l0,0c-0.1-0.2-0.2-0.3-0.2-0.3l0,0L20.8,8
				c0-0.1-0.1-0.2-0.1-0.2l0,0l-0.1-0.1l0,0l0,0c0-0.2-0.2-0.1-0.3-0.4l0,0c0-0.1-0.3-0.2-0.3-0.3l0,0c-0.1-0.1-0.4-0.2-0.4-0.2l0,0
				c-0.1,0-0.2,0-0.3,0.1l0,0c0.1,0,0.3,0,0.4,0.1l0,0L20,7.3l0,0c0.1,0.1,0.3,0.2,0.4,0.3l0,0c0.1,0.1,0.2,0.2,0.2,0.4l0,0
				c0,0,0,0.1,0,0.1c0,0,0,0-0.1,0l0,0c-0.1,0-0.1,0-0.1-0.1l0,0c0-0.1-0.1-0.2-0.1-0.2l0,0c-0.1-0.1-0.3-0.2-0.4-0.3l0,0l-0.3-0.2
				l0,0c-0.1,0-0.3,0-0.4-0.1l0,0c-0.2,0-0.4,0.1-0.6,0.2l0,0c-0.2,0.2-0.3,0.4-0.4,0.7l0,0v0l0,0c0,0.2,0.1,0.3,0.2,0.4l0,0
				c0.1,0.2,0.2,0.4,0.2,0.6l0,0l0,0l0,0l0,0c0,0.2,0,0.3,0.1,0.5l0,0c0.5,0.2,1.1,0.2,1.7,0.2l0,0c0.2-0.1,0.3-0.2,0.5-0.3l0,0
				c0,0,0,0,0-0.1l0,0c0-0.2-0.1-0.3-0.1-0.5l0,0l0,0l0,0c0,0,0-0.1,0-0.1l0,0C20.6,9,20.5,9,20.3,9.1l0,0c0,0-0.1,0-0.1,0
				s0,0,0-0.1l0,0c0,0,0-0.1,0-0.1c0,0,0,0,0.1,0l0,0c0.2,0,0.3-0.1,0.5-0.2l0,0h0.1l0,0c0-0.2-0.1-0.4-0.1-0.4l0,0c0,0,0-0.1,0-0.1
				c0,0,0,0,0.1,0l0,0c0,0,0.1,0,0.1,0c0,0,0,0,0,0.1l0,0c0,0,0.1,0.6,0.1,0.8l0,0c0.1,0.2,0.1,0.3,0.1,0.5l0,0c0,0.1,0,0.2-0.1,0.2
				l0,0c-0.1,0.1-0.3,0.2-0.4,0.3l0,0V10l0,0c0,0.2,0.1,0.5,0.3,0.6l0,0C20.9,10.7,20.9,10.7,21,10.9L21,10.9L21,10.9z M23,10.8
				c0-0.1,0-0.1,0.1-0.2l0,0c0,0,0.1-0.3,0.2-0.5l0,0c0.1-0.1,0.2-0.2,0.3-0.3l0,0c0.3,0,0.1-0.4,0.5-0.5l0,0
				C24.4,9.2,24.6,9,24.8,9l0,0c0.1,0,0.4-0.1,0.6-0.2l0,0h0.2l0,0c0,0,0,0,0-0.1l0,0c0.2-0.3,0.5-0.5,0.8-0.6l0,0
				c-0.6-0.4-1-1-1.1-1.7l0,0V6.3l0,0l-0.1,0.1c0,0,0,0.1-0.1,0.2l0,0c-0.1,0.1,0,0.2-0.2,0.3h0c-0.2-0.1-0.3-0.4-0.3-0.4l0,0V6.4
				l0.2-0.8L25,4.8c-0.4,0.2-0.8,0.3-1.2,0.3l0,0c-0.4-0.1-0.7-0.7-0.8-1l0,0l0,0l0,0c0,0,0,0,0,0.1l0,0c0,0.1,0,0.2,0.1,0.4l0,0
				c0,0.1,0,0.1,0,0.2l0,0C23,5,23,5.2,23,5.4l0,0c-0.1,0.1-0.2,0.2-0.3,0.2l0,0h-0.1l0,0l-0.1,0.1l0,0c0,0-0.1,0-0.1,0l0,0
				c0,0,0-0.1,0-0.1l0,0c0,0,0-0.3,0.1-0.4l0,0c0-0.1-0.2-0.5-0.2-0.6l0,0c-0.1-0.5-0.2-1-0.2-1.4l0,0c0.1-0.3,0.2-0.7,0.3-1l0,0
				c0.1-0.3,0.2-0.6,0.3-0.9l0,0l0.1-0.2l0,0C22.5,1,22.2,1,22,1.1l0,0c-0.3,0-0.5,0.1-0.8,0.3h0l-0.6,0.1l0,0
				c-0.2,0-0.3,0.1-0.9,0.7l0,0c-0.2,0.2-0.3,0.5-0.3,0.7l0,0c0,0.1,0,0.3,0.1,0.4l0,0l0,0l0,0c0.1,0,0.1,0,0.2,0l0,0
				c0.6,0.2,1.1,0.6,1.5,1.1l0,0c0.1,0.1,0.1,0.2,0.1,0.4l0,0c0.1,0,0.1-0.1,0.2-0.1l0,0l-0.2-0.8c0-0.1,0-0.1,0.1-0.1l0,0
				c0.1,0,0.1,0,0.1,0.1l0,0L21.8,5l0,0l0,0c0.1,0.4,0.2,0.8,0.2,1.3l0,0c0,0.4-0.1,0.9-0.3,1.3l0,0c0,0-0.4,0.8-0.4,0.9l0,0
				c0,0,0,0.1,0,0.1l0,0c0,0.1,0.1,0.2,0.1,0.4l0,0c0,0.1,0,0.1,0,0.2l0,0v0.1l0,0c0.1,0.1,0.2,0.2,0.3,0.3l0,0c0,0,0,0.1,0,0.1l0,0
				c0.1,0.1,0.1,0.2,0.1,0.3l0,0c0,0,0,0.1,0,0.1l0,0v0.1l0,0c0,0,0,0.1,0,0.1l0,0L23,10.8L23,10.8z M14.1,8.5
				c-0.1,0.2-0.2,0.4-0.2,0.6l0,0l0,0l0,0l0,0l0,0c0,0.1,0,0.2,0,0.3l0,0c0,0.2,0,0.3,0.2,0.3l0,0c0.1,0,0.2,0.1,0.2,0.1l0,0
				c0.2,0.2,0.5,0.2,0.8,0.3l0,0c0.1,0,0.3,0,0.4-0.1l0,0c0.1-0.1,0.2-0.2,0.2-0.4l0,0c0-0.1,0-0.1,0-0.2l0,0l0.1-0.1
				c0,0,0.2-0.1,0.2-0.2l0,0c0,0,0-0.1,0-0.1l0,0l-0.2-0.3c0,0,0-0.1,0-0.1l0,0c0,0,0-0.1,0.1-0.1l0,0l0.5-0.1h0.1l0,0l-0.4,0l0,0
				l-0.6-0.1l0,0c0,0.1,0,0.1,0,0.2l0,0c0,0.1,0,0.1-0.1,0.1l0,0c-0.1,0.1-0.3,0.1-0.4,0.1l0,0h-0.1l0,0l-0.1-0.1
				c-0.1,0-0.1-0.1,0-0.1l0,0c0,0,0.1,0,0.1,0l0,0l0.1,0l0,0c0.1,0,0.2,0,0.3-0.1l0,0c0,0,0-0.1-0.1-0.1l0,0l-0.3-0.1l-0.3-0.1
				C14.4,8.4,14.2,8.4,14.1,8.5L14.1,8.5z M6.2,9.5c0.3,0.2,0.6,0.6,1,0.6l0,0c0.2,0,0.3-0.1,0.4-0.1l0,0c0.4-0.3,0.8-0.5,1-0.7l0,0
				L7.8,8.9c-0.2,0-1.1-0.4-1.2-0.4l0,0C6.3,8.4,5.9,8.3,5.7,8.1l0,0C5.3,7.9,5.1,7.5,5,7.1l0,0C5,7,5.1,6.3,5.1,5.8l0,0
				C4.5,6.2,4.1,6.7,3.8,7.3l0,0c0,0-0.5,0.6-0.7,0.8l0,0c0,0,0,0.1,0,0.2l0,0c0,0.2,0,0.4,0.1,0.5l0,0C3.3,8.8,3.5,9,3.6,9.1l0,0
				l0,0l0,0l0,0l0,0c0.2,0.2,0.5,0.3,0.7,0.4h0.1c0.4-0.1,0.9-0.2,1.3-0.2l0,0C5.9,9.3,6.1,9.3,6.2,9.5L6.2,9.5z M12,8.7
				c0,0.1,0,0.2,0,0.2l0,0c0.2,0.5,0.7,0.9,1.2,0.9l0,0h0.6l0,0c-0.1-0.1-0.2-0.3-0.2-0.5l0,0c0-0.1,0-0.2,0-0.3l0,0l0,0l0,0l0,0
				l0,0c0-0.3,0.1-0.5,0.2-0.7l0,0c0.2-0.1,0.3-0.2,0.5-0.3h0.1h0.1c-0.2-0.2-0.4-0.3-0.6-0.5l0,0l0,0l0,0c-0.5,0.2-1.5,0.6-1.5,0.6
				l0,0L12,8.4C12,8.5,12,8.6,12,8.7L12,8.7z M5.8,8c0.3,0.2,0.5,0.3,0.8,0.3l0,0c0.3,0,1.1,0.4,1.3,0.4l0,0l0.9,0.3l0,0L9,9l0,0
				c0-0.1,0-0.2,0-0.2l0,0c0.1-0.5,0.1-1.1,0.1-1.7l0,0c0,0,0-0.1,0-0.1l0,0H8.9l0,0c-0.5,0-1-0.5-1.4-1.1l0,0
				C7.3,5.8,7.2,5.5,7.2,5.3l0,0c0.1-0.6,0.4-1.1,0.9-1.5l0,0C8.7,3.4,9.4,3.1,10.1,3H9.9C9.6,3,9.4,3,9.1,3.1l0,0
				C8.5,3.2,7.8,3.3,7.2,3.6l0,0c-0.3,0.2-0.6,0.8-1,1l0,0C5.9,4.8,5.5,4.9,5.4,5.4l0,0c0,0.1,0,0.2-0.1,0.3l0,0
				C5.3,6.2,5.2,7,5.2,7.1l0,0C5.3,7.4,5.5,7.7,5.8,8L5.8,8z M12.3,6.7c-0.3,0.1-0.4,0.2-0.5,0.5l0,0c-0.1,0.5-0.3,1-0.7,1.5l0,0
				l0.7-0.3L12.5,8c0,0,0.9-0.3,1.5-0.6l0,0l0.3-0.1l0,0c0-0.1,0-0.2,0-0.3l0,0l0,0.1l0,0l-0.5,0.4c0,0-0.1,0-0.1,0l0,0
				c0,0,0-0.1,0-0.2l0,0l0.5-0.3c0.1,0,0.1-0.1,0.2-0.2l0,0c0.2-0.2,0.2-0.5,0.2-0.8l0,0c0,0,0-0.1,0-0.1l0,0l-1.5,0.4l0,0
				c0,0-0.1,0-0.1,0l0,0C12.7,6.5,12.5,6.6,12.3,6.7L12.3,6.7z M25.6,6.4C25.6,7.1,26,7.7,26.6,8l0,0c0.9-0.4,1.8-0.7,2.8-0.9l0,0
				c-0.2-0.2-0.4-0.4-0.6-0.6l0,0c-0.3-0.2-0.6-0.4-0.9-0.5l0,0c0,0-0.1,0-0.1-0.1c0,0,0-0.1,0-0.1l0,0c0-0.1,0.1-0.1,0.1-0.1l0,0
				c0.3,0.1,0.5,0.2,0.8,0.4l0,0c-0.1-0.3-0.2-0.6-0.3-0.8l0,0c-0.5-0.9-1.3-1.5-2.2-1.9l0,0c0,0,0,0.1,0,0.1l0,0l0,0
				c0,0.1,0.1,0.3,0.1,0.5l0,0c0,0.1,0,0.1,0,0.2l0,0l-0.1,0.1l0,0c0,0,0,0,0,0l0,0c0,0.1,0,0.4-0.1,0.6l0,0
				c-0.1,0.1-0.1,0.1-0.1,0.2l0,0c0,0.1,0,0.2,0,0.4l0,0c0,0.1,0,0.3-0.1,0.4l0,0c0,0-0.1,0.1-0.1,0.1l0,0
				C25.6,6.2,25.6,6.2,25.6,6.4L25.6,6.4z M25,6.6V6.5l0,0c0-0.1,0-0.2,0.1-0.2l0,0V6.2l0.1-0.1c0.1,0,0.1-0.1,0.2-0.1l0,0l0.1-0.1
				l0,0c0-0.1,0.1-0.2,0.1-0.3l0,0c0-0.2,0-0.3,0-0.4l0,0c0-0.1,0.1-0.3,0.2-0.4l0,0c0,0,0.1-0.4,0.1-0.4l0,0c0-0.2,0.2-0.2,0.2-0.3
				l0,0l0,0l0,0C26,4.1,26,3.8,26,3.7l0,0V3.6l0,0c0-0.1,0-0.2,0.1-0.3l0,0v0l0,0c0-0.2,0.1-0.4,0.1-0.6l0,0l0,0l0,0l0,0l0,0
				c0-0.1,0.1-0.3,0.1-0.4l0,0l0,0l0,0c-0.1-0.3-0.2-0.7-0.4-1l0,0c-0.1-0.2-0.6-0.3-0.6-0.3l0,0h-0.1c-0.3-0.3-0.7-0.4-1.1-0.4H24
				c-0.3,0.1-0.5,0.1-0.8,0.2l0,0c-0.2,0.1-0.3,0.3-0.4,0.4l0,0l0,0l0,0c-0.1,0.1-0.1,0.2-0.2,0.2l0,0c-0.1,0.2-0.2,0.5-0.3,0.8l0,0
				c0,0.1-0.3,0.8-0.3,1l0,0c0,0.5,0.1,0.9,0.2,1.4l0,0c0.1,0.2,0.2,0.4,0.2,0.7l0,0l0,0l0,0c0,0,0,0.1,0,0.2l0,0c0,0,0.1,0,0.1,0
				l0,0h0.1l0,0c0-0.2,0-0.3,0-0.5l0,0c0-0.1,0-0.1,0-0.2l0,0c0-0.1-0.1-0.3-0.1-0.4l0,0c0,0,0-0.1,0-0.1l0,0c0-0.1,0.1-0.2,0.2-0.3
				l0,0c0-0.1,0.1-0.1,0.1-0.2l0,0c0-0.3,0-0.5,0.1-0.7l0,0c0-0.1,0.3-0.5,0.3-0.6l0,0c0.1-0.2,0.3-0.3,0.5-0.3l0,0
				c0.1,0,0.3,0,0.5,0h0.1C24.5,2.2,25,1.7,25,1.7l0,0c0,0,0.1,0,0.1,0l0,0c0,0,0.1,0,0.1,0.1l0,0c0,0,0.1,0.4,0.1,0.5l0,0
				c0.1,0.2,0.2,0.3,0.3,0.4l0,0c0.1,0.2,0.2,0.4,0.2,0.7l0,0c0,0,0,0.1,0,0.1l0,0l-0.7,1.2v0l-0.1,1l-0.2,0.7
				C24.9,6.5,24.9,6.5,25,6.6L25,6.6z M15.4,6.1c0.1,0,0.2,0.1,0.3,0.1l0,0c0.1,0,0.1,0,0.1-0.1l0,0c0-0.1,0.1-0.2,0.2-0.3l0,0l0,0
				l0,0l-0.1-0.2c0,0,0-0.1,0-0.2l0,0c0,0,0,0,0.1,0c0,0,0.1,0,0.1,0l0,0l0.2,0.2c0.1,0,0.1,0,0.2,0l0,0l0.1-0.2l0,0l0,0l0,0h0.1
				l0,0l0,0l0,0c0,0,0.1,0.1,0.1,0.1l0,0c0,0,0,0,0-0.1l0,0c0.1-0.4,0.3-0.8,0.4-1.3l0,0l0.1-0.2l0,0C17,4,16.8,3.9,16.6,3.8l0,0
				l-0.3-0.2c0,0.1-0.1,0.3-0.1,0.4l0,0c-0.1,0.1-0.2,0.2-0.3,0.2h-0.1c0,0-0.3,0.2-0.4,0.3l0,0c-0.2,0.2-0.4,0.3-0.7,0.3l0,0
				c-0.2,0-0.4,0.1-0.6,0.1l0,0c-0.1,0-0.2,0-0.3,0l0,0c0,0-0.1,0-0.1,0l0,0c-0.1,0-0.2,0-0.3,0l0,0c-0.1,0-0.2,0-0.2-0.1l0,0
				l-0.1-0.1l0,0c0,0.1,0,0.2,0,0.3l0,0c0,0.2,0,0.4-0.1,0.6l0,0c0,0.2,0,0.3,0,0.5l0,0l1.4-0.4h0.1l0.1,0L15.2,6l0,0L15.4,6.1
				L15.4,6.1z M19.1,5.8c0.1,0,0.2,0.1,0.3,0.1l0,0c0.1,0,0.2,0,0.3-0.1l0,0c0.4-0.2,0.6-0.2,0.6-0.3l0,0V5.4l0,0c0-0.1,0-0.1,0-0.2
				l0,0c-0.1-0.5,0-0.3-0.2-0.4l0,0c-0.1-0.1-0.2-0.2-0.2-0.2h-0.1l0,0l0,0l0,0l0,0c0,0,0,0,0,0.1l0,0l0.1,0.1l0,0L20.1,5l0,0
				c0,0,0,0.1,0,0.1l0,0c0,0-0.1,0-0.1,0l0,0L19.7,5l0,0l-0.4-0.2c-0.1-0.1-0.3-0.1-0.4-0.1l0,0h-0.3l0,0h-0.2l0,0
				c-0.3,0-0.5,0.1-0.7,0.3l0,0L17.5,5l0,0c0.1,0.1,0.2,0.1,0.3,0.1H18l0,0l0,0c0-0.1,0.1-0.1,0.2-0.1l0,0c0.1,0,0.1,0,0.2,0.1l0,0
				c0,0,0.6,0.6,0.6,0.6l0,0H19.1z M19.8,4.3c0.1,0,0.1,0,0.2,0.1l0,0c0.1,0.1,0.1,0.2,0.2,0.2l0,0c0.1,0.1,0.2,0.1,0.3,0.5l0,0
				c0,0,0,0.1,0,0.1l0,0c0.1,0,0.3-0.1,0.4-0.1l0,0c0.1,0,0.1-0.1,0.2-0.1l0,0c0-0.1,0.1-0.1,0.1-0.2l0,0c0-0.1,0-0.2-0.1-0.3l0,0
				c-0.2-0.5-1.1-0.9-1.4-1l0,0h-0.1h-0.1c-0.2,0.1-0.4,0.2-0.6,0.3l0,0c-0.1,0-0.1,0.4-0.1,0.6h0.1c0.2,0,0.4,0,0.5,0.2l0,0
				l0.1,0.1l0,0l0,0c0-0.1,0-0.1,0.1-0.2l0,0C19.6,4.4,19.7,4.4,19.8,4.3L19.8,4.3L19.8,4.3z M23,4c0,0,0.3,0.9,0.6,1l0,0
				c0.5,0,0.9-0.1,1.3-0.4l0,0l0.3-0.5h-0.3l0,0l0,0c0,0.1-0.1,0.1-0.1,0.1l0,0c-0.1,0-0.1-0.1-0.1-0.1l0,0V4
				c-0.1,0-0.1-0.1-0.1-0.1l0,0c0,0,0-0.1,0-0.2l0,0c0,0,0.1,0,0.1,0l0,0c0.2,0.1,0.4,0.1,0.6,0.2l0,0l0.3-0.5l0,0
				c0-0.2-0.1-0.3-0.1-0.5l0,0c-0.2-0.2-0.3-0.3-0.4-0.5l0,0c0-0.1,0-0.3,0-0.4l0,0c-0.2,0.1-0.5,0.4-0.6,0.4l0,0
				c-0.1,0-0.1,0-0.2,0l0,0c-0.2,0-0.3,0-0.5-0.1l0,0c-0.1,0-0.3,0.1-0.3,0.1l0,0l-0.3,0.6l0,0c-0.1,0.2-0.1,0.4-0.1,0.6l0,0
				C23.1,3.8,23.1,3.9,23,4L23,4z M14.1,4.5c0.1,0,0.1,0,0.2,0l0,0c0.2,0,0.4,0,0.6-0.1l0,0c0.2,0,0.5-0.1,0.6-0.3l0,0
				c0.1-0.1,0.3-0.3,0.5-0.3h0c0,0,0.1,0,0.2-0.1l0,0c0.1-0.1,0.1-0.2,0.1-0.3l0,0v0l0,0c0,0,0-0.1,0-0.1l0,0c0,0,0.1,0,0.1,0l0,0
				L17,3.6c0.2,0.1,0.4,0.2,0.6,0.3l0,0c0.1,0,0.2,0.1,0.2,0.1l0,0c0.3-0.1,0.2-0.1,0.2-0.2l0,0c0-0.1,0.1-0.3,0.1-0.5l0,0
				c0-0.2-0.1-0.4-0.3-0.5l0,0l-0.1-0.1c0,0-0.3-0.6-0.7-0.6H17h-0.1C16.8,2.1,16.7,2,16.5,2l0,0c-0.3-0.1-0.6-0.2-0.9-0.2h-0.2
				c-0.2,0-0.5-0.1-0.7-0.1l0,0c-0.4,0-0.8,0.1-0.8,0.4l0,0c0,0,0,0.1-0.1,0.1l0,0c-0.2,0-0.3,0.1-0.5,0.1l0,0
				c-0.3,0.1-0.5,0.2-0.4,0.3l0,0l0,0l0,0c0,0.1,0,0.1-0.1,0.1l0,0h-0.2l0,0c-0.1,0-0.2,0.2-0.2,0.3l0,0c0,0,0,0,0,0.1l0,0l0,0
				c0.1,0.1,0.2,0.1,0.3,0.2l0,0c0.2,0.2,0.4,0.4,0.6,0.7l0,0c0,0,0,0.1,0,0.1l0,0c0.2,0.1,0.3,0.2,0.4,0.4h0.1H14l0,0
				C14,4.4,14.1,4.4,14.1,4.5L14.1,4.5z M19,16.8c0,0,0-0.1,0-0.1l0,0c-0.1,0-0.1-0.1-0.1-0.1l0,0c0,0,0-0.1,0-0.1l0,0
				c0,0,0.1,0,0.1,0l0,0c0,0.1,0.4,0.2,0.4,0.2l0,0c0.1,0,0.1,0.1,0.1,0.1l0,0c0,0,0,0.1,0,0.1c0,0-0.1,0-0.1,0l0,0c0,0-0.1,0-0.1,0
				l0,0L19,16.8C19,16.8,19,16.8,19,16.8L19,16.8C19,16.8,18.9,16.8,19,16.8L19,16.8z M25.6,13.5L25.6,13.5l-0.4,0
				c-0.1,0-0.1,0-0.1-0.1l0,0c0-0.1,0-0.1,0.1-0.1l0,0l0.9-0.2c0.1,0,0.1,0,0.1,0.1l0,0c0,0.1,0,0.1-0.1,0.1l0,0l-0.3,0.1l0,0
				c0,0,0,0.1,0,0.2l0,0L25.6,13.5L25.6,13.5C25.7,13.6,25.7,13.6,25.6,13.5L25.6,13.5z M18.9,8.3c0,0,0-0.1,0-0.2l0,0
				c0,0,0.3-0.4,0.6-0.4l0,0c0.1,0,0.1,0,0.1,0.1l0,0c0,0,0,0.1,0,0.1l0,0c0,0,0,0-0.1,0c0,0-0.1,0-0.1,0l0,0l0,0v0.1c0,0,0,0,0,0.1
				c0,0,0,0.1,0,0.1l0,0c0,0-0.1,0-0.1,0l0,0V8l0,0l-0.2,0.2l0,0c0,0-0.1,0-0.1,0l0,0L18.9,8.3L18.9,8.3z M24,4.8
				c-0.1,0-0.3-0.1-0.4-0.2l0,0c0,0,0-0.1,0-0.1l0,0c0,0,0.1,0,0.1,0l0,0c0.1,0.1,0.2,0.1,0.3,0.1l0,0c0.1,0,0.1,0.1,0.1,0.1l0,0
				C24.1,4.8,24.1,4.8,24,4.8L24,4.8L24,4.8z M16.8,4.8l-0.2-0.1l0,0.1c0,0-0.1,0-0.1,0l0,0c0,0,0-0.1,0-0.2l0,0l0-0.1l-0.2-0.1
				c0,0,0-0.1,0-0.1l0,0c0,0,0.1,0,0.1,0l0,0l0.5,0.3c0,0,0,0.1,0,0.2l0,0C16.9,4.8,16.9,4.8,16.8,4.8L16.8,4.8L16.8,4.8L16.8,4.8z
				 M24.1,4.5c-0.2,0-0.3-0.1-0.3-0.2l0,0c0,0,0-0.1,0-0.1l0,0c0,0,0.1,0,0.1,0l0,0l0,0l0,0c0,0,0.1,0,0.1,0l0,0
				c0.1,0,0.1,0.1,0.1,0.1l0,0C24.1,4.4,24.1,4.5,24.1,4.5L24.1,4.5z M23.7,3.7C23.7,3.7,23.6,3.7,23.7,3.7
				c-0.1-0.1-0.1-0.1-0.1-0.1l0,0V3.5c-0.1,0-0.2-0.1-0.2-0.1l0,0c0,0,0-0.1,0-0.1l0,0c0,0,0.1,0,0.1,0l0,0c0.2,0.1,0.4,0.2,0.6,0.2
				l0,0c0.1,0,0.1,0,0.1,0.1l0,0c0,0.1,0,0.1-0.1,0.1l0,0c-0.1,0-0.2,0-0.3,0l0,0v0.1C23.8,3.7,23.8,3.7,23.7,3.7L23.7,3.7L23.7,3.7
				z"/>
			<path id="Path" class="st0" d="M28.8,23.6c-0.6-0.2-0.9-0.5-0.9-0.8l0,0c0-0.2,0.2-0.5,0.4-0.6l0,0c0,0,0,0,0.1,0c0,0,0,0,0.1,0
				l0,0c0,0,0,0.1,0,0.1l0,0c0,0-0.3,0.3-0.3,0.5l0,0c0,0.2,0.1,0.4,0.7,0.6l0,0c0,0,0.1,0.1,0.1,0.1l0,0
				C28.9,23.5,28.9,23.6,28.8,23.6L28.8,23.6L28.8,23.6z"/>
			<path class="st0" d="M36.3,22.9C36.3,22.9,36.3,22.9,36.3,22.9c-0.1-0.1-0.1-0.1-0.1-0.1l0,0c0-0.1,0-0.2,0-0.3l0,0
				c0-1.1-0.3-3.6-0.3-5.3l0,0c0-0.4,0-0.8,0.1-1.2l0,0c0.1-0.5,0.1-0.9,0.1-1.4l0,0c0-0.5,0-1-0.1-1.4l0,0c0,0,0-0.1,0-0.1
				c0,0,0,0,0.1,0l0,0c0.1,0,0.1,0,0.1,0.1l0,0c0.1,0.5,0.1,1,0.1,1.5l0,0c0,0.5,0,0.9-0.1,1.4l0,0c-0.1,0.4-0.1,0.8-0.1,1.1l0,0
				c0,1.7,0.3,4.2,0.3,5.3l0,0c0,0.1,0,0.3,0,0.4l0,0C36.4,22.9,36.4,22.9,36.3,22.9L36.3,22.9L36.3,22.9z"/>
		</g>
		<path class="st0" d="M35,15.5c0,0,0-0.1,0-0.1l0,0l0.8-0.8c0,0,0.1,0,0.2,0l0,0c0,0,0,0.1,0,0.2l0,0l-0.8,0.8
			C35.1,15.5,35.1,15.5,35,15.5L35,15.5C35.1,15.5,35,15.5,35,15.5L35,15.5z"/>
		<path class="st0" d="M36.2,30.1c0,0-1.2-1.3-2.4-2.6l0,0c0,0,0-0.1,0-0.1l0,0c0,0,0,0,0.1,0c0,0,0.1,0,0.1,0l0,0
			c1.1,1.3,2.4,2.5,2.4,2.5l0,0c0,0,0,0.1,0,0.1l0,0C36.3,30.1,36.3,30.1,36.2,30.1L36.2,30.1C36.3,30.1,36.2,30.1,36.2,30.1
			L36.2,30.1z M16.7,29.3C16.7,29.3,16.6,29.3,16.7,29.3c0-0.1,0-0.1,0-0.1l0,0c0,0,1.1-1,1.2-1.4l0,0c0.2-0.4,0.3-0.8,0.3-0.8l0,0
			c0.2-0.5,0.3-1.1,0.4-1.7l0,0c0,0,0,0,0-0.1c0,0,0.1,0,0.1,0l0,0c0.1,0,0.1,0.1,0.1,0.1l0,0c-0.1,0.6-0.2,1.1-0.4,1.7l0,0
			c-0.1,0.3-0.2,0.6-0.4,0.8l0,0c-0.3,0.6-0.8,1.1-1.3,1.5l0,0C16.8,29.3,16.8,29.3,16.7,29.3L16.7,29.3
			C16.7,29.3,16.7,29.3,16.7,29.3L16.7,29.3z M18.8,23.6c-0.2-0.8-2-1.5-2-1.5l0,0c0,0-0.1,0-0.1-0.1s0-0.1,0-0.1l0,0
			c0,0,0,0,0.1-0.1c0,0,0.1,0,0.1,0l0,0c0,0,1.8,0.7,2.1,1.6l0,0C19,23.6,18.9,23.7,18.8,23.6L18.8,23.6
			C18.8,23.7,18.8,23.7,18.8,23.6L18.8,23.6z M14.1,23.6c0,0,0-0.1,0-0.2l0,0c0.4-0.4,1-0.6,1.5-0.6l0,0h0.8l0,0c0,0,0.1,0,0.1,0
			c0,0,0,0,0,0.1l0,0c0,0.1,0,0.1-0.1,0.1l0,0h-0.8l0,0c-0.5,0-1,0.1-1.4,0.5l0,0C14.2,23.6,14.2,23.6,14.1,23.6L14.1,23.6
			C14.1,23.6,14.1,23.6,14.1,23.6L14.1,23.6z M31.5,22.7c-0.1-0.4-0.1-0.9-0.1-1.3l0,0c0-0.2,0-0.3,0-0.3l0,0c0,0,0-0.1,0-0.1
			s0,0,0.1,0l0,0c0,0,0.1,0,0.1,0s0,0,0,0.1l0,0v0.3l0,0c0,0.4,0,0.9,0.1,1.3l0,0c0,0,0,0.1,0,0.1C31.6,22.8,31.6,22.8,31.5,22.7
			L31.5,22.7C31.5,22.8,31.5,22.8,31.5,22.7C31.5,22.8,31.4,22.7,31.5,22.7L31.5,22.7z M12.3,21.9c0,0-0.3-1-0.6-2.1l0,0
			c-0.1-0.5-0.2-1-0.2-1.5l0,0c0-0.1,0-0.3,0-0.4l0,0c0-0.1,0.1-0.1,0.1-0.1l0,0c0.1,0,0.1,0.1,0.1,0.1l0,0c0,0.1,0,0.3,0,0.4l0,0
			c0,0.5,0.1,1,0.2,1.5l0,0c0.2,1.1,0.5,2.1,0.5,2.1l0,0c0,0.1,0,0.1-0.1,0.1l0,0C12.4,21.9,12.3,21.9,12.3,21.9L12.3,21.9z
			 M23.3,21.3C23.3,21.3,23.2,21.3,23.3,21.3c-0.1-0.1-0.1-0.1-0.1-0.1l0,0c0,0,0.7-2.3,1.3-2.6l0,0c0,0,0.1,0,0.1,0
			c0,0,0,0,0.1,0.1l0,0c0,0,0,0.1,0,0.1c0,0,0,0-0.1,0.1l0,0c-0.3,0.4-0.6,0.8-0.7,1.3l0,0c-0.2,0.6-0.4,1.2-0.4,1.2l0,0
			C23.4,21.3,23.4,21.3,23.3,21.3L23.3,21.3L23.3,21.3z M29.6,19.4c-0.1,0-0.1-0.1-0.1-0.1l0,0c0.1-0.4,0.2-0.7,0.3-1.1l0,0
			c0,0,0-0.1,0-0.1c0,0,0.1,0,0.1,0l0,0c0,0,0.1,0,0.1,0c0,0,0,0.1,0,0.1l0,0c-0.1,0.4-0.2,0.8-0.3,1.1l0,0
			C29.7,19.4,29.7,19.4,29.6,19.4L29.6,19.4L29.6,19.4z M30,19c0-0.1,0-0.1,0.1-0.1l0,0l1.9-0.1c0.2,0,0.4-0.1,0.6-0.2l0,0
			c0,0,0.1,0,0.1,0l0,0c0,0,0,0.1,0,0.1l0,0c-0.2,0.1-0.5,0.2-0.7,0.2l0,0l-1.9,0.1l0,0C30.1,19.1,30.1,19.1,30,19
			C30,19.1,30,19,30,19z M21.3,17.8c-0.2,0-0.4,0-0.6-0.1l0,0c0,0-0.1,0-0.1,0c0,0,0-0.1,0-0.1l0,0c0,0,0-0.1,0-0.1c0,0,0.1,0,0.1,0
			l0,0c0.2,0,0.4,0.1,0.6,0l0,0c0.6,0.1,1.2-0.3,1.4-0.8l0,0c0,0,0-0.1,0-0.1c0,0,0.1,0,0.1,0l0,0c0.1,0,0.1,0.1,0.1,0.1l0,0
			C22.6,17.5,22,17.9,21.3,17.8L21.3,17.8L21.3,17.8z M31.2,16.6c0-1-0.7-1.1-1.1-1.1h-0.2c-0.1,0-0.1,0-0.1-0.1l0,0
			c0-0.1,0-0.1,0.1-0.1l0,0c0.1,0,0.2,0,0.3,0l0,0c0.4,0,0.7,0.1,0.9,0.4c0.2,0.3,0.4,0.6,0.3,1l0,0c0,0,0,0.1,0,0.1c0,0,0,0-0.1,0
			l0,0C31.3,16.7,31.2,16.7,31.2,16.6L31.2,16.6z M22.3,14.6c0,0,0-0.1,0-0.1l0,0c0.1,0,0.2-0.1,0.3-0.2l0,0
			c-0.2-0.1-0.4-0.3-0.6-0.4l0,0c-0.1,0-0.2-0.1-0.2-0.2l0,0c0-0.1,0.1-0.2,0.2-0.3l0,0c0,0,0,0,0.1,0c0,0,0.1,0,0.1,0l0,0
			c0,0,0,0.1,0,0.1l0,0c0,0-0.1,0.1-0.1,0.1l0,0c0,0,0,0,0,0l0,0c0.3,0.1,0.5,0.3,0.7,0.4l0,0v0.1C22.7,14.4,22.6,14.5,22.3,14.6
			L22.3,14.6C22.3,14.6,22.3,14.6,22.3,14.6L22.3,14.6z"/>
		<path class="st0" d="M18.8,23.6c0,0,0-0.1,0-0.1l0,0l0.2-0.2c0,0,0.1,0,0.1,0l0,0c0,0,0,0.1,0,0.1l0,0L19,23.6L18.8,23.6
			L18.8,23.6C18.9,23.6,18.8,23.6,18.8,23.6L18.8,23.6z"/>
		<path class="st0" d="M112.7,33.5c0.5,0.7,1.4,1,2.2,1c0.6,0.1,1.2-0.1,1.7-0.5c0.5-0.4,0.7-1,0.8-1.6c-0.1-0.8-0.6-1.5-1.3-1.8
			l0,0c0.7-0.3,1.1-1,1.1-1.7c0-0.6-0.3-1.1-0.7-1.5c-0.4-0.4-1-0.6-1.6-0.5c-0.8,0.1-1.5,0.4-2,1c-0.1,0.1-0.1,0.2,0,0.3l0.4,0.4
			c0,0,0.1,0.1,0.1,0.1c0.1,0,0.1,0,0.1-0.1c0.3-0.4,0.8-0.6,1.3-0.6c0.6,0,1.2,0.5,1.2,1.1c0,0.6-0.5,1.2-1.5,1.2H114
			c-0.2,0-0.2,0.1-0.2,0.2v0.5c0,0.1,0,0.1,0.1,0.2c0,0,0.1,0.1,0.2,0.1h0.6c1.2,0,1.7,0.6,1.7,1.3c0,0.3-0.2,0.7-0.4,0.9
			c-0.3,0.2-0.6,0.3-0.9,0.3c-0.6,0-1.1-0.3-1.5-0.7c0,0-0.1-0.1-0.1-0.1c-0.1,0-0.1,0-0.1,0.1l-0.4,0.4
			C112.7,33.3,112.7,33.3,112.7,33.5C112.7,33.4,112.7,33.5,112.7,33.5L112.7,33.5z M109.5,33.5c-1.2,0-1.6-1.2-1.5-2.1
			c0.3-0.5,0.9-0.8,1.5-0.8c0.8,0,1.5,0.7,1.5,1.5C111,32.9,110.3,33.5,109.5,33.5L109.5,33.5z M106.9,31.5c0,1.7,0.8,3,2.6,3
			c1.4,0,2.4-1.1,2.4-2.5c0-0.6-0.2-1.2-0.6-1.7s-1-0.7-1.6-0.7c-0.5,0-1,0.2-1.5,0.4c0.5-1.1,1.4-2,2.6-2.4
			c0.2-0.1,0.3-0.2,0.2-0.3l-0.2-0.4c0-0.1-0.1-0.1-0.1-0.1c-0.1,0-0.1,0-0.2,0C109.5,27.2,106.9,28.4,106.9,31.5L106.9,31.5z
			 M101.9,32.5c0.1-0.7,0.7-1.3,1.4-1.3c0.7,0,1.3,0.6,1.4,1.3c0,0.3-0.2,0.7-0.4,0.9c-0.3,0.2-0.6,0.3-1,0.3
			c-0.3,0-0.7-0.1-0.9-0.3C102.1,33.1,102,32.8,101.9,32.5L101.9,32.5z M103.3,30c-0.8-0.1-1.2-0.6-1.2-1.2c0-0.3,0.1-0.6,0.3-0.8
			c0.2-0.2,0.5-0.3,0.8-0.3c0.3,0,0.6,0.1,0.9,0.3c0.2,0.2,0.4,0.5,0.4,0.8C104.5,29.4,104.1,29.9,103.3,30L103.3,30z M100.7,32.3
			c0,0.6,0.3,1.2,0.8,1.6c0.5,0.4,1.1,0.6,1.7,0.5c1.6,0,2.5-0.9,2.5-2.1c-0.1-0.8-0.6-1.5-1.3-1.8v-0.1c0.6-0.3,1.1-1,1.1-1.7
			c-0.2-1.1-1.2-2-2.3-2c-1.2,0-2.1,0.9-2.3,2c0,0.7,0.5,1.4,1.1,1.7l0,0C101.3,30.8,100.8,31.5,100.7,32.3L100.7,32.3z M95.5,34.3
			h3.8c0.1,0,0.1,0,0.1-0.1c0,0,0.1-0.1,0.1-0.1v-0.5c0-0.1,0-0.1-0.1-0.1c0,0-0.1-0.1-0.1-0.1h-1.2v-6.3c0-0.1-0.1-0.2-0.2-0.2
			h-0.5l-1.6,1.5c0,0.1,0,0.2,0,0.2l0.1,0.4c0,0.1,0.1,0.1,0.2,0.1l1-0.5v4.9h-1.6c-0.1,0-0.1,0-0.1,0.1c0,0-0.1,0.1-0.1,0.1v0.5
			c0,0.1,0,0.1,0.1,0.1C95.4,34.3,95.5,34.3,95.5,34.3L95.5,34.3z M85.6,30.5c-0.1-1,0.5-2,1.4-2.6c0.9-0.5,2-0.5,2.9,0
			c0.9,0.5,1.4,1.5,1.4,2.6c-0.1,1.5-1.3,2.7-2.8,2.7S85.7,32,85.6,30.5L85.6,30.5z M84.5,30.5c0,2.2,1.8,3.9,3.9,3.9
			c2.2,0,3.9-1.8,3.9-3.9c0-2.2-1.8-3.9-3.9-3.9c-1,0-2,0.4-2.8,1.1C84.9,28.5,84.5,29.5,84.5,30.5L84.5,30.5z M76.7,34.1
			c0,0.1,0.1,0.2,0.2,0.2h0.7c0.1,0,0.2-0.1,0.2-0.2v-5.3l0,0l4.7,5.6h0.3c0.1,0,0.2-0.1,0.2-0.2v-7.3c0-0.1-0.1-0.2-0.2-0.2h-0.7
			c-0.1,0-0.2,0.1-0.2,0.2v5.1l0,0l-4.7-5.5h-0.3c-0.1,0-0.2,0.1-0.2,0.2V34.1z M70.7,31.7l1.3-3l0,0l1.3,3H70.7z M68.7,34.3h0.7
			c0.1,0,0.2-0.1,0.3-0.2c0.2-0.5,0.4-1,0.7-1.5h3.6l0.7,1.5c0,0.1,0.1,0.2,0.3,0.2h0.7c0.1,0,0.1,0,0.2-0.1c0-0.1,0-0.1,0-0.2
			l-3.3-7.3c0-0.1-0.1-0.1-0.2-0.1H72c-0.1,0-0.2,0.1-0.2,0.1L68.4,34c0,0.1,0,0.1,0,0.2C68.5,34.3,68.5,34.3,68.7,34.3L68.7,34.3z
			 M63.5,34.1c0,0.1,0.1,0.2,0.2,0.2h3.9c0.1,0,0.2-0.1,0.2-0.2v-0.6c0-0.1-0.1-0.2-0.2-0.2h-2.9v-6.4c0-0.1-0.1-0.2-0.2-0.2h-0.7
			c-0.1,0-0.2,0.1-0.2,0.2V34.1z M60.2,34.1c0,0.1,0.1,0.2,0.2,0.2h0.7c0.1,0,0.2-0.1,0.2-0.2v-7.2c0-0.1-0.1-0.2-0.2-0.2h-0.7
			c-0.1,0-0.2,0.1-0.2,0.2V34.1z M50.2,34.1c0,0.1,0,0.1,0,0.2c0,0,0.1,0.1,0.2,0.1h0.7c0.1,0,0.2-0.1,0.2-0.2l0.8-4.9h0l2,5
			c0,0.1,0.1,0.1,0.2,0.1h0.2c0.1,0,0.2,0,0.2-0.1l2-5l0,0l0.8,4.9c0,0.1,0.1,0.1,0.2,0.2h0.7c0.1,0,0.1,0,0.2-0.1
			c0-0.1,0.1-0.1,0-0.2l-1.3-7.3c0-0.1-0.1-0.2-0.2-0.2H57c-0.1,0-0.2,0-0.2,0.1l-2.3,5.6l0,0l-2.3-5.6c0-0.1-0.1-0.1-0.2-0.1h-0.2
			c-0.1,0-0.2,0.1-0.2,0.2L50.2,34.1z"/>
		<path class="st0" d="M141.8,16.1c0-1.4,0.9-2.8,2.2-3.3c1.3-0.6,2.9-0.3,3.9,0.8c1,1,1.3,2.6,0.8,3.9c-0.6,1.3-1.9,2.2-3.3,2.2
			C143.5,19.7,141.9,18.1,141.8,16.1L141.8,16.1z M139.9,16.1c0,3.1,2.5,5.6,5.6,5.6c3.1,0,5.6-2.5,5.6-5.6s-2.5-5.6-5.6-5.6
			c-1.5,0-2.9,0.6-4,1.6C140.4,13.2,139.8,14.6,139.9,16.1L139.9,16.1z M129,16.1c0,1.5,0.6,2.9,1.6,4c1.1,1,2.5,1.6,4,1.6
			c1.4,0,2.8-0.5,3.8-1.5c0.1-0.1,0.1-0.3,0-0.4l-1-1c-0.1-0.1-0.3-0.1-0.4,0c-0.7,0.6-1.5,0.9-2.4,0.9c-0.9,0-1.8-0.4-2.5-1.1
			c-0.7-0.7-1-1.6-1-2.5c0-0.9,0.3-1.9,1-2.5c0.7-0.7,1.6-1.1,2.5-1.1c0.9,0,1.7,0.3,2.4,0.9c0,0.1,0.1,0.1,0.2,0.1s0.1,0,0.2-0.1
			l0.9-1c0.1-0.1,0.1-0.1,0.1-0.2c0-0.1,0-0.2-0.1-0.2c-1-1-2.4-1.5-3.8-1.4c-1.5,0-2.9,0.6-4,1.6S129,14.6,129,16.1L129,16.1z
			 M124.9,21.2c0,0.2,0.1,0.3,0.3,0.3h1.4c0.2,0,0.3-0.1,0.3-0.3V11c0-0.2-0.1-0.3-0.3-0.3h-1.4c-0.2,0-0.3,0.1-0.3,0.3V21.2z
			 M113.1,21.2c0,0.2,0.1,0.3,0.3,0.3h1.4c0.1,0,0.2,0,0.2-0.1s0.1-0.1,0.1-0.2v-6.6l0,0l6.5,7.1h0.4c0.1,0,0.2,0,0.2-0.1
			c0.1-0.1,0.1-0.1,0.1-0.2V11c0-0.2-0.1-0.3-0.3-0.3h-1.4c-0.1,0-0.2,0-0.2,0.1s-0.1,0.1-0.1,0.2v6.4l0,0l-6.5-6.9h-0.4
			c-0.2,0-0.3,0.1-0.3,0.3L113.1,21.2z M101.6,16.1c0,1.5,0.6,2.9,1.6,4c1.1,1,2.5,1.6,4,1.6c1.4,0,2.8-0.5,3.8-1.5
			c0.1-0.1,0.1-0.3,0-0.4l-1-1c-0.1-0.1-0.3-0.1-0.4,0c-0.7,0.6-1.5,0.9-2.4,0.9c-0.9,0-1.8-0.4-2.5-1.1c-0.7-0.7-1-1.6-1-2.5
			c0-0.9,0.3-1.9,1-2.5c0.7-0.7,1.5-1.1,2.5-1.1c0.9,0,1.7,0.3,2.4,0.9c0,0.1,0.1,0.1,0.2,0.1c0.1,0,0.1,0,0.2-0.1l1-1
			c0.1-0.1,0.1-0.1,0.1-0.2c0-0.1,0-0.2-0.1-0.2c-1-1-2.4-1.5-3.8-1.4c-1.5,0-2.9,0.6-4,1.6S101.6,14.6,101.6,16.1L101.6,16.1z
			 M93.1,21.2c0,0.2,0.1,0.3,0.3,0.3h6.3c0.1,0,0.2,0,0.2-0.1s0.1-0.1,0.1-0.2V20c0-0.1,0-0.2-0.1-0.2c-0.1-0.1-0.1-0.1-0.2-0.1
			h-4.6V17H99c0.2,0,0.3-0.1,0.3-0.3v-1.3c0-0.2-0.1-0.3-0.3-0.3h-3.8v-2.5h4.6c0.1,0,0.2,0,0.2-0.1c0.1-0.1,0.1-0.1,0.1-0.2V11
			c0-0.1,0-0.2-0.1-0.2s-0.1-0.1-0.2-0.1h-6.3c-0.2,0-0.3,0.1-0.3,0.3V21.2z M86.7,21.2c0,0.2,0.1,0.3,0.3,0.3h1.4
			c0.2,0,0.3-0.1,0.3-0.3v-8.7h2.4c0.1,0,0.2,0,0.2-0.1c0.1-0.1,0.1-0.1,0.1-0.2V11c0-0.1,0-0.2-0.1-0.2s-0.1-0.1-0.2-0.1h-6.8
			c-0.1,0-0.2,0-0.2,0.1S84,10.9,84,11v1.3c0,0.1,0,0.2,0.1,0.2c0.1,0.1,0.1,0.1,0.2,0.1h2.4V21.2z M80,21.2c0,0.2,0.1,0.3,0.3,0.3
			h1.5c0.2,0,0.3-0.1,0.3-0.3V11c0-0.2-0.1-0.3-0.3-0.3h-1.5c-0.2,0-0.3,0.1-0.3,0.3L80,21.2z M71.7,21.2c0,0.1,0,0.2,0.1,0.2
			s0.1,0.1,0.2,0.1h5.7c0.1,0,0.2,0,0.2-0.1c0.1-0.1,0.1-0.1,0.1-0.2V20c0-0.1,0-0.2-0.1-0.2c-0.1-0.1-0.1-0.1-0.2-0.1h-4V11
			c0-0.2-0.1-0.3-0.3-0.3H72c-0.1,0-0.2,0-0.2,0.1s-0.1,0.1-0.1,0.2L71.7,21.2z M60.9,16.1c0-1.4,0.9-2.8,2.2-3.3
			c1.3-0.6,2.9-0.3,3.9,0.8c1,1,1.3,2.6,0.8,3.9c-0.6,1.3-1.9,2.2-3.3,2.2C62.5,19.7,60.9,18.1,60.9,16.1L60.9,16.1z M58.9,16.1
			c0,3.1,2.5,5.6,5.6,5.6c3.1,0,5.6-2.5,5.6-5.6c0-3.1-2.5-5.6-5.6-5.6c-1.5,0-2.9,0.6-4,1.6C59.5,13.2,58.9,14.6,58.9,16.1
			L58.9,16.1z M52.3,15.7v-3.1h1.8c0.4,0,0.8,0.1,1.1,0.4c0.3,0.3,0.5,0.7,0.5,1.1c0,0.4-0.2,0.8-0.5,1.1c-0.3,0.3-0.7,0.5-1.1,0.5
			H52.3z M50.3,21.2c0,0.1,0,0.2,0.1,0.2c0.1,0.1,0.1,0.1,0.2,0.1H52c0.2,0,0.3-0.1,0.3-0.3v-3.6h1.9c1.3,0.1,2.5-0.6,3.2-1.7
			s0.7-2.5,0-3.6s-1.9-1.7-3.2-1.7h-3.7c-0.1,0-0.2,0-0.2,0.1c-0.1,0.1-0.1,0.1-0.1,0.2L50.3,21.2z"/>
	</g>
</g>
</svg>
