<?xml version="1.0" encoding="utf-8"?>
<!-- Generator: Adobe Illustrator 17.0.0, SVG Export Plug-In . SVG Version: 6.00 Build 0)  -->
<!DOCTYPE svg PUBLIC "-//W3C//DTD SVG 1.1//EN" "http://www.w3.org/Graphics/SVG/1.1/DTD/svg11.dtd">
<svg version="1.1" id="Capa_1" xmlns="http://www.w3.org/2000/svg" xmlns:xlink="http://www.w3.org/1999/xlink" x="0px" y="0px"
	 width="541.131px" height="242.063px" viewBox="0 0 541.131 242.063" enable-background="new 0 0 541.131 242.063"
	 xml:space="preserve">
<g>
</g>
<g>
	<rect x="147.657" y="220.002" fill="#FFFFFF" stroke="#000000" stroke-miterlimit="10" width="251.576" height="22.061"/>
	<rect x="147.657" y="65.574" fill="#EF8311" stroke="#000000" stroke-miterlimit="10" width="251.576" height="22.061"/>
	<rect x="147.657" y="175.879" fill="#EF8311" stroke="#000000" stroke-miterlimit="10" width="251.576" height="22.061"/>
	<rect x="147.657" y="87.635" fill="#EF8311" stroke="#000000" stroke-miterlimit="10" width="251.576" height="22.061"/>
	<rect x="147.657" y="109.696" fill="#EF8311" stroke="#000000" stroke-miterlimit="10" width="251.576" height="22.061"/>
	<rect x="147.657" y="197.94" fill="#EF8311" stroke="#000000" stroke-miterlimit="10" width="251.576" height="22.061"/>
	<rect x="147.657" y="0" fill="#EF8311" stroke="#000000" stroke-miterlimit="10" width="251.576" height="22.061"/>
	<rect x="147.657" y="153.818" fill="#FFFFFF" stroke="#000000" stroke-miterlimit="10" width="251.576" height="22.061"/>
	<rect x="147.657" y="220.002" fill="#FFFFFF" stroke="#000000" stroke-miterlimit="10" width="251.576" height="22.061"/>
	<rect x="147.657" y="21.655" fill="#FFFFFF" stroke="#000000" stroke-miterlimit="10" width="251.576" height="22.061"/>
	<rect x="147.657" y="131.757" fill="#EF8311" stroke="#000000" stroke-miterlimit="10" width="251.576" height="22.061"/>
	<g>
		<path fill="#FFFFFF" d="M161.561,209.56c0,0.748-0.108,1.437-0.323,2.065s-0.513,1.173-0.893,1.632s-0.83,0.816-1.352,1.071
			s-1.088,0.383-1.7,0.383c-0.612,0-1.179-0.128-1.7-0.383c-0.521-0.255-0.972-0.612-1.352-1.071s-0.677-1.003-0.893-1.632
			s-0.323-1.317-0.323-2.065s0.107-1.437,0.323-2.065s0.513-1.173,0.893-1.632s0.83-0.818,1.352-1.079
			c0.521-0.261,1.088-0.392,1.7-0.392c0.612,0,1.178,0.131,1.7,0.392s0.972,0.62,1.352,1.079s0.677,1.003,0.893,1.632
			S161.561,208.812,161.561,209.56z M160.387,209.56c0-0.611-0.076-1.167-0.229-1.666c-0.153-0.498-0.365-0.927-0.637-1.283
			c-0.272-0.357-0.598-0.635-0.978-0.833c-0.38-0.198-0.796-0.298-1.25-0.298c-0.465,0-0.887,0.1-1.267,0.298
			c-0.38,0.198-0.706,0.476-0.978,0.833c-0.272,0.356-0.484,0.785-0.638,1.283c-0.153,0.499-0.229,1.055-0.229,1.666
			c0,0.612,0.077,1.168,0.229,1.666c0.153,0.499,0.366,0.927,0.638,1.283c0.272,0.357,0.598,0.633,0.978,0.825
			c0.379,0.192,0.802,0.289,1.267,0.289c0.453,0,0.87-0.097,1.25-0.289c0.379-0.192,0.706-0.468,0.978-0.825
			c0.272-0.356,0.484-0.784,0.637-1.283C160.311,210.728,160.387,210.172,160.387,209.56z"/>
		<path fill="#FFFFFF" d="M163.107,208.982c0-0.578,0.111-1.119,0.332-1.623c0.221-0.504,0.524-0.943,0.91-1.317
			s0.838-0.669,1.36-0.884c0.521-0.216,1.082-0.323,1.683-0.323c0.635,0,1.218,0.116,1.751,0.349s0.989,0.563,1.369,0.994
			c0.379,0.431,0.677,0.961,0.893,1.59c0.215,0.629,0.323,1.334,0.323,2.116c0,1.224-0.108,2.292-0.323,3.204
			c-0.216,0.913-0.519,1.672-0.91,2.278s-0.861,1.057-1.411,1.352s-1.153,0.442-1.811,0.442c-0.793,0-1.51-0.199-2.15-0.596
			c-0.641-0.396-1.125-0.946-1.454-1.648l0.748-0.681c0.238,0.578,0.615,1.04,1.13,1.386s1.091,0.519,1.726,0.519
			c0.499,0,0.952-0.119,1.36-0.356c0.408-0.238,0.759-0.581,1.054-1.029c0.294-0.447,0.521-0.997,0.68-1.648
			c0.159-0.651,0.244-1.396,0.255-2.235c-0.261,0.669-0.694,1.201-1.3,1.598c-0.606,0.396-1.295,0.595-2.066,0.595
			c-0.578,0-1.119-0.104-1.623-0.314c-0.505-0.209-0.944-0.498-1.318-0.867c-0.374-0.368-0.668-0.801-0.884-1.3
			S163.107,209.549,163.107,208.982z M167.374,205.854c-0.431,0-0.836,0.083-1.215,0.247c-0.38,0.164-0.714,0.388-1.003,0.671
			c-0.289,0.284-0.519,0.615-0.688,0.995c-0.17,0.38-0.255,0.784-0.255,1.215c0,0.432,0.085,0.836,0.255,1.216
			c0.17,0.38,0.399,0.711,0.688,0.994c0.289,0.284,0.623,0.508,1.003,0.672c0.379,0.164,0.785,0.246,1.215,0.246
			s0.839-0.082,1.224-0.246s0.72-0.388,1.003-0.672c0.283-0.283,0.507-0.614,0.671-0.994c0.165-0.38,0.247-0.784,0.247-1.216
			c0-0.419-0.082-0.818-0.247-1.198c-0.164-0.38-0.391-0.714-0.68-1.003s-0.624-0.516-1.003-0.68
			C168.21,205.937,167.805,205.854,167.374,205.854z"/>
		<path fill="#FFFFFF" d="M177.897,210.443v-1.07h4.964v1.07H177.897z"/>
		<path fill="#FFFFFF" d="M193.588,213.486v1.055h-8.109v-12.07h7.956v1.054h-6.766v4.353h5.899v1.003h-5.899v4.606H193.588z"/>
		<path fill="#FFFFFF" d="M195.815,205.684l2.652,3.468l0.136,0.256l0.136-0.256l2.652-3.468h1.241l-3.383,4.454l3.383,4.403h-1.241
			l-2.652-3.451l-0.136-0.238l-0.136,0.238l-2.652,3.451h-1.241l3.383-4.403l-3.383-4.454H195.815z"/>
		<path fill="#FFFFFF" d="M208.684,214.711c-0.748,0-1.408-0.189-1.98-0.569s-1.034-0.858-1.385-1.437v5.457h-1.156v-12.479h1.037
			v1.717c0.363-0.555,0.833-1.005,1.411-1.352c0.578-0.345,1.207-0.518,1.887-0.518c0.612,0,1.173,0.127,1.683,0.382
			c0.51,0.255,0.952,0.595,1.326,1.021c0.374,0.425,0.666,0.915,0.875,1.47c0.209,0.556,0.314,1.128,0.314,1.718
			c0,0.623-0.097,1.213-0.289,1.768c-0.193,0.556-0.467,1.043-0.825,1.462c-0.357,0.42-0.782,0.751-1.275,0.995
			C209.815,214.589,209.273,214.711,208.684,214.711z M208.361,213.69c0.476,0,0.909-0.102,1.3-0.306s0.725-0.473,1.003-0.808
			c0.278-0.334,0.49-0.714,0.638-1.139c0.147-0.425,0.221-0.864,0.221-1.317c0-0.477-0.085-0.93-0.255-1.36
			s-0.402-0.811-0.697-1.139c-0.295-0.329-0.644-0.59-1.045-0.782c-0.403-0.192-0.836-0.289-1.301-0.289
			c-0.295,0-0.604,0.06-0.926,0.179c-0.323,0.119-0.624,0.277-0.901,0.476c-0.278,0.198-0.516,0.431-0.714,0.697
			s-0.32,0.547-0.365,0.842v2.72c0.136,0.317,0.309,0.612,0.519,0.884c0.209,0.272,0.447,0.508,0.714,0.706
			c0.266,0.198,0.552,0.354,0.858,0.467S208.032,213.69,208.361,213.69z"/>
		<path fill="#FFFFFF" d="M218.476,214.711c-0.646,0-1.238-0.122-1.776-0.365c-0.539-0.244-1.006-0.578-1.403-1.004
			c-0.397-0.425-0.706-0.915-0.926-1.47c-0.221-0.556-0.332-1.15-0.332-1.785c0-0.623,0.11-1.21,0.332-1.76
			c0.221-0.55,0.527-1.031,0.918-1.445c0.391-0.413,0.858-0.742,1.402-0.985c0.544-0.244,1.133-0.365,1.768-0.365
			c0.646,0,1.238,0.121,1.776,0.365c0.538,0.243,1,0.575,1.386,0.994c0.385,0.42,0.686,0.901,0.901,1.445s0.323,1.122,0.323,1.733
			c0,0.091,0,0.182,0,0.272s-0.006,0.153-0.017,0.187h-7.582c0.034,0.477,0.145,0.916,0.332,1.318s0.428,0.751,0.722,1.045
			c0.295,0.295,0.632,0.524,1.012,0.688c0.379,0.165,0.785,0.247,1.215,0.247c0.283,0,0.567-0.04,0.85-0.119
			s0.544-0.188,0.782-0.323c0.238-0.136,0.453-0.303,0.646-0.502c0.192-0.197,0.34-0.416,0.442-0.654l1.003,0.272
			c-0.136,0.329-0.329,0.626-0.578,0.893c-0.25,0.267-0.538,0.499-0.867,0.696c-0.329,0.199-0.691,0.352-1.088,0.459
			C219.32,214.657,218.906,214.711,218.476,214.711z M221.739,209.645c-0.034-0.476-0.144-0.909-0.331-1.3
			c-0.187-0.392-0.425-0.729-0.714-1.012s-0.623-0.504-1.003-0.663s-0.785-0.238-1.215-0.238c-0.431,0-0.839,0.079-1.224,0.238
			s-0.723,0.38-1.012,0.663c-0.289,0.283-0.521,0.623-0.697,1.02c-0.176,0.397-0.28,0.828-0.314,1.292H221.739z"/>
		<path fill="#FFFFFF" d="M229.049,206.704c-0.782,0.022-1.462,0.237-2.04,0.646c-0.578,0.408-0.986,0.969-1.224,1.684v5.508h-1.156
			v-8.857h1.088v2.125c0.329-0.68,0.771-1.212,1.326-1.598s1.15-0.578,1.785-0.578c0.09,0,0.164,0.006,0.221,0.017V206.704z"/>
		<path fill="#FFFFFF" d="M230.596,203.831v-1.7h1.156v1.7H230.596z M230.596,214.541v-8.857h1.156v8.857H230.596z"/>
		<path fill="#FFFFFF" d="M247.477,214.541h-1.156v-4.947c0-1.031-0.165-1.791-0.493-2.278c-0.329-0.486-0.816-0.73-1.462-0.73
			c-0.34,0-0.66,0.062-0.96,0.187c-0.3,0.125-0.578,0.301-0.833,0.527s-0.479,0.496-0.671,0.808
			c-0.193,0.312-0.34,0.654-0.442,1.028v5.406h-1.156v-4.947c0-1.054-0.159-1.819-0.476-2.295s-0.805-0.714-1.462-0.714
			c-0.669,0-1.264,0.232-1.785,0.697c-0.521,0.465-0.896,1.076-1.122,1.836v5.423h-1.156v-8.857h1.054v2.006
			c0.362-0.68,0.838-1.209,1.428-1.589s1.241-0.569,1.955-0.569c0.748,0,1.346,0.209,1.793,0.629
			c0.448,0.419,0.723,0.969,0.825,1.648c0.827-1.519,1.966-2.277,3.417-2.277c0.499,0,0.92,0.091,1.267,0.271
			c0.345,0.182,0.623,0.439,0.833,0.773c0.209,0.335,0.362,0.737,0.459,1.207c0.096,0.471,0.145,0.994,0.145,1.572V214.541z"/>
		<path fill="#FFFFFF" d="M253.75,214.711c-0.646,0-1.238-0.122-1.776-0.365c-0.539-0.244-1.006-0.578-1.403-1.004
			c-0.397-0.425-0.706-0.915-0.926-1.47c-0.221-0.556-0.332-1.15-0.332-1.785c0-0.623,0.11-1.21,0.332-1.76
			c0.221-0.55,0.527-1.031,0.918-1.445c0.391-0.413,0.858-0.742,1.402-0.985c0.544-0.244,1.133-0.365,1.768-0.365
			c0.646,0,1.238,0.121,1.776,0.365c0.538,0.243,1,0.575,1.386,0.994c0.385,0.42,0.686,0.901,0.901,1.445s0.323,1.122,0.323,1.733
			c0,0.091,0,0.182,0,0.272s-0.006,0.153-0.017,0.187h-7.582c0.034,0.477,0.145,0.916,0.332,1.318s0.428,0.751,0.722,1.045
			c0.295,0.295,0.632,0.524,1.012,0.688c0.379,0.165,0.785,0.247,1.215,0.247c0.283,0,0.567-0.04,0.85-0.119
			s0.544-0.188,0.782-0.323c0.238-0.136,0.453-0.303,0.646-0.502c0.192-0.197,0.34-0.416,0.442-0.654l1.003,0.272
			c-0.136,0.329-0.329,0.626-0.578,0.893c-0.25,0.267-0.538,0.499-0.867,0.696c-0.329,0.199-0.691,0.352-1.088,0.459
			C254.594,214.657,254.181,214.711,253.75,214.711z M257.014,209.645c-0.034-0.476-0.144-0.909-0.331-1.3
			c-0.187-0.392-0.425-0.729-0.714-1.012s-0.623-0.504-1.003-0.663s-0.785-0.238-1.215-0.238c-0.431,0-0.839,0.079-1.224,0.238
			s-0.723,0.38-1.012,0.663c-0.289,0.283-0.521,0.623-0.697,1.02c-0.176,0.397-0.28,0.828-0.314,1.292H257.014z"/>
		<path fill="#FFFFFF" d="M267.35,214.541h-1.156v-4.947c0-1.054-0.156-1.819-0.467-2.295c-0.312-0.476-0.791-0.714-1.437-0.714
			c-0.34,0-0.68,0.062-1.02,0.187c-0.34,0.125-0.655,0.301-0.944,0.527c-0.289,0.227-0.547,0.496-0.773,0.808
			s-0.391,0.648-0.493,1.012v5.423h-1.156v-8.857h1.054v2.006c0.362-0.646,0.881-1.167,1.555-1.563s1.408-0.595,2.202-0.595
			c0.487,0,0.901,0.091,1.241,0.271c0.34,0.182,0.612,0.437,0.816,0.765c0.204,0.329,0.351,0.731,0.442,1.207
			c0.091,0.477,0.136,1.003,0.136,1.581V214.541z"/>
		<path fill="#FFFFFF" d="M273.98,214.116c-0.068,0.033-0.168,0.079-0.298,0.136s-0.28,0.113-0.45,0.17s-0.363,0.107-0.578,0.153
			c-0.216,0.045-0.442,0.067-0.68,0.067c-0.25,0-0.487-0.034-0.714-0.102c-0.228-0.068-0.426-0.173-0.596-0.314
			s-0.306-0.32-0.408-0.536c-0.102-0.215-0.152-0.464-0.152-0.748v-6.341h-1.225v-0.918h1.225v-2.992h1.156v2.992h2.04v0.918h-2.04
			v6.019c0.022,0.328,0.139,0.569,0.348,0.722c0.21,0.153,0.451,0.229,0.723,0.229c0.329,0,0.618-0.053,0.867-0.161
			c0.249-0.107,0.408-0.184,0.477-0.229L273.98,214.116z"/>
	</g>
	<g>
		<path d="M158.993,235.541v1.054h-5.763v-1.054h2.414v-7.276c-0.091,0.137-0.247,0.284-0.468,0.442
			c-0.221,0.159-0.465,0.306-0.731,0.442c-0.267,0.136-0.542,0.249-0.825,0.34s-0.533,0.136-0.748,0.136v-1.122
			c0.26,0,0.546-0.073,0.858-0.221c0.312-0.147,0.606-0.317,0.884-0.511c0.278-0.192,0.513-0.373,0.706-0.544
			c0.192-0.17,0.3-0.283,0.323-0.34h1.19v8.653H158.993z"/>
		<path d="M168.837,231.614c0,0.748-0.108,1.437-0.323,2.065s-0.513,1.173-0.893,1.632s-0.83,0.816-1.352,1.071
			s-1.088,0.382-1.7,0.382c-0.612,0-1.179-0.127-1.7-0.382c-0.521-0.255-0.972-0.612-1.352-1.071s-0.677-1.003-0.893-1.632
			s-0.323-1.317-0.323-2.065s0.107-1.437,0.323-2.065s0.513-1.174,0.893-1.633s0.83-0.818,1.352-1.079
			c0.521-0.261,1.088-0.391,1.7-0.391c0.612,0,1.178,0.13,1.7,0.391s0.972,0.62,1.352,1.079s0.677,1.004,0.893,1.633
			S168.837,230.866,168.837,231.614z M167.663,231.614c0-0.612-0.076-1.167-0.229-1.666c-0.153-0.499-0.365-0.927-0.637-1.284
			c-0.272-0.356-0.598-0.634-0.978-0.833c-0.38-0.197-0.796-0.297-1.25-0.297c-0.465,0-0.887,0.1-1.267,0.297
			c-0.38,0.199-0.706,0.477-0.978,0.833c-0.272,0.357-0.484,0.785-0.638,1.284c-0.153,0.499-0.229,1.054-0.229,1.666
			c0,0.611,0.077,1.167,0.229,1.666c0.153,0.499,0.366,0.926,0.638,1.283s0.598,0.632,0.978,0.824
			c0.379,0.193,0.802,0.289,1.267,0.289c0.453,0,0.87-0.096,1.25-0.289c0.379-0.192,0.706-0.467,0.978-0.824
			s0.484-0.784,0.637-1.283C167.587,232.781,167.663,232.226,167.663,231.614z"/>
	</g>
	<g>
	</g>
	<g>
		<path d="M161.561,165.948c0,0.748-0.108,1.437-0.323,2.065s-0.513,1.173-0.893,1.632s-0.83,0.816-1.352,1.071
			s-1.088,0.383-1.7,0.383c-0.612,0-1.179-0.128-1.7-0.383c-0.521-0.255-0.972-0.612-1.352-1.071s-0.677-1.003-0.893-1.632
			s-0.323-1.317-0.323-2.065s0.107-1.437,0.323-2.065s0.513-1.173,0.893-1.632s0.83-0.818,1.352-1.079
			c0.521-0.261,1.088-0.391,1.7-0.391c0.612,0,1.178,0.13,1.7,0.391s0.972,0.62,1.352,1.079s0.677,1.003,0.893,1.632
			S161.561,165.2,161.561,165.948z M160.387,165.948c0-0.612-0.076-1.167-0.229-1.666c-0.153-0.499-0.365-0.927-0.637-1.284
			s-0.598-0.634-0.978-0.833c-0.38-0.198-0.796-0.297-1.25-0.297c-0.465,0-0.887,0.1-1.267,0.297
			c-0.38,0.199-0.706,0.476-0.978,0.833s-0.484,0.785-0.638,1.284c-0.153,0.499-0.229,1.054-0.229,1.666s0.077,1.168,0.229,1.666
			c0.153,0.499,0.366,0.927,0.638,1.283c0.272,0.357,0.598,0.633,0.978,0.825c0.379,0.192,0.802,0.289,1.267,0.289
			c0.453,0,0.87-0.097,1.25-0.289c0.379-0.192,0.706-0.468,0.978-0.825c0.272-0.356,0.484-0.784,0.637-1.283
			C160.311,167.116,160.387,166.56,160.387,165.948z"/>
		<path d="M169.159,162.089h-6.511v-1.071h8.347l-6.103,12.071h-1.326L169.159,162.089z"/>
	</g>
	<g>
		<path d="M161.561,32.826c0,0.748-0.108,1.437-0.323,2.065s-0.513,1.173-0.893,1.632s-0.83,0.816-1.352,1.071
			s-1.088,0.382-1.7,0.382c-0.612,0-1.179-0.127-1.7-0.382c-0.521-0.255-0.972-0.612-1.352-1.071s-0.677-1.003-0.893-1.632
			s-0.323-1.317-0.323-2.065s0.107-1.437,0.323-2.065s0.513-1.173,0.893-1.632s0.83-0.818,1.352-1.079
			c0.521-0.261,1.088-0.391,1.7-0.391c0.612,0,1.178,0.13,1.7,0.391s0.972,0.62,1.352,1.079s0.677,1.003,0.893,1.632
			S161.561,32.078,161.561,32.826z M160.387,32.826c0-0.612-0.076-1.167-0.229-1.666c-0.153-0.499-0.365-0.927-0.637-1.284
			s-0.598-0.634-0.978-0.833c-0.38-0.198-0.796-0.297-1.25-0.297c-0.465,0-0.887,0.1-1.267,0.297
			c-0.38,0.199-0.706,0.476-0.978,0.833s-0.484,0.785-0.638,1.284c-0.153,0.499-0.229,1.054-0.229,1.666s0.077,1.167,0.229,1.666
			c0.153,0.499,0.366,0.926,0.638,1.283c0.272,0.357,0.598,0.632,0.978,0.825c0.379,0.193,0.802,0.289,1.267,0.289
			c0.453,0,0.87-0.096,1.25-0.289c0.379-0.192,0.706-0.467,0.978-0.825c0.272-0.357,0.484-0.784,0.637-1.283
			C160.311,33.993,160.387,33.438,160.387,32.826z"/>
		<path d="M169.397,36.752v1.054h-5.763v-1.054h2.414v-7.276c-0.091,0.136-0.247,0.284-0.468,0.442
			c-0.221,0.159-0.465,0.306-0.731,0.442c-0.267,0.136-0.542,0.249-0.825,0.34s-0.533,0.136-0.748,0.136v-1.122
			c0.26,0,0.546-0.074,0.858-0.221c0.312-0.147,0.606-0.317,0.884-0.51c0.278-0.192,0.513-0.374,0.706-0.544
			c0.192-0.17,0.3-0.283,0.323-0.34h1.19v8.653H169.397z"/>
	</g>
	<g>
		<path fill="#FFFFFF" d="M153.605,15.998V3.928h1.19v12.07H153.605z"/>
		<path fill="#FFFFFF" d="M165.028,15.998h-1.156v-4.947c0-1.054-0.156-1.819-0.467-2.295c-0.312-0.476-0.791-0.714-1.437-0.714
			c-0.34,0-0.68,0.062-1.02,0.187c-0.34,0.125-0.655,0.3-0.944,0.527c-0.289,0.227-0.547,0.496-0.773,0.808
			c-0.227,0.312-0.391,0.649-0.493,1.012v5.423h-1.156V7.141h1.054v2.006c0.362-0.646,0.881-1.167,1.555-1.564
			c0.674-0.396,1.408-0.595,2.202-0.595c0.487,0,0.901,0.091,1.241,0.272c0.34,0.181,0.612,0.436,0.816,0.765
			c0.204,0.329,0.351,0.731,0.442,1.207s0.136,1.003,0.136,1.581V15.998z"/>
		<path fill="#FFFFFF" d="M171.658,15.573c-0.068,0.034-0.167,0.079-0.297,0.136c-0.13,0.057-0.281,0.113-0.451,0.17
			c-0.17,0.057-0.363,0.108-0.578,0.153c-0.216,0.045-0.442,0.068-0.68,0.068c-0.25,0-0.487-0.034-0.714-0.102
			c-0.227-0.068-0.425-0.173-0.595-0.314s-0.306-0.32-0.408-0.536c-0.102-0.215-0.153-0.464-0.153-0.748V8.059h-1.224V7.141h1.224
			V4.148h1.156v2.992h2.04v0.918h-2.04v6.018c0.022,0.329,0.139,0.569,0.348,0.722c0.21,0.153,0.451,0.229,0.723,0.229
			c0.329,0,0.618-0.053,0.867-0.161c0.249-0.108,0.408-0.184,0.476-0.229L171.658,15.573z"/>
		<path fill="#FFFFFF" d="M177.523,8.161c-0.782,0.023-1.462,0.238-2.04,0.646c-0.578,0.408-0.986,0.969-1.224,1.683v5.508h-1.156
			V7.141h1.088v2.125c0.329-0.68,0.771-1.212,1.326-1.598c0.555-0.385,1.15-0.578,1.785-0.578c0.09,0,0.164,0.006,0.221,0.017V8.161
			z"/>
		<path fill="#FFFFFF" d="M182.402,16.168c-0.646,0-1.235-0.122-1.768-0.365c-0.533-0.244-0.994-0.575-1.385-0.995
			s-0.694-0.907-0.91-1.462s-0.323-1.139-0.323-1.751c0-0.624,0.11-1.213,0.332-1.768c0.221-0.555,0.527-1.042,0.918-1.462
			c0.391-0.419,0.853-0.754,1.385-1.003c0.533-0.249,1.116-0.374,1.751-0.374s1.221,0.125,1.76,0.374
			c0.538,0.25,1.003,0.584,1.394,1.003c0.391,0.419,0.697,0.907,0.918,1.462c0.221,0.555,0.332,1.145,0.332,1.768
			c0,0.612-0.108,1.196-0.323,1.751s-0.519,1.042-0.909,1.462c-0.391,0.419-0.856,0.751-1.394,0.995
			C183.64,16.045,183.048,16.168,182.402,16.168z M179.189,11.611c0,0.499,0.085,0.961,0.255,1.386
			c0.17,0.425,0.4,0.799,0.688,1.122c0.289,0.323,0.629,0.575,1.02,0.756c0.391,0.182,0.808,0.272,1.25,0.272
			c0.442,0,0.859-0.093,1.25-0.28c0.391-0.187,0.734-0.442,1.029-0.765c0.294-0.323,0.527-0.7,0.697-1.13s0.255-0.896,0.255-1.394
			c0-0.487-0.085-0.949-0.255-1.386c-0.17-0.436-0.402-0.816-0.697-1.139c-0.295-0.323-0.638-0.578-1.029-0.765
			c-0.391-0.187-0.807-0.281-1.25-0.281c-0.442,0-0.855,0.094-1.241,0.281c-0.386,0.187-0.726,0.445-1.02,0.773
			c-0.295,0.329-0.527,0.711-0.697,1.147C179.274,10.646,179.189,11.113,179.189,11.611z"/>
	</g>
	<rect x="147.657" y="43.513" fill="#EF8311" stroke="#000000" stroke-miterlimit="10" width="251.576" height="22.061"/>
	<g>
		<path fill="#FFFFFF" d="M161.561,54.529c0,0.748-0.108,1.437-0.323,2.065s-0.513,1.173-0.893,1.632s-0.83,0.816-1.352,1.071
			s-1.088,0.382-1.7,0.382c-0.612,0-1.179-0.127-1.7-0.382c-0.521-0.255-0.972-0.612-1.352-1.071s-0.677-1.003-0.893-1.632
			s-0.323-1.317-0.323-2.065s0.107-1.437,0.323-2.065s0.513-1.173,0.893-1.632s0.83-0.818,1.352-1.079
			c0.521-0.261,1.088-0.391,1.7-0.391c0.612,0,1.178,0.13,1.7,0.391s0.972,0.62,1.352,1.079s0.677,1.003,0.893,1.632
			S161.561,53.781,161.561,54.529z M160.387,54.529c0-0.612-0.076-1.167-0.229-1.666c-0.153-0.499-0.365-0.927-0.637-1.284
			s-0.598-0.634-0.978-0.833c-0.38-0.198-0.796-0.297-1.25-0.297c-0.465,0-0.887,0.1-1.267,0.297
			c-0.38,0.199-0.706,0.476-0.978,0.833s-0.484,0.785-0.638,1.284c-0.153,0.499-0.229,1.054-0.229,1.666s0.077,1.167,0.229,1.666
			c0.153,0.499,0.366,0.926,0.638,1.283c0.272,0.357,0.598,0.632,0.978,0.825c0.379,0.193,0.802,0.289,1.267,0.289
			c0.453,0,0.87-0.096,1.25-0.289c0.379-0.192,0.706-0.467,0.978-0.825c0.272-0.357,0.484-0.784,0.637-1.283
			C160.311,55.697,160.387,55.141,160.387,54.529z"/>
		<path fill="#FFFFFF" d="M163.243,59.51c0-0.385,0.034-0.773,0.102-1.165s0.201-0.779,0.399-1.165
			c0.198-0.385,0.481-0.756,0.85-1.113c0.368-0.357,0.858-0.694,1.47-1.012c0.329-0.17,0.672-0.337,1.029-0.501
			c0.357-0.164,0.686-0.349,0.986-0.552c0.3-0.204,0.547-0.434,0.74-0.688c0.192-0.255,0.289-0.553,0.289-0.893
			c0-0.215-0.048-0.428-0.145-0.638c-0.096-0.209-0.238-0.396-0.425-0.561c-0.187-0.164-0.419-0.297-0.697-0.399
			c-0.278-0.102-0.604-0.153-0.978-0.153s-0.708,0.054-1.003,0.161c-0.295,0.108-0.553,0.235-0.774,0.383
			c-0.221,0.147-0.411,0.303-0.569,0.467c-0.159,0.165-0.278,0.298-0.357,0.399l-0.765-0.833c0.068-0.068,0.198-0.192,0.391-0.374
			c0.192-0.181,0.445-0.362,0.756-0.544c0.312-0.181,0.677-0.342,1.097-0.484c0.419-0.142,0.89-0.212,1.411-0.212
			c0.521,0,0.986,0.071,1.394,0.212c0.408,0.142,0.753,0.337,1.037,0.586c0.283,0.25,0.499,0.536,0.646,0.858
			c0.147,0.323,0.221,0.661,0.221,1.012c0,0.465-0.102,0.867-0.306,1.207c-0.204,0.34-0.456,0.635-0.756,0.884
			c-0.3,0.25-0.621,0.462-0.96,0.638s-0.646,0.326-0.918,0.451c-0.363,0.159-0.717,0.337-1.062,0.535
			c-0.346,0.199-0.655,0.417-0.927,0.655c-0.272,0.238-0.496,0.504-0.671,0.799c-0.176,0.295-0.264,0.624-0.264,0.986h6.052v1.054
			H163.243z"/>
	</g>
	<g>
		<path fill="#FFFFFF" d="M161.561,98.29c0,0.748-0.108,1.437-0.323,2.065s-0.513,1.173-0.893,1.632s-0.83,0.816-1.352,1.071
			s-1.088,0.382-1.7,0.382c-0.612,0-1.179-0.127-1.7-0.382c-0.521-0.255-0.972-0.612-1.352-1.071s-0.677-1.003-0.893-1.632
			s-0.323-1.317-0.323-2.065s0.107-1.437,0.323-2.065s0.513-1.173,0.893-1.632s0.83-0.818,1.352-1.079
			c0.521-0.261,1.088-0.391,1.7-0.391c0.612,0,1.178,0.13,1.7,0.391s0.972,0.62,1.352,1.079s0.677,1.003,0.893,1.632
			S161.561,97.542,161.561,98.29z M160.387,98.29c0-0.612-0.076-1.167-0.229-1.666c-0.153-0.499-0.365-0.927-0.637-1.284
			s-0.598-0.634-0.978-0.833c-0.38-0.198-0.796-0.297-1.25-0.297c-0.465,0-0.887,0.1-1.267,0.297
			c-0.38,0.199-0.706,0.476-0.978,0.833s-0.484,0.785-0.638,1.284c-0.153,0.499-0.229,1.054-0.229,1.666s0.077,1.167,0.229,1.666
			c0.153,0.499,0.366,0.926,0.638,1.283c0.272,0.357,0.598,0.632,0.978,0.825c0.379,0.193,0.802,0.289,1.267,0.289
			c0.453,0,0.87-0.096,1.25-0.289c0.379-0.192,0.706-0.467,0.978-0.825c0.272-0.357,0.484-0.784,0.637-1.283
			C160.311,99.458,160.387,98.902,160.387,98.29z"/>
		<path fill="#FFFFFF" d="M168.547,105.43v-3.026h-5.661v-1.02l6.035-7.82h0.782v7.786h1.496v1.054h-1.496v3.026H168.547z
			 M164.111,101.35h4.556v-5.967L164.111,101.35z"/>
	</g>
	<g>
		<path fill="#FFFFFF" d="M161.561,120.886c0,0.748-0.108,1.437-0.323,2.065s-0.513,1.173-0.893,1.632s-0.83,0.816-1.352,1.071
			s-1.088,0.382-1.7,0.382c-0.612,0-1.179-0.127-1.7-0.382c-0.521-0.255-0.972-0.612-1.352-1.071s-0.677-1.003-0.893-1.632
			s-0.323-1.317-0.323-2.065s0.107-1.437,0.323-2.065s0.513-1.173,0.893-1.632s0.83-0.818,1.352-1.079
			c0.521-0.261,1.088-0.391,1.7-0.391c0.612,0,1.178,0.13,1.7,0.391s0.972,0.62,1.352,1.079s0.677,1.003,0.893,1.632
			S161.561,120.138,161.561,120.886z M160.387,120.886c0-0.612-0.076-1.167-0.229-1.666c-0.153-0.499-0.365-0.927-0.637-1.284
			s-0.598-0.634-0.978-0.833c-0.38-0.198-0.796-0.297-1.25-0.297c-0.465,0-0.887,0.1-1.267,0.297
			c-0.38,0.199-0.706,0.476-0.978,0.833s-0.484,0.785-0.638,1.284c-0.153,0.499-0.229,1.054-0.229,1.666s0.077,1.167,0.229,1.666
			c0.153,0.499,0.366,0.926,0.638,1.283c0.272,0.357,0.598,0.632,0.978,0.825c0.379,0.193,0.802,0.289,1.267,0.289
			c0.453,0,0.87-0.096,1.25-0.289c0.379-0.192,0.706-0.467,0.978-0.825c0.272-0.357,0.484-0.784,0.637-1.283
			C160.311,122.054,160.387,121.498,160.387,120.886z"/>
		<path fill="#FFFFFF" d="M167.204,120.563c0.555,0,1.071,0.094,1.547,0.281s0.893,0.45,1.25,0.791
			c0.357,0.34,0.638,0.745,0.842,1.215c0.204,0.471,0.306,0.989,0.306,1.556c0,0.601-0.11,1.147-0.332,1.641
			c-0.221,0.493-0.521,0.912-0.901,1.258s-0.824,0.615-1.334,0.808c-0.51,0.192-1.054,0.289-1.632,0.289
			c-0.431,0-0.842-0.054-1.232-0.162c-0.391-0.108-0.751-0.264-1.08-0.468c-0.329-0.204-0.626-0.448-0.893-0.731
			c-0.267-0.283-0.484-0.601-0.654-0.952l0.765-0.578c0.317,0.555,0.751,1.003,1.301,1.343c0.549,0.34,1.153,0.51,1.811,0.51
			c0.419,0,0.81-0.071,1.173-0.212c0.362-0.142,0.68-0.343,0.952-0.604c0.272-0.261,0.484-0.573,0.637-0.935
			c0.153-0.363,0.229-0.759,0.229-1.19c0-0.419-0.074-0.802-0.221-1.147c-0.147-0.346-0.352-0.643-0.612-0.893
			s-0.567-0.442-0.918-0.578c-0.352-0.136-0.731-0.204-1.139-0.204c-0.533,0-1.035,0.116-1.505,0.349s-0.853,0.569-1.147,1.011
			h-1.071c0.011-0.068,0.04-0.221,0.085-0.459c0.045-0.238,0.102-0.521,0.17-0.85s0.142-0.694,0.221-1.097
			c0.079-0.402,0.158-0.808,0.238-1.215c0.192-0.952,0.402-2.012,0.629-3.179h5.831v1.071h-4.964l-0.833,4.335
			c0.294-0.317,0.654-0.564,1.08-0.74C166.227,120.651,166.694,120.563,167.204,120.563z"/>
	</g>
	<g>
		<path fill="#FFFFFF" d="M161.561,142.434c0,0.748-0.108,1.437-0.323,2.065s-0.513,1.173-0.893,1.632s-0.83,0.816-1.352,1.071
			s-1.088,0.382-1.7,0.382c-0.612,0-1.179-0.127-1.7-0.382c-0.521-0.255-0.972-0.612-1.352-1.071s-0.677-1.003-0.893-1.632
			s-0.323-1.317-0.323-2.065s0.107-1.437,0.323-2.065s0.513-1.173,0.893-1.632s0.83-0.818,1.352-1.079
			c0.521-0.261,1.088-0.391,1.7-0.391c0.612,0,1.178,0.13,1.7,0.391s0.972,0.62,1.352,1.079s0.677,1.003,0.893,1.632
			S161.561,141.686,161.561,142.434z M160.387,142.434c0-0.612-0.076-1.167-0.229-1.666c-0.153-0.499-0.365-0.927-0.637-1.284
			s-0.598-0.634-0.978-0.833c-0.38-0.198-0.796-0.297-1.25-0.297c-0.465,0-0.887,0.1-1.267,0.297
			c-0.38,0.199-0.706,0.476-0.978,0.833s-0.484,0.785-0.638,1.284c-0.153,0.499-0.229,1.054-0.229,1.666s0.077,1.167,0.229,1.666
			c0.153,0.499,0.366,0.926,0.638,1.283c0.272,0.357,0.598,0.632,0.978,0.825c0.379,0.193,0.802,0.289,1.267,0.289
			c0.453,0,0.87-0.096,1.25-0.289c0.379-0.192,0.706-0.467,0.978-0.825c0.272-0.357,0.484-0.784,0.637-1.283
			C160.311,143.602,160.387,143.046,160.387,142.434z"/>
		<path fill="#FFFFFF" d="M171.998,143.437c0,0.578-0.11,1.119-0.332,1.624c-0.221,0.504-0.524,0.943-0.909,1.317
			c-0.386,0.374-0.839,0.669-1.36,0.884c-0.521,0.215-1.083,0.323-1.683,0.323c-0.635,0-1.219-0.116-1.751-0.349
			c-0.533-0.232-0.989-0.563-1.368-0.994c-0.38-0.431-0.677-0.96-0.893-1.59c-0.215-0.629-0.323-1.334-0.323-2.116
			c0-1.224,0.108-2.292,0.323-3.205c0.215-0.912,0.519-1.671,0.91-2.278c0.391-0.606,0.858-1.057,1.402-1.352
			s1.15-0.442,1.819-0.442c0.805,0,1.524,0.198,2.159,0.595c0.634,0.397,1.116,0.946,1.445,1.649l-0.748,0.68
			c-0.238-0.578-0.612-1.04-1.122-1.386c-0.51-0.345-1.088-0.518-1.734-0.518c-0.499,0-0.952,0.119-1.36,0.357
			c-0.408,0.238-0.756,0.581-1.045,1.028s-0.516,1-0.68,1.658c-0.165,0.657-0.247,1.399-0.247,2.227
			c0.25-0.668,0.677-1.201,1.284-1.598c0.606-0.396,1.294-0.595,2.065-0.595c0.578,0,1.119,0.105,1.624,0.314
			c0.504,0.21,0.943,0.499,1.317,0.867s0.668,0.802,0.884,1.3C171.89,142.338,171.998,142.871,171.998,143.437z M167.748,146.565
			c0.431,0,0.836-0.082,1.215-0.247c0.38-0.164,0.714-0.388,1.003-0.671c0.289-0.283,0.516-0.615,0.68-0.995
			c0.164-0.379,0.247-0.785,0.247-1.215s-0.085-0.835-0.255-1.215s-0.399-0.711-0.688-0.995s-0.624-0.507-1.003-0.671
			c-0.38-0.164-0.785-0.247-1.216-0.247s-0.836,0.083-1.215,0.247c-0.38,0.164-0.714,0.388-1.003,0.671s-0.516,0.615-0.68,0.995
			c-0.165,0.38-0.247,0.785-0.247,1.215s0.085,0.833,0.255,1.207c0.17,0.374,0.399,0.706,0.688,0.995s0.623,0.516,1.003,0.68
			C166.912,146.483,167.318,146.565,167.748,146.565z"/>
	</g>
	<g>
		<path fill="#FFFFFF" d="M161.561,186.895c0,0.748-0.108,1.437-0.323,2.065s-0.513,1.173-0.893,1.632s-0.83,0.816-1.352,1.071
			s-1.088,0.382-1.7,0.382c-0.612,0-1.179-0.127-1.7-0.382c-0.521-0.255-0.972-0.612-1.352-1.071s-0.677-1.003-0.893-1.632
			s-0.323-1.317-0.323-2.065s0.107-1.437,0.323-2.065s0.513-1.174,0.893-1.633s0.83-0.818,1.352-1.079
			c0.521-0.261,1.088-0.391,1.7-0.391c0.612,0,1.178,0.13,1.7,0.391s0.972,0.62,1.352,1.079s0.677,1.004,0.893,1.633
			S161.561,186.147,161.561,186.895z M160.387,186.895c0-0.612-0.076-1.167-0.229-1.666c-0.153-0.499-0.365-0.927-0.637-1.284
			c-0.272-0.356-0.598-0.634-0.978-0.833c-0.38-0.197-0.796-0.297-1.25-0.297c-0.465,0-0.887,0.1-1.267,0.297
			c-0.38,0.199-0.706,0.477-0.978,0.833c-0.272,0.357-0.484,0.785-0.638,1.284c-0.153,0.499-0.229,1.054-0.229,1.666
			c0,0.611,0.077,1.167,0.229,1.666c0.153,0.499,0.366,0.926,0.638,1.283s0.598,0.632,0.978,0.824
			c0.379,0.193,0.802,0.289,1.267,0.289c0.453,0,0.87-0.096,1.25-0.289c0.379-0.192,0.706-0.467,0.978-0.824
			s0.484-0.784,0.637-1.283C160.311,188.062,160.387,187.506,160.387,186.895z"/>
		<path fill="#FFFFFF" d="M171.726,188.526c0,0.533-0.113,1.012-0.34,1.437c-0.227,0.425-0.533,0.79-0.918,1.097
			c-0.386,0.306-0.836,0.541-1.352,0.705c-0.516,0.164-1.057,0.247-1.624,0.247c-0.601,0-1.156-0.094-1.666-0.281
			c-0.51-0.187-0.949-0.441-1.317-0.765c-0.369-0.323-0.655-0.7-0.859-1.131c-0.204-0.431-0.306-0.89-0.306-1.377
			c0-0.385,0.071-0.742,0.212-1.07c0.142-0.329,0.326-0.621,0.553-0.876c0.227-0.255,0.484-0.476,0.773-0.663
			c0.289-0.187,0.581-0.331,0.875-0.434c-0.272-0.113-0.527-0.252-0.765-0.416s-0.448-0.354-0.629-0.569
			c-0.182-0.216-0.326-0.453-0.434-0.715c-0.108-0.26-0.162-0.538-0.162-0.833c0-0.498,0.113-0.938,0.34-1.317
			c0.227-0.379,0.518-0.699,0.875-0.96c0.357-0.261,0.759-0.459,1.207-0.596c0.448-0.136,0.898-0.203,1.352-0.203
			s0.904,0.067,1.352,0.203c0.448,0.137,0.85,0.332,1.207,0.587s0.649,0.575,0.875,0.961c0.227,0.385,0.34,0.821,0.34,1.309
			c0,0.295-0.054,0.572-0.162,0.833c-0.108,0.261-0.255,0.502-0.442,0.723s-0.403,0.414-0.646,0.578
			c-0.244,0.164-0.502,0.303-0.774,0.416c0.329,0.113,0.64,0.27,0.935,0.468s0.553,0.428,0.773,0.688
			c0.221,0.261,0.397,0.556,0.527,0.884C171.661,187.784,171.726,188.141,171.726,188.526z M170.553,188.441
			c0-0.408-0.091-0.768-0.272-1.08c-0.182-0.312-0.419-0.574-0.714-0.79c-0.294-0.215-0.623-0.38-0.986-0.493s-0.72-0.17-1.071-0.17
			c-0.374,0-0.737,0.06-1.088,0.179c-0.351,0.119-0.668,0.289-0.952,0.51c-0.284,0.221-0.51,0.49-0.68,0.808
			s-0.255,0.669-0.255,1.054c0,0.397,0.09,0.751,0.272,1.062c0.181,0.312,0.417,0.575,0.706,0.791
			c0.289,0.215,0.612,0.38,0.969,0.493s0.717,0.17,1.08,0.17s0.723-0.06,1.08-0.179s0.677-0.289,0.96-0.51
			c0.283-0.222,0.513-0.487,0.688-0.8C170.465,189.175,170.553,188.827,170.553,188.441z M164.926,182.934
			c0,0.328,0.079,0.62,0.238,0.875s0.363,0.471,0.612,0.646c0.25,0.176,0.53,0.309,0.842,0.399c0.312,0.091,0.615,0.136,0.91,0.136
			c0.306,0,0.612-0.045,0.918-0.136c0.306-0.091,0.586-0.227,0.841-0.408s0.461-0.402,0.621-0.663
			c0.159-0.261,0.238-0.555,0.238-0.884c0-0.317-0.074-0.604-0.221-0.858c-0.147-0.255-0.343-0.471-0.587-0.646
			s-0.524-0.309-0.841-0.399s-0.646-0.136-0.986-0.136c-0.329,0-0.649,0.048-0.96,0.145c-0.312,0.097-0.587,0.232-0.825,0.408
			s-0.431,0.394-0.578,0.654S164.926,182.616,164.926,182.934z"/>
		<path fill="#FFFFFF" d="M178.016,187.778v-1.071h4.964v1.071H178.016z"/>
		<path fill="#FFFFFF" d="M193.707,190.821v1.054h-8.109v-12.069h7.956v1.054h-6.766v4.352h5.899v1.003h-5.899v4.607H193.707z"/>
		<path fill="#FFFFFF" d="M195.934,183.019l2.652,3.468l0.136,0.255l0.136-0.255l2.652-3.468h1.241l-3.383,4.454l3.383,4.402h-1.241
			l-2.652-3.451l-0.136-0.237l-0.136,0.237l-2.652,3.451h-1.241l3.383-4.402l-3.383-4.454H195.934z"/>
		<path fill="#FFFFFF" d="M208.802,192.045c-0.748,0-1.408-0.189-1.98-0.569s-1.034-0.858-1.385-1.437v5.457h-1.156v-12.478h1.037
			v1.717c0.363-0.556,0.833-1.006,1.411-1.352c0.578-0.346,1.207-0.519,1.887-0.519c0.612,0,1.173,0.128,1.683,0.383
			c0.51,0.255,0.952,0.595,1.326,1.02s0.666,0.915,0.875,1.471c0.209,0.556,0.314,1.128,0.314,1.717
			c0,0.624-0.097,1.213-0.289,1.769c-0.193,0.555-0.467,1.042-0.825,1.462c-0.357,0.419-0.782,0.751-1.275,0.994
			C209.933,191.923,209.392,192.045,208.802,192.045z M208.48,191.025c0.476,0,0.909-0.103,1.3-0.306
			c0.391-0.204,0.725-0.474,1.003-0.808c0.278-0.335,0.49-0.715,0.638-1.14c0.147-0.425,0.221-0.864,0.221-1.317
			c0-0.476-0.085-0.929-0.255-1.359s-0.402-0.811-0.697-1.14c-0.295-0.328-0.644-0.589-1.045-0.782
			c-0.403-0.192-0.836-0.289-1.301-0.289c-0.295,0-0.604,0.06-0.926,0.179c-0.323,0.119-0.624,0.278-0.901,0.477
			c-0.278,0.198-0.516,0.431-0.714,0.696c-0.198,0.267-0.32,0.547-0.365,0.842v2.72c0.136,0.317,0.309,0.612,0.519,0.885
			c0.209,0.271,0.447,0.507,0.714,0.705c0.266,0.198,0.552,0.354,0.858,0.468S208.151,191.025,208.48,191.025z"/>
		<path fill="#FFFFFF" d="M218.594,192.045c-0.646,0-1.238-0.122-1.776-0.365c-0.539-0.243-1.006-0.578-1.403-1.003
			c-0.397-0.425-0.706-0.915-0.926-1.471c-0.221-0.555-0.332-1.15-0.332-1.785c0-0.623,0.11-1.209,0.332-1.759
			c0.221-0.55,0.527-1.031,0.918-1.445s0.858-0.742,1.402-0.986c0.544-0.243,1.133-0.365,1.768-0.365
			c0.646,0,1.238,0.122,1.776,0.365c0.538,0.244,1,0.575,1.386,0.995c0.385,0.419,0.686,0.9,0.901,1.444s0.323,1.122,0.323,1.734
			c0,0.091,0,0.182,0,0.271c0,0.091-0.006,0.153-0.017,0.188h-7.582c0.034,0.476,0.145,0.915,0.332,1.317s0.428,0.751,0.722,1.046
			c0.295,0.295,0.632,0.524,1.012,0.688c0.379,0.164,0.785,0.246,1.215,0.246c0.283,0,0.567-0.039,0.85-0.119
			c0.283-0.079,0.544-0.187,0.782-0.322c0.238-0.137,0.453-0.304,0.646-0.502c0.192-0.198,0.34-0.417,0.442-0.654l1.003,0.271
			c-0.136,0.329-0.329,0.627-0.578,0.893c-0.25,0.267-0.538,0.499-0.867,0.697c-0.329,0.198-0.691,0.352-1.088,0.459
			C219.439,191.991,219.025,192.045,218.594,192.045z M221.858,186.98c-0.034-0.477-0.144-0.91-0.331-1.301
			s-0.425-0.729-0.714-1.012s-0.623-0.504-1.003-0.663c-0.38-0.158-0.785-0.237-1.215-0.237c-0.431,0-0.839,0.079-1.224,0.237
			c-0.385,0.159-0.723,0.38-1.012,0.663c-0.289,0.283-0.521,0.624-0.697,1.021s-0.28,0.827-0.314,1.292H221.858z"/>
		<path fill="#FFFFFF" d="M229.168,184.038c-0.782,0.023-1.462,0.238-2.04,0.646c-0.578,0.407-0.986,0.969-1.224,1.683v5.508h-1.156
			v-8.856h1.088v2.125c0.329-0.681,0.771-1.213,1.326-1.599c0.555-0.385,1.15-0.578,1.785-0.578c0.09,0,0.164,0.006,0.221,0.018
			V184.038z"/>
		<path fill="#FFFFFF" d="M230.715,181.165v-1.7h1.156v1.7H230.715z M230.715,191.875v-8.856h1.156v8.856H230.715z"/>
		<path fill="#FFFFFF" d="M247.596,191.875h-1.156v-4.946c0-1.031-0.165-1.791-0.493-2.278s-0.816-0.731-1.462-0.731
			c-0.34,0-0.66,0.062-0.96,0.188s-0.578,0.3-0.833,0.526c-0.255,0.228-0.479,0.496-0.671,0.808
			c-0.193,0.312-0.34,0.655-0.442,1.029v5.405h-1.156v-4.946c0-1.055-0.159-1.819-0.476-2.296c-0.317-0.476-0.805-0.714-1.462-0.714
			c-0.669,0-1.264,0.232-1.785,0.697c-0.521,0.465-0.896,1.077-1.122,1.836v5.423h-1.156v-8.856h1.054v2.006
			c0.362-0.68,0.838-1.21,1.428-1.59s1.241-0.569,1.955-0.569c0.748,0,1.346,0.21,1.793,0.629c0.448,0.42,0.723,0.969,0.825,1.649
			c0.827-1.519,1.966-2.278,3.417-2.278c0.499,0,0.92,0.091,1.267,0.272c0.345,0.181,0.623,0.438,0.833,0.773
			c0.209,0.334,0.362,0.736,0.459,1.207c0.096,0.47,0.145,0.994,0.145,1.572V191.875z"/>
		<path fill="#FFFFFF" d="M253.869,192.045c-0.646,0-1.238-0.122-1.776-0.365c-0.539-0.243-1.006-0.578-1.403-1.003
			c-0.397-0.425-0.706-0.915-0.926-1.471c-0.221-0.555-0.332-1.15-0.332-1.785c0-0.623,0.11-1.209,0.332-1.759
			c0.221-0.55,0.527-1.031,0.918-1.445s0.858-0.742,1.402-0.986c0.544-0.243,1.133-0.365,1.768-0.365
			c0.646,0,1.238,0.122,1.776,0.365c0.538,0.244,1,0.575,1.386,0.995c0.385,0.419,0.686,0.9,0.901,1.444s0.323,1.122,0.323,1.734
			c0,0.091,0,0.182,0,0.271c0,0.091-0.006,0.153-0.017,0.188h-7.582c0.034,0.476,0.145,0.915,0.332,1.317s0.428,0.751,0.722,1.046
			c0.295,0.295,0.632,0.524,1.012,0.688c0.379,0.164,0.785,0.246,1.215,0.246c0.283,0,0.567-0.039,0.85-0.119
			c0.283-0.079,0.544-0.187,0.782-0.322c0.238-0.137,0.453-0.304,0.646-0.502c0.192-0.198,0.34-0.417,0.442-0.654l1.003,0.271
			c-0.136,0.329-0.329,0.627-0.578,0.893c-0.25,0.267-0.538,0.499-0.867,0.697c-0.329,0.198-0.691,0.352-1.088,0.459
			C254.713,191.991,254.299,192.045,253.869,192.045z M257.132,186.98c-0.034-0.477-0.144-0.91-0.331-1.301
			s-0.425-0.729-0.714-1.012s-0.623-0.504-1.003-0.663c-0.38-0.158-0.785-0.237-1.215-0.237c-0.431,0-0.839,0.079-1.224,0.237
			c-0.385,0.159-0.723,0.38-1.012,0.663c-0.289,0.283-0.521,0.624-0.697,1.021s-0.28,0.827-0.314,1.292H257.132z"/>
		<path fill="#FFFFFF" d="M267.469,191.875h-1.156v-4.946c0-1.055-0.156-1.819-0.467-2.296c-0.312-0.476-0.791-0.714-1.437-0.714
			c-0.34,0-0.68,0.062-1.02,0.188c-0.34,0.125-0.655,0.3-0.944,0.526c-0.289,0.228-0.547,0.496-0.773,0.808
			c-0.227,0.312-0.391,0.649-0.493,1.012v5.423h-1.156v-8.856h1.054v2.006c0.362-0.646,0.881-1.167,1.555-1.564
			c0.674-0.396,1.408-0.595,2.202-0.595c0.487,0,0.901,0.091,1.241,0.272c0.34,0.181,0.612,0.436,0.816,0.765
			s0.351,0.73,0.441,1.207c0.091,0.476,0.137,1.003,0.137,1.581V191.875z"/>
		<path fill="#FFFFFF" d="M274.098,191.45c-0.067,0.034-0.167,0.079-0.297,0.136c-0.131,0.058-0.281,0.113-0.451,0.17
			c-0.17,0.058-0.362,0.108-0.577,0.153c-0.216,0.045-0.442,0.068-0.681,0.068c-0.249,0-0.487-0.034-0.714-0.103
			c-0.227-0.067-0.425-0.173-0.595-0.314s-0.307-0.32-0.408-0.535s-0.153-0.465-0.153-0.748v-6.341h-1.224v-0.918h1.224v-2.992
			h1.156v2.992h2.04v0.918h-2.04v6.018c0.022,0.329,0.139,0.569,0.349,0.723s0.45,0.229,0.723,0.229
			c0.328,0,0.617-0.054,0.867-0.161c0.249-0.108,0.407-0.185,0.476-0.229L274.098,191.45z"/>
	</g>
	<g>
		<path fill="#FFFFFF" d="M161.561,76.803c0,0.748-0.108,1.437-0.323,2.065s-0.513,1.173-0.893,1.632s-0.83,0.816-1.352,1.071
			s-1.088,0.382-1.7,0.382c-0.612,0-1.179-0.127-1.7-0.382c-0.521-0.255-0.972-0.612-1.352-1.071s-0.677-1.003-0.893-1.632
			s-0.323-1.317-0.323-2.065s0.107-1.437,0.323-2.065s0.513-1.173,0.893-1.632s0.83-0.818,1.352-1.079
			c0.521-0.261,1.088-0.391,1.7-0.391c0.612,0,1.178,0.13,1.7,0.391s0.972,0.62,1.352,1.079s0.677,1.003,0.893,1.632
			S161.561,76.055,161.561,76.803z M160.387,76.803c0-0.612-0.076-1.167-0.229-1.666c-0.153-0.499-0.365-0.927-0.637-1.284
			s-0.598-0.634-0.978-0.833c-0.38-0.198-0.796-0.297-1.25-0.297c-0.465,0-0.887,0.1-1.267,0.297
			c-0.38,0.199-0.706,0.476-0.978,0.833s-0.484,0.785-0.638,1.284c-0.153,0.499-0.229,1.054-0.229,1.666s0.077,1.167,0.229,1.666
			c0.153,0.499,0.366,0.926,0.638,1.283c0.272,0.357,0.598,0.632,0.978,0.825c0.379,0.193,0.802,0.289,1.267,0.289
			c0.453,0,0.87-0.096,1.25-0.289c0.379-0.192,0.706-0.467,0.978-0.825c0.272-0.357,0.484-0.784,0.637-1.283
			C160.311,77.971,160.387,77.415,160.387,76.803z"/>
		<path fill="#FFFFFF" d="M168.326,77.772c0.748,0.125,1.346,0.465,1.793,1.02c0.448,0.556,0.671,1.241,0.671,2.057
			c0,0.51-0.093,0.978-0.28,1.402c-0.187,0.425-0.454,0.788-0.799,1.088c-0.346,0.3-0.759,0.532-1.241,0.697
			c-0.482,0.164-1.018,0.247-1.606,0.247c-0.861,0-1.615-0.173-2.261-0.519s-1.133-0.825-1.462-1.437l0.799-0.731
			c0.238,0.499,0.601,0.895,1.088,1.19c0.487,0.294,1.099,0.442,1.836,0.442c0.85,0,1.519-0.207,2.006-0.62
			c0.487-0.414,0.731-1.006,0.731-1.777c0-0.782-0.255-1.399-0.765-1.853c-0.51-0.453-1.247-0.68-2.21-0.68h-0.425v-0.986h0.459
			c0.873,0,1.541-0.201,2.006-0.604c0.465-0.402,0.697-0.926,0.697-1.572c0-0.34-0.062-0.64-0.187-0.901
			c-0.125-0.261-0.298-0.479-0.519-0.655c-0.221-0.175-0.482-0.309-0.782-0.399c-0.3-0.09-0.626-0.136-0.978-0.136
			c-0.646,0-1.215,0.145-1.708,0.433c-0.493,0.289-0.864,0.688-1.113,1.199l-0.748-0.714c0.136-0.295,0.329-0.564,0.578-0.808
			c0.249-0.244,0.532-0.451,0.85-0.621c0.317-0.17,0.668-0.303,1.054-0.399s0.782-0.145,1.19-0.145c0.521,0,1,0.074,1.437,0.221
			c0.436,0.147,0.813,0.354,1.13,0.62c0.317,0.267,0.564,0.587,0.74,0.96c0.176,0.374,0.264,0.788,0.264,1.241
			c0,0.34-0.051,0.666-0.153,0.978c-0.102,0.312-0.25,0.589-0.442,0.833c-0.193,0.244-0.428,0.448-0.706,0.612
			C168.992,77.622,168.677,77.727,168.326,77.772z"/>
		<path fill="#FFFFFF" d="M177.013,77.687v-1.071h4.964v1.071H177.013z"/>
		<path fill="#FFFFFF" d="M197.039,80.73v1.054h-8.109v-12.07h7.956v1.054h-6.766v4.352h5.899v1.003h-5.899v4.607H197.039z"/>
		<path fill="#FFFFFF" d="M199.266,72.927l2.652,3.468l0.136,0.255l0.136-0.255l2.652-3.468h1.241l-3.383,4.454l3.383,4.403h-1.241
			l-2.652-3.451l-0.136-0.238l-0.136,0.238l-2.652,3.451h-1.241l3.383-4.403l-3.383-4.454H199.266z"/>
		<path fill="#FFFFFF" d="M212.135,81.954c-0.748,0-1.408-0.189-1.98-0.569s-1.034-0.858-1.385-1.437v5.457h-1.156V72.927h1.037
			v1.717c0.363-0.555,0.833-1.005,1.411-1.352c0.578-0.345,1.207-0.518,1.887-0.518c0.612,0,1.173,0.127,1.683,0.382
			c0.51,0.255,0.952,0.595,1.326,1.02c0.374,0.425,0.666,0.915,0.875,1.47c0.209,0.556,0.314,1.128,0.314,1.717
			c0,0.624-0.097,1.213-0.289,1.768c-0.193,0.555-0.467,1.042-0.825,1.462c-0.357,0.419-0.782,0.751-1.275,0.995
			C213.266,81.832,212.724,81.954,212.135,81.954z M211.812,80.934c0.476,0,0.909-0.102,1.3-0.306
			c0.391-0.204,0.725-0.473,1.003-0.808s0.49-0.714,0.638-1.139c0.147-0.425,0.221-0.864,0.221-1.317
			c0-0.476-0.085-0.929-0.255-1.36s-0.402-0.811-0.697-1.139c-0.295-0.329-0.644-0.589-1.045-0.782
			c-0.403-0.192-0.836-0.289-1.301-0.289c-0.295,0-0.604,0.06-0.926,0.179c-0.323,0.119-0.624,0.278-0.901,0.476
			c-0.278,0.198-0.516,0.431-0.714,0.697c-0.198,0.267-0.32,0.547-0.365,0.842v2.72c0.136,0.317,0.309,0.612,0.519,0.884
			c0.209,0.272,0.447,0.507,0.714,0.706c0.266,0.198,0.552,0.354,0.858,0.467S211.483,80.934,211.812,80.934z"/>
		<path fill="#FFFFFF" d="M221.927,81.954c-0.646,0-1.238-0.122-1.776-0.365c-0.539-0.244-1.006-0.578-1.403-1.003
			c-0.397-0.425-0.706-0.915-0.926-1.47c-0.221-0.555-0.332-1.15-0.332-1.785c0-0.623,0.11-1.209,0.332-1.759
			c0.221-0.55,0.527-1.031,0.918-1.445c0.391-0.414,0.858-0.742,1.402-0.986s1.133-0.365,1.768-0.365
			c0.646,0,1.238,0.122,1.776,0.365s1,0.575,1.386,0.995c0.385,0.419,0.686,0.901,0.901,1.445s0.323,1.122,0.323,1.734
			c0,0.091,0,0.182,0,0.272c0,0.091-0.006,0.153-0.017,0.187h-7.582c0.034,0.476,0.145,0.916,0.332,1.318s0.428,0.751,0.722,1.045
			c0.295,0.295,0.632,0.524,1.012,0.688c0.379,0.165,0.785,0.247,1.215,0.247c0.283,0,0.567-0.04,0.85-0.119
			c0.283-0.079,0.544-0.187,0.782-0.323c0.238-0.136,0.453-0.303,0.646-0.502c0.192-0.198,0.34-0.417,0.442-0.654l1.003,0.272
			c-0.136,0.329-0.329,0.626-0.578,0.893c-0.25,0.267-0.538,0.499-0.867,0.697c-0.329,0.199-0.691,0.352-1.088,0.459
			C222.771,81.9,222.358,81.954,221.927,81.954z M225.191,76.888c-0.034-0.476-0.144-0.91-0.331-1.3
			c-0.187-0.391-0.425-0.729-0.714-1.012s-0.623-0.504-1.003-0.663c-0.38-0.159-0.785-0.238-1.215-0.238
			c-0.431,0-0.839,0.079-1.224,0.238c-0.385,0.159-0.723,0.38-1.012,0.663c-0.289,0.283-0.521,0.624-0.697,1.02
			c-0.176,0.397-0.28,0.828-0.314,1.292H225.191z"/>
		<path fill="#FFFFFF" d="M232.501,73.947c-0.782,0.023-1.462,0.238-2.04,0.646c-0.578,0.408-0.986,0.969-1.224,1.683v5.508h-1.156
			v-8.857h1.088v2.125c0.329-0.68,0.771-1.212,1.326-1.598c0.555-0.385,1.15-0.578,1.785-0.578c0.09,0,0.164,0.006,0.221,0.017
			V73.947z"/>
		<path fill="#FFFFFF" d="M234.048,71.074v-1.7h1.156v1.7H234.048z M234.048,81.784v-8.857h1.156v8.857H234.048z"/>
		<path fill="#FFFFFF" d="M250.928,81.784h-1.156v-4.947c0-1.031-0.165-1.791-0.493-2.278c-0.329-0.487-0.816-0.731-1.462-0.731
			c-0.34,0-0.66,0.062-0.96,0.187c-0.3,0.125-0.578,0.3-0.833,0.527c-0.255,0.227-0.479,0.496-0.671,0.808
			c-0.193,0.312-0.34,0.655-0.442,1.029v5.406h-1.156v-4.947c0-1.054-0.159-1.819-0.476-2.295c-0.317-0.476-0.805-0.714-1.462-0.714
			c-0.669,0-1.264,0.232-1.785,0.697c-0.521,0.465-0.896,1.077-1.122,1.836v5.423h-1.156v-8.857h1.054v2.006
			c0.362-0.68,0.838-1.209,1.428-1.589s1.241-0.569,1.955-0.569c0.748,0,1.346,0.209,1.793,0.629s0.723,0.969,0.825,1.649
			c0.827-1.519,1.966-2.278,3.417-2.278c0.499,0,0.92,0.091,1.267,0.272c0.345,0.181,0.623,0.439,0.833,0.773
			c0.209,0.334,0.362,0.737,0.459,1.207c0.096,0.47,0.145,0.994,0.145,1.572V81.784z"/>
		<path fill="#FFFFFF" d="M257.201,81.954c-0.646,0-1.238-0.122-1.776-0.365c-0.539-0.244-1.006-0.578-1.403-1.003
			c-0.397-0.425-0.706-0.915-0.926-1.47c-0.221-0.555-0.332-1.15-0.332-1.785c0-0.623,0.11-1.209,0.332-1.759
			c0.221-0.55,0.527-1.031,0.918-1.445c0.391-0.414,0.858-0.742,1.402-0.986s1.133-0.365,1.768-0.365
			c0.646,0,1.238,0.122,1.776,0.365s1,0.575,1.386,0.995c0.385,0.419,0.686,0.901,0.901,1.445s0.323,1.122,0.323,1.734
			c0,0.091,0,0.182,0,0.272c0,0.091-0.006,0.153-0.017,0.187h-7.582c0.034,0.476,0.145,0.916,0.332,1.318s0.428,0.751,0.722,1.045
			c0.295,0.295,0.632,0.524,1.012,0.688c0.379,0.165,0.785,0.247,1.215,0.247c0.283,0,0.567-0.04,0.85-0.119
			c0.283-0.079,0.544-0.187,0.782-0.323c0.238-0.136,0.453-0.303,0.646-0.502c0.192-0.198,0.34-0.417,0.442-0.654l1.003,0.272
			c-0.136,0.329-0.329,0.626-0.578,0.893c-0.25,0.267-0.538,0.499-0.867,0.697c-0.329,0.199-0.691,0.352-1.088,0.459
			C258.046,81.9,257.632,81.954,257.201,81.954z M260.465,76.888c-0.034-0.476-0.144-0.91-0.331-1.3
			c-0.187-0.391-0.425-0.729-0.714-1.012s-0.623-0.504-1.003-0.663c-0.38-0.159-0.785-0.238-1.215-0.238
			c-0.431,0-0.839,0.079-1.224,0.238c-0.385,0.159-0.723,0.38-1.012,0.663c-0.289,0.283-0.521,0.624-0.697,1.02
			c-0.176,0.397-0.28,0.828-0.314,1.292H260.465z"/>
		<path fill="#FFFFFF" d="M270.802,81.784h-1.156v-4.947c0-1.054-0.156-1.819-0.468-2.295c-0.312-0.476-0.79-0.714-1.437-0.714
			c-0.34,0-0.68,0.062-1.02,0.187c-0.34,0.125-0.655,0.3-0.944,0.527c-0.289,0.227-0.547,0.496-0.773,0.808
			c-0.227,0.312-0.391,0.649-0.493,1.012v5.423h-1.156v-8.857h1.054v2.006c0.362-0.646,0.881-1.167,1.555-1.564
			c0.674-0.396,1.409-0.595,2.202-0.595c0.487,0,0.901,0.091,1.241,0.272s0.612,0.436,0.816,0.765
			c0.204,0.329,0.351,0.731,0.441,1.207s0.137,1.003,0.137,1.581V81.784z"/>
		<path fill="#FFFFFF" d="M277.431,81.359c-0.067,0.034-0.167,0.079-0.297,0.136c-0.131,0.057-0.281,0.113-0.451,0.17
			c-0.17,0.057-0.362,0.108-0.577,0.153c-0.216,0.045-0.442,0.068-0.681,0.068c-0.249,0-0.487-0.034-0.714-0.102
			s-0.425-0.173-0.595-0.314s-0.307-0.32-0.408-0.536c-0.102-0.215-0.153-0.464-0.153-0.748v-6.341h-1.224v-0.918h1.224v-2.992
			h1.156v2.992h2.04v0.918h-2.04v6.018c0.022,0.329,0.139,0.569,0.349,0.722c0.21,0.153,0.45,0.229,0.723,0.229
			c0.328,0,0.617-0.053,0.867-0.161c0.249-0.108,0.407-0.184,0.476-0.229L277.431,81.359z"/>
	</g>
	<g>
	</g>
	<line fill="none" stroke="#FFFFFF" stroke-miterlimit="10" x1="399.233" y1="32.685" x2="437.216" y2="32.685"/>
	<line fill="none" stroke="#FFFFFF" stroke-miterlimit="10" x1="437.216" y1="32.685" x2="437.216" y2="231.032"/>
	<line fill="none" stroke="#FFFFFF" stroke-miterlimit="10" x1="437.216" y1="231.032" x2="399.233" y2="231.032"/>
	<line fill="none" stroke="#FFFFFF" stroke-miterlimit="10" x1="437.216" y1="164.849" x2="399.233" y2="164.849"/>
	<line fill="none" stroke="#FFFFFF" stroke-miterlimit="10" x1="437.216" y1="131.757" x2="462.725" y2="131.757"/>
	<g>
		<path fill="#FFFFFF" d="M480.988,124.813v1.054h-8.109v-12.07h7.956v1.054h-6.766v4.352h5.898v1.003h-5.898v4.607H480.988z"/>
		<path fill="#FFFFFF" d="M483.215,117.01l2.652,3.468l0.136,0.255l0.136-0.255l2.652-3.468h1.241l-3.384,4.454l3.384,4.403h-1.241
			l-2.652-3.451l-0.136-0.238l-0.136,0.238l-2.652,3.451h-1.241l3.383-4.403l-3.383-4.454H483.215z"/>
		<path fill="#FFFFFF" d="M495.813,125.442c-0.068,0.034-0.168,0.079-0.298,0.136c-0.131,0.057-0.28,0.113-0.45,0.17
			c-0.17,0.057-0.363,0.108-0.578,0.153c-0.216,0.045-0.442,0.068-0.681,0.068c-0.249,0-0.487-0.034-0.714-0.102
			s-0.425-0.173-0.595-0.314s-0.306-0.32-0.408-0.536c-0.102-0.215-0.152-0.464-0.152-0.748v-6.341h-1.225v-0.918h1.225v-2.992
			h1.155v2.992h2.04v0.918h-2.04v6.018c0.022,0.329,0.139,0.569,0.349,0.722c0.21,0.153,0.45,0.229,0.723,0.229
			c0.328,0,0.617-0.053,0.867-0.161c0.249-0.108,0.408-0.184,0.476-0.229L495.813,125.442z"/>
		<path fill="#FFFFFF" d="M500.861,126.037c-0.646,0-1.238-0.122-1.776-0.365c-0.538-0.244-1.006-0.578-1.402-1.003
			c-0.396-0.425-0.705-0.915-0.927-1.47c-0.221-0.555-0.331-1.15-0.331-1.785c0-0.623,0.11-1.209,0.331-1.759
			c0.222-0.55,0.527-1.031,0.918-1.445c0.392-0.414,0.859-0.742,1.403-0.986s1.133-0.365,1.768-0.365
			c0.646,0,1.238,0.122,1.776,0.365s1,0.575,1.386,0.995c0.385,0.419,0.686,0.901,0.901,1.445c0.215,0.544,0.322,1.122,0.322,1.734
			c0,0.091,0,0.182,0,0.272c0,0.091-0.006,0.153-0.017,0.187h-7.582c0.034,0.476,0.145,0.916,0.331,1.318
			c0.188,0.402,0.428,0.751,0.723,1.045c0.295,0.295,0.632,0.524,1.012,0.688c0.38,0.165,0.784,0.247,1.216,0.247
			c0.283,0,0.566-0.04,0.85-0.119c0.283-0.079,0.544-0.187,0.782-0.323c0.238-0.136,0.453-0.303,0.646-0.502
			c0.192-0.198,0.34-0.417,0.442-0.654l1.003,0.272c-0.136,0.329-0.329,0.626-0.578,0.893c-0.249,0.267-0.538,0.499-0.867,0.697
			c-0.328,0.199-0.691,0.352-1.088,0.459C501.705,125.983,501.291,126.037,500.861,126.037z M504.125,120.971
			c-0.034-0.476-0.145-0.91-0.332-1.3c-0.187-0.391-0.425-0.729-0.714-1.012s-0.623-0.504-1.003-0.663
			c-0.38-0.159-0.785-0.238-1.216-0.238s-0.839,0.079-1.224,0.238c-0.386,0.159-0.723,0.38-1.012,0.663s-0.521,0.624-0.696,1.02
			c-0.177,0.397-0.281,0.828-0.315,1.292H504.125z"/>
		<path fill="#FFFFFF" d="M511.436,118.03c-0.782,0.023-1.462,0.238-2.04,0.646c-0.578,0.408-0.986,0.969-1.225,1.683v5.508h-1.155
			v-8.857h1.088v2.125c0.328-0.68,0.771-1.212,1.326-1.598c0.555-0.385,1.149-0.578,1.784-0.578c0.091,0,0.164,0.006,0.222,0.017
			V118.03z"/>
		<path fill="#FFFFFF" d="M520.428,125.867h-1.155v-4.947c0-1.054-0.156-1.819-0.468-2.295c-0.312-0.476-0.791-0.714-1.437-0.714
			c-0.34,0-0.68,0.062-1.021,0.187c-0.34,0.125-0.654,0.3-0.943,0.527c-0.289,0.227-0.547,0.496-0.773,0.808
			c-0.227,0.312-0.391,0.649-0.493,1.012v5.423h-1.155v-8.857h1.054v2.006c0.362-0.646,0.881-1.167,1.556-1.564
			c0.674-0.396,1.408-0.595,2.201-0.595c0.487,0,0.901,0.091,1.241,0.272s0.612,0.436,0.815,0.765
			c0.204,0.329,0.352,0.731,0.442,1.207s0.136,1.003,0.136,1.581V125.867z"/>
		<path fill="#FFFFFF" d="M525.12,126.037c-0.419,0-0.808-0.071-1.164-0.212c-0.357-0.142-0.669-0.337-0.936-0.586
			c-0.267-0.249-0.474-0.541-0.62-0.875c-0.147-0.334-0.222-0.694-0.222-1.08s0.091-0.742,0.272-1.071
			c0.181-0.329,0.437-0.612,0.765-0.85c0.329-0.238,0.72-0.422,1.174-0.553c0.453-0.13,0.951-0.195,1.495-0.195
			c0.453,0,0.912,0.04,1.377,0.119c0.465,0.079,0.879,0.193,1.241,0.34v-0.799c0-0.782-0.221-1.403-0.663-1.862
			c-0.441-0.459-1.054-0.688-1.836-0.688c-0.453,0-0.918,0.091-1.394,0.272c-0.477,0.182-0.958,0.442-1.445,0.782l-0.408-0.765
			c1.145-0.771,2.256-1.156,3.332-1.156c1.111,0,1.983,0.312,2.618,0.935c0.635,0.624,0.952,1.485,0.952,2.584v3.995
			c0,0.317,0.142,0.476,0.425,0.476v1.02c-0.192,0.034-0.34,0.051-0.441,0.051c-0.295,0-0.524-0.073-0.688-0.221
			c-0.165-0.147-0.253-0.351-0.264-0.612l-0.034-0.697c-0.408,0.533-0.921,0.941-1.539,1.224
			C526.5,125.895,525.834,126.037,525.12,126.037z M525.393,125.153c0.601,0,1.152-0.113,1.657-0.34
			c0.504-0.227,0.887-0.527,1.147-0.901c0.102-0.102,0.179-0.212,0.229-0.332c0.051-0.119,0.076-0.229,0.076-0.332v-1.445
			c-0.385-0.147-0.785-0.261-1.198-0.34c-0.414-0.079-0.836-0.119-1.267-0.119c-0.816,0-1.479,0.17-1.989,0.51
			c-0.51,0.34-0.765,0.788-0.765,1.343c0,0.272,0.054,0.527,0.161,0.765c0.108,0.238,0.255,0.445,0.442,0.62
			c0.187,0.176,0.41,0.314,0.672,0.417C524.819,125.102,525.098,125.153,525.393,125.153z"/>
		<path fill="#FFFFFF" d="M532.209,113.457h1.156v10.404c0,0.329,0.09,0.586,0.271,0.773s0.437,0.28,0.765,0.28
			c0.125,0,0.272-0.017,0.442-0.051c0.17-0.034,0.329-0.079,0.476-0.136l0.204,0.935c-0.215,0.091-0.479,0.165-0.79,0.221
			s-0.581,0.085-0.808,0.085c-0.533,0-0.952-0.15-1.258-0.451c-0.307-0.3-0.459-0.722-0.459-1.267V113.457z"/>
		<path fill="#FFFFFF" d="M472.08,140.147c0-0.725,0.128-1.448,0.383-2.167c0.255-0.719,0.626-1.363,1.113-1.929
			c0.487-0.567,1.088-1.029,1.802-1.386s1.524-0.536,2.432-0.536c1.076,0,1.997,0.244,2.762,0.731
			c0.766,0.488,1.329,1.122,1.692,1.904l-0.936,0.578c-0.192-0.397-0.428-0.731-0.705-1.003c-0.278-0.272-0.575-0.493-0.893-0.663
			c-0.317-0.17-0.646-0.292-0.986-0.366s-0.675-0.11-1.003-0.11c-0.726,0-1.366,0.147-1.921,0.442
			c-0.556,0.295-1.023,0.68-1.402,1.156c-0.38,0.476-0.666,1.012-0.858,1.607c-0.193,0.595-0.289,1.198-0.289,1.811
			c0,0.668,0.116,1.309,0.349,1.921c0.231,0.612,0.549,1.153,0.951,1.624s0.879,0.844,1.429,1.122
			c0.549,0.278,1.147,0.417,1.793,0.417c0.34,0,0.688-0.042,1.046-0.127c0.356-0.085,0.702-0.221,1.037-0.408
			c0.334-0.187,0.643-0.419,0.926-0.697c0.283-0.277,0.521-0.614,0.715-1.011l0.985,0.51c-0.192,0.454-0.465,0.853-0.815,1.199
			c-0.352,0.346-0.743,0.637-1.173,0.875c-0.432,0.238-0.888,0.419-1.369,0.544s-0.955,0.187-1.419,0.187
			c-0.828,0-1.587-0.181-2.278-0.544s-1.286-0.836-1.785-1.419c-0.499-0.584-0.887-1.247-1.164-1.989
			C472.219,141.674,472.08,140.918,472.08,140.147z"/>
		<path fill="#FFFFFF" d="M488.077,146.437c-0.646,0-1.235-0.122-1.768-0.365c-0.533-0.244-0.995-0.575-1.386-0.995
			s-0.694-0.907-0.909-1.462c-0.216-0.555-0.323-1.139-0.323-1.751c0-0.624,0.11-1.213,0.331-1.768
			c0.222-0.555,0.527-1.042,0.918-1.462c0.392-0.419,0.854-0.754,1.386-1.003c0.533-0.249,1.116-0.374,1.751-0.374
			s1.222,0.125,1.76,0.374c0.538,0.25,1.003,0.584,1.394,1.003c0.392,0.419,0.697,0.907,0.918,1.462
			c0.222,0.555,0.332,1.145,0.332,1.768c0,0.612-0.108,1.196-0.323,1.751s-0.519,1.042-0.909,1.462
			c-0.392,0.419-0.856,0.751-1.395,0.995C489.316,146.315,488.724,146.437,488.077,146.437z M484.864,141.88
			c0,0.499,0.085,0.961,0.255,1.386s0.399,0.799,0.688,1.122c0.289,0.323,0.629,0.575,1.021,0.756
			c0.391,0.182,0.808,0.272,1.249,0.272c0.442,0,0.858-0.093,1.25-0.28c0.391-0.187,0.733-0.442,1.028-0.765
			c0.294-0.323,0.526-0.7,0.697-1.13c0.17-0.431,0.255-0.896,0.255-1.394c0-0.487-0.085-0.949-0.255-1.386
			c-0.171-0.436-0.403-0.816-0.697-1.139c-0.295-0.323-0.638-0.578-1.028-0.765c-0.392-0.187-0.808-0.281-1.25-0.281
			c-0.441,0-0.855,0.094-1.241,0.281c-0.385,0.187-0.725,0.445-1.02,0.773c-0.295,0.329-0.527,0.711-0.697,1.147
			C484.949,140.915,484.864,141.382,484.864,141.88z"/>
		<path fill="#FFFFFF" d="M501.863,146.267h-1.155v-4.947c0-1.054-0.156-1.819-0.468-2.295c-0.312-0.476-0.791-0.714-1.437-0.714
			c-0.34,0-0.68,0.062-1.021,0.187c-0.34,0.125-0.654,0.3-0.943,0.527c-0.289,0.227-0.547,0.496-0.773,0.808
			c-0.227,0.312-0.391,0.649-0.493,1.012v5.423h-1.155v-8.857h1.054v2.006c0.362-0.646,0.881-1.167,1.556-1.564
			c0.674-0.396,1.408-0.595,2.201-0.595c0.487,0,0.901,0.091,1.241,0.272s0.612,0.436,0.815,0.765
			c0.204,0.329,0.352,0.731,0.442,1.207s0.136,1.003,0.136,1.581V146.267z"/>
		<path fill="#FFFFFF" d="M508.494,145.842c-0.068,0.034-0.168,0.079-0.298,0.136c-0.131,0.057-0.28,0.113-0.45,0.17
			c-0.17,0.057-0.363,0.108-0.578,0.153c-0.216,0.045-0.442,0.068-0.681,0.068c-0.249,0-0.487-0.034-0.714-0.102
			s-0.425-0.173-0.595-0.314s-0.306-0.32-0.408-0.536c-0.102-0.215-0.152-0.464-0.152-0.748v-6.341h-1.225v-0.918h1.225v-2.992
			h1.155v2.992h2.04v0.918h-2.04v6.018c0.022,0.329,0.139,0.569,0.349,0.722c0.21,0.153,0.45,0.229,0.723,0.229
			c0.328,0,0.617-0.053,0.867-0.161c0.249-0.108,0.408-0.184,0.476-0.229L508.494,145.842z"/>
		<path fill="#FFFFFF" d="M513.543,146.437c-0.646,0-1.238-0.122-1.776-0.365c-0.538-0.244-1.006-0.578-1.402-1.003
			c-0.396-0.425-0.705-0.915-0.927-1.47c-0.221-0.555-0.331-1.15-0.331-1.785c0-0.623,0.11-1.209,0.331-1.759
			c0.222-0.55,0.527-1.031,0.918-1.445c0.392-0.414,0.859-0.742,1.403-0.986c0.544-0.244,1.133-0.365,1.768-0.365
			c0.646,0,1.238,0.122,1.776,0.365s1,0.575,1.386,0.995c0.385,0.419,0.686,0.901,0.901,1.445c0.215,0.544,0.322,1.122,0.322,1.734
			c0,0.091,0,0.182,0,0.272c0,0.091-0.006,0.153-0.017,0.187h-7.582c0.034,0.476,0.145,0.916,0.331,1.318
			c0.188,0.402,0.428,0.751,0.723,1.045c0.295,0.295,0.632,0.524,1.012,0.688c0.38,0.165,0.784,0.247,1.216,0.247
			c0.283,0,0.566-0.04,0.85-0.119c0.283-0.079,0.544-0.187,0.782-0.323c0.238-0.136,0.453-0.303,0.646-0.502
			c0.192-0.198,0.34-0.417,0.442-0.654l1.003,0.272c-0.136,0.329-0.329,0.626-0.578,0.893c-0.249,0.267-0.538,0.499-0.867,0.697
			c-0.328,0.199-0.691,0.352-1.088,0.459C514.388,146.383,513.974,146.437,513.543,146.437z M516.808,141.371
			c-0.034-0.476-0.145-0.91-0.332-1.3c-0.187-0.391-0.425-0.729-0.714-1.012s-0.623-0.504-1.003-0.663
			c-0.38-0.159-0.785-0.238-1.216-0.238s-0.839,0.079-1.224,0.238c-0.386,0.159-0.723,0.38-1.012,0.663s-0.521,0.624-0.696,1.02
			c-0.177,0.397-0.281,0.828-0.315,1.292H516.808z"/>
		<path fill="#FFFFFF" d="M527.143,146.267h-1.155v-4.947c0-1.054-0.156-1.819-0.468-2.295c-0.312-0.476-0.791-0.714-1.437-0.714
			c-0.34,0-0.68,0.062-1.021,0.187c-0.34,0.125-0.654,0.3-0.943,0.527c-0.289,0.227-0.547,0.496-0.773,0.808
			c-0.227,0.312-0.391,0.649-0.493,1.012v5.423h-1.155v-8.857h1.054v2.006c0.362-0.646,0.881-1.167,1.556-1.564
			c0.674-0.396,1.408-0.595,2.201-0.595c0.487,0,0.901,0.091,1.241,0.272s0.612,0.436,0.815,0.765
			c0.204,0.329,0.352,0.731,0.442,1.207s0.136,1.003,0.136,1.581V146.267z"/>
		<path fill="#FFFFFF" d="M533.774,145.842c-0.068,0.034-0.168,0.079-0.298,0.136c-0.131,0.057-0.28,0.113-0.45,0.17
			c-0.17,0.057-0.363,0.108-0.578,0.153c-0.216,0.045-0.442,0.068-0.681,0.068c-0.249,0-0.487-0.034-0.714-0.102
			s-0.425-0.173-0.595-0.314s-0.306-0.32-0.408-0.536c-0.102-0.215-0.152-0.464-0.152-0.748v-6.341h-1.225v-0.918h1.225v-2.992
			h1.155v2.992h2.04v0.918h-2.04v6.018c0.022,0.329,0.139,0.569,0.349,0.722c0.21,0.153,0.45,0.229,0.723,0.229
			c0.328,0,0.617-0.053,0.867-0.161c0.249-0.108,0.408-0.184,0.476-0.229L533.774,145.842z"/>
	</g>
	<g>
		<path fill="#EF8311" d="M16.878,103.356c-0.839,0-1.606-0.173-2.304-0.519s-1.295-0.805-1.793-1.377
			c-0.499-0.572-0.885-1.227-1.156-1.963c-0.272-0.737-0.408-1.49-0.408-2.261c0-0.804,0.145-1.575,0.434-2.312
			c0.289-0.736,0.688-1.388,1.198-1.955c0.511-0.567,1.111-1.017,1.803-1.352c0.69-0.334,1.438-0.501,2.243-0.501
			c0.839,0,1.606,0.178,2.304,0.535s1.292,0.825,1.785,1.403c0.493,0.578,0.876,1.232,1.147,1.963
			c0.272,0.731,0.408,1.476,0.408,2.235c0,0.805-0.145,1.576-0.434,2.312c-0.289,0.737-0.686,1.386-1.19,1.947
			c-0.504,0.561-1.102,1.009-1.793,1.343C18.431,103.189,17.683,103.356,16.878,103.356z M12.407,97.236
			c0,0.658,0.107,1.29,0.322,1.896c0.216,0.606,0.521,1.145,0.918,1.615c0.397,0.47,0.867,0.844,1.411,1.122s1.15,0.417,1.819,0.417
			c0.68,0,1.298-0.147,1.853-0.442c0.556-0.294,1.026-0.68,1.411-1.156c0.386-0.476,0.683-1.014,0.893-1.615
			c0.21-0.601,0.314-1.212,0.314-1.836c0-0.657-0.11-1.289-0.331-1.896c-0.221-0.606-0.53-1.142-0.927-1.606
			c-0.396-0.464-0.867-0.835-1.411-1.113s-1.145-0.417-1.802-0.417c-0.68,0-1.298,0.145-1.853,0.434
			c-0.556,0.289-1.026,0.671-1.411,1.147c-0.386,0.476-0.684,1.014-0.893,1.615C12.512,96.001,12.407,96.613,12.407,97.236z"/>
		<path fill="#EF8311" d="M28.965,95.434c-0.782,0.023-1.462,0.238-2.04,0.646c-0.578,0.408-0.986,0.969-1.225,1.683v5.508h-1.155
			v-8.857h1.088v2.125c0.328-0.68,0.771-1.212,1.326-1.598c0.555-0.385,1.149-0.578,1.784-0.578c0.091,0,0.164,0.006,0.222,0.017
			V95.434z"/>
		<path fill="#EF8311" d="M30.512,92.561v-1.7h1.155v1.7H30.512z M30.512,103.271v-8.857h1.155v8.857H30.512z"/>
		<path fill="#EF8311" d="M37.771,103.39c-0.612,0-1.171-0.127-1.675-0.383c-0.504-0.255-0.94-0.592-1.309-1.011
			s-0.654-0.901-0.858-1.445c-0.204-0.544-0.307-1.105-0.307-1.683c0-0.612,0.1-1.199,0.298-1.76s0.479-1.051,0.842-1.47
			c0.362-0.419,0.796-0.754,1.3-1.003c0.505-0.249,1.062-0.374,1.675-0.374c0.759,0,1.417,0.189,1.972,0.569
			c0.556,0.38,1.031,0.858,1.429,1.437v-1.853h1.037v8.891c0,0.612-0.117,1.153-0.349,1.624c-0.232,0.47-0.544,0.864-0.936,1.181
			c-0.391,0.317-0.85,0.555-1.377,0.714c-0.526,0.158-1.085,0.238-1.674,0.238c-1.021,0-1.843-0.182-2.466-0.544
			c-0.623-0.363-1.128-0.85-1.513-1.462l0.714-0.561c0.352,0.566,0.816,0.983,1.395,1.25c0.577,0.266,1.201,0.399,1.87,0.399
			c0.43,0,0.838-0.06,1.224-0.179c0.385-0.119,0.723-0.295,1.012-0.527c0.289-0.232,0.519-0.527,0.688-0.884
			c0.17-0.357,0.255-0.774,0.255-1.25v-1.751c-0.34,0.566-0.805,1.014-1.395,1.343C39.034,103.226,38.416,103.39,37.771,103.39z
			 M38.094,102.421c0.34,0,0.674-0.062,1.003-0.187c0.328-0.125,0.626-0.292,0.893-0.501c0.266-0.209,0.489-0.445,0.671-0.706
			c0.182-0.26,0.301-0.527,0.357-0.799v-2.737c-0.125-0.317-0.295-0.612-0.51-0.884c-0.216-0.272-0.459-0.504-0.731-0.697
			s-0.563-0.346-0.875-0.459c-0.312-0.113-0.627-0.17-0.944-0.17c-0.498,0-0.943,0.105-1.334,0.315
			c-0.392,0.209-0.723,0.484-0.995,0.824c-0.271,0.34-0.479,0.726-0.62,1.156s-0.213,0.867-0.213,1.309
			c0,0.476,0.086,0.93,0.256,1.36s0.404,0.808,0.705,1.13c0.3,0.323,0.648,0.578,1.046,0.765
			C37.198,102.328,37.629,102.421,38.094,102.421z"/>
		<path fill="#EF8311" d="M44.724,92.561v-1.7h1.155v1.7H44.724z M44.724,103.271v-8.857h1.155v8.857H44.724z"/>
		<path fill="#EF8311" d="M55.875,103.271H54.72v-4.947c0-1.054-0.156-1.819-0.468-2.295c-0.312-0.476-0.791-0.714-1.437-0.714
			c-0.34,0-0.68,0.062-1.021,0.187c-0.34,0.125-0.654,0.3-0.943,0.527c-0.289,0.227-0.547,0.496-0.773,0.808
			c-0.227,0.312-0.391,0.649-0.493,1.012v5.423H48.43v-8.857h1.054v2.006c0.362-0.646,0.881-1.167,1.556-1.564
			c0.674-0.396,1.408-0.595,2.201-0.595c0.487,0,0.901,0.091,1.241,0.272s0.612,0.436,0.815,0.765
			c0.204,0.329,0.352,0.731,0.442,1.207s0.136,1.003,0.136,1.581V103.271z"/>
		<path fill="#EF8311" d="M60.568,103.441c-0.419,0-0.808-0.071-1.164-0.212c-0.357-0.142-0.669-0.337-0.936-0.586
			c-0.267-0.249-0.474-0.541-0.62-0.875c-0.147-0.334-0.222-0.694-0.222-1.08s0.091-0.742,0.272-1.071
			c0.181-0.329,0.437-0.612,0.765-0.85c0.329-0.238,0.72-0.422,1.174-0.553c0.453-0.13,0.951-0.195,1.495-0.195
			c0.453,0,0.912,0.04,1.377,0.119c0.465,0.079,0.879,0.193,1.241,0.34v-0.799c0-0.782-0.221-1.403-0.663-1.862
			c-0.441-0.459-1.054-0.688-1.836-0.688c-0.453,0-0.918,0.091-1.394,0.272c-0.477,0.182-0.958,0.442-1.445,0.782l-0.408-0.765
			c1.145-0.771,2.256-1.156,3.332-1.156c1.111,0,1.983,0.312,2.618,0.935c0.635,0.624,0.952,1.485,0.952,2.584v3.995
			c0,0.317,0.142,0.476,0.425,0.476v1.02c-0.192,0.034-0.34,0.051-0.441,0.051c-0.295,0-0.524-0.073-0.688-0.221
			c-0.165-0.147-0.253-0.351-0.264-0.612l-0.034-0.697c-0.408,0.533-0.921,0.941-1.539,1.224
			C61.947,103.299,61.281,103.441,60.568,103.441z M60.84,102.557c0.601,0,1.152-0.113,1.657-0.34
			c0.504-0.227,0.887-0.527,1.147-0.901c0.102-0.102,0.179-0.212,0.229-0.332c0.051-0.119,0.076-0.229,0.076-0.332v-1.445
			c-0.385-0.147-0.785-0.261-1.198-0.34c-0.414-0.079-0.836-0.119-1.267-0.119c-0.816,0-1.479,0.17-1.989,0.51
			c-0.51,0.34-0.765,0.788-0.765,1.343c0,0.272,0.054,0.527,0.161,0.765c0.108,0.238,0.255,0.445,0.442,0.62
			c0.187,0.176,0.41,0.314,0.672,0.417C60.267,102.506,60.545,102.557,60.84,102.557z"/>
		<path fill="#EF8311" d="M67.656,90.861h1.156v10.404c0,0.329,0.09,0.586,0.271,0.773s0.437,0.28,0.765,0.28
			c0.125,0,0.272-0.017,0.442-0.051c0.17-0.034,0.329-0.079,0.476-0.136l0.204,0.935c-0.215,0.091-0.479,0.165-0.79,0.221
			s-0.581,0.085-0.808,0.085c-0.533,0-0.952-0.15-1.258-0.451c-0.307-0.3-0.459-0.722-0.459-1.267V90.861z"/>
		<path fill="#EF8311" d="M8.565,117.551c0-0.725,0.128-1.448,0.383-2.167c0.255-0.719,0.626-1.363,1.113-1.929
			c0.487-0.567,1.088-1.029,1.802-1.386s1.524-0.536,2.432-0.536c1.076,0,1.997,0.244,2.762,0.731
			c0.766,0.488,1.329,1.122,1.692,1.904l-0.936,0.578c-0.192-0.397-0.428-0.731-0.705-1.003c-0.278-0.272-0.575-0.493-0.893-0.663
			c-0.317-0.17-0.646-0.292-0.986-0.366s-0.675-0.11-1.003-0.11c-0.726,0-1.366,0.147-1.921,0.442
			c-0.556,0.295-1.023,0.68-1.402,1.156c-0.38,0.476-0.666,1.012-0.858,1.607c-0.193,0.595-0.289,1.198-0.289,1.811
			c0,0.668,0.116,1.309,0.349,1.921c0.231,0.612,0.549,1.153,0.951,1.624s0.879,0.844,1.429,1.122
			c0.549,0.278,1.147,0.417,1.793,0.417c0.34,0,0.688-0.042,1.046-0.127c0.356-0.085,0.702-0.221,1.037-0.408
			c0.334-0.187,0.643-0.419,0.926-0.697c0.283-0.277,0.521-0.614,0.715-1.011l0.985,0.51c-0.192,0.454-0.465,0.853-0.815,1.199
			c-0.352,0.346-0.743,0.637-1.173,0.875c-0.432,0.238-0.888,0.419-1.369,0.544s-0.955,0.187-1.419,0.187
			c-0.828,0-1.587-0.181-2.278-0.544s-1.286-0.836-1.785-1.419c-0.499-0.584-0.887-1.247-1.164-1.989
			C8.703,119.078,8.565,118.322,8.565,117.551z"/>
		<path fill="#EF8311" d="M24.562,123.841c-0.646,0-1.235-0.122-1.768-0.365c-0.533-0.244-0.995-0.575-1.386-0.995
			s-0.694-0.907-0.909-1.462c-0.216-0.555-0.323-1.139-0.323-1.751c0-0.624,0.11-1.213,0.331-1.768
			c0.222-0.555,0.527-1.042,0.918-1.462c0.392-0.419,0.854-0.754,1.386-1.003c0.533-0.249,1.116-0.374,1.751-0.374
			s1.222,0.125,1.76,0.374c0.538,0.25,1.003,0.584,1.394,1.003c0.392,0.419,0.697,0.907,0.918,1.462
			c0.222,0.555,0.332,1.145,0.332,1.768c0,0.612-0.108,1.196-0.323,1.751s-0.519,1.042-0.909,1.462
			c-0.392,0.419-0.856,0.751-1.395,0.995C25.8,123.719,25.208,123.841,24.562,123.841z M21.349,119.285
			c0,0.499,0.085,0.961,0.255,1.386s0.399,0.799,0.688,1.122c0.289,0.323,0.629,0.575,1.021,0.756
			c0.391,0.182,0.808,0.272,1.249,0.272c0.442,0,0.858-0.093,1.25-0.28c0.391-0.187,0.733-0.442,1.028-0.765
			c0.294-0.323,0.526-0.7,0.697-1.13c0.17-0.431,0.255-0.896,0.255-1.394c0-0.487-0.085-0.949-0.255-1.386
			c-0.171-0.436-0.403-0.816-0.697-1.139c-0.295-0.323-0.638-0.578-1.028-0.765c-0.392-0.187-0.808-0.281-1.25-0.281
			c-0.441,0-0.855,0.094-1.241,0.281c-0.385,0.187-0.725,0.445-1.02,0.773c-0.295,0.329-0.527,0.711-0.697,1.147
			C21.434,118.319,21.349,118.786,21.349,119.285z"/>
		<path fill="#EF8311" d="M38.349,123.671h-1.155v-4.947c0-1.054-0.156-1.819-0.468-2.295c-0.312-0.476-0.791-0.714-1.437-0.714
			c-0.34,0-0.68,0.062-1.021,0.187c-0.34,0.125-0.654,0.3-0.943,0.527c-0.289,0.227-0.547,0.496-0.773,0.808
			c-0.227,0.312-0.391,0.649-0.493,1.012v5.423h-1.155v-8.857h1.054v2.006c0.362-0.646,0.881-1.167,1.556-1.564
			c0.674-0.396,1.408-0.595,2.201-0.595c0.487,0,0.901,0.091,1.241,0.272s0.612,0.436,0.815,0.765
			c0.204,0.329,0.352,0.731,0.442,1.207s0.136,1.003,0.136,1.581V123.671z"/>
		<path fill="#EF8311" d="M44.98,123.246c-0.068,0.034-0.168,0.079-0.298,0.136c-0.131,0.057-0.28,0.113-0.45,0.17
			c-0.17,0.057-0.363,0.108-0.578,0.153c-0.216,0.045-0.442,0.068-0.681,0.068c-0.249,0-0.487-0.034-0.714-0.102
			s-0.425-0.173-0.595-0.314s-0.306-0.32-0.408-0.536c-0.102-0.215-0.152-0.464-0.152-0.748v-6.341h-1.225v-0.918h1.225v-2.992
			h1.155v2.992h2.04v0.918h-2.04v6.018c0.022,0.329,0.139,0.569,0.349,0.722c0.21,0.153,0.45,0.229,0.723,0.229
			c0.328,0,0.617-0.053,0.867-0.161c0.249-0.108,0.408-0.184,0.476-0.229L44.98,123.246z"/>
		<path fill="#EF8311" d="M50.028,123.841c-0.646,0-1.238-0.122-1.776-0.365c-0.538-0.244-1.006-0.578-1.402-1.003
			c-0.396-0.425-0.705-0.915-0.927-1.47c-0.221-0.555-0.331-1.15-0.331-1.785c0-0.623,0.11-1.209,0.331-1.759
			c0.222-0.55,0.527-1.031,0.918-1.445c0.392-0.414,0.859-0.742,1.403-0.986s1.133-0.365,1.768-0.365
			c0.646,0,1.238,0.122,1.776,0.365s1,0.575,1.386,0.995c0.385,0.419,0.686,0.901,0.901,1.445c0.215,0.544,0.322,1.122,0.322,1.734
			c0,0.091,0,0.182,0,0.272c0,0.091-0.006,0.153-0.017,0.187h-7.582c0.034,0.476,0.145,0.916,0.331,1.318
			c0.188,0.402,0.428,0.751,0.723,1.045c0.295,0.295,0.632,0.524,1.012,0.688c0.38,0.165,0.784,0.247,1.216,0.247
			c0.283,0,0.566-0.04,0.85-0.119c0.283-0.079,0.544-0.187,0.782-0.323c0.238-0.136,0.453-0.303,0.646-0.502
			c0.192-0.198,0.34-0.417,0.442-0.654l1.003,0.272c-0.136,0.329-0.329,0.626-0.578,0.893c-0.249,0.267-0.538,0.499-0.867,0.697
			c-0.328,0.199-0.691,0.352-1.088,0.459C50.873,123.787,50.459,123.841,50.028,123.841z M53.293,118.775
			c-0.034-0.476-0.145-0.91-0.332-1.3c-0.187-0.391-0.425-0.729-0.714-1.012s-0.623-0.504-1.003-0.663
			c-0.38-0.159-0.785-0.238-1.216-0.238s-0.839,0.079-1.224,0.238c-0.386,0.159-0.723,0.38-1.012,0.663s-0.521,0.624-0.696,1.02
			c-0.177,0.397-0.281,0.828-0.315,1.292H53.293z"/>
		<path fill="#EF8311" d="M63.628,123.671h-1.155v-4.947c0-1.054-0.156-1.819-0.468-2.295c-0.312-0.476-0.791-0.714-1.437-0.714
			c-0.34,0-0.68,0.062-1.021,0.187c-0.34,0.125-0.654,0.3-0.943,0.527c-0.289,0.227-0.547,0.496-0.773,0.808
			c-0.227,0.312-0.391,0.649-0.493,1.012v5.423h-1.155v-8.857h1.054v2.006c0.362-0.646,0.881-1.167,1.556-1.564
			c0.674-0.396,1.408-0.595,2.201-0.595c0.487,0,0.901,0.091,1.241,0.272s0.612,0.436,0.815,0.765
			c0.204,0.329,0.352,0.731,0.442,1.207s0.136,1.003,0.136,1.581V123.671z"/>
		<path fill="#EF8311" d="M70.259,123.246c-0.068,0.034-0.168,0.079-0.298,0.136c-0.131,0.057-0.28,0.113-0.45,0.17
			c-0.17,0.057-0.363,0.108-0.578,0.153c-0.216,0.045-0.442,0.068-0.681,0.068c-0.249,0-0.487-0.034-0.714-0.102
			s-0.425-0.173-0.595-0.314s-0.306-0.32-0.408-0.536c-0.102-0.215-0.152-0.464-0.152-0.748v-6.341h-1.225v-0.918h1.225v-2.992
			h1.155v2.992h2.04v0.918h-2.04v6.018c0.022,0.329,0.139,0.569,0.349,0.722c0.21,0.153,0.45,0.229,0.723,0.229
			c0.328,0,0.617-0.053,0.867-0.161c0.249-0.108,0.408-0.184,0.476-0.229L70.259,123.246z"/>
	</g>
	<line fill="none" stroke="#EF8311" stroke-miterlimit="10" x1="147.657" y1="11.031" x2="109.673" y2="11.031"/>
	<line fill="none" stroke="#EF8311" stroke-miterlimit="10" x1="109.673" y1="11.031" x2="109.673" y2="208.971"/>
	<line fill="none" stroke="#EF8311" stroke-miterlimit="10" x1="109.673" y1="208.971" x2="147.657" y2="208.971"/>
	<line fill="none" stroke="#EF8311" stroke-miterlimit="10" x1="109.673" y1="98.666" x2="147.657" y2="98.666"/>
	<line fill="none" stroke="#EF8311" stroke-miterlimit="10" x1="109.673" y1="76.604" x2="147.657" y2="76.604"/>
	<line fill="none" stroke="#EF8311" stroke-miterlimit="10" x1="109.673" y1="54.543" x2="147.657" y2="54.543"/>
	<line fill="none" stroke="#EF8311" stroke-miterlimit="10" x1="109.673" y1="120.727" x2="147.657" y2="120.727"/>
	<line fill="none" stroke="#EF8311" stroke-miterlimit="10" x1="109.673" y1="142.788" x2="147.657" y2="142.788"/>
	<line fill="none" stroke="#EF8311" stroke-miterlimit="10" x1="109.673" y1="186.91" x2="147.657" y2="186.91"/>
	<line fill="none" stroke="#EF8311" stroke-miterlimit="10" x1="109.673" y1="109.696" x2="84.165" y2="109.696"/>
</g>
<g>
</g>
<g>
</g>
<g>
</g>
<g>
</g>
<g>
</g>
<g>
</g>
</svg>
