<svg id="Layer_1" data-name="Layer 1" xmlns="http://www.w3.org/2000/svg" viewBox="0 0 400 300"><defs><style>.cls-1{fill:none;stroke:#e0ff4f;stroke-miterlimit:10;stroke-width:3px;}</style></defs><title>cover-phases-02</title><path class="cls-1" d="M32.67,83.87h14.1v40.94H66.33v2.4h42.48V73.89h37.4V62.09h-5.47V11.52H88.85V2.83H41.54v2H40.27Z"/><path class="cls-1" d="M146.85,203.8h.86v35.29h38.23v6.45h43v-2h6.49v-2.62h-4.64V180.15H209.27v-11.6h-16Z"/><path class="cls-1" d="M225.23,180.15h5.53v60.74h38.93v9.05h47.92V183.08h-2V149.37H299Z"/><path class="cls-1" d="M145.82,73.89h14.6v31.3h76.49V84.05H309.7V26.56H233.6V62.09h-87Z"/><path class="cls-1" d="M71.79,127.21H82.38v54.44h37.53V203.8h50.17V168.55h14.09V105.19H160.42V73.89h-14.6Z"/><path class="cls-1" d="M175,105.19h9.15v63.36h25.1v11.6h52.85V149.37H298.9V84.05h-.11Z"/><path class="cls-1" d="M179.5,245.36h0v52.17h80.08v-29H326.2V245.36H179.5Z"/></svg>