<?xml version="1.0" encoding="UTF-8"?>
<svg width="125px" height="92px" viewBox="0 0 125 92" version="1.1" xmlns="http://www.w3.org/2000/svg" xmlns:xlink="http://www.w3.org/1999/xlink">
    <!-- Generator: Sketch 56.2 (81672) - https://sketch.com -->
    <title>polimi-logo</title>
    <desc>Created with Sketch.</desc>
    <g id="Page-1" stroke="none" stroke-width="1" fill="none" fill-rule="evenodd">
        <g id="polimi-logo" transform="translate(-1.000000, -1.000000)">
            <path d="M91.1,30.91 L88.6,30.71 M90.9,32.21 L88.4,31.91 M90.8,33.41 L88.4,33.01 M90.5,34.71 L88.1,34.21 M90.2,36.01 L87.8,35.41 M89.9,37.31 L87.5,36.61 M89.5,38.51 L87.2,37.71 M89,39.71 L86.7,38.81 M88.5,40.91 L86.2,39.81 M87.9,42.11 L85.7,40.91 M87.2,43.21 L85.1,41.91 M86.5,44.31 L84.4,42.91 M85.8,45.41 L83.8,44.01 M85,46.41 L83.1,44.91 M84.2,47.41 L82.3,45.81 M83.3,48.41 L81.5,46.71 M82.4,49.31 L80.7,47.51 M81.4,50.11 L79.8,48.31 M80.4,51.01 L78.9,49.01 M79.3,51.81 L77.9,49.81 M78.3,52.51 L77,50.41 M77.2,53.21 L76,51.11 M76,53.81 L74.9,51.61 M74.8,54.41 L73.8,52.21 M73.6,54.91 L72.7,52.61 M72.4,55.31 L71.6,53.01 M71.2,55.71 L70.5,53.31 M69.9,56.11 L69.3,53.71 M68.7,56.41 L68.2,54.01 M67.4,56.61 L67,54.21 M66.1,56.71 L65.8,54.31 M64.8,56.91 L64.7,54.41 M63.5,56.91 L63.5,54.41 M62.2,56.91 L62.3,54.41 M60.9,56.81 L61.1,54.31 M59.6,56.71 L59.9,54.21 M58.3,56.51 L58.7,54.11 M57,56.21 L57.5,53.81 M55.8,55.91 L56.5,53.51 M54.5,55.51 L55.3,53.11 M53.3,55.11 L54.2,52.81 M52.1,54.61 L53.1,52.31 M50.9,54.11 L52,51.91 M49.7,53.51 L50.9,51.31 M48.6,52.81 L49.9,50.71 M47.5,52.11 L48.9,50.11 M46.5,51.31 L48,49.31 M45.4,50.51 L47,48.61 M44.5,49.71 L46.2,47.91 M43.5,48.81 L45.2,47.01 M42.6,47.81 L44.4,46.11 M41.7,46.91 L43.6,45.31 M40.9,45.81 L42.9,44.31 M40.2,44.81 L42.2,43.41 M39.5,43.71 L41.6,42.41 M38.8,42.61 L41,41.41 M38.2,41.41 L40.4,40.31 M37.6,40.31 L39.9,39.31 M37.1,39.01 L39.4,38.11 M36.7,37.81 L39,37.01 M36.3,36.61 L38.7,35.91 M36,35.31 L38.4,34.81 M35.7,34.01 L38.1,33.51 M35.5,32.81 L38,32.51 M35.4,31.51 L37.9,31.31 M35.3,30.21 L37.8,30.11 M35.2,28.91 L37.7,28.91 M35.3,27.61 L37.8,27.71 M35.4,26.31 L37.9,26.51 M35.5,25.01 L37.9,25.41 M35.7,23.71 L38.1,24.21 M36,22.41 L38.4,23.01 M36.4,21.21 L38.8,21.91 M36.7,19.91 L39,20.71 M37.2,18.71 L39.5,19.61 M37.7,17.51 L39.9,18.51 M38.3,16.31 L40.5,17.41 M38.9,15.21 L41.1,16.41 M39.6,14.01 L41.7,15.31 M40.3,13.01 L42.3,14.41 M41.1,11.91 L43.1,13.41 M41.9,10.91 L43.8,12.51 M42.7,9.91 L44.5,11.61 M43.6,9.01 L45.3,10.81 M44.6,8.11 L46.3,9.91 M45.6,7.31 L47.2,9.21 M46.6,6.51 L48.1,8.51 M47.7,5.71 L49.1,7.81 M48.8,5.01 L50.1,7.11 M49.9,4.41 L51.1,6.61 M51.1,3.81 L52.2,6.01 M52.3,3.21 L53.3,5.51 M53.5,2.81 L54.4,5.11 M54.7,2.31 L55.5,4.71 M56,2.01 L56.6,4.41 M57.2,1.71 L57.7,4.11 M58.5,1.41 L58.9,3.81 M59.8,1.21 L60.1,3.71 M61.1,1.11 L61.3,3.61 M62.4,1.01 L62.5,3.51 M63.7,1.01 L63.7,3.51 M65,1.11 L64.8,3.51 M66.3,1.21 L66,3.71 M67.6,1.41 L67.2,3.81 M68.9,1.61 L68.4,4.01 M70.1,1.91 L69.5,4.31 M71.4,2.21 L70.7,4.61 M72.6,2.61 L71.8,5.01 M73.8,3.11 L72.9,5.41 M75,3.61 L74,5.81 M76.2,4.21 L75,6.41 M77.3,4.91 L76,7.01 M78.4,5.51 L77,7.61 M79.5,6.31 L78,8.31 M80.6,7.11 L79.1,9.01 M81.5,7.91 L79.9,9.81 M82.5,8.81 L80.8,10.61 M83.4,9.71 L81.6,11.41 M84.3,10.71 L82.4,12.31 M85.1,11.71 L83.2,13.21 M85.9,12.71 L83.9,14.11 M86.7,13.81 L84.6,15.11 M87.3,14.91 L85.2,16.11 M88,16.01 L85.8,17.21 M88.5,17.21 L86.3,18.21 M89.1,18.41 L86.8,19.31 M89.5,19.61 L87.2,20.41 M89.9,20.81 L87.5,21.51 M90.3,22.11 L87.9,22.71 M90.6,23.41 L88.2,23.91 M90.8,24.61 L88.4,25.01 M91,25.91 L88.5,26.21 M91.1,27.21 L88.6,27.41 M91.1,28.51 L88.6,28.51 M91.1,29.81 L88.6,29.81" id="Shape" stroke="#292E2B" stroke-width="0.46"></path>
            <g id="Group" transform="translate(0.800000, 0.810000)"></g>
            <g id="Group" transform="translate(0.800000, 0.810000)"></g>
            <path d="M43.7,22.31 C42.8566458,23.0272464 42.4100362,24.106553 42.5,25.21 C42.5,27.11 42.8,29.71 42,31.11 C41.9,31.21 41.9,31.31 41.8,31.41 C41.7,31.51 41.2,32.11 41.7,32.11 C42.2,32.11 42.5,32.11 42.7,32.41 L43,32.71 C43.3642068,32.770065 43.7357932,32.770065 44.1,32.71 L43.7,22.31 Z M45.4,22.41 C44.8950146,23.0333498 44.6133673,23.80788 44.6,24.61 C44.6,26.01 45,28.01 45,28.41 C44.9653246,28.9862728 44.8646668,29.5566669 44.7,30.11 C44.4866651,30.9013521 44.5215728,31.739138 44.8,32.51 L45.4,22.41 Z M42.2,20.21 L42.2,20.21 C42.1,20.31 41.6,20.71 42.4,21.91 L42.2,20.21 Z M49.1,20.01 C49.0232143,20.0172916 48.9519047,20.0529464 48.9,20.11 C48.6,20.31 48.1,20.71 47.5,21.11 C46.7,21.71 45.9,20.91 45.5,20.61 C45.1,20.31 44.2,20.61 43.4,20.71 C42.9408053,20.7595791 42.4881342,20.5709662 42.2,20.21 C42,20.01 41.8,19.81 41.8,19.71 C41.6,19.51 41.5,18.71 41.7,18.61 C41.9,18.51 42.5,17.71 42.5,17.71 C43.5,16.01 44.4,15.81 44.4,15.81 L49.1,20.01 Z M53.3,27.21 C53.2546016,27.3400238 53.2211303,27.4739092 53.2,27.61 C53.2,27.71 53.1,28.01 53.1,28.21 C53.1149638,28.3509598 53.0795374,28.4926655 53,28.61 C52.8776473,28.696677 52.7427532,28.764124 52.6,28.81 C52.5,28.81 52.2,28.81 52.1,28.71 L51.7,28.31 L51.6,28.21 C51.4476011,27.9723976 51.3773433,27.6913663 51.4,27.41 C51.5,27.01 51.7,26.61 51.7,26.51 C51.7,26.41 51.2,25.11 51.2,25.11 C51.2,25.11 50.5,24.11 50.3,23.81 C49.684354,22.9273505 49.3370729,21.8855072 49.3,20.81 C49.2233563,20.5164075 49.1896728,20.2132559 49.2,19.91 L49.2,19.51 C49.2706692,18.8122775 49.30405,18.1112805 49.3,17.41 L49.3,17.11 C49.4,16.71 49.5,16.01 49.6,15.51 C49.9487213,14.749838 50.349681,14.0147452 50.8,13.31 L53.3,27.21 Z M48.9,20.11 L47.7,19.71 C47.1870561,19.4839888 46.6503624,19.316272 46.1,19.21 C45.710627,19.1501824 45.3368475,19.0142626 45,18.81 C44.6331251,18.4867175 44.3573089,18.0729932 44.2,17.61 C44.2,17.41 44.3,16.51 44.4,15.81 C44.4,15.61 44.5,15.51 44.5,15.41 C44.7,14.81 45.2,14.61 45.6,14.31 C46,14.01 46.4,13.31 46.8,13.01 C47.5621772,12.6624727 48.3705015,12.4267115 49.2,12.31 C50.0298446,12.2021621 50.8701554,12.2021621 51.7,12.31 L51.8,12.31 C52.2458099,12.3449973 52.6839361,12.4461034 53.1,12.61 C53.2,12.71 53.4,12.81 53.5,12.91 C53.7840411,13.1276454 54.0219853,13.3995815 54.2,13.71 C54.4805806,14.1986887 54.5175487,14.7901782 54.3,15.31 C54.2,15.61 54,15.91 53.9,16.21 C53.7220588,16.4928316 53.4828316,16.7320588 53.2,16.91 C52.9,17.01 52.6,17.11 52.5,17.51 C52.3617534,18.1592163 52.089253,18.7723421 51.7,19.31 C51.7,19.31 51.6,19.31 51.7,19.51 C51.8,19.71 51.7,19.61 51.8,19.71 C52.2377693,20.435647 52.4790193,21.2627896 52.5,22.11 C52.487737,22.8871695 52.588799,23.661978 52.8,24.41 C53,25.11 53.4,25.91 53.6,25.91 C53.8155838,25.9146853 54.0247218,25.984398 54.2,26.11 C54.4204476,26.2647154 54.6547872,26.3986237 54.9,26.51 C55,26.51 55.1,26.61 55.2,26.71 C55.3,26.81 55.2,26.81 55,26.91 C54.73649,26.9680265 54.46351,26.9680265 54.2,26.91 C54.1059368,26.8609662 54.0046709,26.8272109 53.9,26.81 C53.8241924,26.8205679 53.7539389,26.8556946 53.7,26.91 C53.5496257,26.9350408 53.4102572,27.004725 53.3,27.11 L53.3,27.11 L48.9,20.11 Z M49.3,17.21 C48.6,17.41 48,16.81 47.3,16.01 C46.6,15.21 47.1,14.51 48.1,13.51 C48.9,12.61 51.4,12.41 51.9,12.31 L49.3,17.21 Z M51.7,19.61 L52.7,19.11 L53.5,18.71 C53.5,18.71 54.7,18.31 55.4,18.01 L55.8,17.81 L55.8,17.11 L51.7,19.61 Z M56.1,15.81 C56.1503501,16.2332427 56.0435996,16.6602447 55.8,17.01 C55.7,17.11 55.7,17.21 55.6,17.21 L54.9,17.61 L56.1,15.81 Z M58.7,15.61 C58.7,15.61 59,15.91 59.1,15.51 C59.2667073,14.9647677 59.4670925,14.4304072 59.7,13.91 C59.7516945,13.80079 59.8190732,13.6997218 59.9,13.61 L58.7,15.61 Z M54.1,16.21 L56.1,15.71 L56.2,15.81 L57,16.21 C57,16.21 57.5,16.51 57.7,16.41 C57.9,16.31 57.9,16.31 57.9,16.21 C57.9093007,16.1036333 57.9936333,16.0193007 58.1,16.01 C58.2,16.01 58.3,15.81 58.3,15.81 C58.4083035,15.8107376 58.5137998,15.7755722 58.6,15.71 L58.8,15.51 L54.1,16.21 Z M53.2,12.61 C53.1,12.31 53.4,12.01 53.5,11.91 L53.7,11.81 L53.7,11.71 C53.7,11.31 55,11.01 55,11.01 C55,10.11 57.1,10.51 57.1,10.51 C57.7891133,10.4380735 58.4771724,10.6553553 59,11.11 C59.8,11.01 60.2,11.91 60.2,11.91 C60.9,12.11 60.6,13.21 60.6,13.31 C60.6,13.41 60.6,13.61 60.2,13.61 C60.0590402,13.6249638 59.9173345,13.5895374 59.8,13.51 C59.5,13.41 59.5,13.41 59,13.21 L58.5,12.81 C58.5017424,13.014288 58.4679038,13.2173197 58.4,13.41 C58.2,13.61 58.1,13.61 58,13.61 C57.9,13.61 57.6,13.91 57.4,14.01 C57.1531361,14.2401721 56.8362736,14.3809999 56.5,14.41 C56.5,14.41 55.7,14.61 55.5,14.41 C55.3,14.21 54.8,14.51 54.7,14.31 C54.6,14.11 54.5,14.01 54.3,13.81 L53.2,12.61 Z M57.9,15.51 L58.2,15.81 L57.9,15.51 Z M52.8,19.11 C52.7461224,19.3739453 52.7461224,19.6460547 52.8,19.91 C53.0619846,20.6246015 53.7389257,21.1024423 54.5,21.11 L55.8,21.21 L52.8,19.11 Z M55.6,18.01 C55.9272188,18.2443745 56.2288783,18.5125163 56.5,18.81 L55.6,18.01 Z M51.5,28.21 L50.2,28.81 C50.2,28.81 48.9,29.11 48.6,29.21 C48.3,29.31 47,29.51 47.1,30.21 C47.2,30.91 47,31.21 47.3,31.41 C47.460913,31.5192909 47.6278431,31.6194489 47.8,31.71 L51.5,28.21 Z M48.7,31.21 C48.3552905,31.3528712 48.0211226,31.5199551 47.7,31.71 C47.4764024,31.8461175 47.2742069,32.0146137 47.1,32.21 C46.7939635,32.5629106 46.556557,32.9698931 46.4,33.41 L46.4,33.61 C46.4412358,33.96427 46.6209897,34.287827 46.9,34.51 L48.7,31.21 Z M46.4,33.41 C46.0803161,33.1880841 45.7462477,32.987643 45.4,32.81 C45.195712,32.8117424 44.9926803,32.7779038 44.8,32.71 C44.5648047,32.6913408 44.331012,32.6579418 44.1,32.61 C43.5244123,32.7646502 43.0477868,33.1679487 42.8,33.71 C42.7,34.31 42.3,35.81 43.7,35.71 C43.7,35.71 44.2,35.41 44.5,35.21 L44.6,35.11 C45.0203114,34.7693463 45.4931249,34.4991671 46,34.31 L47,34.31 C47.2182802,34.2970085 47.4331707,34.3686387 47.6,34.51 C47.8,34.71 47.9,35.51 48,35.61 C48.1,35.71 48.9,36.41 48.9,36.41 L46.4,33.41 Z M53.8,39.51 L53.8,39.51 L54.4,40.31 L54.7,40.81 C54.7,40.81 54.9,41.01 55,40.91 C55.1,40.81 55.2,40.81 55.1,40.61 C55,40.41 54.8,39.91 54.8,39.91 C54.6537522,39.6627361 54.4864666,39.4285362 54.3,39.21 L54.9,39.41 L55.7,39.91 C55.7767857,39.9027084 55.8480953,39.8670536 55.9,39.81 C55.9,39.71 55.9,39.61 55.8,39.61 C55.7,39.61 55.2,38.81 55.2,38.81 C55.0776473,38.723323 54.9427532,38.655876 54.8,38.61 L54.6,38.41 C54.5214166,38.2313115 54.3786885,38.0885834 54.2,38.01 C53.9897446,37.8398189 53.7533626,37.7047435 53.5,37.61 C53.3,37.61 52.9,37.51 52.9,37.21 C53.0468487,36.6903441 53.2479553,36.1875775 53.5,35.71 L53.9,34.91 C53.9809268,34.8202782 54.0483055,34.71921 54.1,34.61 C54.3168796,34.2328215 54.484895,33.8295846 54.6,33.41 C54.6,33.41 55.5,33.31 55.6,32.81 C55.7,32.31 56,31.71 53.2,30.71 C52.6820535,31.0610175 52.2676725,31.5444619 52,32.11 C51.7655013,32.5955005 51.5650185,33.0967074 51.4,33.61 C51.2787538,34.2363938 51.2118384,34.8720896 51.2,35.51 C51.180414,36.0785432 51.2138923,36.6476741 51.3,37.21 L53.8,39.51 Z M53.4,40.01 L53.4,40.01 L54,41.31 C54,41.31 54.2,41.41 54.2,41.31 C54.2,41.21 54.3,41.21 54.3,41.11 C54.2765175,40.9415137 54.2431263,40.7745576 54.2,40.61 L54,40.11 L53.9,39.81 L53.8,39.51 L53.4,40.01 Z M51.2,37.21 C51.3,38.11 51.4,38.81 51.8,39.11 C51.8,39.11 52.2,39.41 52.3,39.51 C52.4,39.61 52.7,39.81 52.8,39.91 C52.8211303,40.0460908 52.8546016,40.1799762 52.9,40.31 C52.8087741,40.3889721 52.7079842,40.4561653 52.6,40.51 C52.6,40.51 52.5,40.81 52.7,40.81 C52.7,40.81 52.8,40.91 52.8,40.81 C52.8800012,40.7334597 52.9900749,40.6967685 53.1,40.71 C53.2868056,40.6482156 53.4575759,40.5457535 53.6,40.41 L53.6,40.11 L51.2,37.21 Z M48.4,30.91 L48.7,31.21 C49.4825169,32.0613047 50.317478,32.8628674 51.2,33.61 L48.4,30.91 Z M44.6,35.31 C44.6505511,35.7329925 44.7866454,36.1412753 45,36.51 L45.1,36.61 C45.8266161,37.2454611 46.7379476,37.6310245 47.7,37.71 C49,37.81 50.4,38.01 51.2,37.21 L51.2,37.21 L44.6,35.31 Z M45.1,36.61 C44.9359057,37.459347 45.1555182,38.337797 45.7,39.01 L45.8,39.11 C46.7716988,40.0582311 47.8448286,40.8966138 49,41.61 C50.2,42.21 52.9,43.31 53.2,43.41 C53.3,43.41 53.4,43.51 53.5,43.51 C54.09267,43.7174958 54.6623523,43.9855816 55.2,44.31 L45.1,36.61 Z M45.7,39.01 C45.5753257,39.1471618 45.5043129,39.3246936 45.5,39.51 C45.5180738,39.952192 45.4501512,40.3936887 45.3,40.81 C45.1,41.31 44.6,42.31 44.7,42.61 C44.8612341,43.0601948 45.0620183,43.4952272 45.3,43.91 C45.3,44.01 45.5,44.11 45.5,44.11 L46.1,44.11 C46.1758076,44.0994321 46.2460611,44.0643054 46.3,44.01 C46.3,43.91 46.3,43.81 46.4,43.81 C46.5,43.81 46.8,43.41 46.7,43.41 C46.6,43.41 46.4,43.31 46.3,43.31 C46.2,43.31 46.1,43.31 46,43.11 C45.9,42.91 45.8,42.91 45.8,42.71 C45.8,42.51 46,42.51 46.1,42.41 C46.2,42.31 47.3,41.51 47.5,41.61 C47.7924036,41.6192931 48.0735854,41.7247363 48.3,41.91 C48.9368299,42.5215125 49.6413918,43.0583216 50.4,43.51 C51.1266583,43.9975378 51.9421487,44.3373254 52.8,44.51 C53.6127349,44.6082854 54.4156316,44.7755556 55.2,45.01 C55.7,45.11 56.8,45.41 57.3,44.81 C57.8,44.21 58,44.21 58,43.91 C58.1123259,43.3107161 58.0780169,42.6931538 57.9,42.11 C57.7302049,41.8219621 57.5289737,41.5536539 57.3,41.31 L45.7,39.01 Z M55.1,26.81 C55.8224639,27.0134855 56.5252673,27.2812201 57.2,27.61 L57.2,27.61 L57.4,27.81 L55.1,26.81 Z M55.4,35.21 C55.6667761,35.7158505 55.8683817,36.2534653 56,36.81 C56,37.01 56.4,38.11 56.6,38.91 C56.740433,39.2298421 56.8411824,39.5656733 56.9,39.91 C57.1435996,40.2597553 57.2503501,40.6867573 57.2,41.11 L57.2,41.21 C57.2,41.31 57.1,41.41 57.1,41.51 C56.6,42.41 56.5,43.51 54.1,43.41 L53.5,43.31 L55.4,35.21 Z M57.5,33.91 C58.9,33.71 59.1,32.01 59.2,31.51 C59.1765175,31.3415137 59.1431263,31.1745576 59.1,31.01 L58.9,30.01 C58.8,29.71 57.4,27.81 57.4,27.81 L57.5,33.91 Z M57.2,27.61 C57.2,27.61 57,26.71 57.4,26.61 L57.5,26.61 L57.8,26.31 L58.3,25.81 C58.5,25.81 58.6,25.61 58.7,25.51 C58.8,25.41 59.2,24.91 59.7,25.01 C60.2,25.11 61.4,25.11 61.6,25.21 C61.8,25.31 62.5,25.81 62.6,25.81 L62.9,25.81 C63.1649461,25.8013548 63.4060778,25.9621093 63.5,26.21 C63.5,26.21 63.8,26.41 63.5,26.81 C63.5,26.81 64.1,27.11 64.2,27.41 C64.3,27.71 64.4,28.21 63.9,28.41 C63.9,28.41 63.3,28.51 63.2,28.51 C63.1918221,28.3814151 63.1155484,28.2670045 63,28.21 C62.8590402,28.1950362 62.7173345,28.2304626 62.6,28.31 C62.3669492,28.5020167 62.0934438,28.6387694 61.8,28.71 C61.7,28.71 61.4,28.81 61.4,28.91 C61.4,29.01 61.3,29.21 60.8,29.41 L59,29.81 L57.2,27.61 Z M59.3,30.11 C59.4076693,30.3259684 59.5420558,30.5275482 59.7,30.71 C60.0663382,31.0044803 60.5314827,31.1476017 61,31.11 C61.2,31.01 61.2,30.91 61.3,30.91 C61.4,30.91 61.6,30.71 61.7,30.71 C61.8,30.71 62,30.41 62,30.41 C62,30.41 62.5,30.51 62.5,30.21 L62.5,29.31 C62.7513222,29.1673838 62.904725,28.8989289 62.9,28.61 L59.3,30.11 Z M61.5,30.71 L61.3,30.61 L61.5,30.71 Z M62.1,30.41 C62.1,30.41 61.8,30.31 61.8,30.21 L62.1,30.41 Z M54.1,34.71 C54.4097299,35.0411259 54.8467872,35.2232331 55.3,35.21 L55.3,35.21 C56.1133239,35.0529179 56.8517494,34.6309604 57.4,34.01 C58.0115304,32.8586234 57.8094546,31.444093 56.9,30.51 L54.1,34.71 Z M63.6,21.21 C63.6,21.91 63.9,22.01 64,22.11 C64.0570536,22.1619047 64.0927084,22.2332143 64.1,22.31 C64.2388322,22.3048144 64.3750607,22.2707572 64.5,22.21 C64.7,22.11 65,21.91 65,21.91 C65.4,21.61 65.1,21.41 65.2,21.11 C65.2448876,20.9178754 65.1650045,20.7181677 65,20.61 C65.0552285,20.61 65.1,20.5652285 65.1,20.51 C65.1,20.41 64.8,20.21 64.8,20.21 L64.8,19.91 C64.7,19.81 64.7,19.41 64.7,19.41 L64.6,19.11 C64.5535249,18.9438496 64.4464913,18.8011382 64.3,18.71 C64.2898634,18.5820852 64.2141765,18.4685549 64.1,18.41 C64.2,18.01 63.7,18.01 63.7,17.81 C63.7,17.61 63.3,17.41 63.3,17.41 C63.1554114,17.2247122 62.9349834,17.1144982 62.7,17.11 C62.6,17.11 61.9,17.31 61.9,17.31 C61.6949763,17.2544518 61.4759257,17.2909602 61.3,17.41 C60.8982683,17.3705921 60.5095127,17.5649699 60.3,17.91 C60.1049595,18.0456472 59.9356472,18.2149595 59.8,18.41 C59.8,18.41 59.3,19.91 59.2,20.41 C59.1,20.91 59.2,20.81 59.1,21.01 C59,21.21 58,22.21 58.5,22.51 C59,22.81 59.2,22.91 59.3,23.21 C59.8972503,23.4708596 60.5514321,23.5741515 61.2,23.51 C61.5,23.41 61.7,22.31 61.7,22.31 C61.710346,22.0396716 61.67657,21.7694638 61.6,21.51 C61.6,21.41 61.5,21.21 61.5,21.11 C61.3548418,20.7972871 61.286282,20.4544881 61.3,20.11 C61.2883159,19.8479796 61.1816809,19.5991647 61,19.41 C60.9,19.21 60.6,19.01 60.7,18.61 C60.8025325,18.2482807 60.972144,17.9090576 61.2,17.61 C61.6342209,17.3897198 62.1388786,17.3536728 62.6,17.51 C62.6,17.51 62.9,17.81 63,17.81 C63.1,17.81 63.3,18.01 63.5,18.11 C63.6419372,18.1901313 63.7210573,18.3483714 63.7,18.51 L63.6,21.21 Z M64,19.11 C64,19.21 64.1,20.01 64.1,20.11 C64.1,20.21 64.3,20.81 64.2,20.91 C64.1,21.01 63.8,21.21 63.6,21.31 C62.855222,21.330487 62.1121,21.2291521 61.4,21.01 L64,19.11 Z M58.4,22.51 C58.4,22.51 56.2,23.81 56.6,27.31 L58.4,22.51 Z M62.7,23.31 L62.8,25.81 L62.7,23.31 Z M58.5,38.31 C58.5,38.31 58.3,35.31 58.4,34.81 L58.5,38.31 Z M61.3,14.21 C61.3,14.21 61.3,13.41 61.5,13.21 C61.7,13.01 61.9,12.81 62.2,12.81 L62.5,12.81 C62.9,13.01 64,13.51 64.3,14.11 C64.4617798,14.3521298 64.4617798,14.6678702 64.3,14.91 L64.1,15.11 C63.8730925,15.1973924 63.6388268,15.2643254 63.4,15.31 L61.3,14.21 Z M62.2,12.71 C61.9705643,12.1971096 62.0909476,11.5951928 62.5,11.21 C63.2,10.41 63.4,10.31 63.7,10.31 C63.9687924,10.2967225 64.2362098,10.2632954 64.5,10.21 C65.0233419,9.81238001 65.7358346,9.77279708 66.3,10.11 L62.2,12.71 Z M64.5,19.21 C64.5,19.21 65,18.11 65,18.01 C65.5115304,16.9694689 65.5115304,15.7505311 65,14.71 C64.9,14.41 64.4,15.01 64.3,15.01 L64.3,15.01 L64.5,19.21 Z M69.5,16.51 C69.5,16.51 69.4,17.11 69.3,17.11 C69.2,17.11 68.9,16.61 68.9,16.61 L69.2,15.61 L69.3,14.41 L69.3,14.31 L70.2,12.81 C70.1810072,12.5336296 70.1132983,12.2627941 70,12.01 C69.9,11.91 69.6,11.51 69.5,11.41 C69.4,11.31 69.4,10.81 69.4,10.81 C69.4,10.81 68.7,11.41 68.6,11.51 C68.3357268,11.5605277 68.0642732,11.5605277 67.8,11.51 C67.6188954,11.532513 67.4466709,11.6014028 67.3,11.71 C67.1886237,11.9552128 67.0547154,12.1895524 66.9,12.41 C66.7641529,12.6903305 66.6956667,12.9985183 66.7,13.31 C66.7,13.41 66.6,13.51 66.6,13.61 C66.6,13.71 66.5,13.81 66.4,13.91 C66.3,14.01 66.4,14.21 66.5,14.51 C66.5221838,14.8135948 66.4882855,15.1186796 66.4,15.41 C66.4,15.51 66.1,15.51 66.1,15.51 C66.1,15.51 65.8,15.71 65.8,15.71 C65.8431263,15.5454424 65.8765175,15.3784863 65.9,15.21 C65.8279955,14.933657 65.727455,14.6655491 65.6,14.41 C65.4785324,13.8173622 65.4115863,13.2148468 65.4,12.61 C65.4760569,12.2043921 65.5762347,11.8036808 65.7,11.41 C65.7620745,11.0524015 65.8983308,10.7117606 66.1,10.41 C66.2235219,10.296046 66.3251903,10.1604881 66.4,10.01 L66.4,10.01 C66.6,9.81 66.8,9.51 66.9,9.41 C67.2228403,9.27787659 67.5577443,9.17740539 67.9,9.11 C68.5096008,9.05473284 69.1173911,9.23349472 69.6,9.61 C69.6,9.61 70.3,9.61 70.4,10.01 C70.5,10.41 71,11.11 70.9,11.31 C70.8,11.51 70.7,11.71 70.8,11.81 C70.8111905,12.1132884 70.777493,12.4165654 70.7,12.71 L70.7,12.81 C70.6204626,12.9273345 70.5850362,13.0690402 70.6,13.21 C70.6,13.41 70.8,13.81 70.7,13.91 C70.6,14.01 70.5,14.11 70.5,14.21 C70.5085065,14.4474207 70.474644,14.684458 70.4,14.91 C70.294725,15.0202572 70.2250408,15.1596257 70.2,15.31 C70.2,15.41 70.3,16.01 70.1,16.21 L69.9,16.41 L69.9,16.41 C69.8,16.41 69.8,16.41 69.7,16.51 L69.5,16.51 Z M66.7,13.71 C66.7,13.71 67,14.81 67.6,15.01 C68.1996128,14.988425 68.7841862,14.8164916 69.3,14.51 L66.7,13.71 Z M70.8,12.81 C72.0197295,13.2944424 73.0411302,14.1749603 73.7,15.31 C73.900246,15.6487587 74.0358764,16.0217422 74.1,16.41 L74.1,16.61 L70.8,12.81 Z M75,17.51 C74.7700871,17.1472638 74.4627362,16.8399129 74.1,16.61 C73.768262,16.3517247 73.3967521,16.1490829 73,16.01 L75,17.51 Z M69.9,16.31 C69.9,16.31 69.6,17.51 71.3,18.71 L69.9,16.31 Z M66.9,22.31 L65.2,21.51 L66.9,22.31 Z M66.2,39.31 C66.5193567,38.9187489 66.6309981,38.3977556 66.5,37.91 C66.2,36.81 66.3,36.61 66.4,36.31 C66.5,36.01 67.8,34.51 68.8,32.81 C68.877266,32.6307062 68.9781601,32.4625494 69.1,32.31 C69.4600005,31.6299695 69.664908,30.878642 69.7,30.11 L70.5,28.31 L70.5,28.31 L66.2,39.31 Z M64.4,43.21 L64.1,44.51 L64.6,43.11 L65.6,40.61 L66.8,43.81 L66.1,39.21 L66.1,38.71 C65.8132307,38.7134435 65.5485573,38.8646855 65.4,39.11 C65.1588483,39.5820104 64.9902849,40.0877006 64.9,40.61 C64.8173224,40.8043022 64.7504393,41.0049517 64.7,41.21 L64.7,41.21 C64.4,41.21 64.4,40.81 64.4,40.81 L64.3,39.11 L64.1,38.91 C63.9684484,38.5939057 63.9336463,38.2458849 64,37.91 C64,37.51 64.4,37.01 64.6,36.51 C64.7,36.21 64.9,35.51 65.1,34.91 C65.3,34.11 65.6,33.31 65.6,33.31 C65.675545,32.5263237 65.8433739,31.7543108 66.1,31.01 C66.2591434,30.4379452 66.5701368,29.9196229 67,29.51 C67.1533834,29.2538385 67.2871009,28.9864036 67.4,28.71 L64.4,43.21 Z M64.7,41.31 L64.4,43.21 L64.7,41.31 Z M67.6,25.01 C67.6,25.01 67.5,25.41 67.3,25.51 C67.1,25.61 66.5,26.51 66.6,27.01 C66.7,27.51 67,28.61 67,28.61 L67.3,28.61 L69.9,28.31 C70.0388322,28.3048144 70.1750607,28.2707572 70.3,28.21 C70.5,28.11 70.9,28.01 71,27.81 C71.3,27.41 72.2,26.01 72.2,26.01 L67.6,25.01 Z M60.2,44.11 L64.2,45.41 L71.7,43.31 L67.4,42.41 L64.7,43.01 L64.4,43.11 L60.2,44.11 L60.2,44.11 L60.2,44.11 Z M60.2,44.11 L60.2,45.21 L64.3,46.61 L71.7,44.41 L71.7,43.31 L60.2,44.11 Z M64.2,45.51 L64.2,46.51 L64.2,45.51 Z M67.1,23.11 C66.9913892,23.0021223 66.9211357,22.8616153 66.9,22.71 C67,22.51 66.7,22.01 66.9,21.91 C67.1,21.81 67,21.51 67.2,21.31 L67.5,21.01 C68,20.91 67.8,20.41 68.2,20.31 C68.4769759,20.1983669 68.744508,20.0646009 69,19.91 C69.1,19.91 69.6,19.71 69.7,19.71 C69.8400007,19.7141621 69.9784286,19.6795551 70.1,19.61 L70.6,19.61 C70.7,19.61 70.9,19.81 71.1,19.81 C71.2215714,19.8795551 71.3599993,19.9141621 71.5,19.91 C71.8048384,19.9948529 72.1052176,20.0949793 72.4,20.21 C72.5,20.21 72.9,20.21 72.8,20.41 C72.7827891,20.5146709 72.7490338,20.6159368 72.7,20.71 C72.8,20.71 73,20.91 73,20.91 C73,20.91 72.9,21.21 72.9,21.31 C72.9,21.41 73.2,21.71 73.2,21.91 C73.2,22.11 73.3,22.21 73.2,22.31 C73.1,22.41 73,22.41 73.1,22.51 C73.2,22.61 73.1,22.71 73,22.81 C72.9,22.91 72.8,23.01 72.8,23.11 C72.8,23.21 72.5,23.51 72.4,23.61 C72.3,23.71 72,23.61 72,23.81 C72,24.01 71.6,24.11 71.5,24.01 C71.4,23.91 70.9,24.31 70.8,24.11 C70.6994622,23.8874965 70.6994622,23.6325035 70.8,23.41 C70.8,23.31 71,23.21 71,23.11 L71,22.81 C71,22.71 70.7,22.51 70.9,22.31 C71.1701516,21.9326444 71.4045009,21.5309029 71.6,21.11 C71.7,20.91 71.6,20.71 71.6,20.61 C71.6,20.51 71,20.31 70.9,20.21 C70.8,20.11 70.2,20.01 70,20.01 C69.8,20.01 69.4,20.01 69.3,20.11 C69.0778312,20.2342679 68.8432069,20.3348211 68.6,20.41 L68.2,20.81 L67.8,21.41 C67.3609096,21.8682951 67.1109247,22.4754013 67.1,23.11 C67.182476,23.4024836 67.2162607,23.7065457 67.2,24.01 C67.2728408,24.3333888 67.4087697,24.6392288 67.6,24.91 C67.7,25.01 68.4,25.51 68.4,25.51 L68.7,25.61 C68.861447,25.6198112 68.9901888,25.748553 69,25.91 C69.1,26.11 69.3,26.81 69.7,26.71 L70,26.41 C70.1592029,26.4939925 70.3267893,26.5610271 70.5,26.61 C70.6,26.61 71.3,27.01 72.1,25.81 C72.2,25.71 72.3,25.51 72.4,25.41 C72.5,25.31 72.7,24.71 73,24.11 C73.1,24.11 73.3,23.91 73.4,23.91 C74.3,23.61 74.6,22.41 74.6,22.41 L74.6,22.01 L67.1,23.11 Z M73.9,25.01 C73.9,25.21 73.5,26.61 73.5,26.91 C73.5,27.21 73.4,27.51 73.6,27.81 C73.7481273,28.333176 73.8485379,28.8686993 73.9,29.41 C73.834519,30.0813894 73.7343855,30.7489463 73.6,31.41 C73.6132315,31.5199251 73.5765403,31.6299988 73.5,31.71 L73.4,32.01 L72.8,33.01 L71.8,35.01 C71.3065788,36.0827855 71.2704823,37.3100692 71.7,38.41 L72,39.41 C72.5,40.91 72.6,41.01 73.2,41.11 L73.9,25.01 Z M74.6,35.81 C74.5348878,36.8975954 74.3333073,37.9726912 74,39.01 C73.7509116,39.5139942 73.5822052,40.0538548 73.5,40.61 C73.4594834,41.0225639 73.3583978,41.4269064 73.2,41.81 C73.0586387,41.9768293 72.9870085,42.1917198 73,42.41 C73,42.51 72.9,42.71 73,42.81 C73,43.21 73.1,43.51 73.3,43.51 C73.5360799,43.5000459 73.7705762,43.4665464 74,43.41 C74.2050483,43.4604393 74.4056978,43.5273224 74.6,43.61 L75.2,43.61 C75.3893921,43.4900588 75.5904118,43.389549 75.8,43.31 C75.9,43.21 76.3,42.91 76.3,42.61 C76.1431981,42.2213706 75.941853,41.8522379 75.7,41.51 C75.6877811,41.4041585 75.6537298,41.3020046 75.6,41.21 C75.4502298,40.7212156 75.4502298,40.1987844 75.6,39.71 C75.9,39.21 78.9,34.91 78.7,32.01 L74.6,35.81 Z M80.4,31.71 C79.7737928,31.6644276 79.1479688,31.8034996 78.6,32.11 L78.6,32.11 C78.4213115,32.1885834 78.2785834,32.3313115 78.2,32.51 C77.062018,33.6757983 75.8601673,34.7774948 74.6,35.81 C74.252041,36.0578523 73.9181884,36.3249345 73.6,36.61 C73.5,36.71 73.1,37.21 73.1,37.21 C73.5263259,32.6004377 75.300037,28.2183282 78.2,24.61 L80.4,31.71 Z M70.2,19.71 C70.471965,19.3328449 70.8573984,19.0525297 71.3,18.91 C71.5,18.81 74.6,17.21 77.4,17.71 L70.2,19.71 Z M74.6,21.11 C74.6,21.01 75.4,18.41 77.1,17.71 C77.5099972,17.5323875 77.9676621,17.4971826 78.4,17.61 C79.2433023,17.5513742 80.0834983,17.7614232 80.8,18.21 L81.7,17.91 C82.2631028,17.8241343 82.8361024,17.9824469 83.2752513,18.3452221 C83.7144002,18.7079973 83.9780285,19.2408121 84,19.81 C84,20.61 82.9,21.71 82.9,21.71 L81.7,22.81 C81.1893562,23.4236141 80.537341,23.9040463 79.8,24.21 C79.3078837,24.5619962 78.6828731,24.6722922 78.1,24.51 C76.3,24.11 74.7,22.01 74.7,22.01 L74.6,21.11 Z M76.6,40.01 C77.156682,40.6851468 77.8808021,41.2023755 78.7,41.51 L76.6,40.01 Z M70.5,26.51 L70.8,26.31 L70.5,26.51 Z M64.7,29.31 C64.7,29.31 64.6,27.91 64.6,27.41 C64.7388862,26.3987424 64.9392574,25.3968863 65.2,24.41 L64.7,29.31 Z M65.7,28.61 C65.7,28.61 63.5,29.51 64.4,31.51 L65.7,28.61 Z M64.6,31.51 C64.2,32.01 64.2,32.01 64.2,32.11 C64.2,32.21 64,33.01 64,33.11 C64.0149638,33.2509598 63.9795374,33.3926655 63.9,33.51 C63.8,33.51 63.5,33.81 63.5,33.71 C63.5,33.61 63.2,33.31 63.1,33.21 C63,33.11 62.8,33.21 62.9,33.31 C63,33.41 62.4,33.41 62.8,33.71 L63.2,34.01 C63.391686,34.1554017 63.5920577,34.2889828 63.8,34.41 C64.1037295,34.4995942 64.430074,34.377215 64.6,34.11 L64.6,31.51 Z M66,30.91 C66,30.91 65.6,30.51 65,31.01 C64.6,31.41 64.5,31.41 64.5,31.41 L64.5,31.41 L66,30.91 Z M64.4,32.91 C64.4,33.01 64.3,33.61 64.6,33.61 C64.6803973,33.6128236 64.7583551,33.5821242 64.8152397,33.5252397 C64.8721242,33.4683551 64.9028236,33.3903973 64.9,33.31 C64.9,33.01 65.1,32.81 65.1,32.71 L64.4,32.91 Z M64.6,33.71 C64.5912567,33.8806551 64.5575658,34.0491095 64.5,34.21 C64.4765175,34.3784863 64.4431263,34.5454424 64.4,34.71 C64.2876276,34.9277834 64.2196449,35.165723 64.2,35.41 C64.2,35.41 64.4,35.91 64.6,35.51 L64.9,35.21 L65.2,34.81 L64.6,33.71 Z M67.6,14.41 L68,14.61 L67.6,14.41 Z M67.9,14.01 C67.9,14.01 67.9,14.11 68.1,14.11 L67.9,14.01 Z M63.3,20.01 C63.5467936,19.9449007 63.7826566,19.8438165 64,19.71 L63.3,20.01 Z M61.6,18.81 C61.6,18.81 62.1,18.21 62.3,18.41 L61.6,18.81 Z M58.6,14.31 L58.5,14.51 L58.6,14.31 Z M69.2,13.51 L69.2,13.71 L69.2,13.51 Z M70,25.41 L70.1,25.51 L70,25.41 Z M69.5,25.41 L70.6,25.21 L69.5,25.41 Z M79,24.61 L78,28.51 L79,24.61 Z M79.8,24.21 C73.6,22.51 77.6,18.41 78.3,17.81 L79.8,24.21 Z M58.3,14.11 L59,14.51 L58.3,14.11 Z M67.3,12.71 C67.5505546,12.8296452 67.8226188,12.8976613 68.1,12.91 L67.3,12.71 Z M68.9,13.41 C69.1505546,13.5296452 69.4226188,13.5976613 69.7,13.61 L68.9,13.41 Z M62.2,29.51 C62.2,29.51 61.7,29.41 61.6,29.21 L62.2,29.51 Z M56.9,19.11 L57.2,19.11 L57.9,19.21 C58,19.21 58.6,19.31 58.6,19.31 C58.7,19.51 58.3,19.61 58.3,19.61 L57.7,19.71 L57.9,20.01 C58.1,20.31 57.7,20.61 57.7,20.61 C57.7895942,20.9137295 57.667215,21.240074 57.4,21.41 C56.8817388,21.7075795 56.2290644,21.6259952 55.8,21.21 C55.7199988,21.1334597 55.6099251,21.0967685 55.5,21.11 C55.1,20.91 55.2,20.51 55.2,20.21 C55.2222904,19.8894592 55.3255078,19.5798069 55.5,19.31 C55.6892561,19.1898183 55.8903009,19.0892959 56.1,19.01 L56.5,19.11 L56.9,19.11 C56.9,19.11 57.1,19.41 57,19.51 C56.8320709,19.6477859 56.6035392,19.6858745 56.4,19.61 L56.3,19.51 L56.9,19.11 Z M64.8,13.41 L65.2,14.91 L64.8,13.41 Z M81.9,41.61 C81.9,41.61 79.5,41.11 79.4,37.31 L81.9,41.61 Z M57.3,37.11 C57.3,37.11 59.5,39.41 60.2,39.51 L57.3,37.11 Z M61.4,33.81 C61.3,35.01 61.2,35.81 61.2,35.81 C60.9813103,37.1040949 60.6466277,38.3758888 60.2,39.61 C60.7788613,39.5994435 61.3524902,39.4982149 61.9,39.31 C62.7,39.01 63.2,38.41 64,38.81 L61.4,33.81 Z M69.1,32.21 C70.0528025,31.971045 71.0221896,31.8039093 72,31.71 L72,31.71 C72.9,31.61 73.4,31.61 73.4,31.61 L69.1,32.21 Z M69,32.21 L69,34.91 C69.0700431,35.3861884 69.0005742,35.8724712 68.8,36.31 C68.5498545,36.6698705 68.3793914,37.078982 68.3,37.51 L68.3,38.31 C68.2151471,38.6148384 68.1150207,38.9152176 68,39.21 C67.9711468,39.3694301 68.0079969,39.5337525 68.1021691,39.6655935 C68.1963412,39.7974346 68.3398299,39.8855865 68.5,39.91 C69.0647135,40.038194 69.6542107,40.0035177 70.2,39.81 C70.5,39.61 70.8,39.31 70.7,39.11 C70.5638825,38.8864024 70.3953863,38.6842069 70.2,38.51 C70.0147363,38.2835854 69.9092931,38.0024036 69.9,37.71 C69.9545297,37.5482826 69.9881361,37.3802506 70,37.21 C69.9888095,36.9067116 70.022507,36.6034346 70.1,36.31 C70.2,36.11 71.3,34.61 71.3,34.61 C71.7458365,33.7430236 71.9853962,32.7847846 72,31.81 L69,32.21 Z M62.9,15.01 C62.8461653,14.9020158 62.7789721,14.8012259 62.7,14.71 C62.6429464,14.6580953 62.6072916,14.5867857 62.6,14.51 C62.6,14.41 62.5,14.41 62.6,14.21 C62.7,14.01 62.9,14.21 62.9,14.21 C62.969042,14.3367895 63.0732105,14.440958 63.2,14.51 C63.4,14.61 63.3,14.51 63.5,15.11 L63.5,15.41 C63.5,15.71 63.1,15.61 62.7,15.91 C62.3526924,16.0785033 61.9473076,16.0785033 61.6,15.91 L60.8,15.11 C60.7,15.01 60.7,15.01 60.6,15.11 C60.5,15.21 60.6,15.21 60.3,15.21 C60,15.21 59.8,15.01 59.8,14.91 C59.8,14.81 60.2,14.61 60.2,14.61 C60.50535,14.4333219 60.8478208,14.3305807 61.2,14.31 L61.4,14.31 C61.8,14.31 62,14.21 62.3,14.41 L62.8,14.71 L62.9,15.01 Z M41.6,32.01 C41.6,32.01 40.3,31.71 40.2,31.51 L40.2,31.31 L40.6,30.91 C40.6,30.81 40.6,30.81 40.8,30.51 C41,30.21 41.3,29.41 41.3,29.41 C41.6,28.71 41.5,28.61 41.5,28.61 L41.8,24.81 C41.7996126,23.8008082 42.1944759,22.8315983 42.9,22.11 L41.6,32.01 Z M49.5,22.21 C48.1416573,22.3947685 46.769877,22.4616846 45.4,22.41 C44.8616477,22.3927216 44.3260408,22.3257707 43.8,22.21 C43.5,22.11 43.2,22.11 42.9,22.01 C42.8,22.01 42.6,21.91 42.5,21.91 C42.4,21.91 41.6,22.21 41.3,24.51 C41.2621479,25.5534244 41.1282488,26.5911429 40.9,27.61 C40.4104446,28.4871671 39.8050049,29.29442 39.1,30.01 C39.0177386,30.1150951 38.9819046,30.2491974 39.0007789,30.3813173 C39.0196532,30.5134372 39.0916024,30.6321419 39.2,30.71 L40.1,31.31 L49.5,22.21 Z M83.5,21.21 C84.1284085,23.0155902 84.4987303,24.9008646 84.6,26.81 C84.9203398,30.3812085 84.5468112,33.9806657 83.5,37.41 C83.1,39.01 83.7,41.21 84.4,41.41 C84.4,41.41 81.7,41.71 80.5,41.71 L79.4,41.71 C78.0951671,41.6881509 76.7928235,41.5879706 75.5,41.41 L83.5,21.21 Z" id="Shape" stroke="#292E2B" stroke-width="0.5" stroke-linecap="round" stroke-linejoin="round"></path>
            <path d="M73.4,36.61 C73.4,36.61 72.2,37.61 74,38.11" id="Path" stroke="#1B1464" stroke-width="0.24" stroke-linecap="round" stroke-linejoin="round"></path>
            <path d="M83.3,25.31 C83.4777287,26.5034193 83.4777287,27.7165807 83.3,28.91 C83,30.81 83.7,36.31 83.5,37.41" id="Path" stroke="#1B1464" stroke-width="0.26" stroke-linecap="round" stroke-linejoin="round"></path>
            <path d="M79.4,20.41 L80.4,19.41" id="Path" stroke="#FFFFFF" stroke-width="0.26" stroke-linecap="round" stroke-linejoin="round"></path>
            <path d="M64.6,27.81 C64.6,27.81 65.5,24.91 66.1,24.61 M56.5,28.81 C56.5,28.81 58.7,29.71 59.1,30.71 M50,23.51 C49.953233,24.3154276 50.0205659,25.1234225 50.2,25.91 C50.5,27.31 50.9,28.61 50.9,28.61 M61.3,23.21 C61.3,23.21 63.5,23.71 63.9,22.11 M58.9,32.91 C58.8229385,33.6283498 58.6549267,34.3339991 58.4,35.01 C58.2858472,35.3506891 58.1522956,35.684568 58,36.01 C57.5662751,36.6916407 57.0260892,37.2993499 56.4,37.81 M53.1,30.71 C53.5591591,30.2104157 54.2239571,29.9518832 54.9,30.01 L55.9,30.01 M72.9,20.41 C73.3471348,20.3146941 73.813273,20.4299358 74.1644877,20.7226147 C74.5157025,21.0152937 74.7131126,21.4530089 74.7,21.91 M63.5,19.41 C63.7023404,19.3286766 63.8762439,19.1895537 64,19.01 C63.7155266,18.8168022 63.4143237,18.6494672 63.1,18.51 C62.8,18.41 63.1,18.11 63.1,18.11 M72.9,23.91 C72.8481144,24.3856939 72.7475887,24.8548139 72.6,25.31 M73.2,25.01 L75.6,24.91 C75.9104126,24.844478 76.2123567,24.7438299 76.5,24.61 M78,35.61 C79.4,37.21 81,38.81 81,38.81 M74.9,27.61 C74.9,27.61 74.9,28.41 75,29.61" id="Shape" stroke="#292E2B" stroke-width="0.3" stroke-linecap="round" stroke-linejoin="round"></path>
            <path d="M99.1,91.41 C99.8105914,92.2034943 100.835338,92.6426713 101.9,92.61 C103.8,92.61 104.9,91.51 104.9,90.01 C104.854909,89.0225815 104.225489,88.1571286 103.3,87.81 L103.3,87.81 C104.390003,87.2949882 104.937627,86.0586929 104.586618,84.9053773 C104.235608,83.7520616 103.092103,83.0304578 101.9,83.21 C100.939295,83.2578983 100.038281,83.6903849 99.4,84.41 C99.3,84.51 99.3,84.71 99.4,84.71 L99.9,85.11 C100,85.21 100.2,85.21 100.2,85.11 C100.598319,84.6317311 101.178394,84.3416938 101.8,84.31 C102.200299,84.3017438 102.586645,84.4571263 102.86976,84.7402405 C103.152874,85.0233546 103.308256,85.4097013 103.3,85.81 C103.3,86.61 102.7,87.21 101.4,87.21 L100.6,87.21 C100.517826,87.2002259 100.435707,87.2286756 100.377191,87.2871913 C100.318676,87.345707 100.290226,87.4278255 100.3,87.51 L100.3,88.11 C100.290226,88.1921745 100.318676,88.274293 100.377191,88.3328087 C100.435707,88.3913244 100.517826,88.4197741 100.6,88.41 L101.4,88.41 C102.8,88.41 103.5,89.21 103.5,90.01 C103.476937,90.4356378 103.283935,90.8341908 102.964307,91.116215 C102.64468,91.3982393 102.225197,91.5401142 101.8,91.51 C101.120202,91.4814926 100.476695,91.1954896 100,90.71 C99.9,90.61 99.8,90.61 99.6,90.71 L99.1,91.21 C99,91.11 99,91.31 99.1,91.41 L99.1,91.41 Z M95.1,91.41 C93.6,91.41 93.1,89.91 93.2,88.71 C93.6078492,88.1104976 94.275521,87.7395688 95,87.71 C96.0217268,87.6823858 96.8723858,88.4882732 96.9,89.51 C96.9276142,90.5317268 96.1217268,91.3823858 95.1,91.41 L95.1,91.41 Z M91.9,88.81 C91.9,90.91 92.9,92.61 95.1,92.61 C96.7729078,92.5560074 98.1008711,91.1837786 98.1,89.51 C98.1388451,88.7470611 97.8597382,88.0021455 97.3291185,87.4525752 C96.7984989,86.9030049 96.063832,86.5979403 95.3,86.61 C94.6656429,86.6094936 94.0432138,86.7823906 93.5,87.11 C93.9,85.41 96.1,84.31 96.7,84.11 C97,84.01 97,83.91 96.9,83.71 L96.7,83.11 C96.6,83.01 96.5,82.91 96.4,82.91 C95.1,83.51 91.9,85.11 91.9,88.81 L91.9,88.81 Z M85.7,90.01 C85.7671933,89.1170809 86.5046507,88.4230033 87.4,88.41 C88.5,88.61 89.1,89.31 89.1,90.01 C89.0057323,90.8778296 88.2729345,91.5353381 87.4,91.5353381 C86.5270655,91.5353381 85.7942677,90.8778296 85.7,90.01 L85.7,90.01 Z M87.4,87.11 C86.4,86.91 85.9,86.41 85.9,85.71 C85.9130346,85.3253581 86.0784508,84.9616774 86.3598067,84.6990786 C86.6411626,84.4364798 87.0153739,84.2965081 87.4,84.31 C87.7890549,84.2790936 88.1731799,84.4131724 88.4584966,84.6794679 C88.7438133,84.9457635 88.9040334,85.3197403 88.9,85.71 C88.9,86.41 88.5,87.01 87.4,87.11 L87.4,87.11 Z M84.3,90.01 C84.3,91.51 85.5,92.61 87.4,92.61 C89.3,92.61 90.5,91.51 90.5,90.01 C90.4549094,89.0225815 89.8254891,88.1571286 88.9,87.81 L88.9,87.71 C89.7252015,87.3298559 90.266483,86.5179337 90.3,85.61 C90.3,84.11 89.1,83.11 87.4,83.11 C86.2078973,82.9304578 85.0643915,83.6520616 84.7133824,84.8053773 C84.3623733,85.9586929 84.9099967,87.1949882 86,87.71 L86,87.71 C85.061818,88.1162562 84.4131158,88.9939122 84.3,90.01 L84.3,90.01 Z M77.9,92.41 L82.6,92.41 C82.7,92.41 82.9,92.31 82.9,92.21 L82.9,91.61 C82.8901888,91.448553 82.761447,91.3198112 82.6,91.31 L81.1,91.31 L81.1,83.51 C81.1,83.41 81,83.21 80.9,83.21 L80.2,83.21 L78.2,85.01 C78.153701,85.0459956 78.126619,85.1013546 78.126619,85.16 C78.126619,85.2186454 78.153701,85.2740044 78.2,85.31 L78.4,85.81 C78.4,85.91 78.6,85.91 78.7,85.91 L79.9,85.31 L79.9,91.31 L78,91.31 C77.838553,91.3198112 77.7098112,91.448553 77.7,91.61 L77.7,92.21 C77.6,92.31 77.7,92.41 77.9,92.41 L77.9,92.41 Z M65.6,87.81 C65.6,85.8770034 67.1670034,84.31 69.1,84.31 C71.0329966,84.31 72.6,85.8770034 72.6,87.81 C72.6,89.7429966 71.0329966,91.31 69.1,91.31 C67.1912531,91.2526732 65.6573268,89.7187469 65.6,87.81 L65.6,87.81 Z M64.3,87.81 C64.3,90.4609667 66.4490333,92.6099998 69.1,92.6099998 C71.7509667,92.6099998 73.9,90.4609667 73.9,87.81 C73.9,85.1590332 71.7509668,83.01 69.1,83.01 C66.4490332,83.01 64.3,85.1590332 64.3,87.81 L64.3,87.81 Z M54.5,92.21 C54.5098112,92.371447 54.638553,92.5001888 54.8,92.51 L55.6,92.51 C55.761447,92.5001888 55.8901888,92.371447 55.9,92.21 L55.9,85.71 L55.9,85.71 L61.7,92.61 L62.1,92.61 C62.2,92.61 62.4,92.51 62.4,92.41 L62.4,83.41 C62.3901888,83.248553 62.261447,83.1198112 62.1,83.11 L61.2,83.11 C61.038553,83.1198112 60.9098112,83.248553 60.9,83.41 L60.9,89.81 L60.9,89.81 L55.1,83.11 L54.8,83.11 C54.7,83.11 54.5,83.21 54.5,83.31 L54.5,92.21 Z M47.1,89.21 L48.7,85.51 L48.8,85.51 L50.5,89.21 L47.1,89.21 Z M44.6,92.41 L45.4,92.41 C45.6,92.41 45.7,92.31 45.7,92.21 C46.0080973,91.6292835 46.2754097,91.0278307 46.5,90.41 L50.9,90.41 L51.7,92.21 C51.8,92.31 51.8,92.41 52,92.41 L52.8,92.41 C53,92.41 53.1,92.21 53,92.11 L48.9,83.11 C48.9,83.01 48.7,83.01 48.7,83.01 L48.6,83.01 C48.5241924,83.0205679 48.4539389,83.0556946 48.4,83.11 L44.3,92.11 C44.2902259,92.1921745 44.3186756,92.274293 44.3771913,92.3328087 C44.435707,92.3913244 44.5178255,92.4197741 44.6,92.41 L44.6,92.41 Z M38.3,92.21 C38.3098112,92.371447 38.438553,92.5001888 38.6,92.51 L43.4,92.51 C43.561447,92.5001888 43.6901888,92.371447 43.7,92.21 L43.7,91.51 C43.6901888,91.348553 43.561447,91.2198112 43.4,91.21 L39.8,91.21 L39.8,83.31 C39.7901888,83.148553 39.661447,83.0198112 39.5,83.01 L38.6,83.01 C38.438553,83.0198112 38.3098112,83.148553 38.3,83.31 L38.3,92.21 Z M34.3,92.21 C34.3098112,92.371447 34.438553,92.5001888 34.6,92.51 L35.5,92.51 C35.661447,92.5001888 35.7901888,92.371447 35.8,92.21 L35.8,83.31 C35.7901888,83.148553 35.661447,83.0198112 35.5,83.01 L34.6,83.01 C34.438553,83.0198112 34.3098112,83.148553 34.3,83.31 L34.3,92.21 Z M21.9,92.11 C21.8902259,92.1921745 21.9186756,92.274293 21.9771913,92.3328087 C22.035707,92.3913244 22.1178255,92.4197741 22.2,92.41 L23.1,92.41 C23.2063667,92.4006993 23.2906993,92.3163667 23.3,92.21 L24.3,86.21 L24.4,86.21 L26.8,92.41 C26.8,92.51 26.9,92.51 27,92.51 L27.2,92.51 C27.2758076,92.4994321 27.3460611,92.4643054 27.4,92.41 L29.8,86.21 L29.8,86.21 L30.8,92.21 C30.8,92.31 30.9,92.41 31.1,92.41 L32,92.41 C32.2,92.41 32.3,92.31 32.2,92.11 L30.5,83.11 C30.4906993,83.0036333 30.4063667,82.9193007 30.3,82.91 L30.1,82.91 C30.0241924,82.9205679 29.9539389,82.9556946 29.9,83.01 L27.1,89.91 L27,89.91 L24.2,83.01 C24.2,82.91 24.1,82.91 24,82.91 L23.8,82.91 C23.6936333,82.9193007 23.6093007,83.0036333 23.6,83.11 L21.9,92.11 Z" id="Shape" fill="#292E2B" fill-rule="nonzero"></path>
            <path d="M114.2,70.01 C114.2,67.5799471 116.169947,65.61 118.6,65.61 C121.030053,65.61 123,67.5799471 123,70.01 C123,72.4400529 121.030053,74.41 118.6,74.41 C116.178999,74.3882857 114.221714,72.4310015 114.2,70.01 L114.2,70.01 Z M111.7,70.01 C111.7,73.8207648 114.789235,76.91 118.6,76.91 C122.410765,76.91 125.5,73.8207648 125.5,70.01 C125.5,66.1992352 122.410765,63.11 118.6,63.11 C116.760961,63.0799577 114.98841,63.7972686 113.687839,65.0978391 C112.387269,66.3984096 111.669958,68.1709609 111.7,70.01 L111.7,70.01 Z M98.4,70.01 C98.4055076,73.8184811 101.491519,76.9044924 105.3,76.91 C107.057763,76.9309431 108.750607,76.246602 110,75.01 C110.1,74.91 110.2,74.61 110,74.51 L108.8,73.31 C108.648669,73.2088877 108.451331,73.2088877 108.3,73.31 C107.500838,74.019728 106.468818,74.4111837 105.4,74.41 C104.24117,74.4130824 103.130383,73.9472209 102.320436,73.1184375 C101.510489,72.2896542 101.070282,71.168453 101.1,70.01 C101.067786,68.841452 101.50403,67.7085127 102.311637,66.8633424 C103.119245,66.0181721 104.231195,65.5309075 105.4,65.51 C106.495984,65.5248957 107.55416,65.9128937 108.4,66.61 C108.6,66.81 108.7,66.81 108.9,66.61 L110.1,65.41 C110.3,65.21 110.3,65.01 110.1,64.91 C108.873073,63.7127828 107.213625,63.0634339 105.5,63.11 C103.626025,63.021121 101.79899,63.7127056 100.453585,65.0202111 C99.1081812,66.3277167 98.3646885,68.1342504 98.4,70.01 L98.4,70.01 Z M93.3,76.31 C93.3145168,76.5246136 93.4853864,76.6954832 93.7,76.71 L95.5,76.71 C95.7146136,76.6954832 95.8854832,76.5246136 95.9,76.31 L95.9,63.61 C95.8854832,63.3953864 95.7146136,63.2245168 95.5,63.21 L93.7,63.21 C93.4853864,63.2245168 93.3145168,63.3953864 93.3,63.61 L93.3,76.31 Z M78.7,76.31 C78.7145168,76.5246136 78.8853864,76.6954832 79.1,76.71 L80.8,76.71 C81.0146136,76.6954832 81.1854832,76.5246136 81.2,76.31 L81.2,68.01 L81.2,68.01 L89.2,76.81 L89.7,76.81 C89.8817323,76.8000912 90.0396025,76.6816885 90.1,76.51 L90.1,63.61 C90.0854832,63.3953864 89.9146136,63.2245168 89.7,63.21 L87.9,63.21 C87.6853864,63.2245168 87.5145168,63.3953864 87.5,63.61 L87.5,71.51 L87.5,71.51 L79.5,63.01 L79,63.01 C78.8182677,63.0199088 78.6603975,63.1383115 78.6,63.31 L78.6,76.31 L78.7,76.31 Z M64.5,70.01 C64.5055076,73.8184811 67.5915189,76.9044924 71.4,76.91 C73.1577628,76.9309431 74.8506065,76.246602 76.1,75.01 C76.2,74.91 76.3,74.61 76.1,74.51 L74.9,73.31 C74.7486689,73.2088877 74.5513311,73.2088877 74.4,73.31 C73.6008378,74.019728 72.5688183,74.4111837 71.5,74.41 C70.34117,74.4130824 69.2303834,73.9472209 68.420436,73.1184375 C67.6104887,72.2896542 67.1702822,71.168453 67.2,70.01 C67.1677858,68.841452 67.6040302,67.7085127 68.4116374,66.8633424 C69.2192445,66.0181721 70.331195,65.5309075 71.5,65.51 C72.5959837,65.5248957 73.6541601,65.9128937 74.5,66.61 C74.7,66.81 74.8,66.81 75,66.61 L76.2,65.41 C76.4,65.21 76.4,65.01 76.2,64.91 C74.9730725,63.7127828 73.3136253,63.0634339 71.6,63.11 C69.7308403,63.0388142 67.9140739,63.7362151 66.572662,65.0398406 C65.2312502,66.3434662 64.4822369,68.1395696 64.5,70.01 L64.5,70.01 Z M54,76.31 C54.0145168,76.5246136 54.1853864,76.6954832 54.4,76.71 L62.2,76.71 C62.4146136,76.6954832 62.5854832,76.5246136 62.6,76.31 L62.6,74.71 C62.5854832,74.4953864 62.4146136,74.3245168 62.2,74.31 L56.5,74.31 L56.5,70.91 L61.2,70.91 C61.4146136,70.8954832 61.5854832,70.7246136 61.6,70.51 L61.6,68.91 C61.5854832,68.6953864 61.4146136,68.5245168 61.2,68.51 L56.5,68.51 L56.5,65.41 L62.2,65.41 C62.4146136,65.3954832 62.5854832,65.2246136 62.6,65.01 L62.6,63.41 C62.5854832,63.1953864 62.4146136,63.0245168 62.2,63.01 L54.4,63.01 C54.1853864,63.0245168 54.0145168,63.1953864 54,63.41 L54,76.31 Z M46,76.31 C46.0145168,76.5246136 46.1853864,76.6954832 46.4,76.71 L48.2,76.71 C48.4146136,76.6954832 48.5854832,76.5246136 48.6,76.31 L48.6,65.51 L51.5,65.51 C51.7146136,65.4954832 51.8854832,65.3246136 51.9,65.11 L51.9,63.51 C51.8854832,63.2953864 51.7146136,63.1245168 51.5,63.11 L43.1,63.11 C42.8853864,63.1245168 42.7145168,63.2953864 42.7,63.51 L42.7,65.11 C42.7145168,65.3246136 42.8853864,65.4954832 43.1,65.51 L46,65.51 L46,76.31 Z M37.8,76.31 C37.8145168,76.5246136 37.9853864,76.6954832 38.2,76.71 L40,76.71 C40.2146136,76.6954832 40.3854832,76.5246136 40.4,76.31 L40.4,63.61 C40.3854832,63.3953864 40.2146136,63.2245168 40,63.21 L38.2,63.21 C37.9853864,63.2245168 37.8145168,63.3953864 37.8,63.61 L37.8,76.31 Z M27.5,76.31 C27.5145168,76.5246136 27.6853864,76.6954832 27.9,76.71 L34.9,76.71 C35.1146136,76.6954832 35.2854832,76.5246136 35.3,76.31 L35.3,74.71 C35.2854832,74.4953864 35.1146136,74.3245168 34.9,74.31 L30,74.31 L30,63.61 C29.9854832,63.3953864 29.8146136,63.2245168 29.6,63.21 L27.8,63.21 C27.5853864,63.2245168 27.4145168,63.3953864 27.4,63.61 L27.4,76.31 L27.5,76.31 Z M14.2,70.01 C14.2,67.5799471 16.1699471,65.61 18.6,65.61 C21.0300529,65.61 23,67.5799471 23,70.01 C23,72.4400529 21.0300529,74.41 18.6,74.41 C16.1789985,74.3882857 14.2217143,72.4310015 14.2,70.01 L14.2,70.01 Z M11.7,70.01 C11.7,73.8207648 14.7892352,76.91 18.6,76.91 C22.4107648,76.91 25.5,73.8207648 25.5,70.01 C25.5,66.1992352 22.4107648,63.11 18.6,63.11 C16.7609609,63.0799577 14.9884096,63.7972686 13.6878391,65.0978391 C12.3872686,66.3984096 11.6699577,68.1709609 11.7,70.01 L11.7,70.01 Z M3.6,69.41 L3.6,65.51 L5.8,65.51 C6.3194761,65.4883126 6.82553851,65.6782295 7.20248646,66.03633 C7.57943441,66.3944306 7.79503659,66.8900951 7.8,67.41 C7.8,68.5145695 6.9045695,69.41 5.8,69.41 L3.6,69.41 Z M1.1,76.31 C1.11451684,76.5246136 1.28538645,76.6954832 1.5,76.71 L3.3,76.71 C3.51461355,76.6954832 3.68548316,76.5246136 3.7,76.31 L3.7,71.81 L6.1,71.81 C8.46801874,71.7936495 10.3836495,69.8780187 10.4,67.51 C10.3868169,66.3828051 9.92635715,65.3070232 9.11993361,64.5193537 C8.31351008,63.7316842 7.22719308,63.2966609 6.1,63.31 L1.4,63.31 C1.18538645,63.3245168 1.01451684,63.4953864 1,63.71 L1.1,76.31 Z" id="Shape" fill="#292E2B" fill-rule="nonzero"></path>
        </g>
    </g>
</svg>