<?xml version="1.0" encoding="UTF-8"?>
<svg enable-background="new 0 0 79 93" version="1.1" viewBox="0 0 79 93" xml:space="preserve" xmlns="http://www.w3.org/2000/svg">

	<rect x="67.6" y="9.7" width="13" height="2.1"/>
	<path d="M24.6,23.5V0h7.6v3.4h-4v6.4h2.6V13h-2.6v7h4v3.5H24.6z"/>
	<path d="m54.8 23.5-4-11.9-1.1-3.8v15.6h-2.4v-23.4h2.3l3.6 12 1 3.8v-15.8h2.4v23.5h-1.8z"/>
	<path d="M26.4,58.6V35.1H30v23.5H26.4z"/>
	<path d="m7 92.6-0.4-1.2c-0.5 1.1-1.5 1.6-2.6 1.6-2.5 0-4-1.8-4-4.6v-15c0-2.5 2-4.6 4.5-4.6 2.6 0 4.4 2.1 4.4 4.6v4.3h-3.3v-4.5c0-0.5-0.3-1-1-1-0.6 0-1 0.4-1 1v15.4c0 0.6 0.4 1 1 1s1-0.4 1-1v-4.8h-0.9v-2.8h4.4v11.6h-2.1z"/>
	<path d="m29.8 92.6-2.6-10.6-0.8-3.2v13.8h-3.1v-23.5h3.5l2.2 10.6 0.7 3.3v-13.9h3.1v23.5h-3z"/>
	<path d="m53.3 37.5v21.1h-2.5v-21.1h-3.1v-2.4h8.7v2.4h-3.1z"/>
	<path d="M75.2,49.3v9.3h-2.5v-9.3l-3.6-14.2h2.5L74.1,46l2.5-10.9H79L75.2,49.3z"/>
	<rect x="45.5" y="79" width="13" height="2.7"/>
	<rect x="50.6" y="73.9" width="2.7" height="13"/>
	<path d="m2.9 23.5h-2.7v-23.5h2.7c6.4 0 6.9 2.6 6.9 11.8 0 9.1-0.5 11.7-6.9 11.7zm0.8-3.5c2.4 0 2.6-0.6 2.6-8.3s-0.1-8.3-2.6-8.3v16.6z"/>
	<path d="m6 45.6c-1.5-2.6-2.3-3.6-2.3-6.3 0-0.8 0.5-1.2 1.1-1.2s1 0.4 1 1.2v1.8l3.1-0.3v-1.1c0-3.1-1.6-4.9-4.1-4.9-3.2 0-4.7 2.4-4.7 5.3 0 2.7 1.9 6 3.2 8.1 1.4 2.4 2.2 4 2.2 6.1 0 0.9-0.4 1.4-1.2 1.4s-1.2-0.5-1.2-1.4v-1.9l-3.2 0.3v1.3c0 3.1 1.7 4.9 4.5 4.9 2.3 0 4.5-1.5 4.5-5.2 0.2-2.7-1.4-5.5-2.9-8.1z"/>

</svg>
