<?xml version="1.0" standalone="no"?>
<!DOCTYPE svg PUBLIC "-//W3C//DTD SVG 20010904//EN"
 "http://www.w3.org/TR/2001/REC-SVG-20010904/DTD/svg10.dtd">
<svg version="1.0" xmlns="http://www.w3.org/2000/svg"
 width="114.000000pt" height="114.000000pt" viewBox="0 0 114.000000 114.000000"
 preserveAspectRatio="xMidYMid meet">
<metadata>
Created by potrace 1.11, written by Peter Selinger 2001-2013
</metadata>
<g transform="translate(0.000000,114.000000) scale(0.100000,-0.100000)"
fill="#000000" stroke="none">
<path d="M0 570 l0 -570 570 0 570 0 0 570 0 570 -570 0 -570 0 0 -570z m490
348 c87 -38 99 -80 99 -343 0 -264 -10 -299 -97 -341 -29 -14 -71 -19 -184
-22 l-148 -4 0 367 0 367 148 -4 c101 -3 158 -9 182 -20z m350 -288 l0 -310
85 0 85 0 0 -55 0 -55 -165 0 -165 0 0 365 0 365 80 0 80 0 0 -310z"/>
<path d="M320 575 l0 -255 33 0 c18 0 42 6 53 14 18 14 19 28 19 241 0 213 -1
227 -19 241 -11 8 -35 14 -53 14 l-33 0 0 -255z"/>
</g>
</svg>
