<?xml version="1.0" encoding="UTF-8"?>
<svg enable-background="new 0 0 317 93" version="1.1" viewBox="0 0 317 93" xml:space="preserve" xmlns="http://www.w3.org/2000/svg">
<style type="text/css">
	.st0{fill:none;stroke:#000000;stroke-width:0.7707;stroke-miterlimit:10;}
</style>

	<path class="st0" d="m92.9 49.9-4.1-0.3m3.9 2.2-4.1-0.5m3.8 2.7-4.1-0.6m3.7 2.7-4-0.8m3.5 2.9-4-1m3.4 3.1-3.9-1.2m3.2 3.3-3.8-1.4m3.1 3.4-3.8-1.6m2.9 3.6-3.7-1.8m2.7 3.7-3.6-1.9m2.5 3.8-3.5-2.1m2.4 3.9-3.4-2.2m2.2 4-3.3-2.4m1.9 4.1-3.2-2.5m1.8 4.2-3.1-2.7m1.7 4.3-3-2.9m1.4 4.4-2.8-3m1.2 4.5-2.7-3.1m1 4.4-2.5-3.3m0.8 4.6-2.4-3.3m0.6 4.5-2.2-3.5m0.4 4.7-2.1-3.6m0.2 4.6-1.9-3.6m-0.1 4.6-1.7-3.8m-0.3 4.6-1.5-3.8m-0.5 4.6-1.4-3.9m-0.7 4.6-1.2-4m-0.9 4.5-1-4m-1.1 4.5-0.8-4m-1.3 4.4-0.6-4.1m-1.6 4.4-0.4-4.1m-1.7 4.2-0.2-4.1m-2 4.2v-4.1m-2.2 4.1 0.2-4.1m-2.3 3.9 0.3-4.1m-2.5 3.9 0.5-4.1m-2.6 3.8 0.7-4.1m-2.8 3.7 0.9-4m-3.1 3.4 1.1-4m-3.1 3.4 1.3-3.9m-3.4 3.2 1.5-3.8m-3.5 3 1.6-3.8m-3.6 2.9 1.8-3.7m-3.7 2.7 2-3.6m-3.9 2.5 2.2-3.5m-4 2.3 2.3-3.4m-4 2.1 2.5-3.3m-4.2 2 2.6-3.2m-4.3 1.8 2.8-3.1m-4.4 1.6 2.9-2.9m-4.4 1.3 3-2.8m-4.4 1.2 3.2-2.6m-4.5 0.9 3.3-2.5m-4.6 0.8 3.4-2.3m-4.6 0.4 3.5-2.2m-4.6 0.4 3.6-2m-4.6 0.1 3.7-1.9m-4.6-0.1 3.8-1.7m-4.7-0.3 3.9-1.5m-4.6-0.5 3.9-1.3m-4.6-0.8 4-1.1m-4.5-1 4-0.9m-4.4-1.2 4-0.8m-4.4-1.4 4.1-0.6m-4.3-1.5 4.1-0.4m-4.3-1.8 4.1-0.2m-4.1-2h4.1m-4-2.1 4.1 0.2m-4-2.4 4.1 0.4m-3.8-2.5 4.1 0.6m-3.8-2.8 4 0.8m-3.5-2.9 4 0.9m-3.5-3 4 1.1m-3.3-3.2 3.9 1.3m-3.2-3.3 3.8 1.5m-2.9-3.5 3.7 1.7m-2.8-3.6 3.7 1.9m-2.6-3.9 3.6 2m-2.5-3.8 3.5 2.2m-2.3-4 3.4 2.4m-2.1-4.2 3.3 2.5m-2-4.2 3.1 2.7m-1.6-4.3 3 2.8m-1.5-4.3 2.9 2.9m-1.3-4.4 2.7 3.1m-1.1-4.5 2.6 3.2m-0.9-4.5 2.4 3.3m-0.6-4.6 2.3 3.4m-0.5-4.6 2.1 3.5m-0.2-4.5 1.9 3.6m0-4.6 1.8 3.7m0.2-4.6 1.6 3.8m0.4-4.6 1.4 3.9m0.7-4.6 1.3 3.9m0.8-4.5 1.1 4m1-4.5 0.9 4m1.2-4.5 0.7 4.1m1.4-4.4 0.5 4.1m1.7-4.3 0.3 4.1m1.9-4.2 0.1 4.1m2-4.1-0.1 4.1m2.3-4-0.3 4.1m2.5-3.9-0.5 4.1m2.6-3.8-0.6 4.1m2.7-3.7-0.8 4m3-3.6-1 4m3-3.4-1.2 4m3.3-3.3-1.4 3.9m3.4-3.1-1.6 3.8m3.6-2.9-1.7 3.7m3.6-2.8-1.9 3.7m3.8-2.6-2.1 3.5m4-2.4-2.3 3.5m4.1-2.3-2.4 3.3m4.1-1.9-2.6 3.2m4.3-1.9-2.7 3.1m4.3-1.6-2.8 3m4.3-1.5-3 2.9m4.4-1.3-3.1 2.7m4.5-1-3.2 2.6m4.5-0.9-3.3 2.4m4.6-0.6-3.5 2.2m4.6-0.3-3.6 2.1m4.6-0.2-3.7 1.9m4.7 0-3.7 1.7m4.6 0.3-3.8 1.5m4.6 0.5-3.9 1.4m4.5 0.7-3.9 1.2m4.5 0.9-4 1m4.5 1.1-4 0.8m4.4 1.3-4.1 0.7m4.4 1.5-4.1 0.4m4.2 1.7-4.1 0.3m4.2 1.9-4.1 0.1m4.1 2.1-4.1-0.1m-74.8-12.5s-2 1.4-2 4.8c0 3.1 0.5 7.4-0.8 9.8-0.1 0.2-0.2 0.3-0.3 0.5 0 0-1 1.2-0.2 1.2 0.8 0.1 1.3 0 1.7 0.4 0.2 0.2 0.4 0.4 0.6 0.5 0 0 0.9 0.2 1.8 0.1m1.9-17s-1.4 1.4-1.4 3.7c0 2.2 0.6 5.6 0.6 6.4 0 0.5-0.2 1.6-0.4 2.8-0.2 0.7-0.5 2.3 0.1 4m-4.1-20.7c-0.1 0.1-0.9 0.9 0.3 2.8m11.2-3.1s-0.1 0.1-0.3 0.2c-0.4 0.3-1.4 1-2.4 1.7-1.4 0.9-2.6-0.4-3.3-0.9s-2.2 0-3.6 0.2c-0.8 0.1-1.5-0.4-2-0.8-0.4-0.3-0.6-0.7-0.7-0.8-0.3-0.3-0.6-1.6-0.2-1.9s1.4-1.5 1.4-1.5c1.6-2.9 3.2-3.2 3.2-3.2m14.8 19.1c0 0.1-0.2 0.5-0.2 0.7s-0.1 0.7-0.2 1c0 0.2 0 0.5-0.2 0.6 0 0-0.4 0.3-0.7 0.3-0.2 0-0.6 0.1-0.9-0.1l-0.7-0.7s-0.1-0.1-0.1-0.2c-0.2-0.2-0.4-0.7-0.3-1.3 0.1-0.7 0.5-1.3 0.6-1.5 0-0.2-0.8-2.3-0.8-2.3s-1.2-1.7-1.5-2.1c-0.2-0.3-0.9-1.1-1.3-2.9-0.2-0.6-0.3-1.4-0.4-2.2 0 0-0.2-0.5-0.1-1.5 0-0.2 0-0.4 0.1-0.7 0.2-1.4 0.1-3.2 0.1-3.5v-0.5c0.1-0.7 0.3-1.8 0.6-2.6 0.4-1.1 1.9-3.6 1.9-3.6m4.1 23m-7.2-11.9-2-0.7c-0.3-0.1-2.2-0.9-2.6-0.9s-1.4-0.4-1.8-0.7c-0.5-0.3-1.4-1.7-1.4-2s0.2-1.8 0.3-2.9c0-0.3 0.1-0.5 0.1-0.7 0.3-1.1 1.2-1.4 1.8-1.8s1.3-1.7 2-2.2c0.7-0.4 2.5-0.8 4-1.1 1.4-0.3 4.2 0 4.2 0s0.1 0 0.2 0c0.4 0 1.3 0.1 2.2 0.5 0.2 0.1 0.5 0.3 0.7 0.5 0.5 0.4 0.9 0.9 1.1 1.3 0.4 0.9 0.5 1.9 0.2 2.7-0.2 0.5-0.4 1-0.7 1.4-0.4 0.6-0.9 1-1.2 1.2-0.5 0.2-1 0.3-1.2 1.1-0.2 0.7-0.6 2.4-1.4 3.1 0 0-0.1 0 0 0.4 0 0.1 0.1 0.2 0.1 0.4 0.3 0.7 1.3 2.6 1.2 4 0 1.4 0.2 2.8 0.6 3.9 0.3 1.1 1 2.4 1.3 2.4s0.8 0.2 1 0.4 0.9 0.5 1.1 0.6c0.1 0 0.4 0.2 0.5 0.3 0 0.1 0 0.2-0.3 0.3-0.7 0.2-1.3 0.1-1.3 0.1s-0.4-0.2-0.5-0.2-0.3 0.2-0.4 0.2c-0.1 0.1-0.5 0.2-0.6 0.4v0.1m-6.7-16.8c-1.1 0.4-2.2-0.7-3.3-2.1-1.1-1.3-0.3-2.5 1.3-4.2 1.3-1.5 5.4-1.9 6.3-2m-0.2 12.2 1.7-0.9 1.3-0.7s2-0.7 3.1-1.2c0.4-0.2 0.7-0.3 0.7-0.4 0.1-0.3 0.1-1.1 0.1-1.1m0.5-2s0.2 1.2-0.5 2c-0.1 0.1-0.2 0.3-0.4 0.4l-1.1 0.7m6.3-3.5s0.5 0.6 0.6-0.2c0.1-0.7 0.8-2.3 0.9-2.6s0.3-0.5 0.3-0.5m-9.6 4.4 3.3-0.8 0.2 0.1 1.3 0.7s0.8 0.5 1.2 0.4c0.3 0 0.3-0.2 0.3-0.4 0-0.1 0.2-0.4 0.3-0.4s0.3-0.3 0.3-0.3 0.4 0 0.5-0.1 0.3-0.3 0.4-0.3m-9.2-5c-0.2-0.5 0.3-1 0.6-1.1l0.4-0.1v-0.1c0-0.7 2.2-1.1 2.2-1.1 0.1-1.4 3.5-0.8 3.5-0.8 1.6-0.3 3.2 1 3.2 1 1.3-0.2 1.9 1.3 1.9 1.3 1.2 0.4 0.7 2.1 0.6 2.3 0 0.2 0 0.4-0.7 0.5-0.2 0-0.4 0-0.7-0.1-0.5-0.2-0.6-0.1-1.3-0.6l-0.9-0.7s0.1 0.7-0.2 1-0.4 0.3-0.6 0.3-0.6 0.4-0.9 0.6-0.7 0.6-1.4 0.7c0 0-1.3 0.3-1.7 0.1s-1.2 0.2-1.3-0.1c-0.1-0.2-0.3-0.5-0.7-0.8m5.8 2.7 0.4 0.5m-8.9 5.4s-0.2 0.9 0 1.3c0 0 0.7 1.9 2.7 2.1 0.2 0 2.1 0.1 2.1 0.1m-0.1-5.3s1.3 0.9 1.5 1.4m-8.4 15.6-2.1 0.9s-2.2 0.5-2.7 0.6-2.6 0.5-2.6 1.7c0.1 1.2-0.1 1.6 0.3 2 0.4 0.3 0.8 0.5 0.8 0.5m1.6-0.8s-0.8 0.4-1.6 0.9c-0.4 0.2-0.7 0.5-0.9 0.7-0.5 0.6-1 1.3-1.1 2v0.3c0 0.7 0.6 1.2 0.8 1.4m-0.9-1.7s-1.5-1-1.7-1c-0.1 0-0.5-0.1-0.9-0.1-0.5-0.1-1-0.1-1.2-0.1-0.5 0.1-2.1 0.9-2.2 1.9-0.1 0.9-0.8 3.4 1.5 3.4 0 0 0.9-0.5 1.3-0.9 0.1-0.1 0.1-0.1 0.1-0.2 0.3-0.4 2-1.4 2.3-1.3 0.2 0 1 0 1.6 0.1 0.5 0 0.9 0.1 1 0.3 0.3 0.4 0.5 1.6 0.7 1.8 0.2 0.1 1.5 1.3 1.5 1.3m8.2 5 1 1.4 0.5 0.9s0.3 0.3 0.4 0.2c0.2-0.1 0.4-0.2 0.2-0.5-0.1-0.4-0.5-1.1-0.5-1.1s-0.5-0.9-0.9-1.2l0.9 0.4 1.3 0.8s0.2 0 0.3-0.1 0-0.3-0.1-0.4-1-1.3-1-1.3-0.4-0.3-0.6-0.4l-0.3-0.3c0-0.1-0.6-0.6-0.7-0.7s-0.9-0.6-1.2-0.7-1-0.2-1-0.6c0.1-0.4 1-2.6 1-2.6l0.7-1.3s0.1-0.2 0.3-0.5c0.3-0.6 0.8-1.7 0.8-2.1 0 0 1.6-0.2 1.6-1s0.6-1.9-4-3.6c0 0-1.4 0.9-2 2.3-0.3 0.7-0.7 1.5-0.9 2.5-0.2 0.9-0.4 2-0.4 3.2 0 0.9 0.1 2 0.1 2.9m3.9 4.8 1 2.1s0.3 0.2 0.4 0.1 0.2-0.2 0.2-0.3c-0.1-0.2-0.2-0.8-0.2-0.8l-0.3-0.9-0.3-0.6-0.2-0.6m-4.3-3.7c0.1 1.5 0.4 2.7 0.9 3.2 0 0 0.7 0.6 0.8 0.7s0.7 0.5 0.8 0.6 0.2 0.6 0.1 0.7-0.5 0.3-0.5 0.4-0.2 0.4 0.1 0.6c0 0 0.1 0.1 0.2-0.1s0.3-0.2 0.4-0.2 0.7-0.3 0.8-0.6v-0.5m-8.2-15.4 0.5 0.5c1 1 3.2 3.3 4.2 3.9m-11 2.9s0.1 1.4 0.6 2c0 0.1 0.1 0.1 0.2 0.2 0.7 0.7 2.3 1.7 4.3 1.8 2.2 0.1 4.5 0.4 5.8-0.8m-10.1-1s-0.6 2.5 1 4l0.1 0.1c1.7 1.5 3.3 3.2 5.3 4.2s6.6 2.8 7 2.9c0.1 0 0.3 0.1 0.5 0.2 0.9 0.4 2.5 1.1 2.8 1.3m-15.7-8.6s-0.4 0.3-0.4 0.8c0 0.4 0 1.3-0.4 2.1s-1.1 2.6-1 3 1 2.1 1 2.2 0.3 0.4 0.3 0.4c0.1 0 0.5 0.1 0.6 0.1h0.5c0.1 0 0.4-0.1 0.4-0.2s0-0.3 0.1-0.4c0.1 0 0.6-0.7 0.4-0.7-0.2-0.1-0.5-0.2-0.7-0.2-0.2-0.1-0.4-0.1-0.5-0.3s-0.2-0.3-0.1-0.5 0.3-0.4 0.5-0.5 2.1-1.4 2.4-1.4c0.3 0.1 1 0.2 1.3 0.5s2.9 2.5 3.4 2.7c0.6 0.3 2.8 1.6 3.9 1.7s3.1 0.5 3.9 0.8c0.8 0.2 2.7 0.6 3.5-0.3s1.2-1 1.2-1.5c0.1-0.6 0.3-2.2-0.1-3-0.5-0.8-0.9-1.4-0.9-1.4m-3.6-24.3s2.4 0.6 3.5 1.4l0.3 0.3m-3.4 12.3s0.9 1.9 1 2.6c0.1 0.4 0.6 2.1 1 3.5 0.3 0.9 0.5 1.6 0.6 1.7 0.1 0.3 0.7 0.9 0.5 2 0 0.1 0 0.1-0.1 0.2-0.1 0.2-0.1 0.4-0.2 0.6-0.8 1.6-1 3.3-4.9 3.2l-1-0.1m6.7-15.8c2.3-0.3 2.7-3.1 2.8-4 0-0.1-0.2-0.9-0.2-0.9s-0.2-0.9-0.4-1.6c-0.1-0.5-2.4-3.7-2.4-3.7m-0.3-0.4s-0.3-1.5 0.3-1.7l0.5-0.5c0.2-0.2 0.6-0.7 0.9-0.8 0.3 0 0.6-0.3 0.7-0.5 0.2-0.2 0.8-1 1.7-0.8 0.9 0.1 2.9 0.2 3.1 0.4 0.3 0.2 1.5 1 1.6 1h0.4c0.3 0.1 0.8 0.2 0.9 0.7 0 0 0.5 0.4 0.1 1 0 0 1 0.5 1.1 1 0.2 0.5 0.3 1.4-0.5 1.6 0 0-1 0.1-1.2 0.1 0 0-0.1-0.4-0.3-0.5s-0.4-0.1-0.7 0.1c-0.2 0.2-1 0.7-1.3 0.7-0.2 0.1-0.6 0.1-0.7 0.3-0.1 0.1-0.2 0.4-1 0.9l-3.1 0.7m1 0.5s0.3 0.6 0.6 1 1.5 0.9 2.2 0.7c0.3-0.1 0.4-0.3 0.6-0.4 0.2 0 0.4-0.3 0.6-0.3s0.5-0.6 0.5-0.6 0.8 0.2 0.8-0.3v-1.6s0.6-0.4 0.7-1.2m-2.3 3.7-0.3-0.2m1.2-0.3s-0.6-0.2-0.6-0.4m-12.6 7.5s0.7 0.9 2.1 0.8c1.7-0.3 3-1.3 3.5-2.1 0.7-1.3 1.2-3.1-0.8-5.8m10.9-15.3c-0.1 1.1 0.5 1.4 0.6 1.5l0.2 0.4s0.4 0.1 0.7-0.1c0.4-0.2 0.8-0.5 0.8-0.5 0.6-0.4 0.1-0.9 0.3-1.3 0.1-0.5-0.3-0.9-0.3-0.9s0.2 0 0.2-0.2-0.5-0.5-0.5-0.6c-0.1 0 0.1-0.3-0.1-0.5-0.1-0.2-0.2-0.8-0.2-0.8 0-0.1-0.1-0.5-0.1-0.6-0.1-0.6-0.6-0.7-0.6-0.7 0-0.3-0.4-0.6-0.4-0.6 0.1-0.7-0.6-0.6-0.7-0.9s-0.7-0.6-0.7-0.6c-0.3-0.4-1-0.5-1-0.5-0.2-0.1-1.4 0.4-1.4 0.4s-0.5-0.1-1 0.1c0 0-1.1-0.2-1.6 0.9 0 0-0.6 0.4-0.8 0.9 0 0-0.8 2.4-0.9 3.3s-0.1 0.7-0.1 0.9c-0.1 0.4-1.9 1.9-1 2.6 0.9 0.6 1.1 0.7 1.3 1.1s2.6 0.7 3.2 0.5c0.5-0.2 0.8-2 0.8-2 0-0.4 0.1-0.8-0.1-1.3-0.1-0.2-0.1-0.4-0.2-0.6-0.3-0.6-0.4-1.3-0.4-1.7s-0.2-0.9-0.4-1.2-0.6-0.6-0.5-1.3c0.1-0.6 0.6-1.5 0.9-1.6s1-0.6 2.3-0.2c0 0 0.5 0.4 0.6 0.5s0.5 0.3 0.8 0.6c0.3 0.2 0.4 0.6 0.4 0.6m0.5 0.8c0 0.1 0.2 1.5 0.2 1.6s0.4 1.1 0.1 1.3-0.7 0.4-1.1 0.6c-2.3 0-3.6-0.5-3.6-0.5m-4.9 2.7s-3.6 2.1-2.9 7.9m10.2-6.4 0.1 4.1m-7.1 20.8s-0.4-5-0.2-5.8m4.8-34.3s0-1.3 0.4-1.6c0.3-0.2 0.7-0.6 1.2-0.7h0.6c0.7 0.3 2.5 1.1 3 2.2 0.3 0.7 0.2 1.1 0 1.4-0.1 0.2-0.3 0.3-0.4 0.3-0.4 0.2-1.2 0.4-1.2 0.4m4.7-9m-6.8 4.5s-0.7-1.2 0.4-2.6c1.1-1.3 1.5-1.5 2-1.6s1.3-0.2 1.3-0.2 1.6-1.1 3.1-0.2m-2.9 15.4s0.8-1.8 0.9-1.9c0 0 1.4-2.1 0-5.5-0.2-0.5-1 0.5-1.1 0.5m8.4 2.3s-0.2 1.1-0.4 1c-0.1 0-0.6-0.7-0.6-0.7l0.5-1.6 0.2-2v-0.1l1.6-2.6c0-0.2-0.2-1.1-0.3-1.3-0.2-0.2-0.7-0.8-0.8-1 0-0.2-0.2-1-0.2-1s-1.2 0.9-1.4 1.1c-0.3 0.1-1.1 0-1.3 0s-0.7 0.1-0.9 0.4c-0.1 0.3-0.6 1.1-0.7 1.2-0.1 0.2-0.3 1-0.3 1.4 0 0.2-0.1 0.4-0.2 0.5s-0.2 0.3-0.3 0.4c-0.1 0.3 0 0.6 0.1 1 0.1 0.5 0 1.2-0.1 1.4s-0.4 0.2-0.5 0.2-0.6 0.3-0.6 0.3 0.1-0.6 0.1-0.8-0.4-1.1-0.5-1.3c-0.1-0.3-0.4-2.5-0.4-3s0.5-1.8 0.6-2.1c0-0.2 0.4-1.3 0.6-1.7 0.1-0.1 0.3-0.4 0.4-0.6 0.4-0.4 0.8-0.9 1-1 0.2-0.2 1.7-0.5 1.7-0.5s1.8-0.2 2.8 0.8c0 0 1.1 0 1.4 0.7s0.9 1.8 0.9 2.2c-0.1 0.3-0.3 0.7-0.2 0.9 0 0.2-0.1 1.2-0.2 1.5v0.1c-0.1 0.2-0.1 0.4-0.1 0.6s0.3 1.1 0.1 1.2c-0.1 0.2-0.4 0.3-0.4 0.5s0 0.9-0.2 1.1-0.3 0.5-0.4 0.6c0 0.1 0.2 1.1-0.1 1.5l-0.3 0.3c-0.1 0-0.2 0-0.4 0.1l-0.2 0.3zm-4.7-4.6s0.5 1.9 1.5 2.2c0 0 1.5 0 2.8-0.9m8.1 3.5v-0.2m-5.5-6s3 1 4.8 4.2c0 0 0.7 1.2 0.7 1.8v0.3m1.5 1.5s-0.4-0.7-1.5-1.5c-0.5-0.4-1.2-0.8-1.9-1m-5.2 0.5s-0.5 2 2.3 4m-7.2 6-2.9-1.4m1.7 29.6c0.4-0.5 0.8-1.3 0.5-2.4-0.4-1.8-0.4-2.2-0.2-2.7 0.1-0.3 2.4-3 3.9-5.9 0.2-0.3 0.3-0.6 0.5-0.9 0.6-1.3 1-2.6 0.9-3.6l1.4-2.9m-10 24.8-0.4 2.2 0.9-2.3 1.6-4.1 2 5.4-1.1-7.6-0.1-0.8s-0.8 0.1-1.2 0.7-0.8 1.9-0.9 2.5c-0.1 0.4-0.3 0.9-0.4 0.9-0.5 0-0.4-0.7-0.4-0.7l-0.2-2.9c-0.1-0.1-0.3-0.2-0.3-0.4-0.3-0.5-0.2-1.2-0.2-1.7 0-0.7 0.6-1.4 1-2.4 0.2-0.4 0.6-1.6 0.9-2.7 0.4-1.4 0.8-2.7 0.8-2.7 0.2-1.6 0.5-2.9 0.8-3.7 0.6-1.9 1.4-2.3 1.5-2.5 0.2-0.3 0.6-1.3 0.6-1.3m-4.4 21-0.4 3.1m5.2-30.2s-0.2 0.7-0.5 0.8c-0.2 0.2-1.4 1.6-1.1 2.6 0.2 1 0.7 2.6 0.7 2.6l0.5-0.1 4.3-0.5s0.3-0.1 0.7-0.2c0.4-0.2 0.9-0.4 1.2-0.7 0.5-0.6 2-3.1 2-3.1m-20.1 30.5 6.7 2.2 12.5-3.5-7.2-1.5-4.5 1-0.5 0.1-7 1.7v1.8l6.8 2.3 12.4-3.6v-1.7m-12.6 3.4v1.7m4.9-38.9s-0.4-0.3-0.3-0.6c0.1-0.4-0.3-1.1 0-1.3 0.2-0.1 0.2-0.7 0.5-1.1 0.1-0.2 0.3-0.4 0.6-0.4 0.8-0.2 0.5-1 1.1-1.1 0.6-0.2 1.2-0.6 1.4-0.6s1-0.3 1.2-0.4c0.1 0 0.4-0.1 0.6-0.1 0.3 0 0.7-0.1 0.8 0s0.5 0.3 0.9 0.4c0.3 0.1 0.5 0.2 0.7 0.2 0.3 0 1.3 0.4 1.5 0.4s0.8 0 0.7 0.3c-0.1 0.2-0.2 0.5-0.1 0.5 0.1 0.1 0.5 0.3 0.5 0.4s-0.2 0.4-0.2 0.6 0.4 0.7 0.5 0.9 0.1 0.5 0 0.6-0.3 0.2-0.2 0.3 0 0.4-0.1 0.5-0.3 0.4-0.4 0.5-0.5 0.7-0.6 0.8c-0.2 0.1-0.7 0.1-0.7 0.3-0.1 0.2-0.7 0.4-0.9 0.4s-1 0.5-1.2 0.2c-0.1-0.3-0.1-0.9-0.1-1.1 0.1-0.2 0.3-0.4 0.4-0.6s0.1-0.4 0-0.5-0.5-0.4-0.1-0.8 1-1.6 1.2-2c0.1-0.3 0-0.7-0.1-0.8s-0.9-0.6-1.1-0.6c-0.1-0.1-1.2-0.3-1.5-0.3-0.2 0-1-0.1-1.2 0.1-0.3 0.2-1 0.4-1.1 0.5s-0.7 0.6-0.7 0.6l-0.8 1s-0.9 0.9-1 2.9c0 0.4 0 0.9 0.1 1.5 0 0 0.1 0.9 0.7 1.5 0.2 0.2 1.3 1.1 1.3 1.1s0.5 0.1 0.6 0.1 0.4 0.1 0.6 0.4c0.1 0.3 0.5 1.5 1.2 1.3l0.5-0.5s0.7 0.3 0.9 0.3c0.1 0.1 1.3 0.6 2.6-1.3 0.1-0.2 0.3-0.4 0.4-0.7 0 0 0.5-1.2 1-2.2 0.1-0.1 0.6-0.3 0.7-0.4 1.5-0.5 2-2.6 2-2.6s0-0.3 0-0.7m-1.5 5.1c-0.1 0.4-0.7 2.6-0.7 3.1-0.1 0.5-0.1 0.9 0.1 1.5s0.5 2.1 0.5 2.7-0.3 2.3-0.6 3.3c0 0.2-0.1 0.3-0.1 0.4l-0.1 0.5-0.8 1.8s-1.4 2.7-1.6 3.3-1.4 2.7-0.2 5.7l0.5 1.7c0.8 2.5 1.1 2.7 2 2.8m2.1-8.7s-0.4 4.1-0.9 5.3-0.9 2.2-0.9 2.6c0 0.5-0.3 1.7-0.5 2.1-0.1 0.2-0.3 0.6-0.4 1-0.1 0.2-0.1 0.5-0.1 0.7 0.1 0.6 0.1 1.2 0.6 1.2 0.5 0.1 1.2-0.1 1.2-0.1s0.7 0.2 1 0.3c0.3 0 0.7 0.1 1-0.1 0.2-0.2 0.7-0.3 0.9-0.5s0.8-0.7 0.8-1.1-1-1.8-1-1.8 0-0.2-0.1-0.4c-0.1-0.6-0.3-1.8 0-2.5 0.5-0.9 5.5-7.9 5.1-12.9m3-0.7s-1.7-0.2-3 0.6c-0.3 0.2-0.5 0.4-0.7 0.7-0.8 1.1-3.9 3.7-6.1 5.4-0.7 0.6-1.3 1-1.6 1.3-0.2 0.1-0.8 1.1-0.8 1.1s0.7-11.8 8.5-21m-13.2-8.1s0.7-0.9 1.8-1.4c0.3-0.1 5.5-2.8 10.2-2m-4.7 5.9c0-0.2 1.4-4.5 4.1-5.6 1-0.6 2.1-0.1 2.1-0.1 0.6 0.2 2.2-0.4 4.1 1l1.5-0.5c2.6-0.4 3.8 1.8 3.8 3.2s-1.9 3.1-1.9 3.1l-1.9 1.6c-0.5 0.9-2.5 2-3.1 2.4-0.9 0.6-1.9 0.7-2.8 0.5-3-0.6-5.7-4.2-5.7-4.2m3.2 30s1.9 2.1 3.4 2.5m-13.5-25 0.4-0.3m-10.3 5s-0.2-2.3-0.1-3.2c0-0.5 0.6-2.9 1-5.1m0.9 7.1s-3.7 1.5-2.2 4.9m0.3-0.1c-0.6 0.9-0.6 0.8-0.7 1s-0.4 1.5-0.4 1.6c0 0.2 0 0.6-0.1 0.6-0.1 0.1-0.6 0.4-0.7 0.4-0.1-0.1-0.5-0.7-0.7-0.8-0.2 0-0.5-0.1-0.4 0.2s-0.8 0.1-0.2 0.7l0.7 0.6s0.6 0.5 1 0.6 1 0 1.3-0.5m0.2-4.4m2.4-1s-0.7-0.6-1.6 0.2c-0.6 0.6-0.8 0.7-0.8 0.7m-0.2 2.5c0 0.2-0.2 1.1 0.3 1.2 0 0 0.5 0 0.5-0.5s0.3-0.8 0.3-1m-0.9 1.6s0 0.4-0.1 0.8-0.1 0.7-0.2 0.8c-0.1 0.2-0.4 1.1-0.3 1.2 0 0 0.3 0.8 0.7 0.2l0.4-0.6 0.4-0.7m4.1-33.9s0.3 0.2 0.7 0.3m-0.2-0.9s0 0.1 0.4 0.1m-8.1 9.8s0.7-0.2 1.1-0.4m-3.8-1.4s0.8-1 1.1-0.7m-0.4 0.3 0.1 0.1m-0.3 17.9-0.2 0.2m-5.4-25.3-0.2 0.3m15.3-2.6v0.2m2.6 0.7-0.1 0.3m1.5 19.4 0.2 0.2m-1-0.1 1.8-0.4m13.9-0.9-1.6 6.4m3-7.2c-10.4-2.8-3.6-9.6-2.5-10.6m-33.4-6.2 1.1 0.7m13.9-3s0.6 0.4 1.3 0.4m1.4 0.8s0.7 0.4 1.3 0.4m-12.4 26.4s-0.8-0.2-0.9-0.5m-8-16.9 0.4-0.1s1.1 0.2 1.2 0.2 1.1 0.2 1.1 0.2c0.1 0.3-0.5 0.5-0.5 0.5l-0.9 0.2 0.3 0.5c0.3 0.5-0.4 1-0.4 1 0.2 1-0.4 1.3-0.4 1.3-1 0.7-1.9 0.1-2.6-0.3-0.2-0.1-0.3-0.2-0.5-0.2-0.7-0.3-0.5-0.9-0.5-1.6 0-0.6 0.3-1.2 0.4-1.5 0.2-0.2 1-0.6 1-0.6l1.4 0.4s0.3 0.5 0.2 0.6c-0.2 0.1-0.7 0.4-1 0.2h-0.2m14.1-10.2 0.7 2.5m27.8 44.4s-4-0.8-4.1-7.1m-36.9-0.3s3.7 3.9 4.9 4m2-9.6c-0.1 1.9-0.3 3.3-0.3 3.3-0.3 2.7-1.7 6.3-1.7 6.3s1.5 0 2.8-0.5c1.4-0.5 2.2-1.5 3.5-0.8m8.5-11c1.9-0.4 3.6-0.6 4.8-0.8 1.5-0.1 2.4-0.1 2.4-0.1m-7.3 1s-0.1 4.2 0 4.5c0 0.3 0.1 1.7-0.3 2.3s-0.8 1.6-0.8 2v1.3c-0.1 0.2-0.5 1.5-0.5 1.5s-0.2 1.1 0.8 1.2 2.4 0.1 2.9-0.1c0.5-0.3 0.9-0.8 0.8-1.1-0.2-0.4-0.5-0.6-0.8-0.9s-0.6-1-0.5-1.4c0 0 0.2-0.5 0.2-0.8 0-0.2-0.1-1.2 0.2-1.5 0.2-0.3 1.9-2.9 1.9-2.9s0.8-1.2 1.1-4.7m-15.2-28s-0.2-0.3-0.3-0.6c-0.1-0.2-0.2-0.3-0.2-0.3 0-0.1-0.1-0.2 0-0.4s0.5 0 0.5 0 0.2 0.3 0.5 0.5 0.2 0 0.5 1c0 0.2 0.1 0.4 0 0.5-0.1 0.5-0.7 0.4-1.3 0.9-0.8 0.6-1.8 0-1.8 0s-1.4-1.3-1.4-1.4c-0.1-0.1-0.2-0.1-0.3 0s-0.1 0.1-0.6 0.2c-0.5 0-0.8-0.3-0.8-0.5-0.1-0.1 0.7-0.5 0.7-0.5s0.8-0.5 1.6-0.5h0.4c0.6-0.1 1-0.1 1.5 0.2l0.8 0.4m-35.3 28.7c-0.1 0-2.2-0.5-2.3-0.8 0 0-0.1-0.2 0-0.3s0.5-0.5 0.6-0.7c0.1-0.1 0.1-0.1 0.3-0.6 0.3-0.7 0.8-1.8 0.8-1.8 0.5-1.2 0.4-1.4 0.4-1.4l0.5-6.4c0.1-2.9 1.8-4.5 1.8-4.5m11.1 0.3s-3.3 0.5-6.9 0.3c-0.9-0.1-1.8-0.2-2.7-0.3-0.5-0.1-1-0.2-1.5-0.4-0.2-0.1-0.5-0.2-0.7-0.2 0 0-1.5 0.5-2 4.3 0 0-0.2 3.7-0.7 5.2-0.9 2-2.9 4-2.9 4s-0.5 0.6 0.1 1.2l1.4 1m72.5-16.8c0.9 2.2 1.4 5.2 1.9 9.3 0.9 7.9-1.1 15-1.8 17.6-0.6 2.6 0.4 6.3 1.6 6.6 0 0-4.5 0.5-6.4 0.4-0.8 0-0.9 0-1.8-0.1-3.1-0.1-6.4-0.3-6.6-0.5m-2.6-5.1c-3.1-0.9-1-2.6-1-2.6m16.8 1.2c0.2-1.8-0.9-11.1-0.4-14.2s0-5.9 0-5.9m-6.5-8 1.8-1.8m-26.5 14s1.6-4.9 2.6-5.3m-16.1 7s3.7 1.5 4.3 3.2m-15.1-12s-0.2 1.6 0.3 4c0.5 2.3 1.2 4.4 1.2 4.4m17.4-8.8s3.6 0.8 4.4-1.8m-8.4 17.8c-0.2 0.8-0.2 1.8-0.9 3.6 0 0-0.3 0.9-0.7 1.7-0.3 1-2.6 3-2.6 3m-5.5-11.9s0.9-1.1 3-1.1h1.6m28.3-16s2.9-0.6 3 2.5m-18.5-4.3c0.7-0.3 0.8-0.7 0.8-0.7s-1-0.7-1.5-0.9c-0.6-0.2 0-0.7 0-0.7m16.2 10s-0.2 1.5-0.6 2.4m1.2-0.8 4-0.2s0.9-0.1 1.4-0.5m2.5 18.4c2.4 2.7 5 5.4 5 5.4m-10.1-18.6s-0.1 1.4 0.1 3.4m-26 1.2-0.4 0.4"/>
	<path d="m236.3 70.1c0.5 0.6 1.8 2 4.7 2 3.1 0 5.2-1.9 5.2-4.4 0-2-1.7-3.3-2.8-3.8v-0.1c1-0.5 2.3-1.8 2.3-3.6 0-2.6-2.1-4.2-4.8-4.2-2.5 0-4.2 2-4.2 2-0.2 0.2-0.2 0.4 0 0.6l0.8 0.8c0.2 0.2 0.5 0.1 0.6 0 0.5-0.5 1.3-1.3 2.6-1.3s2.6 1 2.6 2.5c0 1.3-1.1 2.4-3.2 2.4h-1.3c-0.3 0-0.5 0.1-0.5 0.5v1c0 0.3 0.2 0.5 0.4 0.5h1.3c2.4 0 3.6 1.3 3.6 2.7 0 1.5-1.4 2.5-2.9 2.5-1.7 0-3-1.2-3.1-1.4-0.2-0.2-0.4-0.2-0.6 0l-0.9 0.8c0 0.1 0 0.4 0.2 0.5m-6.9 0c-2.5 0-3.3-2.6-3.1-4.5 0.1-0.4 1.3-1.7 3.1-1.7 1.7 0 3 1.4 3 3.1 0.1 1.7-1.3 3.1-3 3.1m-5.3-4.3c0 3.5 1.7 6.4 5.4 6.4 2.8 0 5.1-2.3 5.1-5.2 0-3.1-2.3-4.9-4.8-4.9-1.5 0-2.9 0.7-3 0.8 0.8-2.8 4.4-4.7 5.4-5 0.4-0.1 0.5-0.4 0.4-0.7l-0.4-0.9c-0.1-0.3-0.3-0.4-0.6-0.3-2.1 0.7-7.5 3.4-7.5 9.8m-10.5 2c0-1.2 1-2.5 2.9-2.7 1.8 0.3 2.9 1.5 2.9 2.7 0 1.5-1.3 2.5-2.9 2.5s-2.9-1-2.9-2.5m2.9-4.9c-1.8-0.3-2.6-1.2-2.6-2.4 0-1.4 1.1-2.4 2.5-2.4 1.5 0 2.6 1 2.6 2.4 0 1.2-0.8 2.1-2.5 2.4m-5.3 4.9c0 2.5 2 4.4 5.2 4.4 3.3 0 5.3-1.9 5.3-4.4 0-2-1.7-3.3-2.8-3.8v-0.1c1-0.5 2.3-1.8 2.3-3.5 0-2.5-2.1-4.2-4.9-4.2-2.7 0-4.8 1.7-4.8 4.2 0 1.8 1.4 3 2.3 3.5v0.1c-0.7 0.4-2.6 1.8-2.6 3.8m-10.9 4.1h7.9c0.3 0 0.4-0.2 0.4-0.4v-1c0-0.3-0.2-0.4-0.4-0.4h-2.5v-13.2c0-0.2-0.2-0.4-0.4-0.4h-1.1l-3.4 3.1c-0.1 0.1-0.1 0.3-0.1 0.5l0.3 0.8c0.1 0.2 0.3 0.3 0.5 0.2l2-1v10.2h-3.2c-0.3 0-0.4 0.2-0.4 0.4v1c-0.1 0 0.1 0.2 0.4 0.2m-20.8-7.9c0-3.2 2.7-6 5.9-6 3.3 0 5.9 2.7 5.9 6s-2.7 5.9-5.9 5.9-5.9-2.7-5.9-5.9m-2.3 0c0 4.6 3.6 8.2 8.2 8.2s8.2-3.6 8.2-8.2-3.6-8.2-8.2-8.2c-4.6-0.1-8.2 3.6-8.2 8.2m-16.5 7.5c0 0.2 0.2 0.4 0.4 0.4h1.4c0.3 0 0.4-0.2 0.4-0.4v-11.1l9.9 11.8h0.6c0.2 0 0.4-0.2 0.4-0.4v-15.4c0-0.2-0.2-0.4-0.4-0.4h-1.5c-0.3 0-0.4 0.2-0.4 0.4v10.8l-9.9-11.4h-0.6c-0.2 0-0.4 0.2-0.4 0.4v15.3zm-12.6-5 2.8-6.2h0.1l2.8 6.2h-5.7zm-4.2 5.4h1.4c0.3 0 0.5-0.2 0.5-0.3 0.5-1 0.9-2.1 1.4-3.1h7.5l1.4 3.1c0.1 0.2 0.3 0.3 0.5 0.3h1.4c0.3 0 0.5-0.3 0.4-0.6l-7-15.3c-0.1-0.1-0.3-0.3-0.4-0.3h-0.2c-0.1 0-0.3 0.1-0.4 0.3l-7 15.3c-0.1 0.3 0.1 0.6 0.5 0.6m-10.8-0.4c0 0.2 0.2 0.4 0.4 0.4h8.1c0.2 0 0.4-0.2 0.4-0.4v-1.3c0-0.2-0.2-0.4-0.4-0.4h-6.2v-13.4c0-0.2-0.2-0.4-0.4-0.4h-1.5c-0.3 0-0.4 0.2-0.4 0.4v15.1zm-6.8 0c0 0.2 0.2 0.4 0.4 0.4h1.5c0.2 0 0.4-0.2 0.4-0.4v-15.1c0-0.2-0.2-0.4-0.4-0.4h-1.5c-0.2 0-0.4 0.2-0.4 0.4v15.1zm-20.9-0.1c0 0.3 0.1 0.5 0.4 0.5h1.5c0.2 0 0.4-0.2 0.4-0.3l1.6-10.2h0.1l4.1 10.5c0 0.1 0.2 0.3 0.4 0.3h0.4c0.2 0 0.3-0.1 0.4-0.3l4.1-10.5h0.1l1.7 10.2c0 0.2 0.2 0.3 0.4 0.3h1.5c0.3 0 0.5-0.2 0.4-0.5l-2.8-15.3c0-0.2-0.2-0.3-0.4-0.3h-0.4c-0.2 0-0.3 0.1-0.4 0.3l-4.7 11.6h-0.1l-4.7-11.7c0-0.1-0.3-0.3-0.4-0.3h-0.4c-0.2 0-0.4 0.2-0.4 0.3l-2.8 15.4zm192-37.6c0-4.1 3.4-7.5 7.5-7.5s7.5 3.4 7.5 7.5-3.4 7.5-7.5 7.5c-4.2-0.1-7.5-3.4-7.5-7.5m-4.2 0c0 6.5 5.2 11.7 11.7 11.7s11.7-5.2 11.7-11.7-5.2-11.8-11.7-11.8c-6.6 0-11.7 5.3-11.7 11.8m-22.7 0c0 6.5 5.2 11.7 11.8 11.7 2.9 0 5.7-1 7.9-3.2 0.2-0.2 0.3-0.7 0-0.9l-2-2.1c-0.2-0.2-0.6-0.2-0.8 0-1.4 1.1-3 1.9-5 1.9-4.2 0-7.3-3.5-7.3-7.5 0-4.1 3.1-7.6 7.3-7.6 1.8 0 3.6 0.7 5 1.9 0.3 0.3 0.6 0.3 0.8 0l2-2.1c0.3-0.3 0.3-0.7 0-0.9-2.2-2-4.6-3-7.9-3-6.6 0-11.8 5.3-11.8 11.8m-8.6 10.7c0 0.3 0.3 0.6 0.6 0.6h3c0.3 0 0.6-0.3 0.6-0.6v-21.5c0-0.3-0.3-0.6-0.6-0.6h-3c-0.3 0-0.6 0.3-0.6 0.6v21.5zm-24.8 0c0 0.3 0.3 0.6 0.6 0.6h3c0.4 0 0.6-0.3 0.6-0.6v-14l13.6 15h0.8c0.3 0 0.6-0.3 0.6-0.6v-21.9c0-0.3-0.3-0.6-0.6-0.6h-3c-0.4 0-0.6 0.3-0.6 0.6v13.5l-13.6-14.5h-0.8c-0.3 0-0.6 0.3-0.6 0.6v21.9zm-24-10.7c0 6.5 5.2 11.7 11.8 11.7 2.9 0 5.7-1 7.9-3.2 0.2-0.2 0.3-0.7 0-0.9l-2-2.1c-0.2-0.2-0.6-0.2-0.8 0-1.4 1.1-3 1.9-5 1.9-4.2 0-7.3-3.5-7.3-7.5 0-4.1 3.1-7.6 7.3-7.6 1.8 0 3.6 0.7 5 1.9 0.3 0.3 0.6 0.3 0.8 0l2-2.1c0.3-0.3 0.3-0.7 0-0.9-2.2-2-4.6-3-7.9-3-6.6 0-11.8 5.3-11.8 11.8m-17.9 10.7c0 0.3 0.3 0.6 0.6 0.6h13.3c0.4 0 0.6-0.3 0.6-0.6v-2.7c0-0.3-0.3-0.6-0.6-0.6h-9.6v-5.7h8c0.3 0 0.6-0.3 0.6-0.6v-2.7c0-0.3-0.3-0.6-0.6-0.6h-8v-5.3h9.6c0.4 0 0.6-0.3 0.6-0.6v-2.7c0-0.3-0.3-0.6-0.6-0.6h-13.3c-0.4 0-0.6 0.3-0.6 0.6v21.5zm-13.5 0c0 0.3 0.3 0.6 0.6 0.6h3c0.3 0 0.6-0.3 0.6-0.6v-18.2h5c0.4 0 0.6-0.3 0.6-0.6v-2.7c0-0.3-0.3-0.6-0.6-0.6h-14.2c-0.4 0-0.6 0.3-0.6 0.6v2.7c0 0.3 0.3 0.6 0.6 0.6h5v18.2zm-14 0c0 0.3 0.3 0.6 0.6 0.6h3c0.3 0 0.6-0.3 0.6-0.6v-21.5c0-0.3-0.3-0.6-0.6-0.6h-3c-0.3 0-0.6 0.3-0.6 0.6v21.5zm-17.4 0c0 0.3 0.3 0.6 0.6 0.6h11.9c0.4 0 0.6-0.3 0.6-0.6v-2.7c0-0.3-0.3-0.6-0.6-0.6h-8.3v-18.2c0-0.3-0.3-0.6-0.6-0.6h-3c-0.4 0-0.6 0.3-0.6 0.6v21.5zm-22.6-10.7c0-4.1 3.4-7.5 7.5-7.5s7.5 3.4 7.5 7.5-3.4 7.5-7.5 7.5-7.5-3.4-7.5-7.5m-4.3 0c0 6.5 5.2 11.7 11.7 11.7s11.7-5.2 11.7-11.7-5.2-11.8-11.7-11.8-11.7 5.3-11.7 11.8m-13.8-0.9v-6.5h3.8c1.8 0 3.4 1.4 3.4 3.2 0 1.9-1.5 3.4-3.4 3.4h-3.8zm-4.2 11.6c0 0.3 0.3 0.6 0.6 0.6h3c0.3 0 0.6-0.3 0.6-0.6v-7.7h4.1c4 0 7.3-3.3 7.3-7.3 0-3.9-3.3-7.2-7.3-7.2h-7.7c-0.4 0-0.6 0.3-0.6 0.6v21.6z"/>

</svg>
