<?xml version="1.0" encoding="utf-8"?>
<!-- Generator: Adobe Illustrator 23.0.0, SVG Export Plug-In . SVG Version: 6.00 Build 0)  -->
<svg version="1.1" id="图层_1" xmlns="http://www.w3.org/2000/svg" xmlns:xlink="http://www.w3.org/1999/xlink" x="0px" y="0px"
	 viewBox="0 0 512 512" style="enable-background:new 0 0 512 512;" xml:space="preserve">
<style type="text/css">
	.st0{fill:#B0BEC5;}
	.st1{fill:#CFD8DC;}
	.st2{fill:#75B8AC;}
	.st3{fill:#E1DA41;}
	.st4{fill:#FFFFFF;}
</style>
<path class="st0" d="M8,58h496v352H8V58z"/>
<path class="st1" d="M8,10h496v64H8V10z"/>
<path class="st2" d="M56,498l28.6-16l28.6,16l28.6-16l28.6,16l28.6-16l28.6,16l28.6-16l28.6,16l28.6-16l28.6,16l28.6-16l28.5,16
	l28.6-16l28.5,16V74H56V498z"/>
<path class="st3" d="M120,122h272v48H120V122z"/>
<path class="st3" d="M192,258c0,22.1-17.9,40-40,40s-40-17.9-40-40s17.9-40,40-40S192,235.9,192,258z"/>
<path class="st3" d="M192,386c0,22.1-17.9,40-40,40s-40-17.9-40-40s17.9-40,40-40S192,363.9,192,386z"/>
<g>
	<path class="st4" d="M224,226h192v16H224V226z"/>
	<path class="st4" d="M224,258h112v16H224V258z"/>
	<path class="st4" d="M224,354h192v16H224V354z"/>
	<path class="st4" d="M224,386h80v16h-80V386z"/>
</g>
<path d="M0,2v416h48v93.6l36.6-20.5l28.6,16l28.6-16l28.6,16l28.6-16l28.6,16l28.6-16l28.6,16l28.6-16l28.6,16l28.6-16l28.5,16
	l28.6-16l36.5,20.5V418h48V2H0z M48,402H16V82h32V402z M448,484.3l-20.5-11.5l-28.6,16l-28.5-16l-28.6,16l-28.6-16l-28.6,16
	l-28.6-16l-28.6,16l-28.6-16l-28.6,16l-28.6-16l-28.6,16l-28.6-16L64,484.4V82h384V484.3z M496,402h-32V82h32V402z M496,66H16V18
	h480V66z"/>
<path d="M160,34h320v16H160V34z"/>
<path d="M32,34h16v16H32V34z"/>
<path d="M64,34h16v16H64V34z"/>
<path d="M96,34h16v16H96V34z"/>
<path d="M400,114H112v64h288V114z M384,162H128v-32h256V162z"/>
<path d="M152,306c26.5,0,48-21.5,48-48s-21.5-48-48-48s-48,21.5-48,48C104,284.5,125.5,306,152,306z M152,226c17.7,0,32,14.3,32,32
	s-14.3,32-32,32s-32-14.3-32-32S134.3,226,152,226z"/>
<path d="M152,434c26.5,0,48-21.5,48-48s-21.5-48-48-48s-48,21.5-48,48C104,412.5,125.5,434,152,434z M152,354c17.7,0,32,14.3,32,32
	s-14.3,32-32,32s-32-14.3-32-32S134.3,354,152,354z"/>
</svg>
